<?xml version="1.0" encoding="utf-8" standalone="no"?>
<!DOCTYPE svg PUBLIC "-//W3C//DTD SVG 1.1//EN"
  "http://www.w3.org/Graphics/SVG/1.1/DTD/svg11.dtd">
<svg xmlns:xlink="http://www.w3.org/1999/xlink" width="665.788594pt" height="315.698125pt" viewBox="0 0 665.788594 315.698125" xmlns="http://www.w3.org/2000/svg" version="1.1">
 <metadata>
  <rdf:RDF xmlns:dc="http://purl.org/dc/elements/1.1/" xmlns:cc="http://creativecommons.org/ns#" xmlns:rdf="http://www.w3.org/1999/02/22-rdf-syntax-ns#">
   <cc:Work>
    <dc:type rdf:resource="http://purl.org/dc/dcmitype/StillImage"/>
    <dc:date>2026-05-16T13:50:09.696473</dc:date>
    <dc:format>image/svg+xml</dc:format>
    <dc:creator>
     <cc:Agent>
      <dc:title>Matplotlib v3.10.9, https://matplotlib.org/</dc:title>
     </cc:Agent>
    </dc:creator>
   </cc:Work>
  </rdf:RDF>
 </metadata>
 <defs>
  <style type="text/css">*{stroke-linejoin: round; stroke-linecap: butt}</style>
 </defs>
 <g id="figure_1">
  <g id="patch_1">
   <path d="M 0 315.698125 
L 665.788594 315.698125 
L 665.788594 0 
L 0 0 
z
" style="fill: #ffffff"/>
  </g>
  <g id="axes_1">
   <g id="patch_2">
    <path d="M 53.191094 278.838437 
L 648.191094 278.838437 
L 648.191094 17.198437 
L 53.191094 17.198437 
z
" style="fill: #ffffff"/>
   </g>
   <g id="matplotlib.axis_1">
    <g id="xtick_1">
     <g id="line2d_1">
      <path d="M 97.265168 278.838437 
L 97.265168 17.198437 
" clip-path="url(#pb2f481993a)" style="fill: none; stroke-dasharray: 0.8,1.32; stroke-dashoffset: 0; stroke: #b0b0b0; stroke-opacity: 0.3; stroke-width: 0.8"/>
     </g>
     <g id="line2d_2">
      <defs>
       <path id="m2e28df2b21" d="M 0 0 
L 0 3.5 
" style="stroke: #000000; stroke-width: 0.8"/>
      </defs>
      <g>
       <use xlink:href="#m2e28df2b21" x="97.265168" y="278.838437" style="stroke: #000000; stroke-width: 0.8"/>
      </g>
     </g>
     <g id="text_1">
      <!-- 2000 -->
      <g transform="translate(83.267668 294.196719) scale(0.11 -0.11)">
       <defs>
        <path id="DejaVuSerif-32" d="M 819 3553 
L 469 3553 
L 469 4384 
Q 803 4563 1142 4656 
Q 1481 4750 1806 4750 
Q 2534 4750 2956 4397 
Q 3378 4044 3378 3438 
Q 3378 2753 2422 1800 
Q 2347 1728 2309 1691 
L 1131 513 
L 3078 513 
L 3078 1088 
L 3444 1088 
L 3444 0 
L 434 0 
L 434 341 
L 1850 1753 
Q 2319 2222 2519 2614 
Q 2719 3006 2719 3438 
Q 2719 3909 2473 4175 
Q 2228 4441 1797 4441 
Q 1350 4441 1106 4219 
Q 863 3997 819 3553 
z
" transform="scale(0.015625)"/>
        <path id="DejaVuSerif-30" d="M 2034 219 
Q 2513 219 2750 744 
Q 2988 1269 2988 2328 
Q 2988 3391 2750 3916 
Q 2513 4441 2034 4441 
Q 1556 4441 1318 3916 
Q 1081 3391 1081 2328 
Q 1081 1269 1318 744 
Q 1556 219 2034 219 
z
M 2034 -91 
Q 1275 -91 848 546 
Q 422 1184 422 2328 
Q 422 3475 848 4112 
Q 1275 4750 2034 4750 
Q 2797 4750 3222 4112 
Q 3647 3475 3647 2328 
Q 3647 1184 3222 546 
Q 2797 -91 2034 -91 
z
" transform="scale(0.015625)"/>
       </defs>
       <use xlink:href="#DejaVuSerif-32"/>
       <use xlink:href="#DejaVuSerif-30" transform="translate(63.623047 0)"/>
       <use xlink:href="#DejaVuSerif-30" transform="translate(127.246094 0)"/>
       <use xlink:href="#DejaVuSerif-30" transform="translate(190.869141 0)"/>
      </g>
     </g>
    </g>
    <g id="xtick_2">
     <g id="line2d_3">
      <path d="M 207.450353 278.838437 
L 207.450353 17.198437 
" clip-path="url(#pb2f481993a)" style="fill: none; stroke-dasharray: 0.8,1.32; stroke-dashoffset: 0; stroke: #b0b0b0; stroke-opacity: 0.3; stroke-width: 0.8"/>
     </g>
     <g id="line2d_4">
      <g>
       <use xlink:href="#m2e28df2b21" x="207.450353" y="278.838437" style="stroke: #000000; stroke-width: 0.8"/>
      </g>
     </g>
     <g id="text_2">
      <!-- 2005 -->
      <g transform="translate(193.452853 294.196719) scale(0.11 -0.11)">
       <defs>
        <path id="DejaVuSerif-35" d="M 3219 4666 
L 3219 4153 
L 1081 4153 
L 1081 2816 
Q 1244 2928 1461 2984 
Q 1678 3041 1947 3041 
Q 2703 3041 3140 2622 
Q 3578 2203 3578 1478 
Q 3578 738 3136 323 
Q 2694 -91 1894 -91 
Q 1572 -91 1234 -12 
Q 897 66 544 225 
L 544 1131 
L 897 1131 
Q 925 688 1179 453 
Q 1434 219 1894 219 
Q 2388 219 2653 544 
Q 2919 869 2919 1478 
Q 2919 2084 2655 2407 
Q 2391 2731 1894 2731 
Q 1613 2731 1398 2631 
Q 1184 2531 1019 2322 
L 750 2322 
L 750 4666 
L 3219 4666 
z
" transform="scale(0.015625)"/>
       </defs>
       <use xlink:href="#DejaVuSerif-32"/>
       <use xlink:href="#DejaVuSerif-30" transform="translate(63.623047 0)"/>
       <use xlink:href="#DejaVuSerif-30" transform="translate(127.246094 0)"/>
       <use xlink:href="#DejaVuSerif-35" transform="translate(190.869141 0)"/>
      </g>
     </g>
    </g>
    <g id="xtick_3">
     <g id="line2d_5">
      <path d="M 317.635538 278.838437 
L 317.635538 17.198437 
" clip-path="url(#pb2f481993a)" style="fill: none; stroke-dasharray: 0.8,1.32; stroke-dashoffset: 0; stroke: #b0b0b0; stroke-opacity: 0.3; stroke-width: 0.8"/>
     </g>
     <g id="line2d_6">
      <g>
       <use xlink:href="#m2e28df2b21" x="317.635538" y="278.838437" style="stroke: #000000; stroke-width: 0.8"/>
      </g>
     </g>
     <g id="text_3">
      <!-- 2010 -->
      <g transform="translate(303.638038 294.196719) scale(0.11 -0.11)">
       <defs>
        <path id="DejaVuSerif-31" d="M 909 0 
L 909 331 
L 1722 331 
L 1722 4213 
L 781 3603 
L 781 4013 
L 1919 4750 
L 2350 4750 
L 2350 331 
L 3163 331 
L 3163 0 
L 909 0 
z
" transform="scale(0.015625)"/>
       </defs>
       <use xlink:href="#DejaVuSerif-32"/>
       <use xlink:href="#DejaVuSerif-30" transform="translate(63.623047 0)"/>
       <use xlink:href="#DejaVuSerif-31" transform="translate(127.246094 0)"/>
       <use xlink:href="#DejaVuSerif-30" transform="translate(190.869141 0)"/>
      </g>
     </g>
    </g>
    <g id="xtick_4">
     <g id="line2d_7">
      <path d="M 427.820723 278.838437 
L 427.820723 17.198437 
" clip-path="url(#pb2f481993a)" style="fill: none; stroke-dasharray: 0.8,1.32; stroke-dashoffset: 0; stroke: #b0b0b0; stroke-opacity: 0.3; stroke-width: 0.8"/>
     </g>
     <g id="line2d_8">
      <g>
       <use xlink:href="#m2e28df2b21" x="427.820723" y="278.838437" style="stroke: #000000; stroke-width: 0.8"/>
      </g>
     </g>
     <g id="text_4">
      <!-- 2015 -->
      <g transform="translate(413.823223 294.196719) scale(0.11 -0.11)">
       <use xlink:href="#DejaVuSerif-32"/>
       <use xlink:href="#DejaVuSerif-30" transform="translate(63.623047 0)"/>
       <use xlink:href="#DejaVuSerif-31" transform="translate(127.246094 0)"/>
       <use xlink:href="#DejaVuSerif-35" transform="translate(190.869141 0)"/>
      </g>
     </g>
    </g>
    <g id="xtick_5">
     <g id="line2d_9">
      <path d="M 538.005909 278.838437 
L 538.005909 17.198437 
" clip-path="url(#pb2f481993a)" style="fill: none; stroke-dasharray: 0.8,1.32; stroke-dashoffset: 0; stroke: #b0b0b0; stroke-opacity: 0.3; stroke-width: 0.8"/>
     </g>
     <g id="line2d_10">
      <g>
       <use xlink:href="#m2e28df2b21" x="538.005909" y="278.838437" style="stroke: #000000; stroke-width: 0.8"/>
      </g>
     </g>
     <g id="text_5">
      <!-- 2020 -->
      <g transform="translate(524.008409 294.196719) scale(0.11 -0.11)">
       <use xlink:href="#DejaVuSerif-32"/>
       <use xlink:href="#DejaVuSerif-30" transform="translate(63.623047 0)"/>
       <use xlink:href="#DejaVuSerif-32" transform="translate(127.246094 0)"/>
       <use xlink:href="#DejaVuSerif-30" transform="translate(190.869141 0)"/>
      </g>
     </g>
    </g>
    <g id="xtick_6">
     <g id="line2d_11">
      <path d="M 648.191094 278.838437 
L 648.191094 17.198437 
" clip-path="url(#pb2f481993a)" style="fill: none; stroke-dasharray: 0.8,1.32; stroke-dashoffset: 0; stroke: #b0b0b0; stroke-opacity: 0.3; stroke-width: 0.8"/>
     </g>
     <g id="line2d_12">
      <g>
       <use xlink:href="#m2e28df2b21" x="648.191094" y="278.838437" style="stroke: #000000; stroke-width: 0.8"/>
      </g>
     </g>
     <g id="text_6">
      <!-- 2025 -->
      <g transform="translate(634.193594 294.196719) scale(0.11 -0.11)">
       <use xlink:href="#DejaVuSerif-32"/>
       <use xlink:href="#DejaVuSerif-30" transform="translate(63.623047 0)"/>
       <use xlink:href="#DejaVuSerif-32" transform="translate(127.246094 0)"/>
       <use xlink:href="#DejaVuSerif-35" transform="translate(190.869141 0)"/>
      </g>
     </g>
    </g>
    <g id="text_7">
     <!-- year -->
     <g transform="translate(337.304531 309.431875) scale(0.12 -0.12)">
      <defs>
       <path id="DejaVuSerif-79" d="M 1381 -609 
L 1600 -56 
L 359 2988 
L -19 2988 
L -19 3322 
L 1509 3322 
L 1509 2988 
L 978 2988 
L 1913 703 
L 2847 2988 
L 2350 2988 
L 2350 3322 
L 3597 3322 
L 3597 2988 
L 3225 2988 
L 1703 -750 
Q 1547 -1138 1356 -1280 
Q 1166 -1422 819 -1422 
Q 672 -1422 517 -1397 
Q 363 -1372 206 -1325 
L 206 -691 
L 500 -691 
Q 519 -903 608 -995 
Q 697 -1088 884 -1088 
Q 1056 -1088 1161 -992 
Q 1266 -897 1381 -609 
z
" transform="scale(0.015625)"/>
       <path id="DejaVuSerif-65" d="M 3469 1600 
L 991 1600 
L 991 1575 
Q 991 903 1244 561 
Q 1497 219 1991 219 
Q 2369 219 2611 417 
Q 2853 616 2950 1006 
L 3413 1006 
Q 3275 459 2904 184 
Q 2534 -91 1931 -91 
Q 1203 -91 761 389 
Q 319 869 319 1663 
Q 319 2450 753 2931 
Q 1188 3413 1894 3413 
Q 2647 3413 3050 2948 
Q 3453 2484 3469 1600 
z
M 2791 1931 
Q 2772 2513 2545 2808 
Q 2319 3103 1894 3103 
Q 1497 3103 1269 2806 
Q 1041 2509 991 1931 
L 2791 1931 
z
" transform="scale(0.015625)"/>
       <path id="DejaVuSerif-61" d="M 2547 1044 
L 2547 1747 
L 1806 1747 
Q 1378 1747 1168 1562 
Q 959 1378 959 997 
Q 959 650 1171 447 
Q 1384 244 1747 244 
Q 2106 244 2326 466 
Q 2547 688 2547 1044 
z
M 3122 2075 
L 3122 331 
L 3634 331 
L 3634 0 
L 2547 0 
L 2547 359 
Q 2356 128 2106 18 
Q 1856 -91 1522 -91 
Q 969 -91 644 203 
Q 319 497 319 997 
Q 319 1513 691 1797 
Q 1063 2081 1741 2081 
L 2547 2081 
L 2547 2309 
Q 2547 2688 2317 2895 
Q 2088 3103 1672 3103 
Q 1328 3103 1125 2947 
Q 922 2791 872 2484 
L 575 2484 
L 575 3156 
Q 875 3284 1158 3348 
Q 1441 3413 1709 3413 
Q 2400 3413 2761 3070 
Q 3122 2728 3122 2075 
z
" transform="scale(0.015625)"/>
       <path id="DejaVuSerif-72" d="M 3059 3328 
L 3059 2497 
L 2728 2497 
Q 2713 2744 2591 2866 
Q 2469 2988 2234 2988 
Q 1809 2988 1582 2694 
Q 1356 2400 1356 1850 
L 1356 331 
L 2022 331 
L 2022 0 
L 263 0 
L 263 331 
L 781 331 
L 781 2994 
L 231 2994 
L 231 3322 
L 1356 3322 
L 1356 2731 
Q 1525 3078 1790 3245 
Q 2056 3413 2438 3413 
Q 2578 3413 2733 3391 
Q 2888 3369 3059 3328 
z
" transform="scale(0.015625)"/>
      </defs>
      <use xlink:href="#DejaVuSerif-79"/>
      <use xlink:href="#DejaVuSerif-65" transform="translate(56.494141 0)"/>
      <use xlink:href="#DejaVuSerif-61" transform="translate(115.673828 0)"/>
      <use xlink:href="#DejaVuSerif-72" transform="translate(175.292969 0)"/>
     </g>
    </g>
   </g>
   <g id="matplotlib.axis_2">
    <g id="ytick_1">
     <g id="line2d_13">
      <defs>
       <path id="m74c0bb9cf9" d="M 0 0 
L -3.5 0 
" style="stroke: #000000; stroke-width: 0.8"/>
      </defs>
      <g>
       <use xlink:href="#m74c0bb9cf9" x="53.191094" y="278.838437" style="stroke: #000000; stroke-width: 0.8"/>
      </g>
     </g>
     <g id="text_8">
      <!-- −1.0 -->
      <g transform="translate(19.48 283.017578) scale(0.11 -0.11)">
       <defs>
        <path id="DejaVuSerif-2212" d="M 678 2259 
L 4684 2259 
L 4684 1753 
L 678 1753 
L 678 2259 
z
" transform="scale(0.015625)"/>
        <path id="DejaVuSerif-2e" d="M 603 325 
Q 603 500 722 622 
Q 841 744 1019 744 
Q 1191 744 1312 622 
Q 1434 500 1434 325 
Q 1434 153 1312 31 
Q 1191 -91 1019 -91 
Q 841 -91 722 29 
Q 603 150 603 325 
z
" transform="scale(0.015625)"/>
       </defs>
       <use xlink:href="#DejaVuSerif-2212"/>
       <use xlink:href="#DejaVuSerif-31" transform="translate(83.789062 0)"/>
       <use xlink:href="#DejaVuSerif-2e" transform="translate(147.412109 0)"/>
       <use xlink:href="#DejaVuSerif-30" transform="translate(179.199219 0)"/>
      </g>
     </g>
    </g>
    <g id="ytick_2">
     <g id="line2d_14">
      <g>
       <use xlink:href="#m74c0bb9cf9" x="53.191094" y="246.133437" style="stroke: #000000; stroke-width: 0.8"/>
      </g>
     </g>
     <g id="text_9">
      <!-- −0.8 -->
      <g transform="translate(19.48 250.312578) scale(0.11 -0.11)">
       <defs>
        <path id="DejaVuSerif-38" d="M 2981 1275 
Q 2981 1775 2732 2051 
Q 2484 2328 2034 2328 
Q 1584 2328 1336 2051 
Q 1088 1775 1088 1275 
Q 1088 772 1336 495 
Q 1584 219 2034 219 
Q 2484 219 2732 495 
Q 2981 772 2981 1275 
z
M 2853 3541 
Q 2853 3966 2637 4203 
Q 2422 4441 2034 4441 
Q 1650 4441 1433 4203 
Q 1216 3966 1216 3541 
Q 1216 3113 1433 2875 
Q 1650 2638 2034 2638 
Q 2422 2638 2637 2875 
Q 2853 3113 2853 3541 
z
M 2516 2484 
Q 3047 2413 3344 2092 
Q 3641 1772 3641 1275 
Q 3641 619 3225 264 
Q 2809 -91 2034 -91 
Q 1263 -91 845 264 
Q 428 619 428 1275 
Q 428 1772 725 2092 
Q 1022 2413 1556 2484 
Q 1084 2569 832 2842 
Q 581 3116 581 3541 
Q 581 4103 968 4426 
Q 1356 4750 2034 4750 
Q 2713 4750 3100 4426 
Q 3488 4103 3488 3541 
Q 3488 3116 3236 2842 
Q 2984 2569 2516 2484 
z
" transform="scale(0.015625)"/>
       </defs>
       <use xlink:href="#DejaVuSerif-2212"/>
       <use xlink:href="#DejaVuSerif-30" transform="translate(83.789062 0)"/>
       <use xlink:href="#DejaVuSerif-2e" transform="translate(147.412109 0)"/>
       <use xlink:href="#DejaVuSerif-38" transform="translate(179.199219 0)"/>
      </g>
     </g>
    </g>
    <g id="ytick_3">
     <g id="line2d_15">
      <g>
       <use xlink:href="#m74c0bb9cf9" x="53.191094" y="213.428437" style="stroke: #000000; stroke-width: 0.8"/>
      </g>
     </g>
     <g id="text_10">
      <!-- −0.6 -->
      <g transform="translate(19.48 217.607578) scale(0.11 -0.11)">
       <defs>
        <path id="DejaVuSerif-36" d="M 2094 219 
Q 2534 219 2771 542 
Q 3009 866 3009 1472 
Q 3009 2078 2771 2401 
Q 2534 2725 2094 2725 
Q 1647 2725 1412 2412 
Q 1178 2100 1178 1509 
Q 1178 888 1415 553 
Q 1653 219 2094 219 
z
M 1075 2569 
Q 1288 2803 1556 2918 
Q 1825 3034 2163 3034 
Q 2859 3034 3264 2615 
Q 3669 2197 3669 1472 
Q 3669 763 3233 336 
Q 2797 -91 2069 -91 
Q 1278 -91 853 498 
Q 428 1088 428 2181 
Q 428 3406 931 4078 
Q 1434 4750 2350 4750 
Q 2597 4750 2869 4703 
Q 3141 4656 3425 4563 
L 3425 3794 
L 3072 3794 
Q 3034 4109 2831 4275 
Q 2628 4441 2284 4441 
Q 1678 4441 1381 3981 
Q 1084 3522 1075 2569 
z
" transform="scale(0.015625)"/>
       </defs>
       <use xlink:href="#DejaVuSerif-2212"/>
       <use xlink:href="#DejaVuSerif-30" transform="translate(83.789062 0)"/>
       <use xlink:href="#DejaVuSerif-2e" transform="translate(147.412109 0)"/>
       <use xlink:href="#DejaVuSerif-36" transform="translate(179.199219 0)"/>
      </g>
     </g>
    </g>
    <g id="ytick_4">
     <g id="line2d_16">
      <g>
       <use xlink:href="#m74c0bb9cf9" x="53.191094" y="180.723437" style="stroke: #000000; stroke-width: 0.8"/>
      </g>
     </g>
     <g id="text_11">
      <!-- −0.4 -->
      <g transform="translate(19.48 184.902578) scale(0.11 -0.11)">
       <defs>
        <path id="DejaVuSerif-34" d="M 2234 1581 
L 2234 4063 
L 641 1581 
L 2234 1581 
z
M 3609 0 
L 1484 0 
L 1484 331 
L 2234 331 
L 2234 1247 
L 197 1247 
L 197 1588 
L 2241 4750 
L 2859 4750 
L 2859 1581 
L 3750 1581 
L 3750 1247 
L 2859 1247 
L 2859 331 
L 3609 331 
L 3609 0 
z
" transform="scale(0.015625)"/>
       </defs>
       <use xlink:href="#DejaVuSerif-2212"/>
       <use xlink:href="#DejaVuSerif-30" transform="translate(83.789062 0)"/>
       <use xlink:href="#DejaVuSerif-2e" transform="translate(147.412109 0)"/>
       <use xlink:href="#DejaVuSerif-34" transform="translate(179.199219 0)"/>
      </g>
     </g>
    </g>
    <g id="ytick_5">
     <g id="line2d_17">
      <g>
       <use xlink:href="#m74c0bb9cf9" x="53.191094" y="148.018437" style="stroke: #000000; stroke-width: 0.8"/>
      </g>
     </g>
     <g id="text_12">
      <!-- −0.2 -->
      <g transform="translate(19.48 152.197578) scale(0.11 -0.11)">
       <use xlink:href="#DejaVuSerif-2212"/>
       <use xlink:href="#DejaVuSerif-30" transform="translate(83.789062 0)"/>
       <use xlink:href="#DejaVuSerif-2e" transform="translate(147.412109 0)"/>
       <use xlink:href="#DejaVuSerif-32" transform="translate(179.199219 0)"/>
      </g>
     </g>
    </g>
    <g id="ytick_6">
     <g id="line2d_18">
      <g>
       <use xlink:href="#m74c0bb9cf9" x="53.191094" y="115.313437" style="stroke: #000000; stroke-width: 0.8"/>
      </g>
     </g>
     <g id="text_13">
      <!-- 0.0 -->
      <g transform="translate(28.697656 119.492578) scale(0.11 -0.11)">
       <use xlink:href="#DejaVuSerif-30"/>
       <use xlink:href="#DejaVuSerif-2e" transform="translate(63.623047 0)"/>
       <use xlink:href="#DejaVuSerif-30" transform="translate(95.410156 0)"/>
      </g>
     </g>
    </g>
    <g id="ytick_7">
     <g id="line2d_19">
      <g>
       <use xlink:href="#m74c0bb9cf9" x="53.191094" y="82.608437" style="stroke: #000000; stroke-width: 0.8"/>
      </g>
     </g>
     <g id="text_14">
      <!-- 0.2 -->
      <g transform="translate(28.697656 86.787578) scale(0.11 -0.11)">
       <use xlink:href="#DejaVuSerif-30"/>
       <use xlink:href="#DejaVuSerif-2e" transform="translate(63.623047 0)"/>
       <use xlink:href="#DejaVuSerif-32" transform="translate(95.410156 0)"/>
      </g>
     </g>
    </g>
    <g id="ytick_8">
     <g id="line2d_20">
      <g>
       <use xlink:href="#m74c0bb9cf9" x="53.191094" y="49.903437" style="stroke: #000000; stroke-width: 0.8"/>
      </g>
     </g>
     <g id="text_15">
      <!-- 0.4 -->
      <g transform="translate(28.697656 54.082578) scale(0.11 -0.11)">
       <use xlink:href="#DejaVuSerif-30"/>
       <use xlink:href="#DejaVuSerif-2e" transform="translate(63.623047 0)"/>
       <use xlink:href="#DejaVuSerif-34" transform="translate(95.410156 0)"/>
      </g>
     </g>
    </g>
    <g id="ytick_9">
     <g id="line2d_21">
      <g>
       <use xlink:href="#m74c0bb9cf9" x="53.191094" y="17.198437" style="stroke: #000000; stroke-width: 0.8"/>
      </g>
     </g>
     <g id="text_16">
      <!-- 0.6 -->
      <g transform="translate(28.697656 21.377578) scale(0.11 -0.11)">
       <use xlink:href="#DejaVuSerif-30"/>
       <use xlink:href="#DejaVuSerif-2e" transform="translate(63.623047 0)"/>
       <use xlink:href="#DejaVuSerif-36" transform="translate(95.410156 0)"/>
      </g>
     </g>
    </g>
    <g id="text_17">
     <!-- Kendall $\tau$ (top) / fielded bound (mid) / theory (bottom) -->
     <g transform="translate(12.72 312.538437) rotate(-90) scale(0.12 -0.12)">
      <defs>
       <path id="DejaVuSerif-4b" d="M 353 0 
L 353 331 
L 947 331 
L 947 4331 
L 353 4331 
L 353 4666 
L 2175 4666 
L 2175 4331 
L 1581 4331 
L 1581 2566 
L 3591 4331 
L 3084 4331 
L 3084 4666 
L 4634 4666 
L 4634 4331 
L 4109 4331 
L 2106 2572 
L 4347 331 
L 4878 331 
L 4878 0 
L 3794 0 
L 1581 2216 
L 1581 331 
L 2175 331 
L 2175 0 
L 353 0 
z
" transform="scale(0.015625)"/>
       <path id="DejaVuSerif-6e" d="M 263 0 
L 263 331 
L 781 331 
L 781 2988 
L 231 2988 
L 231 3322 
L 1356 3322 
L 1356 2731 
Q 1516 3069 1770 3241 
Q 2025 3413 2363 3413 
Q 2913 3413 3172 3097 
Q 3431 2781 3431 2113 
L 3431 331 
L 3944 331 
L 3944 0 
L 2356 0 
L 2356 331 
L 2853 331 
L 2853 1931 
Q 2853 2541 2703 2767 
Q 2553 2994 2175 2994 
Q 1775 2994 1565 2701 
Q 1356 2409 1356 1850 
L 1356 331 
L 1856 331 
L 1856 0 
L 263 0 
z
" transform="scale(0.015625)"/>
       <path id="DejaVuSerif-64" d="M 3359 331 
L 3909 331 
L 3909 0 
L 2784 0 
L 2784 519 
Q 2616 206 2355 57 
Q 2094 -91 1709 -91 
Q 1097 -91 708 395 
Q 319 881 319 1663 
Q 319 2444 706 2928 
Q 1094 3413 1709 3413 
Q 2094 3413 2355 3264 
Q 2616 3116 2784 2803 
L 2784 4531 
L 2241 4531 
L 2241 4863 
L 3359 4863 
L 3359 331 
z
M 2784 1497 
L 2784 1825 
Q 2784 2422 2554 2737 
Q 2325 3053 1888 3053 
Q 1444 3053 1217 2703 
Q 991 2353 991 1663 
Q 991 975 1217 622 
Q 1444 269 1888 269 
Q 2325 269 2554 583 
Q 2784 897 2784 1497 
z
" transform="scale(0.015625)"/>
       <path id="DejaVuSerif-6c" d="M 1313 331 
L 1856 331 
L 1856 0 
L 184 0 
L 184 331 
L 738 331 
L 738 4531 
L 184 4531 
L 184 4863 
L 1313 4863 
L 1313 331 
z
" transform="scale(0.015625)"/>
       <path id="DejaVuSerif-20" transform="scale(0.015625)"/>
       <path id="DejaVuSans-Oblique-3c4" d="M 2103 638 
Q 2188 488 2525 488 
L 2800 488 
L 2706 0 
L 2363 0 
Q 1800 0 1600 300 
Q 1403 606 1534 1269 
L 1856 2925 
L 541 2925 
L 653 3500 
L 3881 3500 
L 3769 2925 
L 2444 2925 
L 2113 1234 
Q 2025 781 2103 638 
z
" transform="scale(0.015625)"/>
       <path id="DejaVuSerif-28" d="M 2041 -997 
Q 1281 -656 893 83 
Q 506 822 506 1931 
Q 506 3044 893 3783 
Q 1281 4522 2041 4863 
L 2041 4556 
Q 1559 4225 1350 3623 
Q 1141 3022 1141 1931 
Q 1141 844 1350 242 
Q 1559 -359 2041 -691 
L 2041 -997 
z
" transform="scale(0.015625)"/>
       <path id="DejaVuSerif-74" d="M 691 2988 
L 184 2988 
L 184 3322 
L 691 3322 
L 691 4353 
L 1269 4353 
L 1269 3322 
L 2350 3322 
L 2350 2988 
L 1269 2988 
L 1269 878 
Q 1269 456 1350 337 
Q 1431 219 1650 219 
Q 1875 219 1978 351 
Q 2081 484 2088 781 
L 2522 781 
Q 2497 328 2275 118 
Q 2053 -91 1600 -91 
Q 1103 -91 897 129 
Q 691 350 691 878 
L 691 2988 
z
" transform="scale(0.015625)"/>
       <path id="DejaVuSerif-6f" d="M 1925 219 
Q 2388 219 2623 584 
Q 2859 950 2859 1663 
Q 2859 2375 2623 2739 
Q 2388 3103 1925 3103 
Q 1463 3103 1227 2739 
Q 991 2375 991 1663 
Q 991 950 1228 584 
Q 1466 219 1925 219 
z
M 1925 -91 
Q 1200 -91 759 389 
Q 319 869 319 1663 
Q 319 2456 758 2934 
Q 1197 3413 1925 3413 
Q 2653 3413 3092 2934 
Q 3531 2456 3531 1663 
Q 3531 869 3092 389 
Q 2653 -91 1925 -91 
z
" transform="scale(0.015625)"/>
       <path id="DejaVuSerif-70" d="M 1313 1825 
L 1313 1497 
Q 1313 897 1542 583 
Q 1772 269 2209 269 
Q 2650 269 2876 622 
Q 3103 975 3103 1663 
Q 3103 2353 2876 2703 
Q 2650 3053 2209 3053 
Q 1772 3053 1542 2737 
Q 1313 2422 1313 1825 
z
M 738 2988 
L 184 2988 
L 184 3322 
L 1313 3322 
L 1313 2803 
Q 1481 3116 1742 3264 
Q 2003 3413 2388 3413 
Q 3000 3413 3387 2928 
Q 3775 2444 3775 1663 
Q 3775 881 3387 395 
Q 3000 -91 2388 -91 
Q 2003 -91 1742 57 
Q 1481 206 1313 519 
L 1313 -997 
L 1856 -997 
L 1856 -1331 
L 184 -1331 
L 184 -997 
L 738 -997 
L 738 2988 
z
" transform="scale(0.015625)"/>
       <path id="DejaVuSerif-29" d="M 453 -997 
L 453 -691 
Q 934 -359 1145 242 
Q 1356 844 1356 1931 
Q 1356 3022 1145 3623 
Q 934 4225 453 4556 
L 453 4863 
Q 1216 4522 1603 3783 
Q 1991 3044 1991 1931 
Q 1991 822 1603 83 
Q 1216 -656 453 -997 
z
" transform="scale(0.015625)"/>
       <path id="DejaVuSerif-2f" d="M 1656 4666 
L 2156 4666 
L 500 -594 
L 0 -594 
L 1656 4666 
z
" transform="scale(0.015625)"/>
       <path id="DejaVuSerif-66" d="M 2753 4078 
L 2450 4078 
Q 2447 4313 2317 4434 
Q 2188 4556 1941 4556 
Q 1619 4556 1487 4379 
Q 1356 4203 1356 3750 
L 1356 3322 
L 2284 3322 
L 2284 2988 
L 1356 2988 
L 1356 331 
L 2094 331 
L 2094 0 
L 231 0 
L 231 331 
L 781 331 
L 781 2988 
L 231 2988 
L 231 3322 
L 781 3322 
L 781 3738 
Q 781 4294 1070 4578 
Q 1359 4863 1919 4863 
Q 2128 4863 2337 4825 
Q 2547 4788 2753 4709 
L 2753 4078 
z
" transform="scale(0.015625)"/>
       <path id="DejaVuSerif-69" d="M 622 4353 
Q 622 4497 726 4603 
Q 831 4709 978 4709 
Q 1122 4709 1226 4603 
Q 1331 4497 1331 4353 
Q 1331 4206 1228 4103 
Q 1125 4000 978 4000 
Q 831 4000 726 4103 
Q 622 4206 622 4353 
z
M 1356 331 
L 1900 331 
L 1900 0 
L 231 0 
L 231 331 
L 781 331 
L 781 2988 
L 231 2988 
L 231 3322 
L 1356 3322 
L 1356 331 
z
" transform="scale(0.015625)"/>
       <path id="DejaVuSerif-62" d="M 738 331 
L 738 4531 
L 184 4531 
L 184 4863 
L 1313 4863 
L 1313 2803 
Q 1481 3116 1742 3264 
Q 2003 3413 2388 3413 
Q 3000 3413 3387 2928 
Q 3775 2444 3775 1663 
Q 3775 881 3387 395 
Q 3000 -91 2388 -91 
Q 2003 -91 1742 57 
Q 1481 206 1313 519 
L 1313 0 
L 184 0 
L 184 331 
L 738 331 
z
M 1313 1497 
Q 1313 897 1542 583 
Q 1772 269 2209 269 
Q 2650 269 2876 622 
Q 3103 975 3103 1663 
Q 3103 2353 2876 2703 
Q 2650 3053 2209 3053 
Q 1772 3053 1542 2737 
Q 1313 2422 1313 1825 
L 1313 1497 
z
" transform="scale(0.015625)"/>
       <path id="DejaVuSerif-75" d="M 2266 3322 
L 3341 3322 
L 3341 331 
L 3884 331 
L 3884 0 
L 2766 0 
L 2766 588 
Q 2606 256 2353 82 
Q 2100 -91 1766 -91 
Q 1213 -91 952 223 
Q 691 538 691 1209 
L 691 2988 
L 172 2988 
L 172 3322 
L 1269 3322 
L 1269 1388 
Q 1269 781 1417 556 
Q 1566 331 1947 331 
Q 2347 331 2556 625 
Q 2766 919 2766 1478 
L 2766 2988 
L 2266 2988 
L 2266 3322 
z
" transform="scale(0.015625)"/>
       <path id="DejaVuSerif-6d" d="M 3316 2675 
Q 3481 3041 3739 3227 
Q 3997 3413 4341 3413 
Q 4863 3413 5119 3089 
Q 5375 2766 5375 2113 
L 5375 331 
L 5894 331 
L 5894 0 
L 4300 0 
L 4300 331 
L 4800 331 
L 4800 2047 
Q 4800 2556 4650 2772 
Q 4500 2988 4153 2988 
Q 3769 2988 3567 2697 
Q 3366 2406 3366 1850 
L 3366 331 
L 3866 331 
L 3866 0 
L 2291 0 
L 2291 331 
L 2791 331 
L 2791 2069 
Q 2791 2566 2641 2777 
Q 2491 2988 2144 2988 
Q 1759 2988 1557 2697 
Q 1356 2406 1356 1850 
L 1356 331 
L 1856 331 
L 1856 0 
L 263 0 
L 263 331 
L 781 331 
L 781 2994 
L 231 2994 
L 231 3322 
L 1356 3322 
L 1356 2731 
Q 1516 3063 1762 3238 
Q 2009 3413 2322 3413 
Q 2709 3413 2968 3220 
Q 3228 3028 3316 2675 
z
" transform="scale(0.015625)"/>
       <path id="DejaVuSerif-68" d="M 263 0 
L 263 331 
L 781 331 
L 781 4531 
L 231 4531 
L 231 4863 
L 1356 4863 
L 1356 2731 
Q 1516 3069 1770 3241 
Q 2025 3413 2363 3413 
Q 2913 3413 3172 3097 
Q 3431 2781 3431 2113 
L 3431 331 
L 3944 331 
L 3944 0 
L 2356 0 
L 2356 331 
L 2853 331 
L 2853 1931 
Q 2853 2541 2704 2764 
Q 2556 2988 2175 2988 
Q 1775 2988 1565 2697 
Q 1356 2406 1356 1850 
L 1356 331 
L 1856 331 
L 1856 0 
L 263 0 
z
" transform="scale(0.015625)"/>
      </defs>
      <use xlink:href="#DejaVuSerif-4b" transform="translate(0 0.015625)"/>
      <use xlink:href="#DejaVuSerif-65" transform="translate(74.707031 0.015625)"/>
      <use xlink:href="#DejaVuSerif-6e" transform="translate(133.886719 0.015625)"/>
      <use xlink:href="#DejaVuSerif-64" transform="translate(198.291016 0.015625)"/>
      <use xlink:href="#DejaVuSerif-61" transform="translate(262.304688 0.015625)"/>
      <use xlink:href="#DejaVuSerif-6c" transform="translate(321.923828 0.015625)"/>
      <use xlink:href="#DejaVuSerif-6c" transform="translate(353.90625 0.015625)"/>
      <use xlink:href="#DejaVuSerif-20" transform="translate(385.888672 0.015625)"/>
      <use xlink:href="#DejaVuSans-Oblique-3c4" transform="translate(417.675781 0.015625)"/>
      <use xlink:href="#DejaVuSerif-20" transform="translate(477.880859 0.015625)"/>
      <use xlink:href="#DejaVuSerif-28" transform="translate(509.667969 0.015625)"/>
      <use xlink:href="#DejaVuSerif-74" transform="translate(548.681641 0.015625)"/>
      <use xlink:href="#DejaVuSerif-6f" transform="translate(588.867188 0.015625)"/>
      <use xlink:href="#DejaVuSerif-70" transform="translate(649.072266 0.015625)"/>
      <use xlink:href="#DejaVuSerif-29" transform="translate(713.085938 0.015625)"/>
      <use xlink:href="#DejaVuSerif-20" transform="translate(752.099609 0.015625)"/>
      <use xlink:href="#DejaVuSerif-2f" transform="translate(783.886719 0.015625)"/>
      <use xlink:href="#DejaVuSerif-20" transform="translate(817.578125 0.015625)"/>
      <use xlink:href="#DejaVuSerif-66" transform="translate(849.365234 0.015625)"/>
      <use xlink:href="#DejaVuSerif-69" transform="translate(886.376953 0.015625)"/>
      <use xlink:href="#DejaVuSerif-65" transform="translate(918.359375 0.015625)"/>
      <use xlink:href="#DejaVuSerif-6c" transform="translate(977.539062 0.015625)"/>
      <use xlink:href="#DejaVuSerif-64" transform="translate(1009.521484 0.015625)"/>
      <use xlink:href="#DejaVuSerif-65" transform="translate(1073.535156 0.015625)"/>
      <use xlink:href="#DejaVuSerif-64" transform="translate(1132.714844 0.015625)"/>
      <use xlink:href="#DejaVuSerif-20" transform="translate(1196.728516 0.015625)"/>
      <use xlink:href="#DejaVuSerif-62" transform="translate(1228.515625 0.015625)"/>
      <use xlink:href="#DejaVuSerif-6f" transform="translate(1292.529297 0.015625)"/>
      <use xlink:href="#DejaVuSerif-75" transform="translate(1352.734375 0.015625)"/>
      <use xlink:href="#DejaVuSerif-6e" transform="translate(1417.138672 0.015625)"/>
      <use xlink:href="#DejaVuSerif-64" transform="translate(1481.542969 0.015625)"/>
      <use xlink:href="#DejaVuSerif-20" transform="translate(1545.556641 0.015625)"/>
      <use xlink:href="#DejaVuSerif-28" transform="translate(1577.34375 0.015625)"/>
      <use xlink:href="#DejaVuSerif-6d" transform="translate(1616.357422 0.015625)"/>
      <use xlink:href="#DejaVuSerif-69" transform="translate(1711.181641 0.015625)"/>
      <use xlink:href="#DejaVuSerif-64" transform="translate(1743.164062 0.015625)"/>
      <use xlink:href="#DejaVuSerif-29" transform="translate(1807.177734 0.015625)"/>
      <use xlink:href="#DejaVuSerif-20" transform="translate(1846.191406 0.015625)"/>
      <use xlink:href="#DejaVuSerif-2f" transform="translate(1877.978516 0.015625)"/>
      <use xlink:href="#DejaVuSerif-20" transform="translate(1911.669922 0.015625)"/>
      <use xlink:href="#DejaVuSerif-74" transform="translate(1943.457031 0.015625)"/>
      <use xlink:href="#DejaVuSerif-68" transform="translate(1983.642578 0.015625)"/>
      <use xlink:href="#DejaVuSerif-65" transform="translate(2048.046875 0.015625)"/>
      <use xlink:href="#DejaVuSerif-6f" transform="translate(2107.226562 0.015625)"/>
      <use xlink:href="#DejaVuSerif-72" transform="translate(2167.431641 0.015625)"/>
      <use xlink:href="#DejaVuSerif-79" transform="translate(2215.234375 0.015625)"/>
      <use xlink:href="#DejaVuSerif-20" transform="translate(2271.728516 0.015625)"/>
      <use xlink:href="#DejaVuSerif-28" transform="translate(2303.515625 0.015625)"/>
      <use xlink:href="#DejaVuSerif-62" transform="translate(2342.529297 0.015625)"/>
      <use xlink:href="#DejaVuSerif-6f" transform="translate(2406.542969 0.015625)"/>
      <use xlink:href="#DejaVuSerif-74" transform="translate(2466.748047 0.015625)"/>
      <use xlink:href="#DejaVuSerif-74" transform="translate(2506.933594 0.015625)"/>
      <use xlink:href="#DejaVuSerif-6f" transform="translate(2547.119141 0.015625)"/>
      <use xlink:href="#DejaVuSerif-6d" transform="translate(2607.324219 0.015625)"/>
      <use xlink:href="#DejaVuSerif-29" transform="translate(2702.148438 0.015625)"/>
     </g>
    </g>
   </g>
   <g id="line2d_22">
    <path d="M 53.191094 115.313437 
L 648.191094 115.313437 
" clip-path="url(#pb2f481993a)" style="fill: none; stroke-dasharray: 0.8,1.32; stroke-dashoffset: 0; stroke: #000000; stroke-opacity: 0.6; stroke-width: 0.8"/>
   </g>
   <g id="line2d_23">
    <path d="M 53.191094 197.075937 
L 648.191094 197.075937 
" clip-path="url(#pb2f481993a)" style="fill: none; stroke-dasharray: 0.6,0.99; stroke-dashoffset: 0; stroke: #000000; stroke-opacity: 0.4; stroke-width: 0.6"/>
   </g>
   <g id="line2d_24">
    <path d="M 53.191094 246.133437 
L 648.191094 246.133437 
" clip-path="url(#pb2f481993a)" style="fill: none; stroke-dasharray: 0.4,0.66; stroke-dashoffset: 0; stroke: #000000; stroke-opacity: 0.3; stroke-width: 0.4"/>
   </g>
   <g id="patch_3">
    <path d="M 53.191094 278.838437 
L 53.191094 17.198437 
" style="fill: none; stroke: #000000; stroke-width: 0.8; stroke-linejoin: miter; stroke-linecap: square"/>
   </g>
   <g id="patch_4">
    <path d="M 53.191094 278.838437 
L 648.191094 278.838437 
" style="fill: none; stroke: #000000; stroke-width: 0.8; stroke-linejoin: miter; stroke-linecap: square"/>
   </g>
   <g id="PathCollection_1">
    <defs>
     <path id="mce0d076ceb" d="M 0 4.1833 
C 1.109424 4.1833 2.173559 3.742521 2.95804 2.95804 
C 3.742521 2.173559 4.1833 1.109424 4.1833 0 
C 4.1833 -1.109424 3.742521 -2.173559 2.95804 -2.95804 
C 2.173559 -3.742521 1.109424 -4.1833 0 -4.1833 
C -1.109424 -4.1833 -2.173559 -3.742521 -2.95804 -2.95804 
C -3.742521 -2.173559 -4.1833 -1.109424 -4.1833 0 
C -4.1833 1.109424 -3.742521 2.173559 -2.95804 2.95804 
C -2.173559 3.742521 -1.109424 4.1833 0 4.1833 
z
" style="stroke: #000000; stroke-width: 0.4"/>
    </defs>
    <g clip-path="url(#pb2f481993a)">
     <use xlink:href="#mce0d076ceb" x="75.228131" y="255.395206" style="fill: #1f77b4; stroke: #000000; stroke-width: 0.4"/>
    </g>
   </g>
   <g id="text_18">
    <!-- McAllester99 -->
    <g transform="translate(77.431834 252.124706) scale(0.065 -0.065)">
     <defs>
      <path id="DejaVuSerif-4d" d="M 353 0 
L 353 331 
L 947 331 
L 947 4331 
L 319 4331 
L 319 4666 
L 1678 4666 
L 3316 1344 
L 4953 4666 
L 6228 4666 
L 6228 4331 
L 5606 4331 
L 5606 331 
L 6203 331 
L 6203 0 
L 4378 0 
L 4378 331 
L 4972 331 
L 4972 3938 
L 3372 684 
L 2931 684 
L 1331 3938 
L 1331 331 
L 1925 331 
L 1925 0 
L 353 0 
z
" transform="scale(0.015625)"/>
      <path id="DejaVuSerif-63" d="M 3291 997 
Q 3169 466 2822 187 
Q 2475 -91 1925 -91 
Q 1200 -91 759 389 
Q 319 869 319 1663 
Q 319 2459 759 2936 
Q 1200 3413 1925 3413 
Q 2241 3413 2553 3339 
Q 2866 3266 3181 3116 
L 3181 2266 
L 2847 2266 
Q 2781 2703 2561 2903 
Q 2341 3103 1931 3103 
Q 1466 3103 1228 2742 
Q 991 2381 991 1663 
Q 991 944 1227 581 
Q 1463 219 1931 219 
Q 2303 219 2525 412 
Q 2747 606 2828 997 
L 3291 997 
z
" transform="scale(0.015625)"/>
      <path id="DejaVuSerif-41" d="M 1281 1691 
L 2994 1691 
L 2138 3909 
L 1281 1691 
z
M -38 0 
L -38 331 
L 372 331 
L 2034 4666 
L 2559 4666 
L 4225 331 
L 4684 331 
L 4684 0 
L 2988 0 
L 2988 331 
L 3506 331 
L 3116 1356 
L 1153 1356 
L 763 331 
L 1275 331 
L 1275 0 
L -38 0 
z
" transform="scale(0.015625)"/>
      <path id="DejaVuSerif-73" d="M 359 184 
L 359 959 
L 691 959 
Q 703 588 923 403 
Q 1144 219 1575 219 
Q 1963 219 2166 364 
Q 2369 509 2369 788 
Q 2369 1006 2220 1140 
Q 2072 1275 1594 1428 
L 1178 1569 
Q 750 1706 558 1912 
Q 366 2119 366 2438 
Q 366 2894 700 3153 
Q 1034 3413 1625 3413 
Q 1888 3413 2178 3344 
Q 2469 3275 2778 3144 
L 2778 2419 
L 2447 2419 
Q 2434 2741 2221 2922 
Q 2009 3103 1644 3103 
Q 1281 3103 1095 2975 
Q 909 2847 909 2591 
Q 909 2381 1050 2254 
Q 1191 2128 1613 1997 
L 2069 1856 
Q 2541 1709 2748 1489 
Q 2956 1269 2956 922 
Q 2956 450 2595 179 
Q 2234 -91 1600 -91 
Q 1278 -91 972 -22 
Q 666 47 359 184 
z
" transform="scale(0.015625)"/>
      <path id="DejaVuSerif-39" d="M 2994 2091 
Q 2784 1856 2512 1740 
Q 2241 1625 1900 1625 
Q 1206 1625 804 2044 
Q 403 2463 403 3188 
Q 403 3897 839 4323 
Q 1275 4750 2003 4750 
Q 2794 4750 3217 4161 
Q 3641 3572 3641 2478 
Q 3641 1253 3137 581 
Q 2634 -91 1722 -91 
Q 1475 -91 1203 -44 
Q 931 3 647 97 
L 647 872 
L 997 872 
Q 1038 556 1241 387 
Q 1444 219 1784 219 
Q 2391 219 2687 676 
Q 2984 1134 2994 2091 
z
M 1978 4441 
Q 1534 4441 1298 4117 
Q 1063 3794 1063 3188 
Q 1063 2581 1298 2256 
Q 1534 1931 1978 1931 
Q 2422 1931 2658 2245 
Q 2894 2559 2894 3150 
Q 2894 3772 2656 4106 
Q 2419 4441 1978 4441 
z
" transform="scale(0.015625)"/>
     </defs>
     <use xlink:href="#DejaVuSerif-4d"/>
     <use xlink:href="#DejaVuSerif-63" transform="translate(102.392578 0)"/>
     <use xlink:href="#DejaVuSerif-41" transform="translate(158.398438 0)"/>
     <use xlink:href="#DejaVuSerif-6c" transform="translate(230.615234 0)"/>
     <use xlink:href="#DejaVuSerif-6c" transform="translate(262.597656 0)"/>
     <use xlink:href="#DejaVuSerif-65" transform="translate(294.580078 0)"/>
     <use xlink:href="#DejaVuSerif-73" transform="translate(353.759766 0)"/>
     <use xlink:href="#DejaVuSerif-74" transform="translate(405.078125 0)"/>
     <use xlink:href="#DejaVuSerif-65" transform="translate(445.263672 0)"/>
     <use xlink:href="#DejaVuSerif-72" transform="translate(504.443359 0)"/>
     <use xlink:href="#DejaVuSerif-39" transform="translate(552.246094 0)"/>
     <use xlink:href="#DejaVuSerif-39" transform="translate(615.869141 0)"/>
    </g>
   </g>
   <g id="PathCollection_2">
    <defs>
     <path id="m26d39801a3" d="M 0 4.472136 
C 1.186024 4.472136 2.323632 4.000923 3.162278 3.162278 
C 4.000923 2.323632 4.472136 1.186024 4.472136 0 
C 4.472136 -1.186024 4.000923 -2.323632 3.162278 -3.162278 
C 2.323632 -4.000923 1.186024 -4.472136 0 -4.472136 
C -1.186024 -4.472136 -2.323632 -4.000923 -3.162278 -3.162278 
C -4.000923 -2.323632 -4.472136 -1.186024 -4.472136 0 
C -4.472136 1.186024 -4.000923 2.323632 -3.162278 3.162278 
C -2.323632 4.000923 -1.186024 4.472136 0 4.472136 
z
" style="stroke: #000000; stroke-width: 0.4"/>
    </defs>
    <g clip-path="url(#pb2f481993a)">
     <use xlink:href="#m26d39801a3" x="141.339242" y="202.369902" style="fill: #1f77b4; stroke: #000000; stroke-width: 0.4"/>
    </g>
   </g>
   <g id="text_19">
    <!-- Seeger02 -->
    <g transform="translate(143.542946 189.752952) scale(0.068 -0.068)">
     <defs>
      <path id="DejaVuSerif-53" d="M 594 225 
L 594 1288 
L 953 1284 
Q 969 753 1261 498 
Q 1553 244 2150 244 
Q 2706 244 2998 464 
Q 3291 684 3291 1106 
Q 3291 1444 3114 1625 
Q 2938 1806 2369 1978 
L 1753 2163 
Q 1084 2366 811 2669 
Q 538 2972 538 3500 
Q 538 4094 959 4422 
Q 1381 4750 2144 4750 
Q 2469 4750 2856 4679 
Q 3244 4609 3681 4475 
L 3681 3481 
L 3328 3481 
Q 3275 3975 2998 4195 
Q 2722 4416 2156 4416 
Q 1663 4416 1405 4214 
Q 1147 4013 1147 3628 
Q 1147 3294 1340 3103 
Q 1534 2913 2163 2725 
L 2741 2553 
Q 3375 2363 3645 2067 
Q 3916 1772 3916 1275 
Q 3916 597 3481 253 
Q 3047 -91 2188 -91 
Q 1803 -91 1404 -12 
Q 1006 66 594 225 
z
" transform="scale(0.015625)"/>
      <path id="DejaVuSerif-67" d="M 3359 2988 
L 3359 72 
Q 3359 -644 2965 -1033 
Q 2572 -1422 1844 -1422 
Q 1516 -1422 1216 -1362 
Q 916 -1303 641 -1184 
L 641 -488 
L 941 -488 
Q 997 -813 1206 -963 
Q 1416 -1113 1806 -1113 
Q 2313 -1113 2548 -827 
Q 2784 -541 2784 72 
L 2784 519 
Q 2616 206 2355 57 
Q 2094 -91 1709 -91 
Q 1097 -91 708 395 
Q 319 881 319 1663 
Q 319 2444 706 2928 
Q 1094 3413 1709 3413 
Q 2094 3413 2355 3264 
Q 2616 3116 2784 2803 
L 2784 3322 
L 3909 3322 
L 3909 2988 
L 3359 2988 
z
M 2784 1825 
Q 2784 2422 2554 2737 
Q 2325 3053 1888 3053 
Q 1444 3053 1217 2703 
Q 991 2353 991 1663 
Q 991 975 1217 622 
Q 1444 269 1888 269 
Q 2325 269 2554 583 
Q 2784 897 2784 1497 
L 2784 1825 
z
" transform="scale(0.015625)"/>
     </defs>
     <use xlink:href="#DejaVuSerif-53"/>
     <use xlink:href="#DejaVuSerif-65" transform="translate(68.505859 0)"/>
     <use xlink:href="#DejaVuSerif-65" transform="translate(127.685547 0)"/>
     <use xlink:href="#DejaVuSerif-67" transform="translate(186.865234 0)"/>
     <use xlink:href="#DejaVuSerif-65" transform="translate(250.878906 0)"/>
     <use xlink:href="#DejaVuSerif-72" transform="translate(310.058594 0)"/>
     <use xlink:href="#DejaVuSerif-30" transform="translate(357.861328 0)"/>
     <use xlink:href="#DejaVuSerif-32" transform="translate(421.484375 0)"/>
    </g>
    <!-- (b=0.29) -->
    <g transform="translate(143.542946 197.464152) scale(0.068 -0.068)">
     <defs>
      <path id="DejaVuSerif-3d" d="M 678 2894 
L 4684 2894 
L 4684 2394 
L 678 2394 
L 678 2894 
z
M 678 1619 
L 4684 1619 
L 4684 1119 
L 678 1119 
L 678 1619 
z
" transform="scale(0.015625)"/>
     </defs>
     <use xlink:href="#DejaVuSerif-28"/>
     <use xlink:href="#DejaVuSerif-62" transform="translate(39.013672 0)"/>
     <use xlink:href="#DejaVuSerif-3d" transform="translate(103.027344 0)"/>
     <use xlink:href="#DejaVuSerif-30" transform="translate(186.816406 0)"/>
     <use xlink:href="#DejaVuSerif-2e" transform="translate(250.439453 0)"/>
     <use xlink:href="#DejaVuSerif-32" transform="translate(282.226562 0)"/>
     <use xlink:href="#DejaVuSerif-39" transform="translate(345.849609 0)"/>
     <use xlink:href="#DejaVuSerif-29" transform="translate(409.472656 0)"/>
    </g>
   </g>
   <g id="PathCollection_3">
    <g clip-path="url(#pb2f481993a)">
     <use xlink:href="#mce0d076ceb" x="251.524427" y="260.849191" style="fill: #1f77b4; stroke: #000000; stroke-width: 0.4"/>
    </g>
   </g>
   <g id="text_20">
    <!-- Catoni07 -->
    <g transform="translate(253.728131 257.578691) scale(0.065 -0.065)">
     <defs>
      <path id="DejaVuSerif-43" d="M 4513 1234 
Q 4306 581 3820 245 
Q 3334 -91 2591 -91 
Q 2134 -91 1743 65 
Q 1353 222 1050 525 
Q 700 875 529 1320 
Q 359 1766 359 2328 
Q 359 3416 987 4083 
Q 1616 4750 2644 4750 
Q 3025 4750 3456 4650 
Q 3888 4550 4384 4347 
L 4384 3272 
L 4031 3272 
Q 3916 3859 3567 4137 
Q 3219 4416 2591 4416 
Q 1844 4416 1459 3886 
Q 1075 3356 1075 2328 
Q 1075 1303 1459 773 
Q 1844 244 2591 244 
Q 3113 244 3450 492 
Q 3788 741 3938 1234 
L 4513 1234 
z
" transform="scale(0.015625)"/>
      <path id="DejaVuSerif-37" d="M 3609 4347 
L 1784 0 
L 1319 0 
L 3059 4153 
L 903 4153 
L 903 3578 
L 538 3578 
L 538 4666 
L 3609 4666 
L 3609 4347 
z
" transform="scale(0.015625)"/>
     </defs>
     <use xlink:href="#DejaVuSerif-43"/>
     <use xlink:href="#DejaVuSerif-61" transform="translate(76.513672 0)"/>
     <use xlink:href="#DejaVuSerif-74" transform="translate(136.132812 0)"/>
     <use xlink:href="#DejaVuSerif-6f" transform="translate(176.318359 0)"/>
     <use xlink:href="#DejaVuSerif-6e" transform="translate(236.523438 0)"/>
     <use xlink:href="#DejaVuSerif-69" transform="translate(300.927734 0)"/>
     <use xlink:href="#DejaVuSerif-30" transform="translate(332.910156 0)"/>
     <use xlink:href="#DejaVuSerif-37" transform="translate(396.533203 0)"/>
    </g>
   </g>
   <g id="PathCollection_4">
    <g clip-path="url(#pb2f481993a)">
     <use xlink:href="#mce0d076ceb" x="251.524427" y="256.895573" style="fill: #1f77b4; stroke: #000000; stroke-width: 0.4"/>
    </g>
   </g>
   <g id="text_21">
    <!-- Lacasse07 -->
    <g transform="translate(253.728131 253.625073) scale(0.065 -0.065)">
     <defs>
      <path id="DejaVuSerif-4c" d="M 353 0 
L 353 331 
L 947 331 
L 947 4331 
L 353 4331 
L 353 4666 
L 2175 4666 
L 2175 4331 
L 1581 4331 
L 1581 384 
L 3713 384 
L 3713 1166 
L 4097 1166 
L 4097 0 
L 353 0 
z
" transform="scale(0.015625)"/>
     </defs>
     <use xlink:href="#DejaVuSerif-4c"/>
     <use xlink:href="#DejaVuSerif-61" transform="translate(66.40625 0)"/>
     <use xlink:href="#DejaVuSerif-63" transform="translate(126.025391 0)"/>
     <use xlink:href="#DejaVuSerif-61" transform="translate(182.03125 0)"/>
     <use xlink:href="#DejaVuSerif-73" transform="translate(241.650391 0)"/>
     <use xlink:href="#DejaVuSerif-73" transform="translate(292.96875 0)"/>
     <use xlink:href="#DejaVuSerif-65" transform="translate(344.287109 0)"/>
     <use xlink:href="#DejaVuSerif-30" transform="translate(403.466797 0)"/>
     <use xlink:href="#DejaVuSerif-37" transform="translate(467.089844 0)"/>
    </g>
   </g>
   <g id="PathCollection_5">
    <defs>
     <path id="m2870102a4b" d="M -0 4.1833 
L 4.1833 -4.1833 
L -4.1833 -4.1833 
z
" style="stroke: #000000; stroke-width: 0.4"/>
    </defs>
    <g clip-path="url(#pb2f481993a)">
     <use xlink:href="#m2870102a4b" x="427.820723" y="258.930827" style="fill: #7f7f7f; stroke: #000000; stroke-width: 0.4"/>
    </g>
   </g>
   <g id="text_22">
    <!-- Neyshabur15 -->
    <g transform="translate(430.024427 255.660327) scale(0.065 -0.065)">
     <defs>
      <path id="DejaVuSerif-4e" d="M 313 0 
L 313 331 
L 941 331 
L 941 4331 
L 313 4331 
L 313 4666 
L 1509 4666 
L 4306 984 
L 4306 4331 
L 3681 4331 
L 3681 4666 
L 5319 4666 
L 5319 4331 
L 4691 4331 
L 4691 -91 
L 4313 -91 
L 1325 3841 
L 1325 331 
L 1953 331 
L 1953 0 
L 313 0 
z
" transform="scale(0.015625)"/>
     </defs>
     <use xlink:href="#DejaVuSerif-4e"/>
     <use xlink:href="#DejaVuSerif-65" transform="translate(87.5 0)"/>
     <use xlink:href="#DejaVuSerif-79" transform="translate(146.679688 0)"/>
     <use xlink:href="#DejaVuSerif-73" transform="translate(203.173828 0)"/>
     <use xlink:href="#DejaVuSerif-68" transform="translate(254.492188 0)"/>
     <use xlink:href="#DejaVuSerif-61" transform="translate(318.896484 0)"/>
     <use xlink:href="#DejaVuSerif-62" transform="translate(378.515625 0)"/>
     <use xlink:href="#DejaVuSerif-75" transform="translate(442.529297 0)"/>
     <use xlink:href="#DejaVuSerif-72" transform="translate(506.933594 0)"/>
     <use xlink:href="#DejaVuSerif-31" transform="translate(554.736328 0)"/>
     <use xlink:href="#DejaVuSerif-35" transform="translate(618.359375 0)"/>
    </g>
   </g>
   <g id="PathCollection_6">
    <defs>
     <path id="mfcd80d85c1" d="M -1.394433 4.1833 
L 1.394433 4.1833 
L 1.394433 1.394433 
L 4.1833 1.394433 
L 4.1833 -1.394433 
L 1.394433 -1.394433 
L 1.394433 -4.1833 
L -1.394433 -4.1833 
L -1.394433 -1.394433 
L -4.1833 -1.394433 
L -4.1833 1.394433 
L -1.394433 1.394433 
z
" style="stroke: #000000; stroke-width: 0.4"/>
    </defs>
    <g clip-path="url(#pb2f481993a)">
     <use xlink:href="#mfcd80d85c1" x="449.85776" y="259.642714" style="fill: #ff7f0e; stroke: #000000; stroke-width: 0.4"/>
    </g>
   </g>
   <g id="text_23">
    <!-- Russo-Zou16 -->
    <g transform="translate(452.061464 256.372214) scale(0.065 -0.065)">
     <defs>
      <path id="DejaVuSerif-52" d="M 3066 2316 
Q 3284 2256 3442 2114 
Q 3600 1972 3725 1716 
L 4403 331 
L 4972 331 
L 4972 0 
L 3872 0 
L 3144 1484 
Q 2934 1916 2759 2042 
Q 2584 2169 2278 2169 
L 1581 2169 
L 1581 331 
L 2241 331 
L 2241 0 
L 353 0 
L 353 331 
L 947 331 
L 947 4331 
L 353 4331 
L 353 4666 
L 2719 4666 
Q 3400 4666 3770 4341 
Q 4141 4016 4141 3419 
Q 4141 2938 3870 2661 
Q 3600 2384 3066 2316 
z
M 1581 2503 
L 2503 2503 
Q 2975 2503 3200 2726 
Q 3425 2950 3425 3419 
Q 3425 3888 3200 4109 
Q 2975 4331 2503 4331 
L 1581 4331 
L 1581 2503 
z
" transform="scale(0.015625)"/>
      <path id="DejaVuSerif-2d" d="M 281 1959 
L 1881 1959 
L 1881 1472 
L 281 1472 
L 281 1959 
z
" transform="scale(0.015625)"/>
      <path id="DejaVuSerif-5a" d="M 288 0 
L 288 225 
L 3194 4281 
L 781 4281 
L 781 3584 
L 397 3584 
L 397 4666 
L 4084 4666 
L 4084 4441 
L 1178 384 
L 3816 384 
L 3816 1038 
L 4197 1038 
L 4197 0 
L 288 0 
z
" transform="scale(0.015625)"/>
     </defs>
     <use xlink:href="#DejaVuSerif-52"/>
     <use xlink:href="#DejaVuSerif-75" transform="translate(75.292969 0)"/>
     <use xlink:href="#DejaVuSerif-73" transform="translate(139.697266 0)"/>
     <use xlink:href="#DejaVuSerif-73" transform="translate(191.015625 0)"/>
     <use xlink:href="#DejaVuSerif-6f" transform="translate(242.333984 0)"/>
     <use xlink:href="#DejaVuSerif-2d" transform="translate(302.539062 0)"/>
     <use xlink:href="#DejaVuSerif-5a" transform="translate(336.328125 0)"/>
     <use xlink:href="#DejaVuSerif-6f" transform="translate(405.810547 0)"/>
     <use xlink:href="#DejaVuSerif-75" transform="translate(466.015625 0)"/>
     <use xlink:href="#DejaVuSerif-31" transform="translate(530.419922 0)"/>
     <use xlink:href="#DejaVuSerif-36" transform="translate(594.042969 0)"/>
    </g>
   </g>
   <g id="PathCollection_7">
    <g clip-path="url(#pb2f481993a)">
     <use xlink:href="#mfcd80d85c1" x="471.894797" y="258.414031" style="fill: #ff7f0e; stroke: #000000; stroke-width: 0.4"/>
    </g>
   </g>
   <g id="text_24">
    <!-- Xu-Raginsky17 -->
    <g transform="translate(474.098501 255.143531) scale(0.065 -0.065)">
     <defs>
      <path id="DejaVuSerif-58" d="M 2119 1997 
L 978 331 
L 1581 331 
L 1581 0 
L 38 0 
L 38 331 
L 575 331 
L 1919 2291 
L 556 4331 
L 56 4331 
L 56 4666 
L 1906 4666 
L 1906 4331 
L 1356 4331 
L 2356 2828 
L 3384 4331 
L 2784 4331 
L 2784 4666 
L 4313 4666 
L 4313 4331 
L 3788 4331 
L 2553 2534 
L 4025 331 
L 4525 331 
L 4525 0 
L 2675 0 
L 2675 331 
L 3231 331 
L 2119 1997 
z
" transform="scale(0.015625)"/>
      <path id="DejaVuSerif-6b" d="M 1831 0 
L 219 0 
L 219 331 
L 738 331 
L 738 4531 
L 184 4531 
L 184 4863 
L 1313 4863 
L 1313 1697 
L 2713 2988 
L 2234 2988 
L 2234 3322 
L 3738 3322 
L 3738 2988 
L 3169 2988 
L 2181 2075 
L 3444 331 
L 3922 331 
L 3922 0 
L 2284 0 
L 2284 331 
L 2759 331 
L 1766 1697 
L 1313 1275 
L 1313 331 
L 1831 331 
L 1831 0 
z
" transform="scale(0.015625)"/>
     </defs>
     <use xlink:href="#DejaVuSerif-58"/>
     <use xlink:href="#DejaVuSerif-75" transform="translate(71.191406 0)"/>
     <use xlink:href="#DejaVuSerif-2d" transform="translate(135.595703 0)"/>
     <use xlink:href="#DejaVuSerif-52" transform="translate(169.384766 0)"/>
     <use xlink:href="#DejaVuSerif-61" transform="translate(246.927734 0)"/>
     <use xlink:href="#DejaVuSerif-67" transform="translate(306.546875 0)"/>
     <use xlink:href="#DejaVuSerif-69" transform="translate(370.560547 0)"/>
     <use xlink:href="#DejaVuSerif-6e" transform="translate(402.542969 0)"/>
     <use xlink:href="#DejaVuSerif-73" transform="translate(466.947266 0)"/>
     <use xlink:href="#DejaVuSerif-6b" transform="translate(518.265625 0)"/>
     <use xlink:href="#DejaVuSerif-79" transform="translate(578.861328 0)"/>
     <use xlink:href="#DejaVuSerif-31" transform="translate(635.355469 0)"/>
     <use xlink:href="#DejaVuSerif-37" transform="translate(698.978516 0)"/>
    </g>
   </g>
   <g id="PathCollection_8">
    <defs>
     <path id="mb2746d3d8e" d="M -4.472136 4.472136 
L 4.472136 4.472136 
L 4.472136 -4.472136 
L -4.472136 -4.472136 
z
" style="stroke: #000000; stroke-width: 0.4"/>
    </defs>
    <g clip-path="url(#pb2f481993a)">
     <use xlink:href="#mb2746d3d8e" x="471.894797" y="207.272562" style="fill: #2ca02c; stroke: #000000; stroke-width: 0.4"/>
    </g>
   </g>
   <g id="text_25">
    <!-- Dziugaite-Roy17 -->
    <g transform="translate(474.098501 194.655612) scale(0.068 -0.068)">
     <defs>
      <path id="DejaVuSerif-44" d="M 1581 331 
L 2163 331 
Q 3072 331 3558 850 
Q 4044 1369 4044 2338 
Q 4044 3306 3559 3818 
Q 3075 4331 2163 4331 
L 1581 4331 
L 1581 331 
z
M 353 0 
L 353 331 
L 947 331 
L 947 4331 
L 353 4331 
L 353 4666 
L 2209 4666 
Q 3416 4666 4089 4050 
Q 4763 3434 4763 2338 
Q 4763 1238 4088 619 
Q 3413 0 2209 0 
L 353 0 
z
" transform="scale(0.015625)"/>
      <path id="DejaVuSerif-7a" d="M 256 0 
L 256 269 
L 2338 2988 
L 691 2988 
L 691 2413 
L 359 2413 
L 359 3322 
L 3078 3322 
L 3078 3053 
L 997 331 
L 2803 331 
L 2803 934 
L 3138 934 
L 3138 0 
L 256 0 
z
" transform="scale(0.015625)"/>
     </defs>
     <use xlink:href="#DejaVuSerif-44"/>
     <use xlink:href="#DejaVuSerif-7a" transform="translate(80.175781 0)"/>
     <use xlink:href="#DejaVuSerif-69" transform="translate(132.861328 0)"/>
     <use xlink:href="#DejaVuSerif-75" transform="translate(164.84375 0)"/>
     <use xlink:href="#DejaVuSerif-67" transform="translate(229.248047 0)"/>
     <use xlink:href="#DejaVuSerif-61" transform="translate(293.261719 0)"/>
     <use xlink:href="#DejaVuSerif-69" transform="translate(352.880859 0)"/>
     <use xlink:href="#DejaVuSerif-74" transform="translate(384.863281 0)"/>
     <use xlink:href="#DejaVuSerif-65" transform="translate(425.048828 0)"/>
     <use xlink:href="#DejaVuSerif-2d" transform="translate(484.228516 0)"/>
     <use xlink:href="#DejaVuSerif-52" transform="translate(518.017578 0)"/>
     <use xlink:href="#DejaVuSerif-6f" transform="translate(593.310547 0)"/>
     <use xlink:href="#DejaVuSerif-79" transform="translate(653.515625 0)"/>
     <use xlink:href="#DejaVuSerif-31" transform="translate(710.009766 0)"/>
     <use xlink:href="#DejaVuSerif-37" transform="translate(773.632812 0)"/>
    </g>
    <!-- (b=0.16) -->
    <g transform="translate(474.098501 202.366812) scale(0.068 -0.068)">
     <use xlink:href="#DejaVuSerif-28"/>
     <use xlink:href="#DejaVuSerif-62" transform="translate(39.013672 0)"/>
     <use xlink:href="#DejaVuSerif-3d" transform="translate(103.027344 0)"/>
     <use xlink:href="#DejaVuSerif-30" transform="translate(186.816406 0)"/>
     <use xlink:href="#DejaVuSerif-2e" transform="translate(250.439453 0)"/>
     <use xlink:href="#DejaVuSerif-31" transform="translate(282.226562 0)"/>
     <use xlink:href="#DejaVuSerif-36" transform="translate(345.849609 0)"/>
     <use xlink:href="#DejaVuSerif-29" transform="translate(409.472656 0)"/>
    </g>
   </g>
   <g id="PathCollection_9">
    <defs>
     <path id="m13012a2b5a" d="M 0 -4.472136 
L -4.472136 4.472136 
L 4.472136 4.472136 
z
" style="stroke: #000000; stroke-width: 0.4"/>
    </defs>
    <g clip-path="url(#pb2f481993a)">
     <use xlink:href="#m13012a2b5a" x="471.894797" y="128.395437" style="fill: #d62728; stroke: #000000; stroke-width: 0.4"/>
    </g>
   </g>
   <g id="text_26">
    <!-- BFT17 -->
    <g transform="translate(474.539242 125.124937) scale(0.075 -0.075)">
     <defs>
      <path id="DejaVuSerif-42" d="M 1581 331 
L 2516 331 
Q 3078 331 3337 575 
Q 3597 819 3597 1350 
Q 3597 1878 3339 2120 
Q 3081 2363 2516 2363 
L 1581 2363 
L 1581 331 
z
M 1581 2694 
L 2375 2694 
Q 2888 2694 3123 2891 
Q 3359 3088 3359 3513 
Q 3359 3941 3123 4136 
Q 2888 4331 2375 4331 
L 1581 4331 
L 1581 2694 
z
M 353 0 
L 353 331 
L 947 331 
L 947 4331 
L 353 4331 
L 353 4666 
L 2656 4666 
Q 3363 4666 3720 4377 
Q 4078 4088 4078 3513 
Q 4078 3097 3829 2850 
Q 3581 2603 3103 2547 
Q 3697 2472 4005 2167 
Q 4313 1863 4313 1350 
Q 4313 656 3875 328 
Q 3438 0 2509 0 
L 353 0 
z
" transform="scale(0.015625)"/>
      <path id="DejaVuSerif-46" d="M 353 0 
L 353 331 
L 947 331 
L 947 4331 
L 353 4331 
L 353 4666 
L 4172 4666 
L 4172 3628 
L 3788 3628 
L 3788 4281 
L 1581 4281 
L 1581 2719 
L 3175 2719 
L 3175 3303 
L 3559 3303 
L 3559 1753 
L 3175 1753 
L 3175 2338 
L 1581 2338 
L 1581 331 
L 2328 331 
L 2328 0 
L 353 0 
z
" transform="scale(0.015625)"/>
      <path id="DejaVuSerif-54" d="M 1222 0 
L 1222 331 
L 1819 331 
L 1819 4294 
L 447 4294 
L 447 3566 
L 63 3566 
L 63 4666 
L 4206 4666 
L 4206 3566 
L 3822 3566 
L 3822 4294 
L 2450 4294 
L 2450 331 
L 3047 331 
L 3047 0 
L 1222 0 
z
" transform="scale(0.015625)"/>
     </defs>
     <use xlink:href="#DejaVuSerif-42"/>
     <use xlink:href="#DejaVuSerif-46" transform="translate(73.486328 0)"/>
     <use xlink:href="#DejaVuSerif-54" transform="translate(142.871094 0)"/>
     <use xlink:href="#DejaVuSerif-31" transform="translate(209.570312 0)"/>
     <use xlink:href="#DejaVuSerif-37" transform="translate(273.193359 0)"/>
    </g>
   </g>
   <g id="PathCollection_10">
    <defs>
     <path id="m5ab84c11d3" d="M -4.1833 0 
L 4.1833 0 
M 0 4.1833 
L 0 -4.1833 
" style="stroke: #000000; stroke-width: 0.4"/>
    </defs>
    <g clip-path="url(#pb2f481993a)">
     <use xlink:href="#m5ab84c11d3" x="471.894797" y="255.660175" style="stroke: #000000; stroke-width: 0.4"/>
    </g>
   </g>
   <g id="text_27">
    <!-- Zhang17 -->
    <g transform="translate(474.098501 252.389675) scale(0.065 -0.065)">
     <use xlink:href="#DejaVuSerif-5a"/>
     <use xlink:href="#DejaVuSerif-68" transform="translate(69.482422 0)"/>
     <use xlink:href="#DejaVuSerif-61" transform="translate(133.886719 0)"/>
     <use xlink:href="#DejaVuSerif-6e" transform="translate(193.505859 0)"/>
     <use xlink:href="#DejaVuSerif-67" transform="translate(257.910156 0)"/>
     <use xlink:href="#DejaVuSerif-31" transform="translate(321.923828 0)"/>
     <use xlink:href="#DejaVuSerif-37" transform="translate(385.546875 0)"/>
    </g>
   </g>
   <g id="PathCollection_11">
    <defs>
     <path id="mbdd78b929f" d="M -0 5.91608 
L 5.91608 0 
L 0 -5.91608 
L -5.91608 -0 
z
" style="stroke: #000000; stroke-width: 0.4"/>
    </defs>
    <g clip-path="url(#pb2f481993a)">
     <use xlink:href="#mbdd78b929f" x="493.931834" y="253.801887" style="fill: #17becf; stroke: #000000; stroke-width: 0.4"/>
    </g>
   </g>
   <g id="text_28">
    <!-- Neyshabur18 -->
    <g transform="translate(496.135538 250.531387) scale(0.065 -0.065)">
     <use xlink:href="#DejaVuSerif-4e"/>
     <use xlink:href="#DejaVuSerif-65" transform="translate(87.5 0)"/>
     <use xlink:href="#DejaVuSerif-79" transform="translate(146.679688 0)"/>
     <use xlink:href="#DejaVuSerif-73" transform="translate(203.173828 0)"/>
     <use xlink:href="#DejaVuSerif-68" transform="translate(254.492188 0)"/>
     <use xlink:href="#DejaVuSerif-61" transform="translate(318.896484 0)"/>
     <use xlink:href="#DejaVuSerif-62" transform="translate(378.515625 0)"/>
     <use xlink:href="#DejaVuSerif-75" transform="translate(442.529297 0)"/>
     <use xlink:href="#DejaVuSerif-72" transform="translate(506.933594 0)"/>
     <use xlink:href="#DejaVuSerif-31" transform="translate(554.736328 0)"/>
     <use xlink:href="#DejaVuSerif-38" transform="translate(618.359375 0)"/>
    </g>
   </g>
   <g id="PathCollection_12">
    <g clip-path="url(#pb2f481993a)">
     <use xlink:href="#mb2746d3d8e" x="493.931834" y="206.309285" style="fill: #2ca02c; stroke: #000000; stroke-width: 0.4"/>
    </g>
   </g>
   <g id="text_29">
    <!-- Dziugaite18 -->
    <g transform="translate(496.135538 193.692335) scale(0.068 -0.068)">
     <use xlink:href="#DejaVuSerif-44"/>
     <use xlink:href="#DejaVuSerif-7a" transform="translate(80.175781 0)"/>
     <use xlink:href="#DejaVuSerif-69" transform="translate(132.861328 0)"/>
     <use xlink:href="#DejaVuSerif-75" transform="translate(164.84375 0)"/>
     <use xlink:href="#DejaVuSerif-67" transform="translate(229.248047 0)"/>
     <use xlink:href="#DejaVuSerif-61" transform="translate(293.261719 0)"/>
     <use xlink:href="#DejaVuSerif-69" transform="translate(352.880859 0)"/>
     <use xlink:href="#DejaVuSerif-74" transform="translate(384.863281 0)"/>
     <use xlink:href="#DejaVuSerif-65" transform="translate(425.048828 0)"/>
     <use xlink:href="#DejaVuSerif-31" transform="translate(484.228516 0)"/>
     <use xlink:href="#DejaVuSerif-38" transform="translate(547.851562 0)"/>
    </g>
    <!-- (b=0.46) -->
    <g transform="translate(496.135538 201.403535) scale(0.068 -0.068)">
     <use xlink:href="#DejaVuSerif-28"/>
     <use xlink:href="#DejaVuSerif-62" transform="translate(39.013672 0)"/>
     <use xlink:href="#DejaVuSerif-3d" transform="translate(103.027344 0)"/>
     <use xlink:href="#DejaVuSerif-30" transform="translate(186.816406 0)"/>
     <use xlink:href="#DejaVuSerif-2e" transform="translate(250.439453 0)"/>
     <use xlink:href="#DejaVuSerif-34" transform="translate(282.226562 0)"/>
     <use xlink:href="#DejaVuSerif-36" transform="translate(345.849609 0)"/>
     <use xlink:href="#DejaVuSerif-29" transform="translate(409.472656 0)"/>
    </g>
   </g>
   <g id="PathCollection_13">
    <g clip-path="url(#pb2f481993a)">
     <use xlink:href="#mfcd80d85c1" x="493.931834" y="251.886646" style="fill: #ff7f0e; stroke: #000000; stroke-width: 0.4"/>
    </g>
   </g>
   <g id="text_30">
    <!-- Pensia18 -->
    <g transform="translate(496.135538 248.616146) scale(0.065 -0.065)">
     <defs>
      <path id="DejaVuSerif-50" d="M 1581 2375 
L 2406 2375 
Q 2872 2375 3115 2626 
Q 3359 2878 3359 3353 
Q 3359 3831 3115 4081 
Q 2872 4331 2406 4331 
L 1581 4331 
L 1581 2375 
z
M 353 0 
L 353 331 
L 947 331 
L 947 4331 
L 353 4331 
L 353 4666 
L 2559 4666 
Q 3259 4666 3668 4311 
Q 4078 3956 4078 3353 
Q 4078 2753 3668 2397 
Q 3259 2041 2559 2041 
L 1581 2041 
L 1581 331 
L 2303 331 
L 2303 0 
L 353 0 
z
" transform="scale(0.015625)"/>
     </defs>
     <use xlink:href="#DejaVuSerif-50"/>
     <use xlink:href="#DejaVuSerif-65" transform="translate(62.785156 0)"/>
     <use xlink:href="#DejaVuSerif-6e" transform="translate(121.964844 0)"/>
     <use xlink:href="#DejaVuSerif-73" transform="translate(186.369141 0)"/>
     <use xlink:href="#DejaVuSerif-69" transform="translate(237.6875 0)"/>
     <use xlink:href="#DejaVuSerif-61" transform="translate(269.669922 0)"/>
     <use xlink:href="#DejaVuSerif-31" transform="translate(329.289062 0)"/>
     <use xlink:href="#DejaVuSerif-38" transform="translate(392.912109 0)"/>
    </g>
   </g>
   <g id="PathCollection_14">
    <g clip-path="url(#pb2f481993a)">
     <use xlink:href="#mfcd80d85c1" x="515.968872" y="258.176043" style="fill: #ff7f0e; stroke: #000000; stroke-width: 0.4"/>
    </g>
   </g>
   <g id="text_31">
    <!-- Lei19 -->
    <g transform="translate(518.172575 254.905543) scale(0.065 -0.065)">
     <use xlink:href="#DejaVuSerif-4c"/>
     <use xlink:href="#DejaVuSerif-65" transform="translate(66.40625 0)"/>
     <use xlink:href="#DejaVuSerif-69" transform="translate(125.585938 0)"/>
     <use xlink:href="#DejaVuSerif-31" transform="translate(157.568359 0)"/>
     <use xlink:href="#DejaVuSerif-39" transform="translate(221.191406 0)"/>
    </g>
   </g>
   <g id="PathCollection_15">
    <defs>
     <path id="m8cb93d58e3" d="M -4.1833 4.1833 
L 4.1833 -4.1833 
M -4.1833 -4.1833 
L 4.1833 4.1833 
" style="stroke: #bcbd22; stroke-width: 0.4"/>
    </defs>
    <g clip-path="url(#pb2f481993a)">
     <use xlink:href="#m8cb93d58e3" x="515.968872" y="249.363155" style="fill: #bcbd22; stroke: #bcbd22; stroke-width: 0.4"/>
    </g>
   </g>
   <g id="text_32">
    <!-- Nagarajan-Kolter19 -->
    <g transform="translate(518.172575 246.092655) scale(0.065 -0.065)">
     <defs>
      <path id="DejaVuSerif-6a" d="M 641 4353 
Q 641 4497 745 4603 
Q 850 4709 997 4709 
Q 1141 4709 1245 4603 
Q 1350 4497 1350 4353 
Q 1350 4206 1248 4103 
Q 1147 4000 997 4000 
Q 850 4000 745 4103 
Q 641 4206 641 4353 
z
M 781 2988 
L 238 2988 
L 238 3322 
L 1356 3322 
L 1356 -325 
Q 1356 -838 1051 -1130 
Q 747 -1422 213 -1422 
Q -13 -1422 -217 -1370 
Q -422 -1319 -616 -1216 
L -616 -531 
L -319 -531 
Q -297 -831 -164 -972 
Q -31 -1113 225 -1113 
Q 509 -1113 645 -920 
Q 781 -728 781 -325 
L 781 2988 
z
" transform="scale(0.015625)"/>
     </defs>
     <use xlink:href="#DejaVuSerif-4e"/>
     <use xlink:href="#DejaVuSerif-61" transform="translate(87.5 0)"/>
     <use xlink:href="#DejaVuSerif-67" transform="translate(147.119141 0)"/>
     <use xlink:href="#DejaVuSerif-61" transform="translate(211.132812 0)"/>
     <use xlink:href="#DejaVuSerif-72" transform="translate(270.751953 0)"/>
     <use xlink:href="#DejaVuSerif-61" transform="translate(318.554688 0)"/>
     <use xlink:href="#DejaVuSerif-6a" transform="translate(378.173828 0)"/>
     <use xlink:href="#DejaVuSerif-61" transform="translate(409.179688 0)"/>
     <use xlink:href="#DejaVuSerif-6e" transform="translate(468.798828 0)"/>
     <use xlink:href="#DejaVuSerif-2d" transform="translate(533.203125 0)"/>
     <use xlink:href="#DejaVuSerif-4b" transform="translate(566.992188 0)"/>
     <use xlink:href="#DejaVuSerif-6f" transform="translate(639.074219 0)"/>
     <use xlink:href="#DejaVuSerif-6c" transform="translate(699.279297 0)"/>
     <use xlink:href="#DejaVuSerif-74" transform="translate(731.261719 0)"/>
     <use xlink:href="#DejaVuSerif-65" transform="translate(771.447266 0)"/>
     <use xlink:href="#DejaVuSerif-72" transform="translate(830.626953 0)"/>
     <use xlink:href="#DejaVuSerif-31" transform="translate(878.429688 0)"/>
     <use xlink:href="#DejaVuSerif-39" transform="translate(942.052734 0)"/>
    </g>
   </g>
   <g id="PathCollection_16">
    <defs>
     <path id="m20e29f29c3" d="M -2.09165 4.1833 
L 0 2.09165 
L 2.09165 4.1833 
L 4.1833 2.09165 
L 2.09165 0 
L 4.1833 -2.09165 
L 2.09165 -4.1833 
L 0 -2.09165 
L -2.09165 -4.1833 
L -4.1833 -2.09165 
L -2.09165 0 
L -4.1833 2.09165 
z
" style="stroke: #000000; stroke-width: 0.4"/>
    </defs>
    <g clip-path="url(#pb2f481993a)">
     <use xlink:href="#m20e29f29c3" x="538.005909" y="260.492403" style="fill: #8c564b; stroke: #000000; stroke-width: 0.4"/>
    </g>
   </g>
   <g id="text_33">
    <!-- BZV20 -->
    <g transform="translate(540.209612 257.221903) scale(0.065 -0.065)">
     <defs>
      <path id="DejaVuSerif-56" d="M 1119 4331 
L 2497 750 
L 3872 4331 
L 3347 4331 
L 3347 4666 
L 4716 4666 
L 4716 4331 
L 4263 4331 
L 2597 0 
L 2059 0 
L 403 4331 
L -63 4331 
L -63 4666 
L 1638 4666 
L 1638 4331 
L 1119 4331 
z
" transform="scale(0.015625)"/>
     </defs>
     <use xlink:href="#DejaVuSerif-42"/>
     <use xlink:href="#DejaVuSerif-5a" transform="translate(73.486328 0)"/>
     <use xlink:href="#DejaVuSerif-56" transform="translate(142.96875 0)"/>
     <use xlink:href="#DejaVuSerif-32" transform="translate(215.185547 0)"/>
     <use xlink:href="#DejaVuSerif-30" transform="translate(278.808594 0)"/>
    </g>
   </g>
   <g id="PathCollection_17">
    <defs>
     <path id="md086545f6f" d="M 0 -4.1833 
L -0.939209 -1.292711 
L -3.978555 -1.292711 
L -1.519673 0.493772 
L -2.458882 3.384361 
L -0 1.597878 
L 2.458882 3.384361 
L 1.519673 0.493772 
L 3.978555 -1.292711 
L 0.939209 -1.292711 
z
" style="stroke: #000000; stroke-width: 0.4"/>
    </defs>
    <g clip-path="url(#pb2f481993a)">
     <use xlink:href="#md086545f6f" x="538.005909" y="252.079632" style="fill: #e377c2; stroke: #000000; stroke-width: 0.4"/>
    </g>
   </g>
   <g id="text_34">
    <!-- Haghifam20 -->
    <g transform="translate(540.209612 248.809132) scale(0.065 -0.065)">
     <defs>
      <path id="DejaVuSerif-48" d="M 353 0 
L 353 331 
L 947 331 
L 947 4331 
L 353 4331 
L 353 4666 
L 2175 4666 
L 2175 4331 
L 1581 4331 
L 1581 2719 
L 4000 2719 
L 4000 4331 
L 3406 4331 
L 3406 4666 
L 5228 4666 
L 5228 4331 
L 4634 4331 
L 4634 331 
L 5228 331 
L 5228 0 
L 3406 0 
L 3406 331 
L 4000 331 
L 4000 2338 
L 1581 2338 
L 1581 331 
L 2175 331 
L 2175 0 
L 353 0 
z
" transform="scale(0.015625)"/>
     </defs>
     <use xlink:href="#DejaVuSerif-48"/>
     <use xlink:href="#DejaVuSerif-61" transform="translate(87.207031 0)"/>
     <use xlink:href="#DejaVuSerif-67" transform="translate(146.826172 0)"/>
     <use xlink:href="#DejaVuSerif-68" transform="translate(210.839844 0)"/>
     <use xlink:href="#DejaVuSerif-69" transform="translate(275.244141 0)"/>
     <use xlink:href="#DejaVuSerif-66" transform="translate(307.226562 0)"/>
     <use xlink:href="#DejaVuSerif-61" transform="translate(344.238281 0)"/>
     <use xlink:href="#DejaVuSerif-6d" transform="translate(403.857422 0)"/>
     <use xlink:href="#DejaVuSerif-32" transform="translate(498.681641 0)"/>
     <use xlink:href="#DejaVuSerif-30" transform="translate(562.304688 0)"/>
    </g>
   </g>
   <g id="PathCollection_18">
    <defs>
     <path id="m8ebce4da7a" d="M -4.1833 4.1833 
L 4.1833 4.1833 
L 4.1833 -4.1833 
L -4.1833 -4.1833 
z
" style="stroke: #000000; stroke-width: 0.4"/>
    </defs>
    <g clip-path="url(#pb2f481993a)">
     <use xlink:href="#m8ebce4da7a" x="538.005909" y="255.391506" style="fill: #2ca02c; stroke: #000000; stroke-width: 0.4"/>
    </g>
   </g>
   <g id="text_35">
    <!-- Negrea20 -->
    <g transform="translate(540.209612 252.121006) scale(0.065 -0.065)">
     <use xlink:href="#DejaVuSerif-4e"/>
     <use xlink:href="#DejaVuSerif-65" transform="translate(87.5 0)"/>
     <use xlink:href="#DejaVuSerif-67" transform="translate(146.679688 0)"/>
     <use xlink:href="#DejaVuSerif-72" transform="translate(210.693359 0)"/>
     <use xlink:href="#DejaVuSerif-65" transform="translate(258.496094 0)"/>
     <use xlink:href="#DejaVuSerif-61" transform="translate(317.675781 0)"/>
     <use xlink:href="#DejaVuSerif-32" transform="translate(377.294922 0)"/>
     <use xlink:href="#DejaVuSerif-30" transform="translate(440.917969 0)"/>
    </g>
   </g>
   <g id="PathCollection_19">
    <g clip-path="url(#pb2f481993a)">
     <use xlink:href="#mfcd80d85c1" x="538.005909" y="253.541907" style="fill: #ff7f0e; stroke: #000000; stroke-width: 0.4"/>
    </g>
   </g>
   <g id="text_36">
    <!-- Esposito20 -->
    <g transform="translate(540.209612 250.271407) scale(0.065 -0.065)">
     <defs>
      <path id="DejaVuSerif-45" d="M 353 0 
L 353 331 
L 947 331 
L 947 4331 
L 353 4331 
L 353 4666 
L 4109 4666 
L 4109 3628 
L 3725 3628 
L 3725 4281 
L 1581 4281 
L 1581 2719 
L 3109 2719 
L 3109 3303 
L 3494 3303 
L 3494 1753 
L 3109 1753 
L 3109 2338 
L 1581 2338 
L 1581 384 
L 3775 384 
L 3775 1038 
L 4159 1038 
L 4159 0 
L 353 0 
z
" transform="scale(0.015625)"/>
     </defs>
     <use xlink:href="#DejaVuSerif-45"/>
     <use xlink:href="#DejaVuSerif-73" transform="translate(72.998047 0)"/>
     <use xlink:href="#DejaVuSerif-70" transform="translate(124.316406 0)"/>
     <use xlink:href="#DejaVuSerif-6f" transform="translate(188.330078 0)"/>
     <use xlink:href="#DejaVuSerif-73" transform="translate(248.535156 0)"/>
     <use xlink:href="#DejaVuSerif-69" transform="translate(299.853516 0)"/>
     <use xlink:href="#DejaVuSerif-74" transform="translate(331.835938 0)"/>
     <use xlink:href="#DejaVuSerif-6f" transform="translate(372.021484 0)"/>
     <use xlink:href="#DejaVuSerif-32" transform="translate(432.226562 0)"/>
     <use xlink:href="#DejaVuSerif-30" transform="translate(495.849609 0)"/>
    </g>
   </g>
   <g id="PathCollection_20">
    <defs>
     <path id="m96d4184525" d="M -0 6.324555 
L 3.794733 0 
L 0 -6.324555 
L -3.794733 -0 
z
" style="stroke: #000000; stroke-width: 0.4"/>
    </defs>
    <g clip-path="url(#pb2f481993a)">
     <use xlink:href="#m96d4184525" x="538.005909" y="36.167337" style="fill: #9467bd; stroke: #000000; stroke-width: 0.4"/>
    </g>
   </g>
   <g id="text_37">
    <!-- Jiang-sharp-mag -->
    <g transform="translate(540.650353 32.896837) scale(0.075 -0.075)">
     <defs>
      <path id="DejaVuSerif-4a" d="M -538 -1119 
L -538 -384 
L -181 -384 
Q -172 -694 -34 -845 
Q 103 -997 378 -997 
Q 750 -997 897 -762 
Q 1044 -528 1044 153 
L 1044 4331 
L 319 4331 
L 319 4666 
L 2272 4666 
L 2272 4331 
L 1678 4331 
L 1678 128 
Q 1678 -644 1368 -987 
Q 1059 -1331 372 -1331 
Q 150 -1331 -79 -1278 
Q -309 -1225 -538 -1119 
z
" transform="scale(0.015625)"/>
     </defs>
     <use xlink:href="#DejaVuSerif-4a"/>
     <use xlink:href="#DejaVuSerif-69" transform="translate(40.087891 0)"/>
     <use xlink:href="#DejaVuSerif-61" transform="translate(72.070312 0)"/>
     <use xlink:href="#DejaVuSerif-6e" transform="translate(131.689453 0)"/>
     <use xlink:href="#DejaVuSerif-67" transform="translate(196.09375 0)"/>
     <use xlink:href="#DejaVuSerif-2d" transform="translate(260.107422 0)"/>
     <use xlink:href="#DejaVuSerif-73" transform="translate(293.896484 0)"/>
     <use xlink:href="#DejaVuSerif-68" transform="translate(345.214844 0)"/>
     <use xlink:href="#DejaVuSerif-61" transform="translate(409.619141 0)"/>
     <use xlink:href="#DejaVuSerif-72" transform="translate(469.238281 0)"/>
     <use xlink:href="#DejaVuSerif-70" transform="translate(517.041016 0)"/>
     <use xlink:href="#DejaVuSerif-2d" transform="translate(581.054688 0)"/>
     <use xlink:href="#DejaVuSerif-6d" transform="translate(614.84375 0)"/>
     <use xlink:href="#DejaVuSerif-61" transform="translate(709.667969 0)"/>
     <use xlink:href="#DejaVuSerif-67" transform="translate(769.287109 0)"/>
    </g>
   </g>
   <g id="PathCollection_21">
    <g clip-path="url(#pb2f481993a)">
     <use xlink:href="#m96d4184525" x="538.005909" y="63.312487" style="fill: #9467bd; stroke: #000000; stroke-width: 0.4"/>
    </g>
   </g>
   <g id="text_38">
    <!-- Jiang-PB-sharp -->
    <g transform="translate(540.650353 60.041987) scale(0.075 -0.075)">
     <use xlink:href="#DejaVuSerif-4a"/>
     <use xlink:href="#DejaVuSerif-69" transform="translate(40.087891 0)"/>
     <use xlink:href="#DejaVuSerif-61" transform="translate(72.070312 0)"/>
     <use xlink:href="#DejaVuSerif-6e" transform="translate(131.689453 0)"/>
     <use xlink:href="#DejaVuSerif-67" transform="translate(196.09375 0)"/>
     <use xlink:href="#DejaVuSerif-2d" transform="translate(260.107422 0)"/>
     <use xlink:href="#DejaVuSerif-50" transform="translate(293.896484 0)"/>
     <use xlink:href="#DejaVuSerif-42" transform="translate(361.181641 0)"/>
     <use xlink:href="#DejaVuSerif-2d" transform="translate(436.542969 0)"/>
     <use xlink:href="#DejaVuSerif-73" transform="translate(470.332031 0)"/>
     <use xlink:href="#DejaVuSerif-68" transform="translate(521.650391 0)"/>
     <use xlink:href="#DejaVuSerif-61" transform="translate(586.054688 0)"/>
     <use xlink:href="#DejaVuSerif-72" transform="translate(645.673828 0)"/>
     <use xlink:href="#DejaVuSerif-70" transform="translate(693.476562 0)"/>
    </g>
   </g>
   <g id="PathCollection_22">
    <defs>
     <path id="m31190d9460" d="M -0 4.472136 
L 4.472136 -4.472136 
L -4.472136 -4.472136 
z
" style="stroke: #000000; stroke-width: 0.4"/>
    </defs>
    <g clip-path="url(#pb2f481993a)">
     <use xlink:href="#m31190d9460" x="538.005909" y="127.741337" style="fill: #7f7f7f; stroke: #000000; stroke-width: 0.4"/>
    </g>
   </g>
   <g id="text_39">
    <!-- Jiang-spec-prod -->
    <g transform="translate(540.650353 124.470837) scale(0.075 -0.075)">
     <use xlink:href="#DejaVuSerif-4a"/>
     <use xlink:href="#DejaVuSerif-69" transform="translate(40.087891 0)"/>
     <use xlink:href="#DejaVuSerif-61" transform="translate(72.070312 0)"/>
     <use xlink:href="#DejaVuSerif-6e" transform="translate(131.689453 0)"/>
     <use xlink:href="#DejaVuSerif-67" transform="translate(196.09375 0)"/>
     <use xlink:href="#DejaVuSerif-2d" transform="translate(260.107422 0)"/>
     <use xlink:href="#DejaVuSerif-73" transform="translate(293.896484 0)"/>
     <use xlink:href="#DejaVuSerif-70" transform="translate(345.214844 0)"/>
     <use xlink:href="#DejaVuSerif-65" transform="translate(409.228516 0)"/>
     <use xlink:href="#DejaVuSerif-63" transform="translate(468.408203 0)"/>
     <use xlink:href="#DejaVuSerif-2d" transform="translate(524.414062 0)"/>
     <use xlink:href="#DejaVuSerif-70" transform="translate(558.203125 0)"/>
     <use xlink:href="#DejaVuSerif-72" transform="translate(622.216797 0)"/>
     <use xlink:href="#DejaVuSerif-6f" transform="translate(670.019531 0)"/>
     <use xlink:href="#DejaVuSerif-64" transform="translate(730.224609 0)"/>
    </g>
   </g>
   <g id="PathCollection_23">
    <g clip-path="url(#pb2f481993a)">
     <use xlink:href="#mb2746d3d8e" x="560.042946" y="209.956646" style="fill: #2ca02c; stroke: #000000; stroke-width: 0.4"/>
    </g>
   </g>
   <g id="text_40">
    <!-- Perez-Ortiz21 -->
    <g transform="translate(562.246649 197.436383) scale(0.068 -0.068)">
     <defs>
      <path id="DejaVuSerif-4f" d="M 2625 244 
Q 3391 244 3781 770 
Q 4172 1297 4172 2328 
Q 4172 3363 3781 3889 
Q 3391 4416 2625 4416 
Q 1856 4416 1465 3889 
Q 1075 3363 1075 2328 
Q 1075 1297 1465 770 
Q 1856 244 2625 244 
z
M 2625 -91 
Q 2150 -91 1751 65 
Q 1353 222 1050 525 
Q 700 875 529 1319 
Q 359 1763 359 2328 
Q 359 2894 529 3339 
Q 700 3784 1050 4134 
Q 1356 4441 1750 4595 
Q 2144 4750 2625 4750 
Q 3641 4750 4266 4084 
Q 4891 3419 4891 2328 
Q 4891 1769 4719 1320 
Q 4547 872 4197 525 
Q 3891 219 3497 64 
Q 3103 -91 2625 -91 
z
" transform="scale(0.015625)"/>
     </defs>
     <use xlink:href="#DejaVuSerif-50"/>
     <use xlink:href="#DejaVuSerif-65" transform="translate(62.785156 0)"/>
     <use xlink:href="#DejaVuSerif-72" transform="translate(121.964844 0)"/>
     <use xlink:href="#DejaVuSerif-65" transform="translate(169.767578 0)"/>
     <use xlink:href="#DejaVuSerif-7a" transform="translate(228.947266 0)"/>
     <use xlink:href="#DejaVuSerif-2d" transform="translate(281.632812 0)"/>
     <use xlink:href="#DejaVuSerif-4f" transform="translate(315.421875 0)"/>
     <use xlink:href="#DejaVuSerif-72" transform="translate(397.404297 0)"/>
     <use xlink:href="#DejaVuSerif-74" transform="translate(445.207031 0)"/>
     <use xlink:href="#DejaVuSerif-69" transform="translate(485.392578 0)"/>
     <use xlink:href="#DejaVuSerif-7a" transform="translate(517.375 0)"/>
     <use xlink:href="#DejaVuSerif-32" transform="translate(570.060547 0)"/>
     <use xlink:href="#DejaVuSerif-31" transform="translate(633.683594 0)"/>
    </g>
    <!-- (b=0.18) -->
    <g transform="translate(562.246649 205.050896) scale(0.068 -0.068)">
     <use xlink:href="#DejaVuSerif-28"/>
     <use xlink:href="#DejaVuSerif-62" transform="translate(39.013672 0)"/>
     <use xlink:href="#DejaVuSerif-3d" transform="translate(103.027344 0)"/>
     <use xlink:href="#DejaVuSerif-30" transform="translate(186.816406 0)"/>
     <use xlink:href="#DejaVuSerif-2e" transform="translate(250.439453 0)"/>
     <use xlink:href="#DejaVuSerif-31" transform="translate(282.226562 0)"/>
     <use xlink:href="#DejaVuSerif-38" transform="translate(345.849609 0)"/>
     <use xlink:href="#DejaVuSerif-29" transform="translate(409.472656 0)"/>
    </g>
   </g>
   <g id="text_41">
    <!-- no rank correlation -->
    <g style="fill: #808080" transform="translate(561.471215 110.483172) scale(0.075 -0.075)">
     <use xlink:href="#DejaVuSerif-6e"/>
     <use xlink:href="#DejaVuSerif-6f" transform="translate(64.404297 0)"/>
     <use xlink:href="#DejaVuSerif-20" transform="translate(124.609375 0)"/>
     <use xlink:href="#DejaVuSerif-72" transform="translate(156.396484 0)"/>
     <use xlink:href="#DejaVuSerif-61" transform="translate(204.199219 0)"/>
     <use xlink:href="#DejaVuSerif-6e" transform="translate(263.818359 0)"/>
     <use xlink:href="#DejaVuSerif-6b" transform="translate(328.222656 0)"/>
     <use xlink:href="#DejaVuSerif-20" transform="translate(388.818359 0)"/>
     <use xlink:href="#DejaVuSerif-63" transform="translate(420.605469 0)"/>
     <use xlink:href="#DejaVuSerif-6f" transform="translate(476.611328 0)"/>
     <use xlink:href="#DejaVuSerif-72" transform="translate(536.816406 0)"/>
     <use xlink:href="#DejaVuSerif-72" transform="translate(584.619141 0)"/>
     <use xlink:href="#DejaVuSerif-65" transform="translate(632.421875 0)"/>
     <use xlink:href="#DejaVuSerif-6c" transform="translate(691.601562 0)"/>
     <use xlink:href="#DejaVuSerif-61" transform="translate(723.583984 0)"/>
     <use xlink:href="#DejaVuSerif-74" transform="translate(783.203125 0)"/>
     <use xlink:href="#DejaVuSerif-69" transform="translate(823.388672 0)"/>
     <use xlink:href="#DejaVuSerif-6f" transform="translate(855.371094 0)"/>
     <use xlink:href="#DejaVuSerif-6e" transform="translate(915.576172 0)"/>
    </g>
   </g>
   <g id="text_42">
    <!-- fielded bound value -->
    <g style="fill: #808080" transform="translate(559.991137 192.245672) scale(0.075 -0.075)">
     <defs>
      <path id="DejaVuSerif-76" d="M 1581 0 
L 359 2988 
L -19 2988 
L -19 3322 
L 1509 3322 
L 1509 2988 
L 978 2988 
L 1913 703 
L 2847 2988 
L 2350 2988 
L 2350 3322 
L 3597 3322 
L 3597 2988 
L 3225 2988 
L 2003 0 
L 1581 0 
z
" transform="scale(0.015625)"/>
     </defs>
     <use xlink:href="#DejaVuSerif-66"/>
     <use xlink:href="#DejaVuSerif-69" transform="translate(37.011719 0)"/>
     <use xlink:href="#DejaVuSerif-65" transform="translate(68.994141 0)"/>
     <use xlink:href="#DejaVuSerif-6c" transform="translate(128.173828 0)"/>
     <use xlink:href="#DejaVuSerif-64" transform="translate(160.15625 0)"/>
     <use xlink:href="#DejaVuSerif-65" transform="translate(224.169922 0)"/>
     <use xlink:href="#DejaVuSerif-64" transform="translate(283.349609 0)"/>
     <use xlink:href="#DejaVuSerif-20" transform="translate(347.363281 0)"/>
     <use xlink:href="#DejaVuSerif-62" transform="translate(379.150391 0)"/>
     <use xlink:href="#DejaVuSerif-6f" transform="translate(443.164062 0)"/>
     <use xlink:href="#DejaVuSerif-75" transform="translate(503.369141 0)"/>
     <use xlink:href="#DejaVuSerif-6e" transform="translate(567.773438 0)"/>
     <use xlink:href="#DejaVuSerif-64" transform="translate(632.177734 0)"/>
     <use xlink:href="#DejaVuSerif-20" transform="translate(696.191406 0)"/>
     <use xlink:href="#DejaVuSerif-76" transform="translate(727.978516 0)"/>
     <use xlink:href="#DejaVuSerif-61" transform="translate(784.472656 0)"/>
     <use xlink:href="#DejaVuSerif-6c" transform="translate(844.091797 0)"/>
     <use xlink:href="#DejaVuSerif-75" transform="translate(876.074219 0)"/>
     <use xlink:href="#DejaVuSerif-65" transform="translate(940.478516 0)"/>
    </g>
   </g>
   <g id="text_43">
    <!-- theory only -->
    <g style="fill: #808080" transform="translate(591.982153 241.196531) scale(0.075 -0.075)">
     <use xlink:href="#DejaVuSerif-74"/>
     <use xlink:href="#DejaVuSerif-68" transform="translate(40.185547 0)"/>
     <use xlink:href="#DejaVuSerif-65" transform="translate(104.589844 0)"/>
     <use xlink:href="#DejaVuSerif-6f" transform="translate(163.769531 0)"/>
     <use xlink:href="#DejaVuSerif-72" transform="translate(223.974609 0)"/>
     <use xlink:href="#DejaVuSerif-79" transform="translate(271.777344 0)"/>
     <use xlink:href="#DejaVuSerif-20" transform="translate(328.271484 0)"/>
     <use xlink:href="#DejaVuSerif-6f" transform="translate(360.058594 0)"/>
     <use xlink:href="#DejaVuSerif-6e" transform="translate(420.263672 0)"/>
     <use xlink:href="#DejaVuSerif-6c" transform="translate(484.667969 0)"/>
     <use xlink:href="#DejaVuSerif-79" transform="translate(516.650391 0)"/>
    </g>
   </g>
   <g id="text_44">
    <!-- PAC-Bayes / generalization-bound landscape 1999-2024 -->
    <g transform="translate(209.055937 11.198437) scale(0.1 -0.1)">
     <use xlink:href="#DejaVuSerif-50"/>
     <use xlink:href="#DejaVuSerif-41" transform="translate(58.160156 0)"/>
     <use xlink:href="#DejaVuSerif-43" transform="translate(130.376953 0)"/>
     <use xlink:href="#DejaVuSerif-2d" transform="translate(206.890625 0)"/>
     <use xlink:href="#DejaVuSerif-42" transform="translate(240.679688 0)"/>
     <use xlink:href="#DejaVuSerif-61" transform="translate(314.166016 0)"/>
     <use xlink:href="#DejaVuSerif-79" transform="translate(373.785156 0)"/>
     <use xlink:href="#DejaVuSerif-65" transform="translate(430.279297 0)"/>
     <use xlink:href="#DejaVuSerif-73" transform="translate(489.458984 0)"/>
     <use xlink:href="#DejaVuSerif-20" transform="translate(540.777344 0)"/>
     <use xlink:href="#DejaVuSerif-2f" transform="translate(572.564453 0)"/>
     <use xlink:href="#DejaVuSerif-20" transform="translate(606.255859 0)"/>
     <use xlink:href="#DejaVuSerif-67" transform="translate(638.042969 0)"/>
     <use xlink:href="#DejaVuSerif-65" transform="translate(702.056641 0)"/>
     <use xlink:href="#DejaVuSerif-6e" transform="translate(761.236328 0)"/>
     <use xlink:href="#DejaVuSerif-65" transform="translate(825.640625 0)"/>
     <use xlink:href="#DejaVuSerif-72" transform="translate(884.820312 0)"/>
     <use xlink:href="#DejaVuSerif-61" transform="translate(932.623047 0)"/>
     <use xlink:href="#DejaVuSerif-6c" transform="translate(992.242188 0)"/>
     <use xlink:href="#DejaVuSerif-69" transform="translate(1024.224609 0)"/>
     <use xlink:href="#DejaVuSerif-7a" transform="translate(1056.207031 0)"/>
     <use xlink:href="#DejaVuSerif-61" transform="translate(1108.892578 0)"/>
     <use xlink:href="#DejaVuSerif-74" transform="translate(1168.511719 0)"/>
     <use xlink:href="#DejaVuSerif-69" transform="translate(1208.697266 0)"/>
     <use xlink:href="#DejaVuSerif-6f" transform="translate(1240.679688 0)"/>
     <use xlink:href="#DejaVuSerif-6e" transform="translate(1300.884766 0)"/>
     <use xlink:href="#DejaVuSerif-2d" transform="translate(1365.289062 0)"/>
     <use xlink:href="#DejaVuSerif-62" transform="translate(1399.078125 0)"/>
     <use xlink:href="#DejaVuSerif-6f" transform="translate(1463.091797 0)"/>
     <use xlink:href="#DejaVuSerif-75" transform="translate(1523.296875 0)"/>
     <use xlink:href="#DejaVuSerif-6e" transform="translate(1587.701172 0)"/>
     <use xlink:href="#DejaVuSerif-64" transform="translate(1652.105469 0)"/>
     <use xlink:href="#DejaVuSerif-20" transform="translate(1716.119141 0)"/>
     <use xlink:href="#DejaVuSerif-6c" transform="translate(1747.90625 0)"/>
     <use xlink:href="#DejaVuSerif-61" transform="translate(1779.888672 0)"/>
     <use xlink:href="#DejaVuSerif-6e" transform="translate(1839.507812 0)"/>
     <use xlink:href="#DejaVuSerif-64" transform="translate(1903.912109 0)"/>
     <use xlink:href="#DejaVuSerif-73" transform="translate(1967.925781 0)"/>
     <use xlink:href="#DejaVuSerif-63" transform="translate(2019.244141 0)"/>
     <use xlink:href="#DejaVuSerif-61" transform="translate(2075.25 0)"/>
     <use xlink:href="#DejaVuSerif-70" transform="translate(2134.869141 0)"/>
     <use xlink:href="#DejaVuSerif-65" transform="translate(2198.882812 0)"/>
     <use xlink:href="#DejaVuSerif-20" transform="translate(2258.0625 0)"/>
     <use xlink:href="#DejaVuSerif-31" transform="translate(2289.849609 0)"/>
     <use xlink:href="#DejaVuSerif-39" transform="translate(2353.472656 0)"/>
     <use xlink:href="#DejaVuSerif-39" transform="translate(2417.095703 0)"/>
     <use xlink:href="#DejaVuSerif-39" transform="translate(2480.71875 0)"/>
     <use xlink:href="#DejaVuSerif-2d" transform="translate(2544.341797 0)"/>
     <use xlink:href="#DejaVuSerif-32" transform="translate(2578.130859 0)"/>
     <use xlink:href="#DejaVuSerif-30" transform="translate(2641.753906 0)"/>
     <use xlink:href="#DejaVuSerif-32" transform="translate(2705.376953 0)"/>
     <use xlink:href="#DejaVuSerif-34" transform="translate(2769 0)"/>
    </g>
   </g>
   <g id="legend_1">
    <g id="PathCollection_24">
     <g>
      <use xlink:href="#mce0d076ceb" x="66.491094" y="26.979844" style="fill: #1f77b4; stroke: #000000; stroke-width: 0.4"/>
     </g>
    </g>
    <g id="text_45">
     <!-- PB-classical -->
     <g transform="translate(79.091094 28.817344) scale(0.07 -0.07)">
      <use xlink:href="#DejaVuSerif-50"/>
      <use xlink:href="#DejaVuSerif-42" transform="translate(67.285156 0)"/>
      <use xlink:href="#DejaVuSerif-2d" transform="translate(142.646484 0)"/>
      <use xlink:href="#DejaVuSerif-63" transform="translate(176.435547 0)"/>
      <use xlink:href="#DejaVuSerif-6c" transform="translate(232.441406 0)"/>
      <use xlink:href="#DejaVuSerif-61" transform="translate(264.423828 0)"/>
      <use xlink:href="#DejaVuSerif-73" transform="translate(324.042969 0)"/>
      <use xlink:href="#DejaVuSerif-73" transform="translate(375.361328 0)"/>
      <use xlink:href="#DejaVuSerif-69" transform="translate(426.679688 0)"/>
      <use xlink:href="#DejaVuSerif-63" transform="translate(458.662109 0)"/>
      <use xlink:href="#DejaVuSerif-61" transform="translate(514.667969 0)"/>
      <use xlink:href="#DejaVuSerif-6c" transform="translate(574.287109 0)"/>
     </g>
    </g>
    <g id="PathCollection_25">
     <g>
      <use xlink:href="#m2870102a4b" x="66.491094" y="37.254531" style="fill: #7f7f7f; stroke: #000000; stroke-width: 0.4"/>
     </g>
    </g>
    <g id="text_46">
     <!-- Norm-product -->
     <g transform="translate(79.091094 39.092031) scale(0.07 -0.07)">
      <use xlink:href="#DejaVuSerif-4e"/>
      <use xlink:href="#DejaVuSerif-6f" transform="translate(87.5 0)"/>
      <use xlink:href="#DejaVuSerif-72" transform="translate(147.705078 0)"/>
      <use xlink:href="#DejaVuSerif-6d" transform="translate(195.507812 0)"/>
      <use xlink:href="#DejaVuSerif-2d" transform="translate(290.332031 0)"/>
      <use xlink:href="#DejaVuSerif-70" transform="translate(324.121094 0)"/>
      <use xlink:href="#DejaVuSerif-72" transform="translate(388.134766 0)"/>
      <use xlink:href="#DejaVuSerif-6f" transform="translate(435.9375 0)"/>
      <use xlink:href="#DejaVuSerif-64" transform="translate(496.142578 0)"/>
      <use xlink:href="#DejaVuSerif-75" transform="translate(560.15625 0)"/>
      <use xlink:href="#DejaVuSerif-63" transform="translate(624.560547 0)"/>
      <use xlink:href="#DejaVuSerif-74" transform="translate(680.566406 0)"/>
     </g>
    </g>
    <g id="PathCollection_26">
     <g>
      <use xlink:href="#mfcd80d85c1" x="66.491094" y="47.529219" style="fill: #ff7f0e; stroke: #000000; stroke-width: 0.4"/>
     </g>
    </g>
    <g id="text_47">
     <!-- Info-MI -->
     <g transform="translate(79.091094 49.366719) scale(0.07 -0.07)">
      <defs>
       <path id="DejaVuSerif-49" d="M 1581 331 
L 2175 331 
L 2175 0 
L 353 0 
L 353 331 
L 947 331 
L 947 4331 
L 353 4331 
L 353 4666 
L 2175 4666 
L 2175 4331 
L 1581 4331 
L 1581 331 
z
" transform="scale(0.015625)"/>
      </defs>
      <use xlink:href="#DejaVuSerif-49"/>
      <use xlink:href="#DejaVuSerif-6e" transform="translate(39.501953 0)"/>
      <use xlink:href="#DejaVuSerif-66" transform="translate(103.90625 0)"/>
      <use xlink:href="#DejaVuSerif-6f" transform="translate(140.917969 0)"/>
      <use xlink:href="#DejaVuSerif-2d" transform="translate(201.123047 0)"/>
      <use xlink:href="#DejaVuSerif-4d" transform="translate(234.912109 0)"/>
      <use xlink:href="#DejaVuSerif-49" transform="translate(337.304688 0)"/>
     </g>
    </g>
    <g id="PathCollection_27">
     <g>
      <use xlink:href="#mb2746d3d8e" x="66.491094" y="57.803906" style="fill: #2ca02c; stroke: #000000; stroke-width: 0.4"/>
     </g>
    </g>
    <g id="text_48">
     <!-- PB-data-dep -->
     <g transform="translate(79.091094 59.641406) scale(0.07 -0.07)">
      <use xlink:href="#DejaVuSerif-50"/>
      <use xlink:href="#DejaVuSerif-42" transform="translate(67.285156 0)"/>
      <use xlink:href="#DejaVuSerif-2d" transform="translate(142.646484 0)"/>
      <use xlink:href="#DejaVuSerif-64" transform="translate(176.435547 0)"/>
      <use xlink:href="#DejaVuSerif-61" transform="translate(240.449219 0)"/>
      <use xlink:href="#DejaVuSerif-74" transform="translate(300.068359 0)"/>
      <use xlink:href="#DejaVuSerif-61" transform="translate(340.253906 0)"/>
      <use xlink:href="#DejaVuSerif-2d" transform="translate(399.873047 0)"/>
      <use xlink:href="#DejaVuSerif-64" transform="translate(433.662109 0)"/>
      <use xlink:href="#DejaVuSerif-65" transform="translate(497.675781 0)"/>
      <use xlink:href="#DejaVuSerif-70" transform="translate(556.855469 0)"/>
     </g>
    </g>
    <g id="PathCollection_28">
     <g>
      <use xlink:href="#m13012a2b5a" x="150.543594" y="26.979844" style="fill: #d62728; stroke: #000000; stroke-width: 0.4"/>
     </g>
    </g>
    <g id="text_49">
     <!-- Margin-spectral -->
     <g transform="translate(163.143594 28.817344) scale(0.07 -0.07)">
      <use xlink:href="#DejaVuSerif-4d"/>
      <use xlink:href="#DejaVuSerif-61" transform="translate(102.392578 0)"/>
      <use xlink:href="#DejaVuSerif-72" transform="translate(162.011719 0)"/>
      <use xlink:href="#DejaVuSerif-67" transform="translate(209.814453 0)"/>
      <use xlink:href="#DejaVuSerif-69" transform="translate(273.828125 0)"/>
      <use xlink:href="#DejaVuSerif-6e" transform="translate(305.810547 0)"/>
      <use xlink:href="#DejaVuSerif-2d" transform="translate(370.214844 0)"/>
      <use xlink:href="#DejaVuSerif-73" transform="translate(404.003906 0)"/>
      <use xlink:href="#DejaVuSerif-70" transform="translate(455.322266 0)"/>
      <use xlink:href="#DejaVuSerif-65" transform="translate(519.335938 0)"/>
      <use xlink:href="#DejaVuSerif-63" transform="translate(578.515625 0)"/>
      <use xlink:href="#DejaVuSerif-74" transform="translate(634.521484 0)"/>
      <use xlink:href="#DejaVuSerif-72" transform="translate(674.707031 0)"/>
      <use xlink:href="#DejaVuSerif-61" transform="translate(722.509766 0)"/>
      <use xlink:href="#DejaVuSerif-6c" transform="translate(782.128906 0)"/>
     </g>
    </g>
    <g id="PathCollection_29">
     <g>
      <use xlink:href="#m5ab84c11d3" x="150.543594" y="37.354062" style="stroke: #000000; stroke-width: 0.4"/>
     </g>
    </g>
    <g id="text_50">
     <!-- Random-label -->
     <g transform="translate(163.143594 39.191562) scale(0.07 -0.07)">
      <use xlink:href="#DejaVuSerif-52"/>
      <use xlink:href="#DejaVuSerif-61" transform="translate(77.542969 0)"/>
      <use xlink:href="#DejaVuSerif-6e" transform="translate(137.162109 0)"/>
      <use xlink:href="#DejaVuSerif-64" transform="translate(201.566406 0)"/>
      <use xlink:href="#DejaVuSerif-6f" transform="translate(265.580078 0)"/>
      <use xlink:href="#DejaVuSerif-6d" transform="translate(325.785156 0)"/>
      <use xlink:href="#DejaVuSerif-2d" transform="translate(420.609375 0)"/>
      <use xlink:href="#DejaVuSerif-6c" transform="translate(454.398438 0)"/>
      <use xlink:href="#DejaVuSerif-61" transform="translate(486.380859 0)"/>
      <use xlink:href="#DejaVuSerif-62" transform="translate(546 0)"/>
      <use xlink:href="#DejaVuSerif-65" transform="translate(610.013672 0)"/>
      <use xlink:href="#DejaVuSerif-6c" transform="translate(669.193359 0)"/>
     </g>
    </g>
    <g id="PathCollection_30">
     <g>
      <use xlink:href="#mbdd78b929f" x="150.543594" y="47.62875" style="fill: #17becf; stroke: #000000; stroke-width: 0.4"/>
     </g>
    </g>
    <g id="text_51">
     <!-- PB-spectral -->
     <g transform="translate(163.143594 49.46625) scale(0.07 -0.07)">
      <use xlink:href="#DejaVuSerif-50"/>
      <use xlink:href="#DejaVuSerif-42" transform="translate(67.285156 0)"/>
      <use xlink:href="#DejaVuSerif-2d" transform="translate(142.646484 0)"/>
      <use xlink:href="#DejaVuSerif-73" transform="translate(176.435547 0)"/>
      <use xlink:href="#DejaVuSerif-70" transform="translate(227.753906 0)"/>
      <use xlink:href="#DejaVuSerif-65" transform="translate(291.767578 0)"/>
      <use xlink:href="#DejaVuSerif-63" transform="translate(350.947266 0)"/>
      <use xlink:href="#DejaVuSerif-74" transform="translate(406.953125 0)"/>
      <use xlink:href="#DejaVuSerif-72" transform="translate(447.138672 0)"/>
      <use xlink:href="#DejaVuSerif-61" transform="translate(494.941406 0)"/>
      <use xlink:href="#DejaVuSerif-6c" transform="translate(554.560547 0)"/>
     </g>
    </g>
    <g id="PathCollection_31">
     <g>
      <use xlink:href="#m8cb93d58e3" x="150.543594" y="57.903437" style="fill: #bcbd22; stroke: #bcbd22; stroke-width: 0.4"/>
     </g>
    </g>
    <g id="text_52">
     <!-- Impossibility -->
     <g transform="translate(163.143594 59.740937) scale(0.07 -0.07)">
      <use xlink:href="#DejaVuSerif-49"/>
      <use xlink:href="#DejaVuSerif-6d" transform="translate(39.501953 0)"/>
      <use xlink:href="#DejaVuSerif-70" transform="translate(134.326172 0)"/>
      <use xlink:href="#DejaVuSerif-6f" transform="translate(198.339844 0)"/>
      <use xlink:href="#DejaVuSerif-73" transform="translate(258.544922 0)"/>
      <use xlink:href="#DejaVuSerif-73" transform="translate(309.863281 0)"/>
      <use xlink:href="#DejaVuSerif-69" transform="translate(361.181641 0)"/>
      <use xlink:href="#DejaVuSerif-62" transform="translate(393.164062 0)"/>
      <use xlink:href="#DejaVuSerif-69" transform="translate(457.177734 0)"/>
      <use xlink:href="#DejaVuSerif-6c" transform="translate(489.160156 0)"/>
      <use xlink:href="#DejaVuSerif-69" transform="translate(521.142578 0)"/>
      <use xlink:href="#DejaVuSerif-74" transform="translate(553.125 0)"/>
      <use xlink:href="#DejaVuSerif-79" transform="translate(593.310547 0)"/>
     </g>
    </g>
    <g id="PathCollection_32">
     <g>
      <use xlink:href="#m20e29f29c3" x="241.132344" y="26.979844" style="fill: #8c564b; stroke: #000000; stroke-width: 0.4"/>
     </g>
    </g>
    <g id="text_53">
     <!-- Info-per-sample -->
     <g transform="translate(253.732344 28.817344) scale(0.07 -0.07)">
      <use xlink:href="#DejaVuSerif-49"/>
      <use xlink:href="#DejaVuSerif-6e" transform="translate(39.501953 0)"/>
      <use xlink:href="#DejaVuSerif-66" transform="translate(103.90625 0)"/>
      <use xlink:href="#DejaVuSerif-6f" transform="translate(140.917969 0)"/>
      <use xlink:href="#DejaVuSerif-2d" transform="translate(201.123047 0)"/>
      <use xlink:href="#DejaVuSerif-70" transform="translate(234.912109 0)"/>
      <use xlink:href="#DejaVuSerif-65" transform="translate(298.925781 0)"/>
      <use xlink:href="#DejaVuSerif-72" transform="translate(358.105469 0)"/>
      <use xlink:href="#DejaVuSerif-2d" transform="translate(405.908203 0)"/>
      <use xlink:href="#DejaVuSerif-73" transform="translate(439.697266 0)"/>
      <use xlink:href="#DejaVuSerif-61" transform="translate(491.015625 0)"/>
      <use xlink:href="#DejaVuSerif-6d" transform="translate(550.634766 0)"/>
      <use xlink:href="#DejaVuSerif-70" transform="translate(645.458984 0)"/>
      <use xlink:href="#DejaVuSerif-6c" transform="translate(709.472656 0)"/>
      <use xlink:href="#DejaVuSerif-65" transform="translate(741.455078 0)"/>
     </g>
    </g>
    <g id="PathCollection_33">
     <g>
      <use xlink:href="#md086545f6f" x="241.132344" y="37.254531" style="fill: #e377c2; stroke: #000000; stroke-width: 0.4"/>
     </g>
    </g>
    <g id="text_54">
     <!-- Info-CMI -->
     <g transform="translate(253.732344 39.092031) scale(0.07 -0.07)">
      <use xlink:href="#DejaVuSerif-49"/>
      <use xlink:href="#DejaVuSerif-6e" transform="translate(39.501953 0)"/>
      <use xlink:href="#DejaVuSerif-66" transform="translate(103.90625 0)"/>
      <use xlink:href="#DejaVuSerif-6f" transform="translate(140.917969 0)"/>
      <use xlink:href="#DejaVuSerif-2d" transform="translate(201.123047 0)"/>
      <use xlink:href="#DejaVuSerif-43" transform="translate(234.912109 0)"/>
      <use xlink:href="#DejaVuSerif-4d" transform="translate(311.425781 0)"/>
      <use xlink:href="#DejaVuSerif-49" transform="translate(413.818359 0)"/>
     </g>
    </g>
    <g id="PathCollection_34">
     <g>
      <use xlink:href="#m96d4184525" x="241.132344" y="47.529219" style="fill: #9467bd; stroke: #000000; stroke-width: 0.4"/>
     </g>
    </g>
    <g id="text_55">
     <!-- Sharpness -->
     <g transform="translate(253.732344 49.366719) scale(0.07 -0.07)">
      <use xlink:href="#DejaVuSerif-53"/>
      <use xlink:href="#DejaVuSerif-68" transform="translate(68.505859 0)"/>
      <use xlink:href="#DejaVuSerif-61" transform="translate(132.910156 0)"/>
      <use xlink:href="#DejaVuSerif-72" transform="translate(192.529297 0)"/>
      <use xlink:href="#DejaVuSerif-70" transform="translate(240.332031 0)"/>
      <use xlink:href="#DejaVuSerif-6e" transform="translate(304.345703 0)"/>
      <use xlink:href="#DejaVuSerif-65" transform="translate(368.75 0)"/>
      <use xlink:href="#DejaVuSerif-73" transform="translate(427.929688 0)"/>
      <use xlink:href="#DejaVuSerif-73" transform="translate(479.248047 0)"/>
     </g>
    </g>
   </g>
  </g>
 </g>
 <defs>
  <clipPath id="pb2f481993a">
   <rect x="53.191094" y="17.198437" width="595" height="261.64"/>
  </clipPath>
 </defs>
</svg>
