<?xml version="1.0" encoding="utf-8" standalone="no"?>
<!DOCTYPE svg PUBLIC "-//W3C//DTD SVG 1.1//EN"
  "http://www.w3.org/Graphics/SVG/1.1/DTD/svg11.dtd">
<svg xmlns:xlink="http://www.w3.org/1999/xlink" width="676.047812pt" height="323.678437pt" viewBox="0 0 676.047812 323.678437" xmlns="http://www.w3.org/2000/svg" version="1.1">
 <metadata>
  <rdf:RDF xmlns:dc="http://purl.org/dc/elements/1.1/" xmlns:cc="http://creativecommons.org/ns#" xmlns:rdf="http://www.w3.org/1999/02/22-rdf-syntax-ns#">
   <cc:Work>
    <dc:type rdf:resource="http://purl.org/dc/dcmitype/StillImage"/>
    <dc:date>2026-06-26T00:01:43.048880</dc:date>
    <dc:format>image/svg+xml</dc:format>
    <dc:creator>
     <cc:Agent>
      <dc:title>Matplotlib v3.11.0, https://matplotlib.org/</dc:title>
     </cc:Agent>
    </dc:creator>
   </cc:Work>
  </rdf:RDF>
 </metadata>
 <defs>
  <style type="text/css">*{stroke-linejoin: round; stroke-linecap: butt}</style>
 </defs>
 <g id="figure_1">
  <g id="patch_1">
   <path d="M 0 323.678437 
L 676.047812 323.678437 
L 676.047812 0 
L 0 0 
z
" style="fill: #ffffff"/>
  </g>
  <g id="axes_1">
   <g id="patch_2">
    <path d="M 52.485156 285.478437 
L 656.122813 285.478437 
L 656.122813 20.798437 
L 52.485156 20.798437 
z
" style="fill: #ffffff"/>
   </g>
   <g id="matplotlib.axis_1">
    <g id="xtick_1">
     <g id="line2d_1">
      <path d="M 97.199057 285.478437 
L 97.199057 20.798437 
" clip-path="url(#p6f738dc709)" style="fill: none; stroke-dasharray: 0.8,1.32; stroke-dashoffset: 0; stroke: #b0b0b0; stroke-opacity: 0.3; stroke-width: 0.8"/>
     </g>
     <g id="line2d_2">
      <defs>
       <path id="mdb5b68e30a" d="M 0 0 
L 0 3.5 
" style="stroke: #000000; stroke-width: 0.8"/>
      </defs>
      <g>
       <use xlink:href="#mdb5b68e30a" x="97.199057" y="285.478437" style="stroke: #000000; stroke-width: 0.8"/>
      </g>
     </g>
     <g id="text_1">
      <!-- 2000 -->
      <g transform="translate(84.474057 300.076094) scale(0.1 -0.1)">
       <defs>
        <path id="DejaVuSans-15" d="M 1228 531 
L 3431 531 
L 3431 0 
L 469 0 
L 469 531 
Q 828 903 1448 1529 
Q 2069 2156 2228 2338 
Q 2531 2678 2651 2914 
Q 2772 3150 2772 3378 
Q 2772 3750 2511 3984 
Q 2250 4219 1831 4219 
Q 1534 4219 1204 4116 
Q 875 4013 500 3803 
L 500 4441 
Q 881 4594 1212 4672 
Q 1544 4750 1819 4750 
Q 2544 4750 2975 4387 
Q 3406 4025 3406 3419 
Q 3406 3131 3298 2873 
Q 3191 2616 2906 2266 
Q 2828 2175 2409 1742 
Q 1991 1309 1228 531 
z
" transform="scale(0.015625)"/>
        <path id="DejaVuSans-13" d="M 2034 4250 
Q 1547 4250 1301 3770 
Q 1056 3291 1056 2328 
Q 1056 1369 1301 889 
Q 1547 409 2034 409 
Q 2525 409 2770 889 
Q 3016 1369 3016 2328 
Q 3016 3291 2770 3770 
Q 2525 4250 2034 4250 
z
M 2034 4750 
Q 2819 4750 3233 4129 
Q 3647 3509 3647 2328 
Q 3647 1150 3233 529 
Q 2819 -91 2034 -91 
Q 1250 -91 836 529 
Q 422 1150 422 2328 
Q 422 3509 836 4129 
Q 1250 4750 2034 4750 
z
" transform="scale(0.015625)"/>
       </defs>
       <use xlink:href="#DejaVuSans-15"/>
       <use xlink:href="#DejaVuSans-13" transform="translate(63.625 0)"/>
       <use xlink:href="#DejaVuSans-13" transform="translate(127.25 0)"/>
       <use xlink:href="#DejaVuSans-13" transform="translate(190.875 0)"/>
      </g>
     </g>
    </g>
    <g id="xtick_2">
     <g id="line2d_3">
      <path d="M 208.983808 285.478437 
L 208.983808 20.798437 
" clip-path="url(#p6f738dc709)" style="fill: none; stroke-dasharray: 0.8,1.32; stroke-dashoffset: 0; stroke: #b0b0b0; stroke-opacity: 0.3; stroke-width: 0.8"/>
     </g>
     <g id="line2d_4">
      <g>
       <use xlink:href="#mdb5b68e30a" x="208.983808" y="285.478437" style="stroke: #000000; stroke-width: 0.8"/>
      </g>
     </g>
     <g id="text_2">
      <!-- 2005 -->
      <g transform="translate(196.258808 300.076094) scale(0.1 -0.1)">
       <defs>
        <path id="DejaVuSans-18" d="M 691 4666 
L 3169 4666 
L 3169 4134 
L 1269 4134 
L 1269 2991 
Q 1406 3038 1543 3061 
Q 1681 3084 1819 3084 
Q 2600 3084 3056 2656 
Q 3513 2228 3513 1497 
Q 3513 744 3044 326 
Q 2575 -91 1722 -91 
Q 1428 -91 1123 -41 
Q 819 9 494 109 
L 494 744 
Q 775 591 1075 516 
Q 1375 441 1709 441 
Q 2250 441 2565 725 
Q 2881 1009 2881 1497 
Q 2881 1984 2565 2268 
Q 2250 2553 1709 2553 
Q 1456 2553 1204 2497 
Q 953 2441 691 2322 
L 691 4666 
z
" transform="scale(0.015625)"/>
       </defs>
       <use xlink:href="#DejaVuSans-15"/>
       <use xlink:href="#DejaVuSans-13" transform="translate(63.625 0)"/>
       <use xlink:href="#DejaVuSans-13" transform="translate(127.25 0)"/>
       <use xlink:href="#DejaVuSans-18" transform="translate(190.875 0)"/>
      </g>
     </g>
    </g>
    <g id="xtick_3">
     <g id="line2d_5">
      <path d="M 320.768559 285.478437 
L 320.768559 20.798437 
" clip-path="url(#p6f738dc709)" style="fill: none; stroke-dasharray: 0.8,1.32; stroke-dashoffset: 0; stroke: #b0b0b0; stroke-opacity: 0.3; stroke-width: 0.8"/>
     </g>
     <g id="line2d_6">
      <g>
       <use xlink:href="#mdb5b68e30a" x="320.768559" y="285.478437" style="stroke: #000000; stroke-width: 0.8"/>
      </g>
     </g>
     <g id="text_3">
      <!-- 2010 -->
      <g transform="translate(308.043559 300.076094) scale(0.1 -0.1)">
       <defs>
        <path id="DejaVuSans-14" d="M 794 531 
L 1825 531 
L 1825 4091 
L 703 3866 
L 703 4441 
L 1819 4666 
L 2450 4666 
L 2450 531 
L 3481 531 
L 3481 0 
L 794 0 
L 794 531 
z
" transform="scale(0.015625)"/>
       </defs>
       <use xlink:href="#DejaVuSans-15"/>
       <use xlink:href="#DejaVuSans-13" transform="translate(63.625 0)"/>
       <use xlink:href="#DejaVuSans-14" transform="translate(127.25 0)"/>
       <use xlink:href="#DejaVuSans-13" transform="translate(190.875 0)"/>
      </g>
     </g>
    </g>
    <g id="xtick_4">
     <g id="line2d_7">
      <path d="M 432.55331 285.478437 
L 432.55331 20.798437 
" clip-path="url(#p6f738dc709)" style="fill: none; stroke-dasharray: 0.8,1.32; stroke-dashoffset: 0; stroke: #b0b0b0; stroke-opacity: 0.3; stroke-width: 0.8"/>
     </g>
     <g id="line2d_8">
      <g>
       <use xlink:href="#mdb5b68e30a" x="432.55331" y="285.478437" style="stroke: #000000; stroke-width: 0.8"/>
      </g>
     </g>
     <g id="text_4">
      <!-- 2015 -->
      <g transform="translate(419.82831 300.076094) scale(0.1 -0.1)">
       <use xlink:href="#DejaVuSans-15"/>
       <use xlink:href="#DejaVuSans-13" transform="translate(63.625 0)"/>
       <use xlink:href="#DejaVuSans-14" transform="translate(127.25 0)"/>
       <use xlink:href="#DejaVuSans-18" transform="translate(190.875 0)"/>
      </g>
     </g>
    </g>
    <g id="xtick_5">
     <g id="line2d_9">
      <path d="M 544.338061 285.478437 
L 544.338061 20.798437 
" clip-path="url(#p6f738dc709)" style="fill: none; stroke-dasharray: 0.8,1.32; stroke-dashoffset: 0; stroke: #b0b0b0; stroke-opacity: 0.3; stroke-width: 0.8"/>
     </g>
     <g id="line2d_10">
      <g>
       <use xlink:href="#mdb5b68e30a" x="544.338061" y="285.478437" style="stroke: #000000; stroke-width: 0.8"/>
      </g>
     </g>
     <g id="text_5">
      <!-- 2020 -->
      <g transform="translate(531.613061 300.076094) scale(0.1 -0.1)">
       <use xlink:href="#DejaVuSans-15"/>
       <use xlink:href="#DejaVuSans-13" transform="translate(63.625 0)"/>
       <use xlink:href="#DejaVuSans-15" transform="translate(127.25 0)"/>
       <use xlink:href="#DejaVuSans-13" transform="translate(190.875 0)"/>
      </g>
     </g>
    </g>
    <g id="xtick_6">
     <g id="line2d_11">
      <path d="M 656.122812 285.478437 
L 656.122812 20.798437 
" clip-path="url(#p6f738dc709)" style="fill: none; stroke-dasharray: 0.8,1.32; stroke-dashoffset: 0; stroke: #b0b0b0; stroke-opacity: 0.3; stroke-width: 0.8"/>
     </g>
     <g id="line2d_12">
      <g>
       <use xlink:href="#mdb5b68e30a" x="656.122812" y="285.478437" style="stroke: #000000; stroke-width: 0.8"/>
      </g>
     </g>
     <g id="text_6">
      <!-- 2025 -->
      <g transform="translate(643.397812 300.076094) scale(0.1 -0.1)">
       <use xlink:href="#DejaVuSans-15"/>
       <use xlink:href="#DejaVuSans-13" transform="translate(63.625 0)"/>
       <use xlink:href="#DejaVuSans-15" transform="translate(127.25 0)"/>
       <use xlink:href="#DejaVuSans-18" transform="translate(190.875 0)"/>
      </g>
     </g>
    </g>
    <g id="text_7">
     <!-- year -->
     <g transform="translate(343.148516 314.076094) scale(0.1 -0.1)">
      <defs>
       <path id="DejaVuSans-5c" d="M 2059 -325 
Q 1816 -950 1584 -1140 
Q 1353 -1331 966 -1331 
L 506 -1331 
L 506 -850 
L 844 -850 
Q 1081 -850 1212 -737 
Q 1344 -625 1503 -206 
L 1606 56 
L 191 3500 
L 800 3500 
L 1894 763 
L 2988 3500 
L 3597 3500 
L 2059 -325 
z
" transform="scale(0.015625)"/>
       <path id="DejaVuSans-48" d="M 3597 1894 
L 3597 1613 
L 953 1613 
Q 991 1019 1311 708 
Q 1631 397 2203 397 
Q 2534 397 2845 478 
Q 3156 559 3463 722 
L 3463 178 
Q 3153 47 2828 -22 
Q 2503 -91 2169 -91 
Q 1331 -91 842 396 
Q 353 884 353 1716 
Q 353 2575 817 3079 
Q 1281 3584 2069 3584 
Q 2775 3584 3186 3129 
Q 3597 2675 3597 1894 
z
M 3022 2063 
Q 3016 2534 2758 2815 
Q 2500 3097 2075 3097 
Q 1594 3097 1305 2825 
Q 1016 2553 972 2059 
L 3022 2063 
z
" transform="scale(0.015625)"/>
       <path id="DejaVuSans-44" d="M 2194 1759 
Q 1497 1759 1228 1600 
Q 959 1441 959 1056 
Q 959 750 1161 570 
Q 1363 391 1709 391 
Q 2188 391 2477 730 
Q 2766 1069 2766 1631 
L 2766 1759 
L 2194 1759 
z
M 3341 1997 
L 3341 0 
L 2766 0 
L 2766 531 
Q 2569 213 2275 61 
Q 1981 -91 1556 -91 
Q 1019 -91 701 211 
Q 384 513 384 1019 
Q 384 1609 779 1909 
Q 1175 2209 1959 2209 
L 2766 2209 
L 2766 2266 
Q 2766 2663 2505 2880 
Q 2244 3097 1772 3097 
Q 1472 3097 1187 3025 
Q 903 2953 641 2809 
L 641 3341 
Q 956 3463 1253 3523 
Q 1550 3584 1831 3584 
Q 2591 3584 2966 3190 
Q 3341 2797 3341 1997 
z
" transform="scale(0.015625)"/>
       <path id="DejaVuSans-55" d="M 2631 2963 
Q 2534 3019 2420 3045 
Q 2306 3072 2169 3072 
Q 1681 3072 1420 2755 
Q 1159 2438 1159 1844 
L 1159 0 
L 581 0 
L 581 3500 
L 1159 3500 
L 1159 2956 
Q 1341 3275 1631 3429 
Q 1922 3584 2338 3584 
Q 2397 3584 2469 3576 
Q 2541 3569 2628 3553 
L 2631 2963 
z
" transform="scale(0.015625)"/>
      </defs>
      <use xlink:href="#DejaVuSans-5c"/>
      <use xlink:href="#DejaVuSans-48" transform="translate(59.1875 0)"/>
      <use xlink:href="#DejaVuSans-44" transform="translate(120.71875 0)"/>
      <use xlink:href="#DejaVuSans-55" transform="translate(182 0)"/>
     </g>
    </g>
   </g>
   <g id="matplotlib.axis_2">
    <g id="ytick_1">
     <g id="line2d_13">
      <defs>
       <path id="mfdebf98fe6" d="M 0 0 
L -3.5 0 
" style="stroke: #000000; stroke-width: 0.8"/>
      </defs>
      <g>
       <use xlink:href="#mfdebf98fe6" x="52.485156" y="285.478437" style="stroke: #000000; stroke-width: 0.8"/>
      </g>
     </g>
     <g id="text_8">
      <!-- −1.0 -->
      <g transform="translate(21.202344 289.277266) scale(0.1 -0.1)">
       <defs>
        <path id="DejaVuSans-c9c" d="M 678 2272 
L 4684 2272 
L 4684 1741 
L 678 1741 
L 678 2272 
z
" transform="scale(0.015625)"/>
        <path id="DejaVuSans-11" d="M 684 794 
L 1344 794 
L 1344 0 
L 684 0 
L 684 794 
z
" transform="scale(0.015625)"/>
       </defs>
       <use xlink:href="#DejaVuSans-c9c"/>
       <use xlink:href="#DejaVuSans-14" transform="translate(83.796875 0)"/>
       <use xlink:href="#DejaVuSans-11" transform="translate(147.421875 0)"/>
       <use xlink:href="#DejaVuSans-13" transform="translate(179.203125 0)"/>
      </g>
     </g>
    </g>
    <g id="ytick_2">
     <g id="line2d_14">
      <g>
       <use xlink:href="#mfdebf98fe6" x="52.485156" y="252.393437" style="stroke: #000000; stroke-width: 0.8"/>
      </g>
     </g>
     <g id="text_9">
      <!-- −0.8 -->
      <g transform="translate(21.202344 256.192266) scale(0.1 -0.1)">
       <defs>
        <path id="DejaVuSans-1b" d="M 2034 2216 
Q 1584 2216 1326 1975 
Q 1069 1734 1069 1313 
Q 1069 891 1326 650 
Q 1584 409 2034 409 
Q 2484 409 2743 651 
Q 3003 894 3003 1313 
Q 3003 1734 2745 1975 
Q 2488 2216 2034 2216 
z
M 1403 2484 
Q 997 2584 770 2862 
Q 544 3141 544 3541 
Q 544 4100 942 4425 
Q 1341 4750 2034 4750 
Q 2731 4750 3128 4425 
Q 3525 4100 3525 3541 
Q 3525 3141 3298 2862 
Q 3072 2584 2669 2484 
Q 3125 2378 3379 2068 
Q 3634 1759 3634 1313 
Q 3634 634 3220 271 
Q 2806 -91 2034 -91 
Q 1263 -91 848 271 
Q 434 634 434 1313 
Q 434 1759 690 2068 
Q 947 2378 1403 2484 
z
M 1172 3481 
Q 1172 3119 1398 2916 
Q 1625 2713 2034 2713 
Q 2441 2713 2670 2916 
Q 2900 3119 2900 3481 
Q 2900 3844 2670 4047 
Q 2441 4250 2034 4250 
Q 1625 4250 1398 4047 
Q 1172 3844 1172 3481 
z
" transform="scale(0.015625)"/>
       </defs>
       <use xlink:href="#DejaVuSans-c9c"/>
       <use xlink:href="#DejaVuSans-13" transform="translate(83.796875 0)"/>
       <use xlink:href="#DejaVuSans-11" transform="translate(147.421875 0)"/>
       <use xlink:href="#DejaVuSans-1b" transform="translate(179.203125 0)"/>
      </g>
     </g>
    </g>
    <g id="ytick_3">
     <g id="line2d_15">
      <g>
       <use xlink:href="#mfdebf98fe6" x="52.485156" y="219.308437" style="stroke: #000000; stroke-width: 0.8"/>
      </g>
     </g>
     <g id="text_10">
      <!-- −0.6 -->
      <g transform="translate(21.202344 223.107266) scale(0.1 -0.1)">
       <defs>
        <path id="DejaVuSans-19" d="M 2113 2584 
Q 1688 2584 1439 2293 
Q 1191 2003 1191 1497 
Q 1191 994 1439 701 
Q 1688 409 2113 409 
Q 2538 409 2786 701 
Q 3034 994 3034 1497 
Q 3034 2003 2786 2293 
Q 2538 2584 2113 2584 
z
M 3366 4563 
L 3366 3988 
Q 3128 4100 2886 4159 
Q 2644 4219 2406 4219 
Q 1781 4219 1451 3797 
Q 1122 3375 1075 2522 
Q 1259 2794 1537 2939 
Q 1816 3084 2150 3084 
Q 2853 3084 3261 2657 
Q 3669 2231 3669 1497 
Q 3669 778 3244 343 
Q 2819 -91 2113 -91 
Q 1303 -91 875 529 
Q 447 1150 447 2328 
Q 447 3434 972 4092 
Q 1497 4750 2381 4750 
Q 2619 4750 2861 4703 
Q 3103 4656 3366 4563 
z
" transform="scale(0.015625)"/>
       </defs>
       <use xlink:href="#DejaVuSans-c9c"/>
       <use xlink:href="#DejaVuSans-13" transform="translate(83.796875 0)"/>
       <use xlink:href="#DejaVuSans-11" transform="translate(147.421875 0)"/>
       <use xlink:href="#DejaVuSans-19" transform="translate(179.203125 0)"/>
      </g>
     </g>
    </g>
    <g id="ytick_4">
     <g id="line2d_16">
      <g>
       <use xlink:href="#mfdebf98fe6" x="52.485156" y="186.223437" style="stroke: #000000; stroke-width: 0.8"/>
      </g>
     </g>
     <g id="text_11">
      <!-- −0.4 -->
      <g transform="translate(21.202344 190.022266) scale(0.1 -0.1)">
       <defs>
        <path id="DejaVuSans-17" d="M 2419 4116 
L 825 1625 
L 2419 1625 
L 2419 4116 
z
M 2253 4666 
L 3047 4666 
L 3047 1625 
L 3713 1625 
L 3713 1100 
L 3047 1100 
L 3047 0 
L 2419 0 
L 2419 1100 
L 313 1100 
L 313 1709 
L 2253 4666 
z
" transform="scale(0.015625)"/>
       </defs>
       <use xlink:href="#DejaVuSans-c9c"/>
       <use xlink:href="#DejaVuSans-13" transform="translate(83.796875 0)"/>
       <use xlink:href="#DejaVuSans-11" transform="translate(147.421875 0)"/>
       <use xlink:href="#DejaVuSans-17" transform="translate(179.203125 0)"/>
      </g>
     </g>
    </g>
    <g id="ytick_5">
     <g id="line2d_17">
      <g>
       <use xlink:href="#mfdebf98fe6" x="52.485156" y="153.138437" style="stroke: #000000; stroke-width: 0.8"/>
      </g>
     </g>
     <g id="text_12">
      <!-- −0.2 -->
      <g transform="translate(21.202344 156.937266) scale(0.1 -0.1)">
       <use xlink:href="#DejaVuSans-c9c"/>
       <use xlink:href="#DejaVuSans-13" transform="translate(83.796875 0)"/>
       <use xlink:href="#DejaVuSans-11" transform="translate(147.421875 0)"/>
       <use xlink:href="#DejaVuSans-15" transform="translate(179.203125 0)"/>
      </g>
     </g>
    </g>
    <g id="ytick_6">
     <g id="line2d_18">
      <g>
       <use xlink:href="#mfdebf98fe6" x="52.485156" y="120.053437" style="stroke: #000000; stroke-width: 0.8"/>
      </g>
     </g>
     <g id="text_13">
      <!-- 0.0 -->
      <g transform="translate(29.582031 123.852266) scale(0.1 -0.1)">
       <use xlink:href="#DejaVuSans-13"/>
       <use xlink:href="#DejaVuSans-11" transform="translate(63.625 0)"/>
       <use xlink:href="#DejaVuSans-13" transform="translate(95.40625 0)"/>
      </g>
     </g>
    </g>
    <g id="ytick_7">
     <g id="line2d_19">
      <g>
       <use xlink:href="#mfdebf98fe6" x="52.485156" y="86.968437" style="stroke: #000000; stroke-width: 0.8"/>
      </g>
     </g>
     <g id="text_14">
      <!-- 0.2 -->
      <g transform="translate(29.582031 90.767266) scale(0.1 -0.1)">
       <use xlink:href="#DejaVuSans-13"/>
       <use xlink:href="#DejaVuSans-11" transform="translate(63.625 0)"/>
       <use xlink:href="#DejaVuSans-15" transform="translate(95.40625 0)"/>
      </g>
     </g>
    </g>
    <g id="ytick_8">
     <g id="line2d_20">
      <g>
       <use xlink:href="#mfdebf98fe6" x="52.485156" y="53.883437" style="stroke: #000000; stroke-width: 0.8"/>
      </g>
     </g>
     <g id="text_15">
      <!-- 0.4 -->
      <g transform="translate(29.582031 57.682266) scale(0.1 -0.1)">
       <use xlink:href="#DejaVuSans-13"/>
       <use xlink:href="#DejaVuSans-11" transform="translate(63.625 0)"/>
       <use xlink:href="#DejaVuSans-17" transform="translate(95.40625 0)"/>
      </g>
     </g>
    </g>
    <g id="ytick_9">
     <g id="line2d_21">
      <g>
       <use xlink:href="#mfdebf98fe6" x="52.485156" y="20.798437" style="stroke: #000000; stroke-width: 0.8"/>
      </g>
     </g>
     <g id="text_16">
      <!-- 0.6 -->
      <g transform="translate(29.582031 24.597266) scale(0.1 -0.1)">
       <use xlink:href="#DejaVuSans-13"/>
       <use xlink:href="#DejaVuSans-11" transform="translate(63.625 0)"/>
       <use xlink:href="#DejaVuSans-19" transform="translate(95.40625 0)"/>
      </g>
     </g>
    </g>
    <g id="text_17">
     <!-- Kendall $\tau$ (top) / fielded bound (mid) / theory (bottom) -->
     <g transform="translate(14.8 288.638437) rotate(-90) scale(0.1 -0.1)">
      <defs>
       <path id="DejaVuSans-2e" d="M 628 4666 
L 1259 4666 
L 1259 2694 
L 3353 4666 
L 4166 4666 
L 1850 2491 
L 4331 0 
L 3500 0 
L 1259 2247 
L 1259 0 
L 628 0 
L 628 4666 
z
" transform="scale(0.015625)"/>
       <path id="DejaVuSans-51" d="M 3513 2113 
L 3513 0 
L 2938 0 
L 2938 2094 
Q 2938 2591 2744 2837 
Q 2550 3084 2163 3084 
Q 1697 3084 1428 2787 
Q 1159 2491 1159 1978 
L 1159 0 
L 581 0 
L 581 3500 
L 1159 3500 
L 1159 2956 
Q 1366 3272 1645 3428 
Q 1925 3584 2291 3584 
Q 2894 3584 3203 3211 
Q 3513 2838 3513 2113 
z
" transform="scale(0.015625)"/>
       <path id="DejaVuSans-47" d="M 2906 2969 
L 2906 4863 
L 3481 4863 
L 3481 0 
L 2906 0 
L 2906 525 
Q 2725 213 2448 61 
Q 2172 -91 1784 -91 
Q 1150 -91 751 415 
Q 353 922 353 1747 
Q 353 2572 751 3078 
Q 1150 3584 1784 3584 
Q 2172 3584 2448 3432 
Q 2725 3281 2906 2969 
z
M 947 1747 
Q 947 1113 1208 752 
Q 1469 391 1925 391 
Q 2381 391 2643 752 
Q 2906 1113 2906 1747 
Q 2906 2381 2643 2742 
Q 2381 3103 1925 3103 
Q 1469 3103 1208 2742 
Q 947 2381 947 1747 
z
" transform="scale(0.015625)"/>
       <path id="DejaVuSans-4f" d="M 603 4863 
L 1178 4863 
L 1178 0 
L 603 0 
L 603 4863 
z
" transform="scale(0.015625)"/>
       <path id="DejaVuSans-3" transform="scale(0.015625)"/>
       <path id="DejaVuSans-Oblique-358" d="M 2103 638 
Q 2188 488 2525 488 
L 2800 488 
L 2706 0 
L 2363 0 
Q 1800 0 1600 300 
Q 1403 606 1534 1269 
L 1856 2925 
L 541 2925 
L 653 3500 
L 3881 3500 
L 3769 2925 
L 2444 2925 
L 2113 1234 
Q 2025 781 2103 638 
z
" transform="scale(0.015625)"/>
       <path id="DejaVuSans-b" d="M 1984 4856 
Q 1566 4138 1362 3434 
Q 1159 2731 1159 2009 
Q 1159 1288 1364 580 
Q 1569 -128 1984 -844 
L 1484 -844 
Q 1016 -109 783 600 
Q 550 1309 550 2009 
Q 550 2706 781 3412 
Q 1013 4119 1484 4856 
L 1984 4856 
z
" transform="scale(0.015625)"/>
       <path id="DejaVuSans-57" d="M 1172 4494 
L 1172 3500 
L 2356 3500 
L 2356 3053 
L 1172 3053 
L 1172 1153 
Q 1172 725 1289 603 
Q 1406 481 1766 481 
L 2356 481 
L 2356 0 
L 1766 0 
Q 1100 0 847 248 
Q 594 497 594 1153 
L 594 3053 
L 172 3053 
L 172 3500 
L 594 3500 
L 594 4494 
L 1172 4494 
z
" transform="scale(0.015625)"/>
       <path id="DejaVuSans-52" d="M 1959 3097 
Q 1497 3097 1228 2736 
Q 959 2375 959 1747 
Q 959 1119 1226 758 
Q 1494 397 1959 397 
Q 2419 397 2687 759 
Q 2956 1122 2956 1747 
Q 2956 2369 2687 2733 
Q 2419 3097 1959 3097 
z
M 1959 3584 
Q 2709 3584 3137 3096 
Q 3566 2609 3566 1747 
Q 3566 888 3137 398 
Q 2709 -91 1959 -91 
Q 1206 -91 779 398 
Q 353 888 353 1747 
Q 353 2609 779 3096 
Q 1206 3584 1959 3584 
z
" transform="scale(0.015625)"/>
       <path id="DejaVuSans-53" d="M 1159 525 
L 1159 -1331 
L 581 -1331 
L 581 3500 
L 1159 3500 
L 1159 2969 
Q 1341 3281 1617 3432 
Q 1894 3584 2278 3584 
Q 2916 3584 3314 3078 
Q 3713 2572 3713 1747 
Q 3713 922 3314 415 
Q 2916 -91 2278 -91 
Q 1894 -91 1617 61 
Q 1341 213 1159 525 
z
M 3116 1747 
Q 3116 2381 2855 2742 
Q 2594 3103 2138 3103 
Q 1681 3103 1420 2742 
Q 1159 2381 1159 1747 
Q 1159 1113 1420 752 
Q 1681 391 2138 391 
Q 2594 391 2855 752 
Q 3116 1113 3116 1747 
z
" transform="scale(0.015625)"/>
       <path id="DejaVuSans-c" d="M 513 4856 
L 1013 4856 
Q 1481 4119 1714 3412 
Q 1947 2706 1947 2009 
Q 1947 1309 1714 600 
Q 1481 -109 1013 -844 
L 513 -844 
Q 928 -128 1133 580 
Q 1338 1288 1338 2009 
Q 1338 2731 1133 3434 
Q 928 4138 513 4856 
z
" transform="scale(0.015625)"/>
       <path id="DejaVuSans-12" d="M 1625 4666 
L 2156 4666 
L 531 -594 
L 0 -594 
L 1625 4666 
z
" transform="scale(0.015625)"/>
       <path id="DejaVuSans-49" d="M 2375 4863 
L 2375 4384 
L 1825 4384 
Q 1516 4384 1395 4259 
Q 1275 4134 1275 3809 
L 1275 3500 
L 2222 3500 
L 2222 3053 
L 1275 3053 
L 1275 0 
L 697 0 
L 697 3053 
L 147 3053 
L 147 3500 
L 697 3500 
L 697 3744 
Q 697 4328 969 4595 
Q 1241 4863 1831 4863 
L 2375 4863 
z
" transform="scale(0.015625)"/>
       <path id="DejaVuSans-4c" d="M 603 3500 
L 1178 3500 
L 1178 0 
L 603 0 
L 603 3500 
z
M 603 4863 
L 1178 4863 
L 1178 4134 
L 603 4134 
L 603 4863 
z
" transform="scale(0.015625)"/>
       <path id="DejaVuSans-45" d="M 3116 1747 
Q 3116 2381 2855 2742 
Q 2594 3103 2138 3103 
Q 1681 3103 1420 2742 
Q 1159 2381 1159 1747 
Q 1159 1113 1420 752 
Q 1681 391 2138 391 
Q 2594 391 2855 752 
Q 3116 1113 3116 1747 
z
M 1159 2969 
Q 1341 3281 1617 3432 
Q 1894 3584 2278 3584 
Q 2916 3584 3314 3078 
Q 3713 2572 3713 1747 
Q 3713 922 3314 415 
Q 2916 -91 2278 -91 
Q 1894 -91 1617 61 
Q 1341 213 1159 525 
L 1159 0 
L 581 0 
L 581 4863 
L 1159 4863 
L 1159 2969 
z
" transform="scale(0.015625)"/>
       <path id="DejaVuSans-58" d="M 544 1381 
L 544 3500 
L 1119 3500 
L 1119 1403 
Q 1119 906 1312 657 
Q 1506 409 1894 409 
Q 2359 409 2629 706 
Q 2900 1003 2900 1516 
L 2900 3500 
L 3475 3500 
L 3475 0 
L 2900 0 
L 2900 538 
Q 2691 219 2414 64 
Q 2138 -91 1772 -91 
Q 1169 -91 856 284 
Q 544 659 544 1381 
z
M 1991 3584 
L 1991 3584 
z
" transform="scale(0.015625)"/>
       <path id="DejaVuSans-50" d="M 3328 2828 
Q 3544 3216 3844 3400 
Q 4144 3584 4550 3584 
Q 5097 3584 5394 3201 
Q 5691 2819 5691 2113 
L 5691 0 
L 5113 0 
L 5113 2094 
Q 5113 2597 4934 2840 
Q 4756 3084 4391 3084 
Q 3944 3084 3684 2787 
Q 3425 2491 3425 1978 
L 3425 0 
L 2847 0 
L 2847 2094 
Q 2847 2600 2669 2842 
Q 2491 3084 2119 3084 
Q 1678 3084 1418 2786 
Q 1159 2488 1159 1978 
L 1159 0 
L 581 0 
L 581 3500 
L 1159 3500 
L 1159 2956 
Q 1356 3278 1631 3431 
Q 1906 3584 2284 3584 
Q 2666 3584 2933 3390 
Q 3200 3197 3328 2828 
z
" transform="scale(0.015625)"/>
       <path id="DejaVuSans-4b" d="M 3513 2113 
L 3513 0 
L 2938 0 
L 2938 2094 
Q 2938 2591 2744 2837 
Q 2550 3084 2163 3084 
Q 1697 3084 1428 2787 
Q 1159 2491 1159 1978 
L 1159 0 
L 581 0 
L 581 4863 
L 1159 4863 
L 1159 2956 
Q 1366 3272 1645 3428 
Q 1925 3584 2291 3584 
Q 2894 3584 3203 3211 
Q 3513 2838 3513 2113 
z
" transform="scale(0.015625)"/>
      </defs>
      <use xlink:href="#DejaVuSans-2e" transform="translate(0 0.015625)"/>
      <use xlink:href="#DejaVuSans-48" transform="translate(60.576172 0.015625)"/>
      <use xlink:href="#DejaVuSans-51" transform="translate(122.099609 0.015625)"/>
      <use xlink:href="#DejaVuSans-47" transform="translate(185.478516 0.015625)"/>
      <use xlink:href="#DejaVuSans-44" transform="translate(248.955078 0.015625)"/>
      <use xlink:href="#DejaVuSans-4f" transform="translate(310.234375 0.015625)"/>
      <use xlink:href="#DejaVuSans-4f" transform="translate(338.017578 0.015625)"/>
      <use xlink:href="#DejaVuSans-3" transform="translate(365.800781 0.015625)"/>
      <use xlink:href="#DejaVuSans-Oblique-358" transform="translate(397.587891 0.015625)"/>
      <use xlink:href="#DejaVuSans-3" transform="translate(457.792969 0.015625)"/>
      <use xlink:href="#DejaVuSans-b" transform="translate(489.580078 0.015625)"/>
      <use xlink:href="#DejaVuSans-57" transform="translate(528.59375 0.015625)"/>
      <use xlink:href="#DejaVuSans-52" transform="translate(567.802734 0.015625)"/>
      <use xlink:href="#DejaVuSans-53" transform="translate(628.984375 0.015625)"/>
      <use xlink:href="#DejaVuSans-c" transform="translate(692.460938 0.015625)"/>
      <use xlink:href="#DejaVuSans-3" transform="translate(731.474609 0.015625)"/>
      <use xlink:href="#DejaVuSans-12" transform="translate(763.261719 0.015625)"/>
      <use xlink:href="#DejaVuSans-3" transform="translate(796.953125 0.015625)"/>
      <use xlink:href="#DejaVuSans-49" transform="translate(828.740234 0.015625)"/>
      <use xlink:href="#DejaVuSans-4c" transform="translate(863.945312 0.015625)"/>
      <use xlink:href="#DejaVuSans-48" transform="translate(891.728516 0.015625)"/>
      <use xlink:href="#DejaVuSans-4f" transform="translate(953.251953 0.015625)"/>
      <use xlink:href="#DejaVuSans-47" transform="translate(981.035156 0.015625)"/>
      <use xlink:href="#DejaVuSans-48" transform="translate(1044.511719 0.015625)"/>
      <use xlink:href="#DejaVuSans-47" transform="translate(1106.035156 0.015625)"/>
      <use xlink:href="#DejaVuSans-3" transform="translate(1169.511719 0.015625)"/>
      <use xlink:href="#DejaVuSans-45" transform="translate(1201.298828 0.015625)"/>
      <use xlink:href="#DejaVuSans-52" transform="translate(1264.775391 0.015625)"/>
      <use xlink:href="#DejaVuSans-58" transform="translate(1325.957031 0.015625)"/>
      <use xlink:href="#DejaVuSans-51" transform="translate(1389.335938 0.015625)"/>
      <use xlink:href="#DejaVuSans-47" transform="translate(1452.714844 0.015625)"/>
      <use xlink:href="#DejaVuSans-3" transform="translate(1516.191406 0.015625)"/>
      <use xlink:href="#DejaVuSans-b" transform="translate(1547.978516 0.015625)"/>
      <use xlink:href="#DejaVuSans-50" transform="translate(1586.992188 0.015625)"/>
      <use xlink:href="#DejaVuSans-4c" transform="translate(1684.404297 0.015625)"/>
      <use xlink:href="#DejaVuSans-47" transform="translate(1712.1875 0.015625)"/>
      <use xlink:href="#DejaVuSans-c" transform="translate(1775.664062 0.015625)"/>
      <use xlink:href="#DejaVuSans-3" transform="translate(1814.677734 0.015625)"/>
      <use xlink:href="#DejaVuSans-12" transform="translate(1846.464844 0.015625)"/>
      <use xlink:href="#DejaVuSans-3" transform="translate(1880.15625 0.015625)"/>
      <use xlink:href="#DejaVuSans-57" transform="translate(1911.943359 0.015625)"/>
      <use xlink:href="#DejaVuSans-4b" transform="translate(1951.152344 0.015625)"/>
      <use xlink:href="#DejaVuSans-48" transform="translate(2014.53125 0.015625)"/>
      <use xlink:href="#DejaVuSans-52" transform="translate(2076.054688 0.015625)"/>
      <use xlink:href="#DejaVuSans-55" transform="translate(2137.236328 0.015625)"/>
      <use xlink:href="#DejaVuSans-5c" transform="translate(2178.349609 0.015625)"/>
      <use xlink:href="#DejaVuSans-3" transform="translate(2237.529297 0.015625)"/>
      <use xlink:href="#DejaVuSans-b" transform="translate(2269.316406 0.015625)"/>
      <use xlink:href="#DejaVuSans-45" transform="translate(2308.330078 0.015625)"/>
      <use xlink:href="#DejaVuSans-52" transform="translate(2371.806641 0.015625)"/>
      <use xlink:href="#DejaVuSans-57" transform="translate(2432.988281 0.015625)"/>
      <use xlink:href="#DejaVuSans-57" transform="translate(2472.197266 0.015625)"/>
      <use xlink:href="#DejaVuSans-52" transform="translate(2511.40625 0.015625)"/>
      <use xlink:href="#DejaVuSans-50" transform="translate(2572.587891 0.015625)"/>
      <use xlink:href="#DejaVuSans-c" transform="translate(2670 0.015625)"/>
     </g>
    </g>
   </g>
   <g id="line2d_22">
    <path d="M 52.485156 120.053437 
L 656.122813 120.053437 
" clip-path="url(#p6f738dc709)" style="fill: none; stroke-dasharray: 0.8,1.32; stroke-dashoffset: 0; stroke: #000000; stroke-opacity: 0.6; stroke-width: 0.8"/>
   </g>
   <g id="line2d_23">
    <path d="M 52.485156 202.765937 
L 656.122813 202.765937 
" clip-path="url(#p6f738dc709)" style="fill: none; stroke-dasharray: 0.6,0.99; stroke-dashoffset: 0; stroke: #000000; stroke-opacity: 0.4; stroke-width: 0.6"/>
   </g>
   <g id="line2d_24">
    <path d="M 52.485156 252.393437 
L 656.122813 252.393437 
" clip-path="url(#p6f738dc709)" style="fill: none; stroke-dasharray: 0.4,0.66; stroke-dashoffset: 0; stroke: #000000; stroke-opacity: 0.3; stroke-width: 0.4"/>
   </g>
   <g id="patch_3">
    <path d="M 52.485156 285.478437 
L 52.485156 20.798437 
" style="fill: none; stroke: #000000; stroke-width: 0.8; stroke-linejoin: miter; stroke-linecap: square"/>
   </g>
   <g id="patch_4">
    <path d="M 52.485156 285.478437 
L 656.122812 285.478437 
" style="fill: none; stroke: #000000; stroke-width: 0.8; stroke-linejoin: miter; stroke-linecap: square"/>
   </g>
   <g id="PathCollection_1">
    <defs>
     <path id="mcca210294e" d="M 0 4.1833 
C 1.109424 4.1833 2.173559 3.742521 2.95804 2.95804 
C 3.742521 2.173559 4.1833 1.109424 4.1833 0 
C 4.1833 -1.109424 3.742521 -2.173559 2.95804 -2.95804 
C 2.173559 -3.742521 1.109424 -4.1833 0 -4.1833 
C -1.109424 -4.1833 -2.173559 -3.742521 -2.95804 -2.95804 
C -3.742521 -2.173559 -4.1833 -1.109424 -4.1833 0 
C -4.1833 1.109424 -3.742521 2.173559 -2.95804 2.95804 
C -2.173559 3.742521 -1.109424 4.1833 0 4.1833 
z
" style="stroke: #000000; stroke-width: 0.4"/>
    </defs>
    <g clip-path="url(#p6f738dc709)">
     <use xlink:href="#mcca210294e" x="74.842106" y="261.762818" style="fill: #1f77b4; stroke: #000000; stroke-width: 0.4"/>
    </g>
   </g>
   <g id="text_18">
    <!-- McAllester99 -->
    <g transform="translate(77.077802 258.454318) scale(0.065 -0.065)">
     <defs>
      <path id="DejaVuSans-30" d="M 628 4666 
L 1569 4666 
L 2759 1491 
L 3956 4666 
L 4897 4666 
L 4897 0 
L 4281 0 
L 4281 4097 
L 3078 897 
L 2444 897 
L 1241 4097 
L 1241 0 
L 628 0 
L 628 4666 
z
" transform="scale(0.015625)"/>
      <path id="DejaVuSans-46" d="M 3122 3366 
L 3122 2828 
Q 2878 2963 2633 3030 
Q 2388 3097 2138 3097 
Q 1578 3097 1268 2742 
Q 959 2388 959 1747 
Q 959 1106 1268 751 
Q 1578 397 2138 397 
Q 2388 397 2633 464 
Q 2878 531 3122 666 
L 3122 134 
Q 2881 22 2623 -34 
Q 2366 -91 2075 -91 
Q 1284 -91 818 406 
Q 353 903 353 1747 
Q 353 2603 823 3093 
Q 1294 3584 2113 3584 
Q 2378 3584 2631 3529 
Q 2884 3475 3122 3366 
z
" transform="scale(0.015625)"/>
      <path id="DejaVuSans-24" d="M 2188 4044 
L 1331 1722 
L 3047 1722 
L 2188 4044 
z
M 1831 4666 
L 2547 4666 
L 4325 0 
L 3669 0 
L 3244 1197 
L 1141 1197 
L 716 0 
L 50 0 
L 1831 4666 
z
" transform="scale(0.015625)"/>
      <path id="DejaVuSans-56" d="M 2834 3397 
L 2834 2853 
Q 2591 2978 2328 3040 
Q 2066 3103 1784 3103 
Q 1356 3103 1142 2972 
Q 928 2841 928 2578 
Q 928 2378 1081 2264 
Q 1234 2150 1697 2047 
L 1894 2003 
Q 2506 1872 2764 1633 
Q 3022 1394 3022 966 
Q 3022 478 2636 193 
Q 2250 -91 1575 -91 
Q 1294 -91 989 -36 
Q 684 19 347 128 
L 347 722 
Q 666 556 975 473 
Q 1284 391 1588 391 
Q 1994 391 2212 530 
Q 2431 669 2431 922 
Q 2431 1156 2273 1281 
Q 2116 1406 1581 1522 
L 1381 1569 
Q 847 1681 609 1914 
Q 372 2147 372 2553 
Q 372 3047 722 3315 
Q 1072 3584 1716 3584 
Q 2034 3584 2315 3537 
Q 2597 3491 2834 3397 
z
" transform="scale(0.015625)"/>
      <path id="DejaVuSans-1c" d="M 703 97 
L 703 672 
Q 941 559 1184 500 
Q 1428 441 1663 441 
Q 2288 441 2617 861 
Q 2947 1281 2994 2138 
Q 2813 1869 2534 1725 
Q 2256 1581 1919 1581 
Q 1219 1581 811 2004 
Q 403 2428 403 3163 
Q 403 3881 828 4315 
Q 1253 4750 1959 4750 
Q 2769 4750 3195 4129 
Q 3622 3509 3622 2328 
Q 3622 1225 3098 567 
Q 2575 -91 1691 -91 
Q 1453 -91 1209 -44 
Q 966 3 703 97 
z
M 1959 2075 
Q 2384 2075 2632 2365 
Q 2881 2656 2881 3163 
Q 2881 3666 2632 3958 
Q 2384 4250 1959 4250 
Q 1534 4250 1286 3958 
Q 1038 3666 1038 3163 
Q 1038 2656 1286 2365 
Q 1534 2075 1959 2075 
z
" transform="scale(0.015625)"/>
     </defs>
     <use xlink:href="#DejaVuSans-30"/>
     <use xlink:href="#DejaVuSans-46" transform="translate(86.28125 0)"/>
     <use xlink:href="#DejaVuSans-24" transform="translate(141.265625 0)"/>
     <use xlink:href="#DejaVuSans-4f" transform="translate(209.671875 0)"/>
     <use xlink:href="#DejaVuSans-4f" transform="translate(237.453125 0)"/>
     <use xlink:href="#DejaVuSans-48" transform="translate(265.234375 0)"/>
     <use xlink:href="#DejaVuSans-56" transform="translate(326.765625 0)"/>
     <use xlink:href="#DejaVuSans-57" transform="translate(378.859375 0)"/>
     <use xlink:href="#DejaVuSans-48" transform="translate(418.0625 0)"/>
     <use xlink:href="#DejaVuSans-55" transform="translate(479.59375 0)"/>
     <use xlink:href="#DejaVuSans-1c" transform="translate(520.703125 0)"/>
     <use xlink:href="#DejaVuSans-1c" transform="translate(584.328125 0)"/>
    </g>
   </g>
   <g id="PathCollection_2">
    <defs>
     <path id="m5d5fe24378" d="M 0 4.472136 
C 1.186024 4.472136 2.323632 4.000923 3.162278 3.162278 
C 4.000923 2.323632 4.472136 1.186024 4.472136 0 
C 4.472136 -1.186024 4.000923 -2.323632 3.162278 -3.162278 
C 2.323632 -4.000923 1.186024 -4.472136 0 -4.472136 
C -1.186024 -4.472136 -2.323632 -4.000923 -3.162278 -3.162278 
C -4.000923 -2.323632 -4.472136 -1.186024 -4.472136 0 
C -4.472136 1.186024 -4.000923 2.323632 -3.162278 3.162278 
C -2.323632 4.000923 -1.186024 4.472136 0 4.472136 
z
" style="stroke: #000000; stroke-width: 0.4"/>
    </defs>
    <g clip-path="url(#p6f738dc709)">
     <use xlink:href="#m5d5fe24378" x="141.912957" y="208.121413" style="fill: #1f77b4; stroke: #000000; stroke-width: 0.4"/>
    </g>
   </g>
   <g id="text_19">
    <!-- Seeger02 -->
    <g transform="translate(144.148652 194.996804) scale(0.068 -0.068)">
     <defs>
      <path id="DejaVuSans-36" d="M 3425 4513 
L 3425 3897 
Q 3066 4069 2747 4153 
Q 2428 4238 2131 4238 
Q 1616 4238 1336 4038 
Q 1056 3838 1056 3469 
Q 1056 3159 1242 3001 
Q 1428 2844 1947 2747 
L 2328 2669 
Q 3034 2534 3370 2195 
Q 3706 1856 3706 1288 
Q 3706 609 3251 259 
Q 2797 -91 1919 -91 
Q 1588 -91 1214 -16 
Q 841 59 441 206 
L 441 856 
Q 825 641 1194 531 
Q 1563 422 1919 422 
Q 2459 422 2753 634 
Q 3047 847 3047 1241 
Q 3047 1584 2836 1778 
Q 2625 1972 2144 2069 
L 1759 2144 
Q 1053 2284 737 2584 
Q 422 2884 422 3419 
Q 422 4038 858 4394 
Q 1294 4750 2059 4750 
Q 2388 4750 2728 4690 
Q 3069 4631 3425 4513 
z
" transform="scale(0.015625)"/>
      <path id="DejaVuSans-4a" d="M 2906 1791 
Q 2906 2416 2648 2759 
Q 2391 3103 1925 3103 
Q 1463 3103 1205 2759 
Q 947 2416 947 1791 
Q 947 1169 1205 825 
Q 1463 481 1925 481 
Q 2391 481 2648 825 
Q 2906 1169 2906 1791 
z
M 3481 434 
Q 3481 -459 3084 -895 
Q 2688 -1331 1869 -1331 
Q 1566 -1331 1297 -1286 
Q 1028 -1241 775 -1147 
L 775 -588 
Q 1028 -725 1275 -790 
Q 1522 -856 1778 -856 
Q 2344 -856 2625 -561 
Q 2906 -266 2906 331 
L 2906 616 
Q 2728 306 2450 153 
Q 2172 0 1784 0 
Q 1141 0 747 490 
Q 353 981 353 1791 
Q 353 2603 747 3093 
Q 1141 3584 1784 3584 
Q 2172 3584 2450 3431 
Q 2728 3278 2906 2969 
L 2906 3500 
L 3481 3500 
L 3481 434 
z
" transform="scale(0.015625)"/>
     </defs>
     <use xlink:href="#DejaVuSans-36"/>
     <use xlink:href="#DejaVuSans-48" transform="translate(63.484375 0)"/>
     <use xlink:href="#DejaVuSans-48" transform="translate(125.015625 0)"/>
     <use xlink:href="#DejaVuSans-4a" transform="translate(186.546875 0)"/>
     <use xlink:href="#DejaVuSans-48" transform="translate(250.03125 0)"/>
     <use xlink:href="#DejaVuSans-55" transform="translate(311.5625 0)"/>
     <use xlink:href="#DejaVuSans-13" transform="translate(352.671875 0)"/>
     <use xlink:href="#DejaVuSans-15" transform="translate(416.296875 0)"/>
    </g>
    <!-- (b=0.29) -->
    <g transform="translate(144.148652 203.158663) scale(0.068 -0.068)">
     <defs>
      <path id="DejaVuSans-20" d="M 678 2906 
L 4684 2906 
L 4684 2381 
L 678 2381 
L 678 2906 
z
M 678 1631 
L 4684 1631 
L 4684 1100 
L 678 1100 
L 678 1631 
z
" transform="scale(0.015625)"/>
     </defs>
     <use xlink:href="#DejaVuSans-b"/>
     <use xlink:href="#DejaVuSans-45" transform="translate(39.015625 0)"/>
     <use xlink:href="#DejaVuSans-20" transform="translate(102.5 0)"/>
     <use xlink:href="#DejaVuSans-13" transform="translate(186.296875 0)"/>
     <use xlink:href="#DejaVuSans-11" transform="translate(249.921875 0)"/>
     <use xlink:href="#DejaVuSans-15" transform="translate(281.703125 0)"/>
     <use xlink:href="#DejaVuSans-1c" transform="translate(345.328125 0)"/>
     <use xlink:href="#DejaVuSans-c" transform="translate(408.953125 0)"/>
    </g>
   </g>
   <g id="PathCollection_3">
    <g clip-path="url(#p6f738dc709)">
     <use xlink:href="#mcca210294e" x="253.697708" y="267.280174" style="fill: #1f77b4; stroke: #000000; stroke-width: 0.4"/>
    </g>
   </g>
   <g id="text_20">
    <!-- Catoni07 -->
    <g transform="translate(255.933403 263.971674) scale(0.065 -0.065)">
     <defs>
      <path id="DejaVuSans-26" d="M 4122 4306 
L 4122 3641 
Q 3803 3938 3442 4084 
Q 3081 4231 2675 4231 
Q 1875 4231 1450 3742 
Q 1025 3253 1025 2328 
Q 1025 1406 1450 917 
Q 1875 428 2675 428 
Q 3081 428 3442 575 
Q 3803 722 4122 1019 
L 4122 359 
Q 3791 134 3420 21 
Q 3050 -91 2638 -91 
Q 1578 -91 968 557 
Q 359 1206 359 2328 
Q 359 3453 968 4101 
Q 1578 4750 2638 4750 
Q 3056 4750 3426 4639 
Q 3797 4528 4122 4306 
z
" transform="scale(0.015625)"/>
      <path id="DejaVuSans-1a" d="M 525 4666 
L 3525 4666 
L 3525 4397 
L 1831 0 
L 1172 0 
L 2766 4134 
L 525 4134 
L 525 4666 
z
" transform="scale(0.015625)"/>
     </defs>
     <use xlink:href="#DejaVuSans-26"/>
     <use xlink:href="#DejaVuSans-44" transform="translate(69.828125 0)"/>
     <use xlink:href="#DejaVuSans-57" transform="translate(131.109375 0)"/>
     <use xlink:href="#DejaVuSans-52" transform="translate(170.3125 0)"/>
     <use xlink:href="#DejaVuSans-51" transform="translate(231.5 0)"/>
     <use xlink:href="#DejaVuSans-4c" transform="translate(294.875 0)"/>
     <use xlink:href="#DejaVuSans-13" transform="translate(322.65625 0)"/>
     <use xlink:href="#DejaVuSans-1a" transform="translate(386.28125 0)"/>
    </g>
   </g>
   <g id="PathCollection_4">
    <g clip-path="url(#p6f738dc709)">
     <use xlink:href="#mcca210294e" x="253.697708" y="263.280618" style="fill: #1f77b4; stroke: #000000; stroke-width: 0.4"/>
    </g>
   </g>
   <g id="text_21">
    <!-- Lacasse07 -->
    <g transform="translate(255.933403 259.972118) scale(0.065 -0.065)">
     <defs>
      <path id="DejaVuSans-2f" d="M 628 4666 
L 1259 4666 
L 1259 531 
L 3531 531 
L 3531 0 
L 628 0 
L 628 4666 
z
" transform="scale(0.015625)"/>
     </defs>
     <use xlink:href="#DejaVuSans-2f"/>
     <use xlink:href="#DejaVuSans-44" transform="translate(55.71875 0)"/>
     <use xlink:href="#DejaVuSans-46" transform="translate(117 0)"/>
     <use xlink:href="#DejaVuSans-44" transform="translate(171.984375 0)"/>
     <use xlink:href="#DejaVuSans-56" transform="translate(233.265625 0)"/>
     <use xlink:href="#DejaVuSans-56" transform="translate(285.359375 0)"/>
     <use xlink:href="#DejaVuSans-48" transform="translate(337.453125 0)"/>
     <use xlink:href="#DejaVuSans-13" transform="translate(398.984375 0)"/>
     <use xlink:href="#DejaVuSans-1a" transform="translate(462.609375 0)"/>
    </g>
   </g>
   <g id="PathCollection_5">
    <defs>
     <path id="m53e9f500e3" d="M -0 4.1833 
L 4.1833 -4.1833 
L -4.1833 -4.1833 
z
" style="stroke: #000000; stroke-width: 0.4"/>
    </defs>
    <g clip-path="url(#p6f738dc709)">
     <use xlink:href="#m53e9f500e3" x="432.55331" y="265.33952" style="fill: #7f7f7f; stroke: #000000; stroke-width: 0.4"/>
    </g>
   </g>
   <g id="text_22">
    <!-- Neyshabur15 -->
    <g transform="translate(434.789005 262.03102) scale(0.065 -0.065)">
     <defs>
      <path id="DejaVuSans-31" d="M 628 4666 
L 1478 4666 
L 3547 763 
L 3547 4666 
L 4159 4666 
L 4159 0 
L 3309 0 
L 1241 3903 
L 1241 0 
L 628 0 
L 628 4666 
z
" transform="scale(0.015625)"/>
     </defs>
     <use xlink:href="#DejaVuSans-31"/>
     <use xlink:href="#DejaVuSans-48" transform="translate(74.8125 0)"/>
     <use xlink:href="#DejaVuSans-5c" transform="translate(136.34375 0)"/>
     <use xlink:href="#DejaVuSans-56" transform="translate(195.53125 0)"/>
     <use xlink:href="#DejaVuSans-4b" transform="translate(247.625 0)"/>
     <use xlink:href="#DejaVuSans-44" transform="translate(311 0)"/>
     <use xlink:href="#DejaVuSans-45" transform="translate(372.28125 0)"/>
     <use xlink:href="#DejaVuSans-58" transform="translate(435.765625 0)"/>
     <use xlink:href="#DejaVuSans-55" transform="translate(499.140625 0)"/>
     <use xlink:href="#DejaVuSans-14" transform="translate(540.25 0)"/>
     <use xlink:href="#DejaVuSans-18" transform="translate(603.875 0)"/>
    </g>
   </g>
   <g id="PathCollection_6">
    <defs>
     <path id="m2b190f4037" d="M -1.394433 4.1833 
L 1.394433 4.1833 
L 1.394433 1.394433 
L 4.1833 1.394433 
L 4.1833 -1.394433 
L 1.394433 -1.394433 
L 1.394433 -4.1833 
L -1.394433 -4.1833 
L -1.394433 -1.394433 
L -4.1833 -1.394433 
L -4.1833 1.394433 
L -1.394433 1.394433 
z
" style="stroke: #000000; stroke-width: 0.4"/>
    </defs>
    <g clip-path="url(#p6f738dc709)">
     <use xlink:href="#m2b190f4037" x="454.91026" y="266.059679" style="fill: #ff7f0e; stroke: #000000; stroke-width: 0.4"/>
    </g>
   </g>
   <g id="text_23">
    <!-- Russo-Zou16 -->
    <g transform="translate(457.145955 262.751179) scale(0.065 -0.065)">
     <defs>
      <path id="DejaVuSans-35" d="M 2841 2188 
Q 3044 2119 3236 1894 
Q 3428 1669 3622 1275 
L 4263 0 
L 3584 0 
L 2988 1197 
Q 2756 1666 2539 1819 
Q 2322 1972 1947 1972 
L 1259 1972 
L 1259 0 
L 628 0 
L 628 4666 
L 2053 4666 
Q 2853 4666 3247 4331 
Q 3641 3997 3641 3322 
Q 3641 2881 3436 2590 
Q 3231 2300 2841 2188 
z
M 1259 4147 
L 1259 2491 
L 2053 2491 
Q 2509 2491 2742 2702 
Q 2975 2913 2975 3322 
Q 2975 3731 2742 3939 
Q 2509 4147 2053 4147 
L 1259 4147 
z
" transform="scale(0.015625)"/>
      <path id="DejaVuSans-10" d="M 313 2009 
L 1997 2009 
L 1997 1497 
L 313 1497 
L 313 2009 
z
" transform="scale(0.015625)"/>
      <path id="DejaVuSans-3d" d="M 359 4666 
L 4025 4666 
L 4025 4184 
L 1075 531 
L 4097 531 
L 4097 0 
L 288 0 
L 288 481 
L 3238 4134 
L 359 4134 
L 359 4666 
z
" transform="scale(0.015625)"/>
     </defs>
     <use xlink:href="#DejaVuSans-35"/>
     <use xlink:href="#DejaVuSans-58" transform="translate(65 0)"/>
     <use xlink:href="#DejaVuSans-56" transform="translate(128.375 0)"/>
     <use xlink:href="#DejaVuSans-56" transform="translate(180.46875 0)"/>
     <use xlink:href="#DejaVuSans-52" transform="translate(232.5625 0)"/>
     <use xlink:href="#DejaVuSans-10" transform="translate(295.609375 0)"/>
     <use xlink:href="#DejaVuSans-3d" transform="translate(331.6875 0)"/>
     <use xlink:href="#DejaVuSans-52" transform="translate(400.1875 0)"/>
     <use xlink:href="#DejaVuSans-58" transform="translate(461.375 0)"/>
     <use xlink:href="#DejaVuSans-14" transform="translate(524.75 0)"/>
     <use xlink:href="#DejaVuSans-19" transform="translate(588.375 0)"/>
    </g>
   </g>
   <g id="PathCollection_7">
    <g clip-path="url(#p6f738dc709)">
     <use xlink:href="#m2b190f4037" x="477.267211" y="264.81672" style="fill: #ff7f0e; stroke: #000000; stroke-width: 0.4"/>
    </g>
   </g>
   <g id="text_24">
    <!-- Xu-Raginsky17 -->
    <g transform="translate(479.502906 261.50822) scale(0.065 -0.065)">
     <defs>
      <path id="DejaVuSans-3b" d="M 403 4666 
L 1081 4666 
L 2241 2931 
L 3406 4666 
L 4084 4666 
L 2584 2425 
L 4184 0 
L 3506 0 
L 2194 1984 
L 872 0 
L 191 0 
L 1856 2491 
L 403 4666 
z
" transform="scale(0.015625)"/>
      <path id="DejaVuSans-4e" d="M 581 4863 
L 1159 4863 
L 1159 1991 
L 2875 3500 
L 3609 3500 
L 1753 1863 
L 3688 0 
L 2938 0 
L 1159 1709 
L 1159 0 
L 581 0 
L 581 4863 
z
" transform="scale(0.015625)"/>
     </defs>
     <use xlink:href="#DejaVuSans-3b"/>
     <use xlink:href="#DejaVuSans-58" transform="translate(68.5 0)"/>
     <use xlink:href="#DejaVuSans-10" transform="translate(131.875 0)"/>
     <use xlink:href="#DejaVuSans-35" transform="translate(167.953125 0)"/>
     <use xlink:href="#DejaVuSans-44" transform="translate(235.234375 0)"/>
     <use xlink:href="#DejaVuSans-4a" transform="translate(296.515625 0)"/>
     <use xlink:href="#DejaVuSans-4c" transform="translate(360 0)"/>
     <use xlink:href="#DejaVuSans-51" transform="translate(387.78125 0)"/>
     <use xlink:href="#DejaVuSans-56" transform="translate(451.15625 0)"/>
     <use xlink:href="#DejaVuSans-4e" transform="translate(503.25 0)"/>
     <use xlink:href="#DejaVuSans-5c" transform="translate(557.59375 0)"/>
     <use xlink:href="#DejaVuSans-14" transform="translate(616.78125 0)"/>
     <use xlink:href="#DejaVuSans-1a" transform="translate(680.40625 0)"/>
    </g>
   </g>
   <g id="PathCollection_8">
    <defs>
     <path id="mfd0bbbdb1d" d="M -4.472136 4.472136 
L 4.472136 4.472136 
L 4.472136 -4.472136 
L -4.472136 -4.472136 
z
" style="stroke: #000000; stroke-width: 0.4"/>
    </defs>
    <g clip-path="url(#p6f738dc709)">
     <use xlink:href="#mfd0bbbdb1d" x="477.267211" y="213.081037" style="fill: #2ca02c; stroke: #000000; stroke-width: 0.4"/>
    </g>
   </g>
   <g id="text_25">
    <!-- Dziugaite-Roy17 -->
    <g transform="translate(479.502906 199.956427) scale(0.068 -0.068)">
     <defs>
      <path id="DejaVuSans-27" d="M 1259 4147 
L 1259 519 
L 2022 519 
Q 2988 519 3436 956 
Q 3884 1394 3884 2338 
Q 3884 3275 3436 3711 
Q 2988 4147 2022 4147 
L 1259 4147 
z
M 628 4666 
L 1925 4666 
Q 3281 4666 3915 4102 
Q 4550 3538 4550 2338 
Q 4550 1131 3912 565 
Q 3275 0 1925 0 
L 628 0 
L 628 4666 
z
" transform="scale(0.015625)"/>
      <path id="DejaVuSans-5d" d="M 353 3500 
L 3084 3500 
L 3084 2975 
L 922 459 
L 3084 459 
L 3084 0 
L 275 0 
L 275 525 
L 2438 3041 
L 353 3041 
L 353 3500 
z
" transform="scale(0.015625)"/>
     </defs>
     <use xlink:href="#DejaVuSans-27"/>
     <use xlink:href="#DejaVuSans-5d" transform="translate(77 0)"/>
     <use xlink:href="#DejaVuSans-4c" transform="translate(129.484375 0)"/>
     <use xlink:href="#DejaVuSans-58" transform="translate(157.265625 0)"/>
     <use xlink:href="#DejaVuSans-4a" transform="translate(220.640625 0)"/>
     <use xlink:href="#DejaVuSans-44" transform="translate(284.125 0)"/>
     <use xlink:href="#DejaVuSans-4c" transform="translate(345.40625 0)"/>
     <use xlink:href="#DejaVuSans-57" transform="translate(373.1875 0)"/>
     <use xlink:href="#DejaVuSans-48" transform="translate(412.390625 0)"/>
     <use xlink:href="#DejaVuSans-10" transform="translate(473.921875 0)"/>
     <use xlink:href="#DejaVuSans-35" transform="translate(510 0)"/>
     <use xlink:href="#DejaVuSans-52" transform="translate(575 0)"/>
     <use xlink:href="#DejaVuSans-5c" transform="translate(636.1875 0)"/>
     <use xlink:href="#DejaVuSans-14" transform="translate(695.375 0)"/>
     <use xlink:href="#DejaVuSans-1a" transform="translate(759 0)"/>
    </g>
    <!-- (b=0.16) -->
    <g transform="translate(479.502906 208.118287) scale(0.068 -0.068)">
     <use xlink:href="#DejaVuSans-b"/>
     <use xlink:href="#DejaVuSans-45" transform="translate(39.015625 0)"/>
     <use xlink:href="#DejaVuSans-20" transform="translate(102.5 0)"/>
     <use xlink:href="#DejaVuSans-13" transform="translate(186.296875 0)"/>
     <use xlink:href="#DejaVuSans-11" transform="translate(249.921875 0)"/>
     <use xlink:href="#DejaVuSans-14" transform="translate(281.703125 0)"/>
     <use xlink:href="#DejaVuSans-19" transform="translate(345.328125 0)"/>
     <use xlink:href="#DejaVuSans-c" transform="translate(408.953125 0)"/>
    </g>
   </g>
   <g id="PathCollection_9">
    <defs>
     <path id="m0d385bcbe0" d="M 0 -4.472136 
L -4.472136 4.472136 
L 4.472136 4.472136 
z
" style="stroke: #000000; stroke-width: 0.4"/>
    </defs>
    <g clip-path="url(#p6f738dc709)">
     <use xlink:href="#m0d385bcbe0" x="477.267211" y="133.287437" style="fill: #d62728; stroke: #000000; stroke-width: 0.4"/>
    </g>
   </g>
   <g id="text_26">
    <!-- BFT17 -->
    <g transform="translate(479.950045 129.978937) scale(0.075 -0.075)">
     <defs>
      <path id="DejaVuSans-25" d="M 1259 2228 
L 1259 519 
L 2272 519 
Q 2781 519 3026 730 
Q 3272 941 3272 1375 
Q 3272 1813 3026 2020 
Q 2781 2228 2272 2228 
L 1259 2228 
z
M 1259 4147 
L 1259 2741 
L 2194 2741 
Q 2656 2741 2882 2914 
Q 3109 3088 3109 3444 
Q 3109 3797 2882 3972 
Q 2656 4147 2194 4147 
L 1259 4147 
z
M 628 4666 
L 2241 4666 
Q 2963 4666 3353 4366 
Q 3744 4066 3744 3513 
Q 3744 3084 3544 2831 
Q 3344 2578 2956 2516 
Q 3422 2416 3680 2098 
Q 3938 1781 3938 1306 
Q 3938 681 3513 340 
Q 3088 0 2303 0 
L 628 0 
L 628 4666 
z
" transform="scale(0.015625)"/>
      <path id="DejaVuSans-29" d="M 628 4666 
L 3309 4666 
L 3309 4134 
L 1259 4134 
L 1259 2759 
L 3109 2759 
L 3109 2228 
L 1259 2228 
L 1259 0 
L 628 0 
L 628 4666 
z
" transform="scale(0.015625)"/>
      <path id="DejaVuSans-37" d="M -19 4666 
L 3928 4666 
L 3928 4134 
L 2272 4134 
L 2272 0 
L 1638 0 
L 1638 4134 
L -19 4134 
L -19 4666 
z
" transform="scale(0.015625)"/>
     </defs>
     <use xlink:href="#DejaVuSans-25"/>
     <use xlink:href="#DejaVuSans-29" transform="translate(68.609375 0)"/>
     <use xlink:href="#DejaVuSans-37" transform="translate(124.375 0)"/>
     <use xlink:href="#DejaVuSans-14" transform="translate(185.453125 0)"/>
     <use xlink:href="#DejaVuSans-1a" transform="translate(249.078125 0)"/>
    </g>
   </g>
   <g id="PathCollection_10">
    <defs>
     <path id="m4bcb2ce4d8" d="M -4.1833 0 
L 4.1833 0 
M 0 4.1833 
L 0 -4.1833 
" style="stroke: #000000; stroke-width: 0.4"/>
    </defs>
    <g clip-path="url(#p6f738dc709)">
     <use xlink:href="#m4bcb2ce4d8" x="477.267211" y="262.030867" style="stroke: #000000; stroke-width: 0.4"/>
    </g>
   </g>
   <g id="text_27">
    <!-- Zhang17 -->
    <g transform="translate(479.502906 258.722367) scale(0.065 -0.065)">
     <use xlink:href="#DejaVuSans-3d"/>
     <use xlink:href="#DejaVuSans-4b" transform="translate(68.5 0)"/>
     <use xlink:href="#DejaVuSans-44" transform="translate(131.875 0)"/>
     <use xlink:href="#DejaVuSans-51" transform="translate(193.15625 0)"/>
     <use xlink:href="#DejaVuSans-4a" transform="translate(256.53125 0)"/>
     <use xlink:href="#DejaVuSans-14" transform="translate(320.015625 0)"/>
     <use xlink:href="#DejaVuSans-1a" transform="translate(383.640625 0)"/>
    </g>
   </g>
   <g id="PathCollection_11">
    <defs>
     <path id="meaa1ffdb23" d="M -0 5.91608 
L 5.91608 0 
L 0 -5.91608 
L -5.91608 -0 
z
" style="stroke: #000000; stroke-width: 0.4"/>
    </defs>
    <g clip-path="url(#p6f738dc709)">
     <use xlink:href="#meaa1ffdb23" x="499.624161" y="260.150987" style="fill: #17becf; stroke: #000000; stroke-width: 0.4"/>
    </g>
   </g>
   <g id="text_28">
    <!-- Neyshabur18 -->
    <g transform="translate(501.859856 256.842487) scale(0.065 -0.065)">
     <use xlink:href="#DejaVuSans-31"/>
     <use xlink:href="#DejaVuSans-48" transform="translate(74.8125 0)"/>
     <use xlink:href="#DejaVuSans-5c" transform="translate(136.34375 0)"/>
     <use xlink:href="#DejaVuSans-56" transform="translate(195.53125 0)"/>
     <use xlink:href="#DejaVuSans-4b" transform="translate(247.625 0)"/>
     <use xlink:href="#DejaVuSans-44" transform="translate(311 0)"/>
     <use xlink:href="#DejaVuSans-45" transform="translate(372.28125 0)"/>
     <use xlink:href="#DejaVuSans-58" transform="translate(435.765625 0)"/>
     <use xlink:href="#DejaVuSans-55" transform="translate(499.140625 0)"/>
     <use xlink:href="#DejaVuSans-14" transform="translate(540.25 0)"/>
     <use xlink:href="#DejaVuSans-1b" transform="translate(603.875 0)"/>
    </g>
   </g>
   <g id="PathCollection_12">
    <g clip-path="url(#p6f738dc709)">
     <use xlink:href="#mfd0bbbdb1d" x="499.624161" y="212.106567" style="fill: #2ca02c; stroke: #000000; stroke-width: 0.4"/>
    </g>
   </g>
   <g id="text_29">
    <!-- Dziugaite18 -->
    <g transform="translate(501.859856 198.981958) scale(0.068 -0.068)">
     <use xlink:href="#DejaVuSans-27"/>
     <use xlink:href="#DejaVuSans-5d" transform="translate(77 0)"/>
     <use xlink:href="#DejaVuSans-4c" transform="translate(129.484375 0)"/>
     <use xlink:href="#DejaVuSans-58" transform="translate(157.265625 0)"/>
     <use xlink:href="#DejaVuSans-4a" transform="translate(220.640625 0)"/>
     <use xlink:href="#DejaVuSans-44" transform="translate(284.125 0)"/>
     <use xlink:href="#DejaVuSans-4c" transform="translate(345.40625 0)"/>
     <use xlink:href="#DejaVuSans-57" transform="translate(373.1875 0)"/>
     <use xlink:href="#DejaVuSans-48" transform="translate(412.390625 0)"/>
     <use xlink:href="#DejaVuSans-14" transform="translate(473.921875 0)"/>
     <use xlink:href="#DejaVuSans-1b" transform="translate(537.546875 0)"/>
    </g>
    <!-- (b=0.46) -->
    <g transform="translate(501.859856 207.143817) scale(0.068 -0.068)">
     <use xlink:href="#DejaVuSans-b"/>
     <use xlink:href="#DejaVuSans-45" transform="translate(39.015625 0)"/>
     <use xlink:href="#DejaVuSans-20" transform="translate(102.5 0)"/>
     <use xlink:href="#DejaVuSans-13" transform="translate(186.296875 0)"/>
     <use xlink:href="#DejaVuSans-11" transform="translate(249.921875 0)"/>
     <use xlink:href="#DejaVuSans-17" transform="translate(281.703125 0)"/>
     <use xlink:href="#DejaVuSans-19" transform="translate(345.328125 0)"/>
     <use xlink:href="#DejaVuSans-c" transform="translate(408.953125 0)"/>
    </g>
   </g>
   <g id="PathCollection_13">
    <g clip-path="url(#p6f738dc709)">
     <use xlink:href="#m2b190f4037" x="499.624161" y="258.213493" style="fill: #ff7f0e; stroke: #000000; stroke-width: 0.4"/>
    </g>
   </g>
   <g id="text_30">
    <!-- Pensia18 -->
    <g transform="translate(501.859856 254.904993) scale(0.065 -0.065)">
     <defs>
      <path id="DejaVuSans-33" d="M 1259 4147 
L 1259 2394 
L 2053 2394 
Q 2494 2394 2734 2622 
Q 2975 2850 2975 3272 
Q 2975 3691 2734 3919 
Q 2494 4147 2053 4147 
L 1259 4147 
z
M 628 4666 
L 2053 4666 
Q 2838 4666 3239 4311 
Q 3641 3956 3641 3272 
Q 3641 2581 3239 2228 
Q 2838 1875 2053 1875 
L 1259 1875 
L 1259 0 
L 628 0 
L 628 4666 
z
" transform="scale(0.015625)"/>
     </defs>
     <use xlink:href="#DejaVuSans-33"/>
     <use xlink:href="#DejaVuSans-48" transform="translate(56.734375 0)"/>
     <use xlink:href="#DejaVuSans-51" transform="translate(118.265625 0)"/>
     <use xlink:href="#DejaVuSans-56" transform="translate(181.640625 0)"/>
     <use xlink:href="#DejaVuSans-4c" transform="translate(233.734375 0)"/>
     <use xlink:href="#DejaVuSans-44" transform="translate(261.515625 0)"/>
     <use xlink:href="#DejaVuSans-14" transform="translate(322.796875 0)"/>
     <use xlink:href="#DejaVuSans-1b" transform="translate(386.421875 0)"/>
    </g>
   </g>
   <g id="PathCollection_14">
    <g clip-path="url(#p6f738dc709)">
     <use xlink:href="#m2b190f4037" x="521.981111" y="264.575966" style="fill: #ff7f0e; stroke: #000000; stroke-width: 0.4"/>
    </g>
   </g>
   <g id="text_31">
    <!-- Lei19 -->
    <g transform="translate(524.216806 261.267466) scale(0.065 -0.065)">
     <use xlink:href="#DejaVuSans-2f"/>
     <use xlink:href="#DejaVuSans-48" transform="translate(53.96875 0)"/>
     <use xlink:href="#DejaVuSans-4c" transform="translate(115.5 0)"/>
     <use xlink:href="#DejaVuSans-14" transform="translate(143.28125 0)"/>
     <use xlink:href="#DejaVuSans-1c" transform="translate(206.90625 0)"/>
    </g>
   </g>
   <g id="PathCollection_15">
    <defs>
     <path id="m3d8961e601" d="M -4.1833 4.1833 
L 4.1833 -4.1833 
M -4.1833 -4.1833 
L 4.1833 4.1833 
" style="stroke: #bcbd22; stroke-width: 0.4"/>
    </defs>
    <g clip-path="url(#p6f738dc709)">
     <use xlink:href="#m3d8961e601" x="521.981111" y="255.660681" style="fill: #bcbd22; stroke: #bcbd22; stroke-width: 0.4"/>
    </g>
   </g>
   <g id="text_32">
    <!-- Nagarajan-Kolter19 -->
    <g transform="translate(524.216806 252.352181) scale(0.065 -0.065)">
     <defs>
      <path id="DejaVuSans-4d" d="M 603 3500 
L 1178 3500 
L 1178 -63 
Q 1178 -731 923 -1031 
Q 669 -1331 103 -1331 
L -116 -1331 
L -116 -844 
L 38 -844 
Q 366 -844 484 -692 
Q 603 -541 603 -63 
L 603 3500 
z
M 603 4863 
L 1178 4863 
L 1178 4134 
L 603 4134 
L 603 4863 
z
" transform="scale(0.015625)"/>
     </defs>
     <use xlink:href="#DejaVuSans-31"/>
     <use xlink:href="#DejaVuSans-44" transform="translate(74.8125 0)"/>
     <use xlink:href="#DejaVuSans-4a" transform="translate(136.09375 0)"/>
     <use xlink:href="#DejaVuSans-44" transform="translate(199.578125 0)"/>
     <use xlink:href="#DejaVuSans-55" transform="translate(260.859375 0)"/>
     <use xlink:href="#DejaVuSans-44" transform="translate(301.96875 0)"/>
     <use xlink:href="#DejaVuSans-4d" transform="translate(363.25 0)"/>
     <use xlink:href="#DejaVuSans-44" transform="translate(391.03125 0)"/>
     <use xlink:href="#DejaVuSans-51" transform="translate(452.3125 0)"/>
     <use xlink:href="#DejaVuSans-10" transform="translate(515.6875 0)"/>
     <use xlink:href="#DejaVuSans-2e" transform="translate(551.765625 0)"/>
     <use xlink:href="#DejaVuSans-52" transform="translate(612.359375 0)"/>
     <use xlink:href="#DejaVuSans-4f" transform="translate(673.546875 0)"/>
     <use xlink:href="#DejaVuSans-57" transform="translate(701.328125 0)"/>
     <use xlink:href="#DejaVuSans-48" transform="translate(740.53125 0)"/>
     <use xlink:href="#DejaVuSans-55" transform="translate(802.0625 0)"/>
     <use xlink:href="#DejaVuSans-14" transform="translate(843.171875 0)"/>
     <use xlink:href="#DejaVuSans-1c" transform="translate(906.796875 0)"/>
    </g>
   </g>
   <g id="PathCollection_16">
    <defs>
     <path id="m4233a316be" d="M -2.09165 4.1833 
L 0 2.09165 
L 2.09165 4.1833 
L 4.1833 2.09165 
L 2.09165 0 
L 4.1833 -2.09165 
L 2.09165 -4.1833 
L 0 -2.09165 
L -2.09165 -4.1833 
L -4.1833 -2.09165 
L -2.09165 0 
L -4.1833 2.09165 
z
" style="stroke: #000000; stroke-width: 0.4"/>
    </defs>
    <g clip-path="url(#p6f738dc709)">
     <use xlink:href="#m4233a316be" x="544.338061" y="266.91924" style="fill: #8c564b; stroke: #000000; stroke-width: 0.4"/>
    </g>
   </g>
   <g id="text_33">
    <!-- BZV20 -->
    <g transform="translate(546.573756 263.61074) scale(0.065 -0.065)">
     <defs>
      <path id="DejaVuSans-39" d="M 1831 0 
L 50 4666 
L 709 4666 
L 2188 738 
L 3669 4666 
L 4325 4666 
L 2547 0 
L 1831 0 
z
" transform="scale(0.015625)"/>
     </defs>
     <use xlink:href="#DejaVuSans-25"/>
     <use xlink:href="#DejaVuSans-3d" transform="translate(68.609375 0)"/>
     <use xlink:href="#DejaVuSans-39" transform="translate(137.109375 0)"/>
     <use xlink:href="#DejaVuSans-15" transform="translate(205.515625 0)"/>
     <use xlink:href="#DejaVuSans-13" transform="translate(269.140625 0)"/>
    </g>
   </g>
   <g id="PathCollection_17">
    <defs>
     <path id="medb5ab5437" d="M 0 -4.1833 
L -0.939209 -1.292711 
L -3.978555 -1.292711 
L -1.519673 0.493772 
L -2.458882 3.384361 
L -0 1.597878 
L 2.458882 3.384361 
L 1.519673 0.493772 
L 3.978555 -1.292711 
L 0.939209 -1.292711 
z
" style="stroke: #000000; stroke-width: 0.4"/>
    </defs>
    <g clip-path="url(#p6f738dc709)">
     <use xlink:href="#medb5ab5437" x="544.338061" y="258.40872" style="fill: #e377c2; stroke: #000000; stroke-width: 0.4"/>
    </g>
   </g>
   <g id="text_34">
    <!-- Haghifam20 -->
    <g transform="translate(546.573756 255.10022) scale(0.065 -0.065)">
     <defs>
      <path id="DejaVuSans-2b" d="M 628 4666 
L 1259 4666 
L 1259 2753 
L 3553 2753 
L 3553 4666 
L 4184 4666 
L 4184 0 
L 3553 0 
L 3553 2222 
L 1259 2222 
L 1259 0 
L 628 0 
L 628 4666 
z
" transform="scale(0.015625)"/>
     </defs>
     <use xlink:href="#DejaVuSans-2b"/>
     <use xlink:href="#DejaVuSans-44" transform="translate(75.203125 0)"/>
     <use xlink:href="#DejaVuSans-4a" transform="translate(136.484375 0)"/>
     <use xlink:href="#DejaVuSans-4b" transform="translate(199.96875 0)"/>
     <use xlink:href="#DejaVuSans-4c" transform="translate(263.34375 0)"/>
     <use xlink:href="#DejaVuSans-49" transform="translate(291.125 0)"/>
     <use xlink:href="#DejaVuSans-44" transform="translate(326.328125 0)"/>
     <use xlink:href="#DejaVuSans-50" transform="translate(387.609375 0)"/>
     <use xlink:href="#DejaVuSans-15" transform="translate(485.015625 0)"/>
     <use xlink:href="#DejaVuSans-13" transform="translate(548.640625 0)"/>
    </g>
   </g>
   <g id="PathCollection_18">
    <defs>
     <path id="m04e5b9fa06" d="M -4.1833 4.1833 
L 4.1833 4.1833 
L 4.1833 -4.1833 
L -4.1833 -4.1833 
z
" style="stroke: #000000; stroke-width: 0.4"/>
    </defs>
    <g clip-path="url(#p6f738dc709)">
     <use xlink:href="#m04e5b9fa06" x="544.338061" y="261.759076" style="fill: #2ca02c; stroke: #000000; stroke-width: 0.4"/>
    </g>
   </g>
   <g id="text_35">
    <!-- Negrea20 -->
    <g transform="translate(546.573756 258.450576) scale(0.065 -0.065)">
     <use xlink:href="#DejaVuSans-31"/>
     <use xlink:href="#DejaVuSans-48" transform="translate(74.8125 0)"/>
     <use xlink:href="#DejaVuSans-4a" transform="translate(136.34375 0)"/>
     <use xlink:href="#DejaVuSans-55" transform="translate(199.828125 0)"/>
     <use xlink:href="#DejaVuSans-48" transform="translate(238.734375 0)"/>
     <use xlink:href="#DejaVuSans-44" transform="translate(300.265625 0)"/>
     <use xlink:href="#DejaVuSans-15" transform="translate(361.546875 0)"/>
     <use xlink:href="#DejaVuSans-13" transform="translate(425.171875 0)"/>
    </g>
   </g>
   <g id="PathCollection_19">
    <g clip-path="url(#p6f738dc709)">
     <use xlink:href="#m2b190f4037" x="544.338061" y="259.887986" style="fill: #ff7f0e; stroke: #000000; stroke-width: 0.4"/>
    </g>
   </g>
   <g id="text_36">
    <!-- Esposito20 -->
    <g transform="translate(546.573756 256.579486) scale(0.065 -0.065)">
     <defs>
      <path id="DejaVuSans-28" d="M 628 4666 
L 3578 4666 
L 3578 4134 
L 1259 4134 
L 1259 2753 
L 3481 2753 
L 3481 2222 
L 1259 2222 
L 1259 531 
L 3634 531 
L 3634 0 
L 628 0 
L 628 4666 
z
" transform="scale(0.015625)"/>
     </defs>
     <use xlink:href="#DejaVuSans-28"/>
     <use xlink:href="#DejaVuSans-56" transform="translate(63.1875 0)"/>
     <use xlink:href="#DejaVuSans-53" transform="translate(115.28125 0)"/>
     <use xlink:href="#DejaVuSans-52" transform="translate(178.765625 0)"/>
     <use xlink:href="#DejaVuSans-56" transform="translate(239.953125 0)"/>
     <use xlink:href="#DejaVuSans-4c" transform="translate(292.046875 0)"/>
     <use xlink:href="#DejaVuSans-57" transform="translate(319.828125 0)"/>
     <use xlink:href="#DejaVuSans-52" transform="translate(359.03125 0)"/>
     <use xlink:href="#DejaVuSans-15" transform="translate(420.21875 0)"/>
     <use xlink:href="#DejaVuSans-13" transform="translate(483.84375 0)"/>
    </g>
   </g>
   <g id="PathCollection_20">
    <defs>
     <path id="m2cd7369c88" d="M -0 6.324555 
L 3.794733 0 
L 0 -6.324555 
L -3.794733 -0 
z
" style="stroke: #000000; stroke-width: 0.4"/>
    </defs>
    <g clip-path="url(#p6f738dc709)">
     <use xlink:href="#m2cd7369c88" x="544.338061" y="39.987737" style="fill: #9467bd; stroke: #000000; stroke-width: 0.4"/>
    </g>
   </g>
   <g id="text_37">
    <!-- Jiang-sharp-mag -->
    <g transform="translate(547.020895 36.679237) scale(0.075 -0.075)">
     <defs>
      <path id="DejaVuSans-2d" d="M 628 4666 
L 1259 4666 
L 1259 325 
Q 1259 -519 939 -900 
Q 619 -1281 -91 -1281 
L -331 -1281 
L -331 -750 
L -134 -750 
Q 284 -750 456 -515 
Q 628 -281 628 325 
L 628 4666 
z
" transform="scale(0.015625)"/>
     </defs>
     <use xlink:href="#DejaVuSans-2d"/>
     <use xlink:href="#DejaVuSans-4c" transform="translate(29.5 0)"/>
     <use xlink:href="#DejaVuSans-44" transform="translate(57.28125 0)"/>
     <use xlink:href="#DejaVuSans-51" transform="translate(118.5625 0)"/>
     <use xlink:href="#DejaVuSans-4a" transform="translate(181.9375 0)"/>
     <use xlink:href="#DejaVuSans-10" transform="translate(245.421875 0)"/>
     <use xlink:href="#DejaVuSans-56" transform="translate(281.5 0)"/>
     <use xlink:href="#DejaVuSans-4b" transform="translate(333.59375 0)"/>
     <use xlink:href="#DejaVuSans-44" transform="translate(396.96875 0)"/>
     <use xlink:href="#DejaVuSans-55" transform="translate(458.25 0)"/>
     <use xlink:href="#DejaVuSans-53" transform="translate(499.359375 0)"/>
     <use xlink:href="#DejaVuSans-10" transform="translate(562.84375 0)"/>
     <use xlink:href="#DejaVuSans-50" transform="translate(598.921875 0)"/>
     <use xlink:href="#DejaVuSans-44" transform="translate(696.328125 0)"/>
     <use xlink:href="#DejaVuSans-4a" transform="translate(757.609375 0)"/>
    </g>
   </g>
   <g id="PathCollection_21">
    <g clip-path="url(#p6f738dc709)">
     <use xlink:href="#m2cd7369c88" x="544.338061" y="67.448287" style="fill: #9467bd; stroke: #000000; stroke-width: 0.4"/>
    </g>
   </g>
   <g id="text_38">
    <!-- Jiang-PB-sharp -->
    <g transform="translate(547.020895 64.139787) scale(0.075 -0.075)">
     <use xlink:href="#DejaVuSans-2d"/>
     <use xlink:href="#DejaVuSans-4c" transform="translate(29.5 0)"/>
     <use xlink:href="#DejaVuSans-44" transform="translate(57.28125 0)"/>
     <use xlink:href="#DejaVuSans-51" transform="translate(118.5625 0)"/>
     <use xlink:href="#DejaVuSans-4a" transform="translate(181.9375 0)"/>
     <use xlink:href="#DejaVuSans-10" transform="translate(245.421875 0)"/>
     <use xlink:href="#DejaVuSans-33" transform="translate(281.5 0)"/>
     <use xlink:href="#DejaVuSans-25" transform="translate(341.796875 0)"/>
     <use xlink:href="#DejaVuSans-10" transform="translate(410.40625 0)"/>
     <use xlink:href="#DejaVuSans-56" transform="translate(446.484375 0)"/>
     <use xlink:href="#DejaVuSans-4b" transform="translate(498.578125 0)"/>
     <use xlink:href="#DejaVuSans-44" transform="translate(561.953125 0)"/>
     <use xlink:href="#DejaVuSans-55" transform="translate(623.234375 0)"/>
     <use xlink:href="#DejaVuSans-53" transform="translate(664.34375 0)"/>
    </g>
   </g>
   <g id="PathCollection_22">
    <defs>
     <path id="m0a58f41a15" d="M -0 4.472136 
L 4.472136 -4.472136 
L -4.472136 -4.472136 
z
" style="stroke: #000000; stroke-width: 0.4"/>
    </defs>
    <g clip-path="url(#p6f738dc709)">
     <use xlink:href="#m0a58f41a15" x="544.338061" y="132.625737" style="fill: #7f7f7f; stroke: #000000; stroke-width: 0.4"/>
    </g>
   </g>
   <g id="text_39">
    <!-- Jiang-spec-prod -->
    <g transform="translate(547.020895 129.317237) scale(0.075 -0.075)">
     <use xlink:href="#DejaVuSans-2d"/>
     <use xlink:href="#DejaVuSans-4c" transform="translate(29.5 0)"/>
     <use xlink:href="#DejaVuSans-44" transform="translate(57.28125 0)"/>
     <use xlink:href="#DejaVuSans-51" transform="translate(118.5625 0)"/>
     <use xlink:href="#DejaVuSans-4a" transform="translate(181.9375 0)"/>
     <use xlink:href="#DejaVuSans-10" transform="translate(245.421875 0)"/>
     <use xlink:href="#DejaVuSans-56" transform="translate(281.5 0)"/>
     <use xlink:href="#DejaVuSans-53" transform="translate(333.59375 0)"/>
     <use xlink:href="#DejaVuSans-48" transform="translate(397.078125 0)"/>
     <use xlink:href="#DejaVuSans-46" transform="translate(458.609375 0)"/>
     <use xlink:href="#DejaVuSans-10" transform="translate(513.59375 0)"/>
     <use xlink:href="#DejaVuSans-53" transform="translate(549.671875 0)"/>
     <use xlink:href="#DejaVuSans-55" transform="translate(613.15625 0)"/>
     <use xlink:href="#DejaVuSans-52" transform="translate(652.0625 0)"/>
     <use xlink:href="#DejaVuSans-47" transform="translate(713.25 0)"/>
    </g>
   </g>
   <g id="PathCollection_23">
    <g clip-path="url(#p6f738dc709)">
     <use xlink:href="#mfd0bbbdb1d" x="566.695012" y="215.796307" style="fill: #2ca02c; stroke: #000000; stroke-width: 0.4"/>
    </g>
   </g>
   <g id="text_40">
    <!-- Perez-Ortiz21 -->
    <g transform="translate(568.930707 202.671697) scale(0.068 -0.068)">
     <defs>
      <path id="DejaVuSans-32" d="M 2522 4238 
Q 1834 4238 1429 3725 
Q 1025 3213 1025 2328 
Q 1025 1447 1429 934 
Q 1834 422 2522 422 
Q 3209 422 3611 934 
Q 4013 1447 4013 2328 
Q 4013 3213 3611 3725 
Q 3209 4238 2522 4238 
z
M 2522 4750 
Q 3503 4750 4090 4092 
Q 4678 3434 4678 2328 
Q 4678 1225 4090 567 
Q 3503 -91 2522 -91 
Q 1538 -91 948 565 
Q 359 1222 359 2328 
Q 359 3434 948 4092 
Q 1538 4750 2522 4750 
z
" transform="scale(0.015625)"/>
     </defs>
     <use xlink:href="#DejaVuSans-33"/>
     <use xlink:href="#DejaVuSans-48" transform="translate(56.734375 0)"/>
     <use xlink:href="#DejaVuSans-55" transform="translate(118.265625 0)"/>
     <use xlink:href="#DejaVuSans-48" transform="translate(157.171875 0)"/>
     <use xlink:href="#DejaVuSans-5d" transform="translate(218.703125 0)"/>
     <use xlink:href="#DejaVuSans-10" transform="translate(271.1875 0)"/>
     <use xlink:href="#DejaVuSans-32" transform="translate(310.046875 0)"/>
     <use xlink:href="#DejaVuSans-55" transform="translate(388.765625 0)"/>
     <use xlink:href="#DejaVuSans-57" transform="translate(429.875 0)"/>
     <use xlink:href="#DejaVuSans-4c" transform="translate(469.078125 0)"/>
     <use xlink:href="#DejaVuSans-5d" transform="translate(496.859375 0)"/>
     <use xlink:href="#DejaVuSans-15" transform="translate(549.34375 0)"/>
     <use xlink:href="#DejaVuSans-14" transform="translate(612.96875 0)"/>
    </g>
    <!-- (b=0.18) -->
    <g transform="translate(568.930707 210.833557) scale(0.068 -0.068)">
     <use xlink:href="#DejaVuSans-b"/>
     <use xlink:href="#DejaVuSans-45" transform="translate(39.015625 0)"/>
     <use xlink:href="#DejaVuSans-20" transform="translate(102.5 0)"/>
     <use xlink:href="#DejaVuSans-13" transform="translate(186.296875 0)"/>
     <use xlink:href="#DejaVuSans-11" transform="translate(249.921875 0)"/>
     <use xlink:href="#DejaVuSans-14" transform="translate(281.703125 0)"/>
     <use xlink:href="#DejaVuSans-1b" transform="translate(345.328125 0)"/>
     <use xlink:href="#DejaVuSans-c" transform="translate(408.953125 0)"/>
    </g>
   </g>
   <g id="text_41">
    <!-- no rank correlation -->
    <g style="fill: #808080" transform="translate(571.580517 114.94318) scale(0.075 -0.075)">
     <use xlink:href="#DejaVuSans-51"/>
     <use xlink:href="#DejaVuSans-52" transform="translate(63.375 0)"/>
     <use xlink:href="#DejaVuSans-3" transform="translate(124.5625 0)"/>
     <use xlink:href="#DejaVuSans-55" transform="translate(156.34375 0)"/>
     <use xlink:href="#DejaVuSans-44" transform="translate(197.453125 0)"/>
     <use xlink:href="#DejaVuSans-51" transform="translate(258.734375 0)"/>
     <use xlink:href="#DejaVuSans-4e" transform="translate(322.109375 0)"/>
     <use xlink:href="#DejaVuSans-3" transform="translate(380.015625 0)"/>
     <use xlink:href="#DejaVuSans-46" transform="translate(411.796875 0)"/>
     <use xlink:href="#DejaVuSans-52" transform="translate(466.78125 0)"/>
     <use xlink:href="#DejaVuSans-55" transform="translate(527.96875 0)"/>
     <use xlink:href="#DejaVuSans-55" transform="translate(567.328125 0)"/>
     <use xlink:href="#DejaVuSans-48" transform="translate(606.234375 0)"/>
     <use xlink:href="#DejaVuSans-4f" transform="translate(667.765625 0)"/>
     <use xlink:href="#DejaVuSans-44" transform="translate(695.546875 0)"/>
     <use xlink:href="#DejaVuSans-57" transform="translate(756.828125 0)"/>
     <use xlink:href="#DejaVuSans-4c" transform="translate(796.03125 0)"/>
     <use xlink:href="#DejaVuSans-52" transform="translate(823.8125 0)"/>
     <use xlink:href="#DejaVuSans-51" transform="translate(885 0)"/>
    </g>
   </g>
   <g id="text_42">
    <!-- fielded bound value -->
    <g style="fill: #808080" transform="translate(568.277002 197.65568) scale(0.075 -0.075)">
     <defs>
      <path id="DejaVuSans-13af" d="M 3431 3500 
L 3431 0 
L 2853 0 
L 2853 3053 
L 1275 3053 
L 1275 0 
L 697 0 
L 697 3053 
L 147 3053 
L 147 3500 
L 697 3500 
L 697 3744 
Q 697 4316 967 4589 
Q 1238 4863 1797 4863 
L 2375 4863 
L 2375 4384 
L 1825 4384 
Q 1516 4384 1395 4259 
Q 1275 4134 1275 3809 
L 1275 3500 
L 3431 3500 
z
M 2853 4856 
L 3431 4856 
L 3431 4128 
L 2853 4128 
L 2853 4856 
z
" transform="scale(0.015625)"/>
      <path id="DejaVuSans-59" d="M 191 3500 
L 800 3500 
L 1894 563 
L 2988 3500 
L 3597 3500 
L 2284 0 
L 1503 0 
L 191 3500 
z
" transform="scale(0.015625)"/>
     </defs>
     <use xlink:href="#DejaVuSans-13af"/>
     <use xlink:href="#DejaVuSans-48" transform="translate(62.984375 0)"/>
     <use xlink:href="#DejaVuSans-4f" transform="translate(124.515625 0)"/>
     <use xlink:href="#DejaVuSans-47" transform="translate(152.296875 0)"/>
     <use xlink:href="#DejaVuSans-48" transform="translate(215.78125 0)"/>
     <use xlink:href="#DejaVuSans-47" transform="translate(277.3125 0)"/>
     <use xlink:href="#DejaVuSans-3" transform="translate(340.796875 0)"/>
     <use xlink:href="#DejaVuSans-45" transform="translate(372.578125 0)"/>
     <use xlink:href="#DejaVuSans-52" transform="translate(436.0625 0)"/>
     <use xlink:href="#DejaVuSans-58" transform="translate(497.25 0)"/>
     <use xlink:href="#DejaVuSans-51" transform="translate(560.625 0)"/>
     <use xlink:href="#DejaVuSans-47" transform="translate(624 0)"/>
     <use xlink:href="#DejaVuSans-3" transform="translate(687.484375 0)"/>
     <use xlink:href="#DejaVuSans-59" transform="translate(719.265625 0)"/>
     <use xlink:href="#DejaVuSans-44" transform="translate(778.453125 0)"/>
     <use xlink:href="#DejaVuSans-4f" transform="translate(839.734375 0)"/>
     <use xlink:href="#DejaVuSans-58" transform="translate(867.515625 0)"/>
     <use xlink:href="#DejaVuSans-48" transform="translate(930.890625 0)"/>
    </g>
   </g>
   <g id="text_43">
    <!-- theory only -->
    <g style="fill: #808080" transform="translate(600.040674 247.28318) scale(0.075 -0.075)">
     <use xlink:href="#DejaVuSans-57"/>
     <use xlink:href="#DejaVuSans-4b" transform="translate(39.203125 0)"/>
     <use xlink:href="#DejaVuSans-48" transform="translate(102.578125 0)"/>
     <use xlink:href="#DejaVuSans-52" transform="translate(164.109375 0)"/>
     <use xlink:href="#DejaVuSans-55" transform="translate(225.296875 0)"/>
     <use xlink:href="#DejaVuSans-5c" transform="translate(266.40625 0)"/>
     <use xlink:href="#DejaVuSans-3" transform="translate(325.59375 0)"/>
     <use xlink:href="#DejaVuSans-52" transform="translate(357.375 0)"/>
     <use xlink:href="#DejaVuSans-51" transform="translate(418.5625 0)"/>
     <use xlink:href="#DejaVuSans-4f" transform="translate(481.9375 0)"/>
     <use xlink:href="#DejaVuSans-5c" transform="translate(509.71875 0)"/>
    </g>
   </g>
   <g id="text_44">
    <!-- PAC-Bayes / generalization-bound landscape 1999-2024 -->
    <g transform="translate(214.055547 14.798437) scale(0.1 -0.1)">
     <use xlink:href="#DejaVuSans-33"/>
     <use xlink:href="#DejaVuSans-24" transform="translate(53.90625 0)"/>
     <use xlink:href="#DejaVuSans-26" transform="translate(120.5625 0)"/>
     <use xlink:href="#DejaVuSans-10" transform="translate(190.390625 0)"/>
     <use xlink:href="#DejaVuSans-25" transform="translate(222.90625 0)"/>
     <use xlink:href="#DejaVuSans-44" transform="translate(291.515625 0)"/>
     <use xlink:href="#DejaVuSans-5c" transform="translate(352.796875 0)"/>
     <use xlink:href="#DejaVuSans-48" transform="translate(411.984375 0)"/>
     <use xlink:href="#DejaVuSans-56" transform="translate(473.515625 0)"/>
     <use xlink:href="#DejaVuSans-3" transform="translate(525.609375 0)"/>
     <use xlink:href="#DejaVuSans-12" transform="translate(557.390625 0)"/>
     <use xlink:href="#DejaVuSans-3" transform="translate(591.078125 0)"/>
     <use xlink:href="#DejaVuSans-4a" transform="translate(622.859375 0)"/>
     <use xlink:href="#DejaVuSans-48" transform="translate(686.34375 0)"/>
     <use xlink:href="#DejaVuSans-51" transform="translate(747.875 0)"/>
     <use xlink:href="#DejaVuSans-48" transform="translate(811.25 0)"/>
     <use xlink:href="#DejaVuSans-55" transform="translate(872.78125 0)"/>
     <use xlink:href="#DejaVuSans-44" transform="translate(913.890625 0)"/>
     <use xlink:href="#DejaVuSans-4f" transform="translate(975.171875 0)"/>
     <use xlink:href="#DejaVuSans-4c" transform="translate(1002.953125 0)"/>
     <use xlink:href="#DejaVuSans-5d" transform="translate(1030.734375 0)"/>
     <use xlink:href="#DejaVuSans-44" transform="translate(1083.21875 0)"/>
     <use xlink:href="#DejaVuSans-57" transform="translate(1144.5 0)"/>
     <use xlink:href="#DejaVuSans-4c" transform="translate(1183.703125 0)"/>
     <use xlink:href="#DejaVuSans-52" transform="translate(1211.484375 0)"/>
     <use xlink:href="#DejaVuSans-51" transform="translate(1272.671875 0)"/>
     <use xlink:href="#DejaVuSans-10" transform="translate(1336.046875 0)"/>
     <use xlink:href="#DejaVuSans-45" transform="translate(1372.125 0)"/>
     <use xlink:href="#DejaVuSans-52" transform="translate(1435.609375 0)"/>
     <use xlink:href="#DejaVuSans-58" transform="translate(1496.796875 0)"/>
     <use xlink:href="#DejaVuSans-51" transform="translate(1560.171875 0)"/>
     <use xlink:href="#DejaVuSans-47" transform="translate(1623.546875 0)"/>
     <use xlink:href="#DejaVuSans-3" transform="translate(1687.03125 0)"/>
     <use xlink:href="#DejaVuSans-4f" transform="translate(1718.8125 0)"/>
     <use xlink:href="#DejaVuSans-44" transform="translate(1746.59375 0)"/>
     <use xlink:href="#DejaVuSans-51" transform="translate(1807.875 0)"/>
     <use xlink:href="#DejaVuSans-47" transform="translate(1871.25 0)"/>
     <use xlink:href="#DejaVuSans-56" transform="translate(1934.734375 0)"/>
     <use xlink:href="#DejaVuSans-46" transform="translate(1986.828125 0)"/>
     <use xlink:href="#DejaVuSans-44" transform="translate(2041.8125 0)"/>
     <use xlink:href="#DejaVuSans-53" transform="translate(2103.09375 0)"/>
     <use xlink:href="#DejaVuSans-48" transform="translate(2166.578125 0)"/>
     <use xlink:href="#DejaVuSans-3" transform="translate(2228.109375 0)"/>
     <use xlink:href="#DejaVuSans-14" transform="translate(2259.890625 0)"/>
     <use xlink:href="#DejaVuSans-1c" transform="translate(2323.515625 0)"/>
     <use xlink:href="#DejaVuSans-1c" transform="translate(2387.140625 0)"/>
     <use xlink:href="#DejaVuSans-1c" transform="translate(2450.765625 0)"/>
     <use xlink:href="#DejaVuSans-10" transform="translate(2514.390625 0)"/>
     <use xlink:href="#DejaVuSans-15" transform="translate(2550.46875 0)"/>
     <use xlink:href="#DejaVuSans-13" transform="translate(2614.09375 0)"/>
     <use xlink:href="#DejaVuSans-15" transform="translate(2677.71875 0)"/>
     <use xlink:href="#DejaVuSans-17" transform="translate(2741.34375 0)"/>
    </g>
   </g>
   <g id="legend_1">
    <g id="PathCollection_24">
     <g>
      <use xlink:href="#mcca210294e" x="65.785156" y="30.579844" style="fill: #1f77b4; stroke: #000000; stroke-width: 0.4"/>
     </g>
    </g>
    <g id="text_45">
     <!-- PB-classical -->
     <g transform="translate(78.385156 32.417344) scale(0.07 -0.07)">
      <use xlink:href="#DejaVuSans-33"/>
      <use xlink:href="#DejaVuSans-25" transform="translate(60.296875 0)"/>
      <use xlink:href="#DejaVuSans-10" transform="translate(128.90625 0)"/>
      <use xlink:href="#DejaVuSans-46" transform="translate(164.984375 0)"/>
      <use xlink:href="#DejaVuSans-4f" transform="translate(219.96875 0)"/>
      <use xlink:href="#DejaVuSans-44" transform="translate(247.75 0)"/>
      <use xlink:href="#DejaVuSans-56" transform="translate(309.03125 0)"/>
      <use xlink:href="#DejaVuSans-56" transform="translate(361.125 0)"/>
      <use xlink:href="#DejaVuSans-4c" transform="translate(413.21875 0)"/>
      <use xlink:href="#DejaVuSans-46" transform="translate(441 0)"/>
      <use xlink:href="#DejaVuSans-44" transform="translate(495.984375 0)"/>
      <use xlink:href="#DejaVuSans-4f" transform="translate(557.265625 0)"/>
     </g>
    </g>
    <g id="PathCollection_25">
     <g>
      <use xlink:href="#m53e9f500e3" x="65.785156" y="41.080391" style="fill: #7f7f7f; stroke: #000000; stroke-width: 0.4"/>
     </g>
    </g>
    <g id="text_46">
     <!-- Norm-product -->
     <g transform="translate(78.385156 42.917891) scale(0.07 -0.07)">
      <use xlink:href="#DejaVuSans-31"/>
      <use xlink:href="#DejaVuSans-52" transform="translate(74.8125 0)"/>
      <use xlink:href="#DejaVuSans-55" transform="translate(136 0)"/>
      <use xlink:href="#DejaVuSans-50" transform="translate(175.359375 0)"/>
      <use xlink:href="#DejaVuSans-10" transform="translate(272.765625 0)"/>
      <use xlink:href="#DejaVuSans-53" transform="translate(308.84375 0)"/>
      <use xlink:href="#DejaVuSans-55" transform="translate(372.328125 0)"/>
      <use xlink:href="#DejaVuSans-52" transform="translate(411.234375 0)"/>
      <use xlink:href="#DejaVuSans-47" transform="translate(472.421875 0)"/>
      <use xlink:href="#DejaVuSans-58" transform="translate(535.90625 0)"/>
      <use xlink:href="#DejaVuSans-46" transform="translate(599.28125 0)"/>
      <use xlink:href="#DejaVuSans-57" transform="translate(654.265625 0)"/>
     </g>
    </g>
    <g id="PathCollection_26">
     <g>
      <use xlink:href="#m2b190f4037" x="65.785156" y="51.580937" style="fill: #ff7f0e; stroke: #000000; stroke-width: 0.4"/>
     </g>
    </g>
    <g id="text_47">
     <!-- Info-MI -->
     <g transform="translate(78.385156 53.418437) scale(0.07 -0.07)">
      <defs>
       <path id="DejaVuSans-2c" d="M 628 4666 
L 1259 4666 
L 1259 0 
L 628 0 
L 628 4666 
z
" transform="scale(0.015625)"/>
      </defs>
      <use xlink:href="#DejaVuSans-2c"/>
      <use xlink:href="#DejaVuSans-51" transform="translate(29.5 0)"/>
      <use xlink:href="#DejaVuSans-49" transform="translate(92.875 0)"/>
      <use xlink:href="#DejaVuSans-52" transform="translate(128.078125 0)"/>
      <use xlink:href="#DejaVuSans-10" transform="translate(191.125 0)"/>
      <use xlink:href="#DejaVuSans-30" transform="translate(227.203125 0)"/>
      <use xlink:href="#DejaVuSans-2c" transform="translate(313.484375 0)"/>
     </g>
    </g>
    <g id="PathCollection_27">
     <g>
      <use xlink:href="#mfd0bbbdb1d" x="65.785156" y="62.081484" style="fill: #2ca02c; stroke: #000000; stroke-width: 0.4"/>
     </g>
    </g>
    <g id="text_48">
     <!-- PB-data-dep -->
     <g transform="translate(78.385156 63.918984) scale(0.07 -0.07)">
      <use xlink:href="#DejaVuSans-33"/>
      <use xlink:href="#DejaVuSans-25" transform="translate(60.296875 0)"/>
      <use xlink:href="#DejaVuSans-10" transform="translate(128.90625 0)"/>
      <use xlink:href="#DejaVuSans-47" transform="translate(164.984375 0)"/>
      <use xlink:href="#DejaVuSans-44" transform="translate(228.46875 0)"/>
      <use xlink:href="#DejaVuSans-57" transform="translate(289.75 0)"/>
      <use xlink:href="#DejaVuSans-44" transform="translate(328.953125 0)"/>
      <use xlink:href="#DejaVuSans-10" transform="translate(390.234375 0)"/>
      <use xlink:href="#DejaVuSans-47" transform="translate(426.3125 0)"/>
      <use xlink:href="#DejaVuSans-48" transform="translate(489.796875 0)"/>
      <use xlink:href="#DejaVuSans-53" transform="translate(551.328125 0)"/>
     </g>
    </g>
    <g id="PathCollection_28">
     <g>
      <use xlink:href="#m0d385bcbe0" x="147.927969" y="30.579844" style="fill: #d62728; stroke: #000000; stroke-width: 0.4"/>
     </g>
    </g>
    <g id="text_49">
     <!-- Margin-spectral -->
     <g transform="translate(160.527969 32.417344) scale(0.07 -0.07)">
      <use xlink:href="#DejaVuSans-30"/>
      <use xlink:href="#DejaVuSans-44" transform="translate(86.28125 0)"/>
      <use xlink:href="#DejaVuSans-55" transform="translate(147.5625 0)"/>
      <use xlink:href="#DejaVuSans-4a" transform="translate(186.921875 0)"/>
      <use xlink:href="#DejaVuSans-4c" transform="translate(250.40625 0)"/>
      <use xlink:href="#DejaVuSans-51" transform="translate(278.1875 0)"/>
      <use xlink:href="#DejaVuSans-10" transform="translate(341.5625 0)"/>
      <use xlink:href="#DejaVuSans-56" transform="translate(377.640625 0)"/>
      <use xlink:href="#DejaVuSans-53" transform="translate(429.734375 0)"/>
      <use xlink:href="#DejaVuSans-48" transform="translate(493.21875 0)"/>
      <use xlink:href="#DejaVuSans-46" transform="translate(554.75 0)"/>
      <use xlink:href="#DejaVuSans-57" transform="translate(609.734375 0)"/>
      <use xlink:href="#DejaVuSans-55" transform="translate(648.9375 0)"/>
      <use xlink:href="#DejaVuSans-44" transform="translate(690.046875 0)"/>
      <use xlink:href="#DejaVuSans-4f" transform="translate(751.328125 0)"/>
     </g>
    </g>
    <g id="PathCollection_29">
     <g>
      <use xlink:href="#m4bcb2ce4d8" x="147.927969" y="41.080391" style="stroke: #000000; stroke-width: 0.4"/>
     </g>
    </g>
    <g id="text_50">
     <!-- Random-label -->
     <g transform="translate(160.527969 42.917891) scale(0.07 -0.07)">
      <use xlink:href="#DejaVuSans-35"/>
      <use xlink:href="#DejaVuSans-44" transform="translate(67.28125 0)"/>
      <use xlink:href="#DejaVuSans-51" transform="translate(128.5625 0)"/>
      <use xlink:href="#DejaVuSans-47" transform="translate(191.9375 0)"/>
      <use xlink:href="#DejaVuSans-52" transform="translate(255.421875 0)"/>
      <use xlink:href="#DejaVuSans-50" transform="translate(316.609375 0)"/>
      <use xlink:href="#DejaVuSans-10" transform="translate(414.015625 0)"/>
      <use xlink:href="#DejaVuSans-4f" transform="translate(450.09375 0)"/>
      <use xlink:href="#DejaVuSans-44" transform="translate(477.875 0)"/>
      <use xlink:href="#DejaVuSans-45" transform="translate(539.15625 0)"/>
      <use xlink:href="#DejaVuSans-48" transform="translate(602.640625 0)"/>
      <use xlink:href="#DejaVuSans-4f" transform="translate(664.171875 0)"/>
     </g>
    </g>
    <g id="PathCollection_30">
     <g>
      <use xlink:href="#meaa1ffdb23" x="147.927969" y="51.580937" style="fill: #17becf; stroke: #000000; stroke-width: 0.4"/>
     </g>
    </g>
    <g id="text_51">
     <!-- PB-spectral -->
     <g transform="translate(160.527969 53.418437) scale(0.07 -0.07)">
      <use xlink:href="#DejaVuSans-33"/>
      <use xlink:href="#DejaVuSans-25" transform="translate(60.296875 0)"/>
      <use xlink:href="#DejaVuSans-10" transform="translate(128.90625 0)"/>
      <use xlink:href="#DejaVuSans-56" transform="translate(164.984375 0)"/>
      <use xlink:href="#DejaVuSans-53" transform="translate(217.078125 0)"/>
      <use xlink:href="#DejaVuSans-48" transform="translate(280.5625 0)"/>
      <use xlink:href="#DejaVuSans-46" transform="translate(342.09375 0)"/>
      <use xlink:href="#DejaVuSans-57" transform="translate(397.078125 0)"/>
      <use xlink:href="#DejaVuSans-55" transform="translate(436.28125 0)"/>
      <use xlink:href="#DejaVuSans-44" transform="translate(477.390625 0)"/>
      <use xlink:href="#DejaVuSans-4f" transform="translate(538.671875 0)"/>
     </g>
    </g>
    <g id="PathCollection_31">
     <g>
      <use xlink:href="#m3d8961e601" x="147.927969" y="62.081484" style="fill: #bcbd22; stroke: #bcbd22; stroke-width: 0.4"/>
     </g>
    </g>
    <g id="text_52">
     <!-- Impossibility -->
     <g transform="translate(160.527969 63.918984) scale(0.07 -0.07)">
      <use xlink:href="#DejaVuSans-2c"/>
      <use xlink:href="#DejaVuSans-50" transform="translate(29.5 0)"/>
      <use xlink:href="#DejaVuSans-53" transform="translate(126.90625 0)"/>
      <use xlink:href="#DejaVuSans-52" transform="translate(190.390625 0)"/>
      <use xlink:href="#DejaVuSans-56" transform="translate(251.578125 0)"/>
      <use xlink:href="#DejaVuSans-56" transform="translate(303.671875 0)"/>
      <use xlink:href="#DejaVuSans-4c" transform="translate(355.765625 0)"/>
      <use xlink:href="#DejaVuSans-45" transform="translate(383.546875 0)"/>
      <use xlink:href="#DejaVuSans-4c" transform="translate(447.03125 0)"/>
      <use xlink:href="#DejaVuSans-4f" transform="translate(474.8125 0)"/>
      <use xlink:href="#DejaVuSans-4c" transform="translate(502.59375 0)"/>
      <use xlink:href="#DejaVuSans-57" transform="translate(530.375 0)"/>
      <use xlink:href="#DejaVuSans-5c" transform="translate(569.578125 0)"/>
     </g>
    </g>
    <g id="PathCollection_32">
     <g>
      <use xlink:href="#m4233a316be" x="236.065625" y="30.579844" style="fill: #8c564b; stroke: #000000; stroke-width: 0.4"/>
     </g>
    </g>
    <g id="text_53">
     <!-- Info-per-sample -->
     <g transform="translate(248.665625 32.417344) scale(0.07 -0.07)">
      <use xlink:href="#DejaVuSans-2c"/>
      <use xlink:href="#DejaVuSans-51" transform="translate(29.5 0)"/>
      <use xlink:href="#DejaVuSans-49" transform="translate(92.875 0)"/>
      <use xlink:href="#DejaVuSans-52" transform="translate(128.078125 0)"/>
      <use xlink:href="#DejaVuSans-10" transform="translate(191.125 0)"/>
      <use xlink:href="#DejaVuSans-53" transform="translate(227.203125 0)"/>
      <use xlink:href="#DejaVuSans-48" transform="translate(290.6875 0)"/>
      <use xlink:href="#DejaVuSans-55" transform="translate(352.21875 0)"/>
      <use xlink:href="#DejaVuSans-10" transform="translate(386.9375 0)"/>
      <use xlink:href="#DejaVuSans-56" transform="translate(423.015625 0)"/>
      <use xlink:href="#DejaVuSans-44" transform="translate(475.109375 0)"/>
      <use xlink:href="#DejaVuSans-50" transform="translate(536.390625 0)"/>
      <use xlink:href="#DejaVuSans-53" transform="translate(633.796875 0)"/>
      <use xlink:href="#DejaVuSans-4f" transform="translate(697.28125 0)"/>
      <use xlink:href="#DejaVuSans-48" transform="translate(725.0625 0)"/>
     </g>
    </g>
    <g id="PathCollection_33">
     <g>
      <use xlink:href="#medb5ab5437" x="236.065625" y="41.080391" style="fill: #e377c2; stroke: #000000; stroke-width: 0.4"/>
     </g>
    </g>
    <g id="text_54">
     <!-- Info-CMI -->
     <g transform="translate(248.665625 42.917891) scale(0.07 -0.07)">
      <use xlink:href="#DejaVuSans-2c"/>
      <use xlink:href="#DejaVuSans-51" transform="translate(29.5 0)"/>
      <use xlink:href="#DejaVuSans-49" transform="translate(92.875 0)"/>
      <use xlink:href="#DejaVuSans-52" transform="translate(128.078125 0)"/>
      <use xlink:href="#DejaVuSans-10" transform="translate(191.125 0)"/>
      <use xlink:href="#DejaVuSans-26" transform="translate(227.203125 0)"/>
      <use xlink:href="#DejaVuSans-30" transform="translate(297.03125 0)"/>
      <use xlink:href="#DejaVuSans-2c" transform="translate(383.3125 0)"/>
     </g>
    </g>
    <g id="PathCollection_34">
     <g>
      <use xlink:href="#m2cd7369c88" x="236.065625" y="51.580937" style="fill: #9467bd; stroke: #000000; stroke-width: 0.4"/>
     </g>
    </g>
    <g id="text_55">
     <!-- Sharpness -->
     <g transform="translate(248.665625 53.418437) scale(0.07 -0.07)">
      <use xlink:href="#DejaVuSans-36"/>
      <use xlink:href="#DejaVuSans-4b" transform="translate(63.484375 0)"/>
      <use xlink:href="#DejaVuSans-44" transform="translate(126.859375 0)"/>
      <use xlink:href="#DejaVuSans-55" transform="translate(188.140625 0)"/>
      <use xlink:href="#DejaVuSans-53" transform="translate(229.25 0)"/>
      <use xlink:href="#DejaVuSans-51" transform="translate(292.734375 0)"/>
      <use xlink:href="#DejaVuSans-48" transform="translate(356.109375 0)"/>
      <use xlink:href="#DejaVuSans-56" transform="translate(417.640625 0)"/>
      <use xlink:href="#DejaVuSans-56" transform="translate(469.734375 0)"/>
     </g>
    </g>
   </g>
  </g>
 </g>
 <defs>
  <clipPath id="p6f738dc709">
   <rect x="52.485156" y="20.798437" width="603.637656" height="264.68"/>
  </clipPath>
 </defs>
</svg>
