<?xml version="1.0" encoding="utf-8" standalone="no"?>
<!DOCTYPE svg PUBLIC "-//W3C//DTD SVG 1.1//EN"
  "http://www.w3.org/Graphics/SVG/1.1/DTD/svg11.dtd">
<svg xmlns:xlink="http://www.w3.org/1999/xlink" width="666.454448pt" height="272.498125pt" viewBox="0 0 666.454448 272.498125" xmlns="http://www.w3.org/2000/svg" version="1.1">
 <metadata>
  <rdf:RDF xmlns:dc="http://purl.org/dc/elements/1.1/" xmlns:cc="http://creativecommons.org/ns#" xmlns:rdf="http://www.w3.org/1999/02/22-rdf-syntax-ns#">
   <cc:Work>
    <dc:type rdf:resource="http://purl.org/dc/dcmitype/StillImage"/>
    <dc:date>2026-05-29T17:49:35.468916</dc:date>
    <dc:format>image/svg+xml</dc:format>
    <dc:creator>
     <cc:Agent>
      <dc:title>Matplotlib v3.10.9, https://matplotlib.org/</dc:title>
     </cc:Agent>
    </dc:creator>
   </cc:Work>
  </rdf:RDF>
 </metadata>
 <defs>
  <style type="text/css">*{stroke-linejoin: round; stroke-linecap: butt}</style>
 </defs>
 <g id="figure_1">
  <g id="patch_1">
   <path d="M 0 272.498125 
L 666.454448 272.498125 
L 666.454448 0 
L 0 0 
z
" style="fill: #ffffff"/>
  </g>
  <g id="axes_1">
   <g id="patch_2">
    <path d="M 40.545 235.638437 
L 623.81625 235.638437 
L 623.81625 17.198437 
L 40.545 17.198437 
z
" style="fill: #ffffff"/>
   </g>
   <g id="matplotlib.axis_1">
    <g id="xtick_1">
     <g id="line2d_1">
      <path d="M 97.251927 235.638437 
L 97.251927 17.198437 
" clip-path="url(#p1294e02bf0)" style="fill: none; stroke-dasharray: 0.8,1.32; stroke-dashoffset: 0; stroke: #b0b0b0; stroke-opacity: 0.3; stroke-width: 0.8"/>
     </g>
     <g id="line2d_2">
      <defs>
       <path id="m2da35332a0" d="M 0 0 
L 0 3.5 
" style="stroke: #000000; stroke-width: 0.8"/>
      </defs>
      <g>
       <use xlink:href="#m2da35332a0" x="97.251927" y="235.638437" style="stroke: #000000; stroke-width: 0.8"/>
      </g>
     </g>
     <g id="text_1">
      <!-- 1960 -->
      <g transform="translate(83.254427 250.996719) scale(0.11 -0.11)">
       <defs>
        <path id="DejaVuSerif-31" d="M 909 0 
L 909 331 
L 1722 331 
L 1722 4213 
L 781 3603 
L 781 4013 
L 1919 4750 
L 2350 4750 
L 2350 331 
L 3163 331 
L 3163 0 
L 909 0 
z
" transform="scale(0.015625)"/>
        <path id="DejaVuSerif-39" d="M 2994 2091 
Q 2784 1856 2512 1740 
Q 2241 1625 1900 1625 
Q 1206 1625 804 2044 
Q 403 2463 403 3188 
Q 403 3897 839 4323 
Q 1275 4750 2003 4750 
Q 2794 4750 3217 4161 
Q 3641 3572 3641 2478 
Q 3641 1253 3137 581 
Q 2634 -91 1722 -91 
Q 1475 -91 1203 -44 
Q 931 3 647 97 
L 647 872 
L 997 872 
Q 1038 556 1241 387 
Q 1444 219 1784 219 
Q 2391 219 2687 676 
Q 2984 1134 2994 2091 
z
M 1978 4441 
Q 1534 4441 1298 4117 
Q 1063 3794 1063 3188 
Q 1063 2581 1298 2256 
Q 1534 1931 1978 1931 
Q 2422 1931 2658 2245 
Q 2894 2559 2894 3150 
Q 2894 3772 2656 4106 
Q 2419 4441 1978 4441 
z
" transform="scale(0.015625)"/>
        <path id="DejaVuSerif-36" d="M 2094 219 
Q 2534 219 2771 542 
Q 3009 866 3009 1472 
Q 3009 2078 2771 2401 
Q 2534 2725 2094 2725 
Q 1647 2725 1412 2412 
Q 1178 2100 1178 1509 
Q 1178 888 1415 553 
Q 1653 219 2094 219 
z
M 1075 2569 
Q 1288 2803 1556 2918 
Q 1825 3034 2163 3034 
Q 2859 3034 3264 2615 
Q 3669 2197 3669 1472 
Q 3669 763 3233 336 
Q 2797 -91 2069 -91 
Q 1278 -91 853 498 
Q 428 1088 428 2181 
Q 428 3406 931 4078 
Q 1434 4750 2350 4750 
Q 2597 4750 2869 4703 
Q 3141 4656 3425 4563 
L 3425 3794 
L 3072 3794 
Q 3034 4109 2831 4275 
Q 2628 4441 2284 4441 
Q 1678 4441 1381 3981 
Q 1084 3522 1075 2569 
z
" transform="scale(0.015625)"/>
        <path id="DejaVuSerif-30" d="M 2034 219 
Q 2513 219 2750 744 
Q 2988 1269 2988 2328 
Q 2988 3391 2750 3916 
Q 2513 4441 2034 4441 
Q 1556 4441 1318 3916 
Q 1081 3391 1081 2328 
Q 1081 1269 1318 744 
Q 1556 219 2034 219 
z
M 2034 -91 
Q 1275 -91 848 546 
Q 422 1184 422 2328 
Q 422 3475 848 4112 
Q 1275 4750 2034 4750 
Q 2797 4750 3222 4112 
Q 3647 3475 3647 2328 
Q 3647 1184 3222 546 
Q 2797 -91 2034 -91 
z
" transform="scale(0.015625)"/>
       </defs>
       <use xlink:href="#DejaVuSerif-31"/>
       <use xlink:href="#DejaVuSerif-39" transform="translate(63.623047 0)"/>
       <use xlink:href="#DejaVuSerif-36" transform="translate(127.246094 0)"/>
       <use xlink:href="#DejaVuSerif-30" transform="translate(190.869141 0)"/>
      </g>
     </g>
    </g>
    <g id="xtick_2">
     <g id="line2d_3">
      <path d="M 178.261823 235.638437 
L 178.261823 17.198437 
" clip-path="url(#p1294e02bf0)" style="fill: none; stroke-dasharray: 0.8,1.32; stroke-dashoffset: 0; stroke: #b0b0b0; stroke-opacity: 0.3; stroke-width: 0.8"/>
     </g>
     <g id="line2d_4">
      <g>
       <use xlink:href="#m2da35332a0" x="178.261823" y="235.638437" style="stroke: #000000; stroke-width: 0.8"/>
      </g>
     </g>
     <g id="text_2">
      <!-- 1970 -->
      <g transform="translate(164.264323 250.996719) scale(0.11 -0.11)">
       <defs>
        <path id="DejaVuSerif-37" d="M 3609 4347 
L 1784 0 
L 1319 0 
L 3059 4153 
L 903 4153 
L 903 3578 
L 538 3578 
L 538 4666 
L 3609 4666 
L 3609 4347 
z
" transform="scale(0.015625)"/>
       </defs>
       <use xlink:href="#DejaVuSerif-31"/>
       <use xlink:href="#DejaVuSerif-39" transform="translate(63.623047 0)"/>
       <use xlink:href="#DejaVuSerif-37" transform="translate(127.246094 0)"/>
       <use xlink:href="#DejaVuSerif-30" transform="translate(190.869141 0)"/>
      </g>
     </g>
    </g>
    <g id="xtick_3">
     <g id="line2d_5">
      <path d="M 259.271719 235.638437 
L 259.271719 17.198437 
" clip-path="url(#p1294e02bf0)" style="fill: none; stroke-dasharray: 0.8,1.32; stroke-dashoffset: 0; stroke: #b0b0b0; stroke-opacity: 0.3; stroke-width: 0.8"/>
     </g>
     <g id="line2d_6">
      <g>
       <use xlink:href="#m2da35332a0" x="259.271719" y="235.638437" style="stroke: #000000; stroke-width: 0.8"/>
      </g>
     </g>
     <g id="text_3">
      <!-- 1980 -->
      <g transform="translate(245.274219 250.996719) scale(0.11 -0.11)">
       <defs>
        <path id="DejaVuSerif-38" d="M 2981 1275 
Q 2981 1775 2732 2051 
Q 2484 2328 2034 2328 
Q 1584 2328 1336 2051 
Q 1088 1775 1088 1275 
Q 1088 772 1336 495 
Q 1584 219 2034 219 
Q 2484 219 2732 495 
Q 2981 772 2981 1275 
z
M 2853 3541 
Q 2853 3966 2637 4203 
Q 2422 4441 2034 4441 
Q 1650 4441 1433 4203 
Q 1216 3966 1216 3541 
Q 1216 3113 1433 2875 
Q 1650 2638 2034 2638 
Q 2422 2638 2637 2875 
Q 2853 3113 2853 3541 
z
M 2516 2484 
Q 3047 2413 3344 2092 
Q 3641 1772 3641 1275 
Q 3641 619 3225 264 
Q 2809 -91 2034 -91 
Q 1263 -91 845 264 
Q 428 619 428 1275 
Q 428 1772 725 2092 
Q 1022 2413 1556 2484 
Q 1084 2569 832 2842 
Q 581 3116 581 3541 
Q 581 4103 968 4426 
Q 1356 4750 2034 4750 
Q 2713 4750 3100 4426 
Q 3488 4103 3488 3541 
Q 3488 3116 3236 2842 
Q 2984 2569 2516 2484 
z
" transform="scale(0.015625)"/>
       </defs>
       <use xlink:href="#DejaVuSerif-31"/>
       <use xlink:href="#DejaVuSerif-39" transform="translate(63.623047 0)"/>
       <use xlink:href="#DejaVuSerif-38" transform="translate(127.246094 0)"/>
       <use xlink:href="#DejaVuSerif-30" transform="translate(190.869141 0)"/>
      </g>
     </g>
    </g>
    <g id="xtick_4">
     <g id="line2d_7">
      <path d="M 340.281615 235.638437 
L 340.281615 17.198437 
" clip-path="url(#p1294e02bf0)" style="fill: none; stroke-dasharray: 0.8,1.32; stroke-dashoffset: 0; stroke: #b0b0b0; stroke-opacity: 0.3; stroke-width: 0.8"/>
     </g>
     <g id="line2d_8">
      <g>
       <use xlink:href="#m2da35332a0" x="340.281615" y="235.638437" style="stroke: #000000; stroke-width: 0.8"/>
      </g>
     </g>
     <g id="text_4">
      <!-- 1990 -->
      <g transform="translate(326.284115 250.996719) scale(0.11 -0.11)">
       <use xlink:href="#DejaVuSerif-31"/>
       <use xlink:href="#DejaVuSerif-39" transform="translate(63.623047 0)"/>
       <use xlink:href="#DejaVuSerif-39" transform="translate(127.246094 0)"/>
       <use xlink:href="#DejaVuSerif-30" transform="translate(190.869141 0)"/>
      </g>
     </g>
    </g>
    <g id="xtick_5">
     <g id="line2d_9">
      <path d="M 421.29151 235.638437 
L 421.29151 17.198437 
" clip-path="url(#p1294e02bf0)" style="fill: none; stroke-dasharray: 0.8,1.32; stroke-dashoffset: 0; stroke: #b0b0b0; stroke-opacity: 0.3; stroke-width: 0.8"/>
     </g>
     <g id="line2d_10">
      <g>
       <use xlink:href="#m2da35332a0" x="421.29151" y="235.638437" style="stroke: #000000; stroke-width: 0.8"/>
      </g>
     </g>
     <g id="text_5">
      <!-- 2000 -->
      <g transform="translate(407.29401 250.996719) scale(0.11 -0.11)">
       <defs>
        <path id="DejaVuSerif-32" d="M 819 3553 
L 469 3553 
L 469 4384 
Q 803 4563 1142 4656 
Q 1481 4750 1806 4750 
Q 2534 4750 2956 4397 
Q 3378 4044 3378 3438 
Q 3378 2753 2422 1800 
Q 2347 1728 2309 1691 
L 1131 513 
L 3078 513 
L 3078 1088 
L 3444 1088 
L 3444 0 
L 434 0 
L 434 341 
L 1850 1753 
Q 2319 2222 2519 2614 
Q 2719 3006 2719 3438 
Q 2719 3909 2473 4175 
Q 2228 4441 1797 4441 
Q 1350 4441 1106 4219 
Q 863 3997 819 3553 
z
" transform="scale(0.015625)"/>
       </defs>
       <use xlink:href="#DejaVuSerif-32"/>
       <use xlink:href="#DejaVuSerif-30" transform="translate(63.623047 0)"/>
       <use xlink:href="#DejaVuSerif-30" transform="translate(127.246094 0)"/>
       <use xlink:href="#DejaVuSerif-30" transform="translate(190.869141 0)"/>
      </g>
     </g>
    </g>
    <g id="xtick_6">
     <g id="line2d_11">
      <path d="M 502.301406 235.638437 
L 502.301406 17.198437 
" clip-path="url(#p1294e02bf0)" style="fill: none; stroke-dasharray: 0.8,1.32; stroke-dashoffset: 0; stroke: #b0b0b0; stroke-opacity: 0.3; stroke-width: 0.8"/>
     </g>
     <g id="line2d_12">
      <g>
       <use xlink:href="#m2da35332a0" x="502.301406" y="235.638437" style="stroke: #000000; stroke-width: 0.8"/>
      </g>
     </g>
     <g id="text_6">
      <!-- 2010 -->
      <g transform="translate(488.303906 250.996719) scale(0.11 -0.11)">
       <use xlink:href="#DejaVuSerif-32"/>
       <use xlink:href="#DejaVuSerif-30" transform="translate(63.623047 0)"/>
       <use xlink:href="#DejaVuSerif-31" transform="translate(127.246094 0)"/>
       <use xlink:href="#DejaVuSerif-30" transform="translate(190.869141 0)"/>
      </g>
     </g>
    </g>
    <g id="xtick_7">
     <g id="line2d_13">
      <path d="M 583.311302 235.638437 
L 583.311302 17.198437 
" clip-path="url(#p1294e02bf0)" style="fill: none; stroke-dasharray: 0.8,1.32; stroke-dashoffset: 0; stroke: #b0b0b0; stroke-opacity: 0.3; stroke-width: 0.8"/>
     </g>
     <g id="line2d_14">
      <g>
       <use xlink:href="#m2da35332a0" x="583.311302" y="235.638437" style="stroke: #000000; stroke-width: 0.8"/>
      </g>
     </g>
     <g id="text_7">
      <!-- 2020 -->
      <g transform="translate(569.313802 250.996719) scale(0.11 -0.11)">
       <use xlink:href="#DejaVuSerif-32"/>
       <use xlink:href="#DejaVuSerif-30" transform="translate(63.623047 0)"/>
       <use xlink:href="#DejaVuSerif-32" transform="translate(127.246094 0)"/>
       <use xlink:href="#DejaVuSerif-30" transform="translate(190.869141 0)"/>
      </g>
     </g>
    </g>
    <g id="text_8">
     <!-- year -->
     <g transform="translate(318.794063 266.231875) scale(0.12 -0.12)">
      <defs>
       <path id="DejaVuSerif-79" d="M 1381 -609 
L 1600 -56 
L 359 2988 
L -19 2988 
L -19 3322 
L 1509 3322 
L 1509 2988 
L 978 2988 
L 1913 703 
L 2847 2988 
L 2350 2988 
L 2350 3322 
L 3597 3322 
L 3597 2988 
L 3225 2988 
L 1703 -750 
Q 1547 -1138 1356 -1280 
Q 1166 -1422 819 -1422 
Q 672 -1422 517 -1397 
Q 363 -1372 206 -1325 
L 206 -691 
L 500 -691 
Q 519 -903 608 -995 
Q 697 -1088 884 -1088 
Q 1056 -1088 1161 -992 
Q 1266 -897 1381 -609 
z
" transform="scale(0.015625)"/>
       <path id="DejaVuSerif-65" d="M 3469 1600 
L 991 1600 
L 991 1575 
Q 991 903 1244 561 
Q 1497 219 1991 219 
Q 2369 219 2611 417 
Q 2853 616 2950 1006 
L 3413 1006 
Q 3275 459 2904 184 
Q 2534 -91 1931 -91 
Q 1203 -91 761 389 
Q 319 869 319 1663 
Q 319 2450 753 2931 
Q 1188 3413 1894 3413 
Q 2647 3413 3050 2948 
Q 3453 2484 3469 1600 
z
M 2791 1931 
Q 2772 2513 2545 2808 
Q 2319 3103 1894 3103 
Q 1497 3103 1269 2806 
Q 1041 2509 991 1931 
L 2791 1931 
z
" transform="scale(0.015625)"/>
       <path id="DejaVuSerif-61" d="M 2547 1044 
L 2547 1747 
L 1806 1747 
Q 1378 1747 1168 1562 
Q 959 1378 959 997 
Q 959 650 1171 447 
Q 1384 244 1747 244 
Q 2106 244 2326 466 
Q 2547 688 2547 1044 
z
M 3122 2075 
L 3122 331 
L 3634 331 
L 3634 0 
L 2547 0 
L 2547 359 
Q 2356 128 2106 18 
Q 1856 -91 1522 -91 
Q 969 -91 644 203 
Q 319 497 319 997 
Q 319 1513 691 1797 
Q 1063 2081 1741 2081 
L 2547 2081 
L 2547 2309 
Q 2547 2688 2317 2895 
Q 2088 3103 1672 3103 
Q 1328 3103 1125 2947 
Q 922 2791 872 2484 
L 575 2484 
L 575 3156 
Q 875 3284 1158 3348 
Q 1441 3413 1709 3413 
Q 2400 3413 2761 3070 
Q 3122 2728 3122 2075 
z
" transform="scale(0.015625)"/>
       <path id="DejaVuSerif-72" d="M 3059 3328 
L 3059 2497 
L 2728 2497 
Q 2713 2744 2591 2866 
Q 2469 2988 2234 2988 
Q 1809 2988 1582 2694 
Q 1356 2400 1356 1850 
L 1356 331 
L 2022 331 
L 2022 0 
L 263 0 
L 263 331 
L 781 331 
L 781 2994 
L 231 2994 
L 231 3322 
L 1356 3322 
L 1356 2731 
Q 1525 3078 1790 3245 
Q 2056 3413 2438 3413 
Q 2578 3413 2733 3391 
Q 2888 3369 3059 3328 
z
" transform="scale(0.015625)"/>
      </defs>
      <use xlink:href="#DejaVuSerif-79"/>
      <use xlink:href="#DejaVuSerif-65" transform="translate(56.494141 0)"/>
      <use xlink:href="#DejaVuSerif-61" transform="translate(115.673828 0)"/>
      <use xlink:href="#DejaVuSerif-72" transform="translate(175.292969 0)"/>
     </g>
    </g>
   </g>
   <g id="matplotlib.axis_2">
    <g id="ytick_1">
     <g id="line2d_15">
      <path d="M 40.545 221.075771 
L 623.81625 221.075771 
" clip-path="url(#p1294e02bf0)" style="fill: none; stroke-dasharray: 0.8,1.32; stroke-dashoffset: 0; stroke: #b0b0b0; stroke-opacity: 0.3; stroke-width: 0.8"/>
     </g>
     <g id="line2d_16">
      <defs>
       <path id="m8836acd1ce" d="M 0 0 
L -3.5 0 
" style="stroke: #000000; stroke-width: 0.8"/>
      </defs>
      <g>
       <use xlink:href="#m8836acd1ce" x="40.545" y="221.075771" style="stroke: #000000; stroke-width: 0.8"/>
      </g>
     </g>
     <g id="text_9">
      <!-- 0 -->
      <g transform="translate(26.54625 225.254911) scale(0.11 -0.11)">
       <use xlink:href="#DejaVuSerif-30"/>
      </g>
     </g>
    </g>
    <g id="ytick_2">
     <g id="line2d_17">
      <path d="M 40.545 191.950437 
L 623.81625 191.950437 
" clip-path="url(#p1294e02bf0)" style="fill: none; stroke-dasharray: 0.8,1.32; stroke-dashoffset: 0; stroke: #b0b0b0; stroke-opacity: 0.3; stroke-width: 0.8"/>
     </g>
     <g id="line2d_18">
      <g>
       <use xlink:href="#m8836acd1ce" x="40.545" y="191.950437" style="stroke: #000000; stroke-width: 0.8"/>
      </g>
     </g>
     <g id="text_10">
      <!-- 2 -->
      <g transform="translate(26.54625 196.129578) scale(0.11 -0.11)">
       <use xlink:href="#DejaVuSerif-32"/>
      </g>
     </g>
    </g>
    <g id="ytick_3">
     <g id="line2d_19">
      <path d="M 40.545 162.825104 
L 623.81625 162.825104 
" clip-path="url(#p1294e02bf0)" style="fill: none; stroke-dasharray: 0.8,1.32; stroke-dashoffset: 0; stroke: #b0b0b0; stroke-opacity: 0.3; stroke-width: 0.8"/>
     </g>
     <g id="line2d_20">
      <g>
       <use xlink:href="#m8836acd1ce" x="40.545" y="162.825104" style="stroke: #000000; stroke-width: 0.8"/>
      </g>
     </g>
     <g id="text_11">
      <!-- 4 -->
      <g transform="translate(26.54625 167.004245) scale(0.11 -0.11)">
       <defs>
        <path id="DejaVuSerif-34" d="M 2234 1581 
L 2234 4063 
L 641 1581 
L 2234 1581 
z
M 3609 0 
L 1484 0 
L 1484 331 
L 2234 331 
L 2234 1247 
L 197 1247 
L 197 1588 
L 2241 4750 
L 2859 4750 
L 2859 1581 
L 3750 1581 
L 3750 1247 
L 2859 1247 
L 2859 331 
L 3609 331 
L 3609 0 
z
" transform="scale(0.015625)"/>
       </defs>
       <use xlink:href="#DejaVuSerif-34"/>
      </g>
     </g>
    </g>
    <g id="ytick_4">
     <g id="line2d_21">
      <path d="M 40.545 133.699771 
L 623.81625 133.699771 
" clip-path="url(#p1294e02bf0)" style="fill: none; stroke-dasharray: 0.8,1.32; stroke-dashoffset: 0; stroke: #b0b0b0; stroke-opacity: 0.3; stroke-width: 0.8"/>
     </g>
     <g id="line2d_22">
      <g>
       <use xlink:href="#m8836acd1ce" x="40.545" y="133.699771" style="stroke: #000000; stroke-width: 0.8"/>
      </g>
     </g>
     <g id="text_12">
      <!-- 6 -->
      <g transform="translate(26.54625 137.878911) scale(0.11 -0.11)">
       <use xlink:href="#DejaVuSerif-36"/>
      </g>
     </g>
    </g>
    <g id="ytick_5">
     <g id="line2d_23">
      <path d="M 40.545 104.574437 
L 623.81625 104.574437 
" clip-path="url(#p1294e02bf0)" style="fill: none; stroke-dasharray: 0.8,1.32; stroke-dashoffset: 0; stroke: #b0b0b0; stroke-opacity: 0.3; stroke-width: 0.8"/>
     </g>
     <g id="line2d_24">
      <g>
       <use xlink:href="#m8836acd1ce" x="40.545" y="104.574437" style="stroke: #000000; stroke-width: 0.8"/>
      </g>
     </g>
     <g id="text_13">
      <!-- 8 -->
      <g transform="translate(26.54625 108.753578) scale(0.11 -0.11)">
       <use xlink:href="#DejaVuSerif-38"/>
      </g>
     </g>
    </g>
    <g id="ytick_6">
     <g id="line2d_25">
      <path d="M 40.545 75.449104 
L 623.81625 75.449104 
" clip-path="url(#p1294e02bf0)" style="fill: none; stroke-dasharray: 0.8,1.32; stroke-dashoffset: 0; stroke: #b0b0b0; stroke-opacity: 0.3; stroke-width: 0.8"/>
     </g>
     <g id="line2d_26">
      <g>
       <use xlink:href="#m8836acd1ce" x="40.545" y="75.449104" style="stroke: #000000; stroke-width: 0.8"/>
      </g>
     </g>
     <g id="text_14">
      <!-- 10 -->
      <g transform="translate(19.5475 79.628245) scale(0.11 -0.11)">
       <use xlink:href="#DejaVuSerif-31"/>
       <use xlink:href="#DejaVuSerif-30" transform="translate(63.623047 0)"/>
      </g>
     </g>
    </g>
    <g id="ytick_7">
     <g id="line2d_27">
      <path d="M 40.545 46.323771 
L 623.81625 46.323771 
" clip-path="url(#p1294e02bf0)" style="fill: none; stroke-dasharray: 0.8,1.32; stroke-dashoffset: 0; stroke: #b0b0b0; stroke-opacity: 0.3; stroke-width: 0.8"/>
     </g>
     <g id="line2d_28">
      <g>
       <use xlink:href="#m8836acd1ce" x="40.545" y="46.323771" style="stroke: #000000; stroke-width: 0.8"/>
      </g>
     </g>
     <g id="text_15">
      <!-- 12 -->
      <g transform="translate(19.5475 50.502911) scale(0.11 -0.11)">
       <use xlink:href="#DejaVuSerif-31"/>
       <use xlink:href="#DejaVuSerif-32" transform="translate(63.623047 0)"/>
      </g>
     </g>
    </g>
    <g id="ytick_8">
     <g id="line2d_29">
      <path d="M 40.545 17.198437 
L 623.81625 17.198437 
" clip-path="url(#p1294e02bf0)" style="fill: none; stroke-dasharray: 0.8,1.32; stroke-dashoffset: 0; stroke: #b0b0b0; stroke-opacity: 0.3; stroke-width: 0.8"/>
     </g>
     <g id="line2d_30">
      <g>
       <use xlink:href="#m8836acd1ce" x="40.545" y="17.198437" style="stroke: #000000; stroke-width: 0.8"/>
      </g>
     </g>
     <g id="text_16">
      <!-- 14 -->
      <g transform="translate(19.5475 21.377578) scale(0.11 -0.11)">
       <use xlink:href="#DejaVuSerif-31"/>
       <use xlink:href="#DejaVuSerif-34" transform="translate(63.623047 0)"/>
      </g>
     </g>
    </g>
    <g id="text_17">
     <!-- relative W_2^2 error on Gaussians (%) -->
     <g transform="translate(12.718125 245.428437) rotate(-90) scale(0.12 -0.12)">
      <defs>
       <path id="DejaVuSerif-6c" d="M 1313 331 
L 1856 331 
L 1856 0 
L 184 0 
L 184 331 
L 738 331 
L 738 4531 
L 184 4531 
L 184 4863 
L 1313 4863 
L 1313 331 
z
" transform="scale(0.015625)"/>
       <path id="DejaVuSerif-74" d="M 691 2988 
L 184 2988 
L 184 3322 
L 691 3322 
L 691 4353 
L 1269 4353 
L 1269 3322 
L 2350 3322 
L 2350 2988 
L 1269 2988 
L 1269 878 
Q 1269 456 1350 337 
Q 1431 219 1650 219 
Q 1875 219 1978 351 
Q 2081 484 2088 781 
L 2522 781 
Q 2497 328 2275 118 
Q 2053 -91 1600 -91 
Q 1103 -91 897 129 
Q 691 350 691 878 
L 691 2988 
z
" transform="scale(0.015625)"/>
       <path id="DejaVuSerif-69" d="M 622 4353 
Q 622 4497 726 4603 
Q 831 4709 978 4709 
Q 1122 4709 1226 4603 
Q 1331 4497 1331 4353 
Q 1331 4206 1228 4103 
Q 1125 4000 978 4000 
Q 831 4000 726 4103 
Q 622 4206 622 4353 
z
M 1356 331 
L 1900 331 
L 1900 0 
L 231 0 
L 231 331 
L 781 331 
L 781 2988 
L 231 2988 
L 231 3322 
L 1356 3322 
L 1356 331 
z
" transform="scale(0.015625)"/>
       <path id="DejaVuSerif-76" d="M 1581 0 
L 359 2988 
L -19 2988 
L -19 3322 
L 1509 3322 
L 1509 2988 
L 978 2988 
L 1913 703 
L 2847 2988 
L 2350 2988 
L 2350 3322 
L 3597 3322 
L 3597 2988 
L 3225 2988 
L 2003 0 
L 1581 0 
z
" transform="scale(0.015625)"/>
       <path id="DejaVuSerif-20" transform="scale(0.015625)"/>
       <path id="DejaVuSerif-57" d="M 4878 0 
L 4366 0 
L 3297 3794 
L 2228 0 
L 1716 0 
L 494 4331 
L 31 4331 
L 31 4666 
L 1734 4666 
L 1734 4331 
L 1153 4331 
L 2125 884 
L 3188 4666 
L 3694 4666 
L 4775 844 
L 5753 4331 
L 5216 4331 
L 5216 4666 
L 6559 4666 
L 6559 4331 
L 6100 4331 
L 4878 0 
z
" transform="scale(0.015625)"/>
       <path id="DejaVuSerif-5f" d="M 3200 -1259 
L 3200 -1509 
L 0 -1509 
L 0 -1259 
L 3200 -1259 
z
" transform="scale(0.015625)"/>
       <path id="DejaVuSerif-5e" d="M 2988 4666 
L 4684 2925 
L 4206 2925 
L 2681 4116 
L 1159 2925 
L 678 2925 
L 2375 4666 
L 2988 4666 
z
" transform="scale(0.015625)"/>
       <path id="DejaVuSerif-6f" d="M 1925 219 
Q 2388 219 2623 584 
Q 2859 950 2859 1663 
Q 2859 2375 2623 2739 
Q 2388 3103 1925 3103 
Q 1463 3103 1227 2739 
Q 991 2375 991 1663 
Q 991 950 1228 584 
Q 1466 219 1925 219 
z
M 1925 -91 
Q 1200 -91 759 389 
Q 319 869 319 1663 
Q 319 2456 758 2934 
Q 1197 3413 1925 3413 
Q 2653 3413 3092 2934 
Q 3531 2456 3531 1663 
Q 3531 869 3092 389 
Q 2653 -91 1925 -91 
z
" transform="scale(0.015625)"/>
       <path id="DejaVuSerif-6e" d="M 263 0 
L 263 331 
L 781 331 
L 781 2988 
L 231 2988 
L 231 3322 
L 1356 3322 
L 1356 2731 
Q 1516 3069 1770 3241 
Q 2025 3413 2363 3413 
Q 2913 3413 3172 3097 
Q 3431 2781 3431 2113 
L 3431 331 
L 3944 331 
L 3944 0 
L 2356 0 
L 2356 331 
L 2853 331 
L 2853 1931 
Q 2853 2541 2703 2767 
Q 2553 2994 2175 2994 
Q 1775 2994 1565 2701 
Q 1356 2409 1356 1850 
L 1356 331 
L 1856 331 
L 1856 0 
L 263 0 
z
" transform="scale(0.015625)"/>
       <path id="DejaVuSerif-47" d="M 4097 3272 
Q 3988 3856 3641 4136 
Q 3294 4416 2675 4416 
Q 1869 4416 1472 3897 
Q 1075 3378 1075 2328 
Q 1075 1300 1484 772 
Q 1894 244 2688 244 
Q 3041 244 3362 331 
Q 3684 419 3975 594 
L 3975 1797 
L 3097 1797 
L 3097 2131 
L 4609 2131 
L 4609 391 
Q 4194 150 3714 29 
Q 3234 -91 2688 -91 
Q 1631 -91 995 570 
Q 359 1231 359 2328 
Q 359 3434 996 4092 
Q 1634 4750 2713 4750 
Q 3113 4750 3539 4658 
Q 3966 4566 4447 4378 
L 4447 3272 
L 4097 3272 
z
" transform="scale(0.015625)"/>
       <path id="DejaVuSerif-75" d="M 2266 3322 
L 3341 3322 
L 3341 331 
L 3884 331 
L 3884 0 
L 2766 0 
L 2766 588 
Q 2606 256 2353 82 
Q 2100 -91 1766 -91 
Q 1213 -91 952 223 
Q 691 538 691 1209 
L 691 2988 
L 172 2988 
L 172 3322 
L 1269 3322 
L 1269 1388 
Q 1269 781 1417 556 
Q 1566 331 1947 331 
Q 2347 331 2556 625 
Q 2766 919 2766 1478 
L 2766 2988 
L 2266 2988 
L 2266 3322 
z
" transform="scale(0.015625)"/>
       <path id="DejaVuSerif-73" d="M 359 184 
L 359 959 
L 691 959 
Q 703 588 923 403 
Q 1144 219 1575 219 
Q 1963 219 2166 364 
Q 2369 509 2369 788 
Q 2369 1006 2220 1140 
Q 2072 1275 1594 1428 
L 1178 1569 
Q 750 1706 558 1912 
Q 366 2119 366 2438 
Q 366 2894 700 3153 
Q 1034 3413 1625 3413 
Q 1888 3413 2178 3344 
Q 2469 3275 2778 3144 
L 2778 2419 
L 2447 2419 
Q 2434 2741 2221 2922 
Q 2009 3103 1644 3103 
Q 1281 3103 1095 2975 
Q 909 2847 909 2591 
Q 909 2381 1050 2254 
Q 1191 2128 1613 1997 
L 2069 1856 
Q 2541 1709 2748 1489 
Q 2956 1269 2956 922 
Q 2956 450 2595 179 
Q 2234 -91 1600 -91 
Q 1278 -91 972 -22 
Q 666 47 359 184 
z
" transform="scale(0.015625)"/>
       <path id="DejaVuSerif-28" d="M 2041 -997 
Q 1281 -656 893 83 
Q 506 822 506 1931 
Q 506 3044 893 3783 
Q 1281 4522 2041 4863 
L 2041 4556 
Q 1559 4225 1350 3623 
Q 1141 3022 1141 1931 
Q 1141 844 1350 242 
Q 1559 -359 2041 -691 
L 2041 -997 
z
" transform="scale(0.015625)"/>
       <path id="DejaVuSerif-25" d="M 1434 4459 
Q 1159 4459 1004 4200 
Q 850 3941 850 3475 
Q 850 3016 1008 2753 
Q 1166 2491 1434 2491 
Q 1700 2491 1854 2752 
Q 2009 3013 2009 3475 
Q 2009 3938 1854 4198 
Q 1700 4459 1434 4459 
z
M 4653 2169 
Q 4381 2169 4226 1906 
Q 4072 1644 4072 1178 
Q 4072 719 4228 458 
Q 4384 197 4653 197 
Q 4922 197 5075 458 
Q 5228 719 5228 1178 
Q 5228 1641 5073 1905 
Q 4919 2169 4653 2169 
z
M 4653 2450 
Q 5147 2450 5437 2106 
Q 5728 1763 5728 1178 
Q 5728 594 5436 251 
Q 5144 -91 4653 -91 
Q 4153 -91 3862 251 
Q 3572 594 3572 1178 
Q 3572 1766 3864 2108 
Q 4156 2450 4653 2450 
z
M 4263 4750 
L 4738 4750 
L 1819 -91 
L 1344 -91 
L 4263 4750 
z
M 1428 4750 
Q 1922 4750 2215 4408 
Q 2509 4066 2509 3481 
Q 2509 2891 2217 2550 
Q 1925 2209 1428 2209 
Q 931 2209 642 2551 
Q 353 2894 353 3481 
Q 353 4063 643 4406 
Q 934 4750 1428 4750 
z
" transform="scale(0.015625)"/>
       <path id="DejaVuSerif-29" d="M 453 -997 
L 453 -691 
Q 934 -359 1145 242 
Q 1356 844 1356 1931 
Q 1356 3022 1145 3623 
Q 934 4225 453 4556 
L 453 4863 
Q 1216 4522 1603 3783 
Q 1991 3044 1991 1931 
Q 1991 822 1603 83 
Q 1216 -656 453 -997 
z
" transform="scale(0.015625)"/>
      </defs>
      <use xlink:href="#DejaVuSerif-72"/>
      <use xlink:href="#DejaVuSerif-65" transform="translate(47.802734 0)"/>
      <use xlink:href="#DejaVuSerif-6c" transform="translate(106.982422 0)"/>
      <use xlink:href="#DejaVuSerif-61" transform="translate(138.964844 0)"/>
      <use xlink:href="#DejaVuSerif-74" transform="translate(198.583984 0)"/>
      <use xlink:href="#DejaVuSerif-69" transform="translate(238.769531 0)"/>
      <use xlink:href="#DejaVuSerif-76" transform="translate(270.751953 0)"/>
      <use xlink:href="#DejaVuSerif-65" transform="translate(327.246094 0)"/>
      <use xlink:href="#DejaVuSerif-20" transform="translate(386.425781 0)"/>
      <use xlink:href="#DejaVuSerif-57" transform="translate(418.212891 0)"/>
      <use xlink:href="#DejaVuSerif-5f" transform="translate(520.996094 0)"/>
      <use xlink:href="#DejaVuSerif-32" transform="translate(570.996094 0)"/>
      <use xlink:href="#DejaVuSerif-5e" transform="translate(634.619141 0)"/>
      <use xlink:href="#DejaVuSerif-32" transform="translate(718.408203 0)"/>
      <use xlink:href="#DejaVuSerif-20" transform="translate(782.03125 0)"/>
      <use xlink:href="#DejaVuSerif-65" transform="translate(813.818359 0)"/>
      <use xlink:href="#DejaVuSerif-72" transform="translate(872.998047 0)"/>
      <use xlink:href="#DejaVuSerif-72" transform="translate(920.800781 0)"/>
      <use xlink:href="#DejaVuSerif-6f" transform="translate(968.603516 0)"/>
      <use xlink:href="#DejaVuSerif-72" transform="translate(1028.808594 0)"/>
      <use xlink:href="#DejaVuSerif-20" transform="translate(1076.611328 0)"/>
      <use xlink:href="#DejaVuSerif-6f" transform="translate(1108.398438 0)"/>
      <use xlink:href="#DejaVuSerif-6e" transform="translate(1168.603516 0)"/>
      <use xlink:href="#DejaVuSerif-20" transform="translate(1233.007812 0)"/>
      <use xlink:href="#DejaVuSerif-47" transform="translate(1264.794922 0)"/>
      <use xlink:href="#DejaVuSerif-61" transform="translate(1344.677734 0)"/>
      <use xlink:href="#DejaVuSerif-75" transform="translate(1404.296875 0)"/>
      <use xlink:href="#DejaVuSerif-73" transform="translate(1468.701172 0)"/>
      <use xlink:href="#DejaVuSerif-73" transform="translate(1520.019531 0)"/>
      <use xlink:href="#DejaVuSerif-69" transform="translate(1571.337891 0)"/>
      <use xlink:href="#DejaVuSerif-61" transform="translate(1603.320312 0)"/>
      <use xlink:href="#DejaVuSerif-6e" transform="translate(1662.939453 0)"/>
      <use xlink:href="#DejaVuSerif-73" transform="translate(1727.34375 0)"/>
      <use xlink:href="#DejaVuSerif-20" transform="translate(1778.662109 0)"/>
      <use xlink:href="#DejaVuSerif-28" transform="translate(1810.449219 0)"/>
      <use xlink:href="#DejaVuSerif-25" transform="translate(1849.462891 0)"/>
      <use xlink:href="#DejaVuSerif-29" transform="translate(1944.482422 0)"/>
     </g>
    </g>
   </g>
   <g id="line2d_31">
    <path d="M 40.545 221.075771 
L 623.81625 221.075771 
" clip-path="url(#p1294e02bf0)" style="fill: none; stroke-dasharray: 0.8,1.32; stroke-dashoffset: 0; stroke: #000000; stroke-opacity: 0.6; stroke-width: 0.8"/>
   </g>
   <g id="patch_3">
    <path d="M 40.545 235.638437 
L 40.545 17.198437 
" style="fill: none; stroke: #000000; stroke-width: 0.8; stroke-linejoin: miter; stroke-linecap: square"/>
   </g>
   <g id="patch_4">
    <path d="M 40.545 235.638437 
L 623.81625 235.638437 
" style="fill: none; stroke: #000000; stroke-width: 0.8; stroke-linejoin: miter; stroke-linecap: square"/>
   </g>
   <g id="text_18">
    <!-- exact-LP ground truth -->
    <g transform="translate(525.77401 214.929471) scale(0.08 -0.08)">
     <defs>
      <path id="DejaVuSerif-78" d="M 1863 2028 
L 2559 2988 
L 2113 2988 
L 2113 3322 
L 3391 3322 
L 3391 2988 
L 2950 2988 
L 2059 1759 
L 3097 331 
L 3531 331 
L 3531 0 
L 1997 0 
L 1997 331 
L 2419 331 
L 1697 1325 
L 972 331 
L 1403 331 
L 1403 0 
L 141 0 
L 141 331 
L 581 331 
L 1497 1594 
L 488 2988 
L 78 2988 
L 78 3322 
L 1563 3322 
L 1563 2988 
L 1166 2988 
L 1863 2028 
z
" transform="scale(0.015625)"/>
      <path id="DejaVuSerif-63" d="M 3291 997 
Q 3169 466 2822 187 
Q 2475 -91 1925 -91 
Q 1200 -91 759 389 
Q 319 869 319 1663 
Q 319 2459 759 2936 
Q 1200 3413 1925 3413 
Q 2241 3413 2553 3339 
Q 2866 3266 3181 3116 
L 3181 2266 
L 2847 2266 
Q 2781 2703 2561 2903 
Q 2341 3103 1931 3103 
Q 1466 3103 1228 2742 
Q 991 2381 991 1663 
Q 991 944 1227 581 
Q 1463 219 1931 219 
Q 2303 219 2525 412 
Q 2747 606 2828 997 
L 3291 997 
z
" transform="scale(0.015625)"/>
      <path id="DejaVuSerif-2d" d="M 281 1959 
L 1881 1959 
L 1881 1472 
L 281 1472 
L 281 1959 
z
" transform="scale(0.015625)"/>
      <path id="DejaVuSerif-4c" d="M 353 0 
L 353 331 
L 947 331 
L 947 4331 
L 353 4331 
L 353 4666 
L 2175 4666 
L 2175 4331 
L 1581 4331 
L 1581 384 
L 3713 384 
L 3713 1166 
L 4097 1166 
L 4097 0 
L 353 0 
z
" transform="scale(0.015625)"/>
      <path id="DejaVuSerif-50" d="M 1581 2375 
L 2406 2375 
Q 2872 2375 3115 2626 
Q 3359 2878 3359 3353 
Q 3359 3831 3115 4081 
Q 2872 4331 2406 4331 
L 1581 4331 
L 1581 2375 
z
M 353 0 
L 353 331 
L 947 331 
L 947 4331 
L 353 4331 
L 353 4666 
L 2559 4666 
Q 3259 4666 3668 4311 
Q 4078 3956 4078 3353 
Q 4078 2753 3668 2397 
Q 3259 2041 2559 2041 
L 1581 2041 
L 1581 331 
L 2303 331 
L 2303 0 
L 353 0 
z
" transform="scale(0.015625)"/>
      <path id="DejaVuSerif-67" d="M 3359 2988 
L 3359 72 
Q 3359 -644 2965 -1033 
Q 2572 -1422 1844 -1422 
Q 1516 -1422 1216 -1362 
Q 916 -1303 641 -1184 
L 641 -488 
L 941 -488 
Q 997 -813 1206 -963 
Q 1416 -1113 1806 -1113 
Q 2313 -1113 2548 -827 
Q 2784 -541 2784 72 
L 2784 519 
Q 2616 206 2355 57 
Q 2094 -91 1709 -91 
Q 1097 -91 708 395 
Q 319 881 319 1663 
Q 319 2444 706 2928 
Q 1094 3413 1709 3413 
Q 2094 3413 2355 3264 
Q 2616 3116 2784 2803 
L 2784 3322 
L 3909 3322 
L 3909 2988 
L 3359 2988 
z
M 2784 1825 
Q 2784 2422 2554 2737 
Q 2325 3053 1888 3053 
Q 1444 3053 1217 2703 
Q 991 2353 991 1663 
Q 991 975 1217 622 
Q 1444 269 1888 269 
Q 2325 269 2554 583 
Q 2784 897 2784 1497 
L 2784 1825 
z
" transform="scale(0.015625)"/>
      <path id="DejaVuSerif-64" d="M 3359 331 
L 3909 331 
L 3909 0 
L 2784 0 
L 2784 519 
Q 2616 206 2355 57 
Q 2094 -91 1709 -91 
Q 1097 -91 708 395 
Q 319 881 319 1663 
Q 319 2444 706 2928 
Q 1094 3413 1709 3413 
Q 2094 3413 2355 3264 
Q 2616 3116 2784 2803 
L 2784 4531 
L 2241 4531 
L 2241 4863 
L 3359 4863 
L 3359 331 
z
M 2784 1497 
L 2784 1825 
Q 2784 2422 2554 2737 
Q 2325 3053 1888 3053 
Q 1444 3053 1217 2703 
Q 991 2353 991 1663 
Q 991 975 1217 622 
Q 1444 269 1888 269 
Q 2325 269 2554 583 
Q 2784 897 2784 1497 
z
" transform="scale(0.015625)"/>
      <path id="DejaVuSerif-68" d="M 263 0 
L 263 331 
L 781 331 
L 781 4531 
L 231 4531 
L 231 4863 
L 1356 4863 
L 1356 2731 
Q 1516 3069 1770 3241 
Q 2025 3413 2363 3413 
Q 2913 3413 3172 3097 
Q 3431 2781 3431 2113 
L 3431 331 
L 3944 331 
L 3944 0 
L 2356 0 
L 2356 331 
L 2853 331 
L 2853 1931 
Q 2853 2541 2704 2764 
Q 2556 2988 2175 2988 
Q 1775 2988 1565 2697 
Q 1356 2406 1356 1850 
L 1356 331 
L 1856 331 
L 1856 0 
L 263 0 
z
" transform="scale(0.015625)"/>
     </defs>
     <use xlink:href="#DejaVuSerif-65"/>
     <use xlink:href="#DejaVuSerif-78" transform="translate(59.179688 0)"/>
     <use xlink:href="#DejaVuSerif-61" transform="translate(115.576172 0)"/>
     <use xlink:href="#DejaVuSerif-63" transform="translate(175.195312 0)"/>
     <use xlink:href="#DejaVuSerif-74" transform="translate(231.201172 0)"/>
     <use xlink:href="#DejaVuSerif-2d" transform="translate(271.386719 0)"/>
     <use xlink:href="#DejaVuSerif-4c" transform="translate(305.175781 0)"/>
     <use xlink:href="#DejaVuSerif-50" transform="translate(371.582031 0)"/>
     <use xlink:href="#DejaVuSerif-20" transform="translate(438.867188 0)"/>
     <use xlink:href="#DejaVuSerif-67" transform="translate(470.654297 0)"/>
     <use xlink:href="#DejaVuSerif-72" transform="translate(534.667969 0)"/>
     <use xlink:href="#DejaVuSerif-6f" transform="translate(582.470703 0)"/>
     <use xlink:href="#DejaVuSerif-75" transform="translate(642.675781 0)"/>
     <use xlink:href="#DejaVuSerif-6e" transform="translate(707.080078 0)"/>
     <use xlink:href="#DejaVuSerif-64" transform="translate(771.484375 0)"/>
     <use xlink:href="#DejaVuSerif-20" transform="translate(835.498047 0)"/>
     <use xlink:href="#DejaVuSerif-74" transform="translate(867.285156 0)"/>
     <use xlink:href="#DejaVuSerif-72" transform="translate(907.470703 0)"/>
     <use xlink:href="#DejaVuSerif-75" transform="translate(955.273438 0)"/>
     <use xlink:href="#DejaVuSerif-74" transform="translate(1019.677734 0)"/>
     <use xlink:href="#DejaVuSerif-68" transform="translate(1059.863281 0)"/>
    </g>
   </g>
   <g id="PathCollection_1">
    <defs>
     <path id="m34cc8efa10" d="M -2.09165 4.1833 
L 0 2.09165 
L 2.09165 4.1833 
L 4.1833 2.09165 
L 2.09165 0 
L 4.1833 -2.09165 
L 2.09165 -4.1833 
L 0 -2.09165 
L -2.09165 -4.1833 
L -4.1833 -2.09165 
L -2.09165 0 
L -4.1833 2.09165 
z
" style="stroke: #000000; stroke-width: 0.4"/>
    </defs>
    <g clip-path="url(#p1294e02bf0)">
     <use xlink:href="#m34cc8efa10" x="56.349873" y="221.075771" style="fill: #7f7f7f; stroke: #000000; stroke-width: 0.4"/>
    </g>
   </g>
   <g id="text_19">
    <!-- Hungarian -->
    <g transform="translate(57.557078 215.250704) scale(0.075 -0.075)">
     <defs>
      <path id="DejaVuSerif-48" d="M 353 0 
L 353 331 
L 947 331 
L 947 4331 
L 353 4331 
L 353 4666 
L 2175 4666 
L 2175 4331 
L 1581 4331 
L 1581 2719 
L 4000 2719 
L 4000 4331 
L 3406 4331 
L 3406 4666 
L 5228 4666 
L 5228 4331 
L 4634 4331 
L 4634 331 
L 5228 331 
L 5228 0 
L 3406 0 
L 3406 331 
L 4000 331 
L 4000 2338 
L 1581 2338 
L 1581 331 
L 2175 331 
L 2175 0 
L 353 0 
z
" transform="scale(0.015625)"/>
     </defs>
     <use xlink:href="#DejaVuSerif-48"/>
     <use xlink:href="#DejaVuSerif-75" transform="translate(87.207031 0)"/>
     <use xlink:href="#DejaVuSerif-6e" transform="translate(151.611328 0)"/>
     <use xlink:href="#DejaVuSerif-67" transform="translate(216.015625 0)"/>
     <use xlink:href="#DejaVuSerif-61" transform="translate(280.029297 0)"/>
     <use xlink:href="#DejaVuSerif-72" transform="translate(339.648438 0)"/>
     <use xlink:href="#DejaVuSerif-69" transform="translate(387.451172 0)"/>
     <use xlink:href="#DejaVuSerif-61" transform="translate(419.433594 0)"/>
     <use xlink:href="#DejaVuSerif-6e" transform="translate(479.052734 0)"/>
    </g>
   </g>
   <g id="PathCollection_2">
    <defs>
     <path id="m2ae69a60a0" d="M 0 -4.1833 
L -0.939209 -1.292711 
L -3.978555 -1.292711 
L -1.519673 0.493772 
L -2.458882 3.384361 
L -0 1.597878 
L 2.458882 3.384361 
L 1.519673 0.493772 
L 3.978555 -1.292711 
L 0.939209 -1.292711 
z
" style="stroke: #000000; stroke-width: 0.4"/>
    </defs>
    <g clip-path="url(#p1294e02bf0)">
     <use xlink:href="#m2ae69a60a0" x="348.418668" y="221.075771" style="fill: #bcbd22; stroke: #000000; stroke-width: 0.4"/>
    </g>
   </g>
   <g id="text_20">
    <!-- Brenier -->
    <g transform="translate(349.192703 215.250704) scale(0.075 -0.075)">
     <defs>
      <path id="DejaVuSerif-42" d="M 1581 331 
L 2516 331 
Q 3078 331 3337 575 
Q 3597 819 3597 1350 
Q 3597 1878 3339 2120 
Q 3081 2363 2516 2363 
L 1581 2363 
L 1581 331 
z
M 1581 2694 
L 2375 2694 
Q 2888 2694 3123 2891 
Q 3359 3088 3359 3513 
Q 3359 3941 3123 4136 
Q 2888 4331 2375 4331 
L 1581 4331 
L 1581 2694 
z
M 353 0 
L 353 331 
L 947 331 
L 947 4331 
L 353 4331 
L 353 4666 
L 2656 4666 
Q 3363 4666 3720 4377 
Q 4078 4088 4078 3513 
Q 4078 3097 3829 2850 
Q 3581 2603 3103 2547 
Q 3697 2472 4005 2167 
Q 4313 1863 4313 1350 
Q 4313 656 3875 328 
Q 3438 0 2509 0 
L 353 0 
z
" transform="scale(0.015625)"/>
     </defs>
     <use xlink:href="#DejaVuSerif-42"/>
     <use xlink:href="#DejaVuSerif-72" transform="translate(73.486328 0)"/>
     <use xlink:href="#DejaVuSerif-65" transform="translate(121.289062 0)"/>
     <use xlink:href="#DejaVuSerif-6e" transform="translate(180.46875 0)"/>
     <use xlink:href="#DejaVuSerif-69" transform="translate(244.873047 0)"/>
     <use xlink:href="#DejaVuSerif-65" transform="translate(276.855469 0)"/>
     <use xlink:href="#DejaVuSerif-72" transform="translate(336.035156 0)"/>
    </g>
   </g>
   <g id="PathCollection_3">
    <g clip-path="url(#p1294e02bf0)">
     <use xlink:href="#m2ae69a60a0" x="388.886886" y="221.075771" style="fill: #bcbd22; stroke: #000000; stroke-width: 0.4"/>
    </g>
   </g>
   <g id="text_21">
    <!-- Gangbo-McCann -->
    <g transform="translate(389.697651 215.250704) scale(0.075 -0.075)">
     <defs>
      <path id="DejaVuSerif-62" d="M 738 331 
L 738 4531 
L 184 4531 
L 184 4863 
L 1313 4863 
L 1313 2803 
Q 1481 3116 1742 3264 
Q 2003 3413 2388 3413 
Q 3000 3413 3387 2928 
Q 3775 2444 3775 1663 
Q 3775 881 3387 395 
Q 3000 -91 2388 -91 
Q 2003 -91 1742 57 
Q 1481 206 1313 519 
L 1313 0 
L 184 0 
L 184 331 
L 738 331 
z
M 1313 1497 
Q 1313 897 1542 583 
Q 1772 269 2209 269 
Q 2650 269 2876 622 
Q 3103 975 3103 1663 
Q 3103 2353 2876 2703 
Q 2650 3053 2209 3053 
Q 1772 3053 1542 2737 
Q 1313 2422 1313 1825 
L 1313 1497 
z
" transform="scale(0.015625)"/>
      <path id="DejaVuSerif-4d" d="M 353 0 
L 353 331 
L 947 331 
L 947 4331 
L 319 4331 
L 319 4666 
L 1678 4666 
L 3316 1344 
L 4953 4666 
L 6228 4666 
L 6228 4331 
L 5606 4331 
L 5606 331 
L 6203 331 
L 6203 0 
L 4378 0 
L 4378 331 
L 4972 331 
L 4972 3938 
L 3372 684 
L 2931 684 
L 1331 3938 
L 1331 331 
L 1925 331 
L 1925 0 
L 353 0 
z
" transform="scale(0.015625)"/>
      <path id="DejaVuSerif-43" d="M 4513 1234 
Q 4306 581 3820 245 
Q 3334 -91 2591 -91 
Q 2134 -91 1743 65 
Q 1353 222 1050 525 
Q 700 875 529 1320 
Q 359 1766 359 2328 
Q 359 3416 987 4083 
Q 1616 4750 2644 4750 
Q 3025 4750 3456 4650 
Q 3888 4550 4384 4347 
L 4384 3272 
L 4031 3272 
Q 3916 3859 3567 4137 
Q 3219 4416 2591 4416 
Q 1844 4416 1459 3886 
Q 1075 3356 1075 2328 
Q 1075 1303 1459 773 
Q 1844 244 2591 244 
Q 3113 244 3450 492 
Q 3788 741 3938 1234 
L 4513 1234 
z
" transform="scale(0.015625)"/>
     </defs>
     <use xlink:href="#DejaVuSerif-47"/>
     <use xlink:href="#DejaVuSerif-61" transform="translate(79.882812 0)"/>
     <use xlink:href="#DejaVuSerif-6e" transform="translate(139.501953 0)"/>
     <use xlink:href="#DejaVuSerif-67" transform="translate(203.90625 0)"/>
     <use xlink:href="#DejaVuSerif-62" transform="translate(267.919922 0)"/>
     <use xlink:href="#DejaVuSerif-6f" transform="translate(331.933594 0)"/>
     <use xlink:href="#DejaVuSerif-2d" transform="translate(392.138672 0)"/>
     <use xlink:href="#DejaVuSerif-4d" transform="translate(425.927734 0)"/>
     <use xlink:href="#DejaVuSerif-63" transform="translate(528.320312 0)"/>
     <use xlink:href="#DejaVuSerif-43" transform="translate(584.326172 0)"/>
     <use xlink:href="#DejaVuSerif-61" transform="translate(660.839844 0)"/>
     <use xlink:href="#DejaVuSerif-6e" transform="translate(720.458984 0)"/>
     <use xlink:href="#DejaVuSerif-6e" transform="translate(784.863281 0)"/>
    </g>
   </g>
   <g id="PathCollection_4">
    <defs>
     <path id="m284df1fc52" d="M -0 5.91608 
L 3.549648 0 
L 0 -5.91608 
L -3.549648 -0 
z
" style="stroke: #000000; stroke-width: 0.4"/>
    </defs>
    <g clip-path="url(#p1294e02bf0)">
     <use xlink:href="#m284df1fc52" x="420.909699" y="213.794437" style="fill: #8c564b; stroke: #000000; stroke-width: 0.4"/>
    </g>
   </g>
   <g id="text_22">
    <!-- Benamou-Brenier -->
    <g transform="translate(422.101609 207.969371) scale(0.075 -0.075)">
     <defs>
      <path id="DejaVuSerif-6d" d="M 3316 2675 
Q 3481 3041 3739 3227 
Q 3997 3413 4341 3413 
Q 4863 3413 5119 3089 
Q 5375 2766 5375 2113 
L 5375 331 
L 5894 331 
L 5894 0 
L 4300 0 
L 4300 331 
L 4800 331 
L 4800 2047 
Q 4800 2556 4650 2772 
Q 4500 2988 4153 2988 
Q 3769 2988 3567 2697 
Q 3366 2406 3366 1850 
L 3366 331 
L 3866 331 
L 3866 0 
L 2291 0 
L 2291 331 
L 2791 331 
L 2791 2069 
Q 2791 2566 2641 2777 
Q 2491 2988 2144 2988 
Q 1759 2988 1557 2697 
Q 1356 2406 1356 1850 
L 1356 331 
L 1856 331 
L 1856 0 
L 263 0 
L 263 331 
L 781 331 
L 781 2994 
L 231 2994 
L 231 3322 
L 1356 3322 
L 1356 2731 
Q 1516 3063 1762 3238 
Q 2009 3413 2322 3413 
Q 2709 3413 2968 3220 
Q 3228 3028 3316 2675 
z
" transform="scale(0.015625)"/>
     </defs>
     <use xlink:href="#DejaVuSerif-42"/>
     <use xlink:href="#DejaVuSerif-65" transform="translate(73.486328 0)"/>
     <use xlink:href="#DejaVuSerif-6e" transform="translate(132.666016 0)"/>
     <use xlink:href="#DejaVuSerif-61" transform="translate(197.070312 0)"/>
     <use xlink:href="#DejaVuSerif-6d" transform="translate(256.689453 0)"/>
     <use xlink:href="#DejaVuSerif-6f" transform="translate(351.513672 0)"/>
     <use xlink:href="#DejaVuSerif-75" transform="translate(411.71875 0)"/>
     <use xlink:href="#DejaVuSerif-2d" transform="translate(476.123047 0)"/>
     <use xlink:href="#DejaVuSerif-42" transform="translate(509.912109 0)"/>
     <use xlink:href="#DejaVuSerif-72" transform="translate(583.398438 0)"/>
     <use xlink:href="#DejaVuSerif-65" transform="translate(631.201172 0)"/>
     <use xlink:href="#DejaVuSerif-6e" transform="translate(690.380859 0)"/>
     <use xlink:href="#DejaVuSerif-69" transform="translate(754.785156 0)"/>
     <use xlink:href="#DejaVuSerif-65" transform="translate(786.767578 0)"/>
     <use xlink:href="#DejaVuSerif-72" transform="translate(845.947266 0)"/>
    </g>
   </g>
   <g id="PathCollection_5">
    <defs>
     <path id="m515a620b05" d="M 0 -4.1833 
L -4.1833 4.1833 
L 4.1833 4.1833 
z
" style="stroke: #000000; stroke-width: 0.4"/>
    </defs>
    <g clip-path="url(#p1294e02bf0)">
     <use xlink:href="#m515a620b05" x="510.422876" y="104.574437" style="fill: #9467bd; stroke: #000000; stroke-width: 0.4"/>
    </g>
   </g>
   <g id="text_23">
    <!-- Gromov-W -->
    <g transform="translate(511.212495 98.749371) scale(0.075 -0.075)">
     <use xlink:href="#DejaVuSerif-47"/>
     <use xlink:href="#DejaVuSerif-72" transform="translate(79.882812 0)"/>
     <use xlink:href="#DejaVuSerif-6f" transform="translate(127.685547 0)"/>
     <use xlink:href="#DejaVuSerif-6d" transform="translate(187.890625 0)"/>
     <use xlink:href="#DejaVuSerif-6f" transform="translate(282.714844 0)"/>
     <use xlink:href="#DejaVuSerif-76" transform="translate(342.919922 0)"/>
     <use xlink:href="#DejaVuSerif-2d" transform="translate(399.414062 0)"/>
     <use xlink:href="#DejaVuSerif-57" transform="translate(427.703125 0)"/>
    </g>
   </g>
   <g id="PathCollection_6">
    <defs>
     <path id="m601d493125" d="M 0 4.1833 
C 1.109424 4.1833 2.173559 3.742521 2.95804 2.95804 
C 3.742521 2.173559 4.1833 1.109424 4.1833 0 
C 4.1833 -1.109424 3.742521 -2.173559 2.95804 -2.95804 
C 2.173559 -3.742521 1.109424 -4.1833 0 -4.1833 
C -1.109424 -4.1833 -2.173559 -3.742521 -2.95804 -2.95804 
C -3.742521 -2.173559 -4.1833 -1.109424 -4.1833 0 
C -4.1833 1.109424 -3.742521 2.173559 -2.95804 2.95804 
C -2.173559 3.742521 -1.109424 4.1833 0 4.1833 
z
" style="stroke: #000000; stroke-width: 0.4"/>
    </defs>
    <g clip-path="url(#p1294e02bf0)">
     <use xlink:href="#m601d493125" x="526.226148" y="75.449104" style="fill: #1f77b4; stroke: #000000; stroke-width: 0.4"/>
    </g>
   </g>
   <g id="text_24">
    <!-- Sinkhorn -->
    <g transform="translate(527.414474 69.624037) scale(0.075 -0.075)">
     <defs>
      <path id="DejaVuSerif-53" d="M 594 225 
L 594 1288 
L 953 1284 
Q 969 753 1261 498 
Q 1553 244 2150 244 
Q 2706 244 2998 464 
Q 3291 684 3291 1106 
Q 3291 1444 3114 1625 
Q 2938 1806 2369 1978 
L 1753 2163 
Q 1084 2366 811 2669 
Q 538 2972 538 3500 
Q 538 4094 959 4422 
Q 1381 4750 2144 4750 
Q 2469 4750 2856 4679 
Q 3244 4609 3681 4475 
L 3681 3481 
L 3328 3481 
Q 3275 3975 2998 4195 
Q 2722 4416 2156 4416 
Q 1663 4416 1405 4214 
Q 1147 4013 1147 3628 
Q 1147 3294 1340 3103 
Q 1534 2913 2163 2725 
L 2741 2553 
Q 3375 2363 3645 2067 
Q 3916 1772 3916 1275 
Q 3916 597 3481 253 
Q 3047 -91 2188 -91 
Q 1803 -91 1404 -12 
Q 1006 66 594 225 
z
" transform="scale(0.015625)"/>
      <path id="DejaVuSerif-6b" d="M 1831 0 
L 219 0 
L 219 331 
L 738 331 
L 738 4531 
L 184 4531 
L 184 4863 
L 1313 4863 
L 1313 1697 
L 2713 2988 
L 2234 2988 
L 2234 3322 
L 3738 3322 
L 3738 2988 
L 3169 2988 
L 2181 2075 
L 3444 331 
L 3922 331 
L 3922 0 
L 2284 0 
L 2284 331 
L 2759 331 
L 1766 1697 
L 1313 1275 
L 1313 331 
L 1831 331 
L 1831 0 
z
" transform="scale(0.015625)"/>
     </defs>
     <use xlink:href="#DejaVuSerif-53"/>
     <use xlink:href="#DejaVuSerif-69" transform="translate(68.505859 0)"/>
     <use xlink:href="#DejaVuSerif-6e" transform="translate(100.488281 0)"/>
     <use xlink:href="#DejaVuSerif-6b" transform="translate(164.892578 0)"/>
     <use xlink:href="#DejaVuSerif-68" transform="translate(225.488281 0)"/>
     <use xlink:href="#DejaVuSerif-6f" transform="translate(289.892578 0)"/>
     <use xlink:href="#DejaVuSerif-72" transform="translate(350.097656 0)"/>
     <use xlink:href="#DejaVuSerif-6e" transform="translate(397.900391 0)"/>
    </g>
   </g>
   <g id="PathCollection_7">
    <g clip-path="url(#p1294e02bf0)">
     <use xlink:href="#m601d493125" x="534.462921" y="104.574437" style="fill: #1f77b4; stroke: #000000; stroke-width: 0.4"/>
    </g>
   </g>
   <g id="text_25">
    <!-- Cuturi-bary -->
    <g transform="translate(535.515464 117.680837) scale(0.075 -0.075)">
     <use xlink:href="#DejaVuSerif-43"/>
     <use xlink:href="#DejaVuSerif-75" transform="translate(76.513672 0)"/>
     <use xlink:href="#DejaVuSerif-74" transform="translate(140.917969 0)"/>
     <use xlink:href="#DejaVuSerif-75" transform="translate(181.103516 0)"/>
     <use xlink:href="#DejaVuSerif-72" transform="translate(245.507812 0)"/>
     <use xlink:href="#DejaVuSerif-69" transform="translate(293.310547 0)"/>
     <use xlink:href="#DejaVuSerif-2d" transform="translate(325.292969 0)"/>
     <use xlink:href="#DejaVuSerif-62" transform="translate(359.082031 0)"/>
     <use xlink:href="#DejaVuSerif-61" transform="translate(423.095703 0)"/>
     <use xlink:href="#DejaVuSerif-72" transform="translate(482.714844 0)"/>
     <use xlink:href="#DejaVuSerif-79" transform="translate(530.517578 0)"/>
    </g>
   </g>
   <g id="PathCollection_8">
    <defs>
     <path id="m839369ca28" d="M -1.394433 4.1833 
L 1.394433 4.1833 
L 1.394433 1.394433 
L 4.1833 1.394433 
L 4.1833 -1.394433 
L 1.394433 -1.394433 
L 1.394433 -4.1833 
L -1.394433 -4.1833 
L -1.394433 -1.394433 
L -4.1833 -1.394433 
L -4.1833 1.394433 
L -1.394433 1.394433 
z
" style="stroke: #000000; stroke-width: 0.4"/>
    </defs>
    <g clip-path="url(#p1294e02bf0)">
     <use xlink:href="#m839369ca28" x="550.518867" y="133.699771" style="fill: #ff7f0e; stroke: #000000; stroke-width: 0.4"/>
    </g>
   </g>
   <g id="text_26">
    <!-- Stochastic-OT -->
    <g transform="translate(551.717443 127.874704) scale(0.075 -0.075)">
     <defs>
      <path id="DejaVuSerif-4f" d="M 2625 244 
Q 3391 244 3781 770 
Q 4172 1297 4172 2328 
Q 4172 3363 3781 3889 
Q 3391 4416 2625 4416 
Q 1856 4416 1465 3889 
Q 1075 3363 1075 2328 
Q 1075 1297 1465 770 
Q 1856 244 2625 244 
z
M 2625 -91 
Q 2150 -91 1751 65 
Q 1353 222 1050 525 
Q 700 875 529 1319 
Q 359 1763 359 2328 
Q 359 2894 529 3339 
Q 700 3784 1050 4134 
Q 1356 4441 1750 4595 
Q 2144 4750 2625 4750 
Q 3641 4750 4266 4084 
Q 4891 3419 4891 2328 
Q 4891 1769 4719 1320 
Q 4547 872 4197 525 
Q 3891 219 3497 64 
Q 3103 -91 2625 -91 
z
" transform="scale(0.015625)"/>
      <path id="DejaVuSerif-54" d="M 1222 0 
L 1222 331 
L 1819 331 
L 1819 4294 
L 447 4294 
L 447 3566 
L 63 3566 
L 63 4666 
L 4206 4666 
L 4206 3566 
L 3822 3566 
L 3822 4294 
L 2450 4294 
L 2450 331 
L 3047 331 
L 3047 0 
L 1222 0 
z
" transform="scale(0.015625)"/>
     </defs>
     <use xlink:href="#DejaVuSerif-53"/>
     <use xlink:href="#DejaVuSerif-74" transform="translate(68.505859 0)"/>
     <use xlink:href="#DejaVuSerif-6f" transform="translate(108.691406 0)"/>
     <use xlink:href="#DejaVuSerif-63" transform="translate(168.896484 0)"/>
     <use xlink:href="#DejaVuSerif-68" transform="translate(224.902344 0)"/>
     <use xlink:href="#DejaVuSerif-61" transform="translate(289.306641 0)"/>
     <use xlink:href="#DejaVuSerif-73" transform="translate(348.925781 0)"/>
     <use xlink:href="#DejaVuSerif-74" transform="translate(400.244141 0)"/>
     <use xlink:href="#DejaVuSerif-69" transform="translate(440.429688 0)"/>
     <use xlink:href="#DejaVuSerif-63" transform="translate(472.412109 0)"/>
     <use xlink:href="#DejaVuSerif-2d" transform="translate(528.417969 0)"/>
     <use xlink:href="#DejaVuSerif-4f" transform="translate(562.207031 0)"/>
     <use xlink:href="#DejaVuSerif-54" transform="translate(644.189453 0)"/>
    </g>
   </g>
   <g id="PathCollection_9">
    <defs>
     <path id="m12267af2c7" d="M -0 4.1833 
L 4.1833 -4.1833 
L -4.1833 -4.1833 
z
" style="stroke: #000000; stroke-width: 0.4"/>
    </defs>
    <g clip-path="url(#p1294e02bf0)">
     <use xlink:href="#m12267af2c7" x="559.202942" y="148.262437" style="fill: #d62728; stroke: #000000; stroke-width: 0.4"/>
    </g>
   </g>
   <g id="text_27">
    <!-- WGAN -->
    <g transform="translate(559.818432 142.437371) scale(0.075 -0.075)">
     <defs>
      <path id="DejaVuSerif-41" d="M 1281 1691 
L 2994 1691 
L 2138 3909 
L 1281 1691 
z
M -38 0 
L -38 331 
L 372 331 
L 2034 4666 
L 2559 4666 
L 4225 331 
L 4684 331 
L 4684 0 
L 2988 0 
L 2988 331 
L 3506 331 
L 3116 1356 
L 1153 1356 
L 763 331 
L 1275 331 
L 1275 0 
L -38 0 
z
" transform="scale(0.015625)"/>
      <path id="DejaVuSerif-4e" d="M 313 0 
L 313 331 
L 941 331 
L 941 4331 
L 313 4331 
L 313 4666 
L 1509 4666 
L 4306 984 
L 4306 4331 
L 3681 4331 
L 3681 4666 
L 5319 4666 
L 5319 4331 
L 4691 4331 
L 4691 -91 
L 4313 -91 
L 1325 3841 
L 1325 331 
L 1953 331 
L 1953 0 
L 313 0 
z
" transform="scale(0.015625)"/>
     </defs>
     <use xlink:href="#DejaVuSerif-57"/>
     <use xlink:href="#DejaVuSerif-47" transform="translate(102.783203 0)"/>
     <use xlink:href="#DejaVuSerif-41" transform="translate(182.666016 0)"/>
     <use xlink:href="#DejaVuSerif-4e" transform="translate(254.882812 0)"/>
    </g>
   </g>
   <g id="PathCollection_10">
    <g clip-path="url(#p1294e02bf0)">
     <use xlink:href="#m601d493125" x="558.627311" y="119.137104" style="fill: #1f77b4; stroke: #000000; stroke-width: 0.4"/>
    </g>
   </g>
   <g id="text_28">
    <!-- OT-DA -->
    <g transform="translate(559.818432 106.030704) scale(0.075 -0.075)">
     <defs>
      <path id="DejaVuSerif-44" d="M 1581 331 
L 2163 331 
Q 3072 331 3558 850 
Q 4044 1369 4044 2338 
Q 4044 3306 3559 3818 
Q 3075 4331 2163 4331 
L 1581 4331 
L 1581 331 
z
M 353 0 
L 353 331 
L 947 331 
L 947 4331 
L 353 4331 
L 353 4666 
L 2209 4666 
Q 3416 4666 4089 4050 
Q 4763 3434 4763 2338 
Q 4763 1238 4088 619 
Q 3413 0 2209 0 
L 353 0 
z
" transform="scale(0.015625)"/>
     </defs>
     <use xlink:href="#DejaVuSerif-4f"/>
     <use xlink:href="#DejaVuSerif-54" transform="translate(81.982422 0)"/>
     <use xlink:href="#DejaVuSerif-2d" transform="translate(135.806641 0)"/>
     <use xlink:href="#DejaVuSerif-44" transform="translate(169.595703 0)"/>
     <use xlink:href="#DejaVuSerif-41" transform="translate(249.771484 0)"/>
    </g>
   </g>
   <g id="PathCollection_11">
    <g clip-path="url(#p1294e02bf0)">
     <use xlink:href="#m12267af2c7" x="558.621228" y="162.825104" style="fill: #d62728; stroke: #000000; stroke-width: 0.4"/>
    </g>
   </g>
   <g id="text_29">
    <!-- ICNN -->
    <g transform="translate(559.818432 157.000037) scale(0.075 -0.075)">
     <defs>
      <path id="DejaVuSerif-49" d="M 1581 331 
L 2175 331 
L 2175 0 
L 353 0 
L 353 331 
L 947 331 
L 947 4331 
L 353 4331 
L 353 4666 
L 2175 4666 
L 2175 4331 
L 1581 4331 
L 1581 331 
z
" transform="scale(0.015625)"/>
     </defs>
     <use xlink:href="#DejaVuSerif-49"/>
     <use xlink:href="#DejaVuSerif-43" transform="translate(39.501953 0)"/>
     <use xlink:href="#DejaVuSerif-4e" transform="translate(116.015625 0)"/>
     <use xlink:href="#DejaVuSerif-4e" transform="translate(203.515625 0)"/>
    </g>
   </g>
   <g id="PathCollection_12">
    <defs>
     <path id="md4f3c75a12" d="M -4.1833 4.1833 
L 4.1833 4.1833 
L 4.1833 -4.1833 
L -4.1833 -4.1833 
z
" style="stroke: #000000; stroke-width: 0.4"/>
    </defs>
    <g clip-path="url(#p1294e02bf0)">
     <use xlink:href="#md4f3c75a12" x="567.246277" y="191.950437" style="fill: #1f77b4; stroke: #000000; stroke-width: 0.4"/>
    </g>
   </g>
   <g id="text_30">
    <!-- Sinkhorn-div -->
    <g transform="translate(567.919422 186.125371) scale(0.075 -0.075)">
     <use xlink:href="#DejaVuSerif-53"/>
     <use xlink:href="#DejaVuSerif-69" transform="translate(68.505859 0)"/>
     <use xlink:href="#DejaVuSerif-6e" transform="translate(100.488281 0)"/>
     <use xlink:href="#DejaVuSerif-6b" transform="translate(164.892578 0)"/>
     <use xlink:href="#DejaVuSerif-68" transform="translate(225.488281 0)"/>
     <use xlink:href="#DejaVuSerif-6f" transform="translate(289.892578 0)"/>
     <use xlink:href="#DejaVuSerif-72" transform="translate(350.097656 0)"/>
     <use xlink:href="#DejaVuSerif-6e" transform="translate(397.900391 0)"/>
     <use xlink:href="#DejaVuSerif-2d" transform="translate(462.304688 0)"/>
     <use xlink:href="#DejaVuSerif-64" transform="translate(496.09375 0)"/>
     <use xlink:href="#DejaVuSerif-69" transform="translate(560.107422 0)"/>
     <use xlink:href="#DejaVuSerif-76" transform="translate(592.089844 0)"/>
    </g>
   </g>
   <g id="PathCollection_13">
    <defs>
     <path id="mbbfd3dba33" d="M 0 -4.1833 
L -3.622844 -2.09165 
L -3.622844 2.09165 
L -0 4.1833 
L 3.622844 2.09165 
L 3.622844 -2.09165 
z
" style="stroke: #000000; stroke-width: 0.4"/>
    </defs>
    <g clip-path="url(#p1294e02bf0)">
     <use xlink:href="#mbbfd3dba33" x="567.332999" y="162.825104" style="fill: #e377c2; stroke: #000000; stroke-width: 0.4"/>
    </g>
   </g>
   <g id="text_31">
    <!-- Unbalanced -->
    <g transform="translate(567.919422 157.000037) scale(0.075 -0.075)">
     <defs>
      <path id="DejaVuSerif-55" d="M 897 4331 
L 300 4331 
L 300 4666 
L 2125 4666 
L 2125 4331 
L 1528 4331 
L 1528 1919 
Q 1528 1025 1820 672 
Q 2113 319 2828 319 
Q 3544 319 3836 672 
Q 4128 1025 4128 1919 
L 4128 4331 
L 3531 4331 
L 3531 4666 
L 5106 4666 
L 5106 4331 
L 4513 4331 
L 4513 1856 
Q 4513 791 4103 350 
Q 3694 -91 2713 -91 
Q 1731 -91 1314 353 
Q 897 797 897 1856 
L 897 4331 
z
" transform="scale(0.015625)"/>
     </defs>
     <use xlink:href="#DejaVuSerif-55"/>
     <use xlink:href="#DejaVuSerif-6e" transform="translate(84.277344 0)"/>
     <use xlink:href="#DejaVuSerif-62" transform="translate(148.681641 0)"/>
     <use xlink:href="#DejaVuSerif-61" transform="translate(212.695312 0)"/>
     <use xlink:href="#DejaVuSerif-6c" transform="translate(272.314453 0)"/>
     <use xlink:href="#DejaVuSerif-61" transform="translate(304.296875 0)"/>
     <use xlink:href="#DejaVuSerif-6e" transform="translate(363.916016 0)"/>
     <use xlink:href="#DejaVuSerif-63" transform="translate(428.320312 0)"/>
     <use xlink:href="#DejaVuSerif-65" transform="translate(484.326172 0)"/>
     <use xlink:href="#DejaVuSerif-64" transform="translate(543.505859 0)"/>
    </g>
   </g>
   <g id="PathCollection_14">
    <g clip-path="url(#p1294e02bf0)">
     <use xlink:href="#m601d493125" x="566.745864" y="177.387771" style="fill: #1f77b4; stroke: #000000; stroke-width: 0.4"/>
    </g>
   </g>
   <g id="text_32">
    <!-- APDAGD -->
    <g transform="translate(567.919422 190.494171) scale(0.075 -0.075)">
     <use xlink:href="#DejaVuSerif-41"/>
     <use xlink:href="#DejaVuSerif-50" transform="translate(72.216797 0)"/>
     <use xlink:href="#DejaVuSerif-44" transform="translate(139.501953 0)"/>
     <use xlink:href="#DejaVuSerif-41" transform="translate(219.677734 0)"/>
     <use xlink:href="#DejaVuSerif-47" transform="translate(291.894531 0)"/>
     <use xlink:href="#DejaVuSerif-44" transform="translate(371.777344 0)"/>
    </g>
   </g>
   <g id="PathCollection_15">
    <defs>
     <path id="m7fc182b496" d="M -0 5.91608 
L 5.91608 0 
L 0 -5.91608 
L -5.91608 -0 
z
" style="stroke: #000000; stroke-width: 0.4"/>
    </defs>
    <g clip-path="url(#p1294e02bf0)">
     <use xlink:href="#m7fc182b496" x="567.189803" y="46.323771" style="fill: #2ca02c; stroke: #000000; stroke-width: 0.4"/>
    </g>
   </g>
   <g id="text_33">
    <!-- Sliced-W -->
    <g transform="translate(567.919422 40.498704) scale(0.075 -0.075)">
     <use xlink:href="#DejaVuSerif-53"/>
     <use xlink:href="#DejaVuSerif-6c" transform="translate(68.505859 0)"/>
     <use xlink:href="#DejaVuSerif-69" transform="translate(100.488281 0)"/>
     <use xlink:href="#DejaVuSerif-63" transform="translate(132.470703 0)"/>
     <use xlink:href="#DejaVuSerif-65" transform="translate(188.476562 0)"/>
     <use xlink:href="#DejaVuSerif-64" transform="translate(247.65625 0)"/>
     <use xlink:href="#DejaVuSerif-2d" transform="translate(311.669922 0)"/>
     <use xlink:href="#DejaVuSerif-57" transform="translate(339.958984 0)"/>
    </g>
   </g>
   <g id="PathCollection_16">
    <g clip-path="url(#p1294e02bf0)">
     <use xlink:href="#m7fc182b496" x="575.542102" y="90.011771" style="fill: #2ca02c; stroke: #000000; stroke-width: 0.4"/>
    </g>
   </g>
   <g id="text_34">
    <!-- Tree-SW -->
    <g transform="translate(576.020411 76.905371) scale(0.075 -0.075)">
     <use xlink:href="#DejaVuSerif-54"/>
     <use xlink:href="#DejaVuSerif-72" transform="translate(66.699219 0)"/>
     <use xlink:href="#DejaVuSerif-65" transform="translate(114.501953 0)"/>
     <use xlink:href="#DejaVuSerif-65" transform="translate(173.681641 0)"/>
     <use xlink:href="#DejaVuSerif-2d" transform="translate(232.861328 0)"/>
     <use xlink:href="#DejaVuSerif-53" transform="translate(266.650391 0)"/>
     <use xlink:href="#DejaVuSerif-57" transform="translate(335.15625 0)"/>
    </g>
   </g>
   <g id="PathCollection_17">
    <g clip-path="url(#p1294e02bf0)">
     <use xlink:href="#m12267af2c7" x="567.439772" y="148.262437" style="fill: #d62728; stroke: #000000; stroke-width: 0.4"/>
    </g>
   </g>
   <g id="text_35">
    <!-- Large-scale-NOT -->
    <g transform="translate(567.919422 138.068571) scale(0.075 -0.075)">
     <use xlink:href="#DejaVuSerif-4c"/>
     <use xlink:href="#DejaVuSerif-61" transform="translate(66.40625 0)"/>
     <use xlink:href="#DejaVuSerif-72" transform="translate(126.025391 0)"/>
     <use xlink:href="#DejaVuSerif-67" transform="translate(173.828125 0)"/>
     <use xlink:href="#DejaVuSerif-65" transform="translate(237.841797 0)"/>
     <use xlink:href="#DejaVuSerif-2d" transform="translate(297.021484 0)"/>
     <use xlink:href="#DejaVuSerif-73" transform="translate(330.810547 0)"/>
     <use xlink:href="#DejaVuSerif-63" transform="translate(382.128906 0)"/>
     <use xlink:href="#DejaVuSerif-61" transform="translate(438.134766 0)"/>
     <use xlink:href="#DejaVuSerif-6c" transform="translate(497.753906 0)"/>
     <use xlink:href="#DejaVuSerif-65" transform="translate(529.736328 0)"/>
     <use xlink:href="#DejaVuSerif-2d" transform="translate(588.916016 0)"/>
     <use xlink:href="#DejaVuSerif-4e" transform="translate(622.705078 0)"/>
     <use xlink:href="#DejaVuSerif-4f" transform="translate(710.205078 0)"/>
     <use xlink:href="#DejaVuSerif-54" transform="translate(792.1875 0)"/>
    </g>
   </g>
   <g id="PathCollection_18">
    <g clip-path="url(#p1294e02bf0)">
     <use xlink:href="#m12267af2c7" x="599.361881" y="162.825104" style="fill: #d62728; stroke: #000000; stroke-width: 0.4"/>
    </g>
   </g>
   <g id="text_36">
    <!-- JKOnet -->
    <g transform="translate(600.32338 157.000037) scale(0.075 -0.075)">
     <defs>
      <path id="DejaVuSerif-4a" d="M -538 -1119 
L -538 -384 
L -181 -384 
Q -172 -694 -34 -845 
Q 103 -997 378 -997 
Q 750 -997 897 -762 
Q 1044 -528 1044 153 
L 1044 4331 
L 319 4331 
L 319 4666 
L 2272 4666 
L 2272 4331 
L 1678 4331 
L 1678 128 
Q 1678 -644 1368 -987 
Q 1059 -1331 372 -1331 
Q 150 -1331 -79 -1278 
Q -309 -1225 -538 -1119 
z
" transform="scale(0.015625)"/>
      <path id="DejaVuSerif-4b" d="M 353 0 
L 353 331 
L 947 331 
L 947 4331 
L 353 4331 
L 353 4666 
L 2175 4666 
L 2175 4331 
L 1581 4331 
L 1581 2566 
L 3591 4331 
L 3084 4331 
L 3084 4666 
L 4634 4666 
L 4634 4331 
L 4109 4331 
L 2106 2572 
L 4347 331 
L 4878 331 
L 4878 0 
L 3794 0 
L 1581 2216 
L 1581 331 
L 2175 331 
L 2175 0 
L 353 0 
z
" transform="scale(0.015625)"/>
     </defs>
     <use xlink:href="#DejaVuSerif-4a"/>
     <use xlink:href="#DejaVuSerif-4b" transform="translate(40.087891 0)"/>
     <use xlink:href="#DejaVuSerif-4f" transform="translate(112.169922 0)"/>
     <use xlink:href="#DejaVuSerif-6e" transform="translate(194.152344 0)"/>
     <use xlink:href="#DejaVuSerif-65" transform="translate(258.556641 0)"/>
     <use xlink:href="#DejaVuSerif-74" transform="translate(317.736328 0)"/>
    </g>
   </g>
   <g id="PathCollection_19">
    <defs>
     <path id="m2584a61bf7" d="M 0 -4.1833 
L -3.978555 -1.292711 
L -2.458882 3.384361 
L 2.458882 3.384361 
L 3.978555 -1.292711 
z
" style="stroke: #000000; stroke-width: 0.4"/>
    </defs>
    <g clip-path="url(#p1294e02bf0)">
     <use xlink:href="#m2584a61bf7" x="599.810393" y="148.262437" style="fill: #17becf; stroke: #000000; stroke-width: 0.4"/>
    </g>
   </g>
   <g id="text_37">
    <!-- Sinkformer -->
    <g transform="translate(600.32338 142.437371) scale(0.075 -0.075)">
     <defs>
      <path id="DejaVuSerif-66" d="M 2753 4078 
L 2450 4078 
Q 2447 4313 2317 4434 
Q 2188 4556 1941 4556 
Q 1619 4556 1487 4379 
Q 1356 4203 1356 3750 
L 1356 3322 
L 2284 3322 
L 2284 2988 
L 1356 2988 
L 1356 331 
L 2094 331 
L 2094 0 
L 231 0 
L 231 331 
L 781 331 
L 781 2988 
L 231 2988 
L 231 3322 
L 781 3322 
L 781 3738 
Q 781 4294 1070 4578 
Q 1359 4863 1919 4863 
Q 2128 4863 2337 4825 
Q 2547 4788 2753 4709 
L 2753 4078 
z
" transform="scale(0.015625)"/>
     </defs>
     <use xlink:href="#DejaVuSerif-53"/>
     <use xlink:href="#DejaVuSerif-69" transform="translate(68.505859 0)"/>
     <use xlink:href="#DejaVuSerif-6e" transform="translate(100.488281 0)"/>
     <use xlink:href="#DejaVuSerif-6b" transform="translate(164.892578 0)"/>
     <use xlink:href="#DejaVuSerif-66" transform="translate(225.488281 0)"/>
     <use xlink:href="#DejaVuSerif-6f" transform="translate(262.5 0)"/>
     <use xlink:href="#DejaVuSerif-72" transform="translate(322.705078 0)"/>
     <use xlink:href="#DejaVuSerif-6d" transform="translate(370.507812 0)"/>
     <use xlink:href="#DejaVuSerif-65" transform="translate(465.332031 0)"/>
     <use xlink:href="#DejaVuSerif-72" transform="translate(524.511719 0)"/>
    </g>
   </g>
   <g id="PathCollection_20">
    <g clip-path="url(#p1294e02bf0)">
     <use xlink:href="#m12267af2c7" x="607.380233" y="177.387771" style="fill: #d62728; stroke: #000000; stroke-width: 0.4"/>
    </g>
   </g>
   <g id="text_38">
    <!-- Neural-OT -->
    <g transform="translate(608.42437 171.562704) scale(0.075 -0.075)">
     <use xlink:href="#DejaVuSerif-4e"/>
     <use xlink:href="#DejaVuSerif-65" transform="translate(87.5 0)"/>
     <use xlink:href="#DejaVuSerif-75" transform="translate(146.679688 0)"/>
     <use xlink:href="#DejaVuSerif-72" transform="translate(211.083984 0)"/>
     <use xlink:href="#DejaVuSerif-61" transform="translate(258.886719 0)"/>
     <use xlink:href="#DejaVuSerif-6c" transform="translate(318.505859 0)"/>
     <use xlink:href="#DejaVuSerif-2d" transform="translate(350.488281 0)"/>
     <use xlink:href="#DejaVuSerif-4f" transform="translate(384.277344 0)"/>
     <use xlink:href="#DejaVuSerif-54" transform="translate(466.259766 0)"/>
    </g>
   </g>
   <g id="PathCollection_21">
    <g clip-path="url(#p1294e02bf0)">
     <use xlink:href="#m12267af2c7" x="607.222578" y="191.950437" style="fill: #d62728; stroke: #000000; stroke-width: 0.4"/>
    </g>
   </g>
   <g id="text_39">
    <!-- OT-flow -->
    <g transform="translate(608.42437 186.125371) scale(0.075 -0.075)">
     <defs>
      <path id="DejaVuSerif-77" d="M 3072 3322 
L 3922 728 
L 4672 2988 
L 4191 2988 
L 4191 3322 
L 5394 3322 
L 5394 2988 
L 5025 2988 
L 4038 0 
L 3559 0 
L 2741 2484 
L 1919 0 
L 1459 0 
L 475 2988 
L 103 2988 
L 103 3322 
L 1606 3322 
L 1606 2988 
L 1069 2988 
L 1813 728 
L 2669 3322 
L 3072 3322 
z
" transform="scale(0.015625)"/>
     </defs>
     <use xlink:href="#DejaVuSerif-4f"/>
     <use xlink:href="#DejaVuSerif-54" transform="translate(81.982422 0)"/>
     <use xlink:href="#DejaVuSerif-2d" transform="translate(135.806641 0)"/>
     <use xlink:href="#DejaVuSerif-66" transform="translate(169.595703 0)"/>
     <use xlink:href="#DejaVuSerif-6c" transform="translate(206.607422 0)"/>
     <use xlink:href="#DejaVuSerif-6f" transform="translate(238.589844 0)"/>
     <use xlink:href="#DejaVuSerif-77" transform="translate(298.794922 0)"/>
    </g>
   </g>
   <g id="PathCollection_22">
    <g clip-path="url(#p1294e02bf0)">
     <use xlink:href="#m12267af2c7" x="607.871446" y="191.950437" style="fill: #d62728; stroke: #000000; stroke-width: 0.4"/>
    </g>
   </g>
   <g id="text_40">
    <!-- Schrod-bridge -->
    <g transform="translate(608.42437 205.056837) scale(0.075 -0.075)">
     <use xlink:href="#DejaVuSerif-53"/>
     <use xlink:href="#DejaVuSerif-63" transform="translate(68.505859 0)"/>
     <use xlink:href="#DejaVuSerif-68" transform="translate(124.511719 0)"/>
     <use xlink:href="#DejaVuSerif-72" transform="translate(188.916016 0)"/>
     <use xlink:href="#DejaVuSerif-6f" transform="translate(236.71875 0)"/>
     <use xlink:href="#DejaVuSerif-64" transform="translate(296.923828 0)"/>
     <use xlink:href="#DejaVuSerif-2d" transform="translate(360.9375 0)"/>
     <use xlink:href="#DejaVuSerif-62" transform="translate(394.726562 0)"/>
     <use xlink:href="#DejaVuSerif-72" transform="translate(458.740234 0)"/>
     <use xlink:href="#DejaVuSerif-69" transform="translate(506.542969 0)"/>
     <use xlink:href="#DejaVuSerif-64" transform="translate(538.525391 0)"/>
     <use xlink:href="#DejaVuSerif-67" transform="translate(602.539062 0)"/>
     <use xlink:href="#DejaVuSerif-65" transform="translate(666.552734 0)"/>
    </g>
   </g>
   <g id="text_41">
    <!-- OT family evolution: relative W_2^2 error on synthetic Gaussians vs publication year -->
    <g transform="translate(115.759531 11.198437) scale(0.1 -0.1)">
     <defs>
      <path id="DejaVuSerif-3a" d="M 666 325 
Q 666 500 786 622 
Q 906 744 1081 744 
Q 1256 744 1376 622 
Q 1497 500 1497 325 
Q 1497 150 1378 29 
Q 1259 -91 1081 -91 
Q 903 -91 784 29 
Q 666 150 666 325 
z
M 666 2363 
Q 666 2538 786 2658 
Q 906 2778 1081 2778 
Q 1259 2778 1378 2659 
Q 1497 2541 1497 2363 
Q 1497 2184 1378 2065 
Q 1259 1947 1081 1947 
Q 906 1947 786 2067 
Q 666 2188 666 2363 
z
" transform="scale(0.015625)"/>
      <path id="DejaVuSerif-70" d="M 1313 1825 
L 1313 1497 
Q 1313 897 1542 583 
Q 1772 269 2209 269 
Q 2650 269 2876 622 
Q 3103 975 3103 1663 
Q 3103 2353 2876 2703 
Q 2650 3053 2209 3053 
Q 1772 3053 1542 2737 
Q 1313 2422 1313 1825 
z
M 738 2988 
L 184 2988 
L 184 3322 
L 1313 3322 
L 1313 2803 
Q 1481 3116 1742 3264 
Q 2003 3413 2388 3413 
Q 3000 3413 3387 2928 
Q 3775 2444 3775 1663 
Q 3775 881 3387 395 
Q 3000 -91 2388 -91 
Q 2003 -91 1742 57 
Q 1481 206 1313 519 
L 1313 -997 
L 1856 -997 
L 1856 -1331 
L 184 -1331 
L 184 -997 
L 738 -997 
L 738 2988 
z
" transform="scale(0.015625)"/>
     </defs>
     <use xlink:href="#DejaVuSerif-4f"/>
     <use xlink:href="#DejaVuSerif-54" transform="translate(81.982422 0)"/>
     <use xlink:href="#DejaVuSerif-20" transform="translate(148.681641 0)"/>
     <use xlink:href="#DejaVuSerif-66" transform="translate(180.46875 0)"/>
     <use xlink:href="#DejaVuSerif-61" transform="translate(217.480469 0)"/>
     <use xlink:href="#DejaVuSerif-6d" transform="translate(277.099609 0)"/>
     <use xlink:href="#DejaVuSerif-69" transform="translate(371.923828 0)"/>
     <use xlink:href="#DejaVuSerif-6c" transform="translate(403.90625 0)"/>
     <use xlink:href="#DejaVuSerif-79" transform="translate(435.888672 0)"/>
     <use xlink:href="#DejaVuSerif-20" transform="translate(492.382812 0)"/>
     <use xlink:href="#DejaVuSerif-65" transform="translate(524.169922 0)"/>
     <use xlink:href="#DejaVuSerif-76" transform="translate(583.349609 0)"/>
     <use xlink:href="#DejaVuSerif-6f" transform="translate(639.84375 0)"/>
     <use xlink:href="#DejaVuSerif-6c" transform="translate(700.048828 0)"/>
     <use xlink:href="#DejaVuSerif-75" transform="translate(732.03125 0)"/>
     <use xlink:href="#DejaVuSerif-74" transform="translate(796.435547 0)"/>
     <use xlink:href="#DejaVuSerif-69" transform="translate(836.621094 0)"/>
     <use xlink:href="#DejaVuSerif-6f" transform="translate(868.603516 0)"/>
     <use xlink:href="#DejaVuSerif-6e" transform="translate(928.808594 0)"/>
     <use xlink:href="#DejaVuSerif-3a" transform="translate(993.212891 0)"/>
     <use xlink:href="#DejaVuSerif-20" transform="translate(1026.904297 0)"/>
     <use xlink:href="#DejaVuSerif-72" transform="translate(1058.691406 0)"/>
     <use xlink:href="#DejaVuSerif-65" transform="translate(1106.494141 0)"/>
     <use xlink:href="#DejaVuSerif-6c" transform="translate(1165.673828 0)"/>
     <use xlink:href="#DejaVuSerif-61" transform="translate(1197.65625 0)"/>
     <use xlink:href="#DejaVuSerif-74" transform="translate(1257.275391 0)"/>
     <use xlink:href="#DejaVuSerif-69" transform="translate(1297.460938 0)"/>
     <use xlink:href="#DejaVuSerif-76" transform="translate(1329.443359 0)"/>
     <use xlink:href="#DejaVuSerif-65" transform="translate(1385.9375 0)"/>
     <use xlink:href="#DejaVuSerif-20" transform="translate(1445.117188 0)"/>
     <use xlink:href="#DejaVuSerif-57" transform="translate(1476.904297 0)"/>
     <use xlink:href="#DejaVuSerif-5f" transform="translate(1579.6875 0)"/>
     <use xlink:href="#DejaVuSerif-32" transform="translate(1629.6875 0)"/>
     <use xlink:href="#DejaVuSerif-5e" transform="translate(1693.310547 0)"/>
     <use xlink:href="#DejaVuSerif-32" transform="translate(1777.099609 0)"/>
     <use xlink:href="#DejaVuSerif-20" transform="translate(1840.722656 0)"/>
     <use xlink:href="#DejaVuSerif-65" transform="translate(1872.509766 0)"/>
     <use xlink:href="#DejaVuSerif-72" transform="translate(1931.689453 0)"/>
     <use xlink:href="#DejaVuSerif-72" transform="translate(1979.492188 0)"/>
     <use xlink:href="#DejaVuSerif-6f" transform="translate(2027.294922 0)"/>
     <use xlink:href="#DejaVuSerif-72" transform="translate(2087.5 0)"/>
     <use xlink:href="#DejaVuSerif-20" transform="translate(2135.302734 0)"/>
     <use xlink:href="#DejaVuSerif-6f" transform="translate(2167.089844 0)"/>
     <use xlink:href="#DejaVuSerif-6e" transform="translate(2227.294922 0)"/>
     <use xlink:href="#DejaVuSerif-20" transform="translate(2291.699219 0)"/>
     <use xlink:href="#DejaVuSerif-73" transform="translate(2323.486328 0)"/>
     <use xlink:href="#DejaVuSerif-79" transform="translate(2374.804688 0)"/>
     <use xlink:href="#DejaVuSerif-6e" transform="translate(2431.298828 0)"/>
     <use xlink:href="#DejaVuSerif-74" transform="translate(2495.703125 0)"/>
     <use xlink:href="#DejaVuSerif-68" transform="translate(2535.888672 0)"/>
     <use xlink:href="#DejaVuSerif-65" transform="translate(2600.292969 0)"/>
     <use xlink:href="#DejaVuSerif-74" transform="translate(2659.472656 0)"/>
     <use xlink:href="#DejaVuSerif-69" transform="translate(2699.658203 0)"/>
     <use xlink:href="#DejaVuSerif-63" transform="translate(2731.640625 0)"/>
     <use xlink:href="#DejaVuSerif-20" transform="translate(2787.646484 0)"/>
     <use xlink:href="#DejaVuSerif-47" transform="translate(2819.433594 0)"/>
     <use xlink:href="#DejaVuSerif-61" transform="translate(2899.316406 0)"/>
     <use xlink:href="#DejaVuSerif-75" transform="translate(2958.935547 0)"/>
     <use xlink:href="#DejaVuSerif-73" transform="translate(3023.339844 0)"/>
     <use xlink:href="#DejaVuSerif-73" transform="translate(3074.658203 0)"/>
     <use xlink:href="#DejaVuSerif-69" transform="translate(3125.976562 0)"/>
     <use xlink:href="#DejaVuSerif-61" transform="translate(3157.958984 0)"/>
     <use xlink:href="#DejaVuSerif-6e" transform="translate(3217.578125 0)"/>
     <use xlink:href="#DejaVuSerif-73" transform="translate(3281.982422 0)"/>
     <use xlink:href="#DejaVuSerif-20" transform="translate(3333.300781 0)"/>
     <use xlink:href="#DejaVuSerif-76" transform="translate(3365.087891 0)"/>
     <use xlink:href="#DejaVuSerif-73" transform="translate(3421.582031 0)"/>
     <use xlink:href="#DejaVuSerif-20" transform="translate(3472.900391 0)"/>
     <use xlink:href="#DejaVuSerif-70" transform="translate(3504.6875 0)"/>
     <use xlink:href="#DejaVuSerif-75" transform="translate(3568.701172 0)"/>
     <use xlink:href="#DejaVuSerif-62" transform="translate(3633.105469 0)"/>
     <use xlink:href="#DejaVuSerif-6c" transform="translate(3697.119141 0)"/>
     <use xlink:href="#DejaVuSerif-69" transform="translate(3729.101562 0)"/>
     <use xlink:href="#DejaVuSerif-63" transform="translate(3761.083984 0)"/>
     <use xlink:href="#DejaVuSerif-61" transform="translate(3817.089844 0)"/>
     <use xlink:href="#DejaVuSerif-74" transform="translate(3876.708984 0)"/>
     <use xlink:href="#DejaVuSerif-69" transform="translate(3916.894531 0)"/>
     <use xlink:href="#DejaVuSerif-6f" transform="translate(3948.876953 0)"/>
     <use xlink:href="#DejaVuSerif-6e" transform="translate(4009.082031 0)"/>
     <use xlink:href="#DejaVuSerif-20" transform="translate(4073.486328 0)"/>
     <use xlink:href="#DejaVuSerif-79" transform="translate(4105.273438 0)"/>
     <use xlink:href="#DejaVuSerif-65" transform="translate(4161.767578 0)"/>
     <use xlink:href="#DejaVuSerif-61" transform="translate(4220.947266 0)"/>
     <use xlink:href="#DejaVuSerif-72" transform="translate(4280.566406 0)"/>
    </g>
   </g>
   <g id="legend_1">
    <g id="PathCollection_23">
     <g>
      <use xlink:href="#m34cc8efa10" x="454.414688" y="27.678516" style="fill: #7f7f7f; stroke: #000000; stroke-width: 0.4"/>
     </g>
    </g>
    <g id="text_42">
     <!-- exact-LP -->
     <g transform="translate(467.914688 29.647266) scale(0.075 -0.075)">
      <use xlink:href="#DejaVuSerif-65"/>
      <use xlink:href="#DejaVuSerif-78" transform="translate(59.179688 0)"/>
      <use xlink:href="#DejaVuSerif-61" transform="translate(115.576172 0)"/>
      <use xlink:href="#DejaVuSerif-63" transform="translate(175.195312 0)"/>
      <use xlink:href="#DejaVuSerif-74" transform="translate(231.201172 0)"/>
      <use xlink:href="#DejaVuSerif-2d" transform="translate(271.386719 0)"/>
      <use xlink:href="#DejaVuSerif-4c" transform="translate(305.175781 0)"/>
      <use xlink:href="#DejaVuSerif-50" transform="translate(371.582031 0)"/>
     </g>
    </g>
    <g id="PathCollection_24">
     <g>
      <use xlink:href="#m2ae69a60a0" x="454.414688" y="38.687109" style="fill: #bcbd22; stroke: #000000; stroke-width: 0.4"/>
     </g>
    </g>
    <g id="text_43">
     <!-- foundations -->
     <g transform="translate(467.914688 40.655859) scale(0.075 -0.075)">
      <use xlink:href="#DejaVuSerif-66"/>
      <use xlink:href="#DejaVuSerif-6f" transform="translate(37.011719 0)"/>
      <use xlink:href="#DejaVuSerif-75" transform="translate(97.216797 0)"/>
      <use xlink:href="#DejaVuSerif-6e" transform="translate(161.621094 0)"/>
      <use xlink:href="#DejaVuSerif-64" transform="translate(226.025391 0)"/>
      <use xlink:href="#DejaVuSerif-61" transform="translate(290.039062 0)"/>
      <use xlink:href="#DejaVuSerif-74" transform="translate(349.658203 0)"/>
      <use xlink:href="#DejaVuSerif-69" transform="translate(389.84375 0)"/>
      <use xlink:href="#DejaVuSerif-6f" transform="translate(421.826172 0)"/>
      <use xlink:href="#DejaVuSerif-6e" transform="translate(482.03125 0)"/>
      <use xlink:href="#DejaVuSerif-73" transform="translate(546.435547 0)"/>
     </g>
    </g>
    <g id="PathCollection_25">
     <g>
      <use xlink:href="#m284df1fc52" x="454.414688" y="49.695703" style="fill: #8c564b; stroke: #000000; stroke-width: 0.4"/>
     </g>
    </g>
    <g id="text_44">
     <!-- dynamic -->
     <g transform="translate(467.914688 51.664453) scale(0.075 -0.075)">
      <use xlink:href="#DejaVuSerif-64"/>
      <use xlink:href="#DejaVuSerif-79" transform="translate(64.013672 0)"/>
      <use xlink:href="#DejaVuSerif-6e" transform="translate(120.507812 0)"/>
      <use xlink:href="#DejaVuSerif-61" transform="translate(184.912109 0)"/>
      <use xlink:href="#DejaVuSerif-6d" transform="translate(244.53125 0)"/>
      <use xlink:href="#DejaVuSerif-69" transform="translate(339.355469 0)"/>
      <use xlink:href="#DejaVuSerif-63" transform="translate(371.337891 0)"/>
     </g>
    </g>
    <g id="PathCollection_26">
     <g>
      <use xlink:href="#m515a620b05" x="454.414688" y="60.810937" style="fill: #9467bd; stroke: #000000; stroke-width: 0.4"/>
     </g>
    </g>
    <g id="text_45">
     <!-- GW -->
     <g transform="translate(467.914688 62.779687) scale(0.075 -0.075)">
      <use xlink:href="#DejaVuSerif-47"/>
      <use xlink:href="#DejaVuSerif-57" transform="translate(79.882812 0)"/>
     </g>
    </g>
    <g id="PathCollection_27">
     <g>
      <use xlink:href="#m601d493125" x="454.414688" y="71.819531" style="fill: #1f77b4; stroke: #000000; stroke-width: 0.4"/>
     </g>
    </g>
    <g id="text_46">
     <!-- entropic -->
     <g transform="translate(467.914688 73.788281) scale(0.075 -0.075)">
      <use xlink:href="#DejaVuSerif-65"/>
      <use xlink:href="#DejaVuSerif-6e" transform="translate(59.179688 0)"/>
      <use xlink:href="#DejaVuSerif-74" transform="translate(123.583984 0)"/>
      <use xlink:href="#DejaVuSerif-72" transform="translate(163.769531 0)"/>
      <use xlink:href="#DejaVuSerif-6f" transform="translate(211.572266 0)"/>
      <use xlink:href="#DejaVuSerif-70" transform="translate(271.777344 0)"/>
      <use xlink:href="#DejaVuSerif-69" transform="translate(335.791016 0)"/>
      <use xlink:href="#DejaVuSerif-63" transform="translate(367.773438 0)"/>
     </g>
    </g>
    <g id="PathCollection_28">
     <g>
      <use xlink:href="#m839369ca28" x="454.414688" y="82.828125" style="fill: #ff7f0e; stroke: #000000; stroke-width: 0.4"/>
     </g>
    </g>
    <g id="text_47">
     <!-- stochastic -->
     <g transform="translate(467.914688 84.796875) scale(0.075 -0.075)">
      <use xlink:href="#DejaVuSerif-73"/>
      <use xlink:href="#DejaVuSerif-74" transform="translate(51.318359 0)"/>
      <use xlink:href="#DejaVuSerif-6f" transform="translate(91.503906 0)"/>
      <use xlink:href="#DejaVuSerif-63" transform="translate(151.708984 0)"/>
      <use xlink:href="#DejaVuSerif-68" transform="translate(207.714844 0)"/>
      <use xlink:href="#DejaVuSerif-61" transform="translate(272.119141 0)"/>
      <use xlink:href="#DejaVuSerif-73" transform="translate(331.738281 0)"/>
      <use xlink:href="#DejaVuSerif-74" transform="translate(383.056641 0)"/>
      <use xlink:href="#DejaVuSerif-69" transform="translate(423.242188 0)"/>
      <use xlink:href="#DejaVuSerif-63" transform="translate(455.224609 0)"/>
     </g>
    </g>
    <g id="PathCollection_29">
     <g>
      <use xlink:href="#m12267af2c7" x="535.247109" y="27.678516" style="fill: #d62728; stroke: #000000; stroke-width: 0.4"/>
     </g>
    </g>
    <g id="text_48">
     <!-- neural -->
     <g transform="translate(548.747109 29.647266) scale(0.075 -0.075)">
      <use xlink:href="#DejaVuSerif-6e"/>
      <use xlink:href="#DejaVuSerif-65" transform="translate(64.404297 0)"/>
      <use xlink:href="#DejaVuSerif-75" transform="translate(123.583984 0)"/>
      <use xlink:href="#DejaVuSerif-72" transform="translate(187.988281 0)"/>
      <use xlink:href="#DejaVuSerif-61" transform="translate(235.791016 0)"/>
      <use xlink:href="#DejaVuSerif-6c" transform="translate(295.410156 0)"/>
     </g>
    </g>
    <g id="PathCollection_30">
     <g>
      <use xlink:href="#md4f3c75a12" x="535.247109" y="38.687109" style="fill: #1f77b4; stroke: #000000; stroke-width: 0.4"/>
     </g>
    </g>
    <g id="text_49">
     <!-- entropic-debiased -->
     <g transform="translate(548.747109 40.655859) scale(0.075 -0.075)">
      <use xlink:href="#DejaVuSerif-65"/>
      <use xlink:href="#DejaVuSerif-6e" transform="translate(59.179688 0)"/>
      <use xlink:href="#DejaVuSerif-74" transform="translate(123.583984 0)"/>
      <use xlink:href="#DejaVuSerif-72" transform="translate(163.769531 0)"/>
      <use xlink:href="#DejaVuSerif-6f" transform="translate(211.572266 0)"/>
      <use xlink:href="#DejaVuSerif-70" transform="translate(271.777344 0)"/>
      <use xlink:href="#DejaVuSerif-69" transform="translate(335.791016 0)"/>
      <use xlink:href="#DejaVuSerif-63" transform="translate(367.773438 0)"/>
      <use xlink:href="#DejaVuSerif-2d" transform="translate(423.779297 0)"/>
      <use xlink:href="#DejaVuSerif-64" transform="translate(457.568359 0)"/>
      <use xlink:href="#DejaVuSerif-65" transform="translate(521.582031 0)"/>
      <use xlink:href="#DejaVuSerif-62" transform="translate(580.761719 0)"/>
      <use xlink:href="#DejaVuSerif-69" transform="translate(644.775391 0)"/>
      <use xlink:href="#DejaVuSerif-61" transform="translate(676.757812 0)"/>
      <use xlink:href="#DejaVuSerif-73" transform="translate(736.376953 0)"/>
      <use xlink:href="#DejaVuSerif-65" transform="translate(787.695312 0)"/>
      <use xlink:href="#DejaVuSerif-64" transform="translate(846.875 0)"/>
     </g>
    </g>
    <g id="PathCollection_31">
     <g>
      <use xlink:href="#mbbfd3dba33" x="535.247109" y="49.695703" style="fill: #e377c2; stroke: #000000; stroke-width: 0.4"/>
     </g>
    </g>
    <g id="text_50">
     <!-- unbalanced -->
     <g transform="translate(548.747109 51.664453) scale(0.075 -0.075)">
      <use xlink:href="#DejaVuSerif-75"/>
      <use xlink:href="#DejaVuSerif-6e" transform="translate(64.404297 0)"/>
      <use xlink:href="#DejaVuSerif-62" transform="translate(128.808594 0)"/>
      <use xlink:href="#DejaVuSerif-61" transform="translate(192.822266 0)"/>
      <use xlink:href="#DejaVuSerif-6c" transform="translate(252.441406 0)"/>
      <use xlink:href="#DejaVuSerif-61" transform="translate(284.423828 0)"/>
      <use xlink:href="#DejaVuSerif-6e" transform="translate(344.042969 0)"/>
      <use xlink:href="#DejaVuSerif-63" transform="translate(408.447266 0)"/>
      <use xlink:href="#DejaVuSerif-65" transform="translate(464.453125 0)"/>
      <use xlink:href="#DejaVuSerif-64" transform="translate(523.632812 0)"/>
     </g>
    </g>
    <g id="PathCollection_32">
     <g>
      <use xlink:href="#m7fc182b496" x="535.247109" y="60.704297" style="fill: #2ca02c; stroke: #000000; stroke-width: 0.4"/>
     </g>
    </g>
    <g id="text_51">
     <!-- sliced -->
     <g transform="translate(548.747109 62.673047) scale(0.075 -0.075)">
      <use xlink:href="#DejaVuSerif-73"/>
      <use xlink:href="#DejaVuSerif-6c" transform="translate(51.318359 0)"/>
      <use xlink:href="#DejaVuSerif-69" transform="translate(83.300781 0)"/>
      <use xlink:href="#DejaVuSerif-63" transform="translate(115.283203 0)"/>
      <use xlink:href="#DejaVuSerif-65" transform="translate(171.289062 0)"/>
      <use xlink:href="#DejaVuSerif-64" transform="translate(230.46875 0)"/>
     </g>
    </g>
    <g id="PathCollection_33">
     <g>
      <use xlink:href="#m2584a61bf7" x="535.247109" y="71.712891" style="fill: #17becf; stroke: #000000; stroke-width: 0.4"/>
     </g>
    </g>
    <g id="text_52">
     <!-- attention -->
     <g transform="translate(548.747109 73.681641) scale(0.075 -0.075)">
      <use xlink:href="#DejaVuSerif-61"/>
      <use xlink:href="#DejaVuSerif-74" transform="translate(59.619141 0)"/>
      <use xlink:href="#DejaVuSerif-74" transform="translate(99.804688 0)"/>
      <use xlink:href="#DejaVuSerif-65" transform="translate(139.990234 0)"/>
      <use xlink:href="#DejaVuSerif-6e" transform="translate(199.169922 0)"/>
      <use xlink:href="#DejaVuSerif-74" transform="translate(263.574219 0)"/>
      <use xlink:href="#DejaVuSerif-69" transform="translate(303.759766 0)"/>
      <use xlink:href="#DejaVuSerif-6f" transform="translate(335.742188 0)"/>
      <use xlink:href="#DejaVuSerif-6e" transform="translate(395.947266 0)"/>
     </g>
    </g>
    <g id="PathCollection_34">
     <g>
      <use xlink:href="#m12267af2c7" x="535.247109" y="82.721484" style="fill: #d62728; stroke: #000000; stroke-width: 0.4"/>
     </g>
    </g>
    <g id="text_53">
     <!-- flow -->
     <g transform="translate(548.747109 84.690234) scale(0.075 -0.075)">
      <use xlink:href="#DejaVuSerif-66"/>
      <use xlink:href="#DejaVuSerif-6c" transform="translate(37.011719 0)"/>
      <use xlink:href="#DejaVuSerif-6f" transform="translate(68.994141 0)"/>
      <use xlink:href="#DejaVuSerif-77" transform="translate(129.199219 0)"/>
     </g>
    </g>
   </g>
  </g>
 </g>
 <defs>
  <clipPath id="p1294e02bf0">
   <rect x="40.545" y="17.198437" width="583.27125" height="218.44"/>
  </clipPath>
 </defs>
</svg>
