<?xml version="1.0" encoding="utf-8" standalone="no"?>
<!DOCTYPE svg PUBLIC "-//W3C//DTD SVG 1.1//EN"
  "http://www.w3.org/Graphics/SVG/1.1/DTD/svg11.dtd">
<svg xmlns:xlink="http://www.w3.org/1999/xlink" width="676.243438pt" height="280.478437pt" viewBox="0 0 676.243438 280.478437" xmlns="http://www.w3.org/2000/svg" version="1.1">
 <metadata>
  <rdf:RDF xmlns:dc="http://purl.org/dc/elements/1.1/" xmlns:cc="http://creativecommons.org/ns#" xmlns:rdf="http://www.w3.org/1999/02/22-rdf-syntax-ns#">
   <cc:Work>
    <dc:type rdf:resource="http://purl.org/dc/dcmitype/StillImage"/>
    <dc:date>2026-06-25T23:23:03.778146</dc:date>
    <dc:format>image/svg+xml</dc:format>
    <dc:creator>
     <cc:Agent>
      <dc:title>Matplotlib v3.11.0, https://matplotlib.org/</dc:title>
     </cc:Agent>
    </dc:creator>
   </cc:Work>
  </rdf:RDF>
 </metadata>
 <defs>
  <style type="text/css">*{stroke-linejoin: round; stroke-linecap: butt}</style>
 </defs>
 <g id="figure_1">
  <g id="patch_1">
   <path d="M 0 280.478437 
L 676.243438 280.478437 
L 676.243438 0 
L 0 0 
z
" style="fill: #ffffff"/>
  </g>
  <g id="axes_1">
   <g id="patch_2">
    <path d="M 40.925781 242.278437 
L 669.043437 242.278437 
L 669.043437 20.798437 
L 40.925781 20.798437 
z
" style="fill: #ffffff"/>
   </g>
   <g id="matplotlib.axis_1">
    <g id="xtick_1">
     <g id="line2d_1">
      <path d="M 143.336269 242.278437 
L 143.336269 20.798437 
" clip-path="url(#pb3fe2026d5)" style="fill: none; stroke-dasharray: 0.8,1.32; stroke-dashoffset: 0; stroke: #b0b0b0; stroke-opacity: 0.3; stroke-width: 0.8"/>
     </g>
     <g id="line2d_2">
      <defs>
       <path id="m5083f1512a" d="M 0 0 
L 0 3.5 
" style="stroke: #000000; stroke-width: 0.8"/>
      </defs>
      <g>
       <use xlink:href="#m5083f1512a" x="143.336269" y="242.278437" style="stroke: #000000; stroke-width: 0.8"/>
      </g>
     </g>
     <g id="text_1">
      <!-- 2016 -->
      <g transform="translate(130.611269 256.876094) scale(0.1 -0.1)">
       <defs>
        <path id="DejaVuSans-15" d="M 1228 531 
L 3431 531 
L 3431 0 
L 469 0 
L 469 531 
Q 828 903 1448 1529 
Q 2069 2156 2228 2338 
Q 2531 2678 2651 2914 
Q 2772 3150 2772 3378 
Q 2772 3750 2511 3984 
Q 2250 4219 1831 4219 
Q 1534 4219 1204 4116 
Q 875 4013 500 3803 
L 500 4441 
Q 881 4594 1212 4672 
Q 1544 4750 1819 4750 
Q 2544 4750 2975 4387 
Q 3406 4025 3406 3419 
Q 3406 3131 3298 2873 
Q 3191 2616 2906 2266 
Q 2828 2175 2409 1742 
Q 1991 1309 1228 531 
z
" transform="scale(0.015625)"/>
        <path id="DejaVuSans-13" d="M 2034 4250 
Q 1547 4250 1301 3770 
Q 1056 3291 1056 2328 
Q 1056 1369 1301 889 
Q 1547 409 2034 409 
Q 2525 409 2770 889 
Q 3016 1369 3016 2328 
Q 3016 3291 2770 3770 
Q 2525 4250 2034 4250 
z
M 2034 4750 
Q 2819 4750 3233 4129 
Q 3647 3509 3647 2328 
Q 3647 1150 3233 529 
Q 2819 -91 2034 -91 
Q 1250 -91 836 529 
Q 422 1150 422 2328 
Q 422 3509 836 4129 
Q 1250 4750 2034 4750 
z
" transform="scale(0.015625)"/>
        <path id="DejaVuSans-14" d="M 794 531 
L 1825 531 
L 1825 4091 
L 703 3866 
L 703 4441 
L 1819 4666 
L 2450 4666 
L 2450 531 
L 3481 531 
L 3481 0 
L 794 0 
L 794 531 
z
" transform="scale(0.015625)"/>
        <path id="DejaVuSans-19" d="M 2113 2584 
Q 1688 2584 1439 2293 
Q 1191 2003 1191 1497 
Q 1191 994 1439 701 
Q 1688 409 2113 409 
Q 2538 409 2786 701 
Q 3034 994 3034 1497 
Q 3034 2003 2786 2293 
Q 2538 2584 2113 2584 
z
M 3366 4563 
L 3366 3988 
Q 3128 4100 2886 4159 
Q 2644 4219 2406 4219 
Q 1781 4219 1451 3797 
Q 1122 3375 1075 2522 
Q 1259 2794 1537 2939 
Q 1816 3084 2150 3084 
Q 2853 3084 3261 2657 
Q 3669 2231 3669 1497 
Q 3669 778 3244 343 
Q 2819 -91 2113 -91 
Q 1303 -91 875 529 
Q 447 1150 447 2328 
Q 447 3434 972 4092 
Q 1497 4750 2381 4750 
Q 2619 4750 2861 4703 
Q 3103 4656 3366 4563 
z
" transform="scale(0.015625)"/>
       </defs>
       <use xlink:href="#DejaVuSans-15"/>
       <use xlink:href="#DejaVuSans-13" transform="translate(63.625 0)"/>
       <use xlink:href="#DejaVuSans-14" transform="translate(127.25 0)"/>
       <use xlink:href="#DejaVuSans-19" transform="translate(190.875 0)"/>
      </g>
     </g>
    </g>
    <g id="xtick_2">
     <g id="line2d_3">
      <path d="M 279.883585 242.278437 
L 279.883585 20.798437 
" clip-path="url(#pb3fe2026d5)" style="fill: none; stroke-dasharray: 0.8,1.32; stroke-dashoffset: 0; stroke: #b0b0b0; stroke-opacity: 0.3; stroke-width: 0.8"/>
     </g>
     <g id="line2d_4">
      <g>
       <use xlink:href="#m5083f1512a" x="279.883585" y="242.278437" style="stroke: #000000; stroke-width: 0.8"/>
      </g>
     </g>
     <g id="text_2">
      <!-- 2018 -->
      <g transform="translate(267.158585 256.876094) scale(0.1 -0.1)">
       <defs>
        <path id="DejaVuSans-1b" d="M 2034 2216 
Q 1584 2216 1326 1975 
Q 1069 1734 1069 1313 
Q 1069 891 1326 650 
Q 1584 409 2034 409 
Q 2484 409 2743 651 
Q 3003 894 3003 1313 
Q 3003 1734 2745 1975 
Q 2488 2216 2034 2216 
z
M 1403 2484 
Q 997 2584 770 2862 
Q 544 3141 544 3541 
Q 544 4100 942 4425 
Q 1341 4750 2034 4750 
Q 2731 4750 3128 4425 
Q 3525 4100 3525 3541 
Q 3525 3141 3298 2862 
Q 3072 2584 2669 2484 
Q 3125 2378 3379 2068 
Q 3634 1759 3634 1313 
Q 3634 634 3220 271 
Q 2806 -91 2034 -91 
Q 1263 -91 848 271 
Q 434 634 434 1313 
Q 434 1759 690 2068 
Q 947 2378 1403 2484 
z
M 1172 3481 
Q 1172 3119 1398 2916 
Q 1625 2713 2034 2713 
Q 2441 2713 2670 2916 
Q 2900 3119 2900 3481 
Q 2900 3844 2670 4047 
Q 2441 4250 2034 4250 
Q 1625 4250 1398 4047 
Q 1172 3844 1172 3481 
z
" transform="scale(0.015625)"/>
       </defs>
       <use xlink:href="#DejaVuSans-15"/>
       <use xlink:href="#DejaVuSans-13" transform="translate(63.625 0)"/>
       <use xlink:href="#DejaVuSans-14" transform="translate(127.25 0)"/>
       <use xlink:href="#DejaVuSans-1b" transform="translate(190.875 0)"/>
      </g>
     </g>
    </g>
    <g id="xtick_3">
     <g id="line2d_5">
      <path d="M 416.430902 242.278437 
L 416.430902 20.798437 
" clip-path="url(#pb3fe2026d5)" style="fill: none; stroke-dasharray: 0.8,1.32; stroke-dashoffset: 0; stroke: #b0b0b0; stroke-opacity: 0.3; stroke-width: 0.8"/>
     </g>
     <g id="line2d_6">
      <g>
       <use xlink:href="#m5083f1512a" x="416.430902" y="242.278437" style="stroke: #000000; stroke-width: 0.8"/>
      </g>
     </g>
     <g id="text_3">
      <!-- 2020 -->
      <g transform="translate(403.705902 256.876094) scale(0.1 -0.1)">
       <use xlink:href="#DejaVuSans-15"/>
       <use xlink:href="#DejaVuSans-13" transform="translate(63.625 0)"/>
       <use xlink:href="#DejaVuSans-15" transform="translate(127.25 0)"/>
       <use xlink:href="#DejaVuSans-13" transform="translate(190.875 0)"/>
      </g>
     </g>
    </g>
    <g id="xtick_4">
     <g id="line2d_7">
      <path d="M 552.978218 242.278437 
L 552.978218 20.798437 
" clip-path="url(#pb3fe2026d5)" style="fill: none; stroke-dasharray: 0.8,1.32; stroke-dashoffset: 0; stroke: #b0b0b0; stroke-opacity: 0.3; stroke-width: 0.8"/>
     </g>
     <g id="line2d_8">
      <g>
       <use xlink:href="#m5083f1512a" x="552.978218" y="242.278437" style="stroke: #000000; stroke-width: 0.8"/>
      </g>
     </g>
     <g id="text_4">
      <!-- 2022 -->
      <g transform="translate(540.253218 256.876094) scale(0.1 -0.1)">
       <use xlink:href="#DejaVuSans-15"/>
       <use xlink:href="#DejaVuSans-13" transform="translate(63.625 0)"/>
       <use xlink:href="#DejaVuSans-15" transform="translate(127.25 0)"/>
       <use xlink:href="#DejaVuSans-15" transform="translate(190.875 0)"/>
      </g>
     </g>
    </g>
    <g id="text_5">
     <!-- year -->
     <g transform="translate(343.829141 270.876094) scale(0.1 -0.1)">
      <defs>
       <path id="DejaVuSans-5c" d="M 2059 -325 
Q 1816 -950 1584 -1140 
Q 1353 -1331 966 -1331 
L 506 -1331 
L 506 -850 
L 844 -850 
Q 1081 -850 1212 -737 
Q 1344 -625 1503 -206 
L 1606 56 
L 191 3500 
L 800 3500 
L 1894 763 
L 2988 3500 
L 3597 3500 
L 2059 -325 
z
" transform="scale(0.015625)"/>
       <path id="DejaVuSans-48" d="M 3597 1894 
L 3597 1613 
L 953 1613 
Q 991 1019 1311 708 
Q 1631 397 2203 397 
Q 2534 397 2845 478 
Q 3156 559 3463 722 
L 3463 178 
Q 3153 47 2828 -22 
Q 2503 -91 2169 -91 
Q 1331 -91 842 396 
Q 353 884 353 1716 
Q 353 2575 817 3079 
Q 1281 3584 2069 3584 
Q 2775 3584 3186 3129 
Q 3597 2675 3597 1894 
z
M 3022 2063 
Q 3016 2534 2758 2815 
Q 2500 3097 2075 3097 
Q 1594 3097 1305 2825 
Q 1016 2553 972 2059 
L 3022 2063 
z
" transform="scale(0.015625)"/>
       <path id="DejaVuSans-44" d="M 2194 1759 
Q 1497 1759 1228 1600 
Q 959 1441 959 1056 
Q 959 750 1161 570 
Q 1363 391 1709 391 
Q 2188 391 2477 730 
Q 2766 1069 2766 1631 
L 2766 1759 
L 2194 1759 
z
M 3341 1997 
L 3341 0 
L 2766 0 
L 2766 531 
Q 2569 213 2275 61 
Q 1981 -91 1556 -91 
Q 1019 -91 701 211 
Q 384 513 384 1019 
Q 384 1609 779 1909 
Q 1175 2209 1959 2209 
L 2766 2209 
L 2766 2266 
Q 2766 2663 2505 2880 
Q 2244 3097 1772 3097 
Q 1472 3097 1187 3025 
Q 903 2953 641 2809 
L 641 3341 
Q 956 3463 1253 3523 
Q 1550 3584 1831 3584 
Q 2591 3584 2966 3190 
Q 3341 2797 3341 1997 
z
" transform="scale(0.015625)"/>
       <path id="DejaVuSans-55" d="M 2631 2963 
Q 2534 3019 2420 3045 
Q 2306 3072 2169 3072 
Q 1681 3072 1420 2755 
Q 1159 2438 1159 1844 
L 1159 0 
L 581 0 
L 581 3500 
L 1159 3500 
L 1159 2956 
Q 1341 3275 1631 3429 
Q 1922 3584 2338 3584 
Q 2397 3584 2469 3576 
Q 2541 3569 2628 3553 
L 2631 2963 
z
" transform="scale(0.015625)"/>
      </defs>
      <use xlink:href="#DejaVuSans-5c"/>
      <use xlink:href="#DejaVuSans-48" transform="translate(59.1875 0)"/>
      <use xlink:href="#DejaVuSans-44" transform="translate(120.71875 0)"/>
      <use xlink:href="#DejaVuSans-55" transform="translate(182 0)"/>
     </g>
    </g>
   </g>
   <g id="matplotlib.axis_2">
    <g id="ytick_1">
     <g id="line2d_9">
      <path d="M 40.925781 242.278437 
L 669.043437 242.278437 
" clip-path="url(#pb3fe2026d5)" style="fill: none; stroke-dasharray: 0.8,1.32; stroke-dashoffset: 0; stroke: #b0b0b0; stroke-opacity: 0.3; stroke-width: 0.8"/>
     </g>
     <g id="line2d_10">
      <defs>
       <path id="m3ac6bd208e" d="M 0 0 
L -3.5 0 
" style="stroke: #000000; stroke-width: 0.8"/>
      </defs>
      <g>
       <use xlink:href="#m3ac6bd208e" x="40.925781" y="242.278437" style="stroke: #000000; stroke-width: 0.8"/>
      </g>
     </g>
     <g id="text_6">
      <!-- 60 -->
      <g transform="translate(21.200781 246.077266) scale(0.1 -0.1)">
       <use xlink:href="#DejaVuSans-19"/>
       <use xlink:href="#DejaVuSans-13" transform="translate(63.625 0)"/>
      </g>
     </g>
    </g>
    <g id="ytick_2">
     <g id="line2d_11">
      <path d="M 40.925781 205.365104 
L 669.043437 205.365104 
" clip-path="url(#pb3fe2026d5)" style="fill: none; stroke-dasharray: 0.8,1.32; stroke-dashoffset: 0; stroke: #b0b0b0; stroke-opacity: 0.3; stroke-width: 0.8"/>
     </g>
     <g id="line2d_12">
      <g>
       <use xlink:href="#m3ac6bd208e" x="40.925781" y="205.365104" style="stroke: #000000; stroke-width: 0.8"/>
      </g>
     </g>
     <g id="text_7">
      <!-- 65 -->
      <g transform="translate(21.200781 209.163932) scale(0.1 -0.1)">
       <defs>
        <path id="DejaVuSans-18" d="M 691 4666 
L 3169 4666 
L 3169 4134 
L 1269 4134 
L 1269 2991 
Q 1406 3038 1543 3061 
Q 1681 3084 1819 3084 
Q 2600 3084 3056 2656 
Q 3513 2228 3513 1497 
Q 3513 744 3044 326 
Q 2575 -91 1722 -91 
Q 1428 -91 1123 -41 
Q 819 9 494 109 
L 494 744 
Q 775 591 1075 516 
Q 1375 441 1709 441 
Q 2250 441 2565 725 
Q 2881 1009 2881 1497 
Q 2881 1984 2565 2268 
Q 2250 2553 1709 2553 
Q 1456 2553 1204 2497 
Q 953 2441 691 2322 
L 691 4666 
z
" transform="scale(0.015625)"/>
       </defs>
       <use xlink:href="#DejaVuSans-19"/>
       <use xlink:href="#DejaVuSans-18" transform="translate(63.625 0)"/>
      </g>
     </g>
    </g>
    <g id="ytick_3">
     <g id="line2d_13">
      <path d="M 40.925781 168.451771 
L 669.043437 168.451771 
" clip-path="url(#pb3fe2026d5)" style="fill: none; stroke-dasharray: 0.8,1.32; stroke-dashoffset: 0; stroke: #b0b0b0; stroke-opacity: 0.3; stroke-width: 0.8"/>
     </g>
     <g id="line2d_14">
      <g>
       <use xlink:href="#m3ac6bd208e" x="40.925781" y="168.451771" style="stroke: #000000; stroke-width: 0.8"/>
      </g>
     </g>
     <g id="text_8">
      <!-- 70 -->
      <g transform="translate(21.200781 172.250599) scale(0.1 -0.1)">
       <defs>
        <path id="DejaVuSans-1a" d="M 525 4666 
L 3525 4666 
L 3525 4397 
L 1831 0 
L 1172 0 
L 2766 4134 
L 525 4134 
L 525 4666 
z
" transform="scale(0.015625)"/>
       </defs>
       <use xlink:href="#DejaVuSans-1a"/>
       <use xlink:href="#DejaVuSans-13" transform="translate(63.625 0)"/>
      </g>
     </g>
    </g>
    <g id="ytick_4">
     <g id="line2d_15">
      <path d="M 40.925781 131.538437 
L 669.043437 131.538437 
" clip-path="url(#pb3fe2026d5)" style="fill: none; stroke-dasharray: 0.8,1.32; stroke-dashoffset: 0; stroke: #b0b0b0; stroke-opacity: 0.3; stroke-width: 0.8"/>
     </g>
     <g id="line2d_16">
      <g>
       <use xlink:href="#m3ac6bd208e" x="40.925781" y="131.538437" style="stroke: #000000; stroke-width: 0.8"/>
      </g>
     </g>
     <g id="text_9">
      <!-- 75 -->
      <g transform="translate(21.200781 135.337266) scale(0.1 -0.1)">
       <use xlink:href="#DejaVuSans-1a"/>
       <use xlink:href="#DejaVuSans-18" transform="translate(63.625 0)"/>
      </g>
     </g>
    </g>
    <g id="ytick_5">
     <g id="line2d_17">
      <path d="M 40.925781 94.625104 
L 669.043437 94.625104 
" clip-path="url(#pb3fe2026d5)" style="fill: none; stroke-dasharray: 0.8,1.32; stroke-dashoffset: 0; stroke: #b0b0b0; stroke-opacity: 0.3; stroke-width: 0.8"/>
     </g>
     <g id="line2d_18">
      <g>
       <use xlink:href="#m3ac6bd208e" x="40.925781" y="94.625104" style="stroke: #000000; stroke-width: 0.8"/>
      </g>
     </g>
     <g id="text_10">
      <!-- 80 -->
      <g transform="translate(21.200781 98.423932) scale(0.1 -0.1)">
       <use xlink:href="#DejaVuSans-1b"/>
       <use xlink:href="#DejaVuSans-13" transform="translate(63.625 0)"/>
      </g>
     </g>
    </g>
    <g id="ytick_6">
     <g id="line2d_19">
      <path d="M 40.925781 57.711771 
L 669.043437 57.711771 
" clip-path="url(#pb3fe2026d5)" style="fill: none; stroke-dasharray: 0.8,1.32; stroke-dashoffset: 0; stroke: #b0b0b0; stroke-opacity: 0.3; stroke-width: 0.8"/>
     </g>
     <g id="line2d_20">
      <g>
       <use xlink:href="#m3ac6bd208e" x="40.925781" y="57.711771" style="stroke: #000000; stroke-width: 0.8"/>
      </g>
     </g>
     <g id="text_11">
      <!-- 85 -->
      <g transform="translate(21.200781 61.510599) scale(0.1 -0.1)">
       <use xlink:href="#DejaVuSans-1b"/>
       <use xlink:href="#DejaVuSans-18" transform="translate(63.625 0)"/>
      </g>
     </g>
    </g>
    <g id="ytick_7">
     <g id="line2d_21">
      <path d="M 40.925781 20.798437 
L 669.043437 20.798437 
" clip-path="url(#pb3fe2026d5)" style="fill: none; stroke-dasharray: 0.8,1.32; stroke-dashoffset: 0; stroke: #b0b0b0; stroke-opacity: 0.3; stroke-width: 0.8"/>
     </g>
     <g id="line2d_22">
      <g>
       <use xlink:href="#m3ac6bd208e" x="40.925781" y="20.798437" style="stroke: #000000; stroke-width: 0.8"/>
      </g>
     </g>
     <g id="text_12">
      <!-- 90 -->
      <g transform="translate(21.200781 24.597266) scale(0.1 -0.1)">
       <defs>
        <path id="DejaVuSans-1c" d="M 703 97 
L 703 672 
Q 941 559 1184 500 
Q 1428 441 1663 441 
Q 2288 441 2617 861 
Q 2947 1281 2994 2138 
Q 2813 1869 2534 1725 
Q 2256 1581 1919 1581 
Q 1219 1581 811 2004 
Q 403 2428 403 3163 
Q 403 3881 828 4315 
Q 1253 4750 1959 4750 
Q 2769 4750 3195 4129 
Q 3622 3509 3622 2328 
Q 3622 1225 3098 567 
Q 2575 -91 1691 -91 
Q 1453 -91 1209 -44 
Q 966 3 703 97 
z
M 1959 2075 
Q 2384 2075 2632 2365 
Q 2881 2656 2881 3163 
Q 2881 3666 2632 3958 
Q 2384 4250 1959 4250 
Q 1534 4250 1286 3958 
Q 1038 3666 1038 3163 
Q 1038 2656 1286 2365 
Q 1534 2075 1959 2075 
z
" transform="scale(0.015625)"/>
       </defs>
       <use xlink:href="#DejaVuSans-1c"/>
       <use xlink:href="#DejaVuSans-13" transform="translate(63.625 0)"/>
      </g>
     </g>
    </g>
    <g id="text_13">
     <!-- headline student top-1 (% on CIFAR-100 / GLUE) -->
     <g transform="translate(14.798438 251.679062) rotate(-90) scale(0.1 -0.1)">
      <defs>
       <path id="DejaVuSans-4b" d="M 3513 2113 
L 3513 0 
L 2938 0 
L 2938 2094 
Q 2938 2591 2744 2837 
Q 2550 3084 2163 3084 
Q 1697 3084 1428 2787 
Q 1159 2491 1159 1978 
L 1159 0 
L 581 0 
L 581 4863 
L 1159 4863 
L 1159 2956 
Q 1366 3272 1645 3428 
Q 1925 3584 2291 3584 
Q 2894 3584 3203 3211 
Q 3513 2838 3513 2113 
z
" transform="scale(0.015625)"/>
       <path id="DejaVuSans-47" d="M 2906 2969 
L 2906 4863 
L 3481 4863 
L 3481 0 
L 2906 0 
L 2906 525 
Q 2725 213 2448 61 
Q 2172 -91 1784 -91 
Q 1150 -91 751 415 
Q 353 922 353 1747 
Q 353 2572 751 3078 
Q 1150 3584 1784 3584 
Q 2172 3584 2448 3432 
Q 2725 3281 2906 2969 
z
M 947 1747 
Q 947 1113 1208 752 
Q 1469 391 1925 391 
Q 2381 391 2643 752 
Q 2906 1113 2906 1747 
Q 2906 2381 2643 2742 
Q 2381 3103 1925 3103 
Q 1469 3103 1208 2742 
Q 947 2381 947 1747 
z
" transform="scale(0.015625)"/>
       <path id="DejaVuSans-4f" d="M 603 4863 
L 1178 4863 
L 1178 0 
L 603 0 
L 603 4863 
z
" transform="scale(0.015625)"/>
       <path id="DejaVuSans-4c" d="M 603 3500 
L 1178 3500 
L 1178 0 
L 603 0 
L 603 3500 
z
M 603 4863 
L 1178 4863 
L 1178 4134 
L 603 4134 
L 603 4863 
z
" transform="scale(0.015625)"/>
       <path id="DejaVuSans-51" d="M 3513 2113 
L 3513 0 
L 2938 0 
L 2938 2094 
Q 2938 2591 2744 2837 
Q 2550 3084 2163 3084 
Q 1697 3084 1428 2787 
Q 1159 2491 1159 1978 
L 1159 0 
L 581 0 
L 581 3500 
L 1159 3500 
L 1159 2956 
Q 1366 3272 1645 3428 
Q 1925 3584 2291 3584 
Q 2894 3584 3203 3211 
Q 3513 2838 3513 2113 
z
" transform="scale(0.015625)"/>
       <path id="DejaVuSans-3" transform="scale(0.015625)"/>
       <path id="DejaVuSans-56" d="M 2834 3397 
L 2834 2853 
Q 2591 2978 2328 3040 
Q 2066 3103 1784 3103 
Q 1356 3103 1142 2972 
Q 928 2841 928 2578 
Q 928 2378 1081 2264 
Q 1234 2150 1697 2047 
L 1894 2003 
Q 2506 1872 2764 1633 
Q 3022 1394 3022 966 
Q 3022 478 2636 193 
Q 2250 -91 1575 -91 
Q 1294 -91 989 -36 
Q 684 19 347 128 
L 347 722 
Q 666 556 975 473 
Q 1284 391 1588 391 
Q 1994 391 2212 530 
Q 2431 669 2431 922 
Q 2431 1156 2273 1281 
Q 2116 1406 1581 1522 
L 1381 1569 
Q 847 1681 609 1914 
Q 372 2147 372 2553 
Q 372 3047 722 3315 
Q 1072 3584 1716 3584 
Q 2034 3584 2315 3537 
Q 2597 3491 2834 3397 
z
" transform="scale(0.015625)"/>
       <path id="DejaVuSans-57" d="M 1172 4494 
L 1172 3500 
L 2356 3500 
L 2356 3053 
L 1172 3053 
L 1172 1153 
Q 1172 725 1289 603 
Q 1406 481 1766 481 
L 2356 481 
L 2356 0 
L 1766 0 
Q 1100 0 847 248 
Q 594 497 594 1153 
L 594 3053 
L 172 3053 
L 172 3500 
L 594 3500 
L 594 4494 
L 1172 4494 
z
" transform="scale(0.015625)"/>
       <path id="DejaVuSans-58" d="M 544 1381 
L 544 3500 
L 1119 3500 
L 1119 1403 
Q 1119 906 1312 657 
Q 1506 409 1894 409 
Q 2359 409 2629 706 
Q 2900 1003 2900 1516 
L 2900 3500 
L 3475 3500 
L 3475 0 
L 2900 0 
L 2900 538 
Q 2691 219 2414 64 
Q 2138 -91 1772 -91 
Q 1169 -91 856 284 
Q 544 659 544 1381 
z
M 1991 3584 
L 1991 3584 
z
" transform="scale(0.015625)"/>
       <path id="DejaVuSans-52" d="M 1959 3097 
Q 1497 3097 1228 2736 
Q 959 2375 959 1747 
Q 959 1119 1226 758 
Q 1494 397 1959 397 
Q 2419 397 2687 759 
Q 2956 1122 2956 1747 
Q 2956 2369 2687 2733 
Q 2419 3097 1959 3097 
z
M 1959 3584 
Q 2709 3584 3137 3096 
Q 3566 2609 3566 1747 
Q 3566 888 3137 398 
Q 2709 -91 1959 -91 
Q 1206 -91 779 398 
Q 353 888 353 1747 
Q 353 2609 779 3096 
Q 1206 3584 1959 3584 
z
" transform="scale(0.015625)"/>
       <path id="DejaVuSans-53" d="M 1159 525 
L 1159 -1331 
L 581 -1331 
L 581 3500 
L 1159 3500 
L 1159 2969 
Q 1341 3281 1617 3432 
Q 1894 3584 2278 3584 
Q 2916 3584 3314 3078 
Q 3713 2572 3713 1747 
Q 3713 922 3314 415 
Q 2916 -91 2278 -91 
Q 1894 -91 1617 61 
Q 1341 213 1159 525 
z
M 3116 1747 
Q 3116 2381 2855 2742 
Q 2594 3103 2138 3103 
Q 1681 3103 1420 2742 
Q 1159 2381 1159 1747 
Q 1159 1113 1420 752 
Q 1681 391 2138 391 
Q 2594 391 2855 752 
Q 3116 1113 3116 1747 
z
" transform="scale(0.015625)"/>
       <path id="DejaVuSans-10" d="M 313 2009 
L 1997 2009 
L 1997 1497 
L 313 1497 
L 313 2009 
z
" transform="scale(0.015625)"/>
       <path id="DejaVuSans-b" d="M 1984 4856 
Q 1566 4138 1362 3434 
Q 1159 2731 1159 2009 
Q 1159 1288 1364 580 
Q 1569 -128 1984 -844 
L 1484 -844 
Q 1016 -109 783 600 
Q 550 1309 550 2009 
Q 550 2706 781 3412 
Q 1013 4119 1484 4856 
L 1984 4856 
z
" transform="scale(0.015625)"/>
       <path id="DejaVuSans-8" d="M 4653 2053 
Q 4381 2053 4226 1822 
Q 4072 1591 4072 1178 
Q 4072 772 4226 539 
Q 4381 306 4653 306 
Q 4919 306 5073 539 
Q 5228 772 5228 1178 
Q 5228 1588 5073 1820 
Q 4919 2053 4653 2053 
z
M 4653 2450 
Q 5147 2450 5437 2106 
Q 5728 1763 5728 1178 
Q 5728 594 5436 251 
Q 5144 -91 4653 -91 
Q 4153 -91 3862 251 
Q 3572 594 3572 1178 
Q 3572 1766 3864 2108 
Q 4156 2450 4653 2450 
z
M 1428 4353 
Q 1159 4353 1004 4120 
Q 850 3888 850 3481 
Q 850 3069 1003 2837 
Q 1156 2606 1428 2606 
Q 1700 2606 1854 2837 
Q 2009 3069 2009 3481 
Q 2009 3884 1853 4118 
Q 1697 4353 1428 4353 
z
M 4250 4750 
L 4750 4750 
L 1831 -91 
L 1331 -91 
L 4250 4750 
z
M 1428 4750 
Q 1922 4750 2215 4408 
Q 2509 4066 2509 3481 
Q 2509 2891 2217 2550 
Q 1925 2209 1428 2209 
Q 931 2209 642 2551 
Q 353 2894 353 3481 
Q 353 4063 643 4406 
Q 934 4750 1428 4750 
z
" transform="scale(0.015625)"/>
       <path id="DejaVuSans-26" d="M 4122 4306 
L 4122 3641 
Q 3803 3938 3442 4084 
Q 3081 4231 2675 4231 
Q 1875 4231 1450 3742 
Q 1025 3253 1025 2328 
Q 1025 1406 1450 917 
Q 1875 428 2675 428 
Q 3081 428 3442 575 
Q 3803 722 4122 1019 
L 4122 359 
Q 3791 134 3420 21 
Q 3050 -91 2638 -91 
Q 1578 -91 968 557 
Q 359 1206 359 2328 
Q 359 3453 968 4101 
Q 1578 4750 2638 4750 
Q 3056 4750 3426 4639 
Q 3797 4528 4122 4306 
z
" transform="scale(0.015625)"/>
       <path id="DejaVuSans-2c" d="M 628 4666 
L 1259 4666 
L 1259 0 
L 628 0 
L 628 4666 
z
" transform="scale(0.015625)"/>
       <path id="DejaVuSans-29" d="M 628 4666 
L 3309 4666 
L 3309 4134 
L 1259 4134 
L 1259 2759 
L 3109 2759 
L 3109 2228 
L 1259 2228 
L 1259 0 
L 628 0 
L 628 4666 
z
" transform="scale(0.015625)"/>
       <path id="DejaVuSans-24" d="M 2188 4044 
L 1331 1722 
L 3047 1722 
L 2188 4044 
z
M 1831 4666 
L 2547 4666 
L 4325 0 
L 3669 0 
L 3244 1197 
L 1141 1197 
L 716 0 
L 50 0 
L 1831 4666 
z
" transform="scale(0.015625)"/>
       <path id="DejaVuSans-35" d="M 2841 2188 
Q 3044 2119 3236 1894 
Q 3428 1669 3622 1275 
L 4263 0 
L 3584 0 
L 2988 1197 
Q 2756 1666 2539 1819 
Q 2322 1972 1947 1972 
L 1259 1972 
L 1259 0 
L 628 0 
L 628 4666 
L 2053 4666 
Q 2853 4666 3247 4331 
Q 3641 3997 3641 3322 
Q 3641 2881 3436 2590 
Q 3231 2300 2841 2188 
z
M 1259 4147 
L 1259 2491 
L 2053 2491 
Q 2509 2491 2742 2702 
Q 2975 2913 2975 3322 
Q 2975 3731 2742 3939 
Q 2509 4147 2053 4147 
L 1259 4147 
z
" transform="scale(0.015625)"/>
       <path id="DejaVuSans-12" d="M 1625 4666 
L 2156 4666 
L 531 -594 
L 0 -594 
L 1625 4666 
z
" transform="scale(0.015625)"/>
       <path id="DejaVuSans-2a" d="M 3809 666 
L 3809 1919 
L 2778 1919 
L 2778 2438 
L 4434 2438 
L 4434 434 
Q 4069 175 3628 42 
Q 3188 -91 2688 -91 
Q 1594 -91 976 548 
Q 359 1188 359 2328 
Q 359 3472 976 4111 
Q 1594 4750 2688 4750 
Q 3144 4750 3555 4637 
Q 3966 4525 4313 4306 
L 4313 3634 
Q 3963 3931 3569 4081 
Q 3175 4231 2741 4231 
Q 1884 4231 1454 3753 
Q 1025 3275 1025 2328 
Q 1025 1384 1454 906 
Q 1884 428 2741 428 
Q 3075 428 3337 486 
Q 3600 544 3809 666 
z
" transform="scale(0.015625)"/>
       <path id="DejaVuSans-2f" d="M 628 4666 
L 1259 4666 
L 1259 531 
L 3531 531 
L 3531 0 
L 628 0 
L 628 4666 
z
" transform="scale(0.015625)"/>
       <path id="DejaVuSans-38" d="M 556 4666 
L 1191 4666 
L 1191 1831 
Q 1191 1081 1462 751 
Q 1734 422 2344 422 
Q 2950 422 3222 751 
Q 3494 1081 3494 1831 
L 3494 4666 
L 4128 4666 
L 4128 1753 
Q 4128 841 3676 375 
Q 3225 -91 2344 -91 
Q 1459 -91 1007 375 
Q 556 841 556 1753 
L 556 4666 
z
" transform="scale(0.015625)"/>
       <path id="DejaVuSans-28" d="M 628 4666 
L 3578 4666 
L 3578 4134 
L 1259 4134 
L 1259 2753 
L 3481 2753 
L 3481 2222 
L 1259 2222 
L 1259 531 
L 3634 531 
L 3634 0 
L 628 0 
L 628 4666 
z
" transform="scale(0.015625)"/>
       <path id="DejaVuSans-c" d="M 513 4856 
L 1013 4856 
Q 1481 4119 1714 3412 
Q 1947 2706 1947 2009 
Q 1947 1309 1714 600 
Q 1481 -109 1013 -844 
L 513 -844 
Q 928 -128 1133 580 
Q 1338 1288 1338 2009 
Q 1338 2731 1133 3434 
Q 928 4138 513 4856 
z
" transform="scale(0.015625)"/>
      </defs>
      <use xlink:href="#DejaVuSans-4b"/>
      <use xlink:href="#DejaVuSans-48" transform="translate(63.375 0)"/>
      <use xlink:href="#DejaVuSans-44" transform="translate(124.90625 0)"/>
      <use xlink:href="#DejaVuSans-47" transform="translate(186.1875 0)"/>
      <use xlink:href="#DejaVuSans-4f" transform="translate(249.671875 0)"/>
      <use xlink:href="#DejaVuSans-4c" transform="translate(277.453125 0)"/>
      <use xlink:href="#DejaVuSans-51" transform="translate(305.234375 0)"/>
      <use xlink:href="#DejaVuSans-48" transform="translate(368.609375 0)"/>
      <use xlink:href="#DejaVuSans-3" transform="translate(430.140625 0)"/>
      <use xlink:href="#DejaVuSans-56" transform="translate(461.921875 0)"/>
      <use xlink:href="#DejaVuSans-57" transform="translate(514.015625 0)"/>
      <use xlink:href="#DejaVuSans-58" transform="translate(553.21875 0)"/>
      <use xlink:href="#DejaVuSans-47" transform="translate(616.59375 0)"/>
      <use xlink:href="#DejaVuSans-48" transform="translate(680.078125 0)"/>
      <use xlink:href="#DejaVuSans-51" transform="translate(741.609375 0)"/>
      <use xlink:href="#DejaVuSans-57" transform="translate(804.984375 0)"/>
      <use xlink:href="#DejaVuSans-3" transform="translate(844.1875 0)"/>
      <use xlink:href="#DejaVuSans-57" transform="translate(875.96875 0)"/>
      <use xlink:href="#DejaVuSans-52" transform="translate(915.171875 0)"/>
      <use xlink:href="#DejaVuSans-53" transform="translate(976.359375 0)"/>
      <use xlink:href="#DejaVuSans-10" transform="translate(1039.84375 0)"/>
      <use xlink:href="#DejaVuSans-14" transform="translate(1075.921875 0)"/>
      <use xlink:href="#DejaVuSans-3" transform="translate(1139.546875 0)"/>
      <use xlink:href="#DejaVuSans-b" transform="translate(1171.328125 0)"/>
      <use xlink:href="#DejaVuSans-8" transform="translate(1210.34375 0)"/>
      <use xlink:href="#DejaVuSans-3" transform="translate(1305.359375 0)"/>
      <use xlink:href="#DejaVuSans-52" transform="translate(1337.140625 0)"/>
      <use xlink:href="#DejaVuSans-51" transform="translate(1398.328125 0)"/>
      <use xlink:href="#DejaVuSans-3" transform="translate(1461.703125 0)"/>
      <use xlink:href="#DejaVuSans-26" transform="translate(1493.484375 0)"/>
      <use xlink:href="#DejaVuSans-2c" transform="translate(1563.3125 0)"/>
      <use xlink:href="#DejaVuSans-29" transform="translate(1592.8125 0)"/>
      <use xlink:href="#DejaVuSans-24" transform="translate(1641.15625 0)"/>
      <use xlink:href="#DejaVuSans-35" transform="translate(1709.5625 0)"/>
      <use xlink:href="#DejaVuSans-10" transform="translate(1775 0)"/>
      <use xlink:href="#DejaVuSans-14" transform="translate(1811.078125 0)"/>
      <use xlink:href="#DejaVuSans-13" transform="translate(1874.703125 0)"/>
      <use xlink:href="#DejaVuSans-13" transform="translate(1938.328125 0)"/>
      <use xlink:href="#DejaVuSans-3" transform="translate(2001.953125 0)"/>
      <use xlink:href="#DejaVuSans-12" transform="translate(2033.734375 0)"/>
      <use xlink:href="#DejaVuSans-3" transform="translate(2067.421875 0)"/>
      <use xlink:href="#DejaVuSans-2a" transform="translate(2099.203125 0)"/>
      <use xlink:href="#DejaVuSans-2f" transform="translate(2176.6875 0)"/>
      <use xlink:href="#DejaVuSans-38" transform="translate(2227.421875 0)"/>
      <use xlink:href="#DejaVuSans-28" transform="translate(2300.609375 0)"/>
      <use xlink:href="#DejaVuSans-c" transform="translate(2363.796875 0)"/>
     </g>
    </g>
   </g>
   <g id="line2d_23">
    <path d="M 40.925781 127.108838 
L 669.043437 127.108838 
" clip-path="url(#pb3fe2026d5)" style="fill: none; stroke-dasharray: 0.8,1.32; stroke-dashoffset: 0; stroke: #000000; stroke-opacity: 0.6; stroke-width: 0.8"/>
   </g>
   <g id="patch_3">
    <path d="M 40.925781 242.278437 
L 40.925781 20.798437 
" style="fill: none; stroke: #000000; stroke-width: 0.8; stroke-linejoin: miter; stroke-linecap: square"/>
   </g>
   <g id="patch_4">
    <path d="M 40.925781 242.278437 
L 669.043437 242.278437 
" style="fill: none; stroke: #000000; stroke-width: 0.8; stroke-linejoin: miter; stroke-linecap: square"/>
   </g>
   <g id="text_14">
    <!-- WRN-40-2 teacher (75.6%) -->
    <g transform="translate(492.891029 123.710429) scale(0.08 -0.08)">
     <defs>
      <path id="DejaVuSans-3a" d="M 213 4666 
L 850 4666 
L 1831 722 
L 2809 4666 
L 3519 4666 
L 4500 722 
L 5478 4666 
L 6119 4666 
L 4947 0 
L 4153 0 
L 3169 4050 
L 2175 0 
L 1381 0 
L 213 4666 
z
" transform="scale(0.015625)"/>
      <path id="DejaVuSans-31" d="M 628 4666 
L 1478 4666 
L 3547 763 
L 3547 4666 
L 4159 4666 
L 4159 0 
L 3309 0 
L 1241 3903 
L 1241 0 
L 628 0 
L 628 4666 
z
" transform="scale(0.015625)"/>
      <path id="DejaVuSans-17" d="M 2419 4116 
L 825 1625 
L 2419 1625 
L 2419 4116 
z
M 2253 4666 
L 3047 4666 
L 3047 1625 
L 3713 1625 
L 3713 1100 
L 3047 1100 
L 3047 0 
L 2419 0 
L 2419 1100 
L 313 1100 
L 313 1709 
L 2253 4666 
z
" transform="scale(0.015625)"/>
      <path id="DejaVuSans-46" d="M 3122 3366 
L 3122 2828 
Q 2878 2963 2633 3030 
Q 2388 3097 2138 3097 
Q 1578 3097 1268 2742 
Q 959 2388 959 1747 
Q 959 1106 1268 751 
Q 1578 397 2138 397 
Q 2388 397 2633 464 
Q 2878 531 3122 666 
L 3122 134 
Q 2881 22 2623 -34 
Q 2366 -91 2075 -91 
Q 1284 -91 818 406 
Q 353 903 353 1747 
Q 353 2603 823 3093 
Q 1294 3584 2113 3584 
Q 2378 3584 2631 3529 
Q 2884 3475 3122 3366 
z
" transform="scale(0.015625)"/>
      <path id="DejaVuSans-11" d="M 684 794 
L 1344 794 
L 1344 0 
L 684 0 
L 684 794 
z
" transform="scale(0.015625)"/>
     </defs>
     <use xlink:href="#DejaVuSans-3a"/>
     <use xlink:href="#DejaVuSans-35" transform="translate(98.875 0)"/>
     <use xlink:href="#DejaVuSans-31" transform="translate(168.359375 0)"/>
     <use xlink:href="#DejaVuSans-10" transform="translate(243.171875 0)"/>
     <use xlink:href="#DejaVuSans-17" transform="translate(279.25 0)"/>
     <use xlink:href="#DejaVuSans-13" transform="translate(342.875 0)"/>
     <use xlink:href="#DejaVuSans-10" transform="translate(406.5 0)"/>
     <use xlink:href="#DejaVuSans-15" transform="translate(442.578125 0)"/>
     <use xlink:href="#DejaVuSans-3" transform="translate(506.203125 0)"/>
     <use xlink:href="#DejaVuSans-57" transform="translate(537.984375 0)"/>
     <use xlink:href="#DejaVuSans-48" transform="translate(577.1875 0)"/>
     <use xlink:href="#DejaVuSans-44" transform="translate(638.71875 0)"/>
     <use xlink:href="#DejaVuSans-46" transform="translate(700 0)"/>
     <use xlink:href="#DejaVuSans-4b" transform="translate(754.984375 0)"/>
     <use xlink:href="#DejaVuSans-48" transform="translate(818.359375 0)"/>
     <use xlink:href="#DejaVuSans-55" transform="translate(879.890625 0)"/>
     <use xlink:href="#DejaVuSans-3" transform="translate(921 0)"/>
     <use xlink:href="#DejaVuSans-b" transform="translate(952.78125 0)"/>
     <use xlink:href="#DejaVuSans-1a" transform="translate(991.796875 0)"/>
     <use xlink:href="#DejaVuSans-18" transform="translate(1055.421875 0)"/>
     <use xlink:href="#DejaVuSans-11" transform="translate(1119.046875 0)"/>
     <use xlink:href="#DejaVuSans-19" transform="translate(1150.828125 0)"/>
     <use xlink:href="#DejaVuSans-8" transform="translate(1214.453125 0)"/>
     <use xlink:href="#DejaVuSans-c" transform="translate(1309.46875 0)"/>
    </g>
   </g>
   <g id="PathCollection_1">
    <defs>
     <path id="m26f22fee45" d="M 0 4.1833 
C 1.109424 4.1833 2.173559 3.742521 2.95804 2.95804 
C 3.742521 2.173559 4.1833 1.109424 4.1833 0 
C 4.1833 -1.109424 3.742521 -2.173559 2.95804 -2.95804 
C 2.173559 -3.742521 1.109424 -4.1833 0 -4.1833 
C -1.109424 -4.1833 -2.173559 -3.742521 -2.95804 -2.95804 
C -3.742521 -2.173559 -4.1833 -1.109424 -4.1833 0 
C -4.1833 1.109424 -3.742521 2.173559 -2.95804 2.95804 
C -2.173559 3.742521 -1.109424 4.1833 0 4.1833 
z
" style="stroke: #000000; stroke-width: 0.4"/>
    </defs>
    <g clip-path="url(#pb3fe2026d5)">
     <use xlink:href="#m26f22fee45" x="75.395878" y="190.599771" style="fill: #1f77b4; stroke: #000000; stroke-width: 0.4"/>
    </g>
   </g>
   <g id="text_15">
    <!-- Hinton -->
    <g transform="translate(79.841766 187.646704) scale(0.08 -0.08)">
     <defs>
      <path id="DejaVuSans-2b" d="M 628 4666 
L 1259 4666 
L 1259 2753 
L 3553 2753 
L 3553 4666 
L 4184 4666 
L 4184 0 
L 3553 0 
L 3553 2222 
L 1259 2222 
L 1259 0 
L 628 0 
L 628 4666 
z
" transform="scale(0.015625)"/>
     </defs>
     <use xlink:href="#DejaVuSans-2b"/>
     <use xlink:href="#DejaVuSans-4c" transform="translate(75.203125 0)"/>
     <use xlink:href="#DejaVuSans-51" transform="translate(102.984375 0)"/>
     <use xlink:href="#DejaVuSans-57" transform="translate(166.359375 0)"/>
     <use xlink:href="#DejaVuSans-52" transform="translate(205.5625 0)"/>
     <use xlink:href="#DejaVuSans-51" transform="translate(266.75 0)"/>
    </g>
   </g>
   <g id="PathCollection_2">
    <defs>
     <path id="mfee50d4813" d="M -4.1833 4.1833 
L 4.1833 4.1833 
L 4.1833 -4.1833 
L -4.1833 -4.1833 
z
" style="stroke: #000000; stroke-width: 0.4"/>
    </defs>
    <g clip-path="url(#pb3fe2026d5)">
     <use xlink:href="#mfee50d4813" x="76.531787" y="205.365104" style="fill: #ff7f0e; stroke: #000000; stroke-width: 0.4"/>
    </g>
   </g>
   <g id="text_16">
    <!-- FitNets -->
    <g transform="translate(79.841766 214.224304) scale(0.08 -0.08)">
     <use xlink:href="#DejaVuSans-29"/>
     <use xlink:href="#DejaVuSans-4c" transform="translate(50.234375 0)"/>
     <use xlink:href="#DejaVuSans-57" transform="translate(78.015625 0)"/>
     <use xlink:href="#DejaVuSans-31" transform="translate(117.21875 0)"/>
     <use xlink:href="#DejaVuSans-48" transform="translate(192.03125 0)"/>
     <use xlink:href="#DejaVuSans-57" transform="translate(253.5625 0)"/>
     <use xlink:href="#DejaVuSans-56" transform="translate(292.765625 0)"/>
    </g>
   </g>
   <g id="PathCollection_3">
    <g clip-path="url(#pb3fe2026d5)">
     <use xlink:href="#mfee50d4813" x="212.31153" y="142.612437" style="fill: #ff7f0e; stroke: #000000; stroke-width: 0.4"/>
    </g>
   </g>
   <g id="text_17">
    <!-- AT -->
    <g transform="translate(216.389083 139.659371) scale(0.08 -0.08)">
     <defs>
      <path id="DejaVuSans-37" d="M -19 4666 
L 3928 4666 
L 3928 4134 
L 2272 4134 
L 2272 0 
L 1638 0 
L 1638 4134 
L -19 4134 
L -19 4666 
z
" transform="scale(0.015625)"/>
     </defs>
     <use xlink:href="#DejaVuSans-24"/>
     <use xlink:href="#DejaVuSans-37" transform="translate(60.640625 0)"/>
    </g>
   </g>
   <g id="PathCollection_4">
    <defs>
     <path id="m69a25e7d38" d="M -0 4.1833 
L 4.1833 -4.1833 
L -4.1833 -4.1833 
z
" style="stroke: #000000; stroke-width: 0.4"/>
    </defs>
    <g clip-path="url(#pb3fe2026d5)">
     <use xlink:href="#m69a25e7d38" x="280.190019" y="61.403104" style="fill: #d62728; stroke: #000000; stroke-width: 0.4"/>
    </g>
   </g>
   <g id="text_18">
    <!-- Born-Again -->
    <g transform="translate(284.662741 58.450037) scale(0.08 -0.08)">
     <defs>
      <path id="DejaVuSans-25" d="M 1259 2228 
L 1259 519 
L 2272 519 
Q 2781 519 3026 730 
Q 3272 941 3272 1375 
Q 3272 1813 3026 2020 
Q 2781 2228 2272 2228 
L 1259 2228 
z
M 1259 4147 
L 1259 2741 
L 2194 2741 
Q 2656 2741 2882 2914 
Q 3109 3088 3109 3444 
Q 3109 3797 2882 3972 
Q 2656 4147 2194 4147 
L 1259 4147 
z
M 628 4666 
L 2241 4666 
Q 2963 4666 3353 4366 
Q 3744 4066 3744 3513 
Q 3744 3084 3544 2831 
Q 3344 2578 2956 2516 
Q 3422 2416 3680 2098 
Q 3938 1781 3938 1306 
Q 3938 681 3513 340 
Q 3088 0 2303 0 
L 628 0 
L 628 4666 
z
" transform="scale(0.015625)"/>
      <path id="DejaVuSans-4a" d="M 2906 1791 
Q 2906 2416 2648 2759 
Q 2391 3103 1925 3103 
Q 1463 3103 1205 2759 
Q 947 2416 947 1791 
Q 947 1169 1205 825 
Q 1463 481 1925 481 
Q 2391 481 2648 825 
Q 2906 1169 2906 1791 
z
M 3481 434 
Q 3481 -459 3084 -895 
Q 2688 -1331 1869 -1331 
Q 1566 -1331 1297 -1286 
Q 1028 -1241 775 -1147 
L 775 -588 
Q 1028 -725 1275 -790 
Q 1522 -856 1778 -856 
Q 2344 -856 2625 -561 
Q 2906 -266 2906 331 
L 2906 616 
Q 2728 306 2450 153 
Q 2172 0 1784 0 
Q 1141 0 747 490 
Q 353 981 353 1791 
Q 353 2603 747 3093 
Q 1141 3584 1784 3584 
Q 2172 3584 2450 3431 
Q 2728 3278 2906 2969 
L 2906 3500 
L 3481 3500 
L 3481 434 
z
" transform="scale(0.015625)"/>
     </defs>
     <use xlink:href="#DejaVuSans-25"/>
     <use xlink:href="#DejaVuSans-52" transform="translate(68.609375 0)"/>
     <use xlink:href="#DejaVuSans-55" transform="translate(129.796875 0)"/>
     <use xlink:href="#DejaVuSans-51" transform="translate(169.15625 0)"/>
     <use xlink:href="#DejaVuSans-10" transform="translate(232.53125 0)"/>
     <use xlink:href="#DejaVuSans-24" transform="translate(266.40625 0)"/>
     <use xlink:href="#DejaVuSans-4a" transform="translate(334.8125 0)"/>
     <use xlink:href="#DejaVuSans-44" transform="translate(398.296875 0)"/>
     <use xlink:href="#DejaVuSans-4c" transform="translate(459.578125 0)"/>
     <use xlink:href="#DejaVuSans-51" transform="translate(487.359375 0)"/>
    </g>
   </g>
   <g id="PathCollection_5">
    <defs>
     <path id="m38da9bcc0f" d="M 0 -4.1833 
L -4.1833 4.1833 
L 4.1833 4.1833 
z
" style="stroke: #000000; stroke-width: 0.4"/>
    </defs>
    <g clip-path="url(#pb3fe2026d5)">
     <use xlink:href="#m38da9bcc0f" x="279.362349" y="166.236971" style="fill: #9467bd; stroke: #000000; stroke-width: 0.4"/>
    </g>
   </g>
   <g id="text_19">
    <!-- DML -->
    <g transform="translate(284.662741 175.096171) scale(0.08 -0.08)">
     <defs>
      <path id="DejaVuSans-27" d="M 1259 4147 
L 1259 519 
L 2022 519 
Q 2988 519 3436 956 
Q 3884 1394 3884 2338 
Q 3884 3275 3436 3711 
Q 2988 4147 2022 4147 
L 1259 4147 
z
M 628 4666 
L 1925 4666 
Q 3281 4666 3915 4102 
Q 4550 3538 4550 2338 
Q 4550 1131 3912 565 
Q 3275 0 1925 0 
L 628 0 
L 628 4666 
z
" transform="scale(0.015625)"/>
      <path id="DejaVuSans-30" d="M 628 4666 
L 1569 4666 
L 2759 1491 
L 3956 4666 
L 4897 4666 
L 4897 0 
L 4281 0 
L 4281 4097 
L 3078 897 
L 2444 897 
L 1241 4097 
L 1241 0 
L 628 0 
L 628 4666 
z
" transform="scale(0.015625)"/>
     </defs>
     <use xlink:href="#DejaVuSans-27"/>
     <use xlink:href="#DejaVuSans-30" transform="translate(77 0)"/>
     <use xlink:href="#DejaVuSans-2f" transform="translate(163.28125 0)"/>
    </g>
   </g>
   <g id="PathCollection_6">
    <g clip-path="url(#pb3fe2026d5)">
     <use xlink:href="#m38da9bcc0f" x="280.879658" y="143.350704" style="fill: #9467bd; stroke: #000000; stroke-width: 0.4"/>
    </g>
   </g>
   <g id="text_20">
    <!-- ONE -->
    <g transform="translate(284.662741 140.397637) scale(0.08 -0.08)">
     <defs>
      <path id="DejaVuSans-32" d="M 2522 4238 
Q 1834 4238 1429 3725 
Q 1025 3213 1025 2328 
Q 1025 1447 1429 934 
Q 1834 422 2522 422 
Q 3209 422 3611 934 
Q 4013 1447 4013 2328 
Q 4013 3213 3611 3725 
Q 3209 4238 2522 4238 
z
M 2522 4750 
Q 3503 4750 4090 4092 
Q 4678 3434 4678 2328 
Q 4678 1225 4090 567 
Q 3503 -91 2522 -91 
Q 1538 -91 948 565 
Q 359 1222 359 2328 
Q 359 3434 948 4092 
Q 1538 4750 2522 4750 
z
" transform="scale(0.015625)"/>
     </defs>
     <use xlink:href="#DejaVuSans-32"/>
     <use xlink:href="#DejaVuSans-31" transform="translate(78.71875 0)"/>
     <use xlink:href="#DejaVuSans-28" transform="translate(153.53125 0)"/>
    </g>
   </g>
   <g id="PathCollection_7">
    <defs>
     <path id="ma11e5f545d" d="M -0 5.91608 
L 5.91608 0 
L 0 -5.91608 
L -5.91608 -0 
z
" style="stroke: #000000; stroke-width: 0.4"/>
    </defs>
    <g clip-path="url(#pb3fe2026d5)">
     <use xlink:href="#ma11e5f545d" x="347.731129" y="165.498704" style="fill: #2ca02c; stroke: #000000; stroke-width: 0.4"/>
    </g>
   </g>
   <g id="text_21">
    <!-- RKD -->
    <g transform="translate(352.9364 162.545637) scale(0.08 -0.08)">
     <defs>
      <path id="DejaVuSans-2e" d="M 628 4666 
L 1259 4666 
L 1259 2694 
L 3353 4666 
L 4166 4666 
L 1850 2491 
L 4331 0 
L 3500 0 
L 1259 2247 
L 1259 0 
L 628 0 
L 628 4666 
z
" transform="scale(0.015625)"/>
     </defs>
     <use xlink:href="#DejaVuSans-35"/>
     <use xlink:href="#DejaVuSans-2e" transform="translate(69.484375 0)"/>
     <use xlink:href="#DejaVuSans-27" transform="translate(135.0625 0)"/>
    </g>
   </g>
   <g id="PathCollection_8">
    <defs>
     <path id="m30578dcbcd" d="M 0 -4.1833 
L -0.939209 -1.292711 
L -3.978555 -1.292711 
L -1.519673 0.493772 
L -2.458882 3.384361 
L -0 1.597878 
L 2.458882 3.384361 
L 1.519673 0.493772 
L 3.978555 -1.292711 
L 0.939209 -1.292711 
z
" style="stroke: #000000; stroke-width: 0.4"/>
    </defs>
    <g clip-path="url(#pb3fe2026d5)">
     <use xlink:href="#m30578dcbcd" x="350.832021" y="116.773104" style="fill: #e377c2; stroke: #000000; stroke-width: 0.4"/>
    </g>
   </g>
   <g id="text_22">
    <!-- DistilBERT -->
    <g transform="translate(352.9364 113.820037) scale(0.08 -0.08)">
     <use xlink:href="#DejaVuSans-27"/>
     <use xlink:href="#DejaVuSans-4c" transform="translate(77 0)"/>
     <use xlink:href="#DejaVuSans-56" transform="translate(104.78125 0)"/>
     <use xlink:href="#DejaVuSans-57" transform="translate(156.875 0)"/>
     <use xlink:href="#DejaVuSans-4c" transform="translate(196.078125 0)"/>
     <use xlink:href="#DejaVuSans-4f" transform="translate(223.859375 0)"/>
     <use xlink:href="#DejaVuSans-25" transform="translate(251.640625 0)"/>
     <use xlink:href="#DejaVuSans-28" transform="translate(320.25 0)"/>
     <use xlink:href="#DejaVuSans-35" transform="translate(383.4375 0)"/>
     <use xlink:href="#DejaVuSans-37" transform="translate(445.640625 0)"/>
    </g>
   </g>
   <g id="PathCollection_9">
    <g clip-path="url(#pb3fe2026d5)">
     <use xlink:href="#ma11e5f545d" x="419.596497" y="138.182838" style="fill: #2ca02c; stroke: #000000; stroke-width: 0.4"/>
    </g>
   </g>
   <g id="text_23">
    <!-- CRD -->
    <g transform="translate(421.210058 147.042038) scale(0.08 -0.08)">
     <use xlink:href="#DejaVuSans-26"/>
     <use xlink:href="#DejaVuSans-35" transform="translate(69.828125 0)"/>
     <use xlink:href="#DejaVuSans-27" transform="translate(139.3125 0)"/>
    </g>
   </g>
   <g id="PathCollection_10">
    <g clip-path="url(#pb3fe2026d5)">
     <use xlink:href="#m30578dcbcd" x="415.635114" y="120.464438" style="fill: #e377c2; stroke: #000000; stroke-width: 0.4"/>
    </g>
   </g>
   <g id="text_24">
    <!-- TinyBERT -->
    <g transform="translate(421.210058 129.323638) scale(0.08 -0.08)">
     <use xlink:href="#DejaVuSans-37"/>
     <use xlink:href="#DejaVuSans-4c" transform="translate(58 0)"/>
     <use xlink:href="#DejaVuSans-51" transform="translate(85.78125 0)"/>
     <use xlink:href="#DejaVuSans-5c" transform="translate(149.15625 0)"/>
     <use xlink:href="#DejaVuSans-25" transform="translate(208.34375 0)"/>
     <use xlink:href="#DejaVuSans-28" transform="translate(276.953125 0)"/>
     <use xlink:href="#DejaVuSans-35" transform="translate(340.140625 0)"/>
     <use xlink:href="#DejaVuSans-37" transform="translate(402.34375 0)"/>
    </g>
   </g>
   <g id="PathCollection_11">
    <g clip-path="url(#pb3fe2026d5)">
     <use xlink:href="#m30578dcbcd" x="418.422615" y="105.699104" style="fill: #e377c2; stroke: #000000; stroke-width: 0.4"/>
    </g>
   </g>
   <g id="text_25">
    <!-- MobileBERT -->
    <g transform="translate(421.210058 102.746037) scale(0.08 -0.08)">
     <defs>
      <path id="DejaVuSans-45" d="M 3116 1747 
Q 3116 2381 2855 2742 
Q 2594 3103 2138 3103 
Q 1681 3103 1420 2742 
Q 1159 2381 1159 1747 
Q 1159 1113 1420 752 
Q 1681 391 2138 391 
Q 2594 391 2855 752 
Q 3116 1113 3116 1747 
z
M 1159 2969 
Q 1341 3281 1617 3432 
Q 1894 3584 2278 3584 
Q 2916 3584 3314 3078 
Q 3713 2572 3713 1747 
Q 3713 922 3314 415 
Q 2916 -91 2278 -91 
Q 1894 -91 1617 61 
Q 1341 213 1159 525 
L 1159 0 
L 581 0 
L 581 4863 
L 1159 4863 
L 1159 2969 
z
" transform="scale(0.015625)"/>
     </defs>
     <use xlink:href="#DejaVuSans-30"/>
     <use xlink:href="#DejaVuSans-52" transform="translate(86.28125 0)"/>
     <use xlink:href="#DejaVuSans-45" transform="translate(147.46875 0)"/>
     <use xlink:href="#DejaVuSans-4c" transform="translate(210.953125 0)"/>
     <use xlink:href="#DejaVuSans-4f" transform="translate(238.734375 0)"/>
     <use xlink:href="#DejaVuSans-48" transform="translate(266.515625 0)"/>
     <use xlink:href="#DejaVuSans-25" transform="translate(328.046875 0)"/>
     <use xlink:href="#DejaVuSans-28" transform="translate(396.65625 0)"/>
     <use xlink:href="#DejaVuSans-35" transform="translate(459.84375 0)"/>
     <use xlink:href="#DejaVuSans-37" transform="translate(522.046875 0)"/>
    </g>
   </g>
   <g id="PathCollection_12">
    <g clip-path="url(#pb3fe2026d5)">
     <use xlink:href="#m30578dcbcd" x="416.628178" y="102.746037" style="fill: #e377c2; stroke: #000000; stroke-width: 0.4"/>
    </g>
   </g>
   <g id="text_26">
    <!-- MiniLM -->
    <g transform="translate(421.210058 99.792971) scale(0.08 -0.08)">
     <use xlink:href="#DejaVuSans-30"/>
     <use xlink:href="#DejaVuSans-4c" transform="translate(86.28125 0)"/>
     <use xlink:href="#DejaVuSans-51" transform="translate(114.0625 0)"/>
     <use xlink:href="#DejaVuSans-4c" transform="translate(177.4375 0)"/>
     <use xlink:href="#DejaVuSans-2f" transform="translate(205.21875 0)"/>
     <use xlink:href="#DejaVuSans-30" transform="translate(260.9375 0)"/>
    </g>
   </g>
   <g id="PathCollection_13">
    <g clip-path="url(#pb3fe2026d5)">
     <use xlink:href="#m69a25e7d38" x="485.169125" y="106.437371" style="fill: #d62728; stroke: #000000; stroke-width: 0.4"/>
    </g>
   </g>
   <g id="text_27">
    <!-- PS-KD -->
    <g transform="translate(489.483716 103.484304) scale(0.08 -0.08)">
     <defs>
      <path id="DejaVuSans-33" d="M 1259 4147 
L 1259 2394 
L 2053 2394 
Q 2494 2394 2734 2622 
Q 2975 2850 2975 3272 
Q 2975 3691 2734 3919 
Q 2494 4147 2053 4147 
L 1259 4147 
z
M 628 4666 
L 2053 4666 
Q 2838 4666 3239 4311 
Q 3641 3956 3641 3272 
Q 3641 2581 3239 2228 
Q 2838 1875 2053 1875 
L 1259 1875 
L 1259 0 
L 628 0 
L 628 4666 
z
" transform="scale(0.015625)"/>
      <path id="DejaVuSans-36" d="M 3425 4513 
L 3425 3897 
Q 3066 4069 2747 4153 
Q 2428 4238 2131 4238 
Q 1616 4238 1336 4038 
Q 1056 3838 1056 3469 
Q 1056 3159 1242 3001 
Q 1428 2844 1947 2747 
L 2328 2669 
Q 3034 2534 3370 2195 
Q 3706 1856 3706 1288 
Q 3706 609 3251 259 
Q 2797 -91 1919 -91 
Q 1588 -91 1214 -16 
Q 841 59 441 206 
L 441 856 
Q 825 641 1194 531 
Q 1563 422 1919 422 
Q 2459 422 2753 634 
Q 3047 847 3047 1241 
Q 3047 1584 2836 1778 
Q 2625 1972 2144 2069 
L 1759 2144 
Q 1053 2284 737 2584 
Q 422 2884 422 3419 
Q 422 4038 858 4394 
Q 1294 4750 2059 4750 
Q 2388 4750 2728 4690 
Q 3069 4631 3425 4513 
z
" transform="scale(0.015625)"/>
     </defs>
     <use xlink:href="#DejaVuSans-33"/>
     <use xlink:href="#DejaVuSans-36" transform="translate(60.296875 0)"/>
     <use xlink:href="#DejaVuSans-10" transform="translate(123.78125 0)"/>
     <use xlink:href="#DejaVuSans-2e" transform="translate(159.859375 0)"/>
     <use xlink:href="#DejaVuSans-27" transform="translate(225.4375 0)"/>
    </g>
   </g>
   <g id="PathCollection_14">
    <defs>
     <path id="m431a67d793" d="M -4.1833 4.1833 
L 4.1833 -4.1833 
M -4.1833 -4.1833 
L 4.1833 4.1833 
" style="stroke: #7f7f7f; stroke-width: 0.4"/>
    </defs>
    <g clip-path="url(#pb3fe2026d5)">
     <use xlink:href="#m431a67d793" x="487.610264" y="146.303771" style="fill: #7f7f7f; stroke: #7f7f7f; stroke-width: 0.4"/>
    </g>
   </g>
   <g id="text_28">
    <!-- Stanton -->
    <g transform="translate(489.483716 156.639504) scale(0.08 -0.08)">
     <use xlink:href="#DejaVuSans-36"/>
     <use xlink:href="#DejaVuSans-57" transform="translate(63.484375 0)"/>
     <use xlink:href="#DejaVuSans-44" transform="translate(102.6875 0)"/>
     <use xlink:href="#DejaVuSans-51" transform="translate(163.96875 0)"/>
     <use xlink:href="#DejaVuSans-57" transform="translate(227.34375 0)"/>
     <use xlink:href="#DejaVuSans-52" transform="translate(266.546875 0)"/>
     <use xlink:href="#DejaVuSans-51" transform="translate(327.734375 0)"/>
    </g>
   </g>
   <g id="PathCollection_15">
    <defs>
     <path id="m8cfda76e26" d="M -1.394433 4.1833 
L 1.394433 4.1833 
L 1.394433 1.394433 
L 4.1833 1.394433 
L 4.1833 -1.394433 
L 1.394433 -1.394433 
L 1.394433 -4.1833 
L -1.394433 -4.1833 
L -1.394433 -1.394433 
L -4.1833 -1.394433 
L -4.1833 1.394433 
L -1.394433 1.394433 
z
" style="stroke: #000000; stroke-width: 0.4"/>
    </defs>
    <g clip-path="url(#pb3fe2026d5)">
     <use xlink:href="#m8cfda76e26" x="550.049525" y="131.538437" style="fill: #8c564b; stroke: #000000; stroke-width: 0.4"/>
    </g>
   </g>
   <g id="text_29">
    <!-- Salimans -->
    <g transform="translate(557.757374 140.397637) scale(0.08 -0.08)">
     <defs>
      <path id="DejaVuSans-50" d="M 3328 2828 
Q 3544 3216 3844 3400 
Q 4144 3584 4550 3584 
Q 5097 3584 5394 3201 
Q 5691 2819 5691 2113 
L 5691 0 
L 5113 0 
L 5113 2094 
Q 5113 2597 4934 2840 
Q 4756 3084 4391 3084 
Q 3944 3084 3684 2787 
Q 3425 2491 3425 1978 
L 3425 0 
L 2847 0 
L 2847 2094 
Q 2847 2600 2669 2842 
Q 2491 3084 2119 3084 
Q 1678 3084 1418 2786 
Q 1159 2488 1159 1978 
L 1159 0 
L 581 0 
L 581 3500 
L 1159 3500 
L 1159 2956 
Q 1356 3278 1631 3431 
Q 1906 3584 2284 3584 
Q 2666 3584 2933 3390 
Q 3200 3197 3328 2828 
z
" transform="scale(0.015625)"/>
     </defs>
     <use xlink:href="#DejaVuSans-36"/>
     <use xlink:href="#DejaVuSans-44" transform="translate(63.484375 0)"/>
     <use xlink:href="#DejaVuSans-4f" transform="translate(124.765625 0)"/>
     <use xlink:href="#DejaVuSans-4c" transform="translate(152.546875 0)"/>
     <use xlink:href="#DejaVuSans-50" transform="translate(180.328125 0)"/>
     <use xlink:href="#DejaVuSans-44" transform="translate(277.734375 0)"/>
     <use xlink:href="#DejaVuSans-51" transform="translate(339.015625 0)"/>
     <use xlink:href="#DejaVuSans-56" transform="translate(402.390625 0)"/>
    </g>
   </g>
   <g id="PathCollection_16">
    <g clip-path="url(#pb3fe2026d5)">
     <use xlink:href="#m26f22fee45" x="550.159399" y="133.014971" style="fill: #1f77b4; stroke: #000000; stroke-width: 0.4"/>
    </g>
   </g>
   <g id="text_30">
    <!-- DKD -->
    <g transform="translate(557.757374 130.061904) scale(0.08 -0.08)">
     <use xlink:href="#DejaVuSans-27"/>
     <use xlink:href="#DejaVuSans-2e" transform="translate(77 0)"/>
     <use xlink:href="#DejaVuSans-27" transform="translate(142.578125 0)"/>
    </g>
   </g>
   <g id="PathCollection_17">
    <g clip-path="url(#pb3fe2026d5)">
     <use xlink:href="#m30578dcbcd" x="617.976232" y="94.625104" style="fill: #e377c2; stroke: #000000; stroke-width: 0.4"/>
    </g>
   </g>
   <g id="text_31">
    <!-- MiniLLM -->
    <g transform="translate(626.031033 91.672037) scale(0.08 -0.08)">
     <use xlink:href="#DejaVuSans-30"/>
     <use xlink:href="#DejaVuSans-4c" transform="translate(86.28125 0)"/>
     <use xlink:href="#DejaVuSans-51" transform="translate(114.0625 0)"/>
     <use xlink:href="#DejaVuSans-4c" transform="translate(177.4375 0)"/>
     <use xlink:href="#DejaVuSans-2f" transform="translate(205.21875 0)"/>
     <use xlink:href="#DejaVuSans-2f" transform="translate(260.9375 0)"/>
     <use xlink:href="#DejaVuSans-30" transform="translate(316.65625 0)"/>
    </g>
   </g>
   <g id="text_32">
    <!-- KD family evolution: representative student headline vs publication year -->
    <g transform="translate(173.293203 14.798437) scale(0.1 -0.1)">
     <defs>
      <path id="DejaVuSans-49" d="M 2375 4863 
L 2375 4384 
L 1825 4384 
Q 1516 4384 1395 4259 
Q 1275 4134 1275 3809 
L 1275 3500 
L 2222 3500 
L 2222 3053 
L 1275 3053 
L 1275 0 
L 697 0 
L 697 3053 
L 147 3053 
L 147 3500 
L 697 3500 
L 697 3744 
Q 697 4328 969 4595 
Q 1241 4863 1831 4863 
L 2375 4863 
z
" transform="scale(0.015625)"/>
      <path id="DejaVuSans-59" d="M 191 3500 
L 800 3500 
L 1894 563 
L 2988 3500 
L 3597 3500 
L 2284 0 
L 1503 0 
L 191 3500 
z
" transform="scale(0.015625)"/>
      <path id="DejaVuSans-1d" d="M 750 794 
L 1409 794 
L 1409 0 
L 750 0 
L 750 794 
z
M 750 3309 
L 1409 3309 
L 1409 2516 
L 750 2516 
L 750 3309 
z
" transform="scale(0.015625)"/>
     </defs>
     <use xlink:href="#DejaVuSans-2e"/>
     <use xlink:href="#DejaVuSans-27" transform="translate(65.578125 0)"/>
     <use xlink:href="#DejaVuSans-3" transform="translate(142.578125 0)"/>
     <use xlink:href="#DejaVuSans-49" transform="translate(174.359375 0)"/>
     <use xlink:href="#DejaVuSans-44" transform="translate(209.5625 0)"/>
     <use xlink:href="#DejaVuSans-50" transform="translate(270.84375 0)"/>
     <use xlink:href="#DejaVuSans-4c" transform="translate(368.25 0)"/>
     <use xlink:href="#DejaVuSans-4f" transform="translate(396.03125 0)"/>
     <use xlink:href="#DejaVuSans-5c" transform="translate(423.8125 0)"/>
     <use xlink:href="#DejaVuSans-3" transform="translate(483 0)"/>
     <use xlink:href="#DejaVuSans-48" transform="translate(514.78125 0)"/>
     <use xlink:href="#DejaVuSans-59" transform="translate(576.3125 0)"/>
     <use xlink:href="#DejaVuSans-52" transform="translate(635.5 0)"/>
     <use xlink:href="#DejaVuSans-4f" transform="translate(696.6875 0)"/>
     <use xlink:href="#DejaVuSans-58" transform="translate(724.46875 0)"/>
     <use xlink:href="#DejaVuSans-57" transform="translate(787.84375 0)"/>
     <use xlink:href="#DejaVuSans-4c" transform="translate(827.046875 0)"/>
     <use xlink:href="#DejaVuSans-52" transform="translate(854.828125 0)"/>
     <use xlink:href="#DejaVuSans-51" transform="translate(916.015625 0)"/>
     <use xlink:href="#DejaVuSans-1d" transform="translate(979.390625 0)"/>
     <use xlink:href="#DejaVuSans-3" transform="translate(1013.078125 0)"/>
     <use xlink:href="#DejaVuSans-55" transform="translate(1044.859375 0)"/>
     <use xlink:href="#DejaVuSans-48" transform="translate(1083.765625 0)"/>
     <use xlink:href="#DejaVuSans-53" transform="translate(1145.296875 0)"/>
     <use xlink:href="#DejaVuSans-55" transform="translate(1208.78125 0)"/>
     <use xlink:href="#DejaVuSans-48" transform="translate(1247.6875 0)"/>
     <use xlink:href="#DejaVuSans-56" transform="translate(1309.21875 0)"/>
     <use xlink:href="#DejaVuSans-48" transform="translate(1361.3125 0)"/>
     <use xlink:href="#DejaVuSans-51" transform="translate(1422.84375 0)"/>
     <use xlink:href="#DejaVuSans-57" transform="translate(1486.21875 0)"/>
     <use xlink:href="#DejaVuSans-44" transform="translate(1525.421875 0)"/>
     <use xlink:href="#DejaVuSans-57" transform="translate(1586.703125 0)"/>
     <use xlink:href="#DejaVuSans-4c" transform="translate(1625.90625 0)"/>
     <use xlink:href="#DejaVuSans-59" transform="translate(1653.6875 0)"/>
     <use xlink:href="#DejaVuSans-48" transform="translate(1712.875 0)"/>
     <use xlink:href="#DejaVuSans-3" transform="translate(1774.40625 0)"/>
     <use xlink:href="#DejaVuSans-56" transform="translate(1806.1875 0)"/>
     <use xlink:href="#DejaVuSans-57" transform="translate(1858.28125 0)"/>
     <use xlink:href="#DejaVuSans-58" transform="translate(1897.484375 0)"/>
     <use xlink:href="#DejaVuSans-47" transform="translate(1960.859375 0)"/>
     <use xlink:href="#DejaVuSans-48" transform="translate(2024.34375 0)"/>
     <use xlink:href="#DejaVuSans-51" transform="translate(2085.875 0)"/>
     <use xlink:href="#DejaVuSans-57" transform="translate(2149.25 0)"/>
     <use xlink:href="#DejaVuSans-3" transform="translate(2188.453125 0)"/>
     <use xlink:href="#DejaVuSans-4b" transform="translate(2220.234375 0)"/>
     <use xlink:href="#DejaVuSans-48" transform="translate(2283.609375 0)"/>
     <use xlink:href="#DejaVuSans-44" transform="translate(2345.140625 0)"/>
     <use xlink:href="#DejaVuSans-47" transform="translate(2406.421875 0)"/>
     <use xlink:href="#DejaVuSans-4f" transform="translate(2469.90625 0)"/>
     <use xlink:href="#DejaVuSans-4c" transform="translate(2497.6875 0)"/>
     <use xlink:href="#DejaVuSans-51" transform="translate(2525.46875 0)"/>
     <use xlink:href="#DejaVuSans-48" transform="translate(2588.84375 0)"/>
     <use xlink:href="#DejaVuSans-3" transform="translate(2650.375 0)"/>
     <use xlink:href="#DejaVuSans-59" transform="translate(2682.15625 0)"/>
     <use xlink:href="#DejaVuSans-56" transform="translate(2741.34375 0)"/>
     <use xlink:href="#DejaVuSans-3" transform="translate(2793.4375 0)"/>
     <use xlink:href="#DejaVuSans-53" transform="translate(2825.21875 0)"/>
     <use xlink:href="#DejaVuSans-58" transform="translate(2888.703125 0)"/>
     <use xlink:href="#DejaVuSans-45" transform="translate(2952.078125 0)"/>
     <use xlink:href="#DejaVuSans-4f" transform="translate(3015.5625 0)"/>
     <use xlink:href="#DejaVuSans-4c" transform="translate(3043.34375 0)"/>
     <use xlink:href="#DejaVuSans-46" transform="translate(3071.125 0)"/>
     <use xlink:href="#DejaVuSans-44" transform="translate(3126.109375 0)"/>
     <use xlink:href="#DejaVuSans-57" transform="translate(3187.390625 0)"/>
     <use xlink:href="#DejaVuSans-4c" transform="translate(3226.59375 0)"/>
     <use xlink:href="#DejaVuSans-52" transform="translate(3254.375 0)"/>
     <use xlink:href="#DejaVuSans-51" transform="translate(3315.5625 0)"/>
     <use xlink:href="#DejaVuSans-3" transform="translate(3378.9375 0)"/>
     <use xlink:href="#DejaVuSans-5c" transform="translate(3410.71875 0)"/>
     <use xlink:href="#DejaVuSans-48" transform="translate(3469.90625 0)"/>
     <use xlink:href="#DejaVuSans-44" transform="translate(3531.4375 0)"/>
     <use xlink:href="#DejaVuSans-55" transform="translate(3592.71875 0)"/>
    </g>
   </g>
   <g id="legend_1">
    <g id="PathCollection_18">
     <g>
      <use xlink:href="#m26f22fee45" x="538.469688" y="195.054687" style="fill: #1f77b4; stroke: #000000; stroke-width: 0.4"/>
     </g>
    </g>
    <g id="text_33">
     <!-- response -->
     <g transform="translate(552.869688 197.154687) scale(0.08 -0.08)">
      <use xlink:href="#DejaVuSans-55"/>
      <use xlink:href="#DejaVuSans-48" transform="translate(38.90625 0)"/>
      <use xlink:href="#DejaVuSans-56" transform="translate(100.4375 0)"/>
      <use xlink:href="#DejaVuSans-53" transform="translate(152.53125 0)"/>
      <use xlink:href="#DejaVuSans-52" transform="translate(216.015625 0)"/>
      <use xlink:href="#DejaVuSans-51" transform="translate(277.203125 0)"/>
      <use xlink:href="#DejaVuSans-56" transform="translate(340.578125 0)"/>
      <use xlink:href="#DejaVuSans-48" transform="translate(392.671875 0)"/>
     </g>
    </g>
    <g id="PathCollection_19">
     <g>
      <use xlink:href="#mfee50d4813" x="538.469688" y="207.055312" style="fill: #ff7f0e; stroke: #000000; stroke-width: 0.4"/>
     </g>
    </g>
    <g id="text_34">
     <!-- feature -->
     <g transform="translate(552.869688 209.155312) scale(0.08 -0.08)">
      <use xlink:href="#DejaVuSans-49"/>
      <use xlink:href="#DejaVuSans-48" transform="translate(35.203125 0)"/>
      <use xlink:href="#DejaVuSans-44" transform="translate(96.734375 0)"/>
      <use xlink:href="#DejaVuSans-57" transform="translate(158.015625 0)"/>
      <use xlink:href="#DejaVuSans-58" transform="translate(197.21875 0)"/>
      <use xlink:href="#DejaVuSans-55" transform="translate(260.59375 0)"/>
      <use xlink:href="#DejaVuSans-48" transform="translate(299.5 0)"/>
     </g>
    </g>
    <g id="PathCollection_20">
     <g>
      <use xlink:href="#m69a25e7d38" x="538.469688" y="219.055937" style="fill: #d62728; stroke: #000000; stroke-width: 0.4"/>
     </g>
    </g>
    <g id="text_35">
     <!-- self -->
     <g transform="translate(552.869688 221.155937) scale(0.08 -0.08)">
      <use xlink:href="#DejaVuSans-56"/>
      <use xlink:href="#DejaVuSans-48" transform="translate(52.09375 0)"/>
      <use xlink:href="#DejaVuSans-4f" transform="translate(113.625 0)"/>
      <use xlink:href="#DejaVuSans-49" transform="translate(141.40625 0)"/>
     </g>
    </g>
    <g id="PathCollection_21">
     <g>
      <use xlink:href="#m38da9bcc0f" x="538.469688" y="231.056562" style="fill: #9467bd; stroke: #000000; stroke-width: 0.4"/>
     </g>
    </g>
    <g id="text_36">
     <!-- online -->
     <g transform="translate(552.869688 233.156562) scale(0.08 -0.08)">
      <use xlink:href="#DejaVuSans-52"/>
      <use xlink:href="#DejaVuSans-51" transform="translate(61.1875 0)"/>
      <use xlink:href="#DejaVuSans-4f" transform="translate(124.5625 0)"/>
      <use xlink:href="#DejaVuSans-4c" transform="translate(152.34375 0)"/>
      <use xlink:href="#DejaVuSans-51" transform="translate(180.125 0)"/>
      <use xlink:href="#DejaVuSans-48" transform="translate(243.5 0)"/>
     </g>
    </g>
    <g id="PathCollection_22">
     <g>
      <use xlink:href="#ma11e5f545d" x="613.205938" y="195.054687" style="fill: #2ca02c; stroke: #000000; stroke-width: 0.4"/>
     </g>
    </g>
    <g id="text_37">
     <!-- relation -->
     <g transform="translate(627.605938 197.154687) scale(0.08 -0.08)">
      <use xlink:href="#DejaVuSans-55"/>
      <use xlink:href="#DejaVuSans-48" transform="translate(38.90625 0)"/>
      <use xlink:href="#DejaVuSans-4f" transform="translate(100.4375 0)"/>
      <use xlink:href="#DejaVuSans-44" transform="translate(128.21875 0)"/>
      <use xlink:href="#DejaVuSans-57" transform="translate(189.5 0)"/>
      <use xlink:href="#DejaVuSans-4c" transform="translate(228.703125 0)"/>
      <use xlink:href="#DejaVuSans-52" transform="translate(256.484375 0)"/>
      <use xlink:href="#DejaVuSans-51" transform="translate(317.671875 0)"/>
     </g>
    </g>
    <g id="PathCollection_23">
     <g>
      <use xlink:href="#m30578dcbcd" x="613.205938" y="207.055312" style="fill: #e377c2; stroke: #000000; stroke-width: 0.4"/>
     </g>
    </g>
    <g id="text_38">
     <!-- nlp -->
     <g transform="translate(627.605938 209.155312) scale(0.08 -0.08)">
      <use xlink:href="#DejaVuSans-51"/>
      <use xlink:href="#DejaVuSans-4f" transform="translate(63.375 0)"/>
      <use xlink:href="#DejaVuSans-53" transform="translate(91.15625 0)"/>
     </g>
    </g>
    <g id="PathCollection_24">
     <g>
      <use xlink:href="#m431a67d793" x="613.205938" y="219.055937" style="fill: #7f7f7f; stroke: #7f7f7f; stroke-width: 0.4"/>
     </g>
    </g>
    <g id="text_39">
     <!-- audit -->
     <g transform="translate(627.605938 221.155937) scale(0.08 -0.08)">
      <use xlink:href="#DejaVuSans-44"/>
      <use xlink:href="#DejaVuSans-58" transform="translate(61.28125 0)"/>
      <use xlink:href="#DejaVuSans-47" transform="translate(124.65625 0)"/>
      <use xlink:href="#DejaVuSans-4c" transform="translate(188.140625 0)"/>
      <use xlink:href="#DejaVuSans-57" transform="translate(215.921875 0)"/>
     </g>
    </g>
    <g id="PathCollection_25">
     <g>
      <use xlink:href="#m8cfda76e26" x="613.205938" y="231.056562" style="fill: #8c564b; stroke: #000000; stroke-width: 0.4"/>
     </g>
    </g>
    <g id="text_40">
     <!-- diffusion -->
     <g transform="translate(627.605938 233.156562) scale(0.08 -0.08)">
      <defs>
       <path id="DejaVuSans-13ae" d="M 4531 4863 
L 4531 4384 
L 3981 4384 
Q 3672 4384 3551 4259 
Q 3431 4134 3431 3809 
L 3431 3500 
L 4378 3500 
L 4378 3053 
L 3431 3053 
L 3431 0 
L 2853 0 
L 2853 3053 
L 1275 3053 
L 1275 0 
L 697 0 
L 697 3053 
L 147 3053 
L 147 3500 
L 697 3500 
L 697 3744 
Q 697 4328 969 4595 
Q 1241 4863 1831 4863 
L 2375 4863 
L 2375 4384 
L 1825 4384 
Q 1516 4384 1394 4259 
Q 1275 4134 1275 3809 
L 1275 3500 
L 2853 3500 
L 2853 3744 
Q 2853 4328 3125 4595 
Q 3397 4863 3988 4863 
L 4531 4863 
z
" transform="scale(0.015625)"/>
      </defs>
      <use xlink:href="#DejaVuSans-47"/>
      <use xlink:href="#DejaVuSans-4c" transform="translate(63.484375 0)"/>
      <use xlink:href="#DejaVuSans-13ae" transform="translate(91.265625 0)"/>
      <use xlink:href="#DejaVuSans-58" transform="translate(160.15625 0)"/>
      <use xlink:href="#DejaVuSans-56" transform="translate(223.53125 0)"/>
      <use xlink:href="#DejaVuSans-4c" transform="translate(275.625 0)"/>
      <use xlink:href="#DejaVuSans-52" transform="translate(303.40625 0)"/>
      <use xlink:href="#DejaVuSans-51" transform="translate(364.59375 0)"/>
     </g>
    </g>
   </g>
  </g>
 </g>
 <defs>
  <clipPath id="pb3fe2026d5">
   <rect x="40.925781" y="20.798437" width="628.117656" height="221.48"/>
  </clipPath>
 </defs>
</svg>
