<?xml version="1.0" encoding="utf-8" standalone="no"?>
<!DOCTYPE svg PUBLIC "-//W3C//DTD SVG 1.1//EN"
  "http://www.w3.org/Graphics/SVG/1.1/DTD/svg11.dtd">
<svg xmlns:xlink="http://www.w3.org/1999/xlink" width="666.756576pt" height="272.498125pt" viewBox="0 0 666.756576 272.498125" xmlns="http://www.w3.org/2000/svg" version="1.1">
 <metadata>
  <rdf:RDF xmlns:dc="http://purl.org/dc/elements/1.1/" xmlns:cc="http://creativecommons.org/ns#" xmlns:rdf="http://www.w3.org/1999/02/22-rdf-syntax-ns#">
   <cc:Work>
    <dc:type rdf:resource="http://purl.org/dc/dcmitype/StillImage"/>
    <dc:date>2026-05-16T13:36:30.855902</dc:date>
    <dc:format>image/svg+xml</dc:format>
    <dc:creator>
     <cc:Agent>
      <dc:title>Matplotlib v3.10.9, https://matplotlib.org/</dc:title>
     </cc:Agent>
    </dc:creator>
   </cc:Work>
  </rdf:RDF>
 </metadata>
 <defs>
  <style type="text/css">*{stroke-linejoin: round; stroke-linecap: butt}</style>
 </defs>
 <g id="figure_1">
  <g id="patch_1">
   <path d="M 0 272.498125 
L 666.756576 272.498125 
L 666.756576 0 
L 0 0 
z
" style="fill: #ffffff"/>
  </g>
  <g id="axes_1">
   <g id="patch_2">
    <path d="M 40.21125 235.638437 
L 663.156576 235.638437 
L 663.156576 17.198437 
L 40.21125 17.198437 
z
" style="fill: #ffffff"/>
   </g>
   <g id="matplotlib.axis_1">
    <g id="xtick_1">
     <g id="line2d_1">
      <path d="M 141.778423 235.638437 
L 141.778423 17.198437 
" clip-path="url(#p8f531a9ada)" style="fill: none; stroke-dasharray: 0.8,1.32; stroke-dashoffset: 0; stroke: #b0b0b0; stroke-opacity: 0.3; stroke-width: 0.8"/>
     </g>
     <g id="line2d_2">
      <defs>
       <path id="m0cb48100c1" d="M 0 0 
L 0 3.5 
" style="stroke: #000000; stroke-width: 0.8"/>
      </defs>
      <g>
       <use xlink:href="#m0cb48100c1" x="141.778423" y="235.638437" style="stroke: #000000; stroke-width: 0.8"/>
      </g>
     </g>
     <g id="text_1">
      <!-- 2016 -->
      <g transform="translate(127.780923 250.996719) scale(0.11 -0.11)">
       <defs>
        <path id="DejaVuSerif-32" d="M 819 3553 
L 469 3553 
L 469 4384 
Q 803 4563 1142 4656 
Q 1481 4750 1806 4750 
Q 2534 4750 2956 4397 
Q 3378 4044 3378 3438 
Q 3378 2753 2422 1800 
Q 2347 1728 2309 1691 
L 1131 513 
L 3078 513 
L 3078 1088 
L 3444 1088 
L 3444 0 
L 434 0 
L 434 341 
L 1850 1753 
Q 2319 2222 2519 2614 
Q 2719 3006 2719 3438 
Q 2719 3909 2473 4175 
Q 2228 4441 1797 4441 
Q 1350 4441 1106 4219 
Q 863 3997 819 3553 
z
" transform="scale(0.015625)"/>
        <path id="DejaVuSerif-30" d="M 2034 219 
Q 2513 219 2750 744 
Q 2988 1269 2988 2328 
Q 2988 3391 2750 3916 
Q 2513 4441 2034 4441 
Q 1556 4441 1318 3916 
Q 1081 3391 1081 2328 
Q 1081 1269 1318 744 
Q 1556 219 2034 219 
z
M 2034 -91 
Q 1275 -91 848 546 
Q 422 1184 422 2328 
Q 422 3475 848 4112 
Q 1275 4750 2034 4750 
Q 2797 4750 3222 4112 
Q 3647 3475 3647 2328 
Q 3647 1184 3222 546 
Q 2797 -91 2034 -91 
z
" transform="scale(0.015625)"/>
        <path id="DejaVuSerif-31" d="M 909 0 
L 909 331 
L 1722 331 
L 1722 4213 
L 781 3603 
L 781 4013 
L 1919 4750 
L 2350 4750 
L 2350 331 
L 3163 331 
L 3163 0 
L 909 0 
z
" transform="scale(0.015625)"/>
        <path id="DejaVuSerif-36" d="M 2094 219 
Q 2534 219 2771 542 
Q 3009 866 3009 1472 
Q 3009 2078 2771 2401 
Q 2534 2725 2094 2725 
Q 1647 2725 1412 2412 
Q 1178 2100 1178 1509 
Q 1178 888 1415 553 
Q 1653 219 2094 219 
z
M 1075 2569 
Q 1288 2803 1556 2918 
Q 1825 3034 2163 3034 
Q 2859 3034 3264 2615 
Q 3669 2197 3669 1472 
Q 3669 763 3233 336 
Q 2797 -91 2069 -91 
Q 1278 -91 853 498 
Q 428 1088 428 2181 
Q 428 3406 931 4078 
Q 1434 4750 2350 4750 
Q 2597 4750 2869 4703 
Q 3141 4656 3425 4563 
L 3425 3794 
L 3072 3794 
Q 3034 4109 2831 4275 
Q 2628 4441 2284 4441 
Q 1678 4441 1381 3981 
Q 1084 3522 1075 2569 
z
" transform="scale(0.015625)"/>
       </defs>
       <use xlink:href="#DejaVuSerif-32"/>
       <use xlink:href="#DejaVuSerif-30" transform="translate(63.623047 0)"/>
       <use xlink:href="#DejaVuSerif-31" transform="translate(127.246094 0)"/>
       <use xlink:href="#DejaVuSerif-36" transform="translate(190.869141 0)"/>
      </g>
     </g>
    </g>
    <g id="xtick_2">
     <g id="line2d_3">
      <path d="M 277.20132 235.638437 
L 277.20132 17.198437 
" clip-path="url(#p8f531a9ada)" style="fill: none; stroke-dasharray: 0.8,1.32; stroke-dashoffset: 0; stroke: #b0b0b0; stroke-opacity: 0.3; stroke-width: 0.8"/>
     </g>
     <g id="line2d_4">
      <g>
       <use xlink:href="#m0cb48100c1" x="277.20132" y="235.638437" style="stroke: #000000; stroke-width: 0.8"/>
      </g>
     </g>
     <g id="text_2">
      <!-- 2018 -->
      <g transform="translate(263.20382 250.996719) scale(0.11 -0.11)">
       <defs>
        <path id="DejaVuSerif-38" d="M 2981 1275 
Q 2981 1775 2732 2051 
Q 2484 2328 2034 2328 
Q 1584 2328 1336 2051 
Q 1088 1775 1088 1275 
Q 1088 772 1336 495 
Q 1584 219 2034 219 
Q 2484 219 2732 495 
Q 2981 772 2981 1275 
z
M 2853 3541 
Q 2853 3966 2637 4203 
Q 2422 4441 2034 4441 
Q 1650 4441 1433 4203 
Q 1216 3966 1216 3541 
Q 1216 3113 1433 2875 
Q 1650 2638 2034 2638 
Q 2422 2638 2637 2875 
Q 2853 3113 2853 3541 
z
M 2516 2484 
Q 3047 2413 3344 2092 
Q 3641 1772 3641 1275 
Q 3641 619 3225 264 
Q 2809 -91 2034 -91 
Q 1263 -91 845 264 
Q 428 619 428 1275 
Q 428 1772 725 2092 
Q 1022 2413 1556 2484 
Q 1084 2569 832 2842 
Q 581 3116 581 3541 
Q 581 4103 968 4426 
Q 1356 4750 2034 4750 
Q 2713 4750 3100 4426 
Q 3488 4103 3488 3541 
Q 3488 3116 3236 2842 
Q 2984 2569 2516 2484 
z
" transform="scale(0.015625)"/>
       </defs>
       <use xlink:href="#DejaVuSerif-32"/>
       <use xlink:href="#DejaVuSerif-30" transform="translate(63.623047 0)"/>
       <use xlink:href="#DejaVuSerif-31" transform="translate(127.246094 0)"/>
       <use xlink:href="#DejaVuSerif-38" transform="translate(190.869141 0)"/>
      </g>
     </g>
    </g>
    <g id="xtick_3">
     <g id="line2d_5">
      <path d="M 412.624217 235.638437 
L 412.624217 17.198437 
" clip-path="url(#p8f531a9ada)" style="fill: none; stroke-dasharray: 0.8,1.32; stroke-dashoffset: 0; stroke: #b0b0b0; stroke-opacity: 0.3; stroke-width: 0.8"/>
     </g>
     <g id="line2d_6">
      <g>
       <use xlink:href="#m0cb48100c1" x="412.624217" y="235.638437" style="stroke: #000000; stroke-width: 0.8"/>
      </g>
     </g>
     <g id="text_3">
      <!-- 2020 -->
      <g transform="translate(398.626717 250.996719) scale(0.11 -0.11)">
       <use xlink:href="#DejaVuSerif-32"/>
       <use xlink:href="#DejaVuSerif-30" transform="translate(63.623047 0)"/>
       <use xlink:href="#DejaVuSerif-32" transform="translate(127.246094 0)"/>
       <use xlink:href="#DejaVuSerif-30" transform="translate(190.869141 0)"/>
      </g>
     </g>
    </g>
    <g id="xtick_4">
     <g id="line2d_7">
      <path d="M 548.047114 235.638437 
L 548.047114 17.198437 
" clip-path="url(#p8f531a9ada)" style="fill: none; stroke-dasharray: 0.8,1.32; stroke-dashoffset: 0; stroke: #b0b0b0; stroke-opacity: 0.3; stroke-width: 0.8"/>
     </g>
     <g id="line2d_8">
      <g>
       <use xlink:href="#m0cb48100c1" x="548.047114" y="235.638437" style="stroke: #000000; stroke-width: 0.8"/>
      </g>
     </g>
     <g id="text_4">
      <!-- 2022 -->
      <g transform="translate(534.049614 250.996719) scale(0.11 -0.11)">
       <use xlink:href="#DejaVuSerif-32"/>
       <use xlink:href="#DejaVuSerif-30" transform="translate(63.623047 0)"/>
       <use xlink:href="#DejaVuSerif-32" transform="translate(127.246094 0)"/>
       <use xlink:href="#DejaVuSerif-32" transform="translate(190.869141 0)"/>
      </g>
     </g>
    </g>
    <g id="text_5">
     <!-- year -->
     <g transform="translate(338.297351 266.231875) scale(0.12 -0.12)">
      <defs>
       <path id="DejaVuSerif-79" d="M 1381 -609 
L 1600 -56 
L 359 2988 
L -19 2988 
L -19 3322 
L 1509 3322 
L 1509 2988 
L 978 2988 
L 1913 703 
L 2847 2988 
L 2350 2988 
L 2350 3322 
L 3597 3322 
L 3597 2988 
L 3225 2988 
L 1703 -750 
Q 1547 -1138 1356 -1280 
Q 1166 -1422 819 -1422 
Q 672 -1422 517 -1397 
Q 363 -1372 206 -1325 
L 206 -691 
L 500 -691 
Q 519 -903 608 -995 
Q 697 -1088 884 -1088 
Q 1056 -1088 1161 -992 
Q 1266 -897 1381 -609 
z
" transform="scale(0.015625)"/>
       <path id="DejaVuSerif-65" d="M 3469 1600 
L 991 1600 
L 991 1575 
Q 991 903 1244 561 
Q 1497 219 1991 219 
Q 2369 219 2611 417 
Q 2853 616 2950 1006 
L 3413 1006 
Q 3275 459 2904 184 
Q 2534 -91 1931 -91 
Q 1203 -91 761 389 
Q 319 869 319 1663 
Q 319 2450 753 2931 
Q 1188 3413 1894 3413 
Q 2647 3413 3050 2948 
Q 3453 2484 3469 1600 
z
M 2791 1931 
Q 2772 2513 2545 2808 
Q 2319 3103 1894 3103 
Q 1497 3103 1269 2806 
Q 1041 2509 991 1931 
L 2791 1931 
z
" transform="scale(0.015625)"/>
       <path id="DejaVuSerif-61" d="M 2547 1044 
L 2547 1747 
L 1806 1747 
Q 1378 1747 1168 1562 
Q 959 1378 959 997 
Q 959 650 1171 447 
Q 1384 244 1747 244 
Q 2106 244 2326 466 
Q 2547 688 2547 1044 
z
M 3122 2075 
L 3122 331 
L 3634 331 
L 3634 0 
L 2547 0 
L 2547 359 
Q 2356 128 2106 18 
Q 1856 -91 1522 -91 
Q 969 -91 644 203 
Q 319 497 319 997 
Q 319 1513 691 1797 
Q 1063 2081 1741 2081 
L 2547 2081 
L 2547 2309 
Q 2547 2688 2317 2895 
Q 2088 3103 1672 3103 
Q 1328 3103 1125 2947 
Q 922 2791 872 2484 
L 575 2484 
L 575 3156 
Q 875 3284 1158 3348 
Q 1441 3413 1709 3413 
Q 2400 3413 2761 3070 
Q 3122 2728 3122 2075 
z
" transform="scale(0.015625)"/>
       <path id="DejaVuSerif-72" d="M 3059 3328 
L 3059 2497 
L 2728 2497 
Q 2713 2744 2591 2866 
Q 2469 2988 2234 2988 
Q 1809 2988 1582 2694 
Q 1356 2400 1356 1850 
L 1356 331 
L 2022 331 
L 2022 0 
L 263 0 
L 263 331 
L 781 331 
L 781 2994 
L 231 2994 
L 231 3322 
L 1356 3322 
L 1356 2731 
Q 1525 3078 1790 3245 
Q 2056 3413 2438 3413 
Q 2578 3413 2733 3391 
Q 2888 3369 3059 3328 
z
" transform="scale(0.015625)"/>
      </defs>
      <use xlink:href="#DejaVuSerif-79"/>
      <use xlink:href="#DejaVuSerif-65" transform="translate(56.494141 0)"/>
      <use xlink:href="#DejaVuSerif-61" transform="translate(115.673828 0)"/>
      <use xlink:href="#DejaVuSerif-72" transform="translate(175.292969 0)"/>
     </g>
    </g>
   </g>
   <g id="matplotlib.axis_2">
    <g id="ytick_1">
     <g id="line2d_9">
      <path d="M 40.21125 235.638437 
L 663.156576 235.638437 
" clip-path="url(#p8f531a9ada)" style="fill: none; stroke-dasharray: 0.8,1.32; stroke-dashoffset: 0; stroke: #b0b0b0; stroke-opacity: 0.3; stroke-width: 0.8"/>
     </g>
     <g id="line2d_10">
      <defs>
       <path id="m385a7c7017" d="M 0 0 
L -3.5 0 
" style="stroke: #000000; stroke-width: 0.8"/>
      </defs>
      <g>
       <use xlink:href="#m385a7c7017" x="40.21125" y="235.638437" style="stroke: #000000; stroke-width: 0.8"/>
      </g>
     </g>
     <g id="text_6">
      <!-- 60 -->
      <g transform="translate(19.21375 239.817578) scale(0.11 -0.11)">
       <use xlink:href="#DejaVuSerif-36"/>
       <use xlink:href="#DejaVuSerif-30" transform="translate(63.623047 0)"/>
      </g>
     </g>
    </g>
    <g id="ytick_2">
     <g id="line2d_11">
      <path d="M 40.21125 199.231771 
L 663.156576 199.231771 
" clip-path="url(#p8f531a9ada)" style="fill: none; stroke-dasharray: 0.8,1.32; stroke-dashoffset: 0; stroke: #b0b0b0; stroke-opacity: 0.3; stroke-width: 0.8"/>
     </g>
     <g id="line2d_12">
      <g>
       <use xlink:href="#m385a7c7017" x="40.21125" y="199.231771" style="stroke: #000000; stroke-width: 0.8"/>
      </g>
     </g>
     <g id="text_7">
      <!-- 65 -->
      <g transform="translate(19.21375 203.410911) scale(0.11 -0.11)">
       <defs>
        <path id="DejaVuSerif-35" d="M 3219 4666 
L 3219 4153 
L 1081 4153 
L 1081 2816 
Q 1244 2928 1461 2984 
Q 1678 3041 1947 3041 
Q 2703 3041 3140 2622 
Q 3578 2203 3578 1478 
Q 3578 738 3136 323 
Q 2694 -91 1894 -91 
Q 1572 -91 1234 -12 
Q 897 66 544 225 
L 544 1131 
L 897 1131 
Q 925 688 1179 453 
Q 1434 219 1894 219 
Q 2388 219 2653 544 
Q 2919 869 2919 1478 
Q 2919 2084 2655 2407 
Q 2391 2731 1894 2731 
Q 1613 2731 1398 2631 
Q 1184 2531 1019 2322 
L 750 2322 
L 750 4666 
L 3219 4666 
z
" transform="scale(0.015625)"/>
       </defs>
       <use xlink:href="#DejaVuSerif-36"/>
       <use xlink:href="#DejaVuSerif-35" transform="translate(63.623047 0)"/>
      </g>
     </g>
    </g>
    <g id="ytick_3">
     <g id="line2d_13">
      <path d="M 40.21125 162.825104 
L 663.156576 162.825104 
" clip-path="url(#p8f531a9ada)" style="fill: none; stroke-dasharray: 0.8,1.32; stroke-dashoffset: 0; stroke: #b0b0b0; stroke-opacity: 0.3; stroke-width: 0.8"/>
     </g>
     <g id="line2d_14">
      <g>
       <use xlink:href="#m385a7c7017" x="40.21125" y="162.825104" style="stroke: #000000; stroke-width: 0.8"/>
      </g>
     </g>
     <g id="text_8">
      <!-- 70 -->
      <g transform="translate(19.21375 167.004245) scale(0.11 -0.11)">
       <defs>
        <path id="DejaVuSerif-37" d="M 3609 4347 
L 1784 0 
L 1319 0 
L 3059 4153 
L 903 4153 
L 903 3578 
L 538 3578 
L 538 4666 
L 3609 4666 
L 3609 4347 
z
" transform="scale(0.015625)"/>
       </defs>
       <use xlink:href="#DejaVuSerif-37"/>
       <use xlink:href="#DejaVuSerif-30" transform="translate(63.623047 0)"/>
      </g>
     </g>
    </g>
    <g id="ytick_4">
     <g id="line2d_15">
      <path d="M 40.21125 126.418437 
L 663.156576 126.418437 
" clip-path="url(#p8f531a9ada)" style="fill: none; stroke-dasharray: 0.8,1.32; stroke-dashoffset: 0; stroke: #b0b0b0; stroke-opacity: 0.3; stroke-width: 0.8"/>
     </g>
     <g id="line2d_16">
      <g>
       <use xlink:href="#m385a7c7017" x="40.21125" y="126.418437" style="stroke: #000000; stroke-width: 0.8"/>
      </g>
     </g>
     <g id="text_9">
      <!-- 75 -->
      <g transform="translate(19.21375 130.597578) scale(0.11 -0.11)">
       <use xlink:href="#DejaVuSerif-37"/>
       <use xlink:href="#DejaVuSerif-35" transform="translate(63.623047 0)"/>
      </g>
     </g>
    </g>
    <g id="ytick_5">
     <g id="line2d_17">
      <path d="M 40.21125 90.011771 
L 663.156576 90.011771 
" clip-path="url(#p8f531a9ada)" style="fill: none; stroke-dasharray: 0.8,1.32; stroke-dashoffset: 0; stroke: #b0b0b0; stroke-opacity: 0.3; stroke-width: 0.8"/>
     </g>
     <g id="line2d_18">
      <g>
       <use xlink:href="#m385a7c7017" x="40.21125" y="90.011771" style="stroke: #000000; stroke-width: 0.8"/>
      </g>
     </g>
     <g id="text_10">
      <!-- 80 -->
      <g transform="translate(19.21375 94.190911) scale(0.11 -0.11)">
       <use xlink:href="#DejaVuSerif-38"/>
       <use xlink:href="#DejaVuSerif-30" transform="translate(63.623047 0)"/>
      </g>
     </g>
    </g>
    <g id="ytick_6">
     <g id="line2d_19">
      <path d="M 40.21125 53.605104 
L 663.156576 53.605104 
" clip-path="url(#p8f531a9ada)" style="fill: none; stroke-dasharray: 0.8,1.32; stroke-dashoffset: 0; stroke: #b0b0b0; stroke-opacity: 0.3; stroke-width: 0.8"/>
     </g>
     <g id="line2d_20">
      <g>
       <use xlink:href="#m385a7c7017" x="40.21125" y="53.605104" style="stroke: #000000; stroke-width: 0.8"/>
      </g>
     </g>
     <g id="text_11">
      <!-- 85 -->
      <g transform="translate(19.21375 57.784245) scale(0.11 -0.11)">
       <use xlink:href="#DejaVuSerif-38"/>
       <use xlink:href="#DejaVuSerif-35" transform="translate(63.623047 0)"/>
      </g>
     </g>
    </g>
    <g id="ytick_7">
     <g id="line2d_21">
      <path d="M 40.21125 17.198437 
L 663.156576 17.198437 
" clip-path="url(#p8f531a9ada)" style="fill: none; stroke-dasharray: 0.8,1.32; stroke-dashoffset: 0; stroke: #b0b0b0; stroke-opacity: 0.3; stroke-width: 0.8"/>
     </g>
     <g id="line2d_22">
      <g>
       <use xlink:href="#m385a7c7017" x="40.21125" y="17.198437" style="stroke: #000000; stroke-width: 0.8"/>
      </g>
     </g>
     <g id="text_12">
      <!-- 90 -->
      <g transform="translate(19.21375 21.377578) scale(0.11 -0.11)">
       <defs>
        <path id="DejaVuSerif-39" d="M 2994 2091 
Q 2784 1856 2512 1740 
Q 2241 1625 1900 1625 
Q 1206 1625 804 2044 
Q 403 2463 403 3188 
Q 403 3897 839 4323 
Q 1275 4750 2003 4750 
Q 2794 4750 3217 4161 
Q 3641 3572 3641 2478 
Q 3641 1253 3137 581 
Q 2634 -91 1722 -91 
Q 1475 -91 1203 -44 
Q 931 3 647 97 
L 647 872 
L 997 872 
Q 1038 556 1241 387 
Q 1444 219 1784 219 
Q 2391 219 2687 676 
Q 2984 1134 2994 2091 
z
M 1978 4441 
Q 1534 4441 1298 4117 
Q 1063 3794 1063 3188 
Q 1063 2581 1298 2256 
Q 1534 1931 1978 1931 
Q 2422 1931 2658 2245 
Q 2894 2559 2894 3150 
Q 2894 3772 2656 4106 
Q 2419 4441 1978 4441 
z
" transform="scale(0.015625)"/>
       </defs>
       <use xlink:href="#DejaVuSerif-39"/>
       <use xlink:href="#DejaVuSerif-30" transform="translate(63.623047 0)"/>
      </g>
     </g>
    </g>
    <g id="text_13">
     <!-- headline student top-1 (% on CIFAR-100 / GLUE) -->
     <g transform="translate(12.718125 275.282187) rotate(-90) scale(0.12 -0.12)">
      <defs>
       <path id="DejaVuSerif-68" d="M 263 0 
L 263 331 
L 781 331 
L 781 4531 
L 231 4531 
L 231 4863 
L 1356 4863 
L 1356 2731 
Q 1516 3069 1770 3241 
Q 2025 3413 2363 3413 
Q 2913 3413 3172 3097 
Q 3431 2781 3431 2113 
L 3431 331 
L 3944 331 
L 3944 0 
L 2356 0 
L 2356 331 
L 2853 331 
L 2853 1931 
Q 2853 2541 2704 2764 
Q 2556 2988 2175 2988 
Q 1775 2988 1565 2697 
Q 1356 2406 1356 1850 
L 1356 331 
L 1856 331 
L 1856 0 
L 263 0 
z
" transform="scale(0.015625)"/>
       <path id="DejaVuSerif-64" d="M 3359 331 
L 3909 331 
L 3909 0 
L 2784 0 
L 2784 519 
Q 2616 206 2355 57 
Q 2094 -91 1709 -91 
Q 1097 -91 708 395 
Q 319 881 319 1663 
Q 319 2444 706 2928 
Q 1094 3413 1709 3413 
Q 2094 3413 2355 3264 
Q 2616 3116 2784 2803 
L 2784 4531 
L 2241 4531 
L 2241 4863 
L 3359 4863 
L 3359 331 
z
M 2784 1497 
L 2784 1825 
Q 2784 2422 2554 2737 
Q 2325 3053 1888 3053 
Q 1444 3053 1217 2703 
Q 991 2353 991 1663 
Q 991 975 1217 622 
Q 1444 269 1888 269 
Q 2325 269 2554 583 
Q 2784 897 2784 1497 
z
" transform="scale(0.015625)"/>
       <path id="DejaVuSerif-6c" d="M 1313 331 
L 1856 331 
L 1856 0 
L 184 0 
L 184 331 
L 738 331 
L 738 4531 
L 184 4531 
L 184 4863 
L 1313 4863 
L 1313 331 
z
" transform="scale(0.015625)"/>
       <path id="DejaVuSerif-69" d="M 622 4353 
Q 622 4497 726 4603 
Q 831 4709 978 4709 
Q 1122 4709 1226 4603 
Q 1331 4497 1331 4353 
Q 1331 4206 1228 4103 
Q 1125 4000 978 4000 
Q 831 4000 726 4103 
Q 622 4206 622 4353 
z
M 1356 331 
L 1900 331 
L 1900 0 
L 231 0 
L 231 331 
L 781 331 
L 781 2988 
L 231 2988 
L 231 3322 
L 1356 3322 
L 1356 331 
z
" transform="scale(0.015625)"/>
       <path id="DejaVuSerif-6e" d="M 263 0 
L 263 331 
L 781 331 
L 781 2988 
L 231 2988 
L 231 3322 
L 1356 3322 
L 1356 2731 
Q 1516 3069 1770 3241 
Q 2025 3413 2363 3413 
Q 2913 3413 3172 3097 
Q 3431 2781 3431 2113 
L 3431 331 
L 3944 331 
L 3944 0 
L 2356 0 
L 2356 331 
L 2853 331 
L 2853 1931 
Q 2853 2541 2703 2767 
Q 2553 2994 2175 2994 
Q 1775 2994 1565 2701 
Q 1356 2409 1356 1850 
L 1356 331 
L 1856 331 
L 1856 0 
L 263 0 
z
" transform="scale(0.015625)"/>
       <path id="DejaVuSerif-20" transform="scale(0.015625)"/>
       <path id="DejaVuSerif-73" d="M 359 184 
L 359 959 
L 691 959 
Q 703 588 923 403 
Q 1144 219 1575 219 
Q 1963 219 2166 364 
Q 2369 509 2369 788 
Q 2369 1006 2220 1140 
Q 2072 1275 1594 1428 
L 1178 1569 
Q 750 1706 558 1912 
Q 366 2119 366 2438 
Q 366 2894 700 3153 
Q 1034 3413 1625 3413 
Q 1888 3413 2178 3344 
Q 2469 3275 2778 3144 
L 2778 2419 
L 2447 2419 
Q 2434 2741 2221 2922 
Q 2009 3103 1644 3103 
Q 1281 3103 1095 2975 
Q 909 2847 909 2591 
Q 909 2381 1050 2254 
Q 1191 2128 1613 1997 
L 2069 1856 
Q 2541 1709 2748 1489 
Q 2956 1269 2956 922 
Q 2956 450 2595 179 
Q 2234 -91 1600 -91 
Q 1278 -91 972 -22 
Q 666 47 359 184 
z
" transform="scale(0.015625)"/>
       <path id="DejaVuSerif-74" d="M 691 2988 
L 184 2988 
L 184 3322 
L 691 3322 
L 691 4353 
L 1269 4353 
L 1269 3322 
L 2350 3322 
L 2350 2988 
L 1269 2988 
L 1269 878 
Q 1269 456 1350 337 
Q 1431 219 1650 219 
Q 1875 219 1978 351 
Q 2081 484 2088 781 
L 2522 781 
Q 2497 328 2275 118 
Q 2053 -91 1600 -91 
Q 1103 -91 897 129 
Q 691 350 691 878 
L 691 2988 
z
" transform="scale(0.015625)"/>
       <path id="DejaVuSerif-75" d="M 2266 3322 
L 3341 3322 
L 3341 331 
L 3884 331 
L 3884 0 
L 2766 0 
L 2766 588 
Q 2606 256 2353 82 
Q 2100 -91 1766 -91 
Q 1213 -91 952 223 
Q 691 538 691 1209 
L 691 2988 
L 172 2988 
L 172 3322 
L 1269 3322 
L 1269 1388 
Q 1269 781 1417 556 
Q 1566 331 1947 331 
Q 2347 331 2556 625 
Q 2766 919 2766 1478 
L 2766 2988 
L 2266 2988 
L 2266 3322 
z
" transform="scale(0.015625)"/>
       <path id="DejaVuSerif-6f" d="M 1925 219 
Q 2388 219 2623 584 
Q 2859 950 2859 1663 
Q 2859 2375 2623 2739 
Q 2388 3103 1925 3103 
Q 1463 3103 1227 2739 
Q 991 2375 991 1663 
Q 991 950 1228 584 
Q 1466 219 1925 219 
z
M 1925 -91 
Q 1200 -91 759 389 
Q 319 869 319 1663 
Q 319 2456 758 2934 
Q 1197 3413 1925 3413 
Q 2653 3413 3092 2934 
Q 3531 2456 3531 1663 
Q 3531 869 3092 389 
Q 2653 -91 1925 -91 
z
" transform="scale(0.015625)"/>
       <path id="DejaVuSerif-70" d="M 1313 1825 
L 1313 1497 
Q 1313 897 1542 583 
Q 1772 269 2209 269 
Q 2650 269 2876 622 
Q 3103 975 3103 1663 
Q 3103 2353 2876 2703 
Q 2650 3053 2209 3053 
Q 1772 3053 1542 2737 
Q 1313 2422 1313 1825 
z
M 738 2988 
L 184 2988 
L 184 3322 
L 1313 3322 
L 1313 2803 
Q 1481 3116 1742 3264 
Q 2003 3413 2388 3413 
Q 3000 3413 3387 2928 
Q 3775 2444 3775 1663 
Q 3775 881 3387 395 
Q 3000 -91 2388 -91 
Q 2003 -91 1742 57 
Q 1481 206 1313 519 
L 1313 -997 
L 1856 -997 
L 1856 -1331 
L 184 -1331 
L 184 -997 
L 738 -997 
L 738 2988 
z
" transform="scale(0.015625)"/>
       <path id="DejaVuSerif-2d" d="M 281 1959 
L 1881 1959 
L 1881 1472 
L 281 1472 
L 281 1959 
z
" transform="scale(0.015625)"/>
       <path id="DejaVuSerif-28" d="M 2041 -997 
Q 1281 -656 893 83 
Q 506 822 506 1931 
Q 506 3044 893 3783 
Q 1281 4522 2041 4863 
L 2041 4556 
Q 1559 4225 1350 3623 
Q 1141 3022 1141 1931 
Q 1141 844 1350 242 
Q 1559 -359 2041 -691 
L 2041 -997 
z
" transform="scale(0.015625)"/>
       <path id="DejaVuSerif-25" d="M 1434 4459 
Q 1159 4459 1004 4200 
Q 850 3941 850 3475 
Q 850 3016 1008 2753 
Q 1166 2491 1434 2491 
Q 1700 2491 1854 2752 
Q 2009 3013 2009 3475 
Q 2009 3938 1854 4198 
Q 1700 4459 1434 4459 
z
M 4653 2169 
Q 4381 2169 4226 1906 
Q 4072 1644 4072 1178 
Q 4072 719 4228 458 
Q 4384 197 4653 197 
Q 4922 197 5075 458 
Q 5228 719 5228 1178 
Q 5228 1641 5073 1905 
Q 4919 2169 4653 2169 
z
M 4653 2450 
Q 5147 2450 5437 2106 
Q 5728 1763 5728 1178 
Q 5728 594 5436 251 
Q 5144 -91 4653 -91 
Q 4153 -91 3862 251 
Q 3572 594 3572 1178 
Q 3572 1766 3864 2108 
Q 4156 2450 4653 2450 
z
M 4263 4750 
L 4738 4750 
L 1819 -91 
L 1344 -91 
L 4263 4750 
z
M 1428 4750 
Q 1922 4750 2215 4408 
Q 2509 4066 2509 3481 
Q 2509 2891 2217 2550 
Q 1925 2209 1428 2209 
Q 931 2209 642 2551 
Q 353 2894 353 3481 
Q 353 4063 643 4406 
Q 934 4750 1428 4750 
z
" transform="scale(0.015625)"/>
       <path id="DejaVuSerif-43" d="M 4513 1234 
Q 4306 581 3820 245 
Q 3334 -91 2591 -91 
Q 2134 -91 1743 65 
Q 1353 222 1050 525 
Q 700 875 529 1320 
Q 359 1766 359 2328 
Q 359 3416 987 4083 
Q 1616 4750 2644 4750 
Q 3025 4750 3456 4650 
Q 3888 4550 4384 4347 
L 4384 3272 
L 4031 3272 
Q 3916 3859 3567 4137 
Q 3219 4416 2591 4416 
Q 1844 4416 1459 3886 
Q 1075 3356 1075 2328 
Q 1075 1303 1459 773 
Q 1844 244 2591 244 
Q 3113 244 3450 492 
Q 3788 741 3938 1234 
L 4513 1234 
z
" transform="scale(0.015625)"/>
       <path id="DejaVuSerif-49" d="M 1581 331 
L 2175 331 
L 2175 0 
L 353 0 
L 353 331 
L 947 331 
L 947 4331 
L 353 4331 
L 353 4666 
L 2175 4666 
L 2175 4331 
L 1581 4331 
L 1581 331 
z
" transform="scale(0.015625)"/>
       <path id="DejaVuSerif-46" d="M 353 0 
L 353 331 
L 947 331 
L 947 4331 
L 353 4331 
L 353 4666 
L 4172 4666 
L 4172 3628 
L 3788 3628 
L 3788 4281 
L 1581 4281 
L 1581 2719 
L 3175 2719 
L 3175 3303 
L 3559 3303 
L 3559 1753 
L 3175 1753 
L 3175 2338 
L 1581 2338 
L 1581 331 
L 2328 331 
L 2328 0 
L 353 0 
z
" transform="scale(0.015625)"/>
       <path id="DejaVuSerif-41" d="M 1281 1691 
L 2994 1691 
L 2138 3909 
L 1281 1691 
z
M -38 0 
L -38 331 
L 372 331 
L 2034 4666 
L 2559 4666 
L 4225 331 
L 4684 331 
L 4684 0 
L 2988 0 
L 2988 331 
L 3506 331 
L 3116 1356 
L 1153 1356 
L 763 331 
L 1275 331 
L 1275 0 
L -38 0 
z
" transform="scale(0.015625)"/>
       <path id="DejaVuSerif-52" d="M 3066 2316 
Q 3284 2256 3442 2114 
Q 3600 1972 3725 1716 
L 4403 331 
L 4972 331 
L 4972 0 
L 3872 0 
L 3144 1484 
Q 2934 1916 2759 2042 
Q 2584 2169 2278 2169 
L 1581 2169 
L 1581 331 
L 2241 331 
L 2241 0 
L 353 0 
L 353 331 
L 947 331 
L 947 4331 
L 353 4331 
L 353 4666 
L 2719 4666 
Q 3400 4666 3770 4341 
Q 4141 4016 4141 3419 
Q 4141 2938 3870 2661 
Q 3600 2384 3066 2316 
z
M 1581 2503 
L 2503 2503 
Q 2975 2503 3200 2726 
Q 3425 2950 3425 3419 
Q 3425 3888 3200 4109 
Q 2975 4331 2503 4331 
L 1581 4331 
L 1581 2503 
z
" transform="scale(0.015625)"/>
       <path id="DejaVuSerif-2f" d="M 1656 4666 
L 2156 4666 
L 500 -594 
L 0 -594 
L 1656 4666 
z
" transform="scale(0.015625)"/>
       <path id="DejaVuSerif-47" d="M 4097 3272 
Q 3988 3856 3641 4136 
Q 3294 4416 2675 4416 
Q 1869 4416 1472 3897 
Q 1075 3378 1075 2328 
Q 1075 1300 1484 772 
Q 1894 244 2688 244 
Q 3041 244 3362 331 
Q 3684 419 3975 594 
L 3975 1797 
L 3097 1797 
L 3097 2131 
L 4609 2131 
L 4609 391 
Q 4194 150 3714 29 
Q 3234 -91 2688 -91 
Q 1631 -91 995 570 
Q 359 1231 359 2328 
Q 359 3434 996 4092 
Q 1634 4750 2713 4750 
Q 3113 4750 3539 4658 
Q 3966 4566 4447 4378 
L 4447 3272 
L 4097 3272 
z
" transform="scale(0.015625)"/>
       <path id="DejaVuSerif-4c" d="M 353 0 
L 353 331 
L 947 331 
L 947 4331 
L 353 4331 
L 353 4666 
L 2175 4666 
L 2175 4331 
L 1581 4331 
L 1581 384 
L 3713 384 
L 3713 1166 
L 4097 1166 
L 4097 0 
L 353 0 
z
" transform="scale(0.015625)"/>
       <path id="DejaVuSerif-55" d="M 897 4331 
L 300 4331 
L 300 4666 
L 2125 4666 
L 2125 4331 
L 1528 4331 
L 1528 1919 
Q 1528 1025 1820 672 
Q 2113 319 2828 319 
Q 3544 319 3836 672 
Q 4128 1025 4128 1919 
L 4128 4331 
L 3531 4331 
L 3531 4666 
L 5106 4666 
L 5106 4331 
L 4513 4331 
L 4513 1856 
Q 4513 791 4103 350 
Q 3694 -91 2713 -91 
Q 1731 -91 1314 353 
Q 897 797 897 1856 
L 897 4331 
z
" transform="scale(0.015625)"/>
       <path id="DejaVuSerif-45" d="M 353 0 
L 353 331 
L 947 331 
L 947 4331 
L 353 4331 
L 353 4666 
L 4109 4666 
L 4109 3628 
L 3725 3628 
L 3725 4281 
L 1581 4281 
L 1581 2719 
L 3109 2719 
L 3109 3303 
L 3494 3303 
L 3494 1753 
L 3109 1753 
L 3109 2338 
L 1581 2338 
L 1581 384 
L 3775 384 
L 3775 1038 
L 4159 1038 
L 4159 0 
L 353 0 
z
" transform="scale(0.015625)"/>
       <path id="DejaVuSerif-29" d="M 453 -997 
L 453 -691 
Q 934 -359 1145 242 
Q 1356 844 1356 1931 
Q 1356 3022 1145 3623 
Q 934 4225 453 4556 
L 453 4863 
Q 1216 4522 1603 3783 
Q 1991 3044 1991 1931 
Q 1991 822 1603 83 
Q 1216 -656 453 -997 
z
" transform="scale(0.015625)"/>
      </defs>
      <use xlink:href="#DejaVuSerif-68"/>
      <use xlink:href="#DejaVuSerif-65" transform="translate(64.404297 0)"/>
      <use xlink:href="#DejaVuSerif-61" transform="translate(123.583984 0)"/>
      <use xlink:href="#DejaVuSerif-64" transform="translate(183.203125 0)"/>
      <use xlink:href="#DejaVuSerif-6c" transform="translate(247.216797 0)"/>
      <use xlink:href="#DejaVuSerif-69" transform="translate(279.199219 0)"/>
      <use xlink:href="#DejaVuSerif-6e" transform="translate(311.181641 0)"/>
      <use xlink:href="#DejaVuSerif-65" transform="translate(375.585938 0)"/>
      <use xlink:href="#DejaVuSerif-20" transform="translate(434.765625 0)"/>
      <use xlink:href="#DejaVuSerif-73" transform="translate(466.552734 0)"/>
      <use xlink:href="#DejaVuSerif-74" transform="translate(517.871094 0)"/>
      <use xlink:href="#DejaVuSerif-75" transform="translate(558.056641 0)"/>
      <use xlink:href="#DejaVuSerif-64" transform="translate(622.460938 0)"/>
      <use xlink:href="#DejaVuSerif-65" transform="translate(686.474609 0)"/>
      <use xlink:href="#DejaVuSerif-6e" transform="translate(745.654297 0)"/>
      <use xlink:href="#DejaVuSerif-74" transform="translate(810.058594 0)"/>
      <use xlink:href="#DejaVuSerif-20" transform="translate(850.244141 0)"/>
      <use xlink:href="#DejaVuSerif-74" transform="translate(882.03125 0)"/>
      <use xlink:href="#DejaVuSerif-6f" transform="translate(922.216797 0)"/>
      <use xlink:href="#DejaVuSerif-70" transform="translate(982.421875 0)"/>
      <use xlink:href="#DejaVuSerif-2d" transform="translate(1046.435547 0)"/>
      <use xlink:href="#DejaVuSerif-31" transform="translate(1080.224609 0)"/>
      <use xlink:href="#DejaVuSerif-20" transform="translate(1143.847656 0)"/>
      <use xlink:href="#DejaVuSerif-28" transform="translate(1175.634766 0)"/>
      <use xlink:href="#DejaVuSerif-25" transform="translate(1214.648438 0)"/>
      <use xlink:href="#DejaVuSerif-20" transform="translate(1309.667969 0)"/>
      <use xlink:href="#DejaVuSerif-6f" transform="translate(1341.455078 0)"/>
      <use xlink:href="#DejaVuSerif-6e" transform="translate(1401.660156 0)"/>
      <use xlink:href="#DejaVuSerif-20" transform="translate(1466.064453 0)"/>
      <use xlink:href="#DejaVuSerif-43" transform="translate(1497.851562 0)"/>
      <use xlink:href="#DejaVuSerif-49" transform="translate(1574.365234 0)"/>
      <use xlink:href="#DejaVuSerif-46" transform="translate(1613.867188 0)"/>
      <use xlink:href="#DejaVuSerif-41" transform="translate(1674.501953 0)"/>
      <use xlink:href="#DejaVuSerif-52" transform="translate(1746.71875 0)"/>
      <use xlink:href="#DejaVuSerif-2d" transform="translate(1822.011719 0)"/>
      <use xlink:href="#DejaVuSerif-31" transform="translate(1855.800781 0)"/>
      <use xlink:href="#DejaVuSerif-30" transform="translate(1919.423828 0)"/>
      <use xlink:href="#DejaVuSerif-30" transform="translate(1983.046875 0)"/>
      <use xlink:href="#DejaVuSerif-20" transform="translate(2046.669922 0)"/>
      <use xlink:href="#DejaVuSerif-2f" transform="translate(2078.457031 0)"/>
      <use xlink:href="#DejaVuSerif-20" transform="translate(2112.148438 0)"/>
      <use xlink:href="#DejaVuSerif-47" transform="translate(2143.935547 0)"/>
      <use xlink:href="#DejaVuSerif-4c" transform="translate(2223.818359 0)"/>
      <use xlink:href="#DejaVuSerif-55" transform="translate(2284.724609 0)"/>
      <use xlink:href="#DejaVuSerif-45" transform="translate(2369.001953 0)"/>
      <use xlink:href="#DejaVuSerif-29" transform="translate(2442 0)"/>
     </g>
    </g>
   </g>
   <g id="line2d_23">
    <path d="M 40.21125 122.049637 
L 663.156576 122.049637 
" clip-path="url(#p8f531a9ada)" style="fill: none; stroke-dasharray: 0.8,1.32; stroke-dashoffset: 0; stroke: #000000; stroke-opacity: 0.6; stroke-width: 0.8"/>
   </g>
   <g id="patch_3">
    <path d="M 40.21125 235.638437 
L 40.21125 17.198437 
" style="fill: none; stroke: #000000; stroke-width: 0.8; stroke-linejoin: miter; stroke-linecap: square"/>
   </g>
   <g id="patch_4">
    <path d="M 40.21125 235.638437 
L 663.156576 235.638437 
" style="fill: none; stroke: #000000; stroke-width: 0.8; stroke-linejoin: miter; stroke-linecap: square"/>
   </g>
   <g id="text_14">
    <!-- WRN-40-2 teacher (75.6%) -->
    <g transform="translate(485.868878 118.929621) scale(0.08 -0.08)">
     <defs>
      <path id="DejaVuSerif-57" d="M 4878 0 
L 4366 0 
L 3297 3794 
L 2228 0 
L 1716 0 
L 494 4331 
L 31 4331 
L 31 4666 
L 1734 4666 
L 1734 4331 
L 1153 4331 
L 2125 884 
L 3188 4666 
L 3694 4666 
L 4775 844 
L 5753 4331 
L 5216 4331 
L 5216 4666 
L 6559 4666 
L 6559 4331 
L 6100 4331 
L 4878 0 
z
" transform="scale(0.015625)"/>
      <path id="DejaVuSerif-4e" d="M 313 0 
L 313 331 
L 941 331 
L 941 4331 
L 313 4331 
L 313 4666 
L 1509 4666 
L 4306 984 
L 4306 4331 
L 3681 4331 
L 3681 4666 
L 5319 4666 
L 5319 4331 
L 4691 4331 
L 4691 -91 
L 4313 -91 
L 1325 3841 
L 1325 331 
L 1953 331 
L 1953 0 
L 313 0 
z
" transform="scale(0.015625)"/>
      <path id="DejaVuSerif-34" d="M 2234 1581 
L 2234 4063 
L 641 1581 
L 2234 1581 
z
M 3609 0 
L 1484 0 
L 1484 331 
L 2234 331 
L 2234 1247 
L 197 1247 
L 197 1588 
L 2241 4750 
L 2859 4750 
L 2859 1581 
L 3750 1581 
L 3750 1247 
L 2859 1247 
L 2859 331 
L 3609 331 
L 3609 0 
z
" transform="scale(0.015625)"/>
      <path id="DejaVuSerif-63" d="M 3291 997 
Q 3169 466 2822 187 
Q 2475 -91 1925 -91 
Q 1200 -91 759 389 
Q 319 869 319 1663 
Q 319 2459 759 2936 
Q 1200 3413 1925 3413 
Q 2241 3413 2553 3339 
Q 2866 3266 3181 3116 
L 3181 2266 
L 2847 2266 
Q 2781 2703 2561 2903 
Q 2341 3103 1931 3103 
Q 1466 3103 1228 2742 
Q 991 2381 991 1663 
Q 991 944 1227 581 
Q 1463 219 1931 219 
Q 2303 219 2525 412 
Q 2747 606 2828 997 
L 3291 997 
z
" transform="scale(0.015625)"/>
      <path id="DejaVuSerif-2e" d="M 603 325 
Q 603 500 722 622 
Q 841 744 1019 744 
Q 1191 744 1312 622 
Q 1434 500 1434 325 
Q 1434 153 1312 31 
Q 1191 -91 1019 -91 
Q 841 -91 722 29 
Q 603 150 603 325 
z
" transform="scale(0.015625)"/>
     </defs>
     <use xlink:href="#DejaVuSerif-57"/>
     <use xlink:href="#DejaVuSerif-52" transform="translate(102.783203 0)"/>
     <use xlink:href="#DejaVuSerif-4e" transform="translate(178.076172 0)"/>
     <use xlink:href="#DejaVuSerif-2d" transform="translate(265.576172 0)"/>
     <use xlink:href="#DejaVuSerif-34" transform="translate(299.365234 0)"/>
     <use xlink:href="#DejaVuSerif-30" transform="translate(362.988281 0)"/>
     <use xlink:href="#DejaVuSerif-2d" transform="translate(426.611328 0)"/>
     <use xlink:href="#DejaVuSerif-32" transform="translate(460.400391 0)"/>
     <use xlink:href="#DejaVuSerif-20" transform="translate(524.023438 0)"/>
     <use xlink:href="#DejaVuSerif-74" transform="translate(555.810547 0)"/>
     <use xlink:href="#DejaVuSerif-65" transform="translate(595.996094 0)"/>
     <use xlink:href="#DejaVuSerif-61" transform="translate(655.175781 0)"/>
     <use xlink:href="#DejaVuSerif-63" transform="translate(714.794922 0)"/>
     <use xlink:href="#DejaVuSerif-68" transform="translate(770.800781 0)"/>
     <use xlink:href="#DejaVuSerif-65" transform="translate(835.205078 0)"/>
     <use xlink:href="#DejaVuSerif-72" transform="translate(894.384766 0)"/>
     <use xlink:href="#DejaVuSerif-20" transform="translate(942.1875 0)"/>
     <use xlink:href="#DejaVuSerif-28" transform="translate(973.974609 0)"/>
     <use xlink:href="#DejaVuSerif-37" transform="translate(1012.988281 0)"/>
     <use xlink:href="#DejaVuSerif-35" transform="translate(1076.611328 0)"/>
     <use xlink:href="#DejaVuSerif-2e" transform="translate(1140.234375 0)"/>
     <use xlink:href="#DejaVuSerif-36" transform="translate(1172.021484 0)"/>
     <use xlink:href="#DejaVuSerif-25" transform="translate(1235.644531 0)"/>
     <use xlink:href="#DejaVuSerif-29" transform="translate(1330.664062 0)"/>
    </g>
   </g>
   <g id="PathCollection_1">
    <defs>
     <path id="m4d97ed62d5" d="M 0 4.1833 
C 1.109424 4.1833 2.173559 3.742521 2.95804 2.95804 
C 3.742521 2.173559 4.1833 1.109424 4.1833 0 
C 4.1833 -1.109424 3.742521 -2.173559 2.95804 -2.95804 
C 2.173559 -3.742521 1.109424 -4.1833 0 -4.1833 
C -1.109424 -4.1833 -2.173559 -3.742521 -2.95804 -2.95804 
C -3.742521 -2.173559 -4.1833 -1.109424 -4.1833 0 
C -4.1833 1.109424 -3.742521 2.173559 -2.95804 2.95804 
C -2.173559 3.742521 -1.109424 4.1833 0 4.1833 
z
" style="stroke: #000000; stroke-width: 0.4"/>
    </defs>
    <g clip-path="url(#p8f531a9ada)">
     <use xlink:href="#m4d97ed62d5" x="72.306223" y="184.669104" style="fill: #1f77b4; stroke: #000000; stroke-width: 0.4"/>
    </g>
   </g>
   <g id="text_15">
    <!-- Hinton -->
    <g transform="translate(78.806776 181.756571) scale(0.08 -0.08)">
     <defs>
      <path id="DejaVuSerif-48" d="M 353 0 
L 353 331 
L 947 331 
L 947 4331 
L 353 4331 
L 353 4666 
L 2175 4666 
L 2175 4331 
L 1581 4331 
L 1581 2719 
L 4000 2719 
L 4000 4331 
L 3406 4331 
L 3406 4666 
L 5228 4666 
L 5228 4331 
L 4634 4331 
L 4634 331 
L 5228 331 
L 5228 0 
L 3406 0 
L 3406 331 
L 4000 331 
L 4000 2338 
L 1581 2338 
L 1581 331 
L 2175 331 
L 2175 0 
L 353 0 
z
" transform="scale(0.015625)"/>
     </defs>
     <use xlink:href="#DejaVuSerif-48"/>
     <use xlink:href="#DejaVuSerif-69" transform="translate(87.207031 0)"/>
     <use xlink:href="#DejaVuSerif-6e" transform="translate(119.189453 0)"/>
     <use xlink:href="#DejaVuSerif-74" transform="translate(183.59375 0)"/>
     <use xlink:href="#DejaVuSerif-6f" transform="translate(223.779297 0)"/>
     <use xlink:href="#DejaVuSerif-6e" transform="translate(283.984375 0)"/>
    </g>
   </g>
   <g id="PathCollection_2">
    <defs>
     <path id="mb1cd6c654a" d="M -4.1833 4.1833 
L 4.1833 4.1833 
L 4.1833 -4.1833 
L -4.1833 -4.1833 
z
" style="stroke: #000000; stroke-width: 0.4"/>
    </defs>
    <g clip-path="url(#p8f531a9ada)">
     <use xlink:href="#mb1cd6c654a" x="75.073848" y="199.231771" style="fill: #ff7f0e; stroke: #000000; stroke-width: 0.4"/>
    </g>
   </g>
   <g id="text_16">
    <!-- FitNets -->
    <g transform="translate(78.806776 207.969371) scale(0.08 -0.08)">
     <use xlink:href="#DejaVuSerif-46"/>
     <use xlink:href="#DejaVuSerif-69" transform="translate(69.384766 0)"/>
     <use xlink:href="#DejaVuSerif-74" transform="translate(101.367188 0)"/>
     <use xlink:href="#DejaVuSerif-4e" transform="translate(141.552734 0)"/>
     <use xlink:href="#DejaVuSerif-65" transform="translate(229.052734 0)"/>
     <use xlink:href="#DejaVuSerif-74" transform="translate(288.232422 0)"/>
     <use xlink:href="#DejaVuSerif-73" transform="translate(328.417969 0)"/>
    </g>
   </g>
   <g id="PathCollection_3">
    <g clip-path="url(#p8f531a9ada)">
     <use xlink:href="#mb1cd6c654a" x="208.353419" y="137.340437" style="fill: #ff7f0e; stroke: #000000; stroke-width: 0.4"/>
    </g>
   </g>
   <g id="text_17">
    <!-- AT -->
    <g transform="translate(214.229673 134.427904) scale(0.08 -0.08)">
     <defs>
      <path id="DejaVuSerif-54" d="M 1222 0 
L 1222 331 
L 1819 331 
L 1819 4294 
L 447 4294 
L 447 3566 
L 63 3566 
L 63 4666 
L 4206 4666 
L 4206 3566 
L 3822 3566 
L 3822 4294 
L 2450 4294 
L 2450 331 
L 3047 331 
L 3047 0 
L 1222 0 
z
" transform="scale(0.015625)"/>
     </defs>
     <use xlink:href="#DejaVuSerif-41"/>
     <use xlink:href="#DejaVuSerif-54" transform="translate(66.716797 0)"/>
    </g>
   </g>
   <g id="PathCollection_4">
    <defs>
     <path id="mfed9001494" d="M -0 4.1833 
L 4.1833 -4.1833 
L -4.1833 -4.1833 
z
" style="stroke: #000000; stroke-width: 0.4"/>
    </defs>
    <g clip-path="url(#p8f531a9ada)">
     <use xlink:href="#mfed9001494" x="278.331893" y="57.245771" style="fill: #d62728; stroke: #000000; stroke-width: 0.4"/>
    </g>
   </g>
   <g id="text_18">
    <!-- Born-Again -->
    <g transform="translate(281.941121 54.333237) scale(0.08 -0.08)">
     <defs>
      <path id="DejaVuSerif-42" d="M 1581 331 
L 2516 331 
Q 3078 331 3337 575 
Q 3597 819 3597 1350 
Q 3597 1878 3339 2120 
Q 3081 2363 2516 2363 
L 1581 2363 
L 1581 331 
z
M 1581 2694 
L 2375 2694 
Q 2888 2694 3123 2891 
Q 3359 3088 3359 3513 
Q 3359 3941 3123 4136 
Q 2888 4331 2375 4331 
L 1581 4331 
L 1581 2694 
z
M 353 0 
L 353 331 
L 947 331 
L 947 4331 
L 353 4331 
L 353 4666 
L 2656 4666 
Q 3363 4666 3720 4377 
Q 4078 4088 4078 3513 
Q 4078 3097 3829 2850 
Q 3581 2603 3103 2547 
Q 3697 2472 4005 2167 
Q 4313 1863 4313 1350 
Q 4313 656 3875 328 
Q 3438 0 2509 0 
L 353 0 
z
" transform="scale(0.015625)"/>
      <path id="DejaVuSerif-67" d="M 3359 2988 
L 3359 72 
Q 3359 -644 2965 -1033 
Q 2572 -1422 1844 -1422 
Q 1516 -1422 1216 -1362 
Q 916 -1303 641 -1184 
L 641 -488 
L 941 -488 
Q 997 -813 1206 -963 
Q 1416 -1113 1806 -1113 
Q 2313 -1113 2548 -827 
Q 2784 -541 2784 72 
L 2784 519 
Q 2616 206 2355 57 
Q 2094 -91 1709 -91 
Q 1097 -91 708 395 
Q 319 881 319 1663 
Q 319 2444 706 2928 
Q 1094 3413 1709 3413 
Q 2094 3413 2355 3264 
Q 2616 3116 2784 2803 
L 2784 3322 
L 3909 3322 
L 3909 2988 
L 3359 2988 
z
M 2784 1825 
Q 2784 2422 2554 2737 
Q 2325 3053 1888 3053 
Q 1444 3053 1217 2703 
Q 991 2353 991 1663 
Q 991 975 1217 622 
Q 1444 269 1888 269 
Q 2325 269 2554 583 
Q 2784 897 2784 1497 
L 2784 1825 
z
" transform="scale(0.015625)"/>
     </defs>
     <use xlink:href="#DejaVuSerif-42"/>
     <use xlink:href="#DejaVuSerif-6f" transform="translate(73.486328 0)"/>
     <use xlink:href="#DejaVuSerif-72" transform="translate(133.691406 0)"/>
     <use xlink:href="#DejaVuSerif-6e" transform="translate(181.494141 0)"/>
     <use xlink:href="#DejaVuSerif-2d" transform="translate(245.898438 0)"/>
     <use xlink:href="#DejaVuSerif-41" transform="translate(279.6875 0)"/>
     <use xlink:href="#DejaVuSerif-67" transform="translate(351.904297 0)"/>
     <use xlink:href="#DejaVuSerif-61" transform="translate(415.917969 0)"/>
     <use xlink:href="#DejaVuSerif-69" transform="translate(475.537109 0)"/>
     <use xlink:href="#DejaVuSerif-6e" transform="translate(507.519531 0)"/>
    </g>
   </g>
   <g id="PathCollection_5">
    <defs>
     <path id="m677e8ece45" d="M 0 -4.1833 
L -4.1833 4.1833 
L 4.1833 4.1833 
z
" style="stroke: #000000; stroke-width: 0.4"/>
    </defs>
    <g clip-path="url(#p8f531a9ada)">
     <use xlink:href="#m677e8ece45" x="274.980827" y="160.640704" style="fill: #9467bd; stroke: #000000; stroke-width: 0.4"/>
    </g>
   </g>
   <g id="text_19">
    <!-- DML -->
    <g transform="translate(281.941121 169.378304) scale(0.08 -0.08)">
     <defs>
      <path id="DejaVuSerif-44" d="M 1581 331 
L 2163 331 
Q 3072 331 3558 850 
Q 4044 1369 4044 2338 
Q 4044 3306 3559 3818 
Q 3075 4331 2163 4331 
L 1581 4331 
L 1581 331 
z
M 353 0 
L 353 331 
L 947 331 
L 947 4331 
L 353 4331 
L 353 4666 
L 2209 4666 
Q 3416 4666 4089 4050 
Q 4763 3434 4763 2338 
Q 4763 1238 4088 619 
Q 3413 0 2209 0 
L 353 0 
z
" transform="scale(0.015625)"/>
      <path id="DejaVuSerif-4d" d="M 353 0 
L 353 331 
L 947 331 
L 947 4331 
L 319 4331 
L 319 4666 
L 1678 4666 
L 3316 1344 
L 4953 4666 
L 6228 4666 
L 6228 4331 
L 5606 4331 
L 5606 331 
L 6203 331 
L 6203 0 
L 4378 0 
L 4378 331 
L 4972 331 
L 4972 3938 
L 3372 684 
L 2931 684 
L 1331 3938 
L 1331 331 
L 1925 331 
L 1925 0 
L 353 0 
z
" transform="scale(0.015625)"/>
     </defs>
     <use xlink:href="#DejaVuSerif-44"/>
     <use xlink:href="#DejaVuSerif-4d" transform="translate(80.175781 0)"/>
     <use xlink:href="#DejaVuSerif-4c" transform="translate(182.568359 0)"/>
    </g>
   </g>
   <g id="PathCollection_6">
    <g clip-path="url(#p8f531a9ada)">
     <use xlink:href="#m677e8ece45" x="275.561126" y="138.068571" style="fill: #9467bd; stroke: #000000; stroke-width: 0.4"/>
    </g>
   </g>
   <g id="text_20">
    <!-- ONE -->
    <g transform="translate(281.941121 135.156037) scale(0.08 -0.08)">
     <defs>
      <path id="DejaVuSerif-4f" d="M 2625 244 
Q 3391 244 3781 770 
Q 4172 1297 4172 2328 
Q 4172 3363 3781 3889 
Q 3391 4416 2625 4416 
Q 1856 4416 1465 3889 
Q 1075 3363 1075 2328 
Q 1075 1297 1465 770 
Q 1856 244 2625 244 
z
M 2625 -91 
Q 2150 -91 1751 65 
Q 1353 222 1050 525 
Q 700 875 529 1319 
Q 359 1763 359 2328 
Q 359 2894 529 3339 
Q 700 3784 1050 4134 
Q 1356 4441 1750 4595 
Q 2144 4750 2625 4750 
Q 3641 4750 4266 4084 
Q 4891 3419 4891 2328 
Q 4891 1769 4719 1320 
Q 4547 872 4197 525 
Q 3891 219 3497 64 
Q 3103 -91 2625 -91 
z
" transform="scale(0.015625)"/>
     </defs>
     <use xlink:href="#DejaVuSerif-4f"/>
     <use xlink:href="#DejaVuSerif-4e" transform="translate(81.982422 0)"/>
     <use xlink:href="#DejaVuSerif-45" transform="translate(169.482422 0)"/>
    </g>
   </g>
   <g id="PathCollection_7">
    <defs>
     <path id="m4eee49993d" d="M -0 5.91608 
L 5.91608 0 
L 0 -5.91608 
L -5.91608 -0 
z
" style="stroke: #000000; stroke-width: 0.4"/>
    </defs>
    <g clip-path="url(#p8f531a9ada)">
     <use xlink:href="#m4eee49993d" x="341.566031" y="159.912571" style="fill: #2ca02c; stroke: #000000; stroke-width: 0.4"/>
    </g>
   </g>
   <g id="text_21">
    <!-- RKD -->
    <g transform="translate(349.65257 157.000037) scale(0.08 -0.08)">
     <defs>
      <path id="DejaVuSerif-4b" d="M 353 0 
L 353 331 
L 947 331 
L 947 4331 
L 353 4331 
L 353 4666 
L 2175 4666 
L 2175 4331 
L 1581 4331 
L 1581 2566 
L 3591 4331 
L 3084 4331 
L 3084 4666 
L 4634 4666 
L 4634 4331 
L 4109 4331 
L 2106 2572 
L 4347 331 
L 4878 331 
L 4878 0 
L 3794 0 
L 1581 2216 
L 1581 331 
L 2175 331 
L 2175 0 
L 353 0 
z
" transform="scale(0.015625)"/>
     </defs>
     <use xlink:href="#DejaVuSerif-52"/>
     <use xlink:href="#DejaVuSerif-4b" transform="translate(75.292969 0)"/>
     <use xlink:href="#DejaVuSerif-44" transform="translate(150 0)"/>
    </g>
   </g>
   <g id="PathCollection_8">
    <defs>
     <path id="m2bcdfc947d" d="M 0 -4.1833 
L -0.939209 -1.292711 
L -3.978555 -1.292711 
L -1.519673 0.493772 
L -2.458882 3.384361 
L -0 1.597878 
L 2.458882 3.384361 
L 1.519673 0.493772 
L 3.978555 -1.292711 
L 0.939209 -1.292711 
z
" style="stroke: #000000; stroke-width: 0.4"/>
    </defs>
    <g clip-path="url(#p8f531a9ada)">
     <use xlink:href="#m2bcdfc947d" x="345.331397" y="111.855771" style="fill: #e377c2; stroke: #000000; stroke-width: 0.4"/>
    </g>
   </g>
   <g id="text_22">
    <!-- DistilBERT -->
    <g transform="translate(349.65257 108.943237) scale(0.08 -0.08)">
     <use xlink:href="#DejaVuSerif-44"/>
     <use xlink:href="#DejaVuSerif-69" transform="translate(80.175781 0)"/>
     <use xlink:href="#DejaVuSerif-73" transform="translate(112.158203 0)"/>
     <use xlink:href="#DejaVuSerif-74" transform="translate(163.476562 0)"/>
     <use xlink:href="#DejaVuSerif-69" transform="translate(203.662109 0)"/>
     <use xlink:href="#DejaVuSerif-6c" transform="translate(235.644531 0)"/>
     <use xlink:href="#DejaVuSerif-42" transform="translate(267.626953 0)"/>
     <use xlink:href="#DejaVuSerif-45" transform="translate(341.113281 0)"/>
     <use xlink:href="#DejaVuSerif-52" transform="translate(414.111328 0)"/>
     <use xlink:href="#DejaVuSerif-54" transform="translate(487.654297 0)"/>
    </g>
   </g>
   <g id="PathCollection_9">
    <g clip-path="url(#p8f531a9ada)">
     <use xlink:href="#m4eee49993d" x="409.531142" y="132.971637" style="fill: #2ca02c; stroke: #000000; stroke-width: 0.4"/>
    </g>
   </g>
   <g id="text_23">
    <!-- CRD -->
    <g transform="translate(417.364018 141.709237) scale(0.08 -0.08)">
     <use xlink:href="#DejaVuSerif-43"/>
     <use xlink:href="#DejaVuSerif-52" transform="translate(76.513672 0)"/>
     <use xlink:href="#DejaVuSerif-44" transform="translate(151.806641 0)"/>
    </g>
   </g>
   <g id="PathCollection_10">
    <g clip-path="url(#p8f531a9ada)">
     <use xlink:href="#m2bcdfc947d" x="413.245044" y="115.496437" style="fill: #e377c2; stroke: #000000; stroke-width: 0.4"/>
    </g>
   </g>
   <g id="text_24">
    <!-- TinyBERT -->
    <g transform="translate(417.364018 124.234037) scale(0.08 -0.08)">
     <use xlink:href="#DejaVuSerif-54"/>
     <use xlink:href="#DejaVuSerif-69" transform="translate(66.699219 0)"/>
     <use xlink:href="#DejaVuSerif-6e" transform="translate(98.681641 0)"/>
     <use xlink:href="#DejaVuSerif-79" transform="translate(163.085938 0)"/>
     <use xlink:href="#DejaVuSerif-42" transform="translate(219.580078 0)"/>
     <use xlink:href="#DejaVuSerif-45" transform="translate(293.066406 0)"/>
     <use xlink:href="#DejaVuSerif-52" transform="translate(366.064453 0)"/>
     <use xlink:href="#DejaVuSerif-54" transform="translate(439.607422 0)"/>
    </g>
   </g>
   <g id="PathCollection_11">
    <g clip-path="url(#p8f531a9ada)">
     <use xlink:href="#m2bcdfc947d" x="414.225868" y="100.933771" style="fill: #e377c2; stroke: #000000; stroke-width: 0.4"/>
    </g>
   </g>
   <g id="text_25">
    <!-- MobileBERT -->
    <g transform="translate(417.364018 98.021237) scale(0.08 -0.08)">
     <defs>
      <path id="DejaVuSerif-62" d="M 738 331 
L 738 4531 
L 184 4531 
L 184 4863 
L 1313 4863 
L 1313 2803 
Q 1481 3116 1742 3264 
Q 2003 3413 2388 3413 
Q 3000 3413 3387 2928 
Q 3775 2444 3775 1663 
Q 3775 881 3387 395 
Q 3000 -91 2388 -91 
Q 2003 -91 1742 57 
Q 1481 206 1313 519 
L 1313 0 
L 184 0 
L 184 331 
L 738 331 
z
M 1313 1497 
Q 1313 897 1542 583 
Q 1772 269 2209 269 
Q 2650 269 2876 622 
Q 3103 975 3103 1663 
Q 3103 2353 2876 2703 
Q 2650 3053 2209 3053 
Q 1772 3053 1542 2737 
Q 1313 2422 1313 1825 
L 1313 1497 
z
" transform="scale(0.015625)"/>
     </defs>
     <use xlink:href="#DejaVuSerif-4d"/>
     <use xlink:href="#DejaVuSerif-6f" transform="translate(102.392578 0)"/>
     <use xlink:href="#DejaVuSerif-62" transform="translate(162.597656 0)"/>
     <use xlink:href="#DejaVuSerif-69" transform="translate(226.611328 0)"/>
     <use xlink:href="#DejaVuSerif-6c" transform="translate(258.59375 0)"/>
     <use xlink:href="#DejaVuSerif-65" transform="translate(290.576172 0)"/>
     <use xlink:href="#DejaVuSerif-42" transform="translate(349.755859 0)"/>
     <use xlink:href="#DejaVuSerif-45" transform="translate(423.242188 0)"/>
     <use xlink:href="#DejaVuSerif-52" transform="translate(496.240234 0)"/>
     <use xlink:href="#DejaVuSerif-54" transform="translate(569.783203 0)"/>
    </g>
   </g>
   <g id="PathCollection_12">
    <g clip-path="url(#p8f531a9ada)">
     <use xlink:href="#m2bcdfc947d" x="410.374448" y="98.021237" style="fill: #e377c2; stroke: #000000; stroke-width: 0.4"/>
    </g>
   </g>
   <g id="text_26">
    <!-- MiniLM -->
    <g transform="translate(417.364018 95.108704) scale(0.08 -0.08)">
     <use xlink:href="#DejaVuSerif-4d"/>
     <use xlink:href="#DejaVuSerif-69" transform="translate(102.392578 0)"/>
     <use xlink:href="#DejaVuSerif-6e" transform="translate(134.375 0)"/>
     <use xlink:href="#DejaVuSerif-69" transform="translate(198.779297 0)"/>
     <use xlink:href="#DejaVuSerif-4c" transform="translate(230.761719 0)"/>
     <use xlink:href="#DejaVuSerif-4d" transform="translate(297.167969 0)"/>
    </g>
   </g>
   <g id="PathCollection_13">
    <g clip-path="url(#p8f531a9ada)">
     <use xlink:href="#mfed9001494" x="481.985803" y="101.661904" style="fill: #d62728; stroke: #000000; stroke-width: 0.4"/>
    </g>
   </g>
   <g id="text_27">
    <!-- PS-KD -->
    <g transform="translate(485.075467 98.749371) scale(0.08 -0.08)">
     <defs>
      <path id="DejaVuSerif-50" d="M 1581 2375 
L 2406 2375 
Q 2872 2375 3115 2626 
Q 3359 2878 3359 3353 
Q 3359 3831 3115 4081 
Q 2872 4331 2406 4331 
L 1581 4331 
L 1581 2375 
z
M 353 0 
L 353 331 
L 947 331 
L 947 4331 
L 353 4331 
L 353 4666 
L 2559 4666 
Q 3259 4666 3668 4311 
Q 4078 3956 4078 3353 
Q 4078 2753 3668 2397 
Q 3259 2041 2559 2041 
L 1581 2041 
L 1581 331 
L 2303 331 
L 2303 0 
L 353 0 
z
" transform="scale(0.015625)"/>
      <path id="DejaVuSerif-53" d="M 594 225 
L 594 1288 
L 953 1284 
Q 969 753 1261 498 
Q 1553 244 2150 244 
Q 2706 244 2998 464 
Q 3291 684 3291 1106 
Q 3291 1444 3114 1625 
Q 2938 1806 2369 1978 
L 1753 2163 
Q 1084 2366 811 2669 
Q 538 2972 538 3500 
Q 538 4094 959 4422 
Q 1381 4750 2144 4750 
Q 2469 4750 2856 4679 
Q 3244 4609 3681 4475 
L 3681 3481 
L 3328 3481 
Q 3275 3975 2998 4195 
Q 2722 4416 2156 4416 
Q 1663 4416 1405 4214 
Q 1147 4013 1147 3628 
Q 1147 3294 1340 3103 
Q 1534 2913 2163 2725 
L 2741 2553 
Q 3375 2363 3645 2067 
Q 3916 1772 3916 1275 
Q 3916 597 3481 253 
Q 3047 -91 2188 -91 
Q 1803 -91 1404 -12 
Q 1006 66 594 225 
z
" transform="scale(0.015625)"/>
     </defs>
     <use xlink:href="#DejaVuSerif-50"/>
     <use xlink:href="#DejaVuSerif-53" transform="translate(67.285156 0)"/>
     <use xlink:href="#DejaVuSerif-2d" transform="translate(139.416016 0)"/>
     <use xlink:href="#DejaVuSerif-4b" transform="translate(173.205078 0)"/>
     <use xlink:href="#DejaVuSerif-44" transform="translate(247.912109 0)"/>
    </g>
   </g>
   <g id="PathCollection_14">
    <defs>
     <path id="m842d10edad" d="M -4.1833 4.1833 
L 4.1833 -4.1833 
M -4.1833 -4.1833 
L 4.1833 4.1833 
" style="stroke: #7f7f7f; stroke-width: 0.4"/>
    </defs>
    <g clip-path="url(#p8f531a9ada)">
     <use xlink:href="#m842d10edad" x="478.025719" y="140.981104" style="fill: #7f7f7f; stroke: #7f7f7f; stroke-width: 0.4"/>
    </g>
   </g>
   <g id="text_28">
    <!-- Stanton -->
    <g transform="translate(485.075467 151.174971) scale(0.08 -0.08)">
     <use xlink:href="#DejaVuSerif-53"/>
     <use xlink:href="#DejaVuSerif-74" transform="translate(68.505859 0)"/>
     <use xlink:href="#DejaVuSerif-61" transform="translate(108.691406 0)"/>
     <use xlink:href="#DejaVuSerif-6e" transform="translate(168.310547 0)"/>
     <use xlink:href="#DejaVuSerif-74" transform="translate(232.714844 0)"/>
     <use xlink:href="#DejaVuSerif-6f" transform="translate(272.900391 0)"/>
     <use xlink:href="#DejaVuSerif-6e" transform="translate(333.105469 0)"/>
    </g>
   </g>
   <g id="PathCollection_15">
    <defs>
     <path id="mb29a66a5c3" d="M -1.394433 4.1833 
L 1.394433 4.1833 
L 1.394433 1.394433 
L 4.1833 1.394433 
L 4.1833 -1.394433 
L 1.394433 -1.394433 
L 1.394433 -4.1833 
L -1.394433 -4.1833 
L -1.394433 -1.394433 
L -4.1833 -1.394433 
L -4.1833 1.394433 
L -1.394433 1.394433 
z
" style="stroke: #000000; stroke-width: 0.4"/>
    </defs>
    <g clip-path="url(#p8f531a9ada)">
     <use xlink:href="#mb29a66a5c3" x="547.870475" y="126.418437" style="fill: #8c564b; stroke: #000000; stroke-width: 0.4"/>
    </g>
   </g>
   <g id="text_29">
    <!-- Salimans -->
    <g transform="translate(552.786915 135.156037) scale(0.08 -0.08)">
     <defs>
      <path id="DejaVuSerif-6d" d="M 3316 2675 
Q 3481 3041 3739 3227 
Q 3997 3413 4341 3413 
Q 4863 3413 5119 3089 
Q 5375 2766 5375 2113 
L 5375 331 
L 5894 331 
L 5894 0 
L 4300 0 
L 4300 331 
L 4800 331 
L 4800 2047 
Q 4800 2556 4650 2772 
Q 4500 2988 4153 2988 
Q 3769 2988 3567 2697 
Q 3366 2406 3366 1850 
L 3366 331 
L 3866 331 
L 3866 0 
L 2291 0 
L 2291 331 
L 2791 331 
L 2791 2069 
Q 2791 2566 2641 2777 
Q 2491 2988 2144 2988 
Q 1759 2988 1557 2697 
Q 1356 2406 1356 1850 
L 1356 331 
L 1856 331 
L 1856 0 
L 263 0 
L 263 331 
L 781 331 
L 781 2994 
L 231 2994 
L 231 3322 
L 1356 3322 
L 1356 2731 
Q 1516 3063 1762 3238 
Q 2009 3413 2322 3413 
Q 2709 3413 2968 3220 
Q 3228 3028 3316 2675 
z
" transform="scale(0.015625)"/>
     </defs>
     <use xlink:href="#DejaVuSerif-53"/>
     <use xlink:href="#DejaVuSerif-61" transform="translate(68.505859 0)"/>
     <use xlink:href="#DejaVuSerif-6c" transform="translate(128.125 0)"/>
     <use xlink:href="#DejaVuSerif-69" transform="translate(160.107422 0)"/>
     <use xlink:href="#DejaVuSerif-6d" transform="translate(192.089844 0)"/>
     <use xlink:href="#DejaVuSerif-61" transform="translate(286.914062 0)"/>
     <use xlink:href="#DejaVuSerif-6e" transform="translate(346.533203 0)"/>
     <use xlink:href="#DejaVuSerif-73" transform="translate(410.9375 0)"/>
    </g>
   </g>
   <g id="PathCollection_16">
    <g clip-path="url(#p8f531a9ada)">
     <use xlink:href="#m4d97ed62d5" x="547.099651" y="127.874704" style="fill: #1f77b4; stroke: #000000; stroke-width: 0.4"/>
    </g>
   </g>
   <g id="text_30">
    <!-- DKD -->
    <g transform="translate(552.786915 124.962171) scale(0.08 -0.08)">
     <use xlink:href="#DejaVuSerif-44"/>
     <use xlink:href="#DejaVuSerif-4b" transform="translate(80.175781 0)"/>
     <use xlink:href="#DejaVuSerif-44" transform="translate(154.882812 0)"/>
    </g>
   </g>
   <g id="PathCollection_17">
    <g clip-path="url(#p8f531a9ada)">
     <use xlink:href="#m2bcdfc947d" x="615.409921" y="90.011771" style="fill: #e377c2; stroke: #000000; stroke-width: 0.4"/>
    </g>
   </g>
   <g id="text_31">
    <!-- MiniLLM -->
    <g transform="translate(620.498364 87.099237) scale(0.08 -0.08)">
     <use xlink:href="#DejaVuSerif-4d"/>
     <use xlink:href="#DejaVuSerif-69" transform="translate(102.392578 0)"/>
     <use xlink:href="#DejaVuSerif-6e" transform="translate(134.375 0)"/>
     <use xlink:href="#DejaVuSerif-69" transform="translate(198.779297 0)"/>
     <use xlink:href="#DejaVuSerif-4c" transform="translate(230.761719 0)"/>
     <use xlink:href="#DejaVuSerif-4c" transform="translate(297.167969 0)"/>
     <use xlink:href="#DejaVuSerif-4d" transform="translate(363.574219 0)"/>
    </g>
   </g>
   <g id="text_32">
    <!-- KD family evolution: representative student headline vs publication year -->
    <g transform="translate(167.553444 11.198437) scale(0.1 -0.1)">
     <defs>
      <path id="DejaVuSerif-66" d="M 2753 4078 
L 2450 4078 
Q 2447 4313 2317 4434 
Q 2188 4556 1941 4556 
Q 1619 4556 1487 4379 
Q 1356 4203 1356 3750 
L 1356 3322 
L 2284 3322 
L 2284 2988 
L 1356 2988 
L 1356 331 
L 2094 331 
L 2094 0 
L 231 0 
L 231 331 
L 781 331 
L 781 2988 
L 231 2988 
L 231 3322 
L 781 3322 
L 781 3738 
Q 781 4294 1070 4578 
Q 1359 4863 1919 4863 
Q 2128 4863 2337 4825 
Q 2547 4788 2753 4709 
L 2753 4078 
z
" transform="scale(0.015625)"/>
      <path id="DejaVuSerif-76" d="M 1581 0 
L 359 2988 
L -19 2988 
L -19 3322 
L 1509 3322 
L 1509 2988 
L 978 2988 
L 1913 703 
L 2847 2988 
L 2350 2988 
L 2350 3322 
L 3597 3322 
L 3597 2988 
L 3225 2988 
L 2003 0 
L 1581 0 
z
" transform="scale(0.015625)"/>
      <path id="DejaVuSerif-3a" d="M 666 325 
Q 666 500 786 622 
Q 906 744 1081 744 
Q 1256 744 1376 622 
Q 1497 500 1497 325 
Q 1497 150 1378 29 
Q 1259 -91 1081 -91 
Q 903 -91 784 29 
Q 666 150 666 325 
z
M 666 2363 
Q 666 2538 786 2658 
Q 906 2778 1081 2778 
Q 1259 2778 1378 2659 
Q 1497 2541 1497 2363 
Q 1497 2184 1378 2065 
Q 1259 1947 1081 1947 
Q 906 1947 786 2067 
Q 666 2188 666 2363 
z
" transform="scale(0.015625)"/>
     </defs>
     <use xlink:href="#DejaVuSerif-4b"/>
     <use xlink:href="#DejaVuSerif-44" transform="translate(74.707031 0)"/>
     <use xlink:href="#DejaVuSerif-20" transform="translate(154.882812 0)"/>
     <use xlink:href="#DejaVuSerif-66" transform="translate(186.669922 0)"/>
     <use xlink:href="#DejaVuSerif-61" transform="translate(223.681641 0)"/>
     <use xlink:href="#DejaVuSerif-6d" transform="translate(283.300781 0)"/>
     <use xlink:href="#DejaVuSerif-69" transform="translate(378.125 0)"/>
     <use xlink:href="#DejaVuSerif-6c" transform="translate(410.107422 0)"/>
     <use xlink:href="#DejaVuSerif-79" transform="translate(442.089844 0)"/>
     <use xlink:href="#DejaVuSerif-20" transform="translate(498.583984 0)"/>
     <use xlink:href="#DejaVuSerif-65" transform="translate(530.371094 0)"/>
     <use xlink:href="#DejaVuSerif-76" transform="translate(589.550781 0)"/>
     <use xlink:href="#DejaVuSerif-6f" transform="translate(646.044922 0)"/>
     <use xlink:href="#DejaVuSerif-6c" transform="translate(706.25 0)"/>
     <use xlink:href="#DejaVuSerif-75" transform="translate(738.232422 0)"/>
     <use xlink:href="#DejaVuSerif-74" transform="translate(802.636719 0)"/>
     <use xlink:href="#DejaVuSerif-69" transform="translate(842.822266 0)"/>
     <use xlink:href="#DejaVuSerif-6f" transform="translate(874.804688 0)"/>
     <use xlink:href="#DejaVuSerif-6e" transform="translate(935.009766 0)"/>
     <use xlink:href="#DejaVuSerif-3a" transform="translate(999.414062 0)"/>
     <use xlink:href="#DejaVuSerif-20" transform="translate(1033.105469 0)"/>
     <use xlink:href="#DejaVuSerif-72" transform="translate(1064.892578 0)"/>
     <use xlink:href="#DejaVuSerif-65" transform="translate(1112.695312 0)"/>
     <use xlink:href="#DejaVuSerif-70" transform="translate(1171.875 0)"/>
     <use xlink:href="#DejaVuSerif-72" transform="translate(1235.888672 0)"/>
     <use xlink:href="#DejaVuSerif-65" transform="translate(1283.691406 0)"/>
     <use xlink:href="#DejaVuSerif-73" transform="translate(1342.871094 0)"/>
     <use xlink:href="#DejaVuSerif-65" transform="translate(1394.189453 0)"/>
     <use xlink:href="#DejaVuSerif-6e" transform="translate(1453.369141 0)"/>
     <use xlink:href="#DejaVuSerif-74" transform="translate(1517.773438 0)"/>
     <use xlink:href="#DejaVuSerif-61" transform="translate(1557.958984 0)"/>
     <use xlink:href="#DejaVuSerif-74" transform="translate(1617.578125 0)"/>
     <use xlink:href="#DejaVuSerif-69" transform="translate(1657.763672 0)"/>
     <use xlink:href="#DejaVuSerif-76" transform="translate(1689.746094 0)"/>
     <use xlink:href="#DejaVuSerif-65" transform="translate(1746.240234 0)"/>
     <use xlink:href="#DejaVuSerif-20" transform="translate(1805.419922 0)"/>
     <use xlink:href="#DejaVuSerif-73" transform="translate(1837.207031 0)"/>
     <use xlink:href="#DejaVuSerif-74" transform="translate(1888.525391 0)"/>
     <use xlink:href="#DejaVuSerif-75" transform="translate(1928.710938 0)"/>
     <use xlink:href="#DejaVuSerif-64" transform="translate(1993.115234 0)"/>
     <use xlink:href="#DejaVuSerif-65" transform="translate(2057.128906 0)"/>
     <use xlink:href="#DejaVuSerif-6e" transform="translate(2116.308594 0)"/>
     <use xlink:href="#DejaVuSerif-74" transform="translate(2180.712891 0)"/>
     <use xlink:href="#DejaVuSerif-20" transform="translate(2220.898438 0)"/>
     <use xlink:href="#DejaVuSerif-68" transform="translate(2252.685547 0)"/>
     <use xlink:href="#DejaVuSerif-65" transform="translate(2317.089844 0)"/>
     <use xlink:href="#DejaVuSerif-61" transform="translate(2376.269531 0)"/>
     <use xlink:href="#DejaVuSerif-64" transform="translate(2435.888672 0)"/>
     <use xlink:href="#DejaVuSerif-6c" transform="translate(2499.902344 0)"/>
     <use xlink:href="#DejaVuSerif-69" transform="translate(2531.884766 0)"/>
     <use xlink:href="#DejaVuSerif-6e" transform="translate(2563.867188 0)"/>
     <use xlink:href="#DejaVuSerif-65" transform="translate(2628.271484 0)"/>
     <use xlink:href="#DejaVuSerif-20" transform="translate(2687.451172 0)"/>
     <use xlink:href="#DejaVuSerif-76" transform="translate(2719.238281 0)"/>
     <use xlink:href="#DejaVuSerif-73" transform="translate(2775.732422 0)"/>
     <use xlink:href="#DejaVuSerif-20" transform="translate(2827.050781 0)"/>
     <use xlink:href="#DejaVuSerif-70" transform="translate(2858.837891 0)"/>
     <use xlink:href="#DejaVuSerif-75" transform="translate(2922.851562 0)"/>
     <use xlink:href="#DejaVuSerif-62" transform="translate(2987.255859 0)"/>
     <use xlink:href="#DejaVuSerif-6c" transform="translate(3051.269531 0)"/>
     <use xlink:href="#DejaVuSerif-69" transform="translate(3083.251953 0)"/>
     <use xlink:href="#DejaVuSerif-63" transform="translate(3115.234375 0)"/>
     <use xlink:href="#DejaVuSerif-61" transform="translate(3171.240234 0)"/>
     <use xlink:href="#DejaVuSerif-74" transform="translate(3230.859375 0)"/>
     <use xlink:href="#DejaVuSerif-69" transform="translate(3271.044922 0)"/>
     <use xlink:href="#DejaVuSerif-6f" transform="translate(3303.027344 0)"/>
     <use xlink:href="#DejaVuSerif-6e" transform="translate(3363.232422 0)"/>
     <use xlink:href="#DejaVuSerif-20" transform="translate(3427.636719 0)"/>
     <use xlink:href="#DejaVuSerif-79" transform="translate(3459.423828 0)"/>
     <use xlink:href="#DejaVuSerif-65" transform="translate(3515.917969 0)"/>
     <use xlink:href="#DejaVuSerif-61" transform="translate(3575.097656 0)"/>
     <use xlink:href="#DejaVuSerif-72" transform="translate(3634.716797 0)"/>
    </g>
   </g>
   <g id="legend_1">
    <g id="PathCollection_18">
     <g>
      <use xlink:href="#m4d97ed62d5" x="531.175326" y="189.447187" style="fill: #1f77b4; stroke: #000000; stroke-width: 0.4"/>
     </g>
    </g>
    <g id="text_33">
     <!-- response -->
     <g transform="translate(545.575326 191.547187) scale(0.08 -0.08)">
      <use xlink:href="#DejaVuSerif-72"/>
      <use xlink:href="#DejaVuSerif-65" transform="translate(47.802734 0)"/>
      <use xlink:href="#DejaVuSerif-73" transform="translate(106.982422 0)"/>
      <use xlink:href="#DejaVuSerif-70" transform="translate(158.300781 0)"/>
      <use xlink:href="#DejaVuSerif-6f" transform="translate(222.314453 0)"/>
      <use xlink:href="#DejaVuSerif-6e" transform="translate(282.519531 0)"/>
      <use xlink:href="#DejaVuSerif-73" transform="translate(346.923828 0)"/>
      <use xlink:href="#DejaVuSerif-65" transform="translate(398.242188 0)"/>
     </g>
    </g>
    <g id="PathCollection_19">
     <g>
      <use xlink:href="#mb1cd6c654a" x="531.175326" y="201.189687" style="fill: #ff7f0e; stroke: #000000; stroke-width: 0.4"/>
     </g>
    </g>
    <g id="text_34">
     <!-- feature -->
     <g transform="translate(545.575326 203.289687) scale(0.08 -0.08)">
      <use xlink:href="#DejaVuSerif-66"/>
      <use xlink:href="#DejaVuSerif-65" transform="translate(37.011719 0)"/>
      <use xlink:href="#DejaVuSerif-61" transform="translate(96.191406 0)"/>
      <use xlink:href="#DejaVuSerif-74" transform="translate(155.810547 0)"/>
      <use xlink:href="#DejaVuSerif-75" transform="translate(195.996094 0)"/>
      <use xlink:href="#DejaVuSerif-72" transform="translate(260.400391 0)"/>
      <use xlink:href="#DejaVuSerif-65" transform="translate(308.203125 0)"/>
     </g>
    </g>
    <g id="PathCollection_20">
     <g>
      <use xlink:href="#mfed9001494" x="531.175326" y="212.932187" style="fill: #d62728; stroke: #000000; stroke-width: 0.4"/>
     </g>
    </g>
    <g id="text_35">
     <!-- self -->
     <g transform="translate(545.575326 215.032187) scale(0.08 -0.08)">
      <use xlink:href="#DejaVuSerif-73"/>
      <use xlink:href="#DejaVuSerif-65" transform="translate(51.318359 0)"/>
      <use xlink:href="#DejaVuSerif-6c" transform="translate(110.498047 0)"/>
      <use xlink:href="#DejaVuSerif-66" transform="translate(142.480469 0)"/>
     </g>
    </g>
    <g id="PathCollection_21">
     <g>
      <use xlink:href="#m677e8ece45" x="531.175326" y="224.674687" style="fill: #9467bd; stroke: #000000; stroke-width: 0.4"/>
     </g>
    </g>
    <g id="text_36">
     <!-- online -->
     <g transform="translate(545.575326 226.774687) scale(0.08 -0.08)">
      <use xlink:href="#DejaVuSerif-6f"/>
      <use xlink:href="#DejaVuSerif-6e" transform="translate(60.205078 0)"/>
      <use xlink:href="#DejaVuSerif-6c" transform="translate(124.609375 0)"/>
      <use xlink:href="#DejaVuSerif-69" transform="translate(156.591797 0)"/>
      <use xlink:href="#DejaVuSerif-6e" transform="translate(188.574219 0)"/>
      <use xlink:href="#DejaVuSerif-65" transform="translate(252.978516 0)"/>
     </g>
    </g>
    <g id="PathCollection_22">
     <g>
      <use xlink:href="#m4eee49993d" x="606.169076" y="189.447187" style="fill: #2ca02c; stroke: #000000; stroke-width: 0.4"/>
     </g>
    </g>
    <g id="text_37">
     <!-- relation -->
     <g transform="translate(620.569076 191.547187) scale(0.08 -0.08)">
      <use xlink:href="#DejaVuSerif-72"/>
      <use xlink:href="#DejaVuSerif-65" transform="translate(47.802734 0)"/>
      <use xlink:href="#DejaVuSerif-6c" transform="translate(106.982422 0)"/>
      <use xlink:href="#DejaVuSerif-61" transform="translate(138.964844 0)"/>
      <use xlink:href="#DejaVuSerif-74" transform="translate(198.583984 0)"/>
      <use xlink:href="#DejaVuSerif-69" transform="translate(238.769531 0)"/>
      <use xlink:href="#DejaVuSerif-6f" transform="translate(270.751953 0)"/>
      <use xlink:href="#DejaVuSerif-6e" transform="translate(330.957031 0)"/>
     </g>
    </g>
    <g id="PathCollection_23">
     <g>
      <use xlink:href="#m2bcdfc947d" x="606.169076" y="201.189687" style="fill: #e377c2; stroke: #000000; stroke-width: 0.4"/>
     </g>
    </g>
    <g id="text_38">
     <!-- nlp -->
     <g transform="translate(620.569076 203.289687) scale(0.08 -0.08)">
      <use xlink:href="#DejaVuSerif-6e"/>
      <use xlink:href="#DejaVuSerif-6c" transform="translate(64.404297 0)"/>
      <use xlink:href="#DejaVuSerif-70" transform="translate(96.386719 0)"/>
     </g>
    </g>
    <g id="PathCollection_24">
     <g>
      <use xlink:href="#m842d10edad" x="606.169076" y="212.932187" style="fill: #7f7f7f; stroke: #7f7f7f; stroke-width: 0.4"/>
     </g>
    </g>
    <g id="text_39">
     <!-- audit -->
     <g transform="translate(620.569076 215.032187) scale(0.08 -0.08)">
      <use xlink:href="#DejaVuSerif-61"/>
      <use xlink:href="#DejaVuSerif-75" transform="translate(59.619141 0)"/>
      <use xlink:href="#DejaVuSerif-64" transform="translate(124.023438 0)"/>
      <use xlink:href="#DejaVuSerif-69" transform="translate(188.037109 0)"/>
      <use xlink:href="#DejaVuSerif-74" transform="translate(220.019531 0)"/>
     </g>
    </g>
    <g id="PathCollection_25">
     <g>
      <use xlink:href="#mb29a66a5c3" x="606.169076" y="224.674687" style="fill: #8c564b; stroke: #000000; stroke-width: 0.4"/>
     </g>
    </g>
    <g id="text_40">
     <!-- diffusion -->
     <g transform="translate(620.569076 226.774687) scale(0.08 -0.08)">
      <use xlink:href="#DejaVuSerif-64"/>
      <use xlink:href="#DejaVuSerif-69" transform="translate(64.013672 0)"/>
      <use xlink:href="#DejaVuSerif-66" transform="translate(95.996094 0)"/>
      <use xlink:href="#DejaVuSerif-66" transform="translate(133.007812 0)"/>
      <use xlink:href="#DejaVuSerif-75" transform="translate(170.019531 0)"/>
      <use xlink:href="#DejaVuSerif-73" transform="translate(234.423828 0)"/>
      <use xlink:href="#DejaVuSerif-69" transform="translate(285.742188 0)"/>
      <use xlink:href="#DejaVuSerif-6f" transform="translate(317.724609 0)"/>
      <use xlink:href="#DejaVuSerif-6e" transform="translate(377.929688 0)"/>
     </g>
    </g>
   </g>
  </g>
 </g>
 <defs>
  <clipPath id="p8f531a9ada">
   <rect x="40.21125" y="17.198437" width="622.945326" height="218.44"/>
  </clipPath>
 </defs>
</svg>
