<?xml version="1.0" encoding="utf-8" standalone="no"?>
<!DOCTYPE svg PUBLIC "-//W3C//DTD SVG 1.1//EN"
  "http://www.w3.org/Graphics/SVG/1.1/DTD/svg11.dtd">
<svg xmlns:xlink="http://www.w3.org/1999/xlink" width="653.461499pt" height="271.289972pt" viewBox="0 0 653.461499 271.289972" xmlns="http://www.w3.org/2000/svg" version="1.1">
 <metadata>
  <rdf:RDF xmlns:dc="http://purl.org/dc/elements/1.1/" xmlns:cc="http://creativecommons.org/ns#" xmlns:rdf="http://www.w3.org/1999/02/22-rdf-syntax-ns#">
   <cc:Work>
    <dc:type rdf:resource="http://purl.org/dc/dcmitype/StillImage"/>
    <dc:date>2026-06-25T22:57:17.673183</dc:date>
    <dc:format>image/svg+xml</dc:format>
    <dc:creator>
     <cc:Agent>
      <dc:title>Matplotlib v3.11.0, https://matplotlib.org/</dc:title>
     </cc:Agent>
    </dc:creator>
   </cc:Work>
  </rdf:RDF>
 </metadata>
 <defs>
  <style type="text/css">*{stroke-linejoin: round; stroke-linecap: butt}</style>
 </defs>
 <g id="figure_1">
  <g id="patch_1">
   <path d="M 0 271.289972 
L 653.461499 271.289972 
L 653.461499 0 
L 0 0 
z
" style="fill: #ffffff"/>
  </g>
  <g id="axes_1">
   <g id="patch_2">
    <path d="M 22.640781 248.64919 
L 630.82769 248.64919 
L 630.82769 22.998281 
L 22.640781 22.998281 
z
" style="fill: #ffffff"/>
   </g>
   <g id="patch_3">
    <path d="M 22.640781 99.71959 
L 630.82769 99.71959 
L 630.82769 22.998281 
L 22.640781 22.998281 
z
" clip-path="url(#pd17977c7b7)" style="fill: #d4ecd4; opacity: 0.55"/>
   </g>
   <g id="patch_4">
    <path d="M 22.640781 174.18439 
L 630.82769 174.18439 
L 630.82769 99.71959 
L 22.640781 99.71959 
z
" clip-path="url(#pd17977c7b7)" style="fill: #d6e8f5; opacity: 0.55"/>
   </g>
   <g id="patch_5">
    <path d="M 22.640781 248.64919 
L 630.82769 248.64919 
L 630.82769 174.18439 
L 22.640781 174.18439 
z
" clip-path="url(#pd17977c7b7)" style="fill: #f5e6d0; opacity: 0.55"/>
   </g>
   <g id="matplotlib.axis_1">
    <g id="text_1">
     <!-- Model generality  (structural constraints → arbitrary neural architectures) -->
     <g transform="translate(143.085798 260.247628) scale(0.1 -0.1)">
      <defs>
       <path id="DejaVuSans-30" d="M 628 4666 
L 1569 4666 
L 2759 1491 
L 3956 4666 
L 4897 4666 
L 4897 0 
L 4281 0 
L 4281 4097 
L 3078 897 
L 2444 897 
L 1241 4097 
L 1241 0 
L 628 0 
L 628 4666 
z
" transform="scale(0.015625)"/>
       <path id="DejaVuSans-52" d="M 1959 3097 
Q 1497 3097 1228 2736 
Q 959 2375 959 1747 
Q 959 1119 1226 758 
Q 1494 397 1959 397 
Q 2419 397 2687 759 
Q 2956 1122 2956 1747 
Q 2956 2369 2687 2733 
Q 2419 3097 1959 3097 
z
M 1959 3584 
Q 2709 3584 3137 3096 
Q 3566 2609 3566 1747 
Q 3566 888 3137 398 
Q 2709 -91 1959 -91 
Q 1206 -91 779 398 
Q 353 888 353 1747 
Q 353 2609 779 3096 
Q 1206 3584 1959 3584 
z
" transform="scale(0.015625)"/>
       <path id="DejaVuSans-47" d="M 2906 2969 
L 2906 4863 
L 3481 4863 
L 3481 0 
L 2906 0 
L 2906 525 
Q 2725 213 2448 61 
Q 2172 -91 1784 -91 
Q 1150 -91 751 415 
Q 353 922 353 1747 
Q 353 2572 751 3078 
Q 1150 3584 1784 3584 
Q 2172 3584 2448 3432 
Q 2725 3281 2906 2969 
z
M 947 1747 
Q 947 1113 1208 752 
Q 1469 391 1925 391 
Q 2381 391 2643 752 
Q 2906 1113 2906 1747 
Q 2906 2381 2643 2742 
Q 2381 3103 1925 3103 
Q 1469 3103 1208 2742 
Q 947 2381 947 1747 
z
" transform="scale(0.015625)"/>
       <path id="DejaVuSans-48" d="M 3597 1894 
L 3597 1613 
L 953 1613 
Q 991 1019 1311 708 
Q 1631 397 2203 397 
Q 2534 397 2845 478 
Q 3156 559 3463 722 
L 3463 178 
Q 3153 47 2828 -22 
Q 2503 -91 2169 -91 
Q 1331 -91 842 396 
Q 353 884 353 1716 
Q 353 2575 817 3079 
Q 1281 3584 2069 3584 
Q 2775 3584 3186 3129 
Q 3597 2675 3597 1894 
z
M 3022 2063 
Q 3016 2534 2758 2815 
Q 2500 3097 2075 3097 
Q 1594 3097 1305 2825 
Q 1016 2553 972 2059 
L 3022 2063 
z
" transform="scale(0.015625)"/>
       <path id="DejaVuSans-4f" d="M 603 4863 
L 1178 4863 
L 1178 0 
L 603 0 
L 603 4863 
z
" transform="scale(0.015625)"/>
       <path id="DejaVuSans-3" transform="scale(0.015625)"/>
       <path id="DejaVuSans-4a" d="M 2906 1791 
Q 2906 2416 2648 2759 
Q 2391 3103 1925 3103 
Q 1463 3103 1205 2759 
Q 947 2416 947 1791 
Q 947 1169 1205 825 
Q 1463 481 1925 481 
Q 2391 481 2648 825 
Q 2906 1169 2906 1791 
z
M 3481 434 
Q 3481 -459 3084 -895 
Q 2688 -1331 1869 -1331 
Q 1566 -1331 1297 -1286 
Q 1028 -1241 775 -1147 
L 775 -588 
Q 1028 -725 1275 -790 
Q 1522 -856 1778 -856 
Q 2344 -856 2625 -561 
Q 2906 -266 2906 331 
L 2906 616 
Q 2728 306 2450 153 
Q 2172 0 1784 0 
Q 1141 0 747 490 
Q 353 981 353 1791 
Q 353 2603 747 3093 
Q 1141 3584 1784 3584 
Q 2172 3584 2450 3431 
Q 2728 3278 2906 2969 
L 2906 3500 
L 3481 3500 
L 3481 434 
z
" transform="scale(0.015625)"/>
       <path id="DejaVuSans-51" d="M 3513 2113 
L 3513 0 
L 2938 0 
L 2938 2094 
Q 2938 2591 2744 2837 
Q 2550 3084 2163 3084 
Q 1697 3084 1428 2787 
Q 1159 2491 1159 1978 
L 1159 0 
L 581 0 
L 581 3500 
L 1159 3500 
L 1159 2956 
Q 1366 3272 1645 3428 
Q 1925 3584 2291 3584 
Q 2894 3584 3203 3211 
Q 3513 2838 3513 2113 
z
" transform="scale(0.015625)"/>
       <path id="DejaVuSans-55" d="M 2631 2963 
Q 2534 3019 2420 3045 
Q 2306 3072 2169 3072 
Q 1681 3072 1420 2755 
Q 1159 2438 1159 1844 
L 1159 0 
L 581 0 
L 581 3500 
L 1159 3500 
L 1159 2956 
Q 1341 3275 1631 3429 
Q 1922 3584 2338 3584 
Q 2397 3584 2469 3576 
Q 2541 3569 2628 3553 
L 2631 2963 
z
" transform="scale(0.015625)"/>
       <path id="DejaVuSans-44" d="M 2194 1759 
Q 1497 1759 1228 1600 
Q 959 1441 959 1056 
Q 959 750 1161 570 
Q 1363 391 1709 391 
Q 2188 391 2477 730 
Q 2766 1069 2766 1631 
L 2766 1759 
L 2194 1759 
z
M 3341 1997 
L 3341 0 
L 2766 0 
L 2766 531 
Q 2569 213 2275 61 
Q 1981 -91 1556 -91 
Q 1019 -91 701 211 
Q 384 513 384 1019 
Q 384 1609 779 1909 
Q 1175 2209 1959 2209 
L 2766 2209 
L 2766 2266 
Q 2766 2663 2505 2880 
Q 2244 3097 1772 3097 
Q 1472 3097 1187 3025 
Q 903 2953 641 2809 
L 641 3341 
Q 956 3463 1253 3523 
Q 1550 3584 1831 3584 
Q 2591 3584 2966 3190 
Q 3341 2797 3341 1997 
z
" transform="scale(0.015625)"/>
       <path id="DejaVuSans-4c" d="M 603 3500 
L 1178 3500 
L 1178 0 
L 603 0 
L 603 3500 
z
M 603 4863 
L 1178 4863 
L 1178 4134 
L 603 4134 
L 603 4863 
z
" transform="scale(0.015625)"/>
       <path id="DejaVuSans-57" d="M 1172 4494 
L 1172 3500 
L 2356 3500 
L 2356 3053 
L 1172 3053 
L 1172 1153 
Q 1172 725 1289 603 
Q 1406 481 1766 481 
L 2356 481 
L 2356 0 
L 1766 0 
Q 1100 0 847 248 
Q 594 497 594 1153 
L 594 3053 
L 172 3053 
L 172 3500 
L 594 3500 
L 594 4494 
L 1172 4494 
z
" transform="scale(0.015625)"/>
       <path id="DejaVuSans-5c" d="M 2059 -325 
Q 1816 -950 1584 -1140 
Q 1353 -1331 966 -1331 
L 506 -1331 
L 506 -850 
L 844 -850 
Q 1081 -850 1212 -737 
Q 1344 -625 1503 -206 
L 1606 56 
L 191 3500 
L 800 3500 
L 1894 763 
L 2988 3500 
L 3597 3500 
L 2059 -325 
z
" transform="scale(0.015625)"/>
       <path id="DejaVuSans-b" d="M 1984 4856 
Q 1566 4138 1362 3434 
Q 1159 2731 1159 2009 
Q 1159 1288 1364 580 
Q 1569 -128 1984 -844 
L 1484 -844 
Q 1016 -109 783 600 
Q 550 1309 550 2009 
Q 550 2706 781 3412 
Q 1013 4119 1484 4856 
L 1984 4856 
z
" transform="scale(0.015625)"/>
       <path id="DejaVuSans-56" d="M 2834 3397 
L 2834 2853 
Q 2591 2978 2328 3040 
Q 2066 3103 1784 3103 
Q 1356 3103 1142 2972 
Q 928 2841 928 2578 
Q 928 2378 1081 2264 
Q 1234 2150 1697 2047 
L 1894 2003 
Q 2506 1872 2764 1633 
Q 3022 1394 3022 966 
Q 3022 478 2636 193 
Q 2250 -91 1575 -91 
Q 1294 -91 989 -36 
Q 684 19 347 128 
L 347 722 
Q 666 556 975 473 
Q 1284 391 1588 391 
Q 1994 391 2212 530 
Q 2431 669 2431 922 
Q 2431 1156 2273 1281 
Q 2116 1406 1581 1522 
L 1381 1569 
Q 847 1681 609 1914 
Q 372 2147 372 2553 
Q 372 3047 722 3315 
Q 1072 3584 1716 3584 
Q 2034 3584 2315 3537 
Q 2597 3491 2834 3397 
z
" transform="scale(0.015625)"/>
       <path id="DejaVuSans-58" d="M 544 1381 
L 544 3500 
L 1119 3500 
L 1119 1403 
Q 1119 906 1312 657 
Q 1506 409 1894 409 
Q 2359 409 2629 706 
Q 2900 1003 2900 1516 
L 2900 3500 
L 3475 3500 
L 3475 0 
L 2900 0 
L 2900 538 
Q 2691 219 2414 64 
Q 2138 -91 1772 -91 
Q 1169 -91 856 284 
Q 544 659 544 1381 
z
M 1991 3584 
L 1991 3584 
z
" transform="scale(0.015625)"/>
       <path id="DejaVuSans-46" d="M 3122 3366 
L 3122 2828 
Q 2878 2963 2633 3030 
Q 2388 3097 2138 3097 
Q 1578 3097 1268 2742 
Q 959 2388 959 1747 
Q 959 1106 1268 751 
Q 1578 397 2138 397 
Q 2388 397 2633 464 
Q 2878 531 3122 666 
L 3122 134 
Q 2881 22 2623 -34 
Q 2366 -91 2075 -91 
Q 1284 -91 818 406 
Q 353 903 353 1747 
Q 353 2603 823 3093 
Q 1294 3584 2113 3584 
Q 2378 3584 2631 3529 
Q 2884 3475 3122 3366 
z
" transform="scale(0.015625)"/>
       <path id="DejaVuSans-c1c" d="M 5050 2147 
L 5050 1866 
L 3822 638 
L 3447 1013 
L 4175 1741 
L 366 1741 
L 366 2272 
L 4175 2272 
L 3447 3000 
L 3822 3375 
L 5050 2147 
z
" transform="scale(0.015625)"/>
       <path id="DejaVuSans-45" d="M 3116 1747 
Q 3116 2381 2855 2742 
Q 2594 3103 2138 3103 
Q 1681 3103 1420 2742 
Q 1159 2381 1159 1747 
Q 1159 1113 1420 752 
Q 1681 391 2138 391 
Q 2594 391 2855 752 
Q 3116 1113 3116 1747 
z
M 1159 2969 
Q 1341 3281 1617 3432 
Q 1894 3584 2278 3584 
Q 2916 3584 3314 3078 
Q 3713 2572 3713 1747 
Q 3713 922 3314 415 
Q 2916 -91 2278 -91 
Q 1894 -91 1617 61 
Q 1341 213 1159 525 
L 1159 0 
L 581 0 
L 581 4863 
L 1159 4863 
L 1159 2969 
z
" transform="scale(0.015625)"/>
       <path id="DejaVuSans-4b" d="M 3513 2113 
L 3513 0 
L 2938 0 
L 2938 2094 
Q 2938 2591 2744 2837 
Q 2550 3084 2163 3084 
Q 1697 3084 1428 2787 
Q 1159 2491 1159 1978 
L 1159 0 
L 581 0 
L 581 4863 
L 1159 4863 
L 1159 2956 
Q 1366 3272 1645 3428 
Q 1925 3584 2291 3584 
Q 2894 3584 3203 3211 
Q 3513 2838 3513 2113 
z
" transform="scale(0.015625)"/>
       <path id="DejaVuSans-c" d="M 513 4856 
L 1013 4856 
Q 1481 4119 1714 3412 
Q 1947 2706 1947 2009 
Q 1947 1309 1714 600 
Q 1481 -109 1013 -844 
L 513 -844 
Q 928 -128 1133 580 
Q 1338 1288 1338 2009 
Q 1338 2731 1133 3434 
Q 928 4138 513 4856 
z
" transform="scale(0.015625)"/>
      </defs>
      <use xlink:href="#DejaVuSans-30"/>
      <use xlink:href="#DejaVuSans-52" transform="translate(86.28125 0)"/>
      <use xlink:href="#DejaVuSans-47" transform="translate(147.46875 0)"/>
      <use xlink:href="#DejaVuSans-48" transform="translate(210.953125 0)"/>
      <use xlink:href="#DejaVuSans-4f" transform="translate(272.484375 0)"/>
      <use xlink:href="#DejaVuSans-3" transform="translate(300.265625 0)"/>
      <use xlink:href="#DejaVuSans-4a" transform="translate(332.046875 0)"/>
      <use xlink:href="#DejaVuSans-48" transform="translate(395.53125 0)"/>
      <use xlink:href="#DejaVuSans-51" transform="translate(457.0625 0)"/>
      <use xlink:href="#DejaVuSans-48" transform="translate(520.4375 0)"/>
      <use xlink:href="#DejaVuSans-55" transform="translate(581.96875 0)"/>
      <use xlink:href="#DejaVuSans-44" transform="translate(623.078125 0)"/>
      <use xlink:href="#DejaVuSans-4f" transform="translate(684.359375 0)"/>
      <use xlink:href="#DejaVuSans-4c" transform="translate(712.140625 0)"/>
      <use xlink:href="#DejaVuSans-57" transform="translate(739.921875 0)"/>
      <use xlink:href="#DejaVuSans-5c" transform="translate(779.125 0)"/>
      <use xlink:href="#DejaVuSans-3" transform="translate(838.3125 0)"/>
      <use xlink:href="#DejaVuSans-3" transform="translate(870.09375 0)"/>
      <use xlink:href="#DejaVuSans-b" transform="translate(901.875 0)"/>
      <use xlink:href="#DejaVuSans-56" transform="translate(940.890625 0)"/>
      <use xlink:href="#DejaVuSans-57" transform="translate(992.984375 0)"/>
      <use xlink:href="#DejaVuSans-55" transform="translate(1032.1875 0)"/>
      <use xlink:href="#DejaVuSans-58" transform="translate(1073.296875 0)"/>
      <use xlink:href="#DejaVuSans-46" transform="translate(1136.671875 0)"/>
      <use xlink:href="#DejaVuSans-57" transform="translate(1191.65625 0)"/>
      <use xlink:href="#DejaVuSans-58" transform="translate(1230.859375 0)"/>
      <use xlink:href="#DejaVuSans-55" transform="translate(1294.234375 0)"/>
      <use xlink:href="#DejaVuSans-44" transform="translate(1335.34375 0)"/>
      <use xlink:href="#DejaVuSans-4f" transform="translate(1396.625 0)"/>
      <use xlink:href="#DejaVuSans-3" transform="translate(1424.40625 0)"/>
      <use xlink:href="#DejaVuSans-46" transform="translate(1456.1875 0)"/>
      <use xlink:href="#DejaVuSans-52" transform="translate(1511.171875 0)"/>
      <use xlink:href="#DejaVuSans-51" transform="translate(1572.359375 0)"/>
      <use xlink:href="#DejaVuSans-56" transform="translate(1635.734375 0)"/>
      <use xlink:href="#DejaVuSans-57" transform="translate(1687.828125 0)"/>
      <use xlink:href="#DejaVuSans-55" transform="translate(1727.03125 0)"/>
      <use xlink:href="#DejaVuSans-44" transform="translate(1768.140625 0)"/>
      <use xlink:href="#DejaVuSans-4c" transform="translate(1829.421875 0)"/>
      <use xlink:href="#DejaVuSans-51" transform="translate(1857.203125 0)"/>
      <use xlink:href="#DejaVuSans-57" transform="translate(1920.578125 0)"/>
      <use xlink:href="#DejaVuSans-56" transform="translate(1959.78125 0)"/>
      <use xlink:href="#DejaVuSans-3" transform="translate(2011.875 0)"/>
      <use xlink:href="#DejaVuSans-c1c" transform="translate(2043.65625 0)"/>
      <use xlink:href="#DejaVuSans-3" transform="translate(2127.453125 0)"/>
      <use xlink:href="#DejaVuSans-44" transform="translate(2159.234375 0)"/>
      <use xlink:href="#DejaVuSans-55" transform="translate(2220.515625 0)"/>
      <use xlink:href="#DejaVuSans-45" transform="translate(2261.625 0)"/>
      <use xlink:href="#DejaVuSans-4c" transform="translate(2325.109375 0)"/>
      <use xlink:href="#DejaVuSans-57" transform="translate(2352.890625 0)"/>
      <use xlink:href="#DejaVuSans-55" transform="translate(2392.09375 0)"/>
      <use xlink:href="#DejaVuSans-44" transform="translate(2433.203125 0)"/>
      <use xlink:href="#DejaVuSans-55" transform="translate(2494.484375 0)"/>
      <use xlink:href="#DejaVuSans-5c" transform="translate(2535.59375 0)"/>
      <use xlink:href="#DejaVuSans-3" transform="translate(2594.78125 0)"/>
      <use xlink:href="#DejaVuSans-51" transform="translate(2626.5625 0)"/>
      <use xlink:href="#DejaVuSans-48" transform="translate(2689.9375 0)"/>
      <use xlink:href="#DejaVuSans-58" transform="translate(2751.46875 0)"/>
      <use xlink:href="#DejaVuSans-55" transform="translate(2814.84375 0)"/>
      <use xlink:href="#DejaVuSans-44" transform="translate(2855.953125 0)"/>
      <use xlink:href="#DejaVuSans-4f" transform="translate(2917.234375 0)"/>
      <use xlink:href="#DejaVuSans-3" transform="translate(2945.015625 0)"/>
      <use xlink:href="#DejaVuSans-44" transform="translate(2976.796875 0)"/>
      <use xlink:href="#DejaVuSans-55" transform="translate(3038.078125 0)"/>
      <use xlink:href="#DejaVuSans-46" transform="translate(3076.984375 0)"/>
      <use xlink:href="#DejaVuSans-4b" transform="translate(3131.96875 0)"/>
      <use xlink:href="#DejaVuSans-4c" transform="translate(3195.34375 0)"/>
      <use xlink:href="#DejaVuSans-57" transform="translate(3223.125 0)"/>
      <use xlink:href="#DejaVuSans-48" transform="translate(3262.328125 0)"/>
      <use xlink:href="#DejaVuSans-46" transform="translate(3323.859375 0)"/>
      <use xlink:href="#DejaVuSans-57" transform="translate(3378.84375 0)"/>
      <use xlink:href="#DejaVuSans-58" transform="translate(3418.046875 0)"/>
      <use xlink:href="#DejaVuSans-55" transform="translate(3481.421875 0)"/>
      <use xlink:href="#DejaVuSans-48" transform="translate(3520.328125 0)"/>
      <use xlink:href="#DejaVuSans-56" transform="translate(3581.859375 0)"/>
      <use xlink:href="#DejaVuSans-c" transform="translate(3633.953125 0)"/>
     </g>
    </g>
   </g>
   <g id="matplotlib.axis_2">
    <g id="text_2">
     <!-- Inference tractability (exact → approximate → implicit) -->
     <g transform="translate(16.238438 271.865142) rotate(-90) scale(0.1 -0.1)">
      <defs>
       <path id="DejaVuSans-2c" d="M 628 4666 
L 1259 4666 
L 1259 0 
L 628 0 
L 628 4666 
z
" transform="scale(0.015625)"/>
       <path id="DejaVuSans-49" d="M 2375 4863 
L 2375 4384 
L 1825 4384 
Q 1516 4384 1395 4259 
Q 1275 4134 1275 3809 
L 1275 3500 
L 2222 3500 
L 2222 3053 
L 1275 3053 
L 1275 0 
L 697 0 
L 697 3053 
L 147 3053 
L 147 3500 
L 697 3500 
L 697 3744 
Q 697 4328 969 4595 
Q 1241 4863 1831 4863 
L 2375 4863 
z
" transform="scale(0.015625)"/>
       <path id="DejaVuSans-5b" d="M 3513 3500 
L 2247 1797 
L 3578 0 
L 2900 0 
L 1881 1375 
L 863 0 
L 184 0 
L 1544 1831 
L 300 3500 
L 978 3500 
L 1906 2253 
L 2834 3500 
L 3513 3500 
z
" transform="scale(0.015625)"/>
       <path id="DejaVuSans-53" d="M 1159 525 
L 1159 -1331 
L 581 -1331 
L 581 3500 
L 1159 3500 
L 1159 2969 
Q 1341 3281 1617 3432 
Q 1894 3584 2278 3584 
Q 2916 3584 3314 3078 
Q 3713 2572 3713 1747 
Q 3713 922 3314 415 
Q 2916 -91 2278 -91 
Q 1894 -91 1617 61 
Q 1341 213 1159 525 
z
M 3116 1747 
Q 3116 2381 2855 2742 
Q 2594 3103 2138 3103 
Q 1681 3103 1420 2742 
Q 1159 2381 1159 1747 
Q 1159 1113 1420 752 
Q 1681 391 2138 391 
Q 2594 391 2855 752 
Q 3116 1113 3116 1747 
z
" transform="scale(0.015625)"/>
       <path id="DejaVuSans-50" d="M 3328 2828 
Q 3544 3216 3844 3400 
Q 4144 3584 4550 3584 
Q 5097 3584 5394 3201 
Q 5691 2819 5691 2113 
L 5691 0 
L 5113 0 
L 5113 2094 
Q 5113 2597 4934 2840 
Q 4756 3084 4391 3084 
Q 3944 3084 3684 2787 
Q 3425 2491 3425 1978 
L 3425 0 
L 2847 0 
L 2847 2094 
Q 2847 2600 2669 2842 
Q 2491 3084 2119 3084 
Q 1678 3084 1418 2786 
Q 1159 2488 1159 1978 
L 1159 0 
L 581 0 
L 581 3500 
L 1159 3500 
L 1159 2956 
Q 1356 3278 1631 3431 
Q 1906 3584 2284 3584 
Q 2666 3584 2933 3390 
Q 3200 3197 3328 2828 
z
" transform="scale(0.015625)"/>
      </defs>
      <use xlink:href="#DejaVuSans-2c"/>
      <use xlink:href="#DejaVuSans-51" transform="translate(29.5 0)"/>
      <use xlink:href="#DejaVuSans-49" transform="translate(92.875 0)"/>
      <use xlink:href="#DejaVuSans-48" transform="translate(128.078125 0)"/>
      <use xlink:href="#DejaVuSans-55" transform="translate(189.609375 0)"/>
      <use xlink:href="#DejaVuSans-48" transform="translate(228.515625 0)"/>
      <use xlink:href="#DejaVuSans-51" transform="translate(290.046875 0)"/>
      <use xlink:href="#DejaVuSans-46" transform="translate(353.421875 0)"/>
      <use xlink:href="#DejaVuSans-48" transform="translate(408.40625 0)"/>
      <use xlink:href="#DejaVuSans-3" transform="translate(469.9375 0)"/>
      <use xlink:href="#DejaVuSans-57" transform="translate(501.71875 0)"/>
      <use xlink:href="#DejaVuSans-55" transform="translate(540.921875 0)"/>
      <use xlink:href="#DejaVuSans-44" transform="translate(582.03125 0)"/>
      <use xlink:href="#DejaVuSans-46" transform="translate(643.3125 0)"/>
      <use xlink:href="#DejaVuSans-57" transform="translate(698.296875 0)"/>
      <use xlink:href="#DejaVuSans-44" transform="translate(737.5 0)"/>
      <use xlink:href="#DejaVuSans-45" transform="translate(798.78125 0)"/>
      <use xlink:href="#DejaVuSans-4c" transform="translate(862.265625 0)"/>
      <use xlink:href="#DejaVuSans-4f" transform="translate(890.046875 0)"/>
      <use xlink:href="#DejaVuSans-4c" transform="translate(917.828125 0)"/>
      <use xlink:href="#DejaVuSans-57" transform="translate(945.609375 0)"/>
      <use xlink:href="#DejaVuSans-5c" transform="translate(984.8125 0)"/>
      <use xlink:href="#DejaVuSans-3" transform="translate(1044 0)"/>
      <use xlink:href="#DejaVuSans-b" transform="translate(1075.78125 0)"/>
      <use xlink:href="#DejaVuSans-48" transform="translate(1114.796875 0)"/>
      <use xlink:href="#DejaVuSans-5b" transform="translate(1174.578125 0)"/>
      <use xlink:href="#DejaVuSans-44" transform="translate(1233.765625 0)"/>
      <use xlink:href="#DejaVuSans-46" transform="translate(1295.046875 0)"/>
      <use xlink:href="#DejaVuSans-57" transform="translate(1350.03125 0)"/>
      <use xlink:href="#DejaVuSans-3" transform="translate(1389.234375 0)"/>
      <use xlink:href="#DejaVuSans-c1c" transform="translate(1421.015625 0)"/>
      <use xlink:href="#DejaVuSans-3" transform="translate(1504.8125 0)"/>
      <use xlink:href="#DejaVuSans-44" transform="translate(1536.59375 0)"/>
      <use xlink:href="#DejaVuSans-53" transform="translate(1597.875 0)"/>
      <use xlink:href="#DejaVuSans-53" transform="translate(1661.359375 0)"/>
      <use xlink:href="#DejaVuSans-55" transform="translate(1724.84375 0)"/>
      <use xlink:href="#DejaVuSans-52" transform="translate(1763.75 0)"/>
      <use xlink:href="#DejaVuSans-5b" transform="translate(1821.859375 0)"/>
      <use xlink:href="#DejaVuSans-4c" transform="translate(1881.046875 0)"/>
      <use xlink:href="#DejaVuSans-50" transform="translate(1908.828125 0)"/>
      <use xlink:href="#DejaVuSans-44" transform="translate(2006.234375 0)"/>
      <use xlink:href="#DejaVuSans-57" transform="translate(2067.515625 0)"/>
      <use xlink:href="#DejaVuSans-48" transform="translate(2106.71875 0)"/>
      <use xlink:href="#DejaVuSans-3" transform="translate(2168.25 0)"/>
      <use xlink:href="#DejaVuSans-c1c" transform="translate(2200.03125 0)"/>
      <use xlink:href="#DejaVuSans-3" transform="translate(2283.828125 0)"/>
      <use xlink:href="#DejaVuSans-4c" transform="translate(2315.609375 0)"/>
      <use xlink:href="#DejaVuSans-50" transform="translate(2343.390625 0)"/>
      <use xlink:href="#DejaVuSans-53" transform="translate(2440.796875 0)"/>
      <use xlink:href="#DejaVuSans-4f" transform="translate(2504.28125 0)"/>
      <use xlink:href="#DejaVuSans-4c" transform="translate(2532.0625 0)"/>
      <use xlink:href="#DejaVuSans-46" transform="translate(2559.84375 0)"/>
      <use xlink:href="#DejaVuSans-4c" transform="translate(2614.828125 0)"/>
      <use xlink:href="#DejaVuSans-57" transform="translate(2642.609375 0)"/>
      <use xlink:href="#DejaVuSans-c" transform="translate(2681.8125 0)"/>
     </g>
    </g>
   </g>
   <g id="patch_6">
    <path d="M 22.640781 248.64919 
L 22.640781 22.998281 
" style="fill: none; stroke: #000000; stroke-width: 0.8; stroke-linejoin: miter; stroke-linecap: square"/>
   </g>
   <g id="patch_7">
    <path d="M 22.640781 248.64919 
L 630.82769 248.64919 
" style="fill: none; stroke: #000000; stroke-width: 0.8; stroke-linejoin: miter; stroke-linecap: square"/>
   </g>
   <g id="text_3">
    <!-- Exact posterior -->
    <g style="fill: #555555" transform="translate(29.939024 36.22648) scale(0.085 -0.085)">
     <defs>
      <path id="DejaVuSans-Oblique-28" d="M 1081 4666 
L 4031 4666 
L 3928 4134 
L 1606 4134 
L 1338 2753 
L 3566 2753 
L 3463 2222 
L 1234 2222 
L 909 531 
L 3284 531 
L 3181 0 
L 172 0 
L 1081 4666 
z
" transform="scale(0.015625)"/>
      <path id="DejaVuSans-Oblique-5b" d="M 3841 3500 
L 2234 1784 
L 3219 0 
L 2559 0 
L 1819 1388 
L 531 0 
L -166 0 
L 1556 1844 
L 641 3500 
L 1300 3500 
L 1972 2234 
L 3144 3500 
L 3841 3500 
z
" transform="scale(0.015625)"/>
      <path id="DejaVuSans-Oblique-44" d="M 3438 1997 
L 3047 0 
L 2472 0 
L 2578 531 
Q 2325 219 2001 64 
Q 1678 -91 1281 -91 
Q 834 -91 548 182 
Q 263 456 263 884 
Q 263 1497 752 1853 
Q 1241 2209 2100 2209 
L 2900 2209 
L 2931 2363 
Q 2938 2388 2941 2417 
Q 2944 2447 2944 2509 
Q 2944 2788 2717 2942 
Q 2491 3097 2081 3097 
Q 1800 3097 1504 3025 
Q 1209 2953 897 2809 
L 997 3341 
Q 1322 3463 1633 3523 
Q 1944 3584 2234 3584 
Q 2853 3584 3176 3315 
Q 3500 3047 3500 2534 
Q 3500 2431 3484 2292 
Q 3469 2153 3438 1997 
z
M 2816 1759 
L 2241 1759 
Q 1534 1759 1195 1570 
Q 856 1381 856 984 
Q 856 709 1029 553 
Q 1203 397 1509 397 
Q 1978 397 2328 733 
Q 2678 1069 2791 1631 
L 2816 1759 
z
" transform="scale(0.015625)"/>
      <path id="DejaVuSans-Oblique-46" d="M 3431 3366 
L 3316 2797 
Q 3109 2947 2876 3022 
Q 2644 3097 2394 3097 
Q 2119 3097 1870 3000 
Q 1622 2903 1453 2725 
Q 1184 2453 1037 2087 
Q 891 1722 891 1331 
Q 891 859 1127 628 
Q 1363 397 1844 397 
Q 2081 397 2348 469 
Q 2616 541 2906 684 
L 2797 116 
Q 2547 13 2283 -39 
Q 2019 -91 1741 -91 
Q 1044 -91 669 257 
Q 294 606 294 1253 
Q 294 1797 489 2255 
Q 684 2713 1069 3078 
Q 1331 3328 1684 3456 
Q 2038 3584 2456 3584 
Q 2700 3584 2940 3529 
Q 3181 3475 3431 3366 
z
" transform="scale(0.015625)"/>
      <path id="DejaVuSans-Oblique-57" d="M 2706 3500 
L 2619 3053 
L 1472 3053 
L 1100 1153 
Q 1081 1047 1072 975 
Q 1063 903 1063 863 
Q 1063 663 1183 572 
Q 1303 481 1569 481 
L 2150 481 
L 2053 0 
L 1503 0 
Q 991 0 739 200 
Q 488 400 488 806 
Q 488 878 497 964 
Q 506 1050 525 1153 
L 897 3053 
L 409 3053 
L 500 3500 
L 978 3500 
L 1172 4494 
L 1747 4494 
L 1556 3500 
L 2706 3500 
z
" transform="scale(0.015625)"/>
      <path id="DejaVuSans-Oblique-3" transform="scale(0.015625)"/>
      <path id="DejaVuSans-Oblique-53" d="M 3175 2156 
Q 3175 2616 2975 2859 
Q 2775 3103 2400 3103 
Q 2144 3103 1911 2972 
Q 1678 2841 1497 2591 
Q 1319 2344 1212 1994 
Q 1106 1644 1106 1300 
Q 1106 863 1306 627 
Q 1506 391 1875 391 
Q 2147 391 2380 519 
Q 2613 647 2778 891 
Q 2956 1147 3065 1494 
Q 3175 1841 3175 2156 
z
M 1394 2969 
Q 1625 3272 1939 3428 
Q 2253 3584 2638 3584 
Q 3175 3584 3472 3232 
Q 3769 2881 3769 2247 
Q 3769 1728 3584 1258 
Q 3400 788 3053 416 
Q 2822 169 2531 39 
Q 2241 -91 1919 -91 
Q 1547 -91 1294 64 
Q 1041 219 916 525 
L 556 -1331 
L -19 -1331 
L 922 3500 
L 1497 3500 
L 1394 2969 
z
" transform="scale(0.015625)"/>
      <path id="DejaVuSans-Oblique-52" d="M 1625 -91 
Q 1009 -91 651 289 
Q 294 669 294 1325 
Q 294 1706 417 2101 
Q 541 2497 738 2766 
Q 1047 3184 1428 3384 
Q 1809 3584 2291 3584 
Q 2888 3584 3255 3212 
Q 3622 2841 3622 2241 
Q 3622 1825 3500 1412 
Q 3378 1000 3181 728 
Q 2875 309 2494 109 
Q 2113 -91 1625 -91 
z
M 891 1344 
Q 891 869 1089 633 
Q 1288 397 1691 397 
Q 2269 397 2648 901 
Q 3028 1406 3028 2181 
Q 3028 2634 2825 2865 
Q 2622 3097 2228 3097 
Q 1903 3097 1650 2945 
Q 1397 2794 1197 2484 
Q 1050 2253 970 1956 
Q 891 1659 891 1344 
z
" transform="scale(0.015625)"/>
      <path id="DejaVuSans-Oblique-56" d="M 3200 3397 
L 3091 2853 
Q 2863 2978 2609 3040 
Q 2356 3103 2088 3103 
Q 1634 3103 1373 2948 
Q 1113 2794 1113 2528 
Q 1113 2219 1719 2053 
Q 1766 2041 1788 2034 
L 1972 1978 
Q 2547 1819 2739 1644 
Q 2931 1469 2931 1166 
Q 2931 609 2489 259 
Q 2047 -91 1331 -91 
Q 1053 -91 747 -37 
Q 441 16 72 128 
L 184 722 
Q 500 559 806 475 
Q 1113 391 1394 391 
Q 1816 391 2080 572 
Q 2344 753 2344 1031 
Q 2344 1331 1650 1516 
L 1591 1531 
L 1394 1581 
Q 956 1697 753 1886 
Q 550 2075 550 2369 
Q 550 2928 970 3256 
Q 1391 3584 2113 3584 
Q 2397 3584 2667 3537 
Q 2938 3491 3200 3397 
z
" transform="scale(0.015625)"/>
      <path id="DejaVuSans-Oblique-48" d="M 3078 2063 
Q 3088 2113 3092 2166 
Q 3097 2219 3097 2272 
Q 3097 2653 2873 2875 
Q 2650 3097 2266 3097 
Q 1838 3097 1509 2826 
Q 1181 2556 1013 2059 
L 3078 2063 
z
M 3578 1613 
L 903 1613 
Q 884 1494 878 1425 
Q 872 1356 872 1306 
Q 872 872 1139 634 
Q 1406 397 1894 397 
Q 2269 397 2603 481 
Q 2938 566 3225 728 
L 3116 159 
Q 2806 34 2476 -28 
Q 2147 -91 1806 -91 
Q 1078 -91 686 257 
Q 294 606 294 1247 
Q 294 1794 489 2264 
Q 684 2734 1063 3103 
Q 1306 3334 1642 3459 
Q 1978 3584 2356 3584 
Q 2950 3584 3301 3228 
Q 3653 2872 3653 2272 
Q 3653 2128 3634 1964 
Q 3616 1800 3578 1613 
z
" transform="scale(0.015625)"/>
      <path id="DejaVuSans-Oblique-55" d="M 2853 2969 
Q 2766 3016 2653 3041 
Q 2541 3066 2413 3066 
Q 1953 3066 1609 2717 
Q 1266 2369 1153 1784 
L 800 0 
L 225 0 
L 909 3500 
L 1484 3500 
L 1375 2956 
Q 1603 3259 1920 3421 
Q 2238 3584 2597 3584 
Q 2691 3584 2781 3573 
Q 2872 3563 2963 3538 
L 2853 2969 
z
" transform="scale(0.015625)"/>
      <path id="DejaVuSans-Oblique-4c" d="M 1172 4863 
L 1747 4863 
L 1606 4134 
L 1031 4134 
L 1172 4863 
z
M 909 3500 
L 1484 3500 
L 800 0 
L 225 0 
L 909 3500 
z
" transform="scale(0.015625)"/>
     </defs>
     <use xlink:href="#DejaVuSans-Oblique-28"/>
     <use xlink:href="#DejaVuSans-Oblique-5b" transform="translate(63.1875 0)"/>
     <use xlink:href="#DejaVuSans-Oblique-44" transform="translate(122.375 0)"/>
     <use xlink:href="#DejaVuSans-Oblique-46" transform="translate(183.65625 0)"/>
     <use xlink:href="#DejaVuSans-Oblique-57" transform="translate(238.640625 0)"/>
     <use xlink:href="#DejaVuSans-Oblique-3" transform="translate(277.84375 0)"/>
     <use xlink:href="#DejaVuSans-Oblique-53" transform="translate(309.625 0)"/>
     <use xlink:href="#DejaVuSans-Oblique-52" transform="translate(373.109375 0)"/>
     <use xlink:href="#DejaVuSans-Oblique-56" transform="translate(434.296875 0)"/>
     <use xlink:href="#DejaVuSans-Oblique-57" transform="translate(486.390625 0)"/>
     <use xlink:href="#DejaVuSans-Oblique-48" transform="translate(525.59375 0)"/>
     <use xlink:href="#DejaVuSans-Oblique-55" transform="translate(587.125 0)"/>
     <use xlink:href="#DejaVuSans-Oblique-4c" transform="translate(628.234375 0)"/>
     <use xlink:href="#DejaVuSans-Oblique-52" transform="translate(656.015625 0)"/>
     <use xlink:href="#DejaVuSans-Oblique-55" transform="translate(717.203125 0)"/>
    </g>
   </g>
   <g id="text_4">
    <!-- Deterministic approximate -->
    <g style="fill: #555555" transform="translate(29.939024 112.947789) scale(0.085 -0.085)">
     <defs>
      <path id="DejaVuSans-Oblique-27" d="M 1081 4666 
L 2438 4666 
Q 3519 4666 4070 4208 
Q 4622 3750 4622 2847 
Q 4622 2250 4412 1698 
Q 4203 1147 3834 769 
Q 3463 381 2891 190 
Q 2319 0 1538 0 
L 172 0 
L 1081 4666 
z
M 1613 4147 
L 909 519 
L 1734 519 
Q 2794 519 3375 1128 
Q 3956 1738 3956 2847 
Q 3956 3519 3581 3833 
Q 3206 4147 2406 4147 
L 1613 4147 
z
" transform="scale(0.015625)"/>
      <path id="DejaVuSans-Oblique-50" d="M 5747 2113 
L 5338 0 
L 4763 0 
L 5166 2094 
Q 5191 2228 5203 2325 
Q 5216 2422 5216 2491 
Q 5216 2772 5059 2928 
Q 4903 3084 4622 3084 
Q 4203 3084 3875 2770 
Q 3547 2456 3450 1953 
L 3066 0 
L 2491 0 
L 2900 2094 
Q 2925 2209 2937 2307 
Q 2950 2406 2950 2484 
Q 2950 2769 2794 2926 
Q 2638 3084 2363 3084 
Q 1938 3084 1609 2770 
Q 1281 2456 1184 1953 
L 800 0 
L 225 0 
L 909 3500 
L 1484 3500 
L 1375 2956 
Q 1609 3263 1923 3423 
Q 2238 3584 2597 3584 
Q 2978 3584 3223 3384 
Q 3469 3184 3519 2828 
Q 3781 3197 4126 3390 
Q 4472 3584 4856 3584 
Q 5306 3584 5551 3325 
Q 5797 3066 5797 2591 
Q 5797 2488 5784 2364 
Q 5772 2241 5747 2113 
z
" transform="scale(0.015625)"/>
      <path id="DejaVuSans-Oblique-51" d="M 3566 2113 
L 3156 0 
L 2578 0 
L 2988 2091 
Q 3016 2238 3031 2350 
Q 3047 2463 3047 2528 
Q 3047 2791 2881 2937 
Q 2716 3084 2419 3084 
Q 1956 3084 1622 2776 
Q 1288 2469 1184 1941 
L 800 0 
L 225 0 
L 903 3500 
L 1478 3500 
L 1363 2950 
Q 1603 3253 1940 3418 
Q 2278 3584 2650 3584 
Q 3113 3584 3367 3334 
Q 3622 3084 3622 2631 
Q 3622 2519 3608 2391 
Q 3594 2263 3566 2113 
z
" transform="scale(0.015625)"/>
     </defs>
     <use xlink:href="#DejaVuSans-Oblique-27"/>
     <use xlink:href="#DejaVuSans-Oblique-48" transform="translate(77 0)"/>
     <use xlink:href="#DejaVuSans-Oblique-57" transform="translate(138.53125 0)"/>
     <use xlink:href="#DejaVuSans-Oblique-48" transform="translate(177.734375 0)"/>
     <use xlink:href="#DejaVuSans-Oblique-55" transform="translate(239.265625 0)"/>
     <use xlink:href="#DejaVuSans-Oblique-50" transform="translate(280.375 0)"/>
     <use xlink:href="#DejaVuSans-Oblique-4c" transform="translate(377.78125 0)"/>
     <use xlink:href="#DejaVuSans-Oblique-51" transform="translate(405.5625 0)"/>
     <use xlink:href="#DejaVuSans-Oblique-4c" transform="translate(468.9375 0)"/>
     <use xlink:href="#DejaVuSans-Oblique-56" transform="translate(496.71875 0)"/>
     <use xlink:href="#DejaVuSans-Oblique-57" transform="translate(548.8125 0)"/>
     <use xlink:href="#DejaVuSans-Oblique-4c" transform="translate(588.015625 0)"/>
     <use xlink:href="#DejaVuSans-Oblique-46" transform="translate(615.796875 0)"/>
     <use xlink:href="#DejaVuSans-Oblique-3" transform="translate(670.78125 0)"/>
     <use xlink:href="#DejaVuSans-Oblique-44" transform="translate(702.5625 0)"/>
     <use xlink:href="#DejaVuSans-Oblique-53" transform="translate(763.84375 0)"/>
     <use xlink:href="#DejaVuSans-Oblique-53" transform="translate(827.328125 0)"/>
     <use xlink:href="#DejaVuSans-Oblique-55" transform="translate(890.8125 0)"/>
     <use xlink:href="#DejaVuSans-Oblique-52" transform="translate(931.921875 0)"/>
     <use xlink:href="#DejaVuSans-Oblique-5b" transform="translate(993.109375 0)"/>
     <use xlink:href="#DejaVuSans-Oblique-4c" transform="translate(1052.296875 0)"/>
     <use xlink:href="#DejaVuSans-Oblique-50" transform="translate(1080.078125 0)"/>
     <use xlink:href="#DejaVuSans-Oblique-44" transform="translate(1177.484375 0)"/>
     <use xlink:href="#DejaVuSans-Oblique-57" transform="translate(1238.765625 0)"/>
     <use xlink:href="#DejaVuSans-Oblique-48" transform="translate(1277.96875 0)"/>
    </g>
   </g>
   <g id="text_5">
    <!-- Stochastic / implicit -->
    <g style="fill: #555555" transform="translate(29.939024 187.412589) scale(0.085 -0.085)">
     <defs>
      <path id="DejaVuSans-Oblique-36" d="M 3859 4513 
L 3738 3897 
Q 3422 4066 3111 4152 
Q 2800 4238 2509 4238 
Q 1944 4238 1609 3991 
Q 1275 3744 1275 3334 
Q 1275 3109 1398 2989 
Q 1522 2869 2034 2731 
L 2413 2638 
Q 3053 2472 3303 2217 
Q 3553 1963 3553 1503 
Q 3553 797 2998 353 
Q 2444 -91 1538 -91 
Q 1166 -91 791 -17 
Q 416 56 38 206 
L 166 856 
Q 513 641 861 531 
Q 1209 422 1556 422 
Q 2147 422 2503 684 
Q 2859 947 2859 1369 
Q 2859 1650 2717 1795 
Q 2575 1941 2106 2059 
L 1728 2156 
Q 1081 2325 845 2545 
Q 609 2766 609 3163 
Q 609 3859 1145 4304 
Q 1681 4750 2541 4750 
Q 2875 4750 3203 4690 
Q 3531 4631 3859 4513 
z
" transform="scale(0.015625)"/>
      <path id="DejaVuSans-Oblique-4b" d="M 3566 2113 
L 3156 0 
L 2578 0 
L 2988 2091 
Q 3016 2238 3031 2350 
Q 3047 2463 3047 2528 
Q 3047 2791 2881 2937 
Q 2716 3084 2419 3084 
Q 1956 3084 1617 2771 
Q 1278 2459 1178 1941 
L 800 0 
L 225 0 
L 1172 4863 
L 1747 4863 
L 1375 2950 
Q 1594 3244 1934 3414 
Q 2275 3584 2650 3584 
Q 3113 3584 3367 3334 
Q 3622 3084 3622 2631 
Q 3622 2519 3608 2391 
Q 3594 2263 3566 2113 
z
" transform="scale(0.015625)"/>
      <path id="DejaVuSans-Oblique-12" d="M 2175 4666 
L 2731 4666 
L 84 -594 
L -469 -594 
L 2175 4666 
z
" transform="scale(0.015625)"/>
      <path id="DejaVuSans-Oblique-4f" d="M 1172 4863 
L 1747 4863 
L 800 0 
L 225 0 
L 1172 4863 
z
" transform="scale(0.015625)"/>
     </defs>
     <use xlink:href="#DejaVuSans-Oblique-36"/>
     <use xlink:href="#DejaVuSans-Oblique-57" transform="translate(63.484375 0)"/>
     <use xlink:href="#DejaVuSans-Oblique-52" transform="translate(102.6875 0)"/>
     <use xlink:href="#DejaVuSans-Oblique-46" transform="translate(163.875 0)"/>
     <use xlink:href="#DejaVuSans-Oblique-4b" transform="translate(218.859375 0)"/>
     <use xlink:href="#DejaVuSans-Oblique-44" transform="translate(282.234375 0)"/>
     <use xlink:href="#DejaVuSans-Oblique-56" transform="translate(343.515625 0)"/>
     <use xlink:href="#DejaVuSans-Oblique-57" transform="translate(395.609375 0)"/>
     <use xlink:href="#DejaVuSans-Oblique-4c" transform="translate(434.8125 0)"/>
     <use xlink:href="#DejaVuSans-Oblique-46" transform="translate(462.59375 0)"/>
     <use xlink:href="#DejaVuSans-Oblique-3" transform="translate(517.578125 0)"/>
     <use xlink:href="#DejaVuSans-Oblique-12" transform="translate(549.359375 0)"/>
     <use xlink:href="#DejaVuSans-Oblique-3" transform="translate(583.046875 0)"/>
     <use xlink:href="#DejaVuSans-Oblique-4c" transform="translate(614.828125 0)"/>
     <use xlink:href="#DejaVuSans-Oblique-50" transform="translate(642.609375 0)"/>
     <use xlink:href="#DejaVuSans-Oblique-53" transform="translate(740.015625 0)"/>
     <use xlink:href="#DejaVuSans-Oblique-4f" transform="translate(803.5 0)"/>
     <use xlink:href="#DejaVuSans-Oblique-4c" transform="translate(831.28125 0)"/>
     <use xlink:href="#DejaVuSans-Oblique-46" transform="translate(859.0625 0)"/>
     <use xlink:href="#DejaVuSans-Oblique-4c" transform="translate(914.046875 0)"/>
     <use xlink:href="#DejaVuSans-Oblique-57" transform="translate(941.828125 0)"/>
    </g>
   </g>
   <g id="PathCollection_1">
    <defs>
     <path id="m84b6bf22fc" d="M 0 3.24037 
C 0.859356 3.24037 1.683631 2.898944 2.291288 2.291288 
C 2.898944 1.683631 3.24037 0.859356 3.24037 0 
C 3.24037 -0.859356 2.898944 -1.683631 2.291288 -2.291288 
C 1.683631 -2.898944 0.859356 -3.24037 0 -3.24037 
C -0.859356 -3.24037 -1.683631 -2.898944 -2.291288 -2.291288 
C -2.898944 -1.683631 -3.24037 -0.859356 -3.24037 0 
C -3.24037 0.859356 -2.898944 1.683631 -2.291288 2.291288 
C -1.683631 2.898944 -0.859356 3.24037 0 3.24037 
z
" style="stroke: #ffffff; stroke-width: 0.5"/>
    </defs>
    <g clip-path="url(#pd17977c7b7)">
     <use xlink:href="#m84b6bf22fc" x="71.295734" y="38.793845" style="fill: #2b5d34; stroke: #ffffff; stroke-width: 0.5"/>
     <use xlink:href="#m84b6bf22fc" x="126.032556" y="61.358936" style="fill: #2b5d34; stroke: #ffffff; stroke-width: 0.5"/>
     <use xlink:href="#m84b6bf22fc" x="205.096854" y="88.437045" style="fill: #2b5d34; stroke: #ffffff; stroke-width: 0.5"/>
     <use xlink:href="#m84b6bf22fc" x="278.079283" y="124.54119" style="fill: #2b5d34; stroke: #ffffff; stroke-width: 0.5"/>
     <use xlink:href="#m84b6bf22fc" x="326.734236" y="135.823736" style="fill: #2b5d34; stroke: #ffffff; stroke-width: 0.5"/>
     <use xlink:href="#m84b6bf22fc" x="387.552927" y="124.54119" style="fill: #2b5d34; stroke: #ffffff; stroke-width: 0.5"/>
     <use xlink:href="#m84b6bf22fc" x="424.044141" y="149.36279" style="fill: #2b5d34; stroke: #ffffff; stroke-width: 0.5"/>
     <use xlink:href="#m84b6bf22fc" x="460.535356" y="158.388827" style="fill: #2b5d34; stroke: #ffffff; stroke-width: 0.5"/>
     <use xlink:href="#m84b6bf22fc" x="521.354047" y="187.723445" style="fill: #2b5d34; stroke: #ffffff; stroke-width: 0.5"/>
     <use xlink:href="#m84b6bf22fc" x="570.008999" y="199.00599" style="fill: #2b5d34; stroke: #ffffff; stroke-width: 0.5"/>
     <use xlink:href="#m84b6bf22fc" x="582.172738" y="221.571081" style="fill: #2b5d34; stroke: #ffffff; stroke-width: 0.5"/>
    </g>
   </g>
   <g id="text_6">
    <!-- Conjugate -->
    <g style="fill: #222222" transform="translate(77.295734 23.239304) scale(0.075 -0.075)">
     <defs>
      <path id="DejaVuSans-26" d="M 4122 4306 
L 4122 3641 
Q 3803 3938 3442 4084 
Q 3081 4231 2675 4231 
Q 1875 4231 1450 3742 
Q 1025 3253 1025 2328 
Q 1025 1406 1450 917 
Q 1875 428 2675 428 
Q 3081 428 3442 575 
Q 3803 722 4122 1019 
L 4122 359 
Q 3791 134 3420 21 
Q 3050 -91 2638 -91 
Q 1578 -91 968 557 
Q 359 1206 359 2328 
Q 359 3453 968 4101 
Q 1578 4750 2638 4750 
Q 3056 4750 3426 4639 
Q 3797 4528 4122 4306 
z
" transform="scale(0.015625)"/>
      <path id="DejaVuSans-4d" d="M 603 3500 
L 1178 3500 
L 1178 -63 
Q 1178 -731 923 -1031 
Q 669 -1331 103 -1331 
L -116 -1331 
L -116 -844 
L 38 -844 
Q 366 -844 484 -692 
Q 603 -541 603 -63 
L 603 3500 
z
M 603 4863 
L 1178 4863 
L 1178 4134 
L 603 4134 
L 603 4863 
z
" transform="scale(0.015625)"/>
     </defs>
     <use xlink:href="#DejaVuSans-26"/>
     <use xlink:href="#DejaVuSans-52" transform="translate(69.828125 0)"/>
     <use xlink:href="#DejaVuSans-51" transform="translate(131.015625 0)"/>
     <use xlink:href="#DejaVuSans-4d" transform="translate(194.390625 0)"/>
     <use xlink:href="#DejaVuSans-58" transform="translate(222.171875 0)"/>
     <use xlink:href="#DejaVuSans-4a" transform="translate(285.546875 0)"/>
     <use xlink:href="#DejaVuSans-44" transform="translate(349.03125 0)"/>
     <use xlink:href="#DejaVuSans-57" transform="translate(410.3125 0)"/>
     <use xlink:href="#DejaVuSans-48" transform="translate(449.515625 0)"/>
    </g>
    <!-- Bayes (Beta-Bernoulli) -->
    <g style="fill: #222222" transform="translate(77.295734 32.241355) scale(0.075 -0.075)">
     <defs>
      <path id="DejaVuSans-25" d="M 1259 2228 
L 1259 519 
L 2272 519 
Q 2781 519 3026 730 
Q 3272 941 3272 1375 
Q 3272 1813 3026 2020 
Q 2781 2228 2272 2228 
L 1259 2228 
z
M 1259 4147 
L 1259 2741 
L 2194 2741 
Q 2656 2741 2882 2914 
Q 3109 3088 3109 3444 
Q 3109 3797 2882 3972 
Q 2656 4147 2194 4147 
L 1259 4147 
z
M 628 4666 
L 2241 4666 
Q 2963 4666 3353 4366 
Q 3744 4066 3744 3513 
Q 3744 3084 3544 2831 
Q 3344 2578 2956 2516 
Q 3422 2416 3680 2098 
Q 3938 1781 3938 1306 
Q 3938 681 3513 340 
Q 3088 0 2303 0 
L 628 0 
L 628 4666 
z
" transform="scale(0.015625)"/>
      <path id="DejaVuSans-10" d="M 313 2009 
L 1997 2009 
L 1997 1497 
L 313 1497 
L 313 2009 
z
" transform="scale(0.015625)"/>
     </defs>
     <use xlink:href="#DejaVuSans-25"/>
     <use xlink:href="#DejaVuSans-44" transform="translate(68.609375 0)"/>
     <use xlink:href="#DejaVuSans-5c" transform="translate(129.890625 0)"/>
     <use xlink:href="#DejaVuSans-48" transform="translate(189.078125 0)"/>
     <use xlink:href="#DejaVuSans-56" transform="translate(250.609375 0)"/>
     <use xlink:href="#DejaVuSans-3" transform="translate(302.703125 0)"/>
     <use xlink:href="#DejaVuSans-b" transform="translate(334.484375 0)"/>
     <use xlink:href="#DejaVuSans-25" transform="translate(373.5 0)"/>
     <use xlink:href="#DejaVuSans-48" transform="translate(442.109375 0)"/>
     <use xlink:href="#DejaVuSans-57" transform="translate(503.640625 0)"/>
     <use xlink:href="#DejaVuSans-44" transform="translate(542.84375 0)"/>
     <use xlink:href="#DejaVuSans-10" transform="translate(604.125 0)"/>
     <use xlink:href="#DejaVuSans-25" transform="translate(636.640625 0)"/>
     <use xlink:href="#DejaVuSans-48" transform="translate(705.25 0)"/>
     <use xlink:href="#DejaVuSans-55" transform="translate(766.78125 0)"/>
     <use xlink:href="#DejaVuSans-51" transform="translate(806.140625 0)"/>
     <use xlink:href="#DejaVuSans-52" transform="translate(869.515625 0)"/>
     <use xlink:href="#DejaVuSans-58" transform="translate(930.703125 0)"/>
     <use xlink:href="#DejaVuSans-4f" transform="translate(994.078125 0)"/>
     <use xlink:href="#DejaVuSans-4f" transform="translate(1021.859375 0)"/>
     <use xlink:href="#DejaVuSans-4c" transform="translate(1049.640625 0)"/>
     <use xlink:href="#DejaVuSans-c" transform="translate(1077.421875 0)"/>
    </g>
   </g>
   <g id="text_7">
    <!-- Kalman -->
    <g style="fill: #222222" transform="translate(132.032556 45.804395) scale(0.075 -0.075)">
     <defs>
      <path id="DejaVuSans-2e" d="M 628 4666 
L 1259 4666 
L 1259 2694 
L 3353 4666 
L 4166 4666 
L 1850 2491 
L 4331 0 
L 3500 0 
L 1259 2247 
L 1259 0 
L 628 0 
L 628 4666 
z
" transform="scale(0.015625)"/>
     </defs>
     <use xlink:href="#DejaVuSans-2e"/>
     <use xlink:href="#DejaVuSans-44" transform="translate(63.828125 0)"/>
     <use xlink:href="#DejaVuSans-4f" transform="translate(125.109375 0)"/>
     <use xlink:href="#DejaVuSans-50" transform="translate(152.890625 0)"/>
     <use xlink:href="#DejaVuSans-44" transform="translate(250.296875 0)"/>
     <use xlink:href="#DejaVuSans-51" transform="translate(311.578125 0)"/>
    </g>
    <!-- filter (Lin-Gauss) -->
    <g style="fill: #222222" transform="translate(132.032556 54.806446) scale(0.075 -0.075)">
     <defs>
      <path id="DejaVuSans-13af" d="M 3431 3500 
L 3431 0 
L 2853 0 
L 2853 3053 
L 1275 3053 
L 1275 0 
L 697 0 
L 697 3053 
L 147 3053 
L 147 3500 
L 697 3500 
L 697 3744 
Q 697 4316 967 4589 
Q 1238 4863 1797 4863 
L 2375 4863 
L 2375 4384 
L 1825 4384 
Q 1516 4384 1395 4259 
Q 1275 4134 1275 3809 
L 1275 3500 
L 3431 3500 
z
M 2853 4856 
L 3431 4856 
L 3431 4128 
L 2853 4128 
L 2853 4856 
z
" transform="scale(0.015625)"/>
      <path id="DejaVuSans-2f" d="M 628 4666 
L 1259 4666 
L 1259 531 
L 3531 531 
L 3531 0 
L 628 0 
L 628 4666 
z
" transform="scale(0.015625)"/>
      <path id="DejaVuSans-2a" d="M 3809 666 
L 3809 1919 
L 2778 1919 
L 2778 2438 
L 4434 2438 
L 4434 434 
Q 4069 175 3628 42 
Q 3188 -91 2688 -91 
Q 1594 -91 976 548 
Q 359 1188 359 2328 
Q 359 3472 976 4111 
Q 1594 4750 2688 4750 
Q 3144 4750 3555 4637 
Q 3966 4525 4313 4306 
L 4313 3634 
Q 3963 3931 3569 4081 
Q 3175 4231 2741 4231 
Q 1884 4231 1454 3753 
Q 1025 3275 1025 2328 
Q 1025 1384 1454 906 
Q 1884 428 2741 428 
Q 3075 428 3337 486 
Q 3600 544 3809 666 
z
" transform="scale(0.015625)"/>
     </defs>
     <use xlink:href="#DejaVuSans-13af"/>
     <use xlink:href="#DejaVuSans-4f" transform="translate(62.984375 0)"/>
     <use xlink:href="#DejaVuSans-57" transform="translate(90.765625 0)"/>
     <use xlink:href="#DejaVuSans-48" transform="translate(129.96875 0)"/>
     <use xlink:href="#DejaVuSans-55" transform="translate(191.5 0)"/>
     <use xlink:href="#DejaVuSans-3" transform="translate(232.609375 0)"/>
     <use xlink:href="#DejaVuSans-b" transform="translate(264.390625 0)"/>
     <use xlink:href="#DejaVuSans-2f" transform="translate(303.40625 0)"/>
     <use xlink:href="#DejaVuSans-4c" transform="translate(359.125 0)"/>
     <use xlink:href="#DejaVuSans-51" transform="translate(386.90625 0)"/>
     <use xlink:href="#DejaVuSans-10" transform="translate(450.28125 0)"/>
     <use xlink:href="#DejaVuSans-2a" transform="translate(490.015625 0)"/>
     <use xlink:href="#DejaVuSans-44" transform="translate(567.5 0)"/>
     <use xlink:href="#DejaVuSans-58" transform="translate(628.78125 0)"/>
     <use xlink:href="#DejaVuSans-56" transform="translate(692.15625 0)"/>
     <use xlink:href="#DejaVuSans-56" transform="translate(744.25 0)"/>
     <use xlink:href="#DejaVuSans-c" transform="translate(796.34375 0)"/>
    </g>
   </g>
   <g id="text_8">
    <!-- VB / mean-field -->
    <g style="fill: #222222" transform="translate(211.096854 82.635287) scale(0.075 -0.075)">
     <defs>
      <path id="DejaVuSans-39" d="M 1831 0 
L 50 4666 
L 709 4666 
L 2188 738 
L 3669 4666 
L 4325 4666 
L 2547 0 
L 1831 0 
z
" transform="scale(0.015625)"/>
      <path id="DejaVuSans-12" d="M 1625 4666 
L 2156 4666 
L 531 -594 
L 0 -594 
L 1625 4666 
z
" transform="scale(0.015625)"/>
     </defs>
     <use xlink:href="#DejaVuSans-39"/>
     <use xlink:href="#DejaVuSans-25" transform="translate(68.40625 0)"/>
     <use xlink:href="#DejaVuSans-3" transform="translate(137.015625 0)"/>
     <use xlink:href="#DejaVuSans-12" transform="translate(168.796875 0)"/>
     <use xlink:href="#DejaVuSans-3" transform="translate(202.484375 0)"/>
     <use xlink:href="#DejaVuSans-50" transform="translate(234.265625 0)"/>
     <use xlink:href="#DejaVuSans-48" transform="translate(331.671875 0)"/>
     <use xlink:href="#DejaVuSans-44" transform="translate(393.203125 0)"/>
     <use xlink:href="#DejaVuSans-51" transform="translate(454.484375 0)"/>
     <use xlink:href="#DejaVuSans-10" transform="translate(517.859375 0)"/>
     <use xlink:href="#DejaVuSans-13af" transform="translate(553.9375 0)"/>
     <use xlink:href="#DejaVuSans-48" transform="translate(616.921875 0)"/>
     <use xlink:href="#DejaVuSans-4f" transform="translate(678.453125 0)"/>
     <use xlink:href="#DejaVuSans-47" transform="translate(706.234375 0)"/>
    </g>
   </g>
   <g id="text_9">
    <!-- MacKay -->
    <g style="fill: #222222" transform="translate(243.066002 108.986649) scale(0.075 -0.075)">
     <use xlink:href="#DejaVuSans-30"/>
     <use xlink:href="#DejaVuSans-44" transform="translate(86.28125 0)"/>
     <use xlink:href="#DejaVuSans-46" transform="translate(147.5625 0)"/>
     <use xlink:href="#DejaVuSans-2e" transform="translate(202.546875 0)"/>
     <use xlink:href="#DejaVuSans-44" transform="translate(266.375 0)"/>
     <use xlink:href="#DejaVuSans-5c" transform="translate(327.65625 0)"/>
    </g>
    <!-- Laplace BNN -->
    <g style="fill: #222222" transform="translate(224.373424 117.9887) scale(0.075 -0.075)">
     <defs>
      <path id="DejaVuSans-31" d="M 628 4666 
L 1478 4666 
L 3547 763 
L 3547 4666 
L 4159 4666 
L 4159 0 
L 3309 0 
L 1241 3903 
L 1241 0 
L 628 0 
L 628 4666 
z
" transform="scale(0.015625)"/>
     </defs>
     <use xlink:href="#DejaVuSans-2f"/>
     <use xlink:href="#DejaVuSans-44" transform="translate(55.71875 0)"/>
     <use xlink:href="#DejaVuSans-53" transform="translate(117 0)"/>
     <use xlink:href="#DejaVuSans-4f" transform="translate(180.484375 0)"/>
     <use xlink:href="#DejaVuSans-44" transform="translate(208.265625 0)"/>
     <use xlink:href="#DejaVuSans-46" transform="translate(269.546875 0)"/>
     <use xlink:href="#DejaVuSans-48" transform="translate(324.53125 0)"/>
     <use xlink:href="#DejaVuSans-3" transform="translate(386.0625 0)"/>
     <use xlink:href="#DejaVuSans-25" transform="translate(417.84375 0)"/>
     <use xlink:href="#DejaVuSans-31" transform="translate(486.453125 0)"/>
     <use xlink:href="#DejaVuSans-31" transform="translate(561.265625 0)"/>
    </g>
   </g>
   <g id="text_10">
    <!-- BBB -->
    <g style="fill: #222222" transform="translate(332.734236 120.269195) scale(0.075 -0.075)">
     <use xlink:href="#DejaVuSans-25"/>
     <use xlink:href="#DejaVuSans-25" transform="translate(68.609375 0)"/>
     <use xlink:href="#DejaVuSans-25" transform="translate(137.21875 0)"/>
    </g>
    <!-- mean-field -->
    <g style="fill: #222222" transform="translate(332.734236 129.271246) scale(0.075 -0.075)">
     <use xlink:href="#DejaVuSans-50"/>
     <use xlink:href="#DejaVuSans-48" transform="translate(97.40625 0)"/>
     <use xlink:href="#DejaVuSans-44" transform="translate(158.9375 0)"/>
     <use xlink:href="#DejaVuSans-51" transform="translate(220.21875 0)"/>
     <use xlink:href="#DejaVuSans-10" transform="translate(283.59375 0)"/>
     <use xlink:href="#DejaVuSans-13af" transform="translate(319.671875 0)"/>
     <use xlink:href="#DejaVuSans-48" transform="translate(382.65625 0)"/>
     <use xlink:href="#DejaVuSans-4f" transform="translate(444.1875 0)"/>
     <use xlink:href="#DejaVuSans-47" transform="translate(471.96875 0)"/>
    </g>
   </g>
   <g id="text_11">
    <!-- SPEN -->
    <g style="fill: #222222" transform="translate(393.552927 106.986649) scale(0.075 -0.075)">
     <defs>
      <path id="DejaVuSans-36" d="M 3425 4513 
L 3425 3897 
Q 3066 4069 2747 4153 
Q 2428 4238 2131 4238 
Q 1616 4238 1336 4038 
Q 1056 3838 1056 3469 
Q 1056 3159 1242 3001 
Q 1428 2844 1947 2747 
L 2328 2669 
Q 3034 2534 3370 2195 
Q 3706 1856 3706 1288 
Q 3706 609 3251 259 
Q 2797 -91 1919 -91 
Q 1588 -91 1214 -16 
Q 841 59 441 206 
L 441 856 
Q 825 641 1194 531 
Q 1563 422 1919 422 
Q 2459 422 2753 634 
Q 3047 847 3047 1241 
Q 3047 1584 2836 1778 
Q 2625 1972 2144 2069 
L 1759 2144 
Q 1053 2284 737 2584 
Q 422 2884 422 3419 
Q 422 4038 858 4394 
Q 1294 4750 2059 4750 
Q 2388 4750 2728 4690 
Q 3069 4631 3425 4513 
z
" transform="scale(0.015625)"/>
      <path id="DejaVuSans-33" d="M 1259 4147 
L 1259 2394 
L 2053 2394 
Q 2494 2394 2734 2622 
Q 2975 2850 2975 3272 
Q 2975 3691 2734 3919 
Q 2494 4147 2053 4147 
L 1259 4147 
z
M 628 4666 
L 2053 4666 
Q 2838 4666 3239 4311 
Q 3641 3956 3641 3272 
Q 3641 2581 3239 2228 
Q 2838 1875 2053 1875 
L 1259 1875 
L 1259 0 
L 628 0 
L 628 4666 
z
" transform="scale(0.015625)"/>
      <path id="DejaVuSans-28" d="M 628 4666 
L 3578 4666 
L 3578 4134 
L 1259 4134 
L 1259 2753 
L 3481 2753 
L 3481 2222 
L 1259 2222 
L 1259 531 
L 3634 531 
L 3634 0 
L 628 0 
L 628 4666 
z
" transform="scale(0.015625)"/>
     </defs>
     <use xlink:href="#DejaVuSans-36"/>
     <use xlink:href="#DejaVuSans-33" transform="translate(63.484375 0)"/>
     <use xlink:href="#DejaVuSans-28" transform="translate(123.78125 0)"/>
     <use xlink:href="#DejaVuSans-31" transform="translate(186.96875 0)"/>
    </g>
    <!-- (grad-desc inference) -->
    <g style="fill: #222222" transform="translate(393.552927 115.9887) scale(0.075 -0.075)">
     <use xlink:href="#DejaVuSans-b"/>
     <use xlink:href="#DejaVuSans-4a" transform="translate(39.015625 0)"/>
     <use xlink:href="#DejaVuSans-55" transform="translate(102.5 0)"/>
     <use xlink:href="#DejaVuSans-44" transform="translate(143.609375 0)"/>
     <use xlink:href="#DejaVuSans-47" transform="translate(204.890625 0)"/>
     <use xlink:href="#DejaVuSans-10" transform="translate(268.375 0)"/>
     <use xlink:href="#DejaVuSans-47" transform="translate(304.453125 0)"/>
     <use xlink:href="#DejaVuSans-48" transform="translate(367.9375 0)"/>
     <use xlink:href="#DejaVuSans-56" transform="translate(429.46875 0)"/>
     <use xlink:href="#DejaVuSans-46" transform="translate(481.5625 0)"/>
     <use xlink:href="#DejaVuSans-3" transform="translate(536.546875 0)"/>
     <use xlink:href="#DejaVuSans-4c" transform="translate(568.328125 0)"/>
     <use xlink:href="#DejaVuSans-51" transform="translate(596.109375 0)"/>
     <use xlink:href="#DejaVuSans-49" transform="translate(659.484375 0)"/>
     <use xlink:href="#DejaVuSans-48" transform="translate(694.6875 0)"/>
     <use xlink:href="#DejaVuSans-55" transform="translate(756.21875 0)"/>
     <use xlink:href="#DejaVuSans-48" transform="translate(795.125 0)"/>
     <use xlink:href="#DejaVuSans-51" transform="translate(856.65625 0)"/>
     <use xlink:href="#DejaVuSans-46" transform="translate(920.03125 0)"/>
     <use xlink:href="#DejaVuSans-48" transform="translate(975.015625 0)"/>
     <use xlink:href="#DejaVuSans-c" transform="translate(1036.546875 0)"/>
    </g>
   </g>
   <g id="text_12">
    <!-- HMC BNN -->
    <g style="fill: #222222" transform="translate(430.044141 159.561033) scale(0.075 -0.075)">
     <defs>
      <path id="DejaVuSans-2b" d="M 628 4666 
L 1259 4666 
L 1259 2753 
L 3553 2753 
L 3553 4666 
L 4184 4666 
L 4184 0 
L 3553 0 
L 3553 2222 
L 1259 2222 
L 1259 0 
L 628 0 
L 628 4666 
z
" transform="scale(0.015625)"/>
     </defs>
     <use xlink:href="#DejaVuSans-2b"/>
     <use xlink:href="#DejaVuSans-30" transform="translate(75.203125 0)"/>
     <use xlink:href="#DejaVuSans-26" transform="translate(161.484375 0)"/>
     <use xlink:href="#DejaVuSans-3" transform="translate(231.3125 0)"/>
     <use xlink:href="#DejaVuSans-25" transform="translate(263.09375 0)"/>
     <use xlink:href="#DejaVuSans-31" transform="translate(331.703125 0)"/>
     <use xlink:href="#DejaVuSans-31" transform="translate(406.515625 0)"/>
    </g>
   </g>
   <g id="text_13">
    <!-- amortized VI -->
    <g style="fill: #222222" transform="translate(466.535356 152.587069) scale(0.075 -0.075)">
     <defs>
      <path id="DejaVuSans-5d" d="M 353 3500 
L 3084 3500 
L 3084 2975 
L 922 459 
L 3084 459 
L 3084 0 
L 275 0 
L 275 525 
L 2438 3041 
L 353 3041 
L 353 3500 
z
" transform="scale(0.015625)"/>
     </defs>
     <use xlink:href="#DejaVuSans-44"/>
     <use xlink:href="#DejaVuSans-50" transform="translate(61.28125 0)"/>
     <use xlink:href="#DejaVuSans-52" transform="translate(158.6875 0)"/>
     <use xlink:href="#DejaVuSans-55" transform="translate(219.875 0)"/>
     <use xlink:href="#DejaVuSans-57" transform="translate(260.984375 0)"/>
     <use xlink:href="#DejaVuSans-4c" transform="translate(300.1875 0)"/>
     <use xlink:href="#DejaVuSans-5d" transform="translate(327.96875 0)"/>
     <use xlink:href="#DejaVuSans-48" transform="translate(380.453125 0)"/>
     <use xlink:href="#DejaVuSans-47" transform="translate(441.984375 0)"/>
     <use xlink:href="#DejaVuSans-3" transform="translate(505.46875 0)"/>
     <use xlink:href="#DejaVuSans-39" transform="translate(537.25 0)"/>
     <use xlink:href="#DejaVuSans-2c" transform="translate(605.65625 0)"/>
    </g>
   </g>
   <g id="text_14">
    <!-- Flow NF -->
    <g style="fill: #222222" transform="translate(527.354047 172.168904) scale(0.075 -0.075)">
     <defs>
      <path id="DejaVuSans-29" d="M 628 4666 
L 3309 4666 
L 3309 4134 
L 1259 4134 
L 1259 2759 
L 3109 2759 
L 3109 2228 
L 1259 2228 
L 1259 0 
L 628 0 
L 628 4666 
z
" transform="scale(0.015625)"/>
      <path id="DejaVuSans-5a" d="M 269 3500 
L 844 3500 
L 1563 769 
L 2278 3500 
L 2956 3500 
L 3675 769 
L 4391 3500 
L 4966 3500 
L 4050 0 
L 3372 0 
L 2619 2869 
L 1863 0 
L 1184 0 
L 269 3500 
z
" transform="scale(0.015625)"/>
     </defs>
     <use xlink:href="#DejaVuSans-29"/>
     <use xlink:href="#DejaVuSans-4f" transform="translate(57.515625 0)"/>
     <use xlink:href="#DejaVuSans-52" transform="translate(85.296875 0)"/>
     <use xlink:href="#DejaVuSans-5a" transform="translate(146.484375 0)"/>
     <use xlink:href="#DejaVuSans-3" transform="translate(228.265625 0)"/>
     <use xlink:href="#DejaVuSans-31" transform="translate(260.046875 0)"/>
     <use xlink:href="#DejaVuSans-29" transform="translate(334.859375 0)"/>
    </g>
    <!-- (change-of-var.) -->
    <g style="fill: #222222" transform="translate(527.354047 181.170955) scale(0.075 -0.075)">
     <defs>
      <path id="DejaVuSans-59" d="M 191 3500 
L 800 3500 
L 1894 563 
L 2988 3500 
L 3597 3500 
L 2284 0 
L 1503 0 
L 191 3500 
z
" transform="scale(0.015625)"/>
      <path id="DejaVuSans-11" d="M 684 794 
L 1344 794 
L 1344 0 
L 684 0 
L 684 794 
z
" transform="scale(0.015625)"/>
     </defs>
     <use xlink:href="#DejaVuSans-b"/>
     <use xlink:href="#DejaVuSans-46" transform="translate(39.015625 0)"/>
     <use xlink:href="#DejaVuSans-4b" transform="translate(94 0)"/>
     <use xlink:href="#DejaVuSans-44" transform="translate(157.375 0)"/>
     <use xlink:href="#DejaVuSans-51" transform="translate(218.65625 0)"/>
     <use xlink:href="#DejaVuSans-4a" transform="translate(282.03125 0)"/>
     <use xlink:href="#DejaVuSans-48" transform="translate(345.515625 0)"/>
     <use xlink:href="#DejaVuSans-10" transform="translate(407.046875 0)"/>
     <use xlink:href="#DejaVuSans-52" transform="translate(444.984375 0)"/>
     <use xlink:href="#DejaVuSans-49" transform="translate(506.171875 0)"/>
     <use xlink:href="#DejaVuSans-10" transform="translate(535.90625 0)"/>
     <use xlink:href="#DejaVuSans-59" transform="translate(569.296875 0)"/>
     <use xlink:href="#DejaVuSans-44" transform="translate(628.484375 0)"/>
     <use xlink:href="#DejaVuSans-55" transform="translate(689.765625 0)"/>
     <use xlink:href="#DejaVuSans-11" transform="translate(721.703125 0)"/>
     <use xlink:href="#DejaVuSans-c" transform="translate(753.484375 0)"/>
    </g>
   </g>
   <g id="text_15">
    <!-- Score / -->
    <g style="fill: #222222" transform="translate(576.008999 183.451449) scale(0.075 -0.075)">
     <use xlink:href="#DejaVuSans-36"/>
     <use xlink:href="#DejaVuSans-46" transform="translate(63.484375 0)"/>
     <use xlink:href="#DejaVuSans-52" transform="translate(118.46875 0)"/>
     <use xlink:href="#DejaVuSans-55" transform="translate(179.65625 0)"/>
     <use xlink:href="#DejaVuSans-48" transform="translate(218.5625 0)"/>
     <use xlink:href="#DejaVuSans-3" transform="translate(280.09375 0)"/>
     <use xlink:href="#DejaVuSans-12" transform="translate(311.875 0)"/>
    </g>
    <!-- Diffusion (implicit) -->
    <g style="fill: #222222" transform="translate(576.008999 192.4535) scale(0.075 -0.075)">
     <defs>
      <path id="DejaVuSans-27" d="M 1259 4147 
L 1259 519 
L 2022 519 
Q 2988 519 3436 956 
Q 3884 1394 3884 2338 
Q 3884 3275 3436 3711 
Q 2988 4147 2022 4147 
L 1259 4147 
z
M 628 4666 
L 1925 4666 
Q 3281 4666 3915 4102 
Q 4550 3538 4550 2338 
Q 4550 1131 3912 565 
Q 3275 0 1925 0 
L 628 0 
L 628 4666 
z
" transform="scale(0.015625)"/>
      <path id="DejaVuSans-13ae" d="M 4531 4863 
L 4531 4384 
L 3981 4384 
Q 3672 4384 3551 4259 
Q 3431 4134 3431 3809 
L 3431 3500 
L 4378 3500 
L 4378 3053 
L 3431 3053 
L 3431 0 
L 2853 0 
L 2853 3053 
L 1275 3053 
L 1275 0 
L 697 0 
L 697 3053 
L 147 3053 
L 147 3500 
L 697 3500 
L 697 3744 
Q 697 4328 969 4595 
Q 1241 4863 1831 4863 
L 2375 4863 
L 2375 4384 
L 1825 4384 
Q 1516 4384 1394 4259 
Q 1275 4134 1275 3809 
L 1275 3500 
L 2853 3500 
L 2853 3744 
Q 2853 4328 3125 4595 
Q 3397 4863 3988 4863 
L 4531 4863 
z
" transform="scale(0.015625)"/>
     </defs>
     <use xlink:href="#DejaVuSans-27"/>
     <use xlink:href="#DejaVuSans-4c" transform="translate(77 0)"/>
     <use xlink:href="#DejaVuSans-13ae" transform="translate(104.78125 0)"/>
     <use xlink:href="#DejaVuSans-58" transform="translate(173.671875 0)"/>
     <use xlink:href="#DejaVuSans-56" transform="translate(237.046875 0)"/>
     <use xlink:href="#DejaVuSans-4c" transform="translate(289.140625 0)"/>
     <use xlink:href="#DejaVuSans-52" transform="translate(316.921875 0)"/>
     <use xlink:href="#DejaVuSans-51" transform="translate(378.109375 0)"/>
     <use xlink:href="#DejaVuSans-3" transform="translate(441.484375 0)"/>
     <use xlink:href="#DejaVuSans-b" transform="translate(473.265625 0)"/>
     <use xlink:href="#DejaVuSans-4c" transform="translate(512.28125 0)"/>
     <use xlink:href="#DejaVuSans-50" transform="translate(540.0625 0)"/>
     <use xlink:href="#DejaVuSans-53" transform="translate(637.46875 0)"/>
     <use xlink:href="#DejaVuSans-4f" transform="translate(700.953125 0)"/>
     <use xlink:href="#DejaVuSans-4c" transform="translate(728.734375 0)"/>
     <use xlink:href="#DejaVuSans-46" transform="translate(756.515625 0)"/>
     <use xlink:href="#DejaVuSans-4c" transform="translate(811.5 0)"/>
     <use xlink:href="#DejaVuSans-57" transform="translate(839.28125 0)"/>
     <use xlink:href="#DejaVuSans-c" transform="translate(878.484375 0)"/>
    </g>
   </g>
   <g id="text_16">
    <!-- EBM -->
    <g style="fill: #222222" transform="translate(588.172738 206.017126) scale(0.075 -0.075)">
     <use xlink:href="#DejaVuSans-28"/>
     <use xlink:href="#DejaVuSans-25" transform="translate(63.1875 0)"/>
     <use xlink:href="#DejaVuSans-30" transform="translate(131.796875 0)"/>
    </g>
    <!-- (NCE / PCD) -->
    <g style="fill: #222222" transform="translate(588.172738 215.018591) scale(0.075 -0.075)">
     <use xlink:href="#DejaVuSans-b"/>
     <use xlink:href="#DejaVuSans-31" transform="translate(39.015625 0)"/>
     <use xlink:href="#DejaVuSans-26" transform="translate(113.828125 0)"/>
     <use xlink:href="#DejaVuSans-28" transform="translate(183.65625 0)"/>
     <use xlink:href="#DejaVuSans-3" transform="translate(246.84375 0)"/>
     <use xlink:href="#DejaVuSans-12" transform="translate(278.625 0)"/>
     <use xlink:href="#DejaVuSans-3" transform="translate(312.3125 0)"/>
     <use xlink:href="#DejaVuSans-33" transform="translate(344.09375 0)"/>
     <use xlink:href="#DejaVuSans-26" transform="translate(404.390625 0)"/>
     <use xlink:href="#DejaVuSans-27" transform="translate(474.21875 0)"/>
     <use xlink:href="#DejaVuSans-c" transform="translate(551.21875 0)"/>
    </g>
   </g>
   <g id="text_17">
    <!-- Inference tractability vs model generality -->
    <g transform="translate(212.978767 16.998281) scale(0.11 -0.11)">
     <use xlink:href="#DejaVuSans-2c"/>
     <use xlink:href="#DejaVuSans-51" transform="translate(29.5 0)"/>
     <use xlink:href="#DejaVuSans-49" transform="translate(92.875 0)"/>
     <use xlink:href="#DejaVuSans-48" transform="translate(128.078125 0)"/>
     <use xlink:href="#DejaVuSans-55" transform="translate(189.609375 0)"/>
     <use xlink:href="#DejaVuSans-48" transform="translate(228.515625 0)"/>
     <use xlink:href="#DejaVuSans-51" transform="translate(290.046875 0)"/>
     <use xlink:href="#DejaVuSans-46" transform="translate(353.421875 0)"/>
     <use xlink:href="#DejaVuSans-48" transform="translate(408.40625 0)"/>
     <use xlink:href="#DejaVuSans-3" transform="translate(469.9375 0)"/>
     <use xlink:href="#DejaVuSans-57" transform="translate(501.71875 0)"/>
     <use xlink:href="#DejaVuSans-55" transform="translate(540.921875 0)"/>
     <use xlink:href="#DejaVuSans-44" transform="translate(582.03125 0)"/>
     <use xlink:href="#DejaVuSans-46" transform="translate(643.3125 0)"/>
     <use xlink:href="#DejaVuSans-57" transform="translate(698.296875 0)"/>
     <use xlink:href="#DejaVuSans-44" transform="translate(737.5 0)"/>
     <use xlink:href="#DejaVuSans-45" transform="translate(798.78125 0)"/>
     <use xlink:href="#DejaVuSans-4c" transform="translate(862.265625 0)"/>
     <use xlink:href="#DejaVuSans-4f" transform="translate(890.046875 0)"/>
     <use xlink:href="#DejaVuSans-4c" transform="translate(917.828125 0)"/>
     <use xlink:href="#DejaVuSans-57" transform="translate(945.609375 0)"/>
     <use xlink:href="#DejaVuSans-5c" transform="translate(984.8125 0)"/>
     <use xlink:href="#DejaVuSans-3" transform="translate(1044 0)"/>
     <use xlink:href="#DejaVuSans-59" transform="translate(1075.78125 0)"/>
     <use xlink:href="#DejaVuSans-56" transform="translate(1134.96875 0)"/>
     <use xlink:href="#DejaVuSans-3" transform="translate(1187.0625 0)"/>
     <use xlink:href="#DejaVuSans-50" transform="translate(1218.84375 0)"/>
     <use xlink:href="#DejaVuSans-52" transform="translate(1316.25 0)"/>
     <use xlink:href="#DejaVuSans-47" transform="translate(1377.4375 0)"/>
     <use xlink:href="#DejaVuSans-48" transform="translate(1440.921875 0)"/>
     <use xlink:href="#DejaVuSans-4f" transform="translate(1502.453125 0)"/>
     <use xlink:href="#DejaVuSans-3" transform="translate(1530.234375 0)"/>
     <use xlink:href="#DejaVuSans-4a" transform="translate(1562.015625 0)"/>
     <use xlink:href="#DejaVuSans-48" transform="translate(1625.5 0)"/>
     <use xlink:href="#DejaVuSans-51" transform="translate(1687.03125 0)"/>
     <use xlink:href="#DejaVuSans-48" transform="translate(1750.40625 0)"/>
     <use xlink:href="#DejaVuSans-55" transform="translate(1811.9375 0)"/>
     <use xlink:href="#DejaVuSans-44" transform="translate(1853.046875 0)"/>
     <use xlink:href="#DejaVuSans-4f" transform="translate(1914.328125 0)"/>
     <use xlink:href="#DejaVuSans-4c" transform="translate(1942.109375 0)"/>
     <use xlink:href="#DejaVuSans-57" transform="translate(1969.890625 0)"/>
     <use xlink:href="#DejaVuSans-5c" transform="translate(2009.09375 0)"/>
    </g>
   </g>
   <g id="patch_8">
    <path d="M 84.809548 47.043484 
Q 281.554539 262.108047 566.288959 208.732328 
" clip-path="url(#pd17977c7b7)" style="fill: none; stroke: #555555; stroke-width: 1.6; stroke-linecap: round"/>
    <path d="M 558.54893 206.520551 
L 566.288959 208.732328 
L 559.87552 213.597285 
z
" clip-path="url(#pd17977c7b7)" style="fill: #555555; stroke: #555555; stroke-width: 1.6; stroke-linecap: round"/>
   </g>
   <g id="legend_1">
    <g id="patch_9">
     <path d="M 27.890781 244.89919 
L 266.076719 244.89919 
Q 267.576719 244.89919 267.576719 243.39919 
L 267.576719 210.397433 
Q 267.576719 208.897433 266.076719 208.897433 
L 27.890781 208.897433 
Q 26.390781 208.897433 26.390781 210.397433 
L 26.390781 243.39919 
Q 26.390781 244.89919 27.890781 244.89919 
z
" style="fill: #ffffff; opacity: 0.9; stroke: #cccccc; stroke-linejoin: miter"/>
    </g>
    <g id="patch_10">
     <path d="M 29.390781 217.596261 
L 44.390781 217.596261 
L 44.390781 212.346261 
L 29.390781 212.346261 
z
" style="fill: #d4ecd4; opacity: 0.7"/>
    </g>
    <g id="text_18">
     <!-- Exact inference (conjugate / chain topology) -->
     <g transform="translate(50.390781 217.596261) scale(0.075 -0.075)">
      <use xlink:href="#DejaVuSans-28"/>
      <use xlink:href="#DejaVuSans-5b" transform="translate(63.1875 0)"/>
      <use xlink:href="#DejaVuSans-44" transform="translate(122.375 0)"/>
      <use xlink:href="#DejaVuSans-46" transform="translate(183.65625 0)"/>
      <use xlink:href="#DejaVuSans-57" transform="translate(238.640625 0)"/>
      <use xlink:href="#DejaVuSans-3" transform="translate(277.84375 0)"/>
      <use xlink:href="#DejaVuSans-4c" transform="translate(309.625 0)"/>
      <use xlink:href="#DejaVuSans-51" transform="translate(337.40625 0)"/>
      <use xlink:href="#DejaVuSans-49" transform="translate(400.78125 0)"/>
      <use xlink:href="#DejaVuSans-48" transform="translate(435.984375 0)"/>
      <use xlink:href="#DejaVuSans-55" transform="translate(497.515625 0)"/>
      <use xlink:href="#DejaVuSans-48" transform="translate(536.421875 0)"/>
      <use xlink:href="#DejaVuSans-51" transform="translate(597.953125 0)"/>
      <use xlink:href="#DejaVuSans-46" transform="translate(661.328125 0)"/>
      <use xlink:href="#DejaVuSans-48" transform="translate(716.3125 0)"/>
      <use xlink:href="#DejaVuSans-3" transform="translate(777.84375 0)"/>
      <use xlink:href="#DejaVuSans-b" transform="translate(809.625 0)"/>
      <use xlink:href="#DejaVuSans-46" transform="translate(848.640625 0)"/>
      <use xlink:href="#DejaVuSans-52" transform="translate(903.625 0)"/>
      <use xlink:href="#DejaVuSans-51" transform="translate(964.8125 0)"/>
      <use xlink:href="#DejaVuSans-4d" transform="translate(1028.1875 0)"/>
      <use xlink:href="#DejaVuSans-58" transform="translate(1055.96875 0)"/>
      <use xlink:href="#DejaVuSans-4a" transform="translate(1119.34375 0)"/>
      <use xlink:href="#DejaVuSans-44" transform="translate(1182.828125 0)"/>
      <use xlink:href="#DejaVuSans-57" transform="translate(1244.109375 0)"/>
      <use xlink:href="#DejaVuSans-48" transform="translate(1283.3125 0)"/>
      <use xlink:href="#DejaVuSans-3" transform="translate(1344.84375 0)"/>
      <use xlink:href="#DejaVuSans-12" transform="translate(1376.625 0)"/>
      <use xlink:href="#DejaVuSans-3" transform="translate(1410.3125 0)"/>
      <use xlink:href="#DejaVuSans-46" transform="translate(1442.09375 0)"/>
      <use xlink:href="#DejaVuSans-4b" transform="translate(1497.078125 0)"/>
      <use xlink:href="#DejaVuSans-44" transform="translate(1560.453125 0)"/>
      <use xlink:href="#DejaVuSans-4c" transform="translate(1621.734375 0)"/>
      <use xlink:href="#DejaVuSans-51" transform="translate(1649.515625 0)"/>
      <use xlink:href="#DejaVuSans-3" transform="translate(1712.890625 0)"/>
      <use xlink:href="#DejaVuSans-57" transform="translate(1744.671875 0)"/>
      <use xlink:href="#DejaVuSans-52" transform="translate(1783.875 0)"/>
      <use xlink:href="#DejaVuSans-53" transform="translate(1845.0625 0)"/>
      <use xlink:href="#DejaVuSans-52" transform="translate(1908.546875 0)"/>
      <use xlink:href="#DejaVuSans-4f" transform="translate(1969.734375 0)"/>
      <use xlink:href="#DejaVuSans-52" transform="translate(1997.515625 0)"/>
      <use xlink:href="#DejaVuSans-4a" transform="translate(2058.703125 0)"/>
      <use xlink:href="#DejaVuSans-5c" transform="translate(2122.1875 0)"/>
      <use xlink:href="#DejaVuSans-c" transform="translate(2181.375 0)"/>
     </g>
    </g>
    <g id="patch_11">
     <path d="M 29.390781 228.846847 
L 44.390781 228.846847 
L 44.390781 223.596847 
L 29.390781 223.596847 
z
" style="fill: #d6e8f5; opacity: 0.7"/>
    </g>
    <g id="text_19">
     <!-- Deterministic approximate (Laplace, ELBO, mean-field) -->
     <g transform="translate(50.390781 228.846847) scale(0.075 -0.075)">
      <defs>
       <path id="DejaVuSans-f" d="M 750 794 
L 1409 794 
L 1409 256 
L 897 -744 
L 494 -744 
L 750 256 
L 750 794 
z
" transform="scale(0.015625)"/>
       <path id="DejaVuSans-32" d="M 2522 4238 
Q 1834 4238 1429 3725 
Q 1025 3213 1025 2328 
Q 1025 1447 1429 934 
Q 1834 422 2522 422 
Q 3209 422 3611 934 
Q 4013 1447 4013 2328 
Q 4013 3213 3611 3725 
Q 3209 4238 2522 4238 
z
M 2522 4750 
Q 3503 4750 4090 4092 
Q 4678 3434 4678 2328 
Q 4678 1225 4090 567 
Q 3503 -91 2522 -91 
Q 1538 -91 948 565 
Q 359 1222 359 2328 
Q 359 3434 948 4092 
Q 1538 4750 2522 4750 
z
" transform="scale(0.015625)"/>
      </defs>
      <use xlink:href="#DejaVuSans-27"/>
      <use xlink:href="#DejaVuSans-48" transform="translate(77 0)"/>
      <use xlink:href="#DejaVuSans-57" transform="translate(138.53125 0)"/>
      <use xlink:href="#DejaVuSans-48" transform="translate(177.734375 0)"/>
      <use xlink:href="#DejaVuSans-55" transform="translate(239.265625 0)"/>
      <use xlink:href="#DejaVuSans-50" transform="translate(278.625 0)"/>
      <use xlink:href="#DejaVuSans-4c" transform="translate(376.03125 0)"/>
      <use xlink:href="#DejaVuSans-51" transform="translate(403.8125 0)"/>
      <use xlink:href="#DejaVuSans-4c" transform="translate(467.1875 0)"/>
      <use xlink:href="#DejaVuSans-56" transform="translate(494.96875 0)"/>
      <use xlink:href="#DejaVuSans-57" transform="translate(547.0625 0)"/>
      <use xlink:href="#DejaVuSans-4c" transform="translate(586.265625 0)"/>
      <use xlink:href="#DejaVuSans-46" transform="translate(614.046875 0)"/>
      <use xlink:href="#DejaVuSans-3" transform="translate(669.03125 0)"/>
      <use xlink:href="#DejaVuSans-44" transform="translate(700.8125 0)"/>
      <use xlink:href="#DejaVuSans-53" transform="translate(762.09375 0)"/>
      <use xlink:href="#DejaVuSans-53" transform="translate(825.578125 0)"/>
      <use xlink:href="#DejaVuSans-55" transform="translate(889.0625 0)"/>
      <use xlink:href="#DejaVuSans-52" transform="translate(927.96875 0)"/>
      <use xlink:href="#DejaVuSans-5b" transform="translate(986.078125 0)"/>
      <use xlink:href="#DejaVuSans-4c" transform="translate(1045.265625 0)"/>
      <use xlink:href="#DejaVuSans-50" transform="translate(1073.046875 0)"/>
      <use xlink:href="#DejaVuSans-44" transform="translate(1170.453125 0)"/>
      <use xlink:href="#DejaVuSans-57" transform="translate(1231.734375 0)"/>
      <use xlink:href="#DejaVuSans-48" transform="translate(1270.9375 0)"/>
      <use xlink:href="#DejaVuSans-3" transform="translate(1332.46875 0)"/>
      <use xlink:href="#DejaVuSans-b" transform="translate(1364.25 0)"/>
      <use xlink:href="#DejaVuSans-2f" transform="translate(1403.265625 0)"/>
      <use xlink:href="#DejaVuSans-44" transform="translate(1458.984375 0)"/>
      <use xlink:href="#DejaVuSans-53" transform="translate(1520.265625 0)"/>
      <use xlink:href="#DejaVuSans-4f" transform="translate(1583.75 0)"/>
      <use xlink:href="#DejaVuSans-44" transform="translate(1611.53125 0)"/>
      <use xlink:href="#DejaVuSans-46" transform="translate(1672.8125 0)"/>
      <use xlink:href="#DejaVuSans-48" transform="translate(1727.796875 0)"/>
      <use xlink:href="#DejaVuSans-f" transform="translate(1789.328125 0)"/>
      <use xlink:href="#DejaVuSans-3" transform="translate(1821.109375 0)"/>
      <use xlink:href="#DejaVuSans-28" transform="translate(1852.890625 0)"/>
      <use xlink:href="#DejaVuSans-2f" transform="translate(1916.078125 0)"/>
      <use xlink:href="#DejaVuSans-25" transform="translate(1971.796875 0)"/>
      <use xlink:href="#DejaVuSans-32" transform="translate(2038.65625 0)"/>
      <use xlink:href="#DejaVuSans-f" transform="translate(2117.375 0)"/>
      <use xlink:href="#DejaVuSans-3" transform="translate(2149.15625 0)"/>
      <use xlink:href="#DejaVuSans-50" transform="translate(2180.9375 0)"/>
      <use xlink:href="#DejaVuSans-48" transform="translate(2278.34375 0)"/>
      <use xlink:href="#DejaVuSans-44" transform="translate(2339.875 0)"/>
      <use xlink:href="#DejaVuSans-51" transform="translate(2401.15625 0)"/>
      <use xlink:href="#DejaVuSans-10" transform="translate(2464.53125 0)"/>
      <use xlink:href="#DejaVuSans-13af" transform="translate(2500.609375 0)"/>
      <use xlink:href="#DejaVuSans-48" transform="translate(2563.59375 0)"/>
      <use xlink:href="#DejaVuSans-4f" transform="translate(2625.125 0)"/>
      <use xlink:href="#DejaVuSans-47" transform="translate(2652.90625 0)"/>
      <use xlink:href="#DejaVuSans-c" transform="translate(2716.390625 0)"/>
     </g>
    </g>
    <g id="patch_12">
     <path d="M 29.390781 240.097433 
L 44.390781 240.097433 
L 44.390781 234.847433 
L 29.390781 234.847433 
z
" style="fill: #f5e6d0; opacity: 0.7"/>
    </g>
    <g id="text_20">
     <!-- Stochastic / implicit (HMC, amortized VI, score matching) -->
     <g transform="translate(50.390781 240.097433) scale(0.075 -0.075)">
      <use xlink:href="#DejaVuSans-36"/>
      <use xlink:href="#DejaVuSans-57" transform="translate(63.484375 0)"/>
      <use xlink:href="#DejaVuSans-52" transform="translate(102.6875 0)"/>
      <use xlink:href="#DejaVuSans-46" transform="translate(163.875 0)"/>
      <use xlink:href="#DejaVuSans-4b" transform="translate(218.859375 0)"/>
      <use xlink:href="#DejaVuSans-44" transform="translate(282.234375 0)"/>
      <use xlink:href="#DejaVuSans-56" transform="translate(343.515625 0)"/>
      <use xlink:href="#DejaVuSans-57" transform="translate(395.609375 0)"/>
      <use xlink:href="#DejaVuSans-4c" transform="translate(434.8125 0)"/>
      <use xlink:href="#DejaVuSans-46" transform="translate(462.59375 0)"/>
      <use xlink:href="#DejaVuSans-3" transform="translate(517.578125 0)"/>
      <use xlink:href="#DejaVuSans-12" transform="translate(549.359375 0)"/>
      <use xlink:href="#DejaVuSans-3" transform="translate(583.046875 0)"/>
      <use xlink:href="#DejaVuSans-4c" transform="translate(614.828125 0)"/>
      <use xlink:href="#DejaVuSans-50" transform="translate(642.609375 0)"/>
      <use xlink:href="#DejaVuSans-53" transform="translate(740.015625 0)"/>
      <use xlink:href="#DejaVuSans-4f" transform="translate(803.5 0)"/>
      <use xlink:href="#DejaVuSans-4c" transform="translate(831.28125 0)"/>
      <use xlink:href="#DejaVuSans-46" transform="translate(859.0625 0)"/>
      <use xlink:href="#DejaVuSans-4c" transform="translate(914.046875 0)"/>
      <use xlink:href="#DejaVuSans-57" transform="translate(941.828125 0)"/>
      <use xlink:href="#DejaVuSans-3" transform="translate(981.03125 0)"/>
      <use xlink:href="#DejaVuSans-b" transform="translate(1012.8125 0)"/>
      <use xlink:href="#DejaVuSans-2b" transform="translate(1051.828125 0)"/>
      <use xlink:href="#DejaVuSans-30" transform="translate(1127.03125 0)"/>
      <use xlink:href="#DejaVuSans-26" transform="translate(1213.3125 0)"/>
      <use xlink:href="#DejaVuSans-f" transform="translate(1283.140625 0)"/>
      <use xlink:href="#DejaVuSans-3" transform="translate(1314.921875 0)"/>
      <use xlink:href="#DejaVuSans-44" transform="translate(1346.703125 0)"/>
      <use xlink:href="#DejaVuSans-50" transform="translate(1407.984375 0)"/>
      <use xlink:href="#DejaVuSans-52" transform="translate(1505.390625 0)"/>
      <use xlink:href="#DejaVuSans-55" transform="translate(1566.578125 0)"/>
      <use xlink:href="#DejaVuSans-57" transform="translate(1607.6875 0)"/>
      <use xlink:href="#DejaVuSans-4c" transform="translate(1646.890625 0)"/>
      <use xlink:href="#DejaVuSans-5d" transform="translate(1674.671875 0)"/>
      <use xlink:href="#DejaVuSans-48" transform="translate(1727.15625 0)"/>
      <use xlink:href="#DejaVuSans-47" transform="translate(1788.6875 0)"/>
      <use xlink:href="#DejaVuSans-3" transform="translate(1852.171875 0)"/>
      <use xlink:href="#DejaVuSans-39" transform="translate(1883.953125 0)"/>
      <use xlink:href="#DejaVuSans-2c" transform="translate(1952.359375 0)"/>
      <use xlink:href="#DejaVuSans-f" transform="translate(1981.859375 0)"/>
      <use xlink:href="#DejaVuSans-3" transform="translate(2013.640625 0)"/>
      <use xlink:href="#DejaVuSans-56" transform="translate(2045.421875 0)"/>
      <use xlink:href="#DejaVuSans-46" transform="translate(2097.515625 0)"/>
      <use xlink:href="#DejaVuSans-52" transform="translate(2152.5 0)"/>
      <use xlink:href="#DejaVuSans-55" transform="translate(2213.6875 0)"/>
      <use xlink:href="#DejaVuSans-48" transform="translate(2252.59375 0)"/>
      <use xlink:href="#DejaVuSans-3" transform="translate(2314.125 0)"/>
      <use xlink:href="#DejaVuSans-50" transform="translate(2345.90625 0)"/>
      <use xlink:href="#DejaVuSans-44" transform="translate(2443.3125 0)"/>
      <use xlink:href="#DejaVuSans-57" transform="translate(2504.59375 0)"/>
      <use xlink:href="#DejaVuSans-46" transform="translate(2543.796875 0)"/>
      <use xlink:href="#DejaVuSans-4b" transform="translate(2598.78125 0)"/>
      <use xlink:href="#DejaVuSans-4c" transform="translate(2662.15625 0)"/>
      <use xlink:href="#DejaVuSans-51" transform="translate(2689.9375 0)"/>
      <use xlink:href="#DejaVuSans-4a" transform="translate(2753.3125 0)"/>
      <use xlink:href="#DejaVuSans-c" transform="translate(2816.796875 0)"/>
     </g>
    </g>
   </g>
  </g>
 </g>
 <defs>
  <clipPath id="pd17977c7b7">
   <rect x="22.640781" y="22.998281" width="608.186909" height="225.650909"/>
  </clipPath>
 </defs>
</svg>
