<?xml version="1.0" encoding="utf-8" standalone="no"?>
<!DOCTYPE svg PUBLIC "-//W3C//DTD SVG 1.1//EN"
  "http://www.w3.org/Graphics/SVG/1.1/DTD/svg11.dtd">
<svg xmlns:xlink="http://www.w3.org/1999/xlink" width="664.78112pt" height="301.298125pt" viewBox="0 0 664.78112 301.298125" xmlns="http://www.w3.org/2000/svg" version="1.1">
 <metadata>
  <rdf:RDF xmlns:dc="http://purl.org/dc/elements/1.1/" xmlns:cc="http://creativecommons.org/ns#" xmlns:rdf="http://www.w3.org/1999/02/22-rdf-syntax-ns#">
   <cc:Work>
    <dc:type rdf:resource="http://purl.org/dc/dcmitype/StillImage"/>
    <dc:date>2026-05-29T17:50:47.555516</dc:date>
    <dc:format>image/svg+xml</dc:format>
    <dc:creator>
     <cc:Agent>
      <dc:title>Matplotlib v3.10.9, https://matplotlib.org/</dc:title>
     </cc:Agent>
    </dc:creator>
   </cc:Work>
  </rdf:RDF>
 </metadata>
 <defs>
  <style type="text/css">*{stroke-linejoin: round; stroke-linecap: butt}</style>
 </defs>
 <g id="figure_1">
  <g id="patch_1">
   <path d="M 0 301.298125 
L 664.78112 301.298125 
L 664.78112 0 
L 0 0 
z
" style="fill: #ffffff"/>
  </g>
  <g id="axes_1">
   <g id="patch_2">
    <path d="M 54.20875 264.438437 
L 647.18362 264.438437 
L 647.18362 17.198437 
L 54.20875 17.198437 
z
" style="fill: #ffffff"/>
   </g>
   <g id="matplotlib.axis_1">
    <g id="xtick_1">
     <g id="line2d_1">
      <path d="M 131.553298 264.438437 
L 131.553298 17.198437 
" clip-path="url(#pddf45711ee)" style="fill: none; stroke-dasharray: 0.8,1.32; stroke-dashoffset: 0; stroke: #b0b0b0; stroke-opacity: 0.3; stroke-width: 0.8"/>
     </g>
     <g id="line2d_2">
      <defs>
       <path id="mf001aab0a9" d="M 0 0 
L 0 3.5 
" style="stroke: #000000; stroke-width: 0.8"/>
      </defs>
      <g>
       <use xlink:href="#mf001aab0a9" x="131.553298" y="264.438437" style="stroke: #000000; stroke-width: 0.8"/>
      </g>
     </g>
     <g id="text_1">
      <!-- 1995 -->
      <g transform="translate(117.555798 279.796719) scale(0.11 -0.11)">
       <defs>
        <path id="DejaVuSerif-31" d="M 909 0 
L 909 331 
L 1722 331 
L 1722 4213 
L 781 3603 
L 781 4013 
L 1919 4750 
L 2350 4750 
L 2350 331 
L 3163 331 
L 3163 0 
L 909 0 
z
" transform="scale(0.015625)"/>
        <path id="DejaVuSerif-39" d="M 2994 2091 
Q 2784 1856 2512 1740 
Q 2241 1625 1900 1625 
Q 1206 1625 804 2044 
Q 403 2463 403 3188 
Q 403 3897 839 4323 
Q 1275 4750 2003 4750 
Q 2794 4750 3217 4161 
Q 3641 3572 3641 2478 
Q 3641 1253 3137 581 
Q 2634 -91 1722 -91 
Q 1475 -91 1203 -44 
Q 931 3 647 97 
L 647 872 
L 997 872 
Q 1038 556 1241 387 
Q 1444 219 1784 219 
Q 2391 219 2687 676 
Q 2984 1134 2994 2091 
z
M 1978 4441 
Q 1534 4441 1298 4117 
Q 1063 3794 1063 3188 
Q 1063 2581 1298 2256 
Q 1534 1931 1978 1931 
Q 2422 1931 2658 2245 
Q 2894 2559 2894 3150 
Q 2894 3772 2656 4106 
Q 2419 4441 1978 4441 
z
" transform="scale(0.015625)"/>
        <path id="DejaVuSerif-35" d="M 3219 4666 
L 3219 4153 
L 1081 4153 
L 1081 2816 
Q 1244 2928 1461 2984 
Q 1678 3041 1947 3041 
Q 2703 3041 3140 2622 
Q 3578 2203 3578 1478 
Q 3578 738 3136 323 
Q 2694 -91 1894 -91 
Q 1572 -91 1234 -12 
Q 897 66 544 225 
L 544 1131 
L 897 1131 
Q 925 688 1179 453 
Q 1434 219 1894 219 
Q 2388 219 2653 544 
Q 2919 869 2919 1478 
Q 2919 2084 2655 2407 
Q 2391 2731 1894 2731 
Q 1613 2731 1398 2631 
Q 1184 2531 1019 2322 
L 750 2322 
L 750 4666 
L 3219 4666 
z
" transform="scale(0.015625)"/>
       </defs>
       <use xlink:href="#DejaVuSerif-31"/>
       <use xlink:href="#DejaVuSerif-39" transform="translate(63.623047 0)"/>
       <use xlink:href="#DejaVuSerif-39" transform="translate(127.246094 0)"/>
       <use xlink:href="#DejaVuSerif-35" transform="translate(190.869141 0)"/>
      </g>
     </g>
    </g>
    <g id="xtick_2">
     <g id="line2d_3">
      <path d="M 217.491685 264.438437 
L 217.491685 17.198437 
" clip-path="url(#pddf45711ee)" style="fill: none; stroke-dasharray: 0.8,1.32; stroke-dashoffset: 0; stroke: #b0b0b0; stroke-opacity: 0.3; stroke-width: 0.8"/>
     </g>
     <g id="line2d_4">
      <g>
       <use xlink:href="#mf001aab0a9" x="217.491685" y="264.438437" style="stroke: #000000; stroke-width: 0.8"/>
      </g>
     </g>
     <g id="text_2">
      <!-- 2000 -->
      <g transform="translate(203.494185 279.796719) scale(0.11 -0.11)">
       <defs>
        <path id="DejaVuSerif-32" d="M 819 3553 
L 469 3553 
L 469 4384 
Q 803 4563 1142 4656 
Q 1481 4750 1806 4750 
Q 2534 4750 2956 4397 
Q 3378 4044 3378 3438 
Q 3378 2753 2422 1800 
Q 2347 1728 2309 1691 
L 1131 513 
L 3078 513 
L 3078 1088 
L 3444 1088 
L 3444 0 
L 434 0 
L 434 341 
L 1850 1753 
Q 2319 2222 2519 2614 
Q 2719 3006 2719 3438 
Q 2719 3909 2473 4175 
Q 2228 4441 1797 4441 
Q 1350 4441 1106 4219 
Q 863 3997 819 3553 
z
" transform="scale(0.015625)"/>
        <path id="DejaVuSerif-30" d="M 2034 219 
Q 2513 219 2750 744 
Q 2988 1269 2988 2328 
Q 2988 3391 2750 3916 
Q 2513 4441 2034 4441 
Q 1556 4441 1318 3916 
Q 1081 3391 1081 2328 
Q 1081 1269 1318 744 
Q 1556 219 2034 219 
z
M 2034 -91 
Q 1275 -91 848 546 
Q 422 1184 422 2328 
Q 422 3475 848 4112 
Q 1275 4750 2034 4750 
Q 2797 4750 3222 4112 
Q 3647 3475 3647 2328 
Q 3647 1184 3222 546 
Q 2797 -91 2034 -91 
z
" transform="scale(0.015625)"/>
       </defs>
       <use xlink:href="#DejaVuSerif-32"/>
       <use xlink:href="#DejaVuSerif-30" transform="translate(63.623047 0)"/>
       <use xlink:href="#DejaVuSerif-30" transform="translate(127.246094 0)"/>
       <use xlink:href="#DejaVuSerif-30" transform="translate(190.869141 0)"/>
      </g>
     </g>
    </g>
    <g id="xtick_3">
     <g id="line2d_5">
      <path d="M 303.430072 264.438437 
L 303.430072 17.198437 
" clip-path="url(#pddf45711ee)" style="fill: none; stroke-dasharray: 0.8,1.32; stroke-dashoffset: 0; stroke: #b0b0b0; stroke-opacity: 0.3; stroke-width: 0.8"/>
     </g>
     <g id="line2d_6">
      <g>
       <use xlink:href="#mf001aab0a9" x="303.430072" y="264.438437" style="stroke: #000000; stroke-width: 0.8"/>
      </g>
     </g>
     <g id="text_3">
      <!-- 2005 -->
      <g transform="translate(289.432572 279.796719) scale(0.11 -0.11)">
       <use xlink:href="#DejaVuSerif-32"/>
       <use xlink:href="#DejaVuSerif-30" transform="translate(63.623047 0)"/>
       <use xlink:href="#DejaVuSerif-30" transform="translate(127.246094 0)"/>
       <use xlink:href="#DejaVuSerif-35" transform="translate(190.869141 0)"/>
      </g>
     </g>
    </g>
    <g id="xtick_4">
     <g id="line2d_7">
      <path d="M 389.368459 264.438437 
L 389.368459 17.198437 
" clip-path="url(#pddf45711ee)" style="fill: none; stroke-dasharray: 0.8,1.32; stroke-dashoffset: 0; stroke: #b0b0b0; stroke-opacity: 0.3; stroke-width: 0.8"/>
     </g>
     <g id="line2d_8">
      <g>
       <use xlink:href="#mf001aab0a9" x="389.368459" y="264.438437" style="stroke: #000000; stroke-width: 0.8"/>
      </g>
     </g>
     <g id="text_4">
      <!-- 2010 -->
      <g transform="translate(375.370959 279.796719) scale(0.11 -0.11)">
       <use xlink:href="#DejaVuSerif-32"/>
       <use xlink:href="#DejaVuSerif-30" transform="translate(63.623047 0)"/>
       <use xlink:href="#DejaVuSerif-31" transform="translate(127.246094 0)"/>
       <use xlink:href="#DejaVuSerif-30" transform="translate(190.869141 0)"/>
      </g>
     </g>
    </g>
    <g id="xtick_5">
     <g id="line2d_9">
      <path d="M 475.306846 264.438437 
L 475.306846 17.198437 
" clip-path="url(#pddf45711ee)" style="fill: none; stroke-dasharray: 0.8,1.32; stroke-dashoffset: 0; stroke: #b0b0b0; stroke-opacity: 0.3; stroke-width: 0.8"/>
     </g>
     <g id="line2d_10">
      <g>
       <use xlink:href="#mf001aab0a9" x="475.306846" y="264.438437" style="stroke: #000000; stroke-width: 0.8"/>
      </g>
     </g>
     <g id="text_5">
      <!-- 2015 -->
      <g transform="translate(461.309346 279.796719) scale(0.11 -0.11)">
       <use xlink:href="#DejaVuSerif-32"/>
       <use xlink:href="#DejaVuSerif-30" transform="translate(63.623047 0)"/>
       <use xlink:href="#DejaVuSerif-31" transform="translate(127.246094 0)"/>
       <use xlink:href="#DejaVuSerif-35" transform="translate(190.869141 0)"/>
      </g>
     </g>
    </g>
    <g id="xtick_6">
     <g id="line2d_11">
      <path d="M 561.245233 264.438437 
L 561.245233 17.198437 
" clip-path="url(#pddf45711ee)" style="fill: none; stroke-dasharray: 0.8,1.32; stroke-dashoffset: 0; stroke: #b0b0b0; stroke-opacity: 0.3; stroke-width: 0.8"/>
     </g>
     <g id="line2d_12">
      <g>
       <use xlink:href="#mf001aab0a9" x="561.245233" y="264.438437" style="stroke: #000000; stroke-width: 0.8"/>
      </g>
     </g>
     <g id="text_6">
      <!-- 2020 -->
      <g transform="translate(547.247733 279.796719) scale(0.11 -0.11)">
       <use xlink:href="#DejaVuSerif-32"/>
       <use xlink:href="#DejaVuSerif-30" transform="translate(63.623047 0)"/>
       <use xlink:href="#DejaVuSerif-32" transform="translate(127.246094 0)"/>
       <use xlink:href="#DejaVuSerif-30" transform="translate(190.869141 0)"/>
      </g>
     </g>
    </g>
    <g id="xtick_7">
     <g id="line2d_13">
      <path d="M 647.18362 264.438437 
L 647.18362 17.198437 
" clip-path="url(#pddf45711ee)" style="fill: none; stroke-dasharray: 0.8,1.32; stroke-dashoffset: 0; stroke: #b0b0b0; stroke-opacity: 0.3; stroke-width: 0.8"/>
     </g>
     <g id="line2d_14">
      <g>
       <use xlink:href="#mf001aab0a9" x="647.18362" y="264.438437" style="stroke: #000000; stroke-width: 0.8"/>
      </g>
     </g>
     <g id="text_7">
      <!-- 2025 -->
      <g transform="translate(633.18612 279.796719) scale(0.11 -0.11)">
       <use xlink:href="#DejaVuSerif-32"/>
       <use xlink:href="#DejaVuSerif-30" transform="translate(63.623047 0)"/>
       <use xlink:href="#DejaVuSerif-32" transform="translate(127.246094 0)"/>
       <use xlink:href="#DejaVuSerif-35" transform="translate(190.869141 0)"/>
      </g>
     </g>
    </g>
    <g id="text_8">
     <!-- year -->
     <g transform="translate(337.309622 295.031875) scale(0.12 -0.12)">
      <defs>
       <path id="DejaVuSerif-79" d="M 1381 -609 
L 1600 -56 
L 359 2988 
L -19 2988 
L -19 3322 
L 1509 3322 
L 1509 2988 
L 978 2988 
L 1913 703 
L 2847 2988 
L 2350 2988 
L 2350 3322 
L 3597 3322 
L 3597 2988 
L 3225 2988 
L 1703 -750 
Q 1547 -1138 1356 -1280 
Q 1166 -1422 819 -1422 
Q 672 -1422 517 -1397 
Q 363 -1372 206 -1325 
L 206 -691 
L 500 -691 
Q 519 -903 608 -995 
Q 697 -1088 884 -1088 
Q 1056 -1088 1161 -992 
Q 1266 -897 1381 -609 
z
" transform="scale(0.015625)"/>
       <path id="DejaVuSerif-65" d="M 3469 1600 
L 991 1600 
L 991 1575 
Q 991 903 1244 561 
Q 1497 219 1991 219 
Q 2369 219 2611 417 
Q 2853 616 2950 1006 
L 3413 1006 
Q 3275 459 2904 184 
Q 2534 -91 1931 -91 
Q 1203 -91 761 389 
Q 319 869 319 1663 
Q 319 2450 753 2931 
Q 1188 3413 1894 3413 
Q 2647 3413 3050 2948 
Q 3453 2484 3469 1600 
z
M 2791 1931 
Q 2772 2513 2545 2808 
Q 2319 3103 1894 3103 
Q 1497 3103 1269 2806 
Q 1041 2509 991 1931 
L 2791 1931 
z
" transform="scale(0.015625)"/>
       <path id="DejaVuSerif-61" d="M 2547 1044 
L 2547 1747 
L 1806 1747 
Q 1378 1747 1168 1562 
Q 959 1378 959 997 
Q 959 650 1171 447 
Q 1384 244 1747 244 
Q 2106 244 2326 466 
Q 2547 688 2547 1044 
z
M 3122 2075 
L 3122 331 
L 3634 331 
L 3634 0 
L 2547 0 
L 2547 359 
Q 2356 128 2106 18 
Q 1856 -91 1522 -91 
Q 969 -91 644 203 
Q 319 497 319 997 
Q 319 1513 691 1797 
Q 1063 2081 1741 2081 
L 2547 2081 
L 2547 2309 
Q 2547 2688 2317 2895 
Q 2088 3103 1672 3103 
Q 1328 3103 1125 2947 
Q 922 2791 872 2484 
L 575 2484 
L 575 3156 
Q 875 3284 1158 3348 
Q 1441 3413 1709 3413 
Q 2400 3413 2761 3070 
Q 3122 2728 3122 2075 
z
" transform="scale(0.015625)"/>
       <path id="DejaVuSerif-72" d="M 3059 3328 
L 3059 2497 
L 2728 2497 
Q 2713 2744 2591 2866 
Q 2469 2988 2234 2988 
Q 1809 2988 1582 2694 
Q 1356 2400 1356 1850 
L 1356 331 
L 2022 331 
L 2022 0 
L 263 0 
L 263 331 
L 781 331 
L 781 2994 
L 231 2994 
L 231 3322 
L 1356 3322 
L 1356 2731 
Q 1525 3078 1790 3245 
Q 2056 3413 2438 3413 
Q 2578 3413 2733 3391 
Q 2888 3369 3059 3328 
z
" transform="scale(0.015625)"/>
      </defs>
      <use xlink:href="#DejaVuSerif-79"/>
      <use xlink:href="#DejaVuSerif-65" transform="translate(56.494141 0)"/>
      <use xlink:href="#DejaVuSerif-61" transform="translate(115.673828 0)"/>
      <use xlink:href="#DejaVuSerif-72" transform="translate(175.292969 0)"/>
     </g>
    </g>
   </g>
   <g id="matplotlib.axis_2">
    <g id="ytick_1">
     <g id="line2d_15">
      <path d="M 54.20875 255.2814 
L 647.18362 255.2814 
" clip-path="url(#pddf45711ee)" style="fill: none; stroke-dasharray: 0.8,1.32; stroke-dashoffset: 0; stroke: #b0b0b0; stroke-opacity: 0.3; stroke-width: 0.8"/>
     </g>
     <g id="line2d_16">
      <defs>
       <path id="m855f1c6345" d="M 0 0 
L -3.5 0 
" style="stroke: #000000; stroke-width: 0.8"/>
      </defs>
      <g>
       <use xlink:href="#m855f1c6345" x="54.20875" y="255.2814" style="stroke: #000000; stroke-width: 0.8"/>
      </g>
     </g>
     <g id="text_9">
      <!-- 0 -->
      <g transform="translate(40.21 259.460541) scale(0.11 -0.11)">
       <use xlink:href="#DejaVuSerif-30"/>
      </g>
     </g>
    </g>
    <g id="ytick_2">
     <g id="line2d_17">
      <path d="M 54.20875 209.496215 
L 647.18362 209.496215 
" clip-path="url(#pddf45711ee)" style="fill: none; stroke-dasharray: 0.8,1.32; stroke-dashoffset: 0; stroke: #b0b0b0; stroke-opacity: 0.3; stroke-width: 0.8"/>
     </g>
     <g id="line2d_18">
      <g>
       <use xlink:href="#m855f1c6345" x="54.20875" y="209.496215" style="stroke: #000000; stroke-width: 0.8"/>
      </g>
     </g>
     <g id="text_10">
      <!-- 1000 -->
      <g transform="translate(19.21375 213.675356) scale(0.11 -0.11)">
       <use xlink:href="#DejaVuSerif-31"/>
       <use xlink:href="#DejaVuSerif-30" transform="translate(63.623047 0)"/>
       <use xlink:href="#DejaVuSerif-30" transform="translate(127.246094 0)"/>
       <use xlink:href="#DejaVuSerif-30" transform="translate(190.869141 0)"/>
      </g>
     </g>
    </g>
    <g id="ytick_3">
     <g id="line2d_19">
      <path d="M 54.20875 163.71103 
L 647.18362 163.71103 
" clip-path="url(#pddf45711ee)" style="fill: none; stroke-dasharray: 0.8,1.32; stroke-dashoffset: 0; stroke: #b0b0b0; stroke-opacity: 0.3; stroke-width: 0.8"/>
     </g>
     <g id="line2d_20">
      <g>
       <use xlink:href="#m855f1c6345" x="54.20875" y="163.71103" style="stroke: #000000; stroke-width: 0.8"/>
      </g>
     </g>
     <g id="text_11">
      <!-- 2000 -->
      <g transform="translate(19.21375 167.890171) scale(0.11 -0.11)">
       <use xlink:href="#DejaVuSerif-32"/>
       <use xlink:href="#DejaVuSerif-30" transform="translate(63.623047 0)"/>
       <use xlink:href="#DejaVuSerif-30" transform="translate(127.246094 0)"/>
       <use xlink:href="#DejaVuSerif-30" transform="translate(190.869141 0)"/>
      </g>
     </g>
    </g>
    <g id="ytick_4">
     <g id="line2d_21">
      <path d="M 54.20875 117.925845 
L 647.18362 117.925845 
" clip-path="url(#pddf45711ee)" style="fill: none; stroke-dasharray: 0.8,1.32; stroke-dashoffset: 0; stroke: #b0b0b0; stroke-opacity: 0.3; stroke-width: 0.8"/>
     </g>
     <g id="line2d_22">
      <g>
       <use xlink:href="#m855f1c6345" x="54.20875" y="117.925845" style="stroke: #000000; stroke-width: 0.8"/>
      </g>
     </g>
     <g id="text_12">
      <!-- 3000 -->
      <g transform="translate(19.21375 122.104986) scale(0.11 -0.11)">
       <defs>
        <path id="DejaVuSerif-33" d="M 622 4469 
Q 988 4606 1323 4678 
Q 1659 4750 1953 4750 
Q 2638 4750 3022 4454 
Q 3406 4159 3406 3634 
Q 3406 3213 3140 2930 
Q 2875 2647 2388 2547 
Q 2963 2466 3280 2130 
Q 3597 1794 3597 1259 
Q 3597 606 3158 257 
Q 2719 -91 1894 -91 
Q 1528 -91 1179 -12 
Q 831 66 488 225 
L 488 1131 
L 838 1131 
Q 869 681 1141 450 
Q 1413 219 1906 219 
Q 2384 219 2661 495 
Q 2938 772 2938 1253 
Q 2938 1803 2653 2086 
Q 2369 2369 1819 2369 
L 1522 2369 
L 1522 2688 
L 1678 2688 
Q 2225 2688 2498 2914 
Q 2772 3141 2772 3597 
Q 2772 4006 2547 4223 
Q 2322 4441 1900 4441 
Q 1478 4441 1245 4241 
Q 1013 4041 972 3647 
L 622 3647 
L 622 4469 
z
" transform="scale(0.015625)"/>
       </defs>
       <use xlink:href="#DejaVuSerif-33"/>
       <use xlink:href="#DejaVuSerif-30" transform="translate(63.623047 0)"/>
       <use xlink:href="#DejaVuSerif-30" transform="translate(127.246094 0)"/>
       <use xlink:href="#DejaVuSerif-30" transform="translate(190.869141 0)"/>
      </g>
     </g>
    </g>
    <g id="ytick_5">
     <g id="line2d_23">
      <path d="M 54.20875 72.14066 
L 647.18362 72.14066 
" clip-path="url(#pddf45711ee)" style="fill: none; stroke-dasharray: 0.8,1.32; stroke-dashoffset: 0; stroke: #b0b0b0; stroke-opacity: 0.3; stroke-width: 0.8"/>
     </g>
     <g id="line2d_24">
      <g>
       <use xlink:href="#m855f1c6345" x="54.20875" y="72.14066" style="stroke: #000000; stroke-width: 0.8"/>
      </g>
     </g>
     <g id="text_13">
      <!-- 4000 -->
      <g transform="translate(19.21375 76.3198) scale(0.11 -0.11)">
       <defs>
        <path id="DejaVuSerif-34" d="M 2234 1581 
L 2234 4063 
L 641 1581 
L 2234 1581 
z
M 3609 0 
L 1484 0 
L 1484 331 
L 2234 331 
L 2234 1247 
L 197 1247 
L 197 1588 
L 2241 4750 
L 2859 4750 
L 2859 1581 
L 3750 1581 
L 3750 1247 
L 2859 1247 
L 2859 331 
L 3609 331 
L 3609 0 
z
" transform="scale(0.015625)"/>
       </defs>
       <use xlink:href="#DejaVuSerif-34"/>
       <use xlink:href="#DejaVuSerif-30" transform="translate(63.623047 0)"/>
       <use xlink:href="#DejaVuSerif-30" transform="translate(127.246094 0)"/>
       <use xlink:href="#DejaVuSerif-30" transform="translate(190.869141 0)"/>
      </g>
     </g>
    </g>
    <g id="ytick_6">
     <g id="line2d_25">
      <path d="M 54.20875 26.355475 
L 647.18362 26.355475 
" clip-path="url(#pddf45711ee)" style="fill: none; stroke-dasharray: 0.8,1.32; stroke-dashoffset: 0; stroke: #b0b0b0; stroke-opacity: 0.3; stroke-width: 0.8"/>
     </g>
     <g id="line2d_26">
      <g>
       <use xlink:href="#m855f1c6345" x="54.20875" y="26.355475" style="stroke: #000000; stroke-width: 0.8"/>
      </g>
     </g>
     <g id="text_14">
      <!-- 5000 -->
      <g transform="translate(19.21375 30.534615) scale(0.11 -0.11)">
       <use xlink:href="#DejaVuSerif-35"/>
       <use xlink:href="#DejaVuSerif-30" transform="translate(63.623047 0)"/>
       <use xlink:href="#DejaVuSerif-30" transform="translate(127.246094 0)"/>
       <use xlink:href="#DejaVuSerif-30" transform="translate(190.869141 0)"/>
      </g>
     </g>
    </g>
    <g id="text_15">
     <!-- Atari median HNS (%) -->
     <g transform="translate(12.718125 208.960625) rotate(-90) scale(0.12 -0.12)">
      <defs>
       <path id="DejaVuSerif-41" d="M 1281 1691 
L 2994 1691 
L 2138 3909 
L 1281 1691 
z
M -38 0 
L -38 331 
L 372 331 
L 2034 4666 
L 2559 4666 
L 4225 331 
L 4684 331 
L 4684 0 
L 2988 0 
L 2988 331 
L 3506 331 
L 3116 1356 
L 1153 1356 
L 763 331 
L 1275 331 
L 1275 0 
L -38 0 
z
" transform="scale(0.015625)"/>
       <path id="DejaVuSerif-74" d="M 691 2988 
L 184 2988 
L 184 3322 
L 691 3322 
L 691 4353 
L 1269 4353 
L 1269 3322 
L 2350 3322 
L 2350 2988 
L 1269 2988 
L 1269 878 
Q 1269 456 1350 337 
Q 1431 219 1650 219 
Q 1875 219 1978 351 
Q 2081 484 2088 781 
L 2522 781 
Q 2497 328 2275 118 
Q 2053 -91 1600 -91 
Q 1103 -91 897 129 
Q 691 350 691 878 
L 691 2988 
z
" transform="scale(0.015625)"/>
       <path id="DejaVuSerif-69" d="M 622 4353 
Q 622 4497 726 4603 
Q 831 4709 978 4709 
Q 1122 4709 1226 4603 
Q 1331 4497 1331 4353 
Q 1331 4206 1228 4103 
Q 1125 4000 978 4000 
Q 831 4000 726 4103 
Q 622 4206 622 4353 
z
M 1356 331 
L 1900 331 
L 1900 0 
L 231 0 
L 231 331 
L 781 331 
L 781 2988 
L 231 2988 
L 231 3322 
L 1356 3322 
L 1356 331 
z
" transform="scale(0.015625)"/>
       <path id="DejaVuSerif-20" transform="scale(0.015625)"/>
       <path id="DejaVuSerif-6d" d="M 3316 2675 
Q 3481 3041 3739 3227 
Q 3997 3413 4341 3413 
Q 4863 3413 5119 3089 
Q 5375 2766 5375 2113 
L 5375 331 
L 5894 331 
L 5894 0 
L 4300 0 
L 4300 331 
L 4800 331 
L 4800 2047 
Q 4800 2556 4650 2772 
Q 4500 2988 4153 2988 
Q 3769 2988 3567 2697 
Q 3366 2406 3366 1850 
L 3366 331 
L 3866 331 
L 3866 0 
L 2291 0 
L 2291 331 
L 2791 331 
L 2791 2069 
Q 2791 2566 2641 2777 
Q 2491 2988 2144 2988 
Q 1759 2988 1557 2697 
Q 1356 2406 1356 1850 
L 1356 331 
L 1856 331 
L 1856 0 
L 263 0 
L 263 331 
L 781 331 
L 781 2994 
L 231 2994 
L 231 3322 
L 1356 3322 
L 1356 2731 
Q 1516 3063 1762 3238 
Q 2009 3413 2322 3413 
Q 2709 3413 2968 3220 
Q 3228 3028 3316 2675 
z
" transform="scale(0.015625)"/>
       <path id="DejaVuSerif-64" d="M 3359 331 
L 3909 331 
L 3909 0 
L 2784 0 
L 2784 519 
Q 2616 206 2355 57 
Q 2094 -91 1709 -91 
Q 1097 -91 708 395 
Q 319 881 319 1663 
Q 319 2444 706 2928 
Q 1094 3413 1709 3413 
Q 2094 3413 2355 3264 
Q 2616 3116 2784 2803 
L 2784 4531 
L 2241 4531 
L 2241 4863 
L 3359 4863 
L 3359 331 
z
M 2784 1497 
L 2784 1825 
Q 2784 2422 2554 2737 
Q 2325 3053 1888 3053 
Q 1444 3053 1217 2703 
Q 991 2353 991 1663 
Q 991 975 1217 622 
Q 1444 269 1888 269 
Q 2325 269 2554 583 
Q 2784 897 2784 1497 
z
" transform="scale(0.015625)"/>
       <path id="DejaVuSerif-6e" d="M 263 0 
L 263 331 
L 781 331 
L 781 2988 
L 231 2988 
L 231 3322 
L 1356 3322 
L 1356 2731 
Q 1516 3069 1770 3241 
Q 2025 3413 2363 3413 
Q 2913 3413 3172 3097 
Q 3431 2781 3431 2113 
L 3431 331 
L 3944 331 
L 3944 0 
L 2356 0 
L 2356 331 
L 2853 331 
L 2853 1931 
Q 2853 2541 2703 2767 
Q 2553 2994 2175 2994 
Q 1775 2994 1565 2701 
Q 1356 2409 1356 1850 
L 1356 331 
L 1856 331 
L 1856 0 
L 263 0 
z
" transform="scale(0.015625)"/>
       <path id="DejaVuSerif-48" d="M 353 0 
L 353 331 
L 947 331 
L 947 4331 
L 353 4331 
L 353 4666 
L 2175 4666 
L 2175 4331 
L 1581 4331 
L 1581 2719 
L 4000 2719 
L 4000 4331 
L 3406 4331 
L 3406 4666 
L 5228 4666 
L 5228 4331 
L 4634 4331 
L 4634 331 
L 5228 331 
L 5228 0 
L 3406 0 
L 3406 331 
L 4000 331 
L 4000 2338 
L 1581 2338 
L 1581 331 
L 2175 331 
L 2175 0 
L 353 0 
z
" transform="scale(0.015625)"/>
       <path id="DejaVuSerif-4e" d="M 313 0 
L 313 331 
L 941 331 
L 941 4331 
L 313 4331 
L 313 4666 
L 1509 4666 
L 4306 984 
L 4306 4331 
L 3681 4331 
L 3681 4666 
L 5319 4666 
L 5319 4331 
L 4691 4331 
L 4691 -91 
L 4313 -91 
L 1325 3841 
L 1325 331 
L 1953 331 
L 1953 0 
L 313 0 
z
" transform="scale(0.015625)"/>
       <path id="DejaVuSerif-53" d="M 594 225 
L 594 1288 
L 953 1284 
Q 969 753 1261 498 
Q 1553 244 2150 244 
Q 2706 244 2998 464 
Q 3291 684 3291 1106 
Q 3291 1444 3114 1625 
Q 2938 1806 2369 1978 
L 1753 2163 
Q 1084 2366 811 2669 
Q 538 2972 538 3500 
Q 538 4094 959 4422 
Q 1381 4750 2144 4750 
Q 2469 4750 2856 4679 
Q 3244 4609 3681 4475 
L 3681 3481 
L 3328 3481 
Q 3275 3975 2998 4195 
Q 2722 4416 2156 4416 
Q 1663 4416 1405 4214 
Q 1147 4013 1147 3628 
Q 1147 3294 1340 3103 
Q 1534 2913 2163 2725 
L 2741 2553 
Q 3375 2363 3645 2067 
Q 3916 1772 3916 1275 
Q 3916 597 3481 253 
Q 3047 -91 2188 -91 
Q 1803 -91 1404 -12 
Q 1006 66 594 225 
z
" transform="scale(0.015625)"/>
       <path id="DejaVuSerif-28" d="M 2041 -997 
Q 1281 -656 893 83 
Q 506 822 506 1931 
Q 506 3044 893 3783 
Q 1281 4522 2041 4863 
L 2041 4556 
Q 1559 4225 1350 3623 
Q 1141 3022 1141 1931 
Q 1141 844 1350 242 
Q 1559 -359 2041 -691 
L 2041 -997 
z
" transform="scale(0.015625)"/>
       <path id="DejaVuSerif-25" d="M 1434 4459 
Q 1159 4459 1004 4200 
Q 850 3941 850 3475 
Q 850 3016 1008 2753 
Q 1166 2491 1434 2491 
Q 1700 2491 1854 2752 
Q 2009 3013 2009 3475 
Q 2009 3938 1854 4198 
Q 1700 4459 1434 4459 
z
M 4653 2169 
Q 4381 2169 4226 1906 
Q 4072 1644 4072 1178 
Q 4072 719 4228 458 
Q 4384 197 4653 197 
Q 4922 197 5075 458 
Q 5228 719 5228 1178 
Q 5228 1641 5073 1905 
Q 4919 2169 4653 2169 
z
M 4653 2450 
Q 5147 2450 5437 2106 
Q 5728 1763 5728 1178 
Q 5728 594 5436 251 
Q 5144 -91 4653 -91 
Q 4153 -91 3862 251 
Q 3572 594 3572 1178 
Q 3572 1766 3864 2108 
Q 4156 2450 4653 2450 
z
M 4263 4750 
L 4738 4750 
L 1819 -91 
L 1344 -91 
L 4263 4750 
z
M 1428 4750 
Q 1922 4750 2215 4408 
Q 2509 4066 2509 3481 
Q 2509 2891 2217 2550 
Q 1925 2209 1428 2209 
Q 931 2209 642 2551 
Q 353 2894 353 3481 
Q 353 4063 643 4406 
Q 934 4750 1428 4750 
z
" transform="scale(0.015625)"/>
       <path id="DejaVuSerif-29" d="M 453 -997 
L 453 -691 
Q 934 -359 1145 242 
Q 1356 844 1356 1931 
Q 1356 3022 1145 3623 
Q 934 4225 453 4556 
L 453 4863 
Q 1216 4522 1603 3783 
Q 1991 3044 1991 1931 
Q 1991 822 1603 83 
Q 1216 -656 453 -997 
z
" transform="scale(0.015625)"/>
      </defs>
      <use xlink:href="#DejaVuSerif-41"/>
      <use xlink:href="#DejaVuSerif-74" transform="translate(70.466797 0)"/>
      <use xlink:href="#DejaVuSerif-61" transform="translate(110.652344 0)"/>
      <use xlink:href="#DejaVuSerif-72" transform="translate(170.271484 0)"/>
      <use xlink:href="#DejaVuSerif-69" transform="translate(218.074219 0)"/>
      <use xlink:href="#DejaVuSerif-20" transform="translate(250.056641 0)"/>
      <use xlink:href="#DejaVuSerif-6d" transform="translate(281.84375 0)"/>
      <use xlink:href="#DejaVuSerif-65" transform="translate(376.667969 0)"/>
      <use xlink:href="#DejaVuSerif-64" transform="translate(435.847656 0)"/>
      <use xlink:href="#DejaVuSerif-69" transform="translate(499.861328 0)"/>
      <use xlink:href="#DejaVuSerif-61" transform="translate(531.84375 0)"/>
      <use xlink:href="#DejaVuSerif-6e" transform="translate(591.462891 0)"/>
      <use xlink:href="#DejaVuSerif-20" transform="translate(655.867188 0)"/>
      <use xlink:href="#DejaVuSerif-48" transform="translate(687.654297 0)"/>
      <use xlink:href="#DejaVuSerif-4e" transform="translate(774.861328 0)"/>
      <use xlink:href="#DejaVuSerif-53" transform="translate(862.361328 0)"/>
      <use xlink:href="#DejaVuSerif-20" transform="translate(930.867188 0)"/>
      <use xlink:href="#DejaVuSerif-28" transform="translate(962.654297 0)"/>
      <use xlink:href="#DejaVuSerif-25" transform="translate(1001.667969 0)"/>
      <use xlink:href="#DejaVuSerif-29" transform="translate(1096.6875 0)"/>
     </g>
    </g>
   </g>
   <g id="line2d_27">
    <path d="M 54.20875 250.702882 
L 647.18362 250.702882 
" clip-path="url(#pddf45711ee)" style="fill: none; stroke-dasharray: 0.8,1.32; stroke-dashoffset: 0; stroke: #000000; stroke-opacity: 0.6; stroke-width: 0.8"/>
   </g>
   <g id="patch_3">
    <path d="M 54.20875 264.438437 
L 54.20875 17.198437 
" style="fill: none; stroke: #000000; stroke-width: 0.8; stroke-linejoin: miter; stroke-linecap: square"/>
   </g>
   <g id="patch_4">
    <path d="M 54.20875 264.438437 
L 647.18362 264.438437 
" style="fill: none; stroke: #000000; stroke-width: 0.8; stroke-linejoin: miter; stroke-linecap: square"/>
   </g>
   <g id="text_16">
    <!-- human baseline (HNS=100) -->
    <g transform="translate(520.844745 248.810206) scale(0.08 -0.08)">
     <defs>
      <path id="DejaVuSerif-68" d="M 263 0 
L 263 331 
L 781 331 
L 781 4531 
L 231 4531 
L 231 4863 
L 1356 4863 
L 1356 2731 
Q 1516 3069 1770 3241 
Q 2025 3413 2363 3413 
Q 2913 3413 3172 3097 
Q 3431 2781 3431 2113 
L 3431 331 
L 3944 331 
L 3944 0 
L 2356 0 
L 2356 331 
L 2853 331 
L 2853 1931 
Q 2853 2541 2704 2764 
Q 2556 2988 2175 2988 
Q 1775 2988 1565 2697 
Q 1356 2406 1356 1850 
L 1356 331 
L 1856 331 
L 1856 0 
L 263 0 
z
" transform="scale(0.015625)"/>
      <path id="DejaVuSerif-75" d="M 2266 3322 
L 3341 3322 
L 3341 331 
L 3884 331 
L 3884 0 
L 2766 0 
L 2766 588 
Q 2606 256 2353 82 
Q 2100 -91 1766 -91 
Q 1213 -91 952 223 
Q 691 538 691 1209 
L 691 2988 
L 172 2988 
L 172 3322 
L 1269 3322 
L 1269 1388 
Q 1269 781 1417 556 
Q 1566 331 1947 331 
Q 2347 331 2556 625 
Q 2766 919 2766 1478 
L 2766 2988 
L 2266 2988 
L 2266 3322 
z
" transform="scale(0.015625)"/>
      <path id="DejaVuSerif-62" d="M 738 331 
L 738 4531 
L 184 4531 
L 184 4863 
L 1313 4863 
L 1313 2803 
Q 1481 3116 1742 3264 
Q 2003 3413 2388 3413 
Q 3000 3413 3387 2928 
Q 3775 2444 3775 1663 
Q 3775 881 3387 395 
Q 3000 -91 2388 -91 
Q 2003 -91 1742 57 
Q 1481 206 1313 519 
L 1313 0 
L 184 0 
L 184 331 
L 738 331 
z
M 1313 1497 
Q 1313 897 1542 583 
Q 1772 269 2209 269 
Q 2650 269 2876 622 
Q 3103 975 3103 1663 
Q 3103 2353 2876 2703 
Q 2650 3053 2209 3053 
Q 1772 3053 1542 2737 
Q 1313 2422 1313 1825 
L 1313 1497 
z
" transform="scale(0.015625)"/>
      <path id="DejaVuSerif-73" d="M 359 184 
L 359 959 
L 691 959 
Q 703 588 923 403 
Q 1144 219 1575 219 
Q 1963 219 2166 364 
Q 2369 509 2369 788 
Q 2369 1006 2220 1140 
Q 2072 1275 1594 1428 
L 1178 1569 
Q 750 1706 558 1912 
Q 366 2119 366 2438 
Q 366 2894 700 3153 
Q 1034 3413 1625 3413 
Q 1888 3413 2178 3344 
Q 2469 3275 2778 3144 
L 2778 2419 
L 2447 2419 
Q 2434 2741 2221 2922 
Q 2009 3103 1644 3103 
Q 1281 3103 1095 2975 
Q 909 2847 909 2591 
Q 909 2381 1050 2254 
Q 1191 2128 1613 1997 
L 2069 1856 
Q 2541 1709 2748 1489 
Q 2956 1269 2956 922 
Q 2956 450 2595 179 
Q 2234 -91 1600 -91 
Q 1278 -91 972 -22 
Q 666 47 359 184 
z
" transform="scale(0.015625)"/>
      <path id="DejaVuSerif-6c" d="M 1313 331 
L 1856 331 
L 1856 0 
L 184 0 
L 184 331 
L 738 331 
L 738 4531 
L 184 4531 
L 184 4863 
L 1313 4863 
L 1313 331 
z
" transform="scale(0.015625)"/>
      <path id="DejaVuSerif-3d" d="M 678 2894 
L 4684 2894 
L 4684 2394 
L 678 2394 
L 678 2894 
z
M 678 1619 
L 4684 1619 
L 4684 1119 
L 678 1119 
L 678 1619 
z
" transform="scale(0.015625)"/>
     </defs>
     <use xlink:href="#DejaVuSerif-68"/>
     <use xlink:href="#DejaVuSerif-75" transform="translate(64.404297 0)"/>
     <use xlink:href="#DejaVuSerif-6d" transform="translate(128.808594 0)"/>
     <use xlink:href="#DejaVuSerif-61" transform="translate(223.632812 0)"/>
     <use xlink:href="#DejaVuSerif-6e" transform="translate(283.251953 0)"/>
     <use xlink:href="#DejaVuSerif-20" transform="translate(347.65625 0)"/>
     <use xlink:href="#DejaVuSerif-62" transform="translate(379.443359 0)"/>
     <use xlink:href="#DejaVuSerif-61" transform="translate(443.457031 0)"/>
     <use xlink:href="#DejaVuSerif-73" transform="translate(503.076172 0)"/>
     <use xlink:href="#DejaVuSerif-65" transform="translate(554.394531 0)"/>
     <use xlink:href="#DejaVuSerif-6c" transform="translate(613.574219 0)"/>
     <use xlink:href="#DejaVuSerif-69" transform="translate(645.556641 0)"/>
     <use xlink:href="#DejaVuSerif-6e" transform="translate(677.539062 0)"/>
     <use xlink:href="#DejaVuSerif-65" transform="translate(741.943359 0)"/>
     <use xlink:href="#DejaVuSerif-20" transform="translate(801.123047 0)"/>
     <use xlink:href="#DejaVuSerif-28" transform="translate(832.910156 0)"/>
     <use xlink:href="#DejaVuSerif-48" transform="translate(871.923828 0)"/>
     <use xlink:href="#DejaVuSerif-4e" transform="translate(959.130859 0)"/>
     <use xlink:href="#DejaVuSerif-53" transform="translate(1046.630859 0)"/>
     <use xlink:href="#DejaVuSerif-3d" transform="translate(1115.136719 0)"/>
     <use xlink:href="#DejaVuSerif-31" transform="translate(1198.925781 0)"/>
     <use xlink:href="#DejaVuSerif-30" transform="translate(1262.548828 0)"/>
     <use xlink:href="#DejaVuSerif-30" transform="translate(1326.171875 0)"/>
     <use xlink:href="#DejaVuSerif-29" transform="translate(1389.794922 0)"/>
    </g>
   </g>
   <g id="PathCollection_1">
    <defs>
     <path id="m14bf44461e" d="M -4.1833 4.1833 
L 4.1833 4.1833 
L 4.1833 -4.1833 
L -4.1833 -4.1833 
z
" style="stroke: #000000; stroke-width: 0.4"/>
    </defs>
    <g clip-path="url(#pddf45711ee)">
     <use xlink:href="#m14bf44461e" x="474.646203" y="251.664371" style="fill: #2ca02c; stroke: #000000; stroke-width: 0.4"/>
    </g>
   </g>
   <g id="text_17">
    <!-- DQN -->
    <g transform="translate(476.509983 248.001556) scale(0.08 -0.08)">
     <defs>
      <path id="DejaVuSerif-44" d="M 1581 331 
L 2163 331 
Q 3072 331 3558 850 
Q 4044 1369 4044 2338 
Q 4044 3306 3559 3818 
Q 3075 4331 2163 4331 
L 1581 4331 
L 1581 331 
z
M 353 0 
L 353 331 
L 947 331 
L 947 4331 
L 353 4331 
L 353 4666 
L 2209 4666 
Q 3416 4666 4089 4050 
Q 4763 3434 4763 2338 
Q 4763 1238 4088 619 
Q 3413 0 2209 0 
L 353 0 
z
" transform="scale(0.015625)"/>
      <path id="DejaVuSerif-51" d="M 2700 -91 
Q 1628 -91 993 567 
Q 359 1225 359 2328 
Q 359 2894 529 3339 
Q 700 3784 1050 4134 
Q 1356 4441 1750 4595 
Q 2144 4750 2625 4750 
Q 3641 4750 4266 4084 
Q 4891 3419 4891 2328 
Q 4891 1403 4422 773 
Q 3953 144 3128 -38 
Q 3297 -247 3539 -347 
Q 3781 -447 4122 -447 
L 4219 -447 
L 4219 -1025 
Q 3691 -1000 3314 -767 
Q 2938 -534 2700 -91 
z
M 2625 244 
Q 3391 244 3781 770 
Q 4172 1297 4172 2328 
Q 4172 3363 3781 3889 
Q 3391 4416 2625 4416 
Q 1856 4416 1465 3889 
Q 1075 3363 1075 2328 
Q 1075 1297 1465 770 
Q 1856 244 2625 244 
z
" transform="scale(0.015625)"/>
     </defs>
     <use xlink:href="#DejaVuSerif-44"/>
     <use xlink:href="#DejaVuSerif-51" transform="translate(80.175781 0)"/>
     <use xlink:href="#DejaVuSerif-4e" transform="translate(162.158203 0)"/>
    </g>
   </g>
   <g id="PathCollection_2">
    <defs>
     <path id="m491ac25800" d="M 0 4.1833 
C 1.109424 4.1833 2.173559 3.742521 2.95804 2.95804 
C 3.742521 2.173559 4.1833 1.109424 4.1833 0 
C 4.1833 -1.109424 3.742521 -2.173559 2.95804 -2.95804 
C 2.173559 -3.742521 1.109424 -4.1833 0 -4.1833 
C -1.109424 -4.1833 -2.173559 -3.742521 -2.95804 -2.95804 
C -3.742521 -2.173559 -4.1833 -1.109424 -4.1833 0 
C -4.1833 1.109424 -3.742521 2.173559 -2.95804 2.95804 
C -2.173559 3.742521 -1.109424 4.1833 0 4.1833 
z
" style="stroke: #000000; stroke-width: 0.4"/>
    </defs>
    <g clip-path="url(#pddf45711ee)">
     <use xlink:href="#m491ac25800" x="491.646462" y="239.531297" style="fill: #1f77b4; stroke: #000000; stroke-width: 0.4"/>
    </g>
   </g>
   <g id="text_18">
    <!-- A3C -->
    <g transform="translate(493.697661 245.025519) scale(0.08 -0.08)">
     <defs>
      <path id="DejaVuSerif-43" d="M 4513 1234 
Q 4306 581 3820 245 
Q 3334 -91 2591 -91 
Q 2134 -91 1743 65 
Q 1353 222 1050 525 
Q 700 875 529 1320 
Q 359 1766 359 2328 
Q 359 3416 987 4083 
Q 1616 4750 2644 4750 
Q 3025 4750 3456 4650 
Q 3888 4550 4384 4347 
L 4384 3272 
L 4031 3272 
Q 3916 3859 3567 4137 
Q 3219 4416 2591 4416 
Q 1844 4416 1459 3886 
Q 1075 3356 1075 2328 
Q 1075 1303 1459 773 
Q 1844 244 2591 244 
Q 3113 244 3450 492 
Q 3788 741 3938 1234 
L 4513 1234 
z
" transform="scale(0.015625)"/>
     </defs>
     <use xlink:href="#DejaVuSerif-41"/>
     <use xlink:href="#DejaVuSerif-33" transform="translate(72.216797 0)"/>
     <use xlink:href="#DejaVuSerif-43" transform="translate(135.839844 0)"/>
    </g>
   </g>
   <g id="PathCollection_3">
    <g clip-path="url(#pddf45711ee)">
     <use xlink:href="#m491ac25800" x="509.405721" y="243.835104" style="fill: #1f77b4; stroke: #000000; stroke-width: 0.4"/>
    </g>
   </g>
   <g id="text_19">
    <!-- PPO -->
    <g transform="translate(510.885338 249.329326) scale(0.08 -0.08)">
     <defs>
      <path id="DejaVuSerif-50" d="M 1581 2375 
L 2406 2375 
Q 2872 2375 3115 2626 
Q 3359 2878 3359 3353 
Q 3359 3831 3115 4081 
Q 2872 4331 2406 4331 
L 1581 4331 
L 1581 2375 
z
M 353 0 
L 353 331 
L 947 331 
L 947 4331 
L 353 4331 
L 353 4666 
L 2559 4666 
Q 3259 4666 3668 4311 
Q 4078 3956 4078 3353 
Q 4078 2753 3668 2397 
Q 3259 2041 2559 2041 
L 1581 2041 
L 1581 331 
L 2303 331 
L 2303 0 
L 353 0 
z
" transform="scale(0.015625)"/>
      <path id="DejaVuSerif-4f" d="M 2625 244 
Q 3391 244 3781 770 
Q 4172 1297 4172 2328 
Q 4172 3363 3781 3889 
Q 3391 4416 2625 4416 
Q 1856 4416 1465 3889 
Q 1075 3363 1075 2328 
Q 1075 1297 1465 770 
Q 1856 244 2625 244 
z
M 2625 -91 
Q 2150 -91 1751 65 
Q 1353 222 1050 525 
Q 700 875 529 1319 
Q 359 1763 359 2328 
Q 359 2894 529 3339 
Q 700 3784 1050 4134 
Q 1356 4441 1750 4595 
Q 2144 4750 2625 4750 
Q 3641 4750 4266 4084 
Q 4891 3419 4891 2328 
Q 4891 1769 4719 1320 
Q 4547 872 4197 525 
Q 3891 219 3497 64 
Q 3103 -91 2625 -91 
z
" transform="scale(0.015625)"/>
     </defs>
     <use xlink:href="#DejaVuSerif-50"/>
     <use xlink:href="#DejaVuSerif-50" transform="translate(67.285156 0)"/>
     <use xlink:href="#DejaVuSerif-4f" transform="translate(134.570312 0)"/>
    </g>
   </g>
   <g id="PathCollection_4">
    <g clip-path="url(#pddf45711ee)">
     <use xlink:href="#m491ac25800" x="526.53288" y="246.53643" style="fill: #1f77b4; stroke: #000000; stroke-width: 0.4"/>
    </g>
   </g>
   <g id="text_20">
    <!-- IMPALA -->
    <g transform="translate(528.073015 243.789319) scale(0.08 -0.08)">
     <defs>
      <path id="DejaVuSerif-49" d="M 1581 331 
L 2175 331 
L 2175 0 
L 353 0 
L 353 331 
L 947 331 
L 947 4331 
L 353 4331 
L 353 4666 
L 2175 4666 
L 2175 4331 
L 1581 4331 
L 1581 331 
z
" transform="scale(0.015625)"/>
      <path id="DejaVuSerif-4d" d="M 353 0 
L 353 331 
L 947 331 
L 947 4331 
L 319 4331 
L 319 4666 
L 1678 4666 
L 3316 1344 
L 4953 4666 
L 6228 4666 
L 6228 4331 
L 5606 4331 
L 5606 331 
L 6203 331 
L 6203 0 
L 4378 0 
L 4378 331 
L 4972 331 
L 4972 3938 
L 3372 684 
L 2931 684 
L 1331 3938 
L 1331 331 
L 1925 331 
L 1925 0 
L 353 0 
z
" transform="scale(0.015625)"/>
      <path id="DejaVuSerif-4c" d="M 353 0 
L 353 331 
L 947 331 
L 947 4331 
L 353 4331 
L 353 4666 
L 2175 4666 
L 2175 4331 
L 1581 4331 
L 1581 384 
L 3713 384 
L 3713 1166 
L 4097 1166 
L 4097 0 
L 353 0 
z
" transform="scale(0.015625)"/>
     </defs>
     <use xlink:href="#DejaVuSerif-49"/>
     <use xlink:href="#DejaVuSerif-4d" transform="translate(39.501953 0)"/>
     <use xlink:href="#DejaVuSerif-50" transform="translate(141.894531 0)"/>
     <use xlink:href="#DejaVuSerif-41" transform="translate(200.054688 0)"/>
     <use xlink:href="#DejaVuSerif-4c" transform="translate(272.271484 0)"/>
     <use xlink:href="#DejaVuSerif-41" transform="translate(338.677734 0)"/>
    </g>
   </g>
   <g id="PathCollection_5">
    <g clip-path="url(#pddf45711ee)">
     <use xlink:href="#m14bf44461e" x="544.81466" y="167.373845" style="fill: #2ca02c; stroke: #000000; stroke-width: 0.4"/>
    </g>
   </g>
   <g id="text_21">
    <!-- R2D2 -->
    <g transform="translate(545.260693 158.216808) scale(0.08 -0.08)">
     <defs>
      <path id="DejaVuSerif-52" d="M 3066 2316 
Q 3284 2256 3442 2114 
Q 3600 1972 3725 1716 
L 4403 331 
L 4972 331 
L 4972 0 
L 3872 0 
L 3144 1484 
Q 2934 1916 2759 2042 
Q 2584 2169 2278 2169 
L 1581 2169 
L 1581 331 
L 2241 331 
L 2241 0 
L 353 0 
L 353 331 
L 947 331 
L 947 4331 
L 353 4331 
L 353 4666 
L 2719 4666 
Q 3400 4666 3770 4341 
Q 4141 4016 4141 3419 
Q 4141 2938 3870 2661 
Q 3600 2384 3066 2316 
z
M 1581 2503 
L 2503 2503 
Q 2975 2503 3200 2726 
Q 3425 2950 3425 3419 
Q 3425 3888 3200 4109 
Q 2975 4331 2503 4331 
L 1581 4331 
L 1581 2503 
z
" transform="scale(0.015625)"/>
     </defs>
     <use xlink:href="#DejaVuSerif-52"/>
     <use xlink:href="#DejaVuSerif-32" transform="translate(75.292969 0)"/>
     <use xlink:href="#DejaVuSerif-44" transform="translate(138.916016 0)"/>
     <use xlink:href="#DejaVuSerif-32" transform="translate(219.091797 0)"/>
    </g>
   </g>
   <g id="PathCollection_6">
    <g clip-path="url(#pddf45711ee)">
     <use xlink:href="#m14bf44461e" x="561.943628" y="37.206563" style="fill: #2ca02c; stroke: #000000; stroke-width: 0.4"/>
    </g>
   </g>
   <g id="text_22">
    <!-- Agent57 -->
    <g transform="translate(562.44837 25.387118) scale(0.08 -0.08)">
     <defs>
      <path id="DejaVuSerif-67" d="M 3359 2988 
L 3359 72 
Q 3359 -644 2965 -1033 
Q 2572 -1422 1844 -1422 
Q 1516 -1422 1216 -1362 
Q 916 -1303 641 -1184 
L 641 -488 
L 941 -488 
Q 997 -813 1206 -963 
Q 1416 -1113 1806 -1113 
Q 2313 -1113 2548 -827 
Q 2784 -541 2784 72 
L 2784 519 
Q 2616 206 2355 57 
Q 2094 -91 1709 -91 
Q 1097 -91 708 395 
Q 319 881 319 1663 
Q 319 2444 706 2928 
Q 1094 3413 1709 3413 
Q 2094 3413 2355 3264 
Q 2616 3116 2784 2803 
L 2784 3322 
L 3909 3322 
L 3909 2988 
L 3359 2988 
z
M 2784 1825 
Q 2784 2422 2554 2737 
Q 2325 3053 1888 3053 
Q 1444 3053 1217 2703 
Q 991 2353 991 1663 
Q 991 975 1217 622 
Q 1444 269 1888 269 
Q 2325 269 2554 583 
Q 2784 897 2784 1497 
L 2784 1825 
z
" transform="scale(0.015625)"/>
      <path id="DejaVuSerif-37" d="M 3609 4347 
L 1784 0 
L 1319 0 
L 3059 4153 
L 903 4153 
L 903 3578 
L 538 3578 
L 538 4666 
L 3609 4666 
L 3609 4347 
z
" transform="scale(0.015625)"/>
     </defs>
     <use xlink:href="#DejaVuSerif-41"/>
     <use xlink:href="#DejaVuSerif-67" transform="translate(72.216797 0)"/>
     <use xlink:href="#DejaVuSerif-65" transform="translate(136.230469 0)"/>
     <use xlink:href="#DejaVuSerif-6e" transform="translate(195.410156 0)"/>
     <use xlink:href="#DejaVuSerif-74" transform="translate(259.814453 0)"/>
     <use xlink:href="#DejaVuSerif-35" transform="translate(300 0)"/>
     <use xlink:href="#DejaVuSerif-37" transform="translate(363.623047 0)"/>
    </g>
   </g>
   <g id="PathCollection_7">
    <defs>
     <path id="mf65c70e2c8" d="M 0 -4.1833 
L -4.1833 4.1833 
L 4.1833 4.1833 
z
" style="stroke: #000000; stroke-width: 0.4"/>
    </defs>
    <g clip-path="url(#pddf45711ee)">
     <use xlink:href="#mf65c70e2c8" x="561.317777" y="221.81243" style="fill: #d62728; stroke: #000000; stroke-width: 0.4"/>
    </g>
   </g>
   <g id="text_23">
    <!-- MuZero -->
    <g transform="translate(562.44837 212.655393) scale(0.08 -0.08)">
     <defs>
      <path id="DejaVuSerif-5a" d="M 288 0 
L 288 225 
L 3194 4281 
L 781 4281 
L 781 3584 
L 397 3584 
L 397 4666 
L 4084 4666 
L 4084 4441 
L 1178 384 
L 3816 384 
L 3816 1038 
L 4197 1038 
L 4197 0 
L 288 0 
z
" transform="scale(0.015625)"/>
      <path id="DejaVuSerif-6f" d="M 1925 219 
Q 2388 219 2623 584 
Q 2859 950 2859 1663 
Q 2859 2375 2623 2739 
Q 2388 3103 1925 3103 
Q 1463 3103 1227 2739 
Q 991 2375 991 1663 
Q 991 950 1228 584 
Q 1466 219 1925 219 
z
M 1925 -91 
Q 1200 -91 759 389 
Q 319 869 319 1663 
Q 319 2456 758 2934 
Q 1197 3413 1925 3413 
Q 2653 3413 3092 2934 
Q 3531 2456 3531 1663 
Q 3531 869 3092 389 
Q 2653 -91 1925 -91 
z
" transform="scale(0.015625)"/>
     </defs>
     <use xlink:href="#DejaVuSerif-4d"/>
     <use xlink:href="#DejaVuSerif-75" transform="translate(102.392578 0)"/>
     <use xlink:href="#DejaVuSerif-5a" transform="translate(166.796875 0)"/>
     <use xlink:href="#DejaVuSerif-65" transform="translate(236.279297 0)"/>
     <use xlink:href="#DejaVuSerif-72" transform="translate(295.458984 0)"/>
     <use xlink:href="#DejaVuSerif-6f" transform="translate(343.261719 0)"/>
    </g>
   </g>
   <g id="PathCollection_8">
    <g clip-path="url(#pddf45711ee)">
     <use xlink:href="#mf65c70e2c8" x="613.083652" y="250.15346" style="fill: #d62728; stroke: #000000; stroke-width: 0.4"/>
    </g>
   </g>
   <g id="text_24">
    <!-- DreamerV3 -->
    <g transform="translate(614.011402 255.647682) scale(0.08 -0.08)">
     <defs>
      <path id="DejaVuSerif-56" d="M 1119 4331 
L 2497 750 
L 3872 4331 
L 3347 4331 
L 3347 4666 
L 4716 4666 
L 4716 4331 
L 4263 4331 
L 2597 0 
L 2059 0 
L 403 4331 
L -63 4331 
L -63 4666 
L 1638 4666 
L 1638 4331 
L 1119 4331 
z
" transform="scale(0.015625)"/>
     </defs>
     <use xlink:href="#DejaVuSerif-44"/>
     <use xlink:href="#DejaVuSerif-72" transform="translate(80.175781 0)"/>
     <use xlink:href="#DejaVuSerif-65" transform="translate(127.978516 0)"/>
     <use xlink:href="#DejaVuSerif-61" transform="translate(187.158203 0)"/>
     <use xlink:href="#DejaVuSerif-6d" transform="translate(246.777344 0)"/>
     <use xlink:href="#DejaVuSerif-65" transform="translate(341.601562 0)"/>
     <use xlink:href="#DejaVuSerif-72" transform="translate(400.78125 0)"/>
     <use xlink:href="#DejaVuSerif-56" transform="translate(448.583984 0)"/>
     <use xlink:href="#DejaVuSerif-33" transform="translate(520.800781 0)"/>
    </g>
   </g>
   <g id="PathCollection_9">
    <defs>
     <path id="mbb5a928d65" d="M -3.872983 3.872983 
L 3.872983 -3.872983 
M -3.872983 -3.872983 
L 3.872983 3.872983 
" style="stroke: #7f7f7f; stroke-opacity: 0.55; stroke-width: 0.4"/>
    </defs>
    <g clip-path="url(#pddf45711ee)">
     <use xlink:href="#mbb5a928d65" x="80.183653" y="257.57066" style="fill: #7f7f7f; fill-opacity: 0.55; stroke: #7f7f7f; stroke-opacity: 0.55; stroke-width: 0.4"/>
    </g>
   </g>
   <g id="text_25">
    <!-- REINFORCE -->
    <g style="fill: #808080" transform="translate(81.193403 259.859919) scale(0.07 -0.07)">
     <defs>
      <path id="DejaVuSerif-45" d="M 353 0 
L 353 331 
L 947 331 
L 947 4331 
L 353 4331 
L 353 4666 
L 4109 4666 
L 4109 3628 
L 3725 3628 
L 3725 4281 
L 1581 4281 
L 1581 2719 
L 3109 2719 
L 3109 3303 
L 3494 3303 
L 3494 1753 
L 3109 1753 
L 3109 2338 
L 1581 2338 
L 1581 384 
L 3775 384 
L 3775 1038 
L 4159 1038 
L 4159 0 
L 353 0 
z
" transform="scale(0.015625)"/>
      <path id="DejaVuSerif-46" d="M 353 0 
L 353 331 
L 947 331 
L 947 4331 
L 353 4331 
L 353 4666 
L 4172 4666 
L 4172 3628 
L 3788 3628 
L 3788 4281 
L 1581 4281 
L 1581 2719 
L 3175 2719 
L 3175 3303 
L 3559 3303 
L 3559 1753 
L 3175 1753 
L 3175 2338 
L 1581 2338 
L 1581 331 
L 2328 331 
L 2328 0 
L 353 0 
z
" transform="scale(0.015625)"/>
     </defs>
     <use xlink:href="#DejaVuSerif-52"/>
     <use xlink:href="#DejaVuSerif-45" transform="translate(75.292969 0)"/>
     <use xlink:href="#DejaVuSerif-49" transform="translate(148.291016 0)"/>
     <use xlink:href="#DejaVuSerif-4e" transform="translate(187.792969 0)"/>
     <use xlink:href="#DejaVuSerif-46" transform="translate(275.292969 0)"/>
     <use xlink:href="#DejaVuSerif-4f" transform="translate(344.677734 0)"/>
     <use xlink:href="#DejaVuSerif-52" transform="translate(426.660156 0)"/>
     <use xlink:href="#DejaVuSerif-43" transform="translate(501.953125 0)"/>
     <use xlink:href="#DejaVuSerif-45" transform="translate(578.466797 0)"/>
    </g>
   </g>
   <g id="PathCollection_10">
    <g clip-path="url(#pddf45711ee)">
     <use xlink:href="#mbb5a928d65" x="200.55431" y="257.57066" style="fill: #7f7f7f; fill-opacity: 0.55; stroke: #7f7f7f; stroke-opacity: 0.55; stroke-width: 0.4"/>
    </g>
   </g>
   <g id="text_26">
    <!-- PG theorem -->
    <g style="fill: #808080" transform="translate(201.507145 259.859919) scale(0.07 -0.07)">
     <defs>
      <path id="DejaVuSerif-47" d="M 4097 3272 
Q 3988 3856 3641 4136 
Q 3294 4416 2675 4416 
Q 1869 4416 1472 3897 
Q 1075 3378 1075 2328 
Q 1075 1300 1484 772 
Q 1894 244 2688 244 
Q 3041 244 3362 331 
Q 3684 419 3975 594 
L 3975 1797 
L 3097 1797 
L 3097 2131 
L 4609 2131 
L 4609 391 
Q 4194 150 3714 29 
Q 3234 -91 2688 -91 
Q 1631 -91 995 570 
Q 359 1231 359 2328 
Q 359 3434 996 4092 
Q 1634 4750 2713 4750 
Q 3113 4750 3539 4658 
Q 3966 4566 4447 4378 
L 4447 3272 
L 4097 3272 
z
" transform="scale(0.015625)"/>
     </defs>
     <use xlink:href="#DejaVuSerif-50"/>
     <use xlink:href="#DejaVuSerif-47" transform="translate(67.285156 0)"/>
     <use xlink:href="#DejaVuSerif-20" transform="translate(147.167969 0)"/>
     <use xlink:href="#DejaVuSerif-74" transform="translate(178.955078 0)"/>
     <use xlink:href="#DejaVuSerif-68" transform="translate(219.140625 0)"/>
     <use xlink:href="#DejaVuSerif-65" transform="translate(283.544922 0)"/>
     <use xlink:href="#DejaVuSerif-6f" transform="translate(342.724609 0)"/>
     <use xlink:href="#DejaVuSerif-72" transform="translate(402.929688 0)"/>
     <use xlink:href="#DejaVuSerif-65" transform="translate(450.732422 0)"/>
     <use xlink:href="#DejaVuSerif-6d" transform="translate(509.912109 0)"/>
    </g>
   </g>
   <g id="PathCollection_11">
    <g clip-path="url(#pddf45711ee)">
     <use xlink:href="#mbb5a928d65" x="235.056041" y="257.57066" style="fill: #7f7f7f; fill-opacity: 0.55; stroke: #7f7f7f; stroke-opacity: 0.55; stroke-width: 0.4"/>
    </g>
   </g>
   <g id="text_27">
    <!-- Natural PG -->
    <g style="fill: #808080" transform="translate(235.8825 259.859919) scale(0.07 -0.07)">
     <use xlink:href="#DejaVuSerif-4e"/>
     <use xlink:href="#DejaVuSerif-61" transform="translate(87.5 0)"/>
     <use xlink:href="#DejaVuSerif-74" transform="translate(147.119141 0)"/>
     <use xlink:href="#DejaVuSerif-75" transform="translate(187.304688 0)"/>
     <use xlink:href="#DejaVuSerif-72" transform="translate(251.708984 0)"/>
     <use xlink:href="#DejaVuSerif-61" transform="translate(299.511719 0)"/>
     <use xlink:href="#DejaVuSerif-6c" transform="translate(359.130859 0)"/>
     <use xlink:href="#DejaVuSerif-20" transform="translate(391.113281 0)"/>
     <use xlink:href="#DejaVuSerif-50" transform="translate(422.900391 0)"/>
     <use xlink:href="#DejaVuSerif-47" transform="translate(490.185547 0)"/>
    </g>
   </g>
   <g id="PathCollection_12">
    <g clip-path="url(#pddf45711ee)">
     <use xlink:href="#mbb5a928d65" x="354.563176" y="257.57066" style="fill: #7f7f7f; fill-opacity: 0.55; stroke: #7f7f7f; stroke-opacity: 0.55; stroke-width: 0.4"/>
    </g>
   </g>
   <g id="text_28">
    <!-- NAC -->
    <g style="fill: #808080" transform="translate(356.196242 259.859919) scale(0.07 -0.07)">
     <use xlink:href="#DejaVuSerif-4e"/>
     <use xlink:href="#DejaVuSerif-41" transform="translate(87.5 0)"/>
     <use xlink:href="#DejaVuSerif-43" transform="translate(159.716797 0)"/>
    </g>
   </g>
   <g id="PathCollection_13">
    <defs>
     <path id="m2f8ef988ed" d="M -3.872983 3.872983 
L 3.872983 3.872983 
L 3.872983 -3.872983 
L -3.872983 -3.872983 
z
" style="stroke: #000000; stroke-opacity: 0.55; stroke-width: 0.4"/>
    </defs>
    <g clip-path="url(#pddf45711ee)">
     <use xlink:href="#m2f8ef988ed" x="457.66975" y="257.57066" style="fill: #2ca02c; fill-opacity: 0.55; stroke: #000000; stroke-opacity: 0.55; stroke-width: 0.4"/>
    </g>
   </g>
   <g id="text_29">
    <!-- DPG -->
    <g style="fill: #808080" transform="translate(459.322306 259.859919) scale(0.07 -0.07)">
     <use xlink:href="#DejaVuSerif-44"/>
     <use xlink:href="#DejaVuSerif-50" transform="translate(80.175781 0)"/>
     <use xlink:href="#DejaVuSerif-47" transform="translate(147.460938 0)"/>
    </g>
   </g>
   <g id="PathCollection_14">
    <defs>
     <path id="m02fa6589a6" d="M 0 3.872983 
C 1.027127 3.872983 2.012324 3.464901 2.738613 2.738613 
C 3.464901 2.012324 3.872983 1.027127 3.872983 0 
C 3.872983 -1.027127 3.464901 -2.012324 2.738613 -2.738613 
C 2.012324 -3.464901 1.027127 -3.872983 0 -3.872983 
C -1.027127 -3.872983 -2.012324 -3.464901 -2.738613 -2.738613 
C -3.464901 -2.012324 -3.872983 -1.027127 -3.872983 0 
C -3.872983 1.027127 -3.464901 2.012324 -2.738613 2.738613 
C -2.012324 3.464901 -1.027127 3.872983 0 3.872983 
z
" style="stroke: #000000; stroke-opacity: 0.55; stroke-width: 0.4"/>
    </defs>
    <g clip-path="url(#pddf45711ee)">
     <use xlink:href="#m02fa6589a6" x="475.332597" y="257.57066" style="fill: #1f77b4; fill-opacity: 0.55; stroke: #000000; stroke-opacity: 0.55; stroke-width: 0.4"/>
    </g>
   </g>
   <g id="text_30">
    <!-- TRPO -->
    <g style="fill: #808080" transform="translate(476.509983 259.859919) scale(0.07 -0.07)">
     <defs>
      <path id="DejaVuSerif-54" d="M 1222 0 
L 1222 331 
L 1819 331 
L 1819 4294 
L 447 4294 
L 447 3566 
L 63 3566 
L 63 4666 
L 4206 4666 
L 4206 3566 
L 3822 3566 
L 3822 4294 
L 2450 4294 
L 2450 331 
L 3047 331 
L 3047 0 
L 1222 0 
z
" transform="scale(0.015625)"/>
     </defs>
     <use xlink:href="#DejaVuSerif-54"/>
     <use xlink:href="#DejaVuSerif-52" transform="translate(66.699219 0)"/>
     <use xlink:href="#DejaVuSerif-50" transform="translate(141.992188 0)"/>
     <use xlink:href="#DejaVuSerif-4f" transform="translate(209.277344 0)"/>
    </g>
   </g>
   <g id="PathCollection_15">
    <g clip-path="url(#pddf45711ee)">
     <use xlink:href="#m02fa6589a6" x="492.888965" y="257.57066" style="fill: #1f77b4; fill-opacity: 0.55; stroke: #000000; stroke-opacity: 0.55; stroke-width: 0.4"/>
    </g>
   </g>
   <g id="text_31">
    <!-- GAE+TRPO -->
    <g style="fill: #808080" transform="translate(493.697661 259.859919) scale(0.07 -0.07)">
     <defs>
      <path id="DejaVuSerif-2b" d="M 2931 4013 
L 2931 2259 
L 4684 2259 
L 4684 1753 
L 2931 1753 
L 2931 0 
L 2431 0 
L 2431 1753 
L 678 1753 
L 678 2259 
L 2431 2259 
L 2431 4013 
L 2931 4013 
z
" transform="scale(0.015625)"/>
     </defs>
     <use xlink:href="#DejaVuSerif-47"/>
     <use xlink:href="#DejaVuSerif-41" transform="translate(79.882812 0)"/>
     <use xlink:href="#DejaVuSerif-45" transform="translate(152.099609 0)"/>
     <use xlink:href="#DejaVuSerif-2b" transform="translate(225.097656 0)"/>
     <use xlink:href="#DejaVuSerif-54" transform="translate(308.886719 0)"/>
     <use xlink:href="#DejaVuSerif-52" transform="translate(375.585938 0)"/>
     <use xlink:href="#DejaVuSerif-50" transform="translate(450.878906 0)"/>
     <use xlink:href="#DejaVuSerif-4f" transform="translate(518.164062 0)"/>
    </g>
   </g>
   <g id="PathCollection_16">
    <g clip-path="url(#pddf45711ee)">
     <use xlink:href="#m2f8ef988ed" x="508.830336" y="257.57066" style="fill: #2ca02c; fill-opacity: 0.55; stroke: #000000; stroke-opacity: 0.55; stroke-width: 0.4"/>
    </g>
   </g>
   <g id="text_32">
    <!-- ACER -->
    <g style="fill: #808080" transform="translate(510.885338 259.859919) scale(0.07 -0.07)">
     <use xlink:href="#DejaVuSerif-41"/>
     <use xlink:href="#DejaVuSerif-43" transform="translate(72.216797 0)"/>
     <use xlink:href="#DejaVuSerif-45" transform="translate(148.730469 0)"/>
     <use xlink:href="#DejaVuSerif-52" transform="translate(221.728516 0)"/>
    </g>
   </g>
   <g id="PathCollection_17">
    <defs>
     <path id="m3f465659f5" d="M 0 -3.872983 
L -3.872983 3.872983 
L 3.872983 3.872983 
z
" style="stroke: #000000; stroke-opacity: 0.55; stroke-width: 0.4"/>
    </defs>
    <g clip-path="url(#pddf45711ee)">
     <use xlink:href="#m3f465659f5" x="508.837048" y="257.57066" style="fill: #d62728; fill-opacity: 0.55; stroke: #000000; stroke-opacity: 0.55; stroke-width: 0.4"/>
    </g>
   </g>
   <g id="text_33">
    <!-- AlphaGo Zero -->
    <g style="fill: #808080" transform="translate(510.885338 259.859919) scale(0.07 -0.07)">
     <defs>
      <path id="DejaVuSerif-70" d="M 1313 1825 
L 1313 1497 
Q 1313 897 1542 583 
Q 1772 269 2209 269 
Q 2650 269 2876 622 
Q 3103 975 3103 1663 
Q 3103 2353 2876 2703 
Q 2650 3053 2209 3053 
Q 1772 3053 1542 2737 
Q 1313 2422 1313 1825 
z
M 738 2988 
L 184 2988 
L 184 3322 
L 1313 3322 
L 1313 2803 
Q 1481 3116 1742 3264 
Q 2003 3413 2388 3413 
Q 3000 3413 3387 2928 
Q 3775 2444 3775 1663 
Q 3775 881 3387 395 
Q 3000 -91 2388 -91 
Q 2003 -91 1742 57 
Q 1481 206 1313 519 
L 1313 -997 
L 1856 -997 
L 1856 -1331 
L 184 -1331 
L 184 -997 
L 738 -997 
L 738 2988 
z
" transform="scale(0.015625)"/>
     </defs>
     <use xlink:href="#DejaVuSerif-41"/>
     <use xlink:href="#DejaVuSerif-6c" transform="translate(72.216797 0)"/>
     <use xlink:href="#DejaVuSerif-70" transform="translate(104.199219 0)"/>
     <use xlink:href="#DejaVuSerif-68" transform="translate(168.212891 0)"/>
     <use xlink:href="#DejaVuSerif-61" transform="translate(232.617188 0)"/>
     <use xlink:href="#DejaVuSerif-47" transform="translate(292.236328 0)"/>
     <use xlink:href="#DejaVuSerif-6f" transform="translate(372.119141 0)"/>
     <use xlink:href="#DejaVuSerif-20" transform="translate(432.324219 0)"/>
     <use xlink:href="#DejaVuSerif-5a" transform="translate(464.111328 0)"/>
     <use xlink:href="#DejaVuSerif-65" transform="translate(533.59375 0)"/>
     <use xlink:href="#DejaVuSerif-72" transform="translate(592.773438 0)"/>
     <use xlink:href="#DejaVuSerif-6f" transform="translate(640.576172 0)"/>
    </g>
   </g>
   <g id="PathCollection_18">
    <g clip-path="url(#pddf45711ee)">
     <use xlink:href="#m2f8ef988ed" x="475.520669" y="257.57066" style="fill: #2ca02c; fill-opacity: 0.55; stroke: #000000; stroke-opacity: 0.55; stroke-width: 0.4"/>
    </g>
   </g>
   <g id="text_34">
    <!-- DDPG -->
    <g style="fill: #808080" transform="translate(476.509983 259.859919) scale(0.07 -0.07)">
     <use xlink:href="#DejaVuSerif-44"/>
     <use xlink:href="#DejaVuSerif-44" transform="translate(80.175781 0)"/>
     <use xlink:href="#DejaVuSerif-50" transform="translate(160.351562 0)"/>
     <use xlink:href="#DejaVuSerif-47" transform="translate(227.636719 0)"/>
    </g>
   </g>
   <g id="PathCollection_19">
    <g clip-path="url(#pddf45711ee)">
     <use xlink:href="#m2f8ef988ed" x="527.699908" y="257.57066" style="fill: #2ca02c; fill-opacity: 0.55; stroke: #000000; stroke-opacity: 0.55; stroke-width: 0.4"/>
    </g>
   </g>
   <g id="text_35">
    <!-- TD3 -->
    <g style="fill: #808080" transform="translate(528.073015 259.859919) scale(0.07 -0.07)">
     <use xlink:href="#DejaVuSerif-54"/>
     <use xlink:href="#DejaVuSerif-44" transform="translate(66.699219 0)"/>
     <use xlink:href="#DejaVuSerif-33" transform="translate(146.875 0)"/>
    </g>
   </g>
   <g id="PathCollection_20">
    <g clip-path="url(#pddf45711ee)">
     <use xlink:href="#m2f8ef988ed" x="526.690726" y="257.57066" style="fill: #2ca02c; fill-opacity: 0.55; stroke: #000000; stroke-opacity: 0.55; stroke-width: 0.4"/>
    </g>
   </g>
   <g id="text_36">
    <!-- SAC -->
    <g style="fill: #808080" transform="translate(528.073015 259.859919) scale(0.07 -0.07)">
     <use xlink:href="#DejaVuSerif-53"/>
     <use xlink:href="#DejaVuSerif-41" transform="translate(68.505859 0)"/>
     <use xlink:href="#DejaVuSerif-43" transform="translate(140.722656 0)"/>
    </g>
   </g>
   <g id="PathCollection_21">
    <defs>
     <path id="m67388a24f9" d="M -0 5.477226 
L 5.477226 0 
L 0 -5.477226 
L -5.477226 -0 
z
" style="stroke: #000000; stroke-opacity: 0.55; stroke-width: 0.4"/>
    </defs>
    <g clip-path="url(#pddf45711ee)">
     <use xlink:href="#m67388a24f9" x="560.821976" y="257.57066" style="fill: #8c564b; fill-opacity: 0.55; stroke: #000000; stroke-opacity: 0.55; stroke-width: 0.4"/>
    </g>
   </g>
   <g id="text_37">
    <!-- CQL -->
    <g style="fill: #808080" transform="translate(562.44837 259.859919) scale(0.07 -0.07)">
     <use xlink:href="#DejaVuSerif-43"/>
     <use xlink:href="#DejaVuSerif-51" transform="translate(76.513672 0)"/>
     <use xlink:href="#DejaVuSerif-4c" transform="translate(158.496094 0)"/>
    </g>
   </g>
   <g id="PathCollection_22">
    <g clip-path="url(#pddf45711ee)">
     <use xlink:href="#m67388a24f9" x="578.166801" y="257.57066" style="fill: #8c564b; fill-opacity: 0.55; stroke: #000000; stroke-opacity: 0.55; stroke-width: 0.4"/>
    </g>
   </g>
   <g id="text_38">
    <!-- IQL -->
    <g style="fill: #808080" transform="translate(579.636047 259.859919) scale(0.07 -0.07)">
     <use xlink:href="#DejaVuSerif-49"/>
     <use xlink:href="#DejaVuSerif-51" transform="translate(39.501953 0)"/>
     <use xlink:href="#DejaVuSerif-4c" transform="translate(121.484375 0)"/>
    </g>
   </g>
   <g id="PathCollection_23">
    <g clip-path="url(#pddf45711ee)">
     <use xlink:href="#m67388a24f9" x="578.898551" y="257.57066" style="fill: #8c564b; fill-opacity: 0.55; stroke: #000000; stroke-opacity: 0.55; stroke-width: 0.4"/>
    </g>
   </g>
   <g id="text_39">
    <!-- DT -->
    <g style="fill: #808080" transform="translate(579.636047 259.859919) scale(0.07 -0.07)">
     <use xlink:href="#DejaVuSerif-44"/>
     <use xlink:href="#DejaVuSerif-54" transform="translate(80.175781 0)"/>
    </g>
   </g>
   <g id="PathCollection_24">
    <g clip-path="url(#pddf45711ee)">
     <use xlink:href="#m02fa6589a6" x="629.700416" y="257.57066" style="fill: #1f77b4; fill-opacity: 0.55; stroke: #000000; stroke-opacity: 0.55; stroke-width: 0.4"/>
    </g>
   </g>
   <g id="text_40">
    <!-- GRPO -->
    <g style="fill: #808080" transform="translate(631.19908 259.859919) scale(0.07 -0.07)">
     <use xlink:href="#DejaVuSerif-47"/>
     <use xlink:href="#DejaVuSerif-52" transform="translate(79.882812 0)"/>
     <use xlink:href="#DejaVuSerif-50" transform="translate(155.175781 0)"/>
     <use xlink:href="#DejaVuSerif-4f" transform="translate(222.460938 0)"/>
    </g>
   </g>
   <g id="PathCollection_25">
    <g clip-path="url(#pddf45711ee)">
     <use xlink:href="#m67388a24f9" x="629.653499" y="257.57066" style="fill: #8c564b; fill-opacity: 0.55; stroke: #000000; stroke-opacity: 0.55; stroke-width: 0.4"/>
    </g>
   </g>
   <g id="text_41">
    <!-- DPO -->
    <g style="fill: #808080" transform="translate(631.19908 259.859919) scale(0.07 -0.07)">
     <use xlink:href="#DejaVuSerif-44"/>
     <use xlink:href="#DejaVuSerif-50" transform="translate(80.175781 0)"/>
     <use xlink:href="#DejaVuSerif-4f" transform="translate(147.460938 0)"/>
    </g>
   </g>
   <g id="text_42">
    <!-- RL method evolution: Atari median human-normalized score vs publication year -->
    <g transform="translate(147.703997 11.198437) scale(0.1 -0.1)">
     <defs>
      <path id="DejaVuSerif-76" d="M 1581 0 
L 359 2988 
L -19 2988 
L -19 3322 
L 1509 3322 
L 1509 2988 
L 978 2988 
L 1913 703 
L 2847 2988 
L 2350 2988 
L 2350 3322 
L 3597 3322 
L 3597 2988 
L 3225 2988 
L 2003 0 
L 1581 0 
z
" transform="scale(0.015625)"/>
      <path id="DejaVuSerif-3a" d="M 666 325 
Q 666 500 786 622 
Q 906 744 1081 744 
Q 1256 744 1376 622 
Q 1497 500 1497 325 
Q 1497 150 1378 29 
Q 1259 -91 1081 -91 
Q 903 -91 784 29 
Q 666 150 666 325 
z
M 666 2363 
Q 666 2538 786 2658 
Q 906 2778 1081 2778 
Q 1259 2778 1378 2659 
Q 1497 2541 1497 2363 
Q 1497 2184 1378 2065 
Q 1259 1947 1081 1947 
Q 906 1947 786 2067 
Q 666 2188 666 2363 
z
" transform="scale(0.015625)"/>
      <path id="DejaVuSerif-2d" d="M 281 1959 
L 1881 1959 
L 1881 1472 
L 281 1472 
L 281 1959 
z
" transform="scale(0.015625)"/>
      <path id="DejaVuSerif-7a" d="M 256 0 
L 256 269 
L 2338 2988 
L 691 2988 
L 691 2413 
L 359 2413 
L 359 3322 
L 3078 3322 
L 3078 3053 
L 997 331 
L 2803 331 
L 2803 934 
L 3138 934 
L 3138 0 
L 256 0 
z
" transform="scale(0.015625)"/>
      <path id="DejaVuSerif-63" d="M 3291 997 
Q 3169 466 2822 187 
Q 2475 -91 1925 -91 
Q 1200 -91 759 389 
Q 319 869 319 1663 
Q 319 2459 759 2936 
Q 1200 3413 1925 3413 
Q 2241 3413 2553 3339 
Q 2866 3266 3181 3116 
L 3181 2266 
L 2847 2266 
Q 2781 2703 2561 2903 
Q 2341 3103 1931 3103 
Q 1466 3103 1228 2742 
Q 991 2381 991 1663 
Q 991 944 1227 581 
Q 1463 219 1931 219 
Q 2303 219 2525 412 
Q 2747 606 2828 997 
L 3291 997 
z
" transform="scale(0.015625)"/>
     </defs>
     <use xlink:href="#DejaVuSerif-52"/>
     <use xlink:href="#DejaVuSerif-4c" transform="translate(75.292969 0)"/>
     <use xlink:href="#DejaVuSerif-20" transform="translate(141.699219 0)"/>
     <use xlink:href="#DejaVuSerif-6d" transform="translate(173.486328 0)"/>
     <use xlink:href="#DejaVuSerif-65" transform="translate(268.310547 0)"/>
     <use xlink:href="#DejaVuSerif-74" transform="translate(327.490234 0)"/>
     <use xlink:href="#DejaVuSerif-68" transform="translate(367.675781 0)"/>
     <use xlink:href="#DejaVuSerif-6f" transform="translate(432.080078 0)"/>
     <use xlink:href="#DejaVuSerif-64" transform="translate(492.285156 0)"/>
     <use xlink:href="#DejaVuSerif-20" transform="translate(556.298828 0)"/>
     <use xlink:href="#DejaVuSerif-65" transform="translate(588.085938 0)"/>
     <use xlink:href="#DejaVuSerif-76" transform="translate(647.265625 0)"/>
     <use xlink:href="#DejaVuSerif-6f" transform="translate(703.759766 0)"/>
     <use xlink:href="#DejaVuSerif-6c" transform="translate(763.964844 0)"/>
     <use xlink:href="#DejaVuSerif-75" transform="translate(795.947266 0)"/>
     <use xlink:href="#DejaVuSerif-74" transform="translate(860.351562 0)"/>
     <use xlink:href="#DejaVuSerif-69" transform="translate(900.537109 0)"/>
     <use xlink:href="#DejaVuSerif-6f" transform="translate(932.519531 0)"/>
     <use xlink:href="#DejaVuSerif-6e" transform="translate(992.724609 0)"/>
     <use xlink:href="#DejaVuSerif-3a" transform="translate(1057.128906 0)"/>
     <use xlink:href="#DejaVuSerif-20" transform="translate(1090.820312 0)"/>
     <use xlink:href="#DejaVuSerif-41" transform="translate(1122.607422 0)"/>
     <use xlink:href="#DejaVuSerif-74" transform="translate(1193.074219 0)"/>
     <use xlink:href="#DejaVuSerif-61" transform="translate(1233.259766 0)"/>
     <use xlink:href="#DejaVuSerif-72" transform="translate(1292.878906 0)"/>
     <use xlink:href="#DejaVuSerif-69" transform="translate(1340.681641 0)"/>
     <use xlink:href="#DejaVuSerif-20" transform="translate(1372.664062 0)"/>
     <use xlink:href="#DejaVuSerif-6d" transform="translate(1404.451172 0)"/>
     <use xlink:href="#DejaVuSerif-65" transform="translate(1499.275391 0)"/>
     <use xlink:href="#DejaVuSerif-64" transform="translate(1558.455078 0)"/>
     <use xlink:href="#DejaVuSerif-69" transform="translate(1622.46875 0)"/>
     <use xlink:href="#DejaVuSerif-61" transform="translate(1654.451172 0)"/>
     <use xlink:href="#DejaVuSerif-6e" transform="translate(1714.070312 0)"/>
     <use xlink:href="#DejaVuSerif-20" transform="translate(1778.474609 0)"/>
     <use xlink:href="#DejaVuSerif-68" transform="translate(1810.261719 0)"/>
     <use xlink:href="#DejaVuSerif-75" transform="translate(1874.666016 0)"/>
     <use xlink:href="#DejaVuSerif-6d" transform="translate(1939.070312 0)"/>
     <use xlink:href="#DejaVuSerif-61" transform="translate(2033.894531 0)"/>
     <use xlink:href="#DejaVuSerif-6e" transform="translate(2093.513672 0)"/>
     <use xlink:href="#DejaVuSerif-2d" transform="translate(2157.917969 0)"/>
     <use xlink:href="#DejaVuSerif-6e" transform="translate(2191.707031 0)"/>
     <use xlink:href="#DejaVuSerif-6f" transform="translate(2256.111328 0)"/>
     <use xlink:href="#DejaVuSerif-72" transform="translate(2316.316406 0)"/>
     <use xlink:href="#DejaVuSerif-6d" transform="translate(2364.119141 0)"/>
     <use xlink:href="#DejaVuSerif-61" transform="translate(2458.943359 0)"/>
     <use xlink:href="#DejaVuSerif-6c" transform="translate(2518.5625 0)"/>
     <use xlink:href="#DejaVuSerif-69" transform="translate(2550.544922 0)"/>
     <use xlink:href="#DejaVuSerif-7a" transform="translate(2582.527344 0)"/>
     <use xlink:href="#DejaVuSerif-65" transform="translate(2635.212891 0)"/>
     <use xlink:href="#DejaVuSerif-64" transform="translate(2694.392578 0)"/>
     <use xlink:href="#DejaVuSerif-20" transform="translate(2758.40625 0)"/>
     <use xlink:href="#DejaVuSerif-73" transform="translate(2790.193359 0)"/>
     <use xlink:href="#DejaVuSerif-63" transform="translate(2841.511719 0)"/>
     <use xlink:href="#DejaVuSerif-6f" transform="translate(2897.517578 0)"/>
     <use xlink:href="#DejaVuSerif-72" transform="translate(2957.722656 0)"/>
     <use xlink:href="#DejaVuSerif-65" transform="translate(3005.525391 0)"/>
     <use xlink:href="#DejaVuSerif-20" transform="translate(3064.705078 0)"/>
     <use xlink:href="#DejaVuSerif-76" transform="translate(3096.492188 0)"/>
     <use xlink:href="#DejaVuSerif-73" transform="translate(3152.986328 0)"/>
     <use xlink:href="#DejaVuSerif-20" transform="translate(3204.304688 0)"/>
     <use xlink:href="#DejaVuSerif-70" transform="translate(3236.091797 0)"/>
     <use xlink:href="#DejaVuSerif-75" transform="translate(3300.105469 0)"/>
     <use xlink:href="#DejaVuSerif-62" transform="translate(3364.509766 0)"/>
     <use xlink:href="#DejaVuSerif-6c" transform="translate(3428.523438 0)"/>
     <use xlink:href="#DejaVuSerif-69" transform="translate(3460.505859 0)"/>
     <use xlink:href="#DejaVuSerif-63" transform="translate(3492.488281 0)"/>
     <use xlink:href="#DejaVuSerif-61" transform="translate(3548.494141 0)"/>
     <use xlink:href="#DejaVuSerif-74" transform="translate(3608.113281 0)"/>
     <use xlink:href="#DejaVuSerif-69" transform="translate(3648.298828 0)"/>
     <use xlink:href="#DejaVuSerif-6f" transform="translate(3680.28125 0)"/>
     <use xlink:href="#DejaVuSerif-6e" transform="translate(3740.486328 0)"/>
     <use xlink:href="#DejaVuSerif-20" transform="translate(3804.890625 0)"/>
     <use xlink:href="#DejaVuSerif-79" transform="translate(3836.677734 0)"/>
     <use xlink:href="#DejaVuSerif-65" transform="translate(3893.171875 0)"/>
     <use xlink:href="#DejaVuSerif-61" transform="translate(3952.351562 0)"/>
     <use xlink:href="#DejaVuSerif-72" transform="translate(4011.970703 0)"/>
    </g>
   </g>
   <g id="legend_1">
    <g id="PathCollection_26">
     <g>
      <use xlink:href="#m14bf44461e" x="69.40875" y="28.377187" style="fill: #2ca02c; stroke: #000000; stroke-width: 0.4"/>
     </g>
    </g>
    <g id="text_43">
     <!-- off-policy MF -->
     <g transform="translate(83.80875 30.477187) scale(0.08 -0.08)">
      <defs>
       <path id="DejaVuSerif-66" d="M 2753 4078 
L 2450 4078 
Q 2447 4313 2317 4434 
Q 2188 4556 1941 4556 
Q 1619 4556 1487 4379 
Q 1356 4203 1356 3750 
L 1356 3322 
L 2284 3322 
L 2284 2988 
L 1356 2988 
L 1356 331 
L 2094 331 
L 2094 0 
L 231 0 
L 231 331 
L 781 331 
L 781 2988 
L 231 2988 
L 231 3322 
L 781 3322 
L 781 3738 
Q 781 4294 1070 4578 
Q 1359 4863 1919 4863 
Q 2128 4863 2337 4825 
Q 2547 4788 2753 4709 
L 2753 4078 
z
" transform="scale(0.015625)"/>
      </defs>
      <use xlink:href="#DejaVuSerif-6f"/>
      <use xlink:href="#DejaVuSerif-66" transform="translate(60.205078 0)"/>
      <use xlink:href="#DejaVuSerif-66" transform="translate(97.216797 0)"/>
      <use xlink:href="#DejaVuSerif-2d" transform="translate(130.603516 0)"/>
      <use xlink:href="#DejaVuSerif-70" transform="translate(164.392578 0)"/>
      <use xlink:href="#DejaVuSerif-6f" transform="translate(228.40625 0)"/>
      <use xlink:href="#DejaVuSerif-6c" transform="translate(288.611328 0)"/>
      <use xlink:href="#DejaVuSerif-69" transform="translate(320.59375 0)"/>
      <use xlink:href="#DejaVuSerif-63" transform="translate(352.576172 0)"/>
      <use xlink:href="#DejaVuSerif-79" transform="translate(408.582031 0)"/>
      <use xlink:href="#DejaVuSerif-20" transform="translate(465.076172 0)"/>
      <use xlink:href="#DejaVuSerif-4d" transform="translate(496.863281 0)"/>
      <use xlink:href="#DejaVuSerif-46" transform="translate(599.255859 0)"/>
     </g>
    </g>
    <g id="PathCollection_27">
     <g>
      <use xlink:href="#m491ac25800" x="69.40875" y="40.233437" style="fill: #1f77b4; stroke: #000000; stroke-width: 0.4"/>
     </g>
    </g>
    <g id="text_44">
     <!-- on-policy MF -->
     <g transform="translate(83.80875 42.333437) scale(0.08 -0.08)">
      <use xlink:href="#DejaVuSerif-6f"/>
      <use xlink:href="#DejaVuSerif-6e" transform="translate(60.205078 0)"/>
      <use xlink:href="#DejaVuSerif-2d" transform="translate(124.609375 0)"/>
      <use xlink:href="#DejaVuSerif-70" transform="translate(158.398438 0)"/>
      <use xlink:href="#DejaVuSerif-6f" transform="translate(222.412109 0)"/>
      <use xlink:href="#DejaVuSerif-6c" transform="translate(282.617188 0)"/>
      <use xlink:href="#DejaVuSerif-69" transform="translate(314.599609 0)"/>
      <use xlink:href="#DejaVuSerif-63" transform="translate(346.582031 0)"/>
      <use xlink:href="#DejaVuSerif-79" transform="translate(402.587891 0)"/>
      <use xlink:href="#DejaVuSerif-20" transform="translate(459.082031 0)"/>
      <use xlink:href="#DejaVuSerif-4d" transform="translate(490.869141 0)"/>
      <use xlink:href="#DejaVuSerif-46" transform="translate(593.261719 0)"/>
     </g>
    </g>
    <g id="PathCollection_28">
     <g>
      <use xlink:href="#mf65c70e2c8" x="69.40875" y="52.089687" style="fill: #d62728; stroke: #000000; stroke-width: 0.4"/>
     </g>
    </g>
    <g id="text_45">
     <!-- model-based -->
     <g transform="translate(83.80875 54.189687) scale(0.08 -0.08)">
      <use xlink:href="#DejaVuSerif-6d"/>
      <use xlink:href="#DejaVuSerif-6f" transform="translate(94.824219 0)"/>
      <use xlink:href="#DejaVuSerif-64" transform="translate(155.029297 0)"/>
      <use xlink:href="#DejaVuSerif-65" transform="translate(219.042969 0)"/>
      <use xlink:href="#DejaVuSerif-6c" transform="translate(278.222656 0)"/>
      <use xlink:href="#DejaVuSerif-2d" transform="translate(310.205078 0)"/>
      <use xlink:href="#DejaVuSerif-62" transform="translate(343.994141 0)"/>
      <use xlink:href="#DejaVuSerif-61" transform="translate(408.007812 0)"/>
      <use xlink:href="#DejaVuSerif-73" transform="translate(467.626953 0)"/>
      <use xlink:href="#DejaVuSerif-65" transform="translate(518.945312 0)"/>
      <use xlink:href="#DejaVuSerif-64" transform="translate(578.125 0)"/>
     </g>
    </g>
    <g id="PathCollection_29">
     <g>
      <use xlink:href="#mbb5a928d65" x="161.30125" y="28.377187" style="fill: #7f7f7f; fill-opacity: 0.55; stroke: #7f7f7f; stroke-opacity: 0.55; stroke-width: 0.4"/>
     </g>
    </g>
    <g id="text_46">
     <!-- foundation -->
     <g transform="translate(175.70125 30.477187) scale(0.08 -0.08)">
      <use xlink:href="#DejaVuSerif-66"/>
      <use xlink:href="#DejaVuSerif-6f" transform="translate(37.011719 0)"/>
      <use xlink:href="#DejaVuSerif-75" transform="translate(97.216797 0)"/>
      <use xlink:href="#DejaVuSerif-6e" transform="translate(161.621094 0)"/>
      <use xlink:href="#DejaVuSerif-64" transform="translate(226.025391 0)"/>
      <use xlink:href="#DejaVuSerif-61" transform="translate(290.039062 0)"/>
      <use xlink:href="#DejaVuSerif-74" transform="translate(349.658203 0)"/>
      <use xlink:href="#DejaVuSerif-69" transform="translate(389.84375 0)"/>
      <use xlink:href="#DejaVuSerif-6f" transform="translate(421.826172 0)"/>
      <use xlink:href="#DejaVuSerif-6e" transform="translate(482.03125 0)"/>
     </g>
    </g>
    <g id="PathCollection_30">
     <g>
      <use xlink:href="#m67388a24f9" x="161.30125" y="40.119687" style="fill: #8c564b; fill-opacity: 0.55; stroke: #000000; stroke-opacity: 0.55; stroke-width: 0.4"/>
     </g>
    </g>
    <g id="text_47">
     <!-- offline -->
     <g transform="translate(175.70125 42.219687) scale(0.08 -0.08)">
      <use xlink:href="#DejaVuSerif-6f"/>
      <use xlink:href="#DejaVuSerif-66" transform="translate(60.205078 0)"/>
      <use xlink:href="#DejaVuSerif-66" transform="translate(97.216797 0)"/>
      <use xlink:href="#DejaVuSerif-6c" transform="translate(134.228516 0)"/>
      <use xlink:href="#DejaVuSerif-69" transform="translate(166.210938 0)"/>
      <use xlink:href="#DejaVuSerif-6e" transform="translate(198.193359 0)"/>
      <use xlink:href="#DejaVuSerif-65" transform="translate(262.597656 0)"/>
     </g>
    </g>
   </g>
  </g>
 </g>
 <defs>
  <clipPath id="pddf45711ee">
   <rect x="54.20875" y="17.198437" width="592.97487" height="247.24"/>
  </clipPath>
 </defs>
</svg>
