<?xml version="1.0" encoding="utf-8" standalone="no"?>
<!DOCTYPE svg PUBLIC "-//W3C//DTD SVG 1.1//EN"
  "http://www.w3.org/Graphics/SVG/1.1/DTD/svg11.dtd">
<svg xmlns:xlink="http://www.w3.org/1999/xlink" width="671.768307pt" height="309.278437pt" viewBox="0 0 671.768307 309.278437" xmlns="http://www.w3.org/2000/svg" version="1.1">
 <metadata>
  <rdf:RDF xmlns:dc="http://purl.org/dc/elements/1.1/" xmlns:cc="http://creativecommons.org/ns#" xmlns:rdf="http://www.w3.org/1999/02/22-rdf-syntax-ns#">
   <cc:Work>
    <dc:type rdf:resource="http://purl.org/dc/dcmitype/StillImage"/>
    <dc:date>2026-06-25T23:23:03.158167</dc:date>
    <dc:format>image/svg+xml</dc:format>
    <dc:creator>
     <cc:Agent>
      <dc:title>Matplotlib v3.11.0, https://matplotlib.org/</dc:title>
     </cc:Agent>
    </dc:creator>
   </cc:Work>
  </rdf:RDF>
 </metadata>
 <defs>
  <style type="text/css">*{stroke-linejoin: round; stroke-linecap: butt}</style>
 </defs>
 <g id="figure_1">
  <g id="patch_1">
   <path d="M 0 309.278437 
L 671.768307 309.278437 
L 671.768307 0 
L 0 0 
z
" style="fill: #ffffff"/>
  </g>
  <g id="axes_1">
   <g id="patch_2">
    <path d="M 53.650781 271.078437 
L 651.843307 271.078437 
L 651.843307 20.798437 
L 53.650781 20.798437 
z
" style="fill: #ffffff"/>
   </g>
   <g id="matplotlib.axis_1">
    <g id="xtick_1">
     <g id="line2d_1">
      <path d="M 131.675893 271.078437 
L 131.675893 20.798437 
" clip-path="url(#pb9d0890639)" style="fill: none; stroke-dasharray: 0.8,1.32; stroke-dashoffset: 0; stroke: #b0b0b0; stroke-opacity: 0.3; stroke-width: 0.8"/>
     </g>
     <g id="line2d_2">
      <defs>
       <path id="m1f7a28897f" d="M 0 0 
L 0 3.5 
" style="stroke: #000000; stroke-width: 0.8"/>
      </defs>
      <g>
       <use xlink:href="#m1f7a28897f" x="131.675893" y="271.078437" style="stroke: #000000; stroke-width: 0.8"/>
      </g>
     </g>
     <g id="text_1">
      <!-- 1995 -->
      <g transform="translate(118.950893 285.676094) scale(0.1 -0.1)">
       <defs>
        <path id="DejaVuSans-14" d="M 794 531 
L 1825 531 
L 1825 4091 
L 703 3866 
L 703 4441 
L 1819 4666 
L 2450 4666 
L 2450 531 
L 3481 531 
L 3481 0 
L 794 0 
L 794 531 
z
" transform="scale(0.015625)"/>
        <path id="DejaVuSans-1c" d="M 703 97 
L 703 672 
Q 941 559 1184 500 
Q 1428 441 1663 441 
Q 2288 441 2617 861 
Q 2947 1281 2994 2138 
Q 2813 1869 2534 1725 
Q 2256 1581 1919 1581 
Q 1219 1581 811 2004 
Q 403 2428 403 3163 
Q 403 3881 828 4315 
Q 1253 4750 1959 4750 
Q 2769 4750 3195 4129 
Q 3622 3509 3622 2328 
Q 3622 1225 3098 567 
Q 2575 -91 1691 -91 
Q 1453 -91 1209 -44 
Q 966 3 703 97 
z
M 1959 2075 
Q 2384 2075 2632 2365 
Q 2881 2656 2881 3163 
Q 2881 3666 2632 3958 
Q 2384 4250 1959 4250 
Q 1534 4250 1286 3958 
Q 1038 3666 1038 3163 
Q 1038 2656 1286 2365 
Q 1534 2075 1959 2075 
z
" transform="scale(0.015625)"/>
        <path id="DejaVuSans-18" d="M 691 4666 
L 3169 4666 
L 3169 4134 
L 1269 4134 
L 1269 2991 
Q 1406 3038 1543 3061 
Q 1681 3084 1819 3084 
Q 2600 3084 3056 2656 
Q 3513 2228 3513 1497 
Q 3513 744 3044 326 
Q 2575 -91 1722 -91 
Q 1428 -91 1123 -41 
Q 819 9 494 109 
L 494 744 
Q 775 591 1075 516 
Q 1375 441 1709 441 
Q 2250 441 2565 725 
Q 2881 1009 2881 1497 
Q 2881 1984 2565 2268 
Q 2250 2553 1709 2553 
Q 1456 2553 1204 2497 
Q 953 2441 691 2322 
L 691 4666 
z
" transform="scale(0.015625)"/>
       </defs>
       <use xlink:href="#DejaVuSans-14"/>
       <use xlink:href="#DejaVuSans-1c" transform="translate(63.625 0)"/>
       <use xlink:href="#DejaVuSans-1c" transform="translate(127.25 0)"/>
       <use xlink:href="#DejaVuSans-18" transform="translate(190.875 0)"/>
      </g>
     </g>
    </g>
    <g id="xtick_2">
     <g id="line2d_3">
      <path d="M 218.370462 271.078437 
L 218.370462 20.798437 
" clip-path="url(#pb9d0890639)" style="fill: none; stroke-dasharray: 0.8,1.32; stroke-dashoffset: 0; stroke: #b0b0b0; stroke-opacity: 0.3; stroke-width: 0.8"/>
     </g>
     <g id="line2d_4">
      <g>
       <use xlink:href="#m1f7a28897f" x="218.370462" y="271.078437" style="stroke: #000000; stroke-width: 0.8"/>
      </g>
     </g>
     <g id="text_2">
      <!-- 2000 -->
      <g transform="translate(205.645462 285.676094) scale(0.1 -0.1)">
       <defs>
        <path id="DejaVuSans-15" d="M 1228 531 
L 3431 531 
L 3431 0 
L 469 0 
L 469 531 
Q 828 903 1448 1529 
Q 2069 2156 2228 2338 
Q 2531 2678 2651 2914 
Q 2772 3150 2772 3378 
Q 2772 3750 2511 3984 
Q 2250 4219 1831 4219 
Q 1534 4219 1204 4116 
Q 875 4013 500 3803 
L 500 4441 
Q 881 4594 1212 4672 
Q 1544 4750 1819 4750 
Q 2544 4750 2975 4387 
Q 3406 4025 3406 3419 
Q 3406 3131 3298 2873 
Q 3191 2616 2906 2266 
Q 2828 2175 2409 1742 
Q 1991 1309 1228 531 
z
" transform="scale(0.015625)"/>
        <path id="DejaVuSans-13" d="M 2034 4250 
Q 1547 4250 1301 3770 
Q 1056 3291 1056 2328 
Q 1056 1369 1301 889 
Q 1547 409 2034 409 
Q 2525 409 2770 889 
Q 3016 1369 3016 2328 
Q 3016 3291 2770 3770 
Q 2525 4250 2034 4250 
z
M 2034 4750 
Q 2819 4750 3233 4129 
Q 3647 3509 3647 2328 
Q 3647 1150 3233 529 
Q 2819 -91 2034 -91 
Q 1250 -91 836 529 
Q 422 1150 422 2328 
Q 422 3509 836 4129 
Q 1250 4750 2034 4750 
z
" transform="scale(0.015625)"/>
       </defs>
       <use xlink:href="#DejaVuSans-15"/>
       <use xlink:href="#DejaVuSans-13" transform="translate(63.625 0)"/>
       <use xlink:href="#DejaVuSans-13" transform="translate(127.25 0)"/>
       <use xlink:href="#DejaVuSans-13" transform="translate(190.875 0)"/>
      </g>
     </g>
    </g>
    <g id="xtick_3">
     <g id="line2d_5">
      <path d="M 305.065031 271.078437 
L 305.065031 20.798437 
" clip-path="url(#pb9d0890639)" style="fill: none; stroke-dasharray: 0.8,1.32; stroke-dashoffset: 0; stroke: #b0b0b0; stroke-opacity: 0.3; stroke-width: 0.8"/>
     </g>
     <g id="line2d_6">
      <g>
       <use xlink:href="#m1f7a28897f" x="305.065031" y="271.078437" style="stroke: #000000; stroke-width: 0.8"/>
      </g>
     </g>
     <g id="text_3">
      <!-- 2005 -->
      <g transform="translate(292.340031 285.676094) scale(0.1 -0.1)">
       <use xlink:href="#DejaVuSans-15"/>
       <use xlink:href="#DejaVuSans-13" transform="translate(63.625 0)"/>
       <use xlink:href="#DejaVuSans-13" transform="translate(127.25 0)"/>
       <use xlink:href="#DejaVuSans-18" transform="translate(190.875 0)"/>
      </g>
     </g>
    </g>
    <g id="xtick_4">
     <g id="line2d_7">
      <path d="M 391.7596 271.078437 
L 391.7596 20.798437 
" clip-path="url(#pb9d0890639)" style="fill: none; stroke-dasharray: 0.8,1.32; stroke-dashoffset: 0; stroke: #b0b0b0; stroke-opacity: 0.3; stroke-width: 0.8"/>
     </g>
     <g id="line2d_8">
      <g>
       <use xlink:href="#m1f7a28897f" x="391.7596" y="271.078437" style="stroke: #000000; stroke-width: 0.8"/>
      </g>
     </g>
     <g id="text_4">
      <!-- 2010 -->
      <g transform="translate(379.0346 285.676094) scale(0.1 -0.1)">
       <use xlink:href="#DejaVuSans-15"/>
       <use xlink:href="#DejaVuSans-13" transform="translate(63.625 0)"/>
       <use xlink:href="#DejaVuSans-14" transform="translate(127.25 0)"/>
       <use xlink:href="#DejaVuSans-13" transform="translate(190.875 0)"/>
      </g>
     </g>
    </g>
    <g id="xtick_5">
     <g id="line2d_9">
      <path d="M 478.454169 271.078437 
L 478.454169 20.798437 
" clip-path="url(#pb9d0890639)" style="fill: none; stroke-dasharray: 0.8,1.32; stroke-dashoffset: 0; stroke: #b0b0b0; stroke-opacity: 0.3; stroke-width: 0.8"/>
     </g>
     <g id="line2d_10">
      <g>
       <use xlink:href="#m1f7a28897f" x="478.454169" y="271.078437" style="stroke: #000000; stroke-width: 0.8"/>
      </g>
     </g>
     <g id="text_5">
      <!-- 2015 -->
      <g transform="translate(465.729169 285.676094) scale(0.1 -0.1)">
       <use xlink:href="#DejaVuSans-15"/>
       <use xlink:href="#DejaVuSans-13" transform="translate(63.625 0)"/>
       <use xlink:href="#DejaVuSans-14" transform="translate(127.25 0)"/>
       <use xlink:href="#DejaVuSans-18" transform="translate(190.875 0)"/>
      </g>
     </g>
    </g>
    <g id="xtick_6">
     <g id="line2d_11">
      <path d="M 565.148738 271.078437 
L 565.148738 20.798437 
" clip-path="url(#pb9d0890639)" style="fill: none; stroke-dasharray: 0.8,1.32; stroke-dashoffset: 0; stroke: #b0b0b0; stroke-opacity: 0.3; stroke-width: 0.8"/>
     </g>
     <g id="line2d_12">
      <g>
       <use xlink:href="#m1f7a28897f" x="565.148738" y="271.078437" style="stroke: #000000; stroke-width: 0.8"/>
      </g>
     </g>
     <g id="text_6">
      <!-- 2020 -->
      <g transform="translate(552.423738 285.676094) scale(0.1 -0.1)">
       <use xlink:href="#DejaVuSans-15"/>
       <use xlink:href="#DejaVuSans-13" transform="translate(63.625 0)"/>
       <use xlink:href="#DejaVuSans-15" transform="translate(127.25 0)"/>
       <use xlink:href="#DejaVuSans-13" transform="translate(190.875 0)"/>
      </g>
     </g>
    </g>
    <g id="xtick_7">
     <g id="line2d_13">
      <path d="M 651.843307 271.078437 
L 651.843307 20.798437 
" clip-path="url(#pb9d0890639)" style="fill: none; stroke-dasharray: 0.8,1.32; stroke-dashoffset: 0; stroke: #b0b0b0; stroke-opacity: 0.3; stroke-width: 0.8"/>
     </g>
     <g id="line2d_14">
      <g>
       <use xlink:href="#m1f7a28897f" x="651.843307" y="271.078437" style="stroke: #000000; stroke-width: 0.8"/>
      </g>
     </g>
     <g id="text_7">
      <!-- 2025 -->
      <g transform="translate(639.118307 285.676094) scale(0.1 -0.1)">
       <use xlink:href="#DejaVuSans-15"/>
       <use xlink:href="#DejaVuSans-13" transform="translate(63.625 0)"/>
       <use xlink:href="#DejaVuSans-15" transform="translate(127.25 0)"/>
       <use xlink:href="#DejaVuSans-18" transform="translate(190.875 0)"/>
      </g>
     </g>
    </g>
    <g id="text_8">
     <!-- year -->
     <g transform="translate(341.591575 299.676094) scale(0.1 -0.1)">
      <defs>
       <path id="DejaVuSans-5c" d="M 2059 -325 
Q 1816 -950 1584 -1140 
Q 1353 -1331 966 -1331 
L 506 -1331 
L 506 -850 
L 844 -850 
Q 1081 -850 1212 -737 
Q 1344 -625 1503 -206 
L 1606 56 
L 191 3500 
L 800 3500 
L 1894 763 
L 2988 3500 
L 3597 3500 
L 2059 -325 
z
" transform="scale(0.015625)"/>
       <path id="DejaVuSans-48" d="M 3597 1894 
L 3597 1613 
L 953 1613 
Q 991 1019 1311 708 
Q 1631 397 2203 397 
Q 2534 397 2845 478 
Q 3156 559 3463 722 
L 3463 178 
Q 3153 47 2828 -22 
Q 2503 -91 2169 -91 
Q 1331 -91 842 396 
Q 353 884 353 1716 
Q 353 2575 817 3079 
Q 1281 3584 2069 3584 
Q 2775 3584 3186 3129 
Q 3597 2675 3597 1894 
z
M 3022 2063 
Q 3016 2534 2758 2815 
Q 2500 3097 2075 3097 
Q 1594 3097 1305 2825 
Q 1016 2553 972 2059 
L 3022 2063 
z
" transform="scale(0.015625)"/>
       <path id="DejaVuSans-44" d="M 2194 1759 
Q 1497 1759 1228 1600 
Q 959 1441 959 1056 
Q 959 750 1161 570 
Q 1363 391 1709 391 
Q 2188 391 2477 730 
Q 2766 1069 2766 1631 
L 2766 1759 
L 2194 1759 
z
M 3341 1997 
L 3341 0 
L 2766 0 
L 2766 531 
Q 2569 213 2275 61 
Q 1981 -91 1556 -91 
Q 1019 -91 701 211 
Q 384 513 384 1019 
Q 384 1609 779 1909 
Q 1175 2209 1959 2209 
L 2766 2209 
L 2766 2266 
Q 2766 2663 2505 2880 
Q 2244 3097 1772 3097 
Q 1472 3097 1187 3025 
Q 903 2953 641 2809 
L 641 3341 
Q 956 3463 1253 3523 
Q 1550 3584 1831 3584 
Q 2591 3584 2966 3190 
Q 3341 2797 3341 1997 
z
" transform="scale(0.015625)"/>
       <path id="DejaVuSans-55" d="M 2631 2963 
Q 2534 3019 2420 3045 
Q 2306 3072 2169 3072 
Q 1681 3072 1420 2755 
Q 1159 2438 1159 1844 
L 1159 0 
L 581 0 
L 581 3500 
L 1159 3500 
L 1159 2956 
Q 1341 3275 1631 3429 
Q 1922 3584 2338 3584 
Q 2397 3584 2469 3576 
Q 2541 3569 2628 3553 
L 2631 2963 
z
" transform="scale(0.015625)"/>
      </defs>
      <use xlink:href="#DejaVuSans-5c"/>
      <use xlink:href="#DejaVuSans-48" transform="translate(59.1875 0)"/>
      <use xlink:href="#DejaVuSans-44" transform="translate(120.71875 0)"/>
      <use xlink:href="#DejaVuSans-55" transform="translate(182 0)"/>
     </g>
    </g>
   </g>
   <g id="matplotlib.axis_2">
    <g id="ytick_1">
     <g id="line2d_15">
      <path d="M 53.650781 261.808808 
L 651.843307 261.808808 
" clip-path="url(#pb9d0890639)" style="fill: none; stroke-dasharray: 0.8,1.32; stroke-dashoffset: 0; stroke: #b0b0b0; stroke-opacity: 0.3; stroke-width: 0.8"/>
     </g>
     <g id="line2d_16">
      <defs>
       <path id="mbea3bef3d8" d="M 0 0 
L -3.5 0 
" style="stroke: #000000; stroke-width: 0.8"/>
      </defs>
      <g>
       <use xlink:href="#mbea3bef3d8" x="53.650781" y="261.808808" style="stroke: #000000; stroke-width: 0.8"/>
      </g>
     </g>
     <g id="text_9">
      <!-- 0 -->
      <g transform="translate(40.288281 265.607636) scale(0.1 -0.1)">
       <use xlink:href="#DejaVuSans-13"/>
      </g>
     </g>
    </g>
    <g id="ytick_2">
     <g id="line2d_17">
      <path d="M 53.650781 215.46066 
L 651.843307 215.46066 
" clip-path="url(#pb9d0890639)" style="fill: none; stroke-dasharray: 0.8,1.32; stroke-dashoffset: 0; stroke: #b0b0b0; stroke-opacity: 0.3; stroke-width: 0.8"/>
     </g>
     <g id="line2d_18">
      <g>
       <use xlink:href="#mbea3bef3d8" x="53.650781" y="215.46066" style="stroke: #000000; stroke-width: 0.8"/>
      </g>
     </g>
     <g id="text_10">
      <!-- 1000 -->
      <g transform="translate(21.200781 219.259488) scale(0.1 -0.1)">
       <use xlink:href="#DejaVuSans-14"/>
       <use xlink:href="#DejaVuSans-13" transform="translate(63.625 0)"/>
       <use xlink:href="#DejaVuSans-13" transform="translate(127.25 0)"/>
       <use xlink:href="#DejaVuSans-13" transform="translate(190.875 0)"/>
      </g>
     </g>
    </g>
    <g id="ytick_3">
     <g id="line2d_19">
      <path d="M 53.650781 169.112512 
L 651.843307 169.112512 
" clip-path="url(#pb9d0890639)" style="fill: none; stroke-dasharray: 0.8,1.32; stroke-dashoffset: 0; stroke: #b0b0b0; stroke-opacity: 0.3; stroke-width: 0.8"/>
     </g>
     <g id="line2d_20">
      <g>
       <use xlink:href="#mbea3bef3d8" x="53.650781" y="169.112512" style="stroke: #000000; stroke-width: 0.8"/>
      </g>
     </g>
     <g id="text_11">
      <!-- 2000 -->
      <g transform="translate(21.200781 172.91134) scale(0.1 -0.1)">
       <use xlink:href="#DejaVuSans-15"/>
       <use xlink:href="#DejaVuSans-13" transform="translate(63.625 0)"/>
       <use xlink:href="#DejaVuSans-13" transform="translate(127.25 0)"/>
       <use xlink:href="#DejaVuSans-13" transform="translate(190.875 0)"/>
      </g>
     </g>
    </g>
    <g id="ytick_4">
     <g id="line2d_21">
      <path d="M 53.650781 122.764363 
L 651.843307 122.764363 
" clip-path="url(#pb9d0890639)" style="fill: none; stroke-dasharray: 0.8,1.32; stroke-dashoffset: 0; stroke: #b0b0b0; stroke-opacity: 0.3; stroke-width: 0.8"/>
     </g>
     <g id="line2d_22">
      <g>
       <use xlink:href="#mbea3bef3d8" x="53.650781" y="122.764363" style="stroke: #000000; stroke-width: 0.8"/>
      </g>
     </g>
     <g id="text_12">
      <!-- 3000 -->
      <g transform="translate(21.200781 126.563192) scale(0.1 -0.1)">
       <defs>
        <path id="DejaVuSans-16" d="M 2597 2516 
Q 3050 2419 3304 2112 
Q 3559 1806 3559 1356 
Q 3559 666 3084 287 
Q 2609 -91 1734 -91 
Q 1441 -91 1130 -33 
Q 819 25 488 141 
L 488 750 
Q 750 597 1062 519 
Q 1375 441 1716 441 
Q 2309 441 2620 675 
Q 2931 909 2931 1356 
Q 2931 1769 2642 2001 
Q 2353 2234 1838 2234 
L 1294 2234 
L 1294 2753 
L 1863 2753 
Q 2328 2753 2575 2939 
Q 2822 3125 2822 3475 
Q 2822 3834 2567 4026 
Q 2313 4219 1838 4219 
Q 1578 4219 1281 4162 
Q 984 4106 628 3988 
L 628 4550 
Q 988 4650 1302 4700 
Q 1616 4750 1894 4750 
Q 2613 4750 3031 4423 
Q 3450 4097 3450 3541 
Q 3450 3153 3228 2886 
Q 3006 2619 2597 2516 
z
" transform="scale(0.015625)"/>
       </defs>
       <use xlink:href="#DejaVuSans-16"/>
       <use xlink:href="#DejaVuSans-13" transform="translate(63.625 0)"/>
       <use xlink:href="#DejaVuSans-13" transform="translate(127.25 0)"/>
       <use xlink:href="#DejaVuSans-13" transform="translate(190.875 0)"/>
      </g>
     </g>
    </g>
    <g id="ytick_5">
     <g id="line2d_23">
      <path d="M 53.650781 76.416215 
L 651.843307 76.416215 
" clip-path="url(#pb9d0890639)" style="fill: none; stroke-dasharray: 0.8,1.32; stroke-dashoffset: 0; stroke: #b0b0b0; stroke-opacity: 0.3; stroke-width: 0.8"/>
     </g>
     <g id="line2d_24">
      <g>
       <use xlink:href="#mbea3bef3d8" x="53.650781" y="76.416215" style="stroke: #000000; stroke-width: 0.8"/>
      </g>
     </g>
     <g id="text_13">
      <!-- 4000 -->
      <g transform="translate(21.200781 80.215043) scale(0.1 -0.1)">
       <defs>
        <path id="DejaVuSans-17" d="M 2419 4116 
L 825 1625 
L 2419 1625 
L 2419 4116 
z
M 2253 4666 
L 3047 4666 
L 3047 1625 
L 3713 1625 
L 3713 1100 
L 3047 1100 
L 3047 0 
L 2419 0 
L 2419 1100 
L 313 1100 
L 313 1709 
L 2253 4666 
z
" transform="scale(0.015625)"/>
       </defs>
       <use xlink:href="#DejaVuSans-17"/>
       <use xlink:href="#DejaVuSans-13" transform="translate(63.625 0)"/>
       <use xlink:href="#DejaVuSans-13" transform="translate(127.25 0)"/>
       <use xlink:href="#DejaVuSans-13" transform="translate(190.875 0)"/>
      </g>
     </g>
    </g>
    <g id="ytick_6">
     <g id="line2d_25">
      <path d="M 53.650781 30.068067 
L 651.843307 30.068067 
" clip-path="url(#pb9d0890639)" style="fill: none; stroke-dasharray: 0.8,1.32; stroke-dashoffset: 0; stroke: #b0b0b0; stroke-opacity: 0.3; stroke-width: 0.8"/>
     </g>
     <g id="line2d_26">
      <g>
       <use xlink:href="#mbea3bef3d8" x="53.650781" y="30.068067" style="stroke: #000000; stroke-width: 0.8"/>
      </g>
     </g>
     <g id="text_14">
      <!-- 5000 -->
      <g transform="translate(21.200781 33.866895) scale(0.1 -0.1)">
       <use xlink:href="#DejaVuSans-18"/>
       <use xlink:href="#DejaVuSans-13" transform="translate(63.625 0)"/>
       <use xlink:href="#DejaVuSans-13" transform="translate(127.25 0)"/>
       <use xlink:href="#DejaVuSans-13" transform="translate(190.875 0)"/>
      </g>
     </g>
    </g>
    <g id="text_15">
     <!-- Atari median HNS (%) -->
     <g transform="translate(14.798438 200.5775) rotate(-90) scale(0.1 -0.1)">
      <defs>
       <path id="DejaVuSans-24" d="M 2188 4044 
L 1331 1722 
L 3047 1722 
L 2188 4044 
z
M 1831 4666 
L 2547 4666 
L 4325 0 
L 3669 0 
L 3244 1197 
L 1141 1197 
L 716 0 
L 50 0 
L 1831 4666 
z
" transform="scale(0.015625)"/>
       <path id="DejaVuSans-57" d="M 1172 4494 
L 1172 3500 
L 2356 3500 
L 2356 3053 
L 1172 3053 
L 1172 1153 
Q 1172 725 1289 603 
Q 1406 481 1766 481 
L 2356 481 
L 2356 0 
L 1766 0 
Q 1100 0 847 248 
Q 594 497 594 1153 
L 594 3053 
L 172 3053 
L 172 3500 
L 594 3500 
L 594 4494 
L 1172 4494 
z
" transform="scale(0.015625)"/>
       <path id="DejaVuSans-4c" d="M 603 3500 
L 1178 3500 
L 1178 0 
L 603 0 
L 603 3500 
z
M 603 4863 
L 1178 4863 
L 1178 4134 
L 603 4134 
L 603 4863 
z
" transform="scale(0.015625)"/>
       <path id="DejaVuSans-3" transform="scale(0.015625)"/>
       <path id="DejaVuSans-50" d="M 3328 2828 
Q 3544 3216 3844 3400 
Q 4144 3584 4550 3584 
Q 5097 3584 5394 3201 
Q 5691 2819 5691 2113 
L 5691 0 
L 5113 0 
L 5113 2094 
Q 5113 2597 4934 2840 
Q 4756 3084 4391 3084 
Q 3944 3084 3684 2787 
Q 3425 2491 3425 1978 
L 3425 0 
L 2847 0 
L 2847 2094 
Q 2847 2600 2669 2842 
Q 2491 3084 2119 3084 
Q 1678 3084 1418 2786 
Q 1159 2488 1159 1978 
L 1159 0 
L 581 0 
L 581 3500 
L 1159 3500 
L 1159 2956 
Q 1356 3278 1631 3431 
Q 1906 3584 2284 3584 
Q 2666 3584 2933 3390 
Q 3200 3197 3328 2828 
z
" transform="scale(0.015625)"/>
       <path id="DejaVuSans-47" d="M 2906 2969 
L 2906 4863 
L 3481 4863 
L 3481 0 
L 2906 0 
L 2906 525 
Q 2725 213 2448 61 
Q 2172 -91 1784 -91 
Q 1150 -91 751 415 
Q 353 922 353 1747 
Q 353 2572 751 3078 
Q 1150 3584 1784 3584 
Q 2172 3584 2448 3432 
Q 2725 3281 2906 2969 
z
M 947 1747 
Q 947 1113 1208 752 
Q 1469 391 1925 391 
Q 2381 391 2643 752 
Q 2906 1113 2906 1747 
Q 2906 2381 2643 2742 
Q 2381 3103 1925 3103 
Q 1469 3103 1208 2742 
Q 947 2381 947 1747 
z
" transform="scale(0.015625)"/>
       <path id="DejaVuSans-51" d="M 3513 2113 
L 3513 0 
L 2938 0 
L 2938 2094 
Q 2938 2591 2744 2837 
Q 2550 3084 2163 3084 
Q 1697 3084 1428 2787 
Q 1159 2491 1159 1978 
L 1159 0 
L 581 0 
L 581 3500 
L 1159 3500 
L 1159 2956 
Q 1366 3272 1645 3428 
Q 1925 3584 2291 3584 
Q 2894 3584 3203 3211 
Q 3513 2838 3513 2113 
z
" transform="scale(0.015625)"/>
       <path id="DejaVuSans-2b" d="M 628 4666 
L 1259 4666 
L 1259 2753 
L 3553 2753 
L 3553 4666 
L 4184 4666 
L 4184 0 
L 3553 0 
L 3553 2222 
L 1259 2222 
L 1259 0 
L 628 0 
L 628 4666 
z
" transform="scale(0.015625)"/>
       <path id="DejaVuSans-31" d="M 628 4666 
L 1478 4666 
L 3547 763 
L 3547 4666 
L 4159 4666 
L 4159 0 
L 3309 0 
L 1241 3903 
L 1241 0 
L 628 0 
L 628 4666 
z
" transform="scale(0.015625)"/>
       <path id="DejaVuSans-36" d="M 3425 4513 
L 3425 3897 
Q 3066 4069 2747 4153 
Q 2428 4238 2131 4238 
Q 1616 4238 1336 4038 
Q 1056 3838 1056 3469 
Q 1056 3159 1242 3001 
Q 1428 2844 1947 2747 
L 2328 2669 
Q 3034 2534 3370 2195 
Q 3706 1856 3706 1288 
Q 3706 609 3251 259 
Q 2797 -91 1919 -91 
Q 1588 -91 1214 -16 
Q 841 59 441 206 
L 441 856 
Q 825 641 1194 531 
Q 1563 422 1919 422 
Q 2459 422 2753 634 
Q 3047 847 3047 1241 
Q 3047 1584 2836 1778 
Q 2625 1972 2144 2069 
L 1759 2144 
Q 1053 2284 737 2584 
Q 422 2884 422 3419 
Q 422 4038 858 4394 
Q 1294 4750 2059 4750 
Q 2388 4750 2728 4690 
Q 3069 4631 3425 4513 
z
" transform="scale(0.015625)"/>
       <path id="DejaVuSans-b" d="M 1984 4856 
Q 1566 4138 1362 3434 
Q 1159 2731 1159 2009 
Q 1159 1288 1364 580 
Q 1569 -128 1984 -844 
L 1484 -844 
Q 1016 -109 783 600 
Q 550 1309 550 2009 
Q 550 2706 781 3412 
Q 1013 4119 1484 4856 
L 1984 4856 
z
" transform="scale(0.015625)"/>
       <path id="DejaVuSans-8" d="M 4653 2053 
Q 4381 2053 4226 1822 
Q 4072 1591 4072 1178 
Q 4072 772 4226 539 
Q 4381 306 4653 306 
Q 4919 306 5073 539 
Q 5228 772 5228 1178 
Q 5228 1588 5073 1820 
Q 4919 2053 4653 2053 
z
M 4653 2450 
Q 5147 2450 5437 2106 
Q 5728 1763 5728 1178 
Q 5728 594 5436 251 
Q 5144 -91 4653 -91 
Q 4153 -91 3862 251 
Q 3572 594 3572 1178 
Q 3572 1766 3864 2108 
Q 4156 2450 4653 2450 
z
M 1428 4353 
Q 1159 4353 1004 4120 
Q 850 3888 850 3481 
Q 850 3069 1003 2837 
Q 1156 2606 1428 2606 
Q 1700 2606 1854 2837 
Q 2009 3069 2009 3481 
Q 2009 3884 1853 4118 
Q 1697 4353 1428 4353 
z
M 4250 4750 
L 4750 4750 
L 1831 -91 
L 1331 -91 
L 4250 4750 
z
M 1428 4750 
Q 1922 4750 2215 4408 
Q 2509 4066 2509 3481 
Q 2509 2891 2217 2550 
Q 1925 2209 1428 2209 
Q 931 2209 642 2551 
Q 353 2894 353 3481 
Q 353 4063 643 4406 
Q 934 4750 1428 4750 
z
" transform="scale(0.015625)"/>
       <path id="DejaVuSans-c" d="M 513 4856 
L 1013 4856 
Q 1481 4119 1714 3412 
Q 1947 2706 1947 2009 
Q 1947 1309 1714 600 
Q 1481 -109 1013 -844 
L 513 -844 
Q 928 -128 1133 580 
Q 1338 1288 1338 2009 
Q 1338 2731 1133 3434 
Q 928 4138 513 4856 
z
" transform="scale(0.015625)"/>
      </defs>
      <use xlink:href="#DejaVuSans-24"/>
      <use xlink:href="#DejaVuSans-57" transform="translate(66.65625 0)"/>
      <use xlink:href="#DejaVuSans-44" transform="translate(105.859375 0)"/>
      <use xlink:href="#DejaVuSans-55" transform="translate(167.140625 0)"/>
      <use xlink:href="#DejaVuSans-4c" transform="translate(208.25 0)"/>
      <use xlink:href="#DejaVuSans-3" transform="translate(236.03125 0)"/>
      <use xlink:href="#DejaVuSans-50" transform="translate(267.8125 0)"/>
      <use xlink:href="#DejaVuSans-48" transform="translate(365.21875 0)"/>
      <use xlink:href="#DejaVuSans-47" transform="translate(426.75 0)"/>
      <use xlink:href="#DejaVuSans-4c" transform="translate(490.234375 0)"/>
      <use xlink:href="#DejaVuSans-44" transform="translate(518.015625 0)"/>
      <use xlink:href="#DejaVuSans-51" transform="translate(579.296875 0)"/>
      <use xlink:href="#DejaVuSans-3" transform="translate(642.671875 0)"/>
      <use xlink:href="#DejaVuSans-2b" transform="translate(674.453125 0)"/>
      <use xlink:href="#DejaVuSans-31" transform="translate(749.65625 0)"/>
      <use xlink:href="#DejaVuSans-36" transform="translate(824.46875 0)"/>
      <use xlink:href="#DejaVuSans-3" transform="translate(887.953125 0)"/>
      <use xlink:href="#DejaVuSans-b" transform="translate(919.734375 0)"/>
      <use xlink:href="#DejaVuSans-8" transform="translate(958.75 0)"/>
      <use xlink:href="#DejaVuSans-c" transform="translate(1053.765625 0)"/>
     </g>
    </g>
   </g>
   <g id="line2d_27">
    <path d="M 53.650781 257.173993 
L 651.843307 257.173993 
" clip-path="url(#pb9d0890639)" style="fill: none; stroke-dasharray: 0.8,1.32; stroke-dashoffset: 0; stroke: #000000; stroke-opacity: 0.6; stroke-width: 0.8"/>
   </g>
   <g id="patch_3">
    <path d="M 53.650781 271.078437 
L 53.650781 20.798437 
" style="fill: none; stroke: #000000; stroke-width: 0.8; stroke-linejoin: miter; stroke-linecap: square"/>
   </g>
   <g id="patch_4">
    <path d="M 53.650781 271.078437 
L 651.843307 271.078437 
" style="fill: none; stroke: #000000; stroke-width: 0.8; stroke-linejoin: miter; stroke-linecap: square"/>
   </g>
   <g id="text_16">
    <!-- human baseline (HNS=100) -->
    <g transform="translate(527.911067 255.020377) scale(0.08 -0.08)">
     <defs>
      <path id="DejaVuSans-4b" d="M 3513 2113 
L 3513 0 
L 2938 0 
L 2938 2094 
Q 2938 2591 2744 2837 
Q 2550 3084 2163 3084 
Q 1697 3084 1428 2787 
Q 1159 2491 1159 1978 
L 1159 0 
L 581 0 
L 581 4863 
L 1159 4863 
L 1159 2956 
Q 1366 3272 1645 3428 
Q 1925 3584 2291 3584 
Q 2894 3584 3203 3211 
Q 3513 2838 3513 2113 
z
" transform="scale(0.015625)"/>
      <path id="DejaVuSans-58" d="M 544 1381 
L 544 3500 
L 1119 3500 
L 1119 1403 
Q 1119 906 1312 657 
Q 1506 409 1894 409 
Q 2359 409 2629 706 
Q 2900 1003 2900 1516 
L 2900 3500 
L 3475 3500 
L 3475 0 
L 2900 0 
L 2900 538 
Q 2691 219 2414 64 
Q 2138 -91 1772 -91 
Q 1169 -91 856 284 
Q 544 659 544 1381 
z
M 1991 3584 
L 1991 3584 
z
" transform="scale(0.015625)"/>
      <path id="DejaVuSans-45" d="M 3116 1747 
Q 3116 2381 2855 2742 
Q 2594 3103 2138 3103 
Q 1681 3103 1420 2742 
Q 1159 2381 1159 1747 
Q 1159 1113 1420 752 
Q 1681 391 2138 391 
Q 2594 391 2855 752 
Q 3116 1113 3116 1747 
z
M 1159 2969 
Q 1341 3281 1617 3432 
Q 1894 3584 2278 3584 
Q 2916 3584 3314 3078 
Q 3713 2572 3713 1747 
Q 3713 922 3314 415 
Q 2916 -91 2278 -91 
Q 1894 -91 1617 61 
Q 1341 213 1159 525 
L 1159 0 
L 581 0 
L 581 4863 
L 1159 4863 
L 1159 2969 
z
" transform="scale(0.015625)"/>
      <path id="DejaVuSans-56" d="M 2834 3397 
L 2834 2853 
Q 2591 2978 2328 3040 
Q 2066 3103 1784 3103 
Q 1356 3103 1142 2972 
Q 928 2841 928 2578 
Q 928 2378 1081 2264 
Q 1234 2150 1697 2047 
L 1894 2003 
Q 2506 1872 2764 1633 
Q 3022 1394 3022 966 
Q 3022 478 2636 193 
Q 2250 -91 1575 -91 
Q 1294 -91 989 -36 
Q 684 19 347 128 
L 347 722 
Q 666 556 975 473 
Q 1284 391 1588 391 
Q 1994 391 2212 530 
Q 2431 669 2431 922 
Q 2431 1156 2273 1281 
Q 2116 1406 1581 1522 
L 1381 1569 
Q 847 1681 609 1914 
Q 372 2147 372 2553 
Q 372 3047 722 3315 
Q 1072 3584 1716 3584 
Q 2034 3584 2315 3537 
Q 2597 3491 2834 3397 
z
" transform="scale(0.015625)"/>
      <path id="DejaVuSans-4f" d="M 603 4863 
L 1178 4863 
L 1178 0 
L 603 0 
L 603 4863 
z
" transform="scale(0.015625)"/>
      <path id="DejaVuSans-20" d="M 678 2906 
L 4684 2906 
L 4684 2381 
L 678 2381 
L 678 2906 
z
M 678 1631 
L 4684 1631 
L 4684 1100 
L 678 1100 
L 678 1631 
z
" transform="scale(0.015625)"/>
     </defs>
     <use xlink:href="#DejaVuSans-4b"/>
     <use xlink:href="#DejaVuSans-58" transform="translate(63.375 0)"/>
     <use xlink:href="#DejaVuSans-50" transform="translate(126.75 0)"/>
     <use xlink:href="#DejaVuSans-44" transform="translate(224.15625 0)"/>
     <use xlink:href="#DejaVuSans-51" transform="translate(285.4375 0)"/>
     <use xlink:href="#DejaVuSans-3" transform="translate(348.8125 0)"/>
     <use xlink:href="#DejaVuSans-45" transform="translate(380.59375 0)"/>
     <use xlink:href="#DejaVuSans-44" transform="translate(444.078125 0)"/>
     <use xlink:href="#DejaVuSans-56" transform="translate(505.359375 0)"/>
     <use xlink:href="#DejaVuSans-48" transform="translate(557.453125 0)"/>
     <use xlink:href="#DejaVuSans-4f" transform="translate(618.984375 0)"/>
     <use xlink:href="#DejaVuSans-4c" transform="translate(646.765625 0)"/>
     <use xlink:href="#DejaVuSans-51" transform="translate(674.546875 0)"/>
     <use xlink:href="#DejaVuSans-48" transform="translate(737.921875 0)"/>
     <use xlink:href="#DejaVuSans-3" transform="translate(799.453125 0)"/>
     <use xlink:href="#DejaVuSans-b" transform="translate(831.234375 0)"/>
     <use xlink:href="#DejaVuSans-2b" transform="translate(870.25 0)"/>
     <use xlink:href="#DejaVuSans-31" transform="translate(945.453125 0)"/>
     <use xlink:href="#DejaVuSans-36" transform="translate(1020.265625 0)"/>
     <use xlink:href="#DejaVuSans-20" transform="translate(1083.75 0)"/>
     <use xlink:href="#DejaVuSans-14" transform="translate(1167.546875 0)"/>
     <use xlink:href="#DejaVuSans-13" transform="translate(1231.171875 0)"/>
     <use xlink:href="#DejaVuSans-13" transform="translate(1294.796875 0)"/>
     <use xlink:href="#DejaVuSans-c" transform="translate(1358.421875 0)"/>
    </g>
   </g>
   <g id="PathCollection_1">
    <defs>
     <path id="me8a457183a" d="M -4.1833 4.1833 
L 4.1833 4.1833 
L 4.1833 -4.1833 
L -4.1833 -4.1833 
z
" style="stroke: #000000; stroke-width: 0.4"/>
    </defs>
    <g clip-path="url(#pb9d0890639)">
     <use xlink:href="#me8a457183a" x="478.538806" y="258.147304" style="fill: #2ca02c; stroke: #000000; stroke-width: 0.4"/>
    </g>
   </g>
   <g id="text_17">
    <!-- DQN -->
    <g transform="translate(479.667893 254.439452) scale(0.08 -0.08)">
     <defs>
      <path id="DejaVuSans-27" d="M 1259 4147 
L 1259 519 
L 2022 519 
Q 2988 519 3436 956 
Q 3884 1394 3884 2338 
Q 3884 3275 3436 3711 
Q 2988 4147 2022 4147 
L 1259 4147 
z
M 628 4666 
L 1925 4666 
Q 3281 4666 3915 4102 
Q 4550 3538 4550 2338 
Q 4550 1131 3912 565 
Q 3275 0 1925 0 
L 628 0 
L 628 4666 
z
" transform="scale(0.015625)"/>
      <path id="DejaVuSans-34" d="M 2522 4238 
Q 1834 4238 1429 3725 
Q 1025 3213 1025 2328 
Q 1025 1447 1429 934 
Q 1834 422 2522 422 
Q 3209 422 3611 934 
Q 4013 1447 4013 2328 
Q 4013 3213 3611 3725 
Q 3209 4238 2522 4238 
z
M 3406 84 
L 4238 -825 
L 3475 -825 
L 2784 -78 
Q 2681 -84 2626 -87 
Q 2572 -91 2522 -91 
Q 1538 -91 948 567 
Q 359 1225 359 2328 
Q 359 3434 948 4092 
Q 1538 4750 2522 4750 
Q 3503 4750 4090 4092 
Q 4678 3434 4678 2328 
Q 4678 1516 4351 937 
Q 4025 359 3406 84 
z
" transform="scale(0.015625)"/>
     </defs>
     <use xlink:href="#DejaVuSans-27"/>
     <use xlink:href="#DejaVuSans-34" transform="translate(77 0)"/>
     <use xlink:href="#DejaVuSans-31" transform="translate(155.71875 0)"/>
    </g>
   </g>
   <g id="PathCollection_2">
    <defs>
     <path id="m99dae5128b" d="M 0 4.1833 
C 1.109424 4.1833 2.173559 3.742521 2.95804 2.95804 
C 3.742521 2.173559 4.1833 1.109424 4.1833 0 
C 4.1833 -1.109424 3.742521 -2.173559 2.95804 -2.95804 
C 2.173559 -3.742521 1.109424 -4.1833 0 -4.1833 
C -1.109424 -4.1833 -2.173559 -3.742521 -2.95804 -2.95804 
C -3.742521 -2.173559 -4.1833 -1.109424 -4.1833 0 
C -4.1833 1.109424 -3.742521 2.173559 -2.95804 2.95804 
C -2.173559 3.742521 -1.109424 4.1833 0 4.1833 
z
" style="stroke: #000000; stroke-width: 0.4"/>
    </defs>
    <g clip-path="url(#pb9d0890639)">
     <use xlink:href="#m99dae5128b" x="496.166198" y="245.865045" style="fill: #1f77b4; stroke: #000000; stroke-width: 0.4"/>
    </g>
   </g>
   <g id="text_18">
    <!-- A3C -->
    <g transform="translate(497.006807 251.426823) scale(0.08 -0.08)">
     <defs>
      <path id="DejaVuSans-26" d="M 4122 4306 
L 4122 3641 
Q 3803 3938 3442 4084 
Q 3081 4231 2675 4231 
Q 1875 4231 1450 3742 
Q 1025 3253 1025 2328 
Q 1025 1406 1450 917 
Q 1875 428 2675 428 
Q 3081 428 3442 575 
Q 3803 722 4122 1019 
L 4122 359 
Q 3791 134 3420 21 
Q 3050 -91 2638 -91 
Q 1578 -91 968 557 
Q 359 1206 359 2328 
Q 359 3453 968 4101 
Q 1578 4750 2638 4750 
Q 3056 4750 3426 4639 
Q 3797 4528 4122 4306 
z
" transform="scale(0.015625)"/>
     </defs>
     <use xlink:href="#DejaVuSans-24"/>
     <use xlink:href="#DejaVuSans-16" transform="translate(68.40625 0)"/>
     <use xlink:href="#DejaVuSans-26" transform="translate(132.03125 0)"/>
    </g>
   </g>
   <g id="PathCollection_3">
    <g clip-path="url(#pb9d0890639)">
     <use xlink:href="#m99dae5128b" x="513.310177" y="250.221771" style="fill: #1f77b4; stroke: #000000; stroke-width: 0.4"/>
    </g>
   </g>
   <g id="text_19">
    <!-- PPO -->
    <g transform="translate(514.345721 255.783549) scale(0.08 -0.08)">
     <defs>
      <path id="DejaVuSans-33" d="M 1259 4147 
L 1259 2394 
L 2053 2394 
Q 2494 2394 2734 2622 
Q 2975 2850 2975 3272 
Q 2975 3691 2734 3919 
Q 2494 4147 2053 4147 
L 1259 4147 
z
M 628 4666 
L 2053 4666 
Q 2838 4666 3239 4311 
Q 3641 3956 3641 3272 
Q 3641 2581 3239 2228 
Q 2838 1875 2053 1875 
L 1259 1875 
L 1259 0 
L 628 0 
L 628 4666 
z
" transform="scale(0.015625)"/>
      <path id="DejaVuSans-32" d="M 2522 4238 
Q 1834 4238 1429 3725 
Q 1025 3213 1025 2328 
Q 1025 1447 1429 934 
Q 1834 422 2522 422 
Q 3209 422 3611 934 
Q 4013 1447 4013 2328 
Q 4013 3213 3611 3725 
Q 3209 4238 2522 4238 
z
M 2522 4750 
Q 3503 4750 4090 4092 
Q 4678 3434 4678 2328 
Q 4678 1225 4090 567 
Q 3503 -91 2522 -91 
Q 1538 -91 948 565 
Q 359 1222 359 2328 
Q 359 3434 948 4092 
Q 1538 4750 2522 4750 
z
" transform="scale(0.015625)"/>
     </defs>
     <use xlink:href="#DejaVuSans-33"/>
     <use xlink:href="#DejaVuSans-33" transform="translate(60.296875 0)"/>
     <use xlink:href="#DejaVuSans-32" transform="translate(120.59375 0)"/>
    </g>
   </g>
   <g id="PathCollection_4">
    <g clip-path="url(#pb9d0890639)">
     <use xlink:href="#m99dae5128b" x="530.548733" y="252.956312" style="fill: #1f77b4; stroke: #000000; stroke-width: 0.4"/>
    </g>
   </g>
   <g id="text_20">
    <!-- IMPALA -->
    <g transform="translate(531.684634 250.175423) scale(0.08 -0.08)">
     <defs>
      <path id="DejaVuSans-2c" d="M 628 4666 
L 1259 4666 
L 1259 0 
L 628 0 
L 628 4666 
z
" transform="scale(0.015625)"/>
      <path id="DejaVuSans-30" d="M 628 4666 
L 1569 4666 
L 2759 1491 
L 3956 4666 
L 4897 4666 
L 4897 0 
L 4281 0 
L 4281 4097 
L 3078 897 
L 2444 897 
L 1241 4097 
L 1241 0 
L 628 0 
L 628 4666 
z
" transform="scale(0.015625)"/>
      <path id="DejaVuSans-2f" d="M 628 4666 
L 1259 4666 
L 1259 531 
L 3531 531 
L 3531 0 
L 628 0 
L 628 4666 
z
" transform="scale(0.015625)"/>
     </defs>
     <use xlink:href="#DejaVuSans-2c"/>
     <use xlink:href="#DejaVuSans-30" transform="translate(29.5 0)"/>
     <use xlink:href="#DejaVuSans-33" transform="translate(115.78125 0)"/>
     <use xlink:href="#DejaVuSans-24" transform="translate(169.6875 0)"/>
     <use xlink:href="#DejaVuSans-2f" transform="translate(238.09375 0)"/>
     <use xlink:href="#DejaVuSans-24" transform="translate(296.109375 0)"/>
    </g>
   </g>
   <g id="PathCollection_5">
    <g clip-path="url(#pb9d0890639)">
     <use xlink:href="#me8a457183a" x="547.67745" y="172.820363" style="fill: #2ca02c; stroke: #000000; stroke-width: 0.4"/>
    </g>
   </g>
   <g id="text_21">
    <!-- R2D2 -->
    <g transform="translate(549.023548 163.550734) scale(0.08 -0.08)">
     <defs>
      <path id="DejaVuSans-35" d="M 2841 2188 
Q 3044 2119 3236 1894 
Q 3428 1669 3622 1275 
L 4263 0 
L 3584 0 
L 2988 1197 
Q 2756 1666 2539 1819 
Q 2322 1972 1947 1972 
L 1259 1972 
L 1259 0 
L 628 0 
L 628 4666 
L 2053 4666 
Q 2853 4666 3247 4331 
Q 3641 3997 3641 3322 
Q 3641 2881 3436 2590 
Q 3231 2300 2841 2188 
z
M 1259 4147 
L 1259 2491 
L 2053 2491 
Q 2509 2491 2742 2702 
Q 2975 2913 2975 3322 
Q 2975 3731 2742 3939 
Q 2509 4147 2053 4147 
L 1259 4147 
z
" transform="scale(0.015625)"/>
     </defs>
     <use xlink:href="#DejaVuSans-35"/>
     <use xlink:href="#DejaVuSans-15" transform="translate(69.484375 0)"/>
     <use xlink:href="#DejaVuSans-27" transform="translate(133.109375 0)"/>
     <use xlink:href="#DejaVuSans-15" transform="translate(210.109375 0)"/>
    </g>
   </g>
   <g id="PathCollection_6">
    <g clip-path="url(#pb9d0890639)">
     <use xlink:href="#me8a457183a" x="565.401703" y="41.052578" style="fill: #2ca02c; stroke: #000000; stroke-width: 0.4"/>
    </g>
   </g>
   <g id="text_22">
    <!-- Agent57 -->
    <g transform="translate(566.362462 29.087804) scale(0.08 -0.08)">
     <defs>
      <path id="DejaVuSans-4a" d="M 2906 1791 
Q 2906 2416 2648 2759 
Q 2391 3103 1925 3103 
Q 1463 3103 1205 2759 
Q 947 2416 947 1791 
Q 947 1169 1205 825 
Q 1463 481 1925 481 
Q 2391 481 2648 825 
Q 2906 1169 2906 1791 
z
M 3481 434 
Q 3481 -459 3084 -895 
Q 2688 -1331 1869 -1331 
Q 1566 -1331 1297 -1286 
Q 1028 -1241 775 -1147 
L 775 -588 
Q 1028 -725 1275 -790 
Q 1522 -856 1778 -856 
Q 2344 -856 2625 -561 
Q 2906 -266 2906 331 
L 2906 616 
Q 2728 306 2450 153 
Q 2172 0 1784 0 
Q 1141 0 747 490 
Q 353 981 353 1791 
Q 353 2603 747 3093 
Q 1141 3584 1784 3584 
Q 2172 3584 2450 3431 
Q 2728 3278 2906 2969 
L 2906 3500 
L 3481 3500 
L 3481 434 
z
" transform="scale(0.015625)"/>
      <path id="DejaVuSans-1a" d="M 525 4666 
L 3525 4666 
L 3525 4397 
L 1831 0 
L 1172 0 
L 2766 4134 
L 525 4134 
L 525 4666 
z
" transform="scale(0.015625)"/>
     </defs>
     <use xlink:href="#DejaVuSans-24"/>
     <use xlink:href="#DejaVuSans-4a" transform="translate(68.40625 0)"/>
     <use xlink:href="#DejaVuSans-48" transform="translate(131.890625 0)"/>
     <use xlink:href="#DejaVuSans-51" transform="translate(193.421875 0)"/>
     <use xlink:href="#DejaVuSans-57" transform="translate(256.796875 0)"/>
     <use xlink:href="#DejaVuSans-18" transform="translate(296 0)"/>
     <use xlink:href="#DejaVuSans-1a" transform="translate(359.625 0)"/>
    </g>
   </g>
   <g id="PathCollection_7">
    <defs>
     <path id="m04f084b934" d="M 0 -4.1833 
L -4.1833 4.1833 
L 4.1833 4.1833 
z
" style="stroke: #000000; stroke-width: 0.4"/>
    </defs>
    <g clip-path="url(#pb9d0890639)">
     <use xlink:href="#m04f084b934" x="565.040521" y="227.928312" style="fill: #d62728; stroke: #000000; stroke-width: 0.4"/>
    </g>
   </g>
   <g id="text_23">
    <!-- MuZero -->
    <g transform="translate(566.362462 218.658682) scale(0.08 -0.08)">
     <defs>
      <path id="DejaVuSans-3d" d="M 359 4666 
L 4025 4666 
L 4025 4184 
L 1075 531 
L 4097 531 
L 4097 0 
L 288 0 
L 288 481 
L 3238 4134 
L 359 4134 
L 359 4666 
z
" transform="scale(0.015625)"/>
      <path id="DejaVuSans-52" d="M 1959 3097 
Q 1497 3097 1228 2736 
Q 959 2375 959 1747 
Q 959 1119 1226 758 
Q 1494 397 1959 397 
Q 2419 397 2687 759 
Q 2956 1122 2956 1747 
Q 2956 2369 2687 2733 
Q 2419 3097 1959 3097 
z
M 1959 3584 
Q 2709 3584 3137 3096 
Q 3566 2609 3566 1747 
Q 3566 888 3137 398 
Q 2709 -91 1959 -91 
Q 1206 -91 779 398 
Q 353 888 353 1747 
Q 353 2609 779 3096 
Q 1206 3584 1959 3584 
z
" transform="scale(0.015625)"/>
     </defs>
     <use xlink:href="#DejaVuSans-30"/>
     <use xlink:href="#DejaVuSans-58" transform="translate(86.28125 0)"/>
     <use xlink:href="#DejaVuSans-3d" transform="translate(149.65625 0)"/>
     <use xlink:href="#DejaVuSans-48" transform="translate(218.15625 0)"/>
     <use xlink:href="#DejaVuSans-55" transform="translate(279.6875 0)"/>
     <use xlink:href="#DejaVuSans-52" transform="translate(318.59375 0)"/>
    </g>
   </g>
   <g id="PathCollection_8">
    <g clip-path="url(#pb9d0890639)">
     <use xlink:href="#m04f084b934" x="617.844771" y="256.617815" style="fill: #d62728; stroke: #000000; stroke-width: 0.4"/>
    </g>
   </g>
   <g id="text_24">
    <!-- DreamerV3 -->
    <g transform="translate(618.379203 262.179593) scale(0.08 -0.08)">
     <defs>
      <path id="DejaVuSans-39" d="M 1831 0 
L 50 4666 
L 709 4666 
L 2188 738 
L 3669 4666 
L 4325 4666 
L 2547 0 
L 1831 0 
z
" transform="scale(0.015625)"/>
     </defs>
     <use xlink:href="#DejaVuSans-27"/>
     <use xlink:href="#DejaVuSans-55" transform="translate(77 0)"/>
     <use xlink:href="#DejaVuSans-48" transform="translate(115.90625 0)"/>
     <use xlink:href="#DejaVuSans-44" transform="translate(177.4375 0)"/>
     <use xlink:href="#DejaVuSans-50" transform="translate(238.71875 0)"/>
     <use xlink:href="#DejaVuSans-48" transform="translate(336.125 0)"/>
     <use xlink:href="#DejaVuSans-55" transform="translate(397.65625 0)"/>
     <use xlink:href="#DejaVuSans-39" transform="translate(438.765625 0)"/>
     <use xlink:href="#DejaVuSans-16" transform="translate(507.171875 0)"/>
    </g>
   </g>
   <g id="PathCollection_9">
    <defs>
     <path id="md61c4a5dcc" d="M -3.872983 3.872983 
L 3.872983 -3.872983 
M -3.872983 -3.872983 
L 3.872983 3.872983 
" style="stroke: #7f7f7f; stroke-opacity: 0.55; stroke-width: 0.4"/>
    </defs>
    <g clip-path="url(#pb9d0890639)">
     <use xlink:href="#md61c4a5dcc" x="80.463093" y="264.126215" style="fill: #7f7f7f; fill-opacity: 0.55; stroke: #7f7f7f; stroke-opacity: 0.55; stroke-width: 0.4"/>
    </g>
   </g>
   <g id="text_25">
    <!-- REINFORCE -->
    <g style="fill: #808080" transform="translate(80.872876 266.443623) scale(0.07 -0.07)">
     <defs>
      <path id="DejaVuSans-28" d="M 628 4666 
L 3578 4666 
L 3578 4134 
L 1259 4134 
L 1259 2753 
L 3481 2753 
L 3481 2222 
L 1259 2222 
L 1259 531 
L 3634 531 
L 3634 0 
L 628 0 
L 628 4666 
z
" transform="scale(0.015625)"/>
      <path id="DejaVuSans-29" d="M 628 4666 
L 3309 4666 
L 3309 4134 
L 1259 4134 
L 1259 2759 
L 3109 2759 
L 3109 2228 
L 1259 2228 
L 1259 0 
L 628 0 
L 628 4666 
z
" transform="scale(0.015625)"/>
     </defs>
     <use xlink:href="#DejaVuSans-35"/>
     <use xlink:href="#DejaVuSans-28" transform="translate(69.484375 0)"/>
     <use xlink:href="#DejaVuSans-2c" transform="translate(132.671875 0)"/>
     <use xlink:href="#DejaVuSans-31" transform="translate(162.171875 0)"/>
     <use xlink:href="#DejaVuSans-29" transform="translate(236.984375 0)"/>
     <use xlink:href="#DejaVuSans-32" transform="translate(294.5 0)"/>
     <use xlink:href="#DejaVuSans-35" transform="translate(373.21875 0)"/>
     <use xlink:href="#DejaVuSans-26" transform="translate(437.71875 0)"/>
     <use xlink:href="#DejaVuSans-28" transform="translate(507.546875 0)"/>
    </g>
   </g>
   <g id="PathCollection_10">
    <g clip-path="url(#pb9d0890639)">
     <use xlink:href="#md61c4a5dcc" x="200.829449" y="264.126215" style="fill: #7f7f7f; fill-opacity: 0.55; stroke: #7f7f7f; stroke-opacity: 0.55; stroke-width: 0.4"/>
    </g>
   </g>
   <g id="text_26">
    <!-- PG theorem -->
    <g style="fill: #808080" transform="translate(202.245272 266.443623) scale(0.07 -0.07)">
     <defs>
      <path id="DejaVuSans-2a" d="M 3809 666 
L 3809 1919 
L 2778 1919 
L 2778 2438 
L 4434 2438 
L 4434 434 
Q 4069 175 3628 42 
Q 3188 -91 2688 -91 
Q 1594 -91 976 548 
Q 359 1188 359 2328 
Q 359 3472 976 4111 
Q 1594 4750 2688 4750 
Q 3144 4750 3555 4637 
Q 3966 4525 4313 4306 
L 4313 3634 
Q 3963 3931 3569 4081 
Q 3175 4231 2741 4231 
Q 1884 4231 1454 3753 
Q 1025 3275 1025 2328 
Q 1025 1384 1454 906 
Q 1884 428 2741 428 
Q 3075 428 3337 486 
Q 3600 544 3809 666 
z
" transform="scale(0.015625)"/>
     </defs>
     <use xlink:href="#DejaVuSans-33"/>
     <use xlink:href="#DejaVuSans-2a" transform="translate(60.296875 0)"/>
     <use xlink:href="#DejaVuSans-3" transform="translate(137.78125 0)"/>
     <use xlink:href="#DejaVuSans-57" transform="translate(169.5625 0)"/>
     <use xlink:href="#DejaVuSans-4b" transform="translate(208.765625 0)"/>
     <use xlink:href="#DejaVuSans-48" transform="translate(272.140625 0)"/>
     <use xlink:href="#DejaVuSans-52" transform="translate(333.671875 0)"/>
     <use xlink:href="#DejaVuSans-55" transform="translate(394.859375 0)"/>
     <use xlink:href="#DejaVuSans-48" transform="translate(433.765625 0)"/>
     <use xlink:href="#DejaVuSans-50" transform="translate(495.296875 0)"/>
    </g>
   </g>
   <g id="PathCollection_11">
    <g clip-path="url(#pb9d0890639)">
     <use xlink:href="#md61c4a5dcc" x="236.215196" y="264.126215" style="fill: #7f7f7f; fill-opacity: 0.55; stroke: #7f7f7f; stroke-opacity: 0.55; stroke-width: 0.4"/>
    </g>
   </g>
   <g id="text_27">
    <!-- Natural PG -->
    <g style="fill: #808080" transform="translate(236.9231 266.443623) scale(0.07 -0.07)">
     <use xlink:href="#DejaVuSans-31"/>
     <use xlink:href="#DejaVuSans-44" transform="translate(74.8125 0)"/>
     <use xlink:href="#DejaVuSans-57" transform="translate(136.09375 0)"/>
     <use xlink:href="#DejaVuSans-58" transform="translate(175.296875 0)"/>
     <use xlink:href="#DejaVuSans-55" transform="translate(238.671875 0)"/>
     <use xlink:href="#DejaVuSans-44" transform="translate(279.78125 0)"/>
     <use xlink:href="#DejaVuSans-4f" transform="translate(341.0625 0)"/>
     <use xlink:href="#DejaVuSans-3" transform="translate(368.84375 0)"/>
     <use xlink:href="#DejaVuSans-33" transform="translate(400.625 0)"/>
     <use xlink:href="#DejaVuSans-2a" transform="translate(460.921875 0)"/>
    </g>
   </g>
   <g id="PathCollection_12">
    <g clip-path="url(#pb9d0890639)">
     <use xlink:href="#md61c4a5dcc" x="357.131873" y="264.126215" style="fill: #7f7f7f; fill-opacity: 0.55; stroke: #7f7f7f; stroke-opacity: 0.55; stroke-width: 0.4"/>
    </g>
   </g>
   <g id="text_28">
    <!-- NAC -->
    <g style="fill: #808080" transform="translate(358.295497 266.443623) scale(0.07 -0.07)">
     <use xlink:href="#DejaVuSans-31"/>
     <use xlink:href="#DejaVuSans-24" transform="translate(74.8125 0)"/>
     <use xlink:href="#DejaVuSans-26" transform="translate(141.46875 0)"/>
    </g>
   </g>
   <g id="PathCollection_13">
    <defs>
     <path id="med4098a66f" d="M -3.872983 3.872983 
L 3.872983 3.872983 
L 3.872983 -3.872983 
L -3.872983 -3.872983 
z
" style="stroke: #000000; stroke-opacity: 0.55; stroke-width: 0.4"/>
    </defs>
    <g clip-path="url(#pb9d0890639)">
     <use xlink:href="#med4098a66f" x="461.233237" y="264.126215" style="fill: #2ca02c; fill-opacity: 0.55; stroke: #000000; stroke-opacity: 0.55; stroke-width: 0.4"/>
    </g>
   </g>
   <g id="text_29">
    <!-- DPG -->
    <g style="fill: #808080" transform="translate(462.328979 266.443623) scale(0.07 -0.07)">
     <use xlink:href="#DejaVuSans-27"/>
     <use xlink:href="#DejaVuSans-33" transform="translate(77 0)"/>
     <use xlink:href="#DejaVuSans-2a" transform="translate(137.296875 0)"/>
    </g>
   </g>
   <g id="PathCollection_14">
    <defs>
     <path id="mb3d41f7d8d" d="M 0 3.872983 
C 1.027127 3.872983 2.012324 3.464901 2.738613 2.738613 
C 3.464901 2.012324 3.872983 1.027127 3.872983 0 
C 3.872983 -1.027127 3.464901 -2.012324 2.738613 -2.738613 
C 2.012324 -3.464901 1.027127 -3.872983 0 -3.872983 
C -1.027127 -3.872983 -2.012324 -3.464901 -2.738613 -2.738613 
C -3.464901 -2.012324 -3.872983 -1.027127 -3.872983 0 
C -3.872983 1.027127 -3.464901 2.012324 -2.738613 2.738613 
C -2.012324 3.464901 -1.027127 3.872983 0 3.872983 
z
" style="stroke: #000000; stroke-opacity: 0.55; stroke-width: 0.4"/>
    </defs>
    <g clip-path="url(#pb9d0890639)">
     <use xlink:href="#mb3d41f7d8d" x="479.192107" y="264.126215" style="fill: #1f77b4; fill-opacity: 0.55; stroke: #000000; stroke-opacity: 0.55; stroke-width: 0.4"/>
    </g>
   </g>
   <g id="text_30">
    <!-- TRPO -->
    <g style="fill: #808080" transform="translate(479.667893 266.443623) scale(0.07 -0.07)">
     <defs>
      <path id="DejaVuSans-37" d="M -19 4666 
L 3928 4666 
L 3928 4134 
L 2272 4134 
L 2272 0 
L 1638 0 
L 1638 4134 
L -19 4134 
L -19 4666 
z
" transform="scale(0.015625)"/>
     </defs>
     <use xlink:href="#DejaVuSans-37"/>
     <use xlink:href="#DejaVuSans-35" transform="translate(61.078125 0)"/>
     <use xlink:href="#DejaVuSans-33" transform="translate(130.5625 0)"/>
     <use xlink:href="#DejaVuSans-32" transform="translate(190.859375 0)"/>
    </g>
   </g>
   <g id="PathCollection_15">
    <g clip-path="url(#pb9d0890639)">
     <use xlink:href="#mb3d41f7d8d" x="495.049306" y="264.126215" style="fill: #1f77b4; fill-opacity: 0.55; stroke: #000000; stroke-opacity: 0.55; stroke-width: 0.4"/>
    </g>
   </g>
   <g id="text_31">
    <!-- GAE+TRPO -->
    <g style="fill: #808080" transform="translate(497.006807 266.443623) scale(0.07 -0.07)">
     <defs>
      <path id="DejaVuSans-e" d="M 2944 4013 
L 2944 2272 
L 4684 2272 
L 4684 1741 
L 2944 1741 
L 2944 0 
L 2419 0 
L 2419 1741 
L 678 1741 
L 678 2272 
L 2419 2272 
L 2419 4013 
L 2944 4013 
z
" transform="scale(0.015625)"/>
     </defs>
     <use xlink:href="#DejaVuSans-2a"/>
     <use xlink:href="#DejaVuSans-24" transform="translate(77.484375 0)"/>
     <use xlink:href="#DejaVuSans-28" transform="translate(145.890625 0)"/>
     <use xlink:href="#DejaVuSans-e" transform="translate(209.078125 0)"/>
     <use xlink:href="#DejaVuSans-37" transform="translate(292.875 0)"/>
     <use xlink:href="#DejaVuSans-35" transform="translate(353.953125 0)"/>
     <use xlink:href="#DejaVuSans-33" transform="translate(423.4375 0)"/>
     <use xlink:href="#DejaVuSans-32" transform="translate(483.734375 0)"/>
    </g>
   </g>
   <g id="PathCollection_16">
    <g clip-path="url(#pb9d0890639)">
     <use xlink:href="#med4098a66f" x="512.416124" y="264.126215" style="fill: #2ca02c; fill-opacity: 0.55; stroke: #000000; stroke-opacity: 0.55; stroke-width: 0.4"/>
    </g>
   </g>
   <g id="text_32">
    <!-- ACER -->
    <g style="fill: #808080" transform="translate(514.345721 266.443623) scale(0.07 -0.07)">
     <use xlink:href="#DejaVuSans-24"/>
     <use xlink:href="#DejaVuSans-26" transform="translate(66.65625 0)"/>
     <use xlink:href="#DejaVuSans-28" transform="translate(136.484375 0)"/>
     <use xlink:href="#DejaVuSans-35" transform="translate(199.671875 0)"/>
    </g>
   </g>
   <g id="PathCollection_17">
    <defs>
     <path id="m802a10ab96" d="M 0 -3.872983 
L -3.872983 3.872983 
L 3.872983 3.872983 
z
" style="stroke: #000000; stroke-opacity: 0.55; stroke-width: 0.4"/>
    </defs>
    <g clip-path="url(#pb9d0890639)">
     <use xlink:href="#m802a10ab96" x="512.300108" y="264.126215" style="fill: #d62728; fill-opacity: 0.55; stroke: #000000; stroke-opacity: 0.55; stroke-width: 0.4"/>
    </g>
   </g>
   <g id="text_33">
    <!-- AlphaGo Zero -->
    <g style="fill: #808080" transform="translate(514.345721 266.443623) scale(0.07 -0.07)">
     <defs>
      <path id="DejaVuSans-53" d="M 1159 525 
L 1159 -1331 
L 581 -1331 
L 581 3500 
L 1159 3500 
L 1159 2969 
Q 1341 3281 1617 3432 
Q 1894 3584 2278 3584 
Q 2916 3584 3314 3078 
Q 3713 2572 3713 1747 
Q 3713 922 3314 415 
Q 2916 -91 2278 -91 
Q 1894 -91 1617 61 
Q 1341 213 1159 525 
z
M 3116 1747 
Q 3116 2381 2855 2742 
Q 2594 3103 2138 3103 
Q 1681 3103 1420 2742 
Q 1159 2381 1159 1747 
Q 1159 1113 1420 752 
Q 1681 391 2138 391 
Q 2594 391 2855 752 
Q 3116 1113 3116 1747 
z
" transform="scale(0.015625)"/>
     </defs>
     <use xlink:href="#DejaVuSans-24"/>
     <use xlink:href="#DejaVuSans-4f" transform="translate(68.40625 0)"/>
     <use xlink:href="#DejaVuSans-53" transform="translate(96.1875 0)"/>
     <use xlink:href="#DejaVuSans-4b" transform="translate(159.671875 0)"/>
     <use xlink:href="#DejaVuSans-44" transform="translate(223.046875 0)"/>
     <use xlink:href="#DejaVuSans-2a" transform="translate(284.328125 0)"/>
     <use xlink:href="#DejaVuSans-52" transform="translate(361.8125 0)"/>
     <use xlink:href="#DejaVuSans-3" transform="translate(423 0)"/>
     <use xlink:href="#DejaVuSans-3d" transform="translate(454.78125 0)"/>
     <use xlink:href="#DejaVuSans-48" transform="translate(523.28125 0)"/>
     <use xlink:href="#DejaVuSans-55" transform="translate(584.8125 0)"/>
     <use xlink:href="#DejaVuSans-52" transform="translate(623.71875 0)"/>
    </g>
   </g>
   <g id="PathCollection_18">
    <g clip-path="url(#pb9d0890639)">
     <use xlink:href="#med4098a66f" x="479.030896" y="264.126215" style="fill: #2ca02c; fill-opacity: 0.55; stroke: #000000; stroke-opacity: 0.55; stroke-width: 0.4"/>
    </g>
   </g>
   <g id="text_34">
    <!-- DDPG -->
    <g style="fill: #808080" transform="translate(479.667893 266.443623) scale(0.07 -0.07)">
     <use xlink:href="#DejaVuSans-27"/>
     <use xlink:href="#DejaVuSans-27" transform="translate(77 0)"/>
     <use xlink:href="#DejaVuSans-33" transform="translate(154 0)"/>
     <use xlink:href="#DejaVuSans-2a" transform="translate(214.296875 0)"/>
    </g>
   </g>
   <g id="PathCollection_19">
    <g clip-path="url(#pb9d0890639)">
     <use xlink:href="#med4098a66f" x="530.953204" y="264.126215" style="fill: #2ca02c; fill-opacity: 0.55; stroke: #000000; stroke-opacity: 0.55; stroke-width: 0.4"/>
    </g>
   </g>
   <g id="text_35">
    <!-- TD3 -->
    <g style="fill: #808080" transform="translate(531.684634 266.443623) scale(0.07 -0.07)">
     <use xlink:href="#DejaVuSans-37"/>
     <use xlink:href="#DejaVuSans-27" transform="translate(61.078125 0)"/>
     <use xlink:href="#DejaVuSans-16" transform="translate(138.078125 0)"/>
    </g>
   </g>
   <g id="PathCollection_20">
    <g clip-path="url(#pb9d0890639)">
     <use xlink:href="#med4098a66f" x="531.112471" y="264.126215" style="fill: #2ca02c; fill-opacity: 0.55; stroke: #000000; stroke-opacity: 0.55; stroke-width: 0.4"/>
    </g>
   </g>
   <g id="text_36">
    <!-- SAC -->
    <g style="fill: #808080" transform="translate(531.684634 266.443623) scale(0.07 -0.07)">
     <use xlink:href="#DejaVuSans-36"/>
     <use xlink:href="#DejaVuSans-24" transform="translate(65.34375 0)"/>
     <use xlink:href="#DejaVuSans-26" transform="translate(132 0)"/>
    </g>
   </g>
   <g id="PathCollection_21">
    <defs>
     <path id="m853add4010" d="M -0 5.477226 
L 5.477226 0 
L 0 -5.477226 
L -5.477226 -0 
z
" style="stroke: #000000; stroke-opacity: 0.55; stroke-width: 0.4"/>
    </defs>
    <g clip-path="url(#pb9d0890639)">
     <use xlink:href="#m853add4010" x="565.97861" y="264.126215" style="fill: #8c564b; fill-opacity: 0.55; stroke: #000000; stroke-opacity: 0.55; stroke-width: 0.4"/>
    </g>
   </g>
   <g id="text_37">
    <!-- CQL -->
    <g style="fill: #808080" transform="translate(566.362462 266.443623) scale(0.07 -0.07)">
     <use xlink:href="#DejaVuSans-26"/>
     <use xlink:href="#DejaVuSans-34" transform="translate(69.828125 0)"/>
     <use xlink:href="#DejaVuSans-2f" transform="translate(148.546875 0)"/>
    </g>
   </g>
   <g id="PathCollection_22">
    <g clip-path="url(#pb9d0890639)">
     <use xlink:href="#m853add4010" x="583.00636" y="264.126215" style="fill: #8c564b; fill-opacity: 0.55; stroke: #000000; stroke-opacity: 0.55; stroke-width: 0.4"/>
    </g>
   </g>
   <g id="text_38">
    <!-- IQL -->
    <g style="fill: #808080" transform="translate(583.701376 266.443623) scale(0.07 -0.07)">
     <use xlink:href="#DejaVuSans-2c"/>
     <use xlink:href="#DejaVuSans-34" transform="translate(29.5 0)"/>
     <use xlink:href="#DejaVuSans-2f" transform="translate(108.21875 0)"/>
    </g>
   </g>
   <g id="PathCollection_23">
    <g clip-path="url(#pb9d0890639)">
     <use xlink:href="#m853add4010" x="582.420861" y="264.126215" style="fill: #8c564b; fill-opacity: 0.55; stroke: #000000; stroke-opacity: 0.55; stroke-width: 0.4"/>
    </g>
   </g>
   <g id="text_39">
    <!-- DT -->
    <g style="fill: #808080" transform="translate(583.701376 266.443623) scale(0.07 -0.07)">
     <use xlink:href="#DejaVuSans-27"/>
     <use xlink:href="#DejaVuSans-37" transform="translate(77 0)"/>
    </g>
   </g>
   <g id="PathCollection_24">
    <g clip-path="url(#pb9d0890639)">
     <use xlink:href="#mb3d41f7d8d" x="634.9908" y="264.126215" style="fill: #1f77b4; fill-opacity: 0.55; stroke: #000000; stroke-opacity: 0.55; stroke-width: 0.4"/>
    </g>
   </g>
   <g id="text_40">
    <!-- GRPO -->
    <g style="fill: #808080" transform="translate(635.718117 266.443623) scale(0.07 -0.07)">
     <use xlink:href="#DejaVuSans-2a"/>
     <use xlink:href="#DejaVuSans-35" transform="translate(77.484375 0)"/>
     <use xlink:href="#DejaVuSans-33" transform="translate(146.96875 0)"/>
     <use xlink:href="#DejaVuSans-32" transform="translate(207.265625 0)"/>
    </g>
   </g>
   <g id="PathCollection_25">
    <g clip-path="url(#pb9d0890639)">
     <use xlink:href="#m853add4010" x="633.842523" y="264.126215" style="fill: #8c564b; fill-opacity: 0.55; stroke: #000000; stroke-opacity: 0.55; stroke-width: 0.4"/>
    </g>
   </g>
   <g id="text_41">
    <!-- DPO -->
    <g style="fill: #808080" transform="translate(635.718117 266.443623) scale(0.07 -0.07)">
     <use xlink:href="#DejaVuSans-27"/>
     <use xlink:href="#DejaVuSans-33" transform="translate(77 0)"/>
     <use xlink:href="#DejaVuSans-32" transform="translate(137.296875 0)"/>
    </g>
   </g>
   <g id="text_42">
    <!-- RL method evolution: Atari median human-normalized score vs publication year -->
    <g transform="translate(152.547825 14.798437) scale(0.1 -0.1)">
     <defs>
      <path id="DejaVuSans-59" d="M 191 3500 
L 800 3500 
L 1894 563 
L 2988 3500 
L 3597 3500 
L 2284 0 
L 1503 0 
L 191 3500 
z
" transform="scale(0.015625)"/>
      <path id="DejaVuSans-1d" d="M 750 794 
L 1409 794 
L 1409 0 
L 750 0 
L 750 794 
z
M 750 3309 
L 1409 3309 
L 1409 2516 
L 750 2516 
L 750 3309 
z
" transform="scale(0.015625)"/>
      <path id="DejaVuSans-10" d="M 313 2009 
L 1997 2009 
L 1997 1497 
L 313 1497 
L 313 2009 
z
" transform="scale(0.015625)"/>
      <path id="DejaVuSans-5d" d="M 353 3500 
L 3084 3500 
L 3084 2975 
L 922 459 
L 3084 459 
L 3084 0 
L 275 0 
L 275 525 
L 2438 3041 
L 353 3041 
L 353 3500 
z
" transform="scale(0.015625)"/>
      <path id="DejaVuSans-46" d="M 3122 3366 
L 3122 2828 
Q 2878 2963 2633 3030 
Q 2388 3097 2138 3097 
Q 1578 3097 1268 2742 
Q 959 2388 959 1747 
Q 959 1106 1268 751 
Q 1578 397 2138 397 
Q 2388 397 2633 464 
Q 2878 531 3122 666 
L 3122 134 
Q 2881 22 2623 -34 
Q 2366 -91 2075 -91 
Q 1284 -91 818 406 
Q 353 903 353 1747 
Q 353 2603 823 3093 
Q 1294 3584 2113 3584 
Q 2378 3584 2631 3529 
Q 2884 3475 3122 3366 
z
" transform="scale(0.015625)"/>
     </defs>
     <use xlink:href="#DejaVuSans-35"/>
     <use xlink:href="#DejaVuSans-2f" transform="translate(69.484375 0)"/>
     <use xlink:href="#DejaVuSans-3" transform="translate(125.203125 0)"/>
     <use xlink:href="#DejaVuSans-50" transform="translate(156.984375 0)"/>
     <use xlink:href="#DejaVuSans-48" transform="translate(254.390625 0)"/>
     <use xlink:href="#DejaVuSans-57" transform="translate(315.921875 0)"/>
     <use xlink:href="#DejaVuSans-4b" transform="translate(355.125 0)"/>
     <use xlink:href="#DejaVuSans-52" transform="translate(418.5 0)"/>
     <use xlink:href="#DejaVuSans-47" transform="translate(479.6875 0)"/>
     <use xlink:href="#DejaVuSans-3" transform="translate(543.171875 0)"/>
     <use xlink:href="#DejaVuSans-48" transform="translate(574.953125 0)"/>
     <use xlink:href="#DejaVuSans-59" transform="translate(636.484375 0)"/>
     <use xlink:href="#DejaVuSans-52" transform="translate(695.671875 0)"/>
     <use xlink:href="#DejaVuSans-4f" transform="translate(756.859375 0)"/>
     <use xlink:href="#DejaVuSans-58" transform="translate(784.640625 0)"/>
     <use xlink:href="#DejaVuSans-57" transform="translate(848.015625 0)"/>
     <use xlink:href="#DejaVuSans-4c" transform="translate(887.21875 0)"/>
     <use xlink:href="#DejaVuSans-52" transform="translate(915 0)"/>
     <use xlink:href="#DejaVuSans-51" transform="translate(976.1875 0)"/>
     <use xlink:href="#DejaVuSans-1d" transform="translate(1039.5625 0)"/>
     <use xlink:href="#DejaVuSans-3" transform="translate(1073.25 0)"/>
     <use xlink:href="#DejaVuSans-24" transform="translate(1105.03125 0)"/>
     <use xlink:href="#DejaVuSans-57" transform="translate(1171.6875 0)"/>
     <use xlink:href="#DejaVuSans-44" transform="translate(1210.890625 0)"/>
     <use xlink:href="#DejaVuSans-55" transform="translate(1272.171875 0)"/>
     <use xlink:href="#DejaVuSans-4c" transform="translate(1313.28125 0)"/>
     <use xlink:href="#DejaVuSans-3" transform="translate(1341.0625 0)"/>
     <use xlink:href="#DejaVuSans-50" transform="translate(1372.84375 0)"/>
     <use xlink:href="#DejaVuSans-48" transform="translate(1470.25 0)"/>
     <use xlink:href="#DejaVuSans-47" transform="translate(1531.78125 0)"/>
     <use xlink:href="#DejaVuSans-4c" transform="translate(1595.265625 0)"/>
     <use xlink:href="#DejaVuSans-44" transform="translate(1623.046875 0)"/>
     <use xlink:href="#DejaVuSans-51" transform="translate(1684.328125 0)"/>
     <use xlink:href="#DejaVuSans-3" transform="translate(1747.703125 0)"/>
     <use xlink:href="#DejaVuSans-4b" transform="translate(1779.484375 0)"/>
     <use xlink:href="#DejaVuSans-58" transform="translate(1842.859375 0)"/>
     <use xlink:href="#DejaVuSans-50" transform="translate(1906.234375 0)"/>
     <use xlink:href="#DejaVuSans-44" transform="translate(2003.640625 0)"/>
     <use xlink:href="#DejaVuSans-51" transform="translate(2064.921875 0)"/>
     <use xlink:href="#DejaVuSans-10" transform="translate(2128.296875 0)"/>
     <use xlink:href="#DejaVuSans-51" transform="translate(2164.375 0)"/>
     <use xlink:href="#DejaVuSans-52" transform="translate(2227.75 0)"/>
     <use xlink:href="#DejaVuSans-55" transform="translate(2288.9375 0)"/>
     <use xlink:href="#DejaVuSans-50" transform="translate(2328.296875 0)"/>
     <use xlink:href="#DejaVuSans-44" transform="translate(2425.703125 0)"/>
     <use xlink:href="#DejaVuSans-4f" transform="translate(2486.984375 0)"/>
     <use xlink:href="#DejaVuSans-4c" transform="translate(2514.765625 0)"/>
     <use xlink:href="#DejaVuSans-5d" transform="translate(2542.546875 0)"/>
     <use xlink:href="#DejaVuSans-48" transform="translate(2595.03125 0)"/>
     <use xlink:href="#DejaVuSans-47" transform="translate(2656.5625 0)"/>
     <use xlink:href="#DejaVuSans-3" transform="translate(2720.046875 0)"/>
     <use xlink:href="#DejaVuSans-56" transform="translate(2751.828125 0)"/>
     <use xlink:href="#DejaVuSans-46" transform="translate(2803.921875 0)"/>
     <use xlink:href="#DejaVuSans-52" transform="translate(2858.90625 0)"/>
     <use xlink:href="#DejaVuSans-55" transform="translate(2920.09375 0)"/>
     <use xlink:href="#DejaVuSans-48" transform="translate(2959 0)"/>
     <use xlink:href="#DejaVuSans-3" transform="translate(3020.53125 0)"/>
     <use xlink:href="#DejaVuSans-59" transform="translate(3052.3125 0)"/>
     <use xlink:href="#DejaVuSans-56" transform="translate(3111.5 0)"/>
     <use xlink:href="#DejaVuSans-3" transform="translate(3163.59375 0)"/>
     <use xlink:href="#DejaVuSans-53" transform="translate(3195.375 0)"/>
     <use xlink:href="#DejaVuSans-58" transform="translate(3258.859375 0)"/>
     <use xlink:href="#DejaVuSans-45" transform="translate(3322.234375 0)"/>
     <use xlink:href="#DejaVuSans-4f" transform="translate(3385.71875 0)"/>
     <use xlink:href="#DejaVuSans-4c" transform="translate(3413.5 0)"/>
     <use xlink:href="#DejaVuSans-46" transform="translate(3441.28125 0)"/>
     <use xlink:href="#DejaVuSans-44" transform="translate(3496.265625 0)"/>
     <use xlink:href="#DejaVuSans-57" transform="translate(3557.546875 0)"/>
     <use xlink:href="#DejaVuSans-4c" transform="translate(3596.75 0)"/>
     <use xlink:href="#DejaVuSans-52" transform="translate(3624.53125 0)"/>
     <use xlink:href="#DejaVuSans-51" transform="translate(3685.71875 0)"/>
     <use xlink:href="#DejaVuSans-3" transform="translate(3749.09375 0)"/>
     <use xlink:href="#DejaVuSans-5c" transform="translate(3780.875 0)"/>
     <use xlink:href="#DejaVuSans-48" transform="translate(3840.0625 0)"/>
     <use xlink:href="#DejaVuSans-44" transform="translate(3901.59375 0)"/>
     <use xlink:href="#DejaVuSans-55" transform="translate(3962.875 0)"/>
    </g>
   </g>
   <g id="legend_1">
    <g id="PathCollection_26">
     <g>
      <use xlink:href="#me8a457183a" x="68.850781" y="31.977187" style="fill: #2ca02c; stroke: #000000; stroke-width: 0.4"/>
     </g>
    </g>
    <g id="text_43">
     <!-- off-policy MF -->
     <g transform="translate(83.250781 34.077187) scale(0.08 -0.08)">
      <defs>
       <path id="DejaVuSans-13ae" d="M 4531 4863 
L 4531 4384 
L 3981 4384 
Q 3672 4384 3551 4259 
Q 3431 4134 3431 3809 
L 3431 3500 
L 4378 3500 
L 4378 3053 
L 3431 3053 
L 3431 0 
L 2853 0 
L 2853 3053 
L 1275 3053 
L 1275 0 
L 697 0 
L 697 3053 
L 147 3053 
L 147 3500 
L 697 3500 
L 697 3744 
Q 697 4328 969 4595 
Q 1241 4863 1831 4863 
L 2375 4863 
L 2375 4384 
L 1825 4384 
Q 1516 4384 1394 4259 
Q 1275 4134 1275 3809 
L 1275 3500 
L 2853 3500 
L 2853 3744 
Q 2853 4328 3125 4595 
Q 3397 4863 3988 4863 
L 4531 4863 
z
" transform="scale(0.015625)"/>
      </defs>
      <use xlink:href="#DejaVuSans-52"/>
      <use xlink:href="#DejaVuSans-13ae" transform="translate(61.1875 0)"/>
      <use xlink:href="#DejaVuSans-10" transform="translate(130.078125 0)"/>
      <use xlink:href="#DejaVuSans-53" transform="translate(166.15625 0)"/>
      <use xlink:href="#DejaVuSans-52" transform="translate(229.640625 0)"/>
      <use xlink:href="#DejaVuSans-4f" transform="translate(290.828125 0)"/>
      <use xlink:href="#DejaVuSans-4c" transform="translate(318.609375 0)"/>
      <use xlink:href="#DejaVuSans-46" transform="translate(346.390625 0)"/>
      <use xlink:href="#DejaVuSans-5c" transform="translate(401.375 0)"/>
      <use xlink:href="#DejaVuSans-3" transform="translate(460.5625 0)"/>
      <use xlink:href="#DejaVuSans-30" transform="translate(492.34375 0)"/>
      <use xlink:href="#DejaVuSans-29" transform="translate(578.625 0)"/>
     </g>
    </g>
    <g id="PathCollection_27">
     <g>
      <use xlink:href="#m99dae5128b" x="68.850781" y="43.977812" style="fill: #1f77b4; stroke: #000000; stroke-width: 0.4"/>
     </g>
    </g>
    <g id="text_44">
     <!-- on-policy MF -->
     <g transform="translate(83.250781 46.077812) scale(0.08 -0.08)">
      <use xlink:href="#DejaVuSans-52"/>
      <use xlink:href="#DejaVuSans-51" transform="translate(61.1875 0)"/>
      <use xlink:href="#DejaVuSans-10" transform="translate(124.5625 0)"/>
      <use xlink:href="#DejaVuSans-53" transform="translate(160.640625 0)"/>
      <use xlink:href="#DejaVuSans-52" transform="translate(224.125 0)"/>
      <use xlink:href="#DejaVuSans-4f" transform="translate(285.3125 0)"/>
      <use xlink:href="#DejaVuSans-4c" transform="translate(313.09375 0)"/>
      <use xlink:href="#DejaVuSans-46" transform="translate(340.875 0)"/>
      <use xlink:href="#DejaVuSans-5c" transform="translate(395.859375 0)"/>
      <use xlink:href="#DejaVuSans-3" transform="translate(455.046875 0)"/>
      <use xlink:href="#DejaVuSans-30" transform="translate(486.828125 0)"/>
      <use xlink:href="#DejaVuSans-29" transform="translate(573.109375 0)"/>
     </g>
    </g>
    <g id="PathCollection_28">
     <g>
      <use xlink:href="#m04f084b934" x="68.850781" y="55.978437" style="fill: #d62728; stroke: #000000; stroke-width: 0.4"/>
     </g>
    </g>
    <g id="text_45">
     <!-- model-based -->
     <g transform="translate(83.250781 58.078437) scale(0.08 -0.08)">
      <use xlink:href="#DejaVuSans-50"/>
      <use xlink:href="#DejaVuSans-52" transform="translate(97.40625 0)"/>
      <use xlink:href="#DejaVuSans-47" transform="translate(158.59375 0)"/>
      <use xlink:href="#DejaVuSans-48" transform="translate(222.078125 0)"/>
      <use xlink:href="#DejaVuSans-4f" transform="translate(283.609375 0)"/>
      <use xlink:href="#DejaVuSans-10" transform="translate(311.390625 0)"/>
      <use xlink:href="#DejaVuSans-45" transform="translate(347.46875 0)"/>
      <use xlink:href="#DejaVuSans-44" transform="translate(410.953125 0)"/>
      <use xlink:href="#DejaVuSans-56" transform="translate(472.234375 0)"/>
      <use xlink:href="#DejaVuSans-48" transform="translate(524.328125 0)"/>
      <use xlink:href="#DejaVuSans-47" transform="translate(585.859375 0)"/>
     </g>
    </g>
    <g id="PathCollection_29">
     <g>
      <use xlink:href="#md61c4a5dcc" x="159.198281" y="31.977187" style="fill: #7f7f7f; fill-opacity: 0.55; stroke: #7f7f7f; stroke-opacity: 0.55; stroke-width: 0.4"/>
     </g>
    </g>
    <g id="text_46">
     <!-- foundation -->
     <g transform="translate(173.598281 34.077187) scale(0.08 -0.08)">
      <defs>
       <path id="DejaVuSans-49" d="M 2375 4863 
L 2375 4384 
L 1825 4384 
Q 1516 4384 1395 4259 
Q 1275 4134 1275 3809 
L 1275 3500 
L 2222 3500 
L 2222 3053 
L 1275 3053 
L 1275 0 
L 697 0 
L 697 3053 
L 147 3053 
L 147 3500 
L 697 3500 
L 697 3744 
Q 697 4328 969 4595 
Q 1241 4863 1831 4863 
L 2375 4863 
z
" transform="scale(0.015625)"/>
      </defs>
      <use xlink:href="#DejaVuSans-49"/>
      <use xlink:href="#DejaVuSans-52" transform="translate(35.203125 0)"/>
      <use xlink:href="#DejaVuSans-58" transform="translate(96.390625 0)"/>
      <use xlink:href="#DejaVuSans-51" transform="translate(159.765625 0)"/>
      <use xlink:href="#DejaVuSans-47" transform="translate(223.140625 0)"/>
      <use xlink:href="#DejaVuSans-44" transform="translate(286.625 0)"/>
      <use xlink:href="#DejaVuSans-57" transform="translate(347.90625 0)"/>
      <use xlink:href="#DejaVuSans-4c" transform="translate(387.109375 0)"/>
      <use xlink:href="#DejaVuSans-52" transform="translate(414.890625 0)"/>
      <use xlink:href="#DejaVuSans-51" transform="translate(476.078125 0)"/>
     </g>
    </g>
    <g id="PathCollection_30">
     <g>
      <use xlink:href="#m853add4010" x="159.198281" y="43.977812" style="fill: #8c564b; fill-opacity: 0.55; stroke: #000000; stroke-opacity: 0.55; stroke-width: 0.4"/>
     </g>
    </g>
    <g id="text_47">
     <!-- offline -->
     <g transform="translate(173.598281 46.077812) scale(0.08 -0.08)">
      <defs>
       <path id="DejaVuSans-13b2" d="M 2375 4863 
L 2375 4384 
L 1825 4384 
Q 1516 4384 1394 4259 
Q 1275 4134 1275 3809 
L 1275 3500 
L 2853 3500 
L 2853 3744 
Q 2853 4328 3125 4595 
Q 3397 4863 3988 4863 
L 5588 4863 
L 5588 0 
L 5009 0 
L 5009 4384 
L 3981 4384 
Q 3672 4384 3551 4259 
Q 3431 4134 3431 3809 
L 3431 3500 
L 4378 3500 
L 4378 3053 
L 3431 3053 
L 3431 0 
L 2853 0 
L 2853 3053 
L 1275 3053 
L 1275 0 
L 697 0 
L 697 3053 
L 147 3053 
L 147 3500 
L 697 3500 
L 697 3744 
Q 697 4328 969 4595 
Q 1241 4863 1831 4863 
L 2375 4863 
z
" transform="scale(0.015625)"/>
      </defs>
      <use xlink:href="#DejaVuSans-52"/>
      <use xlink:href="#DejaVuSans-13b2" transform="translate(61.1875 0)"/>
      <use xlink:href="#DejaVuSans-4c" transform="translate(157.875 0)"/>
      <use xlink:href="#DejaVuSans-51" transform="translate(185.65625 0)"/>
      <use xlink:href="#DejaVuSans-48" transform="translate(249.03125 0)"/>
     </g>
    </g>
   </g>
  </g>
 </g>
 <defs>
  <clipPath id="pb9d0890639">
   <rect x="53.650781" y="20.798437" width="598.192526" height="250.28"/>
  </clipPath>
 </defs>
</svg>
